<?xml version="1.0" encoding="utf-8" standalone="no"?>
<!DOCTYPE svg PUBLIC "-//W3C//DTD SVG 1.1//EN"
  "http://www.w3.org/Graphics/SVG/1.1/DTD/svg11.dtd">
<svg xmlns:xlink="http://www.w3.org/1999/xlink" width="720pt" height="1080pt" viewBox="0 0 720 1080" xmlns="http://www.w3.org/2000/svg" version="1.1">
 <metadata>
  <rdf:RDF xmlns:dc="http://purl.org/dc/elements/1.1/" xmlns:cc="http://creativecommons.org/ns#" xmlns:rdf="http://www.w3.org/1999/02/22-rdf-syntax-ns#">
   <cc:Work>
    <dc:type rdf:resource="http://purl.org/dc/dcmitype/StillImage"/>
    <dc:date>2024-01-26T18:20:20.200373</dc:date>
    <dc:format>image/svg+xml</dc:format>
    <dc:creator>
     <cc:Agent>
      <dc:title>Matplotlib v3.5.1, https://matplotlib.org/</dc:title>
     </cc:Agent>
    </dc:creator>
   </cc:Work>
  </rdf:RDF>
 </metadata>
 <defs>
  <style type="text/css">*{stroke-linejoin: round; stroke-linecap: butt}</style>
 </defs>
 <g id="figure_1">
  <g id="patch_1">
   <path d="M 0 1080 
L 720 1080 
L 720 0 
L 0 0 
L 0 1080 
z
" style="fill: none"/>
  </g>
  <g id="axes_1">
   <g id="patch_2">
    <path d="M 79.33125 590.660625 
L 709.2 590.660625 
L 709.2 243.543125 
L 79.33125 243.543125 
z
" style="fill: #ffffff"/>
   </g>
   <g id="matplotlib.axis_1">
    <g id="xtick_1">
     <g id="line2d_1">
      <path d="M 107.961648 590.660625 
L 107.961648 243.543125 
" clip-path="url(#p16693acd87)" style="fill: none; stroke: #b0b0b0; stroke-width: 0.8; stroke-linecap: square"/>
     </g>
     <g id="line2d_2">
      <defs>
       <path id="m47b12d96a5" d="M 0 0 
L 0 3.5 
" style="stroke: #000000; stroke-width: 0.8"/>
      </defs>
      <g>
       <use xlink:href="#m47b12d96a5" x="107.961648" y="590.660625" style="stroke: #000000; stroke-width: 0.8"/>
      </g>
     </g>
     <g id="text_1">
      <!-- 0 -->
      <g transform="translate(101.599148 612.8575)scale(0.2 -0.2)">
       <defs>
        <path id="DejaVuSans-30" d="M 2034 4250 
Q 1547 4250 1301 3770 
Q 1056 3291 1056 2328 
Q 1056 1369 1301 889 
Q 1547 409 2034 409 
Q 2525 409 2770 889 
Q 3016 1369 3016 2328 
Q 3016 3291 2770 3770 
Q 2525 4250 2034 4250 
z
M 2034 4750 
Q 2819 4750 3233 4129 
Q 3647 3509 3647 2328 
Q 3647 1150 3233 529 
Q 2819 -91 2034 -91 
Q 1250 -91 836 529 
Q 422 1150 422 2328 
Q 422 3509 836 4129 
Q 1250 4750 2034 4750 
z
" transform="scale(0.015625)"/>
       </defs>
       <use xlink:href="#DejaVuSans-30"/>
      </g>
     </g>
    </g>
    <g id="xtick_2">
     <g id="line2d_3">
      <path d="M 204.198279 590.660625 
L 204.198279 243.543125 
" clip-path="url(#p16693acd87)" style="fill: none; stroke: #b0b0b0; stroke-width: 0.8; stroke-linecap: square"/>
     </g>
     <g id="line2d_4">
      <g>
       <use xlink:href="#m47b12d96a5" x="204.198279" y="590.660625" style="stroke: #000000; stroke-width: 0.8"/>
      </g>
     </g>
     <g id="text_2">
      <!-- 20 -->
      <g transform="translate(191.473279 612.8575)scale(0.2 -0.2)">
       <defs>
        <path id="DejaVuSans-32" d="M 1228 531 
L 3431 531 
L 3431 0 
L 469 0 
L 469 531 
Q 828 903 1448 1529 
Q 2069 2156 2228 2338 
Q 2531 2678 2651 2914 
Q 2772 3150 2772 3378 
Q 2772 3750 2511 3984 
Q 2250 4219 1831 4219 
Q 1534 4219 1204 4116 
Q 875 4013 500 3803 
L 500 4441 
Q 881 4594 1212 4672 
Q 1544 4750 1819 4750 
Q 2544 4750 2975 4387 
Q 3406 4025 3406 3419 
Q 3406 3131 3298 2873 
Q 3191 2616 2906 2266 
Q 2828 2175 2409 1742 
Q 1991 1309 1228 531 
z
" transform="scale(0.015625)"/>
       </defs>
       <use xlink:href="#DejaVuSans-32"/>
       <use xlink:href="#DejaVuSans-30" x="63.623047"/>
      </g>
     </g>
    </g>
    <g id="xtick_3">
     <g id="line2d_5">
      <path d="M 300.43491 590.660625 
L 300.43491 243.543125 
" clip-path="url(#p16693acd87)" style="fill: none; stroke: #b0b0b0; stroke-width: 0.8; stroke-linecap: square"/>
     </g>
     <g id="line2d_6">
      <g>
       <use xlink:href="#m47b12d96a5" x="300.43491" y="590.660625" style="stroke: #000000; stroke-width: 0.8"/>
      </g>
     </g>
     <g id="text_3">
      <!-- 40 -->
      <g transform="translate(287.70991 612.8575)scale(0.2 -0.2)">
       <defs>
        <path id="DejaVuSans-34" d="M 2419 4116 
L 825 1625 
L 2419 1625 
L 2419 4116 
z
M 2253 4666 
L 3047 4666 
L 3047 1625 
L 3713 1625 
L 3713 1100 
L 3047 1100 
L 3047 0 
L 2419 0 
L 2419 1100 
L 313 1100 
L 313 1709 
L 2253 4666 
z
" transform="scale(0.015625)"/>
       </defs>
       <use xlink:href="#DejaVuSans-34"/>
       <use xlink:href="#DejaVuSans-30" x="63.623047"/>
      </g>
     </g>
    </g>
    <g id="xtick_4">
     <g id="line2d_7">
      <path d="M 396.671541 590.660625 
L 396.671541 243.543125 
" clip-path="url(#p16693acd87)" style="fill: none; stroke: #b0b0b0; stroke-width: 0.8; stroke-linecap: square"/>
     </g>
     <g id="line2d_8">
      <g>
       <use xlink:href="#m47b12d96a5" x="396.671541" y="590.660625" style="stroke: #000000; stroke-width: 0.8"/>
      </g>
     </g>
     <g id="text_4">
      <!-- 60 -->
      <g transform="translate(383.946541 612.8575)scale(0.2 -0.2)">
       <defs>
        <path id="DejaVuSans-36" d="M 2113 2584 
Q 1688 2584 1439 2293 
Q 1191 2003 1191 1497 
Q 1191 994 1439 701 
Q 1688 409 2113 409 
Q 2538 409 2786 701 
Q 3034 994 3034 1497 
Q 3034 2003 2786 2293 
Q 2538 2584 2113 2584 
z
M 3366 4563 
L 3366 3988 
Q 3128 4100 2886 4159 
Q 2644 4219 2406 4219 
Q 1781 4219 1451 3797 
Q 1122 3375 1075 2522 
Q 1259 2794 1537 2939 
Q 1816 3084 2150 3084 
Q 2853 3084 3261 2657 
Q 3669 2231 3669 1497 
Q 3669 778 3244 343 
Q 2819 -91 2113 -91 
Q 1303 -91 875 529 
Q 447 1150 447 2328 
Q 447 3434 972 4092 
Q 1497 4750 2381 4750 
Q 2619 4750 2861 4703 
Q 3103 4656 3366 4563 
z
" transform="scale(0.015625)"/>
       </defs>
       <use xlink:href="#DejaVuSans-36"/>
       <use xlink:href="#DejaVuSans-30" x="63.623047"/>
      </g>
     </g>
    </g>
    <g id="xtick_5">
     <g id="line2d_9">
      <path d="M 492.908172 590.660625 
L 492.908172 243.543125 
" clip-path="url(#p16693acd87)" style="fill: none; stroke: #b0b0b0; stroke-width: 0.8; stroke-linecap: square"/>
     </g>
     <g id="line2d_10">
      <g>
       <use xlink:href="#m47b12d96a5" x="492.908172" y="590.660625" style="stroke: #000000; stroke-width: 0.8"/>
      </g>
     </g>
     <g id="text_5">
      <!-- 80 -->
      <g transform="translate(480.183172 612.8575)scale(0.2 -0.2)">
       <defs>
        <path id="DejaVuSans-38" d="M 2034 2216 
Q 1584 2216 1326 1975 
Q 1069 1734 1069 1313 
Q 1069 891 1326 650 
Q 1584 409 2034 409 
Q 2484 409 2743 651 
Q 3003 894 3003 1313 
Q 3003 1734 2745 1975 
Q 2488 2216 2034 2216 
z
M 1403 2484 
Q 997 2584 770 2862 
Q 544 3141 544 3541 
Q 544 4100 942 4425 
Q 1341 4750 2034 4750 
Q 2731 4750 3128 4425 
Q 3525 4100 3525 3541 
Q 3525 3141 3298 2862 
Q 3072 2584 2669 2484 
Q 3125 2378 3379 2068 
Q 3634 1759 3634 1313 
Q 3634 634 3220 271 
Q 2806 -91 2034 -91 
Q 1263 -91 848 271 
Q 434 634 434 1313 
Q 434 1759 690 2068 
Q 947 2378 1403 2484 
z
M 1172 3481 
Q 1172 3119 1398 2916 
Q 1625 2713 2034 2713 
Q 2441 2713 2670 2916 
Q 2900 3119 2900 3481 
Q 2900 3844 2670 4047 
Q 2441 4250 2034 4250 
Q 1625 4250 1398 4047 
Q 1172 3844 1172 3481 
z
" transform="scale(0.015625)"/>
       </defs>
       <use xlink:href="#DejaVuSans-38"/>
       <use xlink:href="#DejaVuSans-30" x="63.623047"/>
      </g>
     </g>
    </g>
    <g id="xtick_6">
     <g id="line2d_11">
      <path d="M 589.144803 590.660625 
L 589.144803 243.543125 
" clip-path="url(#p16693acd87)" style="fill: none; stroke: #b0b0b0; stroke-width: 0.8; stroke-linecap: square"/>
     </g>
     <g id="line2d_12">
      <g>
       <use xlink:href="#m47b12d96a5" x="589.144803" y="590.660625" style="stroke: #000000; stroke-width: 0.8"/>
      </g>
     </g>
     <g id="text_6">
      <!-- 100 -->
      <g transform="translate(570.057303 612.8575)scale(0.2 -0.2)">
       <defs>
        <path id="DejaVuSans-31" d="M 794 531 
L 1825 531 
L 1825 4091 
L 703 3866 
L 703 4441 
L 1819 4666 
L 2450 4666 
L 2450 531 
L 3481 531 
L 3481 0 
L 794 0 
L 794 531 
z
" transform="scale(0.015625)"/>
       </defs>
       <use xlink:href="#DejaVuSans-31"/>
       <use xlink:href="#DejaVuSans-30" x="63.623047"/>
       <use xlink:href="#DejaVuSans-30" x="127.246094"/>
      </g>
     </g>
    </g>
    <g id="xtick_7">
     <g id="line2d_13">
      <path d="M 685.381434 590.660625 
L 685.381434 243.543125 
" clip-path="url(#p16693acd87)" style="fill: none; stroke: #b0b0b0; stroke-width: 0.8; stroke-linecap: square"/>
     </g>
     <g id="line2d_14">
      <g>
       <use xlink:href="#m47b12d96a5" x="685.381434" y="590.660625" style="stroke: #000000; stroke-width: 0.8"/>
      </g>
     </g>
     <g id="text_7">
      <!-- 120 -->
      <g transform="translate(666.293934 612.8575)scale(0.2 -0.2)">
       <use xlink:href="#DejaVuSans-31"/>
       <use xlink:href="#DejaVuSans-32" x="63.623047"/>
       <use xlink:href="#DejaVuSans-30" x="127.246094"/>
      </g>
     </g>
    </g>
    <g id="text_8">
     <!-- step -->
     <g transform="translate(372.634375 636.21375)scale(0.2 -0.2)">
      <defs>
       <path id="DejaVuSans-73" d="M 2834 3397 
L 2834 2853 
Q 2591 2978 2328 3040 
Q 2066 3103 1784 3103 
Q 1356 3103 1142 2972 
Q 928 2841 928 2578 
Q 928 2378 1081 2264 
Q 1234 2150 1697 2047 
L 1894 2003 
Q 2506 1872 2764 1633 
Q 3022 1394 3022 966 
Q 3022 478 2636 193 
Q 2250 -91 1575 -91 
Q 1294 -91 989 -36 
Q 684 19 347 128 
L 347 722 
Q 666 556 975 473 
Q 1284 391 1588 391 
Q 1994 391 2212 530 
Q 2431 669 2431 922 
Q 2431 1156 2273 1281 
Q 2116 1406 1581 1522 
L 1381 1569 
Q 847 1681 609 1914 
Q 372 2147 372 2553 
Q 372 3047 722 3315 
Q 1072 3584 1716 3584 
Q 2034 3584 2315 3537 
Q 2597 3491 2834 3397 
z
" transform="scale(0.015625)"/>
       <path id="DejaVuSans-74" d="M 1172 4494 
L 1172 3500 
L 2356 3500 
L 2356 3053 
L 1172 3053 
L 1172 1153 
Q 1172 725 1289 603 
Q 1406 481 1766 481 
L 2356 481 
L 2356 0 
L 1766 0 
Q 1100 0 847 248 
Q 594 497 594 1153 
L 594 3053 
L 172 3053 
L 172 3500 
L 594 3500 
L 594 4494 
L 1172 4494 
z
" transform="scale(0.015625)"/>
       <path id="DejaVuSans-65" d="M 3597 1894 
L 3597 1613 
L 953 1613 
Q 991 1019 1311 708 
Q 1631 397 2203 397 
Q 2534 397 2845 478 
Q 3156 559 3463 722 
L 3463 178 
Q 3153 47 2828 -22 
Q 2503 -91 2169 -91 
Q 1331 -91 842 396 
Q 353 884 353 1716 
Q 353 2575 817 3079 
Q 1281 3584 2069 3584 
Q 2775 3584 3186 3129 
Q 3597 2675 3597 1894 
z
M 3022 2063 
Q 3016 2534 2758 2815 
Q 2500 3097 2075 3097 
Q 1594 3097 1305 2825 
Q 1016 2553 972 2059 
L 3022 2063 
z
" transform="scale(0.015625)"/>
       <path id="DejaVuSans-70" d="M 1159 525 
L 1159 -1331 
L 581 -1331 
L 581 3500 
L 1159 3500 
L 1159 2969 
Q 1341 3281 1617 3432 
Q 1894 3584 2278 3584 
Q 2916 3584 3314 3078 
Q 3713 2572 3713 1747 
Q 3713 922 3314 415 
Q 2916 -91 2278 -91 
Q 1894 -91 1617 61 
Q 1341 213 1159 525 
z
M 3116 1747 
Q 3116 2381 2855 2742 
Q 2594 3103 2138 3103 
Q 1681 3103 1420 2742 
Q 1159 2381 1159 1747 
Q 1159 1113 1420 752 
Q 1681 391 2138 391 
Q 2594 391 2855 752 
Q 3116 1113 3116 1747 
z
" transform="scale(0.015625)"/>
      </defs>
      <use xlink:href="#DejaVuSans-73"/>
      <use xlink:href="#DejaVuSans-74" x="52.099609"/>
      <use xlink:href="#DejaVuSans-65" x="91.308594"/>
      <use xlink:href="#DejaVuSans-70" x="152.832031"/>
     </g>
    </g>
   </g>
   <g id="matplotlib.axis_2">
    <g id="ytick_1">
     <g id="line2d_15">
      <path d="M 79.33125 590.660625 
L 709.2 590.660625 
" clip-path="url(#p16693acd87)" style="fill: none; stroke: #b0b0b0; stroke-width: 0.8; stroke-linecap: square"/>
     </g>
     <g id="line2d_16">
      <defs>
       <path id="m21cd1979e0" d="M 0 0 
L -3.5 0 
" style="stroke: #000000; stroke-width: 0.8"/>
      </defs>
      <g>
       <use xlink:href="#m21cd1979e0" x="79.33125" y="590.660625" style="stroke: #000000; stroke-width: 0.8"/>
      </g>
     </g>
     <g id="text_9">
      <!-- 30 -->
      <g transform="translate(46.88125 598.259063)scale(0.2 -0.2)">
       <defs>
        <path id="DejaVuSans-33" d="M 2597 2516 
Q 3050 2419 3304 2112 
Q 3559 1806 3559 1356 
Q 3559 666 3084 287 
Q 2609 -91 1734 -91 
Q 1441 -91 1130 -33 
Q 819 25 488 141 
L 488 750 
Q 750 597 1062 519 
Q 1375 441 1716 441 
Q 2309 441 2620 675 
Q 2931 909 2931 1356 
Q 2931 1769 2642 2001 
Q 2353 2234 1838 2234 
L 1294 2234 
L 1294 2753 
L 1863 2753 
Q 2328 2753 2575 2939 
Q 2822 3125 2822 3475 
Q 2822 3834 2567 4026 
Q 2313 4219 1838 4219 
Q 1578 4219 1281 4162 
Q 984 4106 628 3988 
L 628 4550 
Q 988 4650 1302 4700 
Q 1616 4750 1894 4750 
Q 2613 4750 3031 4423 
Q 3450 4097 3450 3541 
Q 3450 3153 3228 2886 
Q 3006 2619 2597 2516 
z
" transform="scale(0.015625)"/>
       </defs>
       <use xlink:href="#DejaVuSans-33"/>
       <use xlink:href="#DejaVuSans-30" x="63.623047"/>
      </g>
     </g>
    </g>
    <g id="ytick_2">
     <g id="line2d_17">
      <path d="M 79.33125 541.072411 
L 709.2 541.072411 
" clip-path="url(#p16693acd87)" style="fill: none; stroke: #b0b0b0; stroke-width: 0.8; stroke-linecap: square"/>
     </g>
     <g id="line2d_18">
      <g>
       <use xlink:href="#m21cd1979e0" x="79.33125" y="541.072411" style="stroke: #000000; stroke-width: 0.8"/>
      </g>
     </g>
     <g id="text_10">
      <!-- 40 -->
      <g transform="translate(46.88125 548.670848)scale(0.2 -0.2)">
       <use xlink:href="#DejaVuSans-34"/>
       <use xlink:href="#DejaVuSans-30" x="63.623047"/>
      </g>
     </g>
    </g>
    <g id="ytick_3">
     <g id="line2d_19">
      <path d="M 79.33125 491.484196 
L 709.2 491.484196 
" clip-path="url(#p16693acd87)" style="fill: none; stroke: #b0b0b0; stroke-width: 0.8; stroke-linecap: square"/>
     </g>
     <g id="line2d_20">
      <g>
       <use xlink:href="#m21cd1979e0" x="79.33125" y="491.484196" style="stroke: #000000; stroke-width: 0.8"/>
      </g>
     </g>
     <g id="text_11">
      <!-- 50 -->
      <g transform="translate(46.88125 499.082634)scale(0.2 -0.2)">
       <defs>
        <path id="DejaVuSans-35" d="M 691 4666 
L 3169 4666 
L 3169 4134 
L 1269 4134 
L 1269 2991 
Q 1406 3038 1543 3061 
Q 1681 3084 1819 3084 
Q 2600 3084 3056 2656 
Q 3513 2228 3513 1497 
Q 3513 744 3044 326 
Q 2575 -91 1722 -91 
Q 1428 -91 1123 -41 
Q 819 9 494 109 
L 494 744 
Q 775 591 1075 516 
Q 1375 441 1709 441 
Q 2250 441 2565 725 
Q 2881 1009 2881 1497 
Q 2881 1984 2565 2268 
Q 2250 2553 1709 2553 
Q 1456 2553 1204 2497 
Q 953 2441 691 2322 
L 691 4666 
z
" transform="scale(0.015625)"/>
       </defs>
       <use xlink:href="#DejaVuSans-35"/>
       <use xlink:href="#DejaVuSans-30" x="63.623047"/>
      </g>
     </g>
    </g>
    <g id="ytick_4">
     <g id="line2d_21">
      <path d="M 79.33125 441.895982 
L 709.2 441.895982 
" clip-path="url(#p16693acd87)" style="fill: none; stroke: #b0b0b0; stroke-width: 0.8; stroke-linecap: square"/>
     </g>
     <g id="line2d_22">
      <g>
       <use xlink:href="#m21cd1979e0" x="79.33125" y="441.895982" style="stroke: #000000; stroke-width: 0.8"/>
      </g>
     </g>
     <g id="text_12">
      <!-- 60 -->
      <g transform="translate(46.88125 449.49442)scale(0.2 -0.2)">
       <use xlink:href="#DejaVuSans-36"/>
       <use xlink:href="#DejaVuSans-30" x="63.623047"/>
      </g>
     </g>
    </g>
    <g id="ytick_5">
     <g id="line2d_23">
      <path d="M 79.33125 392.307768 
L 709.2 392.307768 
" clip-path="url(#p16693acd87)" style="fill: none; stroke: #b0b0b0; stroke-width: 0.8; stroke-linecap: square"/>
     </g>
     <g id="line2d_24">
      <g>
       <use xlink:href="#m21cd1979e0" x="79.33125" y="392.307768" style="stroke: #000000; stroke-width: 0.8"/>
      </g>
     </g>
     <g id="text_13">
      <!-- 70 -->
      <g transform="translate(46.88125 399.906205)scale(0.2 -0.2)">
       <defs>
        <path id="DejaVuSans-37" d="M 525 4666 
L 3525 4666 
L 3525 4397 
L 1831 0 
L 1172 0 
L 2766 4134 
L 525 4134 
L 525 4666 
z
" transform="scale(0.015625)"/>
       </defs>
       <use xlink:href="#DejaVuSans-37"/>
       <use xlink:href="#DejaVuSans-30" x="63.623047"/>
      </g>
     </g>
    </g>
    <g id="ytick_6">
     <g id="line2d_25">
      <path d="M 79.33125 342.719554 
L 709.2 342.719554 
" clip-path="url(#p16693acd87)" style="fill: none; stroke: #b0b0b0; stroke-width: 0.8; stroke-linecap: square"/>
     </g>
     <g id="line2d_26">
      <g>
       <use xlink:href="#m21cd1979e0" x="79.33125" y="342.719554" style="stroke: #000000; stroke-width: 0.8"/>
      </g>
     </g>
     <g id="text_14">
      <!-- 80 -->
      <g transform="translate(46.88125 350.317991)scale(0.2 -0.2)">
       <use xlink:href="#DejaVuSans-38"/>
       <use xlink:href="#DejaVuSans-30" x="63.623047"/>
      </g>
     </g>
    </g>
    <g id="ytick_7">
     <g id="line2d_27">
      <path d="M 79.33125 293.131339 
L 709.2 293.131339 
" clip-path="url(#p16693acd87)" style="fill: none; stroke: #b0b0b0; stroke-width: 0.8; stroke-linecap: square"/>
     </g>
     <g id="line2d_28">
      <g>
       <use xlink:href="#m21cd1979e0" x="79.33125" y="293.131339" style="stroke: #000000; stroke-width: 0.8"/>
      </g>
     </g>
     <g id="text_15">
      <!-- 90 -->
      <g transform="translate(46.88125 300.729777)scale(0.2 -0.2)">
       <defs>
        <path id="DejaVuSans-39" d="M 703 97 
L 703 672 
Q 941 559 1184 500 
Q 1428 441 1663 441 
Q 2288 441 2617 861 
Q 2947 1281 2994 2138 
Q 2813 1869 2534 1725 
Q 2256 1581 1919 1581 
Q 1219 1581 811 2004 
Q 403 2428 403 3163 
Q 403 3881 828 4315 
Q 1253 4750 1959 4750 
Q 2769 4750 3195 4129 
Q 3622 3509 3622 2328 
Q 3622 1225 3098 567 
Q 2575 -91 1691 -91 
Q 1453 -91 1209 -44 
Q 966 3 703 97 
z
M 1959 2075 
Q 2384 2075 2632 2365 
Q 2881 2656 2881 3163 
Q 2881 3666 2632 3958 
Q 2384 4250 1959 4250 
Q 1534 4250 1286 3958 
Q 1038 3666 1038 3163 
Q 1038 2656 1286 2365 
Q 1534 2075 1959 2075 
z
" transform="scale(0.015625)"/>
       </defs>
       <use xlink:href="#DejaVuSans-39"/>
       <use xlink:href="#DejaVuSans-30" x="63.623047"/>
      </g>
     </g>
    </g>
    <g id="ytick_8">
     <g id="line2d_29">
      <path d="M 79.33125 243.543125 
L 709.2 243.543125 
" clip-path="url(#p16693acd87)" style="fill: none; stroke: #b0b0b0; stroke-width: 0.8; stroke-linecap: square"/>
     </g>
     <g id="line2d_30">
      <g>
       <use xlink:href="#m21cd1979e0" x="79.33125" y="243.543125" style="stroke: #000000; stroke-width: 0.8"/>
      </g>
     </g>
     <g id="text_16">
      <!-- 100 -->
      <g transform="translate(34.15625 251.141562)scale(0.2 -0.2)">
       <use xlink:href="#DejaVuSans-31"/>
       <use xlink:href="#DejaVuSans-30" x="63.623047"/>
       <use xlink:href="#DejaVuSans-30" x="127.246094"/>
      </g>
     </g>
    </g>
    <g id="text_17">
     <!-- accuracy [%] -->
     <g transform="translate(25.996875 482.703437)rotate(-90)scale(0.2 -0.2)">
      <defs>
       <path id="DejaVuSans-61" d="M 2194 1759 
Q 1497 1759 1228 1600 
Q 959 1441 959 1056 
Q 959 750 1161 570 
Q 1363 391 1709 391 
Q 2188 391 2477 730 
Q 2766 1069 2766 1631 
L 2766 1759 
L 2194 1759 
z
M 3341 1997 
L 3341 0 
L 2766 0 
L 2766 531 
Q 2569 213 2275 61 
Q 1981 -91 1556 -91 
Q 1019 -91 701 211 
Q 384 513 384 1019 
Q 384 1609 779 1909 
Q 1175 2209 1959 2209 
L 2766 2209 
L 2766 2266 
Q 2766 2663 2505 2880 
Q 2244 3097 1772 3097 
Q 1472 3097 1187 3025 
Q 903 2953 641 2809 
L 641 3341 
Q 956 3463 1253 3523 
Q 1550 3584 1831 3584 
Q 2591 3584 2966 3190 
Q 3341 2797 3341 1997 
z
" transform="scale(0.015625)"/>
       <path id="DejaVuSans-63" d="M 3122 3366 
L 3122 2828 
Q 2878 2963 2633 3030 
Q 2388 3097 2138 3097 
Q 1578 3097 1268 2742 
Q 959 2388 959 1747 
Q 959 1106 1268 751 
Q 1578 397 2138 397 
Q 2388 397 2633 464 
Q 2878 531 3122 666 
L 3122 134 
Q 2881 22 2623 -34 
Q 2366 -91 2075 -91 
Q 1284 -91 818 406 
Q 353 903 353 1747 
Q 353 2603 823 3093 
Q 1294 3584 2113 3584 
Q 2378 3584 2631 3529 
Q 2884 3475 3122 3366 
z
" transform="scale(0.015625)"/>
       <path id="DejaVuSans-75" d="M 544 1381 
L 544 3500 
L 1119 3500 
L 1119 1403 
Q 1119 906 1312 657 
Q 1506 409 1894 409 
Q 2359 409 2629 706 
Q 2900 1003 2900 1516 
L 2900 3500 
L 3475 3500 
L 3475 0 
L 2900 0 
L 2900 538 
Q 2691 219 2414 64 
Q 2138 -91 1772 -91 
Q 1169 -91 856 284 
Q 544 659 544 1381 
z
M 1991 3584 
L 1991 3584 
z
" transform="scale(0.015625)"/>
       <path id="DejaVuSans-72" d="M 2631 2963 
Q 2534 3019 2420 3045 
Q 2306 3072 2169 3072 
Q 1681 3072 1420 2755 
Q 1159 2438 1159 1844 
L 1159 0 
L 581 0 
L 581 3500 
L 1159 3500 
L 1159 2956 
Q 1341 3275 1631 3429 
Q 1922 3584 2338 3584 
Q 2397 3584 2469 3576 
Q 2541 3569 2628 3553 
L 2631 2963 
z
" transform="scale(0.015625)"/>
       <path id="DejaVuSans-79" d="M 2059 -325 
Q 1816 -950 1584 -1140 
Q 1353 -1331 966 -1331 
L 506 -1331 
L 506 -850 
L 844 -850 
Q 1081 -850 1212 -737 
Q 1344 -625 1503 -206 
L 1606 56 
L 191 3500 
L 800 3500 
L 1894 763 
L 2988 3500 
L 3597 3500 
L 2059 -325 
z
" transform="scale(0.015625)"/>
       <path id="DejaVuSans-20" transform="scale(0.015625)"/>
       <path id="DejaVuSans-5b" d="M 550 4863 
L 1875 4863 
L 1875 4416 
L 1125 4416 
L 1125 -397 
L 1875 -397 
L 1875 -844 
L 550 -844 
L 550 4863 
z
" transform="scale(0.015625)"/>
       <path id="DejaVuSans-25" d="M 4653 2053 
Q 4381 2053 4226 1822 
Q 4072 1591 4072 1178 
Q 4072 772 4226 539 
Q 4381 306 4653 306 
Q 4919 306 5073 539 
Q 5228 772 5228 1178 
Q 5228 1588 5073 1820 
Q 4919 2053 4653 2053 
z
M 4653 2450 
Q 5147 2450 5437 2106 
Q 5728 1763 5728 1178 
Q 5728 594 5436 251 
Q 5144 -91 4653 -91 
Q 4153 -91 3862 251 
Q 3572 594 3572 1178 
Q 3572 1766 3864 2108 
Q 4156 2450 4653 2450 
z
M 1428 4353 
Q 1159 4353 1004 4120 
Q 850 3888 850 3481 
Q 850 3069 1003 2837 
Q 1156 2606 1428 2606 
Q 1700 2606 1854 2837 
Q 2009 3069 2009 3481 
Q 2009 3884 1853 4118 
Q 1697 4353 1428 4353 
z
M 4250 4750 
L 4750 4750 
L 1831 -91 
L 1331 -91 
L 4250 4750 
z
M 1428 4750 
Q 1922 4750 2215 4408 
Q 2509 4066 2509 3481 
Q 2509 2891 2217 2550 
Q 1925 2209 1428 2209 
Q 931 2209 642 2551 
Q 353 2894 353 3481 
Q 353 4063 643 4406 
Q 934 4750 1428 4750 
z
" transform="scale(0.015625)"/>
       <path id="DejaVuSans-5d" d="M 1947 4863 
L 1947 -844 
L 622 -844 
L 622 -397 
L 1369 -397 
L 1369 4416 
L 622 4416 
L 622 4863 
L 1947 4863 
z
" transform="scale(0.015625)"/>
      </defs>
      <use xlink:href="#DejaVuSans-61"/>
      <use xlink:href="#DejaVuSans-63" x="61.279297"/>
      <use xlink:href="#DejaVuSans-63" x="116.259766"/>
      <use xlink:href="#DejaVuSans-75" x="171.240234"/>
      <use xlink:href="#DejaVuSans-72" x="234.619141"/>
      <use xlink:href="#DejaVuSans-61" x="275.732422"/>
      <use xlink:href="#DejaVuSans-63" x="337.011719"/>
      <use xlink:href="#DejaVuSans-79" x="391.992188"/>
      <use xlink:href="#DejaVuSans-20" x="451.171875"/>
      <use xlink:href="#DejaVuSans-5b" x="482.958984"/>
      <use xlink:href="#DejaVuSans-25" x="521.972656"/>
      <use xlink:href="#DejaVuSans-5d" x="616.992188"/>
     </g>
    </g>
   </g>
   <g id="line2d_31">
    <path d="M 107.961648 484.938554 
L 112.773479 430.143581 
L 117.585311 366.521912 
L 122.397142 331.95892 
L 127.208974 320.950331 
L 132.020805 314.503848 
L 136.832637 310.586374 
L 141.644469 304.784562 
L 146.4563 309.148349 
L 151.268132 298.387678 
L 156.079963 296.701697 
L 160.891795 294.569402 
L 165.703626 289.858499 
L 170.515458 287.775803 
L 175.327289 287.527885 
L 180.139121 285.841866 
L 184.950953 292.13959 
L 189.762784 284.403803 
L 194.574616 282.221947 
L 199.386447 282.916179 
L 204.198279 280.337571 
L 209.01011 278.006919 
L 213.821942 277.312687 
L 218.633773 273.791928 
L 223.445605 283.213696 
L 228.257436 278.502831 
L 233.069268 272.700981 
L 237.8811 272.800179 
L 242.692931 269.527339 
L 247.504763 269.874455 
L 252.316594 267.246285 
L 257.128426 268.932304 
L 261.940257 284.453402 
L 266.752089 267.791759 
L 271.56392 265.064392 
L 276.375752 264.469357 
L 281.187584 261.989947 
L 285.999415 262.188304 
L 290.811247 260.651044 
L 295.623078 261.741991 
L 300.43491 265.064392 
L 305.246741 279.345822 
L 310.058573 290.304813 
L 314.870404 290.800687 
L 319.682236 290.453571 
L 324.494068 290.156054 
L 329.305899 291.048643 
L 334.117731 295.61075 
L 338.929562 302.205992 
L 343.741394 294.718161 
L 348.553225 293.528054 
L 353.365057 300.272054 
L 358.176888 299.478625 
L 362.98872 297.296731 
L 367.800551 296.999214 
L 372.612383 298.833991 
L 377.424215 303.495258 
L 382.236046 302.553108 
L 387.047878 298.536436 
L 391.859709 296.999214 
L 396.671541 295.660349 
L 401.483372 299.131509 
L 406.295204 304.139929 
L 411.107035 308.007804 
L 415.918867 302.900224 
L 420.730699 306.569741 
L 425.54253 298.98275 
L 430.354362 298.536436 
L 435.166193 304.734963 
L 439.978025 303.99117 
L 444.789856 305.72675 
L 449.601688 310.090499 
L 454.413519 310.93349 
L 459.225351 301.908437 
L 464.037182 305.230876 
L 468.849014 300.123296 
L 473.660846 305.875509 
L 478.472677 299.032349 
L 483.284509 302.106794 
L 488.09634 300.024098 
L 492.908172 308.801233 
L 497.720003 308.801233 
L 502.531835 306.272224 
L 507.343666 306.470581 
L 512.155498 306.371383 
L 516.96733 310.685572 
L 521.779161 303.544857 
L 526.590993 309.792982 
L 531.402824 305.280437 
L 536.214656 302.602706 
L 541.026487 304.734963 
L 545.838319 308.751634 
L 550.65015 304.288687 
L 555.461982 304.88376 
L 560.273814 304.487045 
L 565.085645 302.652267 
L 569.897477 304.536644 
L 574.709308 306.123465 
L 579.52114 300.916687 
L 584.332971 301.462161 
L 589.144803 301.561321 
L 593.956634 302.553108 
L 598.768466 304.536644 
L 603.580297 301.561321 
L 608.392129 301.015847 
L 613.203961 306.966456 
L 618.015792 302.205992 
L 622.827624 301.660518 
L 627.639455 304.189528 
L 632.451287 300.222455 
L 637.263118 302.999383 
L 642.07495 303.098581 
L 646.886781 301.263803 
L 651.698613 302.057233 
L 656.510445 303.148142 
L 661.322276 301.660518 
L 666.134108 302.404349 
L 670.945939 303.148142 
L 675.757771 301.809277 
L 680.569602 300.61917 
" clip-path="url(#p16693acd87)" style="fill: none; stroke: #1f77b4; stroke-width: 1.5; stroke-linecap: square"/>
   </g>
   <g id="line2d_32">
    <path d="M 107.961648 499.815018 
L 112.773479 501.104303 
L 117.585311 489.649438 
L 122.397142 462.970973 
L 127.208974 449.929268 
L 132.020805 454.144277 
L 136.832637 447.449857 
L 141.644469 453.10291 
L 146.4563 470.161268 
L 151.268132 465.648741 
L 156.079963 451.31775 
L 160.891795 450.722678 
L 165.703626 464.260258 
L 170.515458 460.293205 
L 175.327289 452.458277 
L 180.139121 455.483161 
L 184.950953 460.838678 
L 189.762784 461.632089 
L 194.574616 461.384152 
L 199.386447 453.251688 
L 204.198279 446.557267 
L 209.01011 445.367161 
L 213.821942 447.796973 
L 218.633773 446.210151 
L 223.445605 435.300741 
L 228.257436 440.160402 
L 233.069268 448.987098 
L 237.8811 443.482803 
L 242.692931 444.424973 
L 247.504763 455.433562 
L 252.316594 455.6815 
L 257.128426 448.590384 
L 261.940257 461.334553 
L 266.752089 459.400616 
L 271.56392 451.863205 
L 276.375752 451.36733 
L 281.187584 461.185794 
L 285.999415 453.450045 
L 290.811247 452.755794 
L 295.623078 446.061393 
L 300.43491 414.374508 
L 305.246741 325.165321 
L 310.058573 306.867258 
L 314.870404 301.759678 
L 319.682236 298.586035 
L 324.494068 293.528054 
L 329.305899 290.800687 
L 334.117731 288.76759 
L 338.929562 288.073358 
L 343.741394 284.007126 
L 348.553225 283.957527 
L 353.365057 281.131001 
L 358.176888 283.213696 
L 362.98872 279.395421 
L 367.800551 279.792098 
L 372.612383 276.965571 
L 377.424215 284.899678 
L 382.236046 274.188643 
L 387.047878 273.296054 
L 391.859709 271.510875 
L 396.671541 271.262919 
L 401.483372 271.064599 
L 406.295204 268.436392 
L 411.107035 267.841358 
L 415.918867 269.031464 
L 420.730699 265.560304 
L 425.54253 264.667715 
L 430.354362 264.866072 
L 435.166193 263.080894 
L 439.978025 264.419759 
L 444.789856 262.237865 
L 449.601688 265.213188 
L 454.413519 272.75058 
L 459.225351 264.320599 
L 464.037182 262.237865 
L 468.849014 260.155169 
L 473.660846 259.26258 
L 478.472677 258.36999 
L 483.284509 257.229483 
L 488.09634 255.047589 
L 492.908172 265.560304 
L 497.720003 276.866411 
L 502.531835 279.990455 
L 507.343666 281.478116 
L 512.155498 283.75917 
L 516.96733 284.106286 
L 521.779161 283.312856 
L 526.590993 286.089822 
L 531.402824 286.684856 
L 536.214656 285.49475 
L 541.026487 284.007126 
L 545.838319 288.073358 
L 550.65015 285.39559 
L 555.461982 285.841866 
L 560.273814 283.709571 
L 565.085645 285.39559 
L 569.897477 283.659972 
L 574.709308 284.850117 
L 579.52114 285.197233 
L 584.332971 283.957527 
L 589.144803 284.205446 
L 593.956634 285.445151 
L 598.768466 287.527885 
L 603.580297 285.742706 
L 608.392129 285.345991 
L 613.203961 287.379088 
L 618.015792 284.056687 
L 622.827624 286.784054 
L 627.639455 286.883214 
L 632.451287 284.998875 
L 637.263118 289.313063 
L 642.07495 287.676643 
L 646.886781 284.205446 
L 651.698613 285.246831 
L 656.510445 286.784054 
L 661.322276 287.13117 
L 666.134108 287.13117 
L 670.945939 286.734455 
L 675.757771 286.784054 
L 680.569602 285.693107 
" clip-path="url(#p16693acd87)" style="fill: none; stroke: #ff7f0e; stroke-width: 1.5; stroke-linecap: square"/>
   </g>
   <g id="line2d_33">
    <path d="M 107.961648 488.608071 
L 112.773479 453.846741 
L 117.585311 450.673098 
L 122.397142 479.483858 
L 127.208974 495.45125 
L 132.020805 494.409902 
L 136.832637 488.310554 
L 141.644469 495.352071 
L 146.4563 501.401839 
L 151.268132 493.071018 
L 156.079963 483.302134 
L 160.891795 485.037732 
L 165.703626 479.037563 
L 170.515458 485.037732 
L 175.327289 478.49209 
L 180.139121 474.425858 
L 184.950953 475.715143 
L 189.762784 473.682027 
L 194.574616 476.111858 
L 199.386447 476.855669 
L 204.198279 477.996196 
L 209.01011 477.153206 
L 213.821942 481.516974 
L 218.633773 479.186322 
L 223.445605 478.244152 
L 228.257436 475.070491 
L 233.069268 466.194215 
L 237.8811 465.301625 
L 242.692931 478.839206 
L 247.504763 476.458974 
L 252.316594 470.607563 
L 257.128426 467.235563 
L 261.940257 481.070679 
L 266.752089 474.029143 
L 271.56392 470.557964 
L 276.375752 474.872152 
L 281.187584 477.202785 
L 285.999415 472.045626 
L 290.811247 473.880384 
L 295.623078 468.822384 
L 300.43491 473.434089 
L 305.246741 478.541669 
L 310.058573 470.210848 
L 314.870404 465.103268 
L 319.682236 462.37592 
L 324.494068 469.516616 
L 329.305899 465.202447 
L 334.117731 460.293205 
L 338.929562 459.747732 
L 343.741394 459.351036 
L 348.553225 456.078214 
L 353.365057 457.218741 
L 358.176888 458.805562 
L 362.98872 456.028616 
L 367.800551 454.193857 
L 372.612383 451.764045 
L 377.424215 455.383982 
L 382.236046 454.392214 
L 387.047878 453.251688 
L 391.859709 453.747562 
L 396.671541 454.73933 
L 401.483372 457.417099 
L 406.295204 456.524509 
L 411.107035 457.615437 
L 415.918867 459.251857 
L 420.730699 459.598973 
L 425.54253 454.094678 
L 430.354362 454.640152 
L 435.166193 451.31775 
L 439.978025 453.400446 
L 444.789856 454.392214 
L 449.601688 455.235205 
L 454.413519 451.912804 
L 459.225351 452.607036 
L 464.037182 450.772277 
L 468.849014 452.706214 
L 473.660846 454.441794 
L 478.472677 451.813625 
L 483.284509 450.177205 
L 488.09634 456.623688 
L 492.908172 426.226107 
L 497.720003 315.148519 
L 502.531835 296.949615 
L 507.343666 289.511383 
L 512.155498 285.39559 
L 516.96733 281.924392 
L 521.779161 280.188812 
L 526.590993 279.048305 
L 531.402824 278.800348 
L 536.214656 276.22174 
L 541.026487 272.453063 
L 545.838319 272.65142 
L 550.65015 268.733947 
L 555.461982 268.039715 
L 560.273814 267.196687 
L 565.085645 266.254536 
L 569.897477 265.857821 
L 574.709308 264.717276 
L 579.52114 265.361947 
L 584.332971 263.923884 
L 589.144803 260.899 
L 593.956634 261.791589 
L 598.768466 260.551884 
L 603.580297 259.014661 
L 608.392129 263.824686 
L 613.203961 260.254367 
L 618.015792 256.931928 
L 622.827624 256.386454 
L 627.639455 256.386454 
L 632.451287 257.477401 
L 637.263118 256.088937 
L 642.07495 254.948429 
L 646.886781 255.097188 
L 651.698613 253.411169 
L 656.510445 253.064053 
L 661.322276 253.659125 
L 666.134108 252.022705 
L 670.945939 252.072304 
L 675.757771 252.320222 
L 680.569602 251.62599 
" clip-path="url(#p16693acd87)" style="fill: none; stroke: #2ca02c; stroke-width: 1.5; stroke-linecap: square"/>
   </g>
   <g id="line2d_34">
    <path d="M 107.961648 497.831482 
L 112.773479 548.659401 
L 117.585311 554.510812 
L 122.397142 560.163866 
L 127.208974 557.18858 
L 132.020805 549.006517 
L 136.832637 553.915759 
L 141.644469 559.866348 
L 146.4563 536.163169 
L 151.268132 550.246223 
L 156.079963 561.601928 
L 160.891795 551.932223 
L 165.703626 559.717571 
L 170.515458 553.717402 
L 175.327289 569.139339 
L 180.139121 569.585634 
L 184.950953 571.965866 
L 189.762784 562.345759 
L 194.574616 565.916098 
L 199.386447 561.006875 
L 204.198279 555.651339 
L 209.01011 569.585634 
L 213.821942 573.800625 
L 218.633773 571.519571 
L 223.445605 565.866518 
L 228.257436 569.337697 
L 233.069268 575.734581 
L 237.8811 574.197339 
L 242.692931 562.891233 
L 247.504763 569.238518 
L 252.316594 561.205233 
L 257.128426 563.13917 
L 261.940257 546.427947 
L 266.752089 554.262875 
L 271.56392 564.081339 
L 276.375752 563.684643 
L 281.187584 565.221866 
L 285.999415 565.221866 
L 290.811247 570.874919 
L 295.623078 570.974098 
L 300.43491 570.577402 
L 305.246741 556.097634 
L 310.058573 570.726161 
L 314.870404 567.850054 
L 319.682236 569.089759 
L 324.494068 563.089571 
L 329.305899 555.304223 
L 334.117731 555.155464 
L 338.929562 562.147402 
L 343.741394 554.262875 
L 348.553225 550.047884 
L 353.365057 554.857928 
L 358.176888 555.205044 
L 362.98872 560.362223 
L 367.800551 561.056455 
L 372.612383 559.519232 
L 377.424215 565.66816 
L 382.236046 564.428455 
L 387.047878 550.692517 
L 391.859709 554.213295 
L 396.671541 552.874411 
L 401.483372 557.486116 
L 406.295204 549.948706 
L 411.107035 551.237991 
L 415.918867 547.91559 
L 420.730699 560.114286 
L 425.54253 556.742286 
L 430.354362 554.808348 
L 435.166193 554.163696 
L 439.978025 560.312643 
L 444.789856 556.147232 
L 449.601688 552.725634 
L 454.413519 542.609652 
L 459.225351 557.535696 
L 464.037182 556.048054 
L 468.849014 555.948875 
L 473.660846 560.114286 
L 478.472677 555.899295 
L 483.284509 552.328938 
L 488.09634 555.651339 
L 492.908172 560.957276 
L 497.720003 560.064706 
L 502.531835 564.82517 
L 507.343666 569.387277 
L 512.155498 571.866687 
L 516.96733 580.544625 
L 521.779161 581.090098 
L 526.590993 585.850572 
L 531.402824 573.899803 
L 536.214656 574.643634 
L 541.026487 574.544455 
L 545.838319 573.106393 
L 550.65015 575.387446 
L 555.461982 577.123045 
L 560.273814 581.189277 
L 565.085645 586.197688 
L 569.897477 574.048581 
L 574.709308 582.230625 
L 579.52114 582.230625 
L 584.332971 582.329803 
L 589.144803 583.321572 
L 593.956634 584.561277 
L 598.768466 581.189277 
L 603.580297 582.329803 
L 608.392129 568.990581 
L 613.203961 580.296687 
L 618.015792 577.470161 
L 622.827624 576.032098 
L 627.639455 581.536393 
L 632.451287 576.577571 
L 637.263118 574.346098 
L 642.07495 576.329634 
L 646.886781 582.875277 
L 651.698613 581.883509 
L 656.510445 581.585982 
L 661.322276 578.858625 
L 666.134108 576.478393 
L 670.945939 576.280035 
L 675.757771 578.957803 
L 680.569602 579.899992 
" clip-path="url(#p16693acd87)" style="fill: none; stroke: #d62728; stroke-width: 1.5; stroke-linecap: square"/>
   </g>
   <g id="line2d_35">
    <path d="M 107.961648 488.211375 
L 112.773479 488.65767 
L 117.585311 488.112196 
L 122.397142 493.517312 
L 127.208974 495.252892 
L 132.020805 490.244491 
L 136.832637 494.013187 
L 141.644469 493.071018 
L 146.4563 487.616322 
L 151.268132 492.922259 
L 156.079963 488.856027 
L 160.891795 486.92209 
L 165.703626 487.616322 
L 170.515458 485.583206 
L 175.327289 485.781544 
L 180.139121 490.194911 
L 184.950953 483.351732 
L 189.762784 484.045964 
L 194.574616 489.004786 
L 199.386447 490.194911 
L 204.198279 487.963438 
L 209.01011 489.50066 
L 213.821942 488.013018 
L 218.633773 486.674134 
L 223.445605 484.988134 
L 228.257436 487.070848 
L 233.069268 486.525375 
L 237.8811 488.360134 
L 242.692931 485.979902 
L 247.504763 485.979902 
L 252.316594 484.591438 
L 257.128426 486.475795 
L 261.940257 481.91367 
L 266.752089 484.839375 
L 271.56392 487.467544 
L 276.375752 487.070848 
L 281.187584 486.822911 
L 285.999415 485.384848 
L 290.811247 484.3435 
L 295.623078 483.202974 
L 300.43491 483.103795 
L 305.246741 489.847776 
L 310.058573 489.103964 
L 314.870404 489.748616 
L 319.682236 486.624554 
L 324.494068 488.013018 
L 329.305899 485.186491 
L 334.117731 486.07908 
L 338.929562 484.194723 
L 343.741394 484.045964 
L 348.553225 483.798027 
L 353.365057 487.120428 
L 358.176888 486.426196 
L 362.98872 488.360134 
L 367.800551 487.963438 
L 372.612383 487.616322 
L 377.424215 488.65767 
L 382.236046 488.905607 
L 387.047878 486.327018 
L 391.859709 487.070848 
L 396.671541 488.260955 
L 401.483372 488.955206 
L 406.295204 485.136911 
L 411.107035 484.740196 
L 415.918867 487.318786 
L 420.730699 488.508911 
L 425.54253 490.39325 
L 430.354362 486.674134 
L 435.166193 488.955206 
L 439.978025 488.756848 
L 444.789856 489.302322 
L 449.601688 489.50066 
L 454.413519 490.39325 
L 459.225351 492.426366 
L 464.037182 491.632955 
L 468.849014 491.385018 
L 473.660846 486.426196 
L 478.472677 489.203143 
L 483.284509 487.963438 
L 488.09634 488.459312 
L 492.908172 486.475795 
L 497.720003 490.591607 
L 502.531835 492.178428 
L 507.343666 496.790134 
L 512.155498 497.980259 
L 516.96733 494.459482 
L 521.779161 496.542197 
L 526.590993 496.195081 
L 531.402824 494.509081 
L 536.214656 492.327187 
L 541.026487 492.87266 
L 545.838319 490.988322 
L 550.65015 492.82308 
L 555.461982 493.517312 
L 560.273814 494.707438 
L 565.085645 495.500849 
L 569.897477 495.252892 
L 574.709308 496.393438 
L 579.52114 494.707438 
L 584.332971 495.847965 
L 589.144803 495.649607 
L 593.956634 496.690955 
L 598.768466 496.740554 
L 603.580297 495.847965 
L 608.392129 492.922259 
L 613.203961 494.707438 
L 618.015792 494.409902 
L 622.827624 494.310723 
L 627.639455 495.104134 
L 632.451287 495.699187 
L 637.263118 495.847965 
L 642.07495 493.120617 
L 646.886781 495.004955 
L 651.698613 494.459482 
L 656.510445 493.219776 
L 661.322276 493.120617 
L 666.134108 494.757018 
L 670.945939 493.418134 
L 675.757771 495.600027 
L 680.569602 497.930661 
" clip-path="url(#p16693acd87)" style="fill: none; stroke: #9467bd; stroke-width: 1.5; stroke-linecap: square"/>
   </g>
   <g id="patch_3">
    <path d="M 79.33125 590.660625 
L 79.33125 243.543125 
" style="fill: none; stroke: #000000; stroke-width: 0.8; stroke-linejoin: miter; stroke-linecap: square"/>
   </g>
   <g id="patch_4">
    <path d="M 709.2 590.660625 
L 709.2 243.543125 
" style="fill: none; stroke: #000000; stroke-width: 0.8; stroke-linejoin: miter; stroke-linecap: square"/>
   </g>
   <g id="patch_5">
    <path d="M 79.33125 590.660625 
L 709.2 590.660625 
" style="fill: none; stroke: #000000; stroke-width: 0.8; stroke-linejoin: miter; stroke-linecap: square"/>
   </g>
   <g id="patch_6">
    <path d="M 79.33125 243.543125 
L 709.2 243.543125 
" style="fill: none; stroke: #000000; stroke-width: 0.8; stroke-linejoin: miter; stroke-linecap: square"/>
   </g>
   <g id="text_18">
    <!-- Train -->
    <g transform="translate(370.278125 237.543125)scale(0.2 -0.2)">
     <defs>
      <path id="DejaVuSans-54" d="M -19 4666 
L 3928 4666 
L 3928 4134 
L 2272 4134 
L 2272 0 
L 1638 0 
L 1638 4134 
L -19 4134 
L -19 4666 
z
" transform="scale(0.015625)"/>
      <path id="DejaVuSans-69" d="M 603 3500 
L 1178 3500 
L 1178 0 
L 603 0 
L 603 3500 
z
M 603 4863 
L 1178 4863 
L 1178 4134 
L 603 4134 
L 603 4863 
z
" transform="scale(0.015625)"/>
      <path id="DejaVuSans-6e" d="M 3513 2113 
L 3513 0 
L 2938 0 
L 2938 2094 
Q 2938 2591 2744 2837 
Q 2550 3084 2163 3084 
Q 1697 3084 1428 2787 
Q 1159 2491 1159 1978 
L 1159 0 
L 581 0 
L 581 3500 
L 1159 3500 
L 1159 2956 
Q 1366 3272 1645 3428 
Q 1925 3584 2291 3584 
Q 2894 3584 3203 3211 
Q 3513 2838 3513 2113 
z
" transform="scale(0.015625)"/>
     </defs>
     <use xlink:href="#DejaVuSans-54"/>
     <use xlink:href="#DejaVuSans-72" x="46.333984"/>
     <use xlink:href="#DejaVuSans-61" x="87.447266"/>
     <use xlink:href="#DejaVuSans-69" x="148.726562"/>
     <use xlink:href="#DejaVuSans-6e" x="176.509766"/>
    </g>
   </g>
   <g id="legend_1">
    <g id="patch_7">
     <path d="M 639.610937 455.297187 
L 702.2 455.297187 
Q 704.2 455.297187 704.2 453.297187 
L 704.2 380.906562 
Q 704.2 378.906562 702.2 378.906562 
L 639.610937 378.906562 
Q 637.610937 378.906562 637.610937 380.906562 
L 637.610937 453.297187 
Q 637.610937 455.297187 639.610937 455.297187 
z
" style="fill: #ffffff; opacity: 0.8; stroke: #cccccc; stroke-linejoin: miter"/>
    </g>
    <g id="line2d_36">
     <path d="M 641.610937 387.005 
L 651.610937 387.005 
L 661.610937 387.005 
" style="fill: none; stroke: #1f77b4; stroke-width: 1.5; stroke-linecap: square"/>
    </g>
    <g id="text_19">
     <!-- task 0 -->
     <g transform="translate(669.610937 390.505)scale(0.1 -0.1)">
      <defs>
       <path id="DejaVuSans-6b" d="M 581 4863 
L 1159 4863 
L 1159 1991 
L 2875 3500 
L 3609 3500 
L 1753 1863 
L 3688 0 
L 2938 0 
L 1159 1709 
L 1159 0 
L 581 0 
L 581 4863 
z
" transform="scale(0.015625)"/>
      </defs>
      <use xlink:href="#DejaVuSans-74"/>
      <use xlink:href="#DejaVuSans-61" x="39.208984"/>
      <use xlink:href="#DejaVuSans-73" x="100.488281"/>
      <use xlink:href="#DejaVuSans-6b" x="152.587891"/>
      <use xlink:href="#DejaVuSans-20" x="210.498047"/>
      <use xlink:href="#DejaVuSans-30" x="242.285156"/>
     </g>
    </g>
    <g id="line2d_37">
     <path d="M 641.610937 401.683125 
L 651.610937 401.683125 
L 661.610937 401.683125 
" style="fill: none; stroke: #ff7f0e; stroke-width: 1.5; stroke-linecap: square"/>
    </g>
    <g id="text_20">
     <!-- task 1 -->
     <g transform="translate(669.610937 405.183125)scale(0.1 -0.1)">
      <use xlink:href="#DejaVuSans-74"/>
      <use xlink:href="#DejaVuSans-61" x="39.208984"/>
      <use xlink:href="#DejaVuSans-73" x="100.488281"/>
      <use xlink:href="#DejaVuSans-6b" x="152.587891"/>
      <use xlink:href="#DejaVuSans-20" x="210.498047"/>
      <use xlink:href="#DejaVuSans-31" x="242.285156"/>
     </g>
    </g>
    <g id="line2d_38">
     <path d="M 641.610937 416.36125 
L 651.610937 416.36125 
L 661.610937 416.36125 
" style="fill: none; stroke: #2ca02c; stroke-width: 1.5; stroke-linecap: square"/>
    </g>
    <g id="text_21">
     <!-- task 2 -->
     <g transform="translate(669.610937 419.86125)scale(0.1 -0.1)">
      <use xlink:href="#DejaVuSans-74"/>
      <use xlink:href="#DejaVuSans-61" x="39.208984"/>
      <use xlink:href="#DejaVuSans-73" x="100.488281"/>
      <use xlink:href="#DejaVuSans-6b" x="152.587891"/>
      <use xlink:href="#DejaVuSans-20" x="210.498047"/>
      <use xlink:href="#DejaVuSans-32" x="242.285156"/>
     </g>
    </g>
    <g id="line2d_39">
     <path d="M 641.610937 431.039375 
L 651.610937 431.039375 
L 661.610937 431.039375 
" style="fill: none; stroke: #d62728; stroke-width: 1.5; stroke-linecap: square"/>
    </g>
    <g id="text_22">
     <!-- task 3 -->
     <g transform="translate(669.610937 434.539375)scale(0.1 -0.1)">
      <use xlink:href="#DejaVuSans-74"/>
      <use xlink:href="#DejaVuSans-61" x="39.208984"/>
      <use xlink:href="#DejaVuSans-73" x="100.488281"/>
      <use xlink:href="#DejaVuSans-6b" x="152.587891"/>
      <use xlink:href="#DejaVuSans-20" x="210.498047"/>
      <use xlink:href="#DejaVuSans-33" x="242.285156"/>
     </g>
    </g>
    <g id="line2d_40">
     <path d="M 641.610937 445.7175 
L 651.610937 445.7175 
L 661.610937 445.7175 
" style="fill: none; stroke: #9467bd; stroke-width: 1.5; stroke-linecap: square"/>
    </g>
    <g id="text_23">
     <!-- task 4 -->
     <g transform="translate(669.610937 449.2175)scale(0.1 -0.1)">
      <use xlink:href="#DejaVuSans-74"/>
      <use xlink:href="#DejaVuSans-61" x="39.208984"/>
      <use xlink:href="#DejaVuSans-73" x="100.488281"/>
      <use xlink:href="#DejaVuSans-6b" x="152.587891"/>
      <use xlink:href="#DejaVuSans-20" x="210.498047"/>
      <use xlink:href="#DejaVuSans-34" x="242.285156"/>
     </g>
    </g>
   </g>
  </g>
  <g id="axes_2">
   <g id="patch_8">
    <path d="M 79.33125 1019.4875 
L 709.2 1019.4875 
L 709.2 672.37 
L 79.33125 672.37 
z
" style="fill: #ffffff"/>
   </g>
   <g id="matplotlib.axis_3">
    <g id="xtick_8">
     <g id="line2d_41">
      <path d="M 107.961648 1019.4875 
L 107.961648 672.37 
" clip-path="url(#pb645debf23)" style="fill: none; stroke: #b0b0b0; stroke-width: 0.8; stroke-linecap: square"/>
     </g>
     <g id="line2d_42">
      <g>
       <use xlink:href="#m47b12d96a5" x="107.961648" y="1019.4875" style="stroke: #000000; stroke-width: 0.8"/>
      </g>
     </g>
     <g id="text_24">
      <!-- 0 -->
      <g transform="translate(101.599148 1041.684375)scale(0.2 -0.2)">
       <use xlink:href="#DejaVuSans-30"/>
      </g>
     </g>
    </g>
    <g id="xtick_9">
     <g id="line2d_43">
      <path d="M 204.198279 1019.4875 
L 204.198279 672.37 
" clip-path="url(#pb645debf23)" style="fill: none; stroke: #b0b0b0; stroke-width: 0.8; stroke-linecap: square"/>
     </g>
     <g id="line2d_44">
      <g>
       <use xlink:href="#m47b12d96a5" x="204.198279" y="1019.4875" style="stroke: #000000; stroke-width: 0.8"/>
      </g>
     </g>
     <g id="text_25">
      <!-- 20 -->
      <g transform="translate(191.473279 1041.684375)scale(0.2 -0.2)">
       <use xlink:href="#DejaVuSans-32"/>
       <use xlink:href="#DejaVuSans-30" x="63.623047"/>
      </g>
     </g>
    </g>
    <g id="xtick_10">
     <g id="line2d_45">
      <path d="M 300.43491 1019.4875 
L 300.43491 672.37 
" clip-path="url(#pb645debf23)" style="fill: none; stroke: #b0b0b0; stroke-width: 0.8; stroke-linecap: square"/>
     </g>
     <g id="line2d_46">
      <g>
       <use xlink:href="#m47b12d96a5" x="300.43491" y="1019.4875" style="stroke: #000000; stroke-width: 0.8"/>
      </g>
     </g>
     <g id="text_26">
      <!-- 40 -->
      <g transform="translate(287.70991 1041.684375)scale(0.2 -0.2)">
       <use xlink:href="#DejaVuSans-34"/>
       <use xlink:href="#DejaVuSans-30" x="63.623047"/>
      </g>
     </g>
    </g>
    <g id="xtick_11">
     <g id="line2d_47">
      <path d="M 396.671541 1019.4875 
L 396.671541 672.37 
" clip-path="url(#pb645debf23)" style="fill: none; stroke: #b0b0b0; stroke-width: 0.8; stroke-linecap: square"/>
     </g>
     <g id="line2d_48">
      <g>
       <use xlink:href="#m47b12d96a5" x="396.671541" y="1019.4875" style="stroke: #000000; stroke-width: 0.8"/>
      </g>
     </g>
     <g id="text_27">
      <!-- 60 -->
      <g transform="translate(383.946541 1041.684375)scale(0.2 -0.2)">
       <use xlink:href="#DejaVuSans-36"/>
       <use xlink:href="#DejaVuSans-30" x="63.623047"/>
      </g>
     </g>
    </g>
    <g id="xtick_12">
     <g id="line2d_49">
      <path d="M 492.908172 1019.4875 
L 492.908172 672.37 
" clip-path="url(#pb645debf23)" style="fill: none; stroke: #b0b0b0; stroke-width: 0.8; stroke-linecap: square"/>
     </g>
     <g id="line2d_50">
      <g>
       <use xlink:href="#m47b12d96a5" x="492.908172" y="1019.4875" style="stroke: #000000; stroke-width: 0.8"/>
      </g>
     </g>
     <g id="text_28">
      <!-- 80 -->
      <g transform="translate(480.183172 1041.684375)scale(0.2 -0.2)">
       <use xlink:href="#DejaVuSans-38"/>
       <use xlink:href="#DejaVuSans-30" x="63.623047"/>
      </g>
     </g>
    </g>
    <g id="xtick_13">
     <g id="line2d_51">
      <path d="M 589.144803 1019.4875 
L 589.144803 672.37 
" clip-path="url(#pb645debf23)" style="fill: none; stroke: #b0b0b0; stroke-width: 0.8; stroke-linecap: square"/>
     </g>
     <g id="line2d_52">
      <g>
       <use xlink:href="#m47b12d96a5" x="589.144803" y="1019.4875" style="stroke: #000000; stroke-width: 0.8"/>
      </g>
     </g>
     <g id="text_29">
      <!-- 100 -->
      <g transform="translate(570.057303 1041.684375)scale(0.2 -0.2)">
       <use xlink:href="#DejaVuSans-31"/>
       <use xlink:href="#DejaVuSans-30" x="63.623047"/>
       <use xlink:href="#DejaVuSans-30" x="127.246094"/>
      </g>
     </g>
    </g>
    <g id="xtick_14">
     <g id="line2d_53">
      <path d="M 685.381434 1019.4875 
L 685.381434 672.37 
" clip-path="url(#pb645debf23)" style="fill: none; stroke: #b0b0b0; stroke-width: 0.8; stroke-linecap: square"/>
     </g>
     <g id="line2d_54">
      <g>
       <use xlink:href="#m47b12d96a5" x="685.381434" y="1019.4875" style="stroke: #000000; stroke-width: 0.8"/>
      </g>
     </g>
     <g id="text_30">
      <!-- 120 -->
      <g transform="translate(666.293934 1041.684375)scale(0.2 -0.2)">
       <use xlink:href="#DejaVuSans-31"/>
       <use xlink:href="#DejaVuSans-32" x="63.623047"/>
       <use xlink:href="#DejaVuSans-30" x="127.246094"/>
      </g>
     </g>
    </g>
    <g id="text_31">
     <!-- step -->
     <g transform="translate(372.634375 1065.040625)scale(0.2 -0.2)">
      <use xlink:href="#DejaVuSans-73"/>
      <use xlink:href="#DejaVuSans-74" x="52.099609"/>
      <use xlink:href="#DejaVuSans-65" x="91.308594"/>
      <use xlink:href="#DejaVuSans-70" x="152.832031"/>
     </g>
    </g>
   </g>
   <g id="matplotlib.axis_4">
    <g id="ytick_9">
     <g id="line2d_55">
      <path d="M 79.33125 1019.4875 
L 709.2 1019.4875 
" clip-path="url(#pb645debf23)" style="fill: none; stroke: #b0b0b0; stroke-width: 0.8; stroke-linecap: square"/>
     </g>
     <g id="line2d_56">
      <g>
       <use xlink:href="#m21cd1979e0" x="79.33125" y="1019.4875" style="stroke: #000000; stroke-width: 0.8"/>
      </g>
     </g>
     <g id="text_32">
      <!-- 30 -->
      <g transform="translate(46.88125 1027.085938)scale(0.2 -0.2)">
       <use xlink:href="#DejaVuSans-33"/>
       <use xlink:href="#DejaVuSans-30" x="63.623047"/>
      </g>
     </g>
    </g>
    <g id="ytick_10">
     <g id="line2d_57">
      <path d="M 79.33125 969.899286 
L 709.2 969.899286 
" clip-path="url(#pb645debf23)" style="fill: none; stroke: #b0b0b0; stroke-width: 0.8; stroke-linecap: square"/>
     </g>
     <g id="line2d_58">
      <g>
       <use xlink:href="#m21cd1979e0" x="79.33125" y="969.899286" style="stroke: #000000; stroke-width: 0.8"/>
      </g>
     </g>
     <g id="text_33">
      <!-- 40 -->
      <g transform="translate(46.88125 977.497723)scale(0.2 -0.2)">
       <use xlink:href="#DejaVuSans-34"/>
       <use xlink:href="#DejaVuSans-30" x="63.623047"/>
      </g>
     </g>
    </g>
    <g id="ytick_11">
     <g id="line2d_59">
      <path d="M 79.33125 920.311071 
L 709.2 920.311071 
" clip-path="url(#pb645debf23)" style="fill: none; stroke: #b0b0b0; stroke-width: 0.8; stroke-linecap: square"/>
     </g>
     <g id="line2d_60">
      <g>
       <use xlink:href="#m21cd1979e0" x="79.33125" y="920.311071" style="stroke: #000000; stroke-width: 0.8"/>
      </g>
     </g>
     <g id="text_34">
      <!-- 50 -->
      <g transform="translate(46.88125 927.909509)scale(0.2 -0.2)">
       <use xlink:href="#DejaVuSans-35"/>
       <use xlink:href="#DejaVuSans-30" x="63.623047"/>
      </g>
     </g>
    </g>
    <g id="ytick_12">
     <g id="line2d_61">
      <path d="M 79.33125 870.722857 
L 709.2 870.722857 
" clip-path="url(#pb645debf23)" style="fill: none; stroke: #b0b0b0; stroke-width: 0.8; stroke-linecap: square"/>
     </g>
     <g id="line2d_62">
      <g>
       <use xlink:href="#m21cd1979e0" x="79.33125" y="870.722857" style="stroke: #000000; stroke-width: 0.8"/>
      </g>
     </g>
     <g id="text_35">
      <!-- 60 -->
      <g transform="translate(46.88125 878.321295)scale(0.2 -0.2)">
       <use xlink:href="#DejaVuSans-36"/>
       <use xlink:href="#DejaVuSans-30" x="63.623047"/>
      </g>
     </g>
    </g>
    <g id="ytick_13">
     <g id="line2d_63">
      <path d="M 79.33125 821.134643 
L 709.2 821.134643 
" clip-path="url(#pb645debf23)" style="fill: none; stroke: #b0b0b0; stroke-width: 0.8; stroke-linecap: square"/>
     </g>
     <g id="line2d_64">
      <g>
       <use xlink:href="#m21cd1979e0" x="79.33125" y="821.134643" style="stroke: #000000; stroke-width: 0.8"/>
      </g>
     </g>
     <g id="text_36">
      <!-- 70 -->
      <g transform="translate(46.88125 828.73308)scale(0.2 -0.2)">
       <use xlink:href="#DejaVuSans-37"/>
       <use xlink:href="#DejaVuSans-30" x="63.623047"/>
      </g>
     </g>
    </g>
    <g id="ytick_14">
     <g id="line2d_65">
      <path d="M 79.33125 771.546429 
L 709.2 771.546429 
" clip-path="url(#pb645debf23)" style="fill: none; stroke: #b0b0b0; stroke-width: 0.8; stroke-linecap: square"/>
     </g>
     <g id="line2d_66">
      <g>
       <use xlink:href="#m21cd1979e0" x="79.33125" y="771.546429" style="stroke: #000000; stroke-width: 0.8"/>
      </g>
     </g>
     <g id="text_37">
      <!-- 80 -->
      <g transform="translate(46.88125 779.144866)scale(0.2 -0.2)">
       <use xlink:href="#DejaVuSans-38"/>
       <use xlink:href="#DejaVuSans-30" x="63.623047"/>
      </g>
     </g>
    </g>
    <g id="ytick_15">
     <g id="line2d_67">
      <path d="M 79.33125 721.958214 
L 709.2 721.958214 
" clip-path="url(#pb645debf23)" style="fill: none; stroke: #b0b0b0; stroke-width: 0.8; stroke-linecap: square"/>
     </g>
     <g id="line2d_68">
      <g>
       <use xlink:href="#m21cd1979e0" x="79.33125" y="721.958214" style="stroke: #000000; stroke-width: 0.8"/>
      </g>
     </g>
     <g id="text_38">
      <!-- 90 -->
      <g transform="translate(46.88125 729.556652)scale(0.2 -0.2)">
       <use xlink:href="#DejaVuSans-39"/>
       <use xlink:href="#DejaVuSans-30" x="63.623047"/>
      </g>
     </g>
    </g>
    <g id="ytick_16">
     <g id="line2d_69">
      <path d="M 79.33125 672.37 
L 709.2 672.37 
" clip-path="url(#pb645debf23)" style="fill: none; stroke: #b0b0b0; stroke-width: 0.8; stroke-linecap: square"/>
     </g>
     <g id="line2d_70">
      <g>
       <use xlink:href="#m21cd1979e0" x="79.33125" y="672.37" style="stroke: #000000; stroke-width: 0.8"/>
      </g>
     </g>
     <g id="text_39">
      <!-- 100 -->
      <g transform="translate(34.15625 679.968437)scale(0.2 -0.2)">
       <use xlink:href="#DejaVuSans-31"/>
       <use xlink:href="#DejaVuSans-30" x="63.623047"/>
       <use xlink:href="#DejaVuSans-30" x="127.246094"/>
      </g>
     </g>
    </g>
    <g id="text_40">
     <!-- accuracy [%] -->
     <g transform="translate(25.996875 911.530312)rotate(-90)scale(0.2 -0.2)">
      <use xlink:href="#DejaVuSans-61"/>
      <use xlink:href="#DejaVuSans-63" x="61.279297"/>
      <use xlink:href="#DejaVuSans-63" x="116.259766"/>
      <use xlink:href="#DejaVuSans-75" x="171.240234"/>
      <use xlink:href="#DejaVuSans-72" x="234.619141"/>
      <use xlink:href="#DejaVuSans-61" x="275.732422"/>
      <use xlink:href="#DejaVuSans-63" x="337.011719"/>
      <use xlink:href="#DejaVuSans-79" x="391.992188"/>
      <use xlink:href="#DejaVuSans-20" x="451.171875"/>
      <use xlink:href="#DejaVuSans-5b" x="482.958984"/>
      <use xlink:href="#DejaVuSans-25" x="521.972656"/>
      <use xlink:href="#DejaVuSans-5d" x="616.992188"/>
     </g>
    </g>
   </g>
   <g id="line2d_71">
    <path d="M 107.961648 916.096081 
L 112.773479 856.590224 
L 117.585311 795.348787 
L 122.397142 767.827312 
L 127.208974 759.149375 
L 132.020805 747.496152 
L 136.832637 747.000278 
L 141.644469 744.520867 
L 146.4563 740.305838 
L 151.268132 735.594973 
L 156.079963 736.586722 
L 160.891795 732.867606 
L 165.703626 729.396446 
L 170.515458 730.388196 
L 175.327289 733.115562 
L 180.139121 727.41291 
L 184.950953 729.892321 
L 189.762784 730.636152 
L 194.574616 727.660866 
L 199.386447 727.660866 
L 204.198279 729.396446 
L 209.01011 721.710258 
L 213.821942 724.437625 
L 218.633773 721.710258 
L 223.445605 725.67733 
L 228.257436 720.470553 
L 233.069268 718.487054 
L 237.8811 719.974678 
L 242.692931 720.470553 
L 247.504763 718.982929 
L 252.316594 720.222634 
L 257.128426 721.958214 
L 261.940257 728.900572 
L 266.752089 720.966465 
L 271.56392 719.72676 
L 276.375752 719.230847 
L 281.187584 720.222634 
L 285.999415 718.982929 
L 290.811247 719.72676 
L 295.623078 716.999393 
L 300.43491 717.743224 
L 305.246741 722.454089 
L 310.058573 728.156741 
L 314.870404 729.396446 
L 319.682236 730.140277 
L 324.494068 728.652616 
L 329.305899 731.379983 
L 334.117731 731.875857 
L 338.929562 736.338804 
L 343.741394 730.140277 
L 348.553225 731.379983 
L 353.365057 735.347017 
L 358.176888 734.603224 
L 362.98872 735.347017 
L 367.800551 733.115562 
L 372.612383 735.842929 
L 377.424215 738.074384 
L 382.236046 736.586722 
L 387.047878 737.330553 
L 391.859709 734.603224 
L 396.671541 732.371732 
L 401.483372 736.338804 
L 406.295204 742.041456 
L 411.107035 742.785249 
L 415.918867 737.330553 
L 420.730699 741.297625 
L 425.54253 737.082635 
L 430.354362 736.586722 
L 435.166193 739.809964 
L 439.978025 738.570259 
L 444.789856 740.553795 
L 449.601688 747.000278 
L 454.413519 747.248196 
L 459.225351 737.578509 
L 464.037182 741.545544 
L 468.849014 735.594973 
L 473.660846 741.7935 
L 478.472677 735.594973 
L 483.284509 738.074384 
L 488.09634 736.586722 
L 492.908172 743.033205 
L 497.720003 744.272911 
L 502.531835 736.834679 
L 507.343666 736.834679 
L 512.155498 734.603224 
L 516.96733 742.537331 
L 521.779161 732.371732 
L 526.590993 738.32234 
L 531.402824 729.892321 
L 536.214656 731.875857 
L 541.026487 731.132026 
L 545.838319 733.363519 
L 550.65015 734.851142 
L 555.461982 733.363519 
L 560.273814 732.867606 
L 565.085645 731.379983 
L 569.897477 731.379983 
L 574.709308 734.355268 
L 579.52114 731.627901 
L 584.332971 731.132026 
L 589.144803 730.388196 
L 593.956634 729.14849 
L 598.768466 733.363519 
L 603.580297 730.884108 
L 608.392129 728.404697 
L 613.203961 734.107312 
L 618.015792 730.388196 
L 622.827624 729.892321 
L 627.639455 731.627901 
L 632.451287 728.900572 
L 637.263118 731.132026 
L 642.07495 731.875857 
L 646.886781 730.884108 
L 651.698613 730.388196 
L 656.510445 731.875857 
L 661.322276 731.627901 
L 666.134108 731.875857 
L 670.945939 732.371732 
L 675.757771 729.14849 
L 680.569602 730.140277 
" clip-path="url(#pb645debf23)" style="fill: none; stroke: #1f77b4; stroke-width: 1.5; stroke-linecap: square"/>
   </g>
   <g id="line2d_72">
    <path d="M 107.961648 929.73284 
L 112.773479 933.451956 
L 117.585311 916.839893 
L 122.397142 891.549911 
L 127.208974 885.599321 
L 132.020805 878.161089 
L 136.832637 873.450205 
L 141.644469 882.37608 
L 146.4563 891.549911 
L 151.268132 895.269027 
L 156.079963 880.392563 
L 160.891795 880.888437 
L 165.703626 886.343152 
L 170.515458 887.334901 
L 175.327289 874.441973 
L 180.139121 881.632268 
L 184.950953 880.888437 
L 189.762784 891.301974 
L 194.574616 893.285491 
L 199.386447 881.136375 
L 204.198279 874.937848 
L 209.01011 870.47492 
L 213.821942 870.226983 
L 218.633773 874.441973 
L 223.445605 861.053152 
L 228.257436 862.78875 
L 233.069268 875.681679 
L 237.8811 870.970794 
L 242.692931 871.466688 
L 247.504763 880.144625 
L 252.316594 883.119911 
L 257.128426 874.194036 
L 261.940257 884.607553 
L 266.752089 878.90492 
L 271.56392 880.392563 
L 276.375752 879.152857 
L 281.187584 889.0705 
L 285.999415 877.913152 
L 290.811247 885.351384 
L 295.623078 877.913152 
L 300.43491 846.176706 
L 305.246741 758.901419 
L 310.058573 743.281162 
L 314.870404 735.842929 
L 319.682236 732.619688 
L 324.494068 728.156741 
L 329.305899 723.693794 
L 334.117731 724.189669 
L 338.929562 725.181456 
L 343.741394 723.445876 
L 348.553225 717.743224 
L 353.365057 719.974678 
L 358.176888 719.230847 
L 362.98872 718.239098 
L 367.800551 717.247349 
L 372.612383 716.255562 
L 377.424215 724.685581 
L 382.236046 713.280277 
L 387.047878 715.015857 
L 391.859709 714.767938 
L 396.671541 710.304991 
L 401.483372 715.759687 
L 406.295204 710.800866 
L 411.107035 711.048822 
L 415.918867 711.792615 
L 420.730699 711.544697 
L 425.54253 708.569412 
L 430.354362 707.825581 
L 435.166193 708.81733 
L 439.978025 710.057035 
L 444.789856 708.569412 
L 449.601688 712.040571 
L 454.413519 713.776151 
L 459.225351 711.544697 
L 464.037182 710.304991 
L 468.849014 710.800866 
L 473.660846 711.048822 
L 478.472677 710.057035 
L 483.284509 708.569412 
L 488.09634 707.577625 
L 492.908172 714.024108 
L 497.720003 718.734973 
L 502.531835 715.263813 
L 507.343666 714.767938 
L 512.155498 719.230847 
L 516.96733 721.214384 
L 521.779161 717.495267 
L 526.590993 723.693794 
L 531.402824 718.982929 
L 536.214656 718.982929 
L 541.026487 721.710258 
L 545.838319 724.437625 
L 550.65015 721.46234 
L 555.461982 722.20617 
L 560.273814 721.46234 
L 565.085645 723.693794 
L 569.897477 720.966465 
L 574.709308 722.454089 
L 579.52114 720.966465 
L 584.332971 719.478804 
L 589.144803 721.214384 
L 593.956634 722.702045 
L 598.768466 723.445876 
L 603.580297 720.222634 
L 608.392129 720.718509 
L 613.203961 724.189669 
L 618.015792 719.478804 
L 622.827624 720.966465 
L 627.639455 721.958214 
L 632.451287 721.46234 
L 637.263118 726.917036 
L 642.07495 727.908785 
L 646.886781 723.693794 
L 651.698613 722.454089 
L 656.510445 723.94175 
L 661.322276 722.454089 
L 666.134108 723.94175 
L 670.945939 725.429374 
L 675.757771 720.966465 
L 680.569602 722.454089 
" clip-path="url(#pb645debf23)" style="fill: none; stroke: #ff7f0e; stroke-width: 1.5; stroke-linecap: square"/>
   </g>
   <g id="line2d_73">
    <path d="M 107.961648 920.806946 
L 112.773479 876.921384 
L 117.585311 883.367848 
L 122.397142 904.442839 
L 127.208974 931.716357 
L 132.020805 917.831661 
L 136.832637 919.567241 
L 141.644469 930.476652 
L 146.4563 924.774018 
L 151.268132 924.526062 
L 156.079963 918.823429 
L 160.891795 906.92225 
L 165.703626 905.682544 
L 170.515458 908.409892 
L 175.327289 900.723723 
L 180.139121 902.707259 
L 184.950953 900.97166 
L 189.762784 899.979911 
L 194.574616 903.451071 
L 199.386447 904.938733 
L 204.198279 904.938733 
L 209.01011 909.153723 
L 213.821942 908.409892 
L 218.633773 908.657849 
L 223.445605 907.170187 
L 228.257436 908.905786 
L 233.069268 905.18667 
L 237.8811 904.442839 
L 242.692931 917.08783 
L 247.504763 901.219616 
L 252.316594 899.731955 
L 257.128426 901.219616 
L 261.940257 906.178438 
L 266.752089 899.23608 
L 271.56392 905.18667 
L 276.375752 903.451071 
L 281.187584 904.690776 
L 285.999415 904.938733 
L 290.811247 902.955196 
L 295.623078 901.467554 
L 300.43491 911.881071 
L 305.246741 903.451071 
L 310.058573 893.533428 
L 314.870404 894.773134 
L 319.682236 886.591089 
L 324.494068 894.525196 
L 329.305899 888.078732 
L 334.117731 886.839027 
L 338.929562 883.863741 
L 343.741394 873.946099 
L 348.553225 883.615785 
L 353.365057 887.334901 
L 358.176888 888.078732 
L 362.98872 882.128143 
L 367.800551 879.648732 
L 372.612383 878.161089 
L 377.424215 880.392563 
L 382.236046 881.880205 
L 387.047878 883.367848 
L 391.859709 877.169321 
L 396.671541 881.136375 
L 401.483372 887.334901 
L 406.295204 884.359616 
L 411.107035 889.318437 
L 415.918867 886.095196 
L 420.730699 889.0705 
L 425.54253 877.913152 
L 430.354362 879.152857 
L 435.166193 883.615785 
L 439.978025 881.880205 
L 444.789856 875.185804 
L 449.601688 892.045786 
L 454.413519 879.896669 
L 459.225351 879.896669 
L 464.037182 882.37608 
L 468.849014 879.400795 
L 473.660846 889.814312 
L 478.472677 875.185804 
L 483.284509 873.946099 
L 488.09634 880.6405 
L 492.908172 853.119045 
L 497.720003 744.768785 
L 502.531835 726.421161 
L 507.343666 719.478804 
L 512.155498 714.024108 
L 516.96733 710.057035 
L 521.779161 712.040571 
L 526.590993 705.34617 
L 531.402824 706.585875 
L 536.214656 710.304991 
L 541.026487 706.585875 
L 545.838319 705.098214 
L 550.65015 704.602339 
L 555.461982 705.34617 
L 560.273814 701.874972 
L 565.085645 701.131179 
L 569.897477 701.874972 
L 574.709308 701.627054 
L 579.52114 701.874972 
L 584.332971 701.379098 
L 589.144803 701.379098 
L 593.956634 700.139392 
L 598.768466 700.139392 
L 603.580297 698.651769 
L 608.392129 703.61059 
L 613.203961 696.668233 
L 618.015792 698.155856 
L 622.827624 696.916151 
L 627.639455 698.899687 
L 632.451287 696.668233 
L 637.263118 697.659982 
L 642.07495 697.659982 
L 646.886781 696.916151 
L 651.698613 696.668233 
L 656.510445 699.643518 
L 661.322276 698.155856 
L 666.134108 697.412063 
L 670.945939 695.676446 
L 675.757771 696.172358 
L 680.569602 696.916151 
" clip-path="url(#pb645debf23)" style="fill: none; stroke: #2ca02c; stroke-width: 1.5; stroke-linecap: square"/>
   </g>
   <g id="line2d_74">
    <path d="M 107.961648 928.741072 
L 112.773479 978.825161 
L 117.585311 983.783982 
L 122.397142 994.445456 
L 127.208974 992.213982 
L 132.020805 985.767518 
L 136.832637 997.420741 
L 141.644469 1008.082214 
L 146.4563 976.097812 
L 151.268132 989.982509 
L 156.079963 998.660446 
L 160.891795 985.767518 
L 165.703626 993.949562 
L 170.515458 986.263393 
L 175.327289 1008.826026 
L 180.139121 1006.346616 
L 184.950953 1009.32192 
L 189.762784 1003.867205 
L 194.574616 1006.346616 
L 199.386447 990.974277 
L 204.198279 994.197518 
L 209.01011 998.412509 
L 213.821942 999.900152 
L 218.633773 1001.63575 
L 223.445605 1002.875456 
L 228.257436 993.701625 
L 233.069268 1011.553384 
L 237.8811 1012.049268 
L 242.692931 999.15634 
L 247.504763 1006.098678 
L 252.316594 993.701625 
L 257.128426 1003.123393 
L 261.940257 983.536045 
L 266.752089 994.693393 
L 271.56392 1001.63575 
L 276.375752 995.933098 
L 281.187584 1004.858973 
L 285.999415 1007.090446 
L 290.811247 1004.363098 
L 295.623078 1009.569857 
L 300.43491 1002.131625 
L 305.246741 988.494866 
L 310.058573 1008.082214 
L 314.870404 999.652214 
L 319.682236 994.94133 
L 324.494068 995.685161 
L 329.305899 986.51133 
L 334.117731 989.982509 
L 338.929562 992.709857 
L 343.741394 987.503098 
L 348.553225 983.04017 
L 353.365057 983.04017 
L 358.176888 983.288107 
L 362.98872 986.51133 
L 367.800551 994.94133 
L 372.612383 987.998991 
L 377.424215 997.172804 
L 382.236046 993.701625 
L 387.047878 984.77575 
L 391.859709 986.263393 
L 396.671541 985.023687 
L 401.483372 986.759286 
L 406.295204 981.552509 
L 411.107035 986.015455 
L 415.918867 988.494866 
L 420.730699 994.94133 
L 425.54253 992.957813 
L 430.354362 992.709857 
L 435.166193 986.015455 
L 439.978025 995.437224 
L 444.789856 985.271625 
L 449.601688 987.998991 
L 454.413519 978.329286 
L 459.225351 992.461919 
L 464.037182 988.990741 
L 468.849014 993.20575 
L 473.660846 993.701625 
L 478.472677 995.189267 
L 483.284509 981.304571 
L 488.09634 990.974277 
L 492.908172 986.759286 
L 497.720003 998.412509 
L 502.531835 1004.363098 
L 507.343666 1007.090446 
L 512.155498 1006.842509 
L 516.96733 1017.999857 
L 521.779161 1020.231321 
L 526.590993 1020.479268 
L 531.402824 1008.082214 
L 536.214656 1005.602804 
L 541.026487 1009.569857 
L 545.838319 1006.842509 
L 550.65015 1011.0575 
L 555.461982 1015.768384 
L 560.273814 1019.983384 
L 565.085645 1023.454553 
L 569.897477 1008.082214 
L 574.709308 1016.264268 
L 579.52114 1014.032795 
L 584.332971 1019.4875 
L 589.144803 1016.264268 
L 593.956634 1016.760152 
L 598.768466 1017.999857 
L 603.580297 1015.024563 
L 608.392129 1002.379562 
L 613.203961 1013.288973 
L 618.015792 1012.049268 
L 622.827624 1014.280741 
L 627.639455 1010.561625 
L 632.451287 1015.520447 
L 637.263118 1010.313678 
L 642.07495 1014.528679 
L 646.886781 1013.784857 
L 651.698613 1016.264268 
L 656.510445 1013.536911 
L 661.322276 1011.0575 
L 666.134108 1012.297205 
L 670.945939 1011.0575 
L 675.757771 1017.503973 
L 680.569602 1014.776616 
" clip-path="url(#pb645debf23)" style="fill: none; stroke: #d62728; stroke-width: 1.5; stroke-linecap: square"/>
   </g>
   <g id="line2d_75">
    <path d="M 107.961648 916.096081 
L 112.773479 916.839893 
L 117.585311 921.302839 
L 122.397142 927.253429 
L 127.208974 937.914884 
L 132.020805 920.311071 
L 136.832637 925.269893 
L 141.644469 915.848125 
L 146.4563 919.071366 
L 151.268132 915.35225 
L 156.079963 918.823429 
L 160.891795 908.161955 
L 165.703626 912.129009 
L 170.515458 914.112545 
L 175.327289 914.856375 
L 180.139121 917.583723 
L 184.950953 913.368714 
L 189.762784 915.848125 
L 194.574616 916.591955 
L 199.386447 920.559009 
L 204.198279 914.360482 
L 209.01011 914.856375 
L 213.821942 916.344018 
L 218.633773 917.831661 
L 223.445605 918.823429 
L 228.257436 919.319303 
L 233.069268 926.757536 
L 237.8811 925.269893 
L 242.692931 923.534313 
L 247.504763 913.368714 
L 252.316594 911.881071 
L 257.128426 912.872839 
L 261.940257 917.08783 
L 266.752089 912.376965 
L 271.56392 911.633134 
L 276.375752 914.112545 
L 281.187584 912.376965 
L 285.999415 912.872839 
L 290.811247 919.071366 
L 295.623078 917.335786 
L 300.43491 918.327535 
L 305.246741 914.112545 
L 310.058573 919.815197 
L 314.870404 913.120777 
L 319.682236 916.839893 
L 324.494068 914.112545 
L 329.305899 919.071366 
L 334.117731 909.897554 
L 338.929562 910.393429 
L 343.741394 918.327535 
L 348.553225 912.872839 
L 353.365057 915.35225 
L 358.176888 911.385197 
L 362.98872 915.35225 
L 367.800551 921.302839 
L 372.612383 926.013724 
L 377.424215 926.261661 
L 382.236046 919.319303 
L 387.047878 918.575491 
L 391.859709 921.054902 
L 396.671541 916.839893 
L 401.483372 926.013724 
L 406.295204 919.567241 
L 411.107035 920.559009 
L 415.918867 919.815197 
L 420.730699 918.079598 
L 425.54253 915.600187 
L 430.354362 920.063134 
L 435.166193 919.815197 
L 439.978025 925.269893 
L 444.789856 923.78225 
L 449.601688 922.046651 
L 454.413519 920.559009 
L 459.225351 922.542545 
L 464.037182 923.286357 
L 468.849014 919.071366 
L 473.660846 914.112545 
L 478.472677 919.071366 
L 483.284509 923.286357 
L 488.09634 925.021956 
L 492.908172 920.063134 
L 497.720003 921.550777 
L 502.531835 918.327535 
L 507.343666 924.030188 
L 512.155498 930.476652 
L 516.96733 926.013724 
L 521.779161 925.021956 
L 526.590993 929.236946 
L 531.402824 922.046651 
L 536.214656 923.78225 
L 541.026487 928.493134 
L 545.838319 924.278125 
L 550.65015 920.806946 
L 555.461982 923.038419 
L 560.273814 926.013724 
L 565.085645 927.253429 
L 569.897477 927.997241 
L 574.709308 926.261661 
L 579.52114 926.261661 
L 584.332971 927.501366 
L 589.144803 927.501366 
L 593.956634 920.806946 
L 598.768466 922.790482 
L 603.580297 921.302839 
L 608.392129 928.493134 
L 613.203961 924.278125 
L 618.015792 926.013724 
L 622.827624 926.509598 
L 627.639455 922.294608 
L 632.451287 923.038419 
L 637.263118 918.823429 
L 642.07495 922.542545 
L 646.886781 918.823429 
L 651.698613 924.774018 
L 656.510445 922.046651 
L 661.322276 922.542545 
L 666.134108 915.600187 
L 670.945939 924.030188 
L 675.757771 926.013724 
L 680.569602 921.798714 
" clip-path="url(#pb645debf23)" style="fill: none; stroke: #9467bd; stroke-width: 1.5; stroke-linecap: square"/>
   </g>
   <g id="patch_9">
    <path d="M 79.33125 1019.4875 
L 79.33125 672.37 
" style="fill: none; stroke: #000000; stroke-width: 0.8; stroke-linejoin: miter; stroke-linecap: square"/>
   </g>
   <g id="patch_10">
    <path d="M 709.2 1019.4875 
L 709.2 672.37 
" style="fill: none; stroke: #000000; stroke-width: 0.8; stroke-linejoin: miter; stroke-linecap: square"/>
   </g>
   <g id="patch_11">
    <path d="M 79.33125 1019.4875 
L 709.2 1019.4875 
" style="fill: none; stroke: #000000; stroke-width: 0.8; stroke-linejoin: miter; stroke-linecap: square"/>
   </g>
   <g id="patch_12">
    <path d="M 79.33125 672.37 
L 709.2 672.37 
" style="fill: none; stroke: #000000; stroke-width: 0.8; stroke-linejoin: miter; stroke-linecap: square"/>
   </g>
   <g id="text_41">
    <!-- Test -->
    <g transform="translate(374.575 666.37)scale(0.2 -0.2)">
     <use xlink:href="#DejaVuSans-54"/>
     <use xlink:href="#DejaVuSans-65" x="44.083984"/>
     <use xlink:href="#DejaVuSans-73" x="105.607422"/>
     <use xlink:href="#DejaVuSans-74" x="157.707031"/>
    </g>
   </g>
   <g id="legend_2">
    <g id="patch_13">
     <path d="M 639.610937 884.124063 
L 702.2 884.124063 
Q 704.2 884.124063 704.2 882.124063 
L 704.2 809.733438 
Q 704.2 807.733438 702.2 807.733438 
L 639.610937 807.733438 
Q 637.610937 807.733438 637.610937 809.733438 
L 637.610937 882.124063 
Q 637.610937 884.124063 639.610937 884.124063 
z
" style="fill: #ffffff; opacity: 0.8; stroke: #cccccc; stroke-linejoin: miter"/>
    </g>
    <g id="line2d_76">
     <path d="M 641.610937 815.831875 
L 651.610937 815.831875 
L 661.610937 815.831875 
" style="fill: none; stroke: #1f77b4; stroke-width: 1.5; stroke-linecap: square"/>
    </g>
    <g id="text_42">
     <!-- task 0 -->
     <g transform="translate(669.610937 819.331875)scale(0.1 -0.1)">
      <use xlink:href="#DejaVuSans-74"/>
      <use xlink:href="#DejaVuSans-61" x="39.208984"/>
      <use xlink:href="#DejaVuSans-73" x="100.488281"/>
      <use xlink:href="#DejaVuSans-6b" x="152.587891"/>
      <use xlink:href="#DejaVuSans-20" x="210.498047"/>
      <use xlink:href="#DejaVuSans-30" x="242.285156"/>
     </g>
    </g>
    <g id="line2d_77">
     <path d="M 641.610937 830.51 
L 651.610937 830.51 
L 661.610937 830.51 
" style="fill: none; stroke: #ff7f0e; stroke-width: 1.5; stroke-linecap: square"/>
    </g>
    <g id="text_43">
     <!-- task 1 -->
     <g transform="translate(669.610937 834.01)scale(0.1 -0.1)">
      <use xlink:href="#DejaVuSans-74"/>
      <use xlink:href="#DejaVuSans-61" x="39.208984"/>
      <use xlink:href="#DejaVuSans-73" x="100.488281"/>
      <use xlink:href="#DejaVuSans-6b" x="152.587891"/>
      <use xlink:href="#DejaVuSans-20" x="210.498047"/>
      <use xlink:href="#DejaVuSans-31" x="242.285156"/>
     </g>
    </g>
    <g id="line2d_78">
     <path d="M 641.610937 845.188125 
L 651.610937 845.188125 
L 661.610937 845.188125 
" style="fill: none; stroke: #2ca02c; stroke-width: 1.5; stroke-linecap: square"/>
    </g>
    <g id="text_44">
     <!-- task 2 -->
     <g transform="translate(669.610937 848.688125)scale(0.1 -0.1)">
      <use xlink:href="#DejaVuSans-74"/>
      <use xlink:href="#DejaVuSans-61" x="39.208984"/>
      <use xlink:href="#DejaVuSans-73" x="100.488281"/>
      <use xlink:href="#DejaVuSans-6b" x="152.587891"/>
      <use xlink:href="#DejaVuSans-20" x="210.498047"/>
      <use xlink:href="#DejaVuSans-32" x="242.285156"/>
     </g>
    </g>
    <g id="line2d_79">
     <path d="M 641.610937 859.86625 
L 651.610937 859.86625 
L 661.610937 859.86625 
" style="fill: none; stroke: #d62728; stroke-width: 1.5; stroke-linecap: square"/>
    </g>
    <g id="text_45">
     <!-- task 3 -->
     <g transform="translate(669.610937 863.36625)scale(0.1 -0.1)">
      <use xlink:href="#DejaVuSans-74"/>
      <use xlink:href="#DejaVuSans-61" x="39.208984"/>
      <use xlink:href="#DejaVuSans-73" x="100.488281"/>
      <use xlink:href="#DejaVuSans-6b" x="152.587891"/>
      <use xlink:href="#DejaVuSans-20" x="210.498047"/>
      <use xlink:href="#DejaVuSans-33" x="242.285156"/>
     </g>
    </g>
    <g id="line2d_80">
     <path d="M 641.610937 874.544375 
L 651.610937 874.544375 
L 661.610937 874.544375 
" style="fill: none; stroke: #9467bd; stroke-width: 1.5; stroke-linecap: square"/>
    </g>
    <g id="text_46">
     <!-- task 4 -->
     <g transform="translate(669.610937 878.044375)scale(0.1 -0.1)">
      <use xlink:href="#DejaVuSans-74"/>
      <use xlink:href="#DejaVuSans-61" x="39.208984"/>
      <use xlink:href="#DejaVuSans-73" x="100.488281"/>
      <use xlink:href="#DejaVuSans-6b" x="152.587891"/>
      <use xlink:href="#DejaVuSans-20" x="210.498047"/>
      <use xlink:href="#DejaVuSans-34" x="242.285156"/>
     </g>
    </g>
   </g>
  </g>
  <g id="text_47">
   <!-- architecture: ResNet18 -->
   <g transform="translate(244.815625 15.196875)scale(0.2 -0.2)">
    <defs>
     <path id="DejaVuSans-68" d="M 3513 2113 
L 3513 0 
L 2938 0 
L 2938 2094 
Q 2938 2591 2744 2837 
Q 2550 3084 2163 3084 
Q 1697 3084 1428 2787 
Q 1159 2491 1159 1978 
L 1159 0 
L 581 0 
L 581 4863 
L 1159 4863 
L 1159 2956 
Q 1366 3272 1645 3428 
Q 1925 3584 2291 3584 
Q 2894 3584 3203 3211 
Q 3513 2838 3513 2113 
z
" transform="scale(0.015625)"/>
     <path id="DejaVuSans-3a" d="M 750 794 
L 1409 794 
L 1409 0 
L 750 0 
L 750 794 
z
M 750 3309 
L 1409 3309 
L 1409 2516 
L 750 2516 
L 750 3309 
z
" transform="scale(0.015625)"/>
     <path id="DejaVuSans-52" d="M 2841 2188 
Q 3044 2119 3236 1894 
Q 3428 1669 3622 1275 
L 4263 0 
L 3584 0 
L 2988 1197 
Q 2756 1666 2539 1819 
Q 2322 1972 1947 1972 
L 1259 1972 
L 1259 0 
L 628 0 
L 628 4666 
L 2053 4666 
Q 2853 4666 3247 4331 
Q 3641 3997 3641 3322 
Q 3641 2881 3436 2590 
Q 3231 2300 2841 2188 
z
M 1259 4147 
L 1259 2491 
L 2053 2491 
Q 2509 2491 2742 2702 
Q 2975 2913 2975 3322 
Q 2975 3731 2742 3939 
Q 2509 4147 2053 4147 
L 1259 4147 
z
" transform="scale(0.015625)"/>
     <path id="DejaVuSans-4e" d="M 628 4666 
L 1478 4666 
L 3547 763 
L 3547 4666 
L 4159 4666 
L 4159 0 
L 3309 0 
L 1241 3903 
L 1241 0 
L 628 0 
L 628 4666 
z
" transform="scale(0.015625)"/>
    </defs>
    <use xlink:href="#DejaVuSans-61"/>
    <use xlink:href="#DejaVuSans-72" x="61.279297"/>
    <use xlink:href="#DejaVuSans-63" x="100.142578"/>
    <use xlink:href="#DejaVuSans-68" x="155.123047"/>
    <use xlink:href="#DejaVuSans-69" x="218.501953"/>
    <use xlink:href="#DejaVuSans-74" x="246.285156"/>
    <use xlink:href="#DejaVuSans-65" x="285.494141"/>
    <use xlink:href="#DejaVuSans-63" x="347.017578"/>
    <use xlink:href="#DejaVuSans-74" x="401.998047"/>
    <use xlink:href="#DejaVuSans-75" x="441.207031"/>
    <use xlink:href="#DejaVuSans-72" x="504.585938"/>
    <use xlink:href="#DejaVuSans-65" x="543.449219"/>
    <use xlink:href="#DejaVuSans-3a" x="604.972656"/>
    <use xlink:href="#DejaVuSans-20" x="638.664062"/>
    <use xlink:href="#DejaVuSans-52" x="670.451172"/>
    <use xlink:href="#DejaVuSans-65" x="735.433594"/>
    <use xlink:href="#DejaVuSans-73" x="796.957031"/>
    <use xlink:href="#DejaVuSans-4e" x="849.056641"/>
    <use xlink:href="#DejaVuSans-65" x="923.861328"/>
    <use xlink:href="#DejaVuSans-74" x="985.384766"/>
    <use xlink:href="#DejaVuSans-31" x="1024.59375"/>
    <use xlink:href="#DejaVuSans-38" x="1088.216797"/>
   </g>
   <!-- dataset: CIFAR10 -->
   <g transform="translate(274.359375 37.5925)scale(0.2 -0.2)">
    <defs>
     <path id="DejaVuSans-64" d="M 2906 2969 
L 2906 4863 
L 3481 4863 
L 3481 0 
L 2906 0 
L 2906 525 
Q 2725 213 2448 61 
Q 2172 -91 1784 -91 
Q 1150 -91 751 415 
Q 353 922 353 1747 
Q 353 2572 751 3078 
Q 1150 3584 1784 3584 
Q 2172 3584 2448 3432 
Q 2725 3281 2906 2969 
z
M 947 1747 
Q 947 1113 1208 752 
Q 1469 391 1925 391 
Q 2381 391 2643 752 
Q 2906 1113 2906 1747 
Q 2906 2381 2643 2742 
Q 2381 3103 1925 3103 
Q 1469 3103 1208 2742 
Q 947 2381 947 1747 
z
" transform="scale(0.015625)"/>
     <path id="DejaVuSans-43" d="M 4122 4306 
L 4122 3641 
Q 3803 3938 3442 4084 
Q 3081 4231 2675 4231 
Q 1875 4231 1450 3742 
Q 1025 3253 1025 2328 
Q 1025 1406 1450 917 
Q 1875 428 2675 428 
Q 3081 428 3442 575 
Q 3803 722 4122 1019 
L 4122 359 
Q 3791 134 3420 21 
Q 3050 -91 2638 -91 
Q 1578 -91 968 557 
Q 359 1206 359 2328 
Q 359 3453 968 4101 
Q 1578 4750 2638 4750 
Q 3056 4750 3426 4639 
Q 3797 4528 4122 4306 
z
" transform="scale(0.015625)"/>
     <path id="DejaVuSans-49" d="M 628 4666 
L 1259 4666 
L 1259 0 
L 628 0 
L 628 4666 
z
" transform="scale(0.015625)"/>
     <path id="DejaVuSans-46" d="M 628 4666 
L 3309 4666 
L 3309 4134 
L 1259 4134 
L 1259 2759 
L 3109 2759 
L 3109 2228 
L 1259 2228 
L 1259 0 
L 628 0 
L 628 4666 
z
" transform="scale(0.015625)"/>
     <path id="DejaVuSans-41" d="M 2188 4044 
L 1331 1722 
L 3047 1722 
L 2188 4044 
z
M 1831 4666 
L 2547 4666 
L 4325 0 
L 3669 0 
L 3244 1197 
L 1141 1197 
L 716 0 
L 50 0 
L 1831 4666 
z
" transform="scale(0.015625)"/>
    </defs>
    <use xlink:href="#DejaVuSans-64"/>
    <use xlink:href="#DejaVuSans-61" x="63.476562"/>
    <use xlink:href="#DejaVuSans-74" x="124.755859"/>
    <use xlink:href="#DejaVuSans-61" x="163.964844"/>
    <use xlink:href="#DejaVuSans-73" x="225.244141"/>
    <use xlink:href="#DejaVuSans-65" x="277.34375"/>
    <use xlink:href="#DejaVuSans-74" x="338.867188"/>
    <use xlink:href="#DejaVuSans-3a" x="378.076172"/>
    <use xlink:href="#DejaVuSans-20" x="411.767578"/>
    <use xlink:href="#DejaVuSans-43" x="443.554688"/>
    <use xlink:href="#DejaVuSans-49" x="513.378906"/>
    <use xlink:href="#DejaVuSans-46" x="542.871094"/>
    <use xlink:href="#DejaVuSans-41" x="591.265625"/>
    <use xlink:href="#DejaVuSans-52" x="659.673828"/>
    <use xlink:href="#DejaVuSans-31" x="729.15625"/>
    <use xlink:href="#DejaVuSans-30" x="792.779297"/>
   </g>
   <!-- rehearsal_dataset:  -->
   <g transform="translate(263.760938 59.988125)scale(0.2 -0.2)">
    <defs>
     <path id="DejaVuSans-6c" d="M 603 4863 
L 1178 4863 
L 1178 0 
L 603 0 
L 603 4863 
z
" transform="scale(0.015625)"/>
     <path id="DejaVuSans-5f" d="M 3263 -1063 
L 3263 -1509 
L -63 -1509 
L -63 -1063 
L 3263 -1063 
z
" transform="scale(0.015625)"/>
    </defs>
    <use xlink:href="#DejaVuSans-72"/>
    <use xlink:href="#DejaVuSans-65" x="38.863281"/>
    <use xlink:href="#DejaVuSans-68" x="100.386719"/>
    <use xlink:href="#DejaVuSans-65" x="163.765625"/>
    <use xlink:href="#DejaVuSans-61" x="225.289062"/>
    <use xlink:href="#DejaVuSans-72" x="286.568359"/>
    <use xlink:href="#DejaVuSans-73" x="327.681641"/>
    <use xlink:href="#DejaVuSans-61" x="379.78125"/>
    <use xlink:href="#DejaVuSans-6c" x="441.060547"/>
    <use xlink:href="#DejaVuSans-5f" x="468.84375"/>
    <use xlink:href="#DejaVuSans-64" x="518.84375"/>
    <use xlink:href="#DejaVuSans-61" x="582.320312"/>
    <use xlink:href="#DejaVuSans-74" x="643.599609"/>
    <use xlink:href="#DejaVuSans-61" x="682.808594"/>
    <use xlink:href="#DejaVuSans-73" x="744.087891"/>
    <use xlink:href="#DejaVuSans-65" x="796.1875"/>
    <use xlink:href="#DejaVuSans-74" x="857.710938"/>
    <use xlink:href="#DejaVuSans-3a" x="896.919922"/>
    <use xlink:href="#DejaVuSans-20" x="930.611328"/>
   </g>
   <!-- batch_size_rehearsal: 128 -->
   <g transform="translate(229.859375 82.94)scale(0.2 -0.2)">
    <defs>
     <path id="DejaVuSans-62" d="M 3116 1747 
Q 3116 2381 2855 2742 
Q 2594 3103 2138 3103 
Q 1681 3103 1420 2742 
Q 1159 2381 1159 1747 
Q 1159 1113 1420 752 
Q 1681 391 2138 391 
Q 2594 391 2855 752 
Q 3116 1113 3116 1747 
z
M 1159 2969 
Q 1341 3281 1617 3432 
Q 1894 3584 2278 3584 
Q 2916 3584 3314 3078 
Q 3713 2572 3713 1747 
Q 3713 922 3314 415 
Q 2916 -91 2278 -91 
Q 1894 -91 1617 61 
Q 1341 213 1159 525 
L 1159 0 
L 581 0 
L 581 4863 
L 1159 4863 
L 1159 2969 
z
" transform="scale(0.015625)"/>
     <path id="DejaVuSans-7a" d="M 353 3500 
L 3084 3500 
L 3084 2975 
L 922 459 
L 3084 459 
L 3084 0 
L 275 0 
L 275 525 
L 2438 3041 
L 353 3041 
L 353 3500 
z
" transform="scale(0.015625)"/>
    </defs>
    <use xlink:href="#DejaVuSans-62"/>
    <use xlink:href="#DejaVuSans-61" x="63.476562"/>
    <use xlink:href="#DejaVuSans-74" x="124.755859"/>
    <use xlink:href="#DejaVuSans-63" x="163.964844"/>
    <use xlink:href="#DejaVuSans-68" x="218.945312"/>
    <use xlink:href="#DejaVuSans-5f" x="282.324219"/>
    <use xlink:href="#DejaVuSans-73" x="332.324219"/>
    <use xlink:href="#DejaVuSans-69" x="384.423828"/>
    <use xlink:href="#DejaVuSans-7a" x="412.207031"/>
    <use xlink:href="#DejaVuSans-65" x="464.697266"/>
    <use xlink:href="#DejaVuSans-5f" x="526.220703"/>
    <use xlink:href="#DejaVuSans-72" x="576.220703"/>
    <use xlink:href="#DejaVuSans-65" x="615.083984"/>
    <use xlink:href="#DejaVuSans-68" x="676.607422"/>
    <use xlink:href="#DejaVuSans-65" x="739.986328"/>
    <use xlink:href="#DejaVuSans-61" x="801.509766"/>
    <use xlink:href="#DejaVuSans-72" x="862.789062"/>
    <use xlink:href="#DejaVuSans-73" x="903.902344"/>
    <use xlink:href="#DejaVuSans-61" x="956.001953"/>
    <use xlink:href="#DejaVuSans-6c" x="1017.28125"/>
    <use xlink:href="#DejaVuSans-3a" x="1045.064453"/>
    <use xlink:href="#DejaVuSans-20" x="1078.755859"/>
    <use xlink:href="#DejaVuSans-31" x="1110.542969"/>
    <use xlink:href="#DejaVuSans-32" x="1174.166016"/>
    <use xlink:href="#DejaVuSans-38" x="1237.789062"/>
   </g>
   <!-- pretraining: False -->
   <g transform="translate(273.21875 105.891875)scale(0.2 -0.2)">
    <defs>
     <path id="DejaVuSans-67" d="M 2906 1791 
Q 2906 2416 2648 2759 
Q 2391 3103 1925 3103 
Q 1463 3103 1205 2759 
Q 947 2416 947 1791 
Q 947 1169 1205 825 
Q 1463 481 1925 481 
Q 2391 481 2648 825 
Q 2906 1169 2906 1791 
z
M 3481 434 
Q 3481 -459 3084 -895 
Q 2688 -1331 1869 -1331 
Q 1566 -1331 1297 -1286 
Q 1028 -1241 775 -1147 
L 775 -588 
Q 1028 -725 1275 -790 
Q 1522 -856 1778 -856 
Q 2344 -856 2625 -561 
Q 2906 -266 2906 331 
L 2906 616 
Q 2728 306 2450 153 
Q 2172 0 1784 0 
Q 1141 0 747 490 
Q 353 981 353 1791 
Q 353 2603 747 3093 
Q 1141 3584 1784 3584 
Q 2172 3584 2450 3431 
Q 2728 3278 2906 2969 
L 2906 3500 
L 3481 3500 
L 3481 434 
z
" transform="scale(0.015625)"/>
    </defs>
    <use xlink:href="#DejaVuSans-70"/>
    <use xlink:href="#DejaVuSans-72" x="63.476562"/>
    <use xlink:href="#DejaVuSans-65" x="102.339844"/>
    <use xlink:href="#DejaVuSans-74" x="163.863281"/>
    <use xlink:href="#DejaVuSans-72" x="203.072266"/>
    <use xlink:href="#DejaVuSans-61" x="244.185547"/>
    <use xlink:href="#DejaVuSans-69" x="305.464844"/>
    <use xlink:href="#DejaVuSans-6e" x="333.248047"/>
    <use xlink:href="#DejaVuSans-69" x="396.626953"/>
    <use xlink:href="#DejaVuSans-6e" x="424.410156"/>
    <use xlink:href="#DejaVuSans-67" x="487.789062"/>
    <use xlink:href="#DejaVuSans-3a" x="551.265625"/>
    <use xlink:href="#DejaVuSans-20" x="584.957031"/>
    <use xlink:href="#DejaVuSans-46" x="616.744141"/>
    <use xlink:href="#DejaVuSans-61" x="665.138672"/>
    <use xlink:href="#DejaVuSans-6c" x="726.417969"/>
    <use xlink:href="#DejaVuSans-73" x="754.201172"/>
    <use xlink:href="#DejaVuSans-65" x="806.300781"/>
   </g>
   <!-- learning_rate: 0.003 -->
   <g transform="translate(258.715625 128.2875)scale(0.2 -0.2)">
    <defs>
     <path id="DejaVuSans-2e" d="M 684 794 
L 1344 794 
L 1344 0 
L 684 0 
L 684 794 
z
" transform="scale(0.015625)"/>
    </defs>
    <use xlink:href="#DejaVuSans-6c"/>
    <use xlink:href="#DejaVuSans-65" x="27.783203"/>
    <use xlink:href="#DejaVuSans-61" x="89.306641"/>
    <use xlink:href="#DejaVuSans-72" x="150.585938"/>
    <use xlink:href="#DejaVuSans-6e" x="189.949219"/>
    <use xlink:href="#DejaVuSans-69" x="253.328125"/>
    <use xlink:href="#DejaVuSans-6e" x="281.111328"/>
    <use xlink:href="#DejaVuSans-67" x="344.490234"/>
    <use xlink:href="#DejaVuSans-5f" x="407.966797"/>
    <use xlink:href="#DejaVuSans-72" x="457.966797"/>
    <use xlink:href="#DejaVuSans-61" x="499.080078"/>
    <use xlink:href="#DejaVuSans-74" x="560.359375"/>
    <use xlink:href="#DejaVuSans-65" x="599.568359"/>
    <use xlink:href="#DejaVuSans-3a" x="661.091797"/>
    <use xlink:href="#DejaVuSans-20" x="694.783203"/>
    <use xlink:href="#DejaVuSans-30" x="726.570312"/>
    <use xlink:href="#DejaVuSans-2e" x="790.193359"/>
    <use xlink:href="#DejaVuSans-30" x="821.980469"/>
    <use xlink:href="#DejaVuSans-30" x="885.603516"/>
    <use xlink:href="#DejaVuSans-33" x="949.226562"/>
   </g>
   <!-- epochs: 5 -->
   <g transform="translate(311.425 151.239375)scale(0.2 -0.2)">
    <defs>
     <path id="DejaVuSans-6f" d="M 1959 3097 
Q 1497 3097 1228 2736 
Q 959 2375 959 1747 
Q 959 1119 1226 758 
Q 1494 397 1959 397 
Q 2419 397 2687 759 
Q 2956 1122 2956 1747 
Q 2956 2369 2687 2733 
Q 2419 3097 1959 3097 
z
M 1959 3584 
Q 2709 3584 3137 3096 
Q 3566 2609 3566 1747 
Q 3566 888 3137 398 
Q 2709 -91 1959 -91 
Q 1206 -91 779 398 
Q 353 888 353 1747 
Q 353 2609 779 3096 
Q 1206 3584 1959 3584 
z
" transform="scale(0.015625)"/>
    </defs>
    <use xlink:href="#DejaVuSans-65"/>
    <use xlink:href="#DejaVuSans-70" x="61.523438"/>
    <use xlink:href="#DejaVuSans-6f" x="125"/>
    <use xlink:href="#DejaVuSans-63" x="186.181641"/>
    <use xlink:href="#DejaVuSans-68" x="241.162109"/>
    <use xlink:href="#DejaVuSans-73" x="304.541016"/>
    <use xlink:href="#DejaVuSans-3a" x="356.640625"/>
    <use xlink:href="#DejaVuSans-20" x="390.332031"/>
    <use xlink:href="#DejaVuSans-35" x="422.119141"/>
   </g>
   <!-- separate_noise_output: None -->
   <g transform="translate(213.63125 173.635)scale(0.2 -0.2)">
    <use xlink:href="#DejaVuSans-73"/>
    <use xlink:href="#DejaVuSans-65" x="52.099609"/>
    <use xlink:href="#DejaVuSans-70" x="113.623047"/>
    <use xlink:href="#DejaVuSans-61" x="177.099609"/>
    <use xlink:href="#DejaVuSans-72" x="238.378906"/>
    <use xlink:href="#DejaVuSans-61" x="279.492188"/>
    <use xlink:href="#DejaVuSans-74" x="340.771484"/>
    <use xlink:href="#DejaVuSans-65" x="379.980469"/>
    <use xlink:href="#DejaVuSans-5f" x="441.503906"/>
    <use xlink:href="#DejaVuSans-6e" x="491.503906"/>
    <use xlink:href="#DejaVuSans-6f" x="554.882812"/>
    <use xlink:href="#DejaVuSans-69" x="616.064453"/>
    <use xlink:href="#DejaVuSans-73" x="643.847656"/>
    <use xlink:href="#DejaVuSans-65" x="695.947266"/>
    <use xlink:href="#DejaVuSans-5f" x="757.470703"/>
    <use xlink:href="#DejaVuSans-6f" x="807.470703"/>
    <use xlink:href="#DejaVuSans-75" x="868.652344"/>
    <use xlink:href="#DejaVuSans-74" x="932.03125"/>
    <use xlink:href="#DejaVuSans-70" x="971.240234"/>
    <use xlink:href="#DejaVuSans-75" x="1034.716797"/>
    <use xlink:href="#DejaVuSans-74" x="1098.095703"/>
    <use xlink:href="#DejaVuSans-3a" x="1137.304688"/>
    <use xlink:href="#DejaVuSans-20" x="1170.996094"/>
    <use xlink:href="#DejaVuSans-4e" x="1202.783203"/>
    <use xlink:href="#DejaVuSans-6f" x="1277.587891"/>
    <use xlink:href="#DejaVuSans-6e" x="1338.769531"/>
    <use xlink:href="#DejaVuSans-65" x="1402.148438"/>
   </g>
   <!-- runs: 1 -->
   <g transform="translate(325.095312 196.586875)scale(0.2 -0.2)">
    <use xlink:href="#DejaVuSans-72"/>
    <use xlink:href="#DejaVuSans-75" x="41.113281"/>
    <use xlink:href="#DejaVuSans-6e" x="104.492188"/>
    <use xlink:href="#DejaVuSans-73" x="167.871094"/>
    <use xlink:href="#DejaVuSans-3a" x="219.970703"/>
    <use xlink:href="#DejaVuSans-20" x="253.662109"/>
    <use xlink:href="#DejaVuSans-31" x="285.449219"/>
   </g>
  </g>
 </g>
 <defs>
  <clipPath id="p16693acd87">
   <rect x="79.33125" y="243.543125" width="629.86875" height="347.1175"/>
  </clipPath>
  <clipPath id="pb645debf23">
   <rect x="79.33125" y="672.37" width="629.86875" height="347.1175"/>
  </clipPath>
 </defs>
</svg>
