<?xml version="1.0" encoding="utf-8" standalone="no"?>
<!DOCTYPE svg PUBLIC "-//W3C//DTD SVG 1.1//EN"
  "http://www.w3.org/Graphics/SVG/1.1/DTD/svg11.dtd">
<svg xmlns:xlink="http://www.w3.org/1999/xlink" width="720pt" height="1080pt" viewBox="0 0 720 1080" xmlns="http://www.w3.org/2000/svg" version="1.1">
 <metadata>
  <rdf:RDF xmlns:dc="http://purl.org/dc/elements/1.1/" xmlns:cc="http://creativecommons.org/ns#" xmlns:rdf="http://www.w3.org/1999/02/22-rdf-syntax-ns#">
   <cc:Work>
    <dc:type rdf:resource="http://purl.org/dc/dcmitype/StillImage"/>
    <dc:date>2024-01-26T18:26:23.168572</dc:date>
    <dc:format>image/svg+xml</dc:format>
    <dc:creator>
     <cc:Agent>
      <dc:title>Matplotlib v3.5.1, https://matplotlib.org/</dc:title>
     </cc:Agent>
    </dc:creator>
   </cc:Work>
  </rdf:RDF>
 </metadata>
 <defs>
  <style type="text/css">*{stroke-linejoin: round; stroke-linecap: butt}</style>
 </defs>
 <g id="figure_1">
  <g id="patch_1">
   <path d="M 0 1080 
L 720 1080 
L 720 0 
L 0 0 
L 0 1080 
z
" style="fill: none"/>
  </g>
  <g id="axes_1">
   <g id="patch_2">
    <path d="M 79.33125 590.660625 
L 709.2 590.660625 
L 709.2 243.543125 
L 79.33125 243.543125 
z
" style="fill: #ffffff"/>
   </g>
   <g id="matplotlib.axis_1">
    <g id="xtick_1">
     <g id="line2d_1">
      <path d="M 107.961648 590.660625 
L 107.961648 243.543125 
" clip-path="url(#pab2455a01e)" style="fill: none; stroke: #b0b0b0; stroke-width: 0.8; stroke-linecap: square"/>
     </g>
     <g id="line2d_2">
      <defs>
       <path id="mea0a2962de" d="M 0 0 
L 0 3.5 
" style="stroke: #000000; stroke-width: 0.8"/>
      </defs>
      <g>
       <use xlink:href="#mea0a2962de" x="107.961648" y="590.660625" style="stroke: #000000; stroke-width: 0.8"/>
      </g>
     </g>
     <g id="text_1">
      <!-- 0 -->
      <g transform="translate(101.599148 612.8575)scale(0.2 -0.2)">
       <defs>
        <path id="DejaVuSans-30" d="M 2034 4250 
Q 1547 4250 1301 3770 
Q 1056 3291 1056 2328 
Q 1056 1369 1301 889 
Q 1547 409 2034 409 
Q 2525 409 2770 889 
Q 3016 1369 3016 2328 
Q 3016 3291 2770 3770 
Q 2525 4250 2034 4250 
z
M 2034 4750 
Q 2819 4750 3233 4129 
Q 3647 3509 3647 2328 
Q 3647 1150 3233 529 
Q 2819 -91 2034 -91 
Q 1250 -91 836 529 
Q 422 1150 422 2328 
Q 422 3509 836 4129 
Q 1250 4750 2034 4750 
z
" transform="scale(0.015625)"/>
       </defs>
       <use xlink:href="#DejaVuSans-30"/>
      </g>
     </g>
    </g>
    <g id="xtick_2">
     <g id="line2d_3">
      <path d="M 204.198279 590.660625 
L 204.198279 243.543125 
" clip-path="url(#pab2455a01e)" style="fill: none; stroke: #b0b0b0; stroke-width: 0.8; stroke-linecap: square"/>
     </g>
     <g id="line2d_4">
      <g>
       <use xlink:href="#mea0a2962de" x="204.198279" y="590.660625" style="stroke: #000000; stroke-width: 0.8"/>
      </g>
     </g>
     <g id="text_2">
      <!-- 20 -->
      <g transform="translate(191.473279 612.8575)scale(0.2 -0.2)">
       <defs>
        <path id="DejaVuSans-32" d="M 1228 531 
L 3431 531 
L 3431 0 
L 469 0 
L 469 531 
Q 828 903 1448 1529 
Q 2069 2156 2228 2338 
Q 2531 2678 2651 2914 
Q 2772 3150 2772 3378 
Q 2772 3750 2511 3984 
Q 2250 4219 1831 4219 
Q 1534 4219 1204 4116 
Q 875 4013 500 3803 
L 500 4441 
Q 881 4594 1212 4672 
Q 1544 4750 1819 4750 
Q 2544 4750 2975 4387 
Q 3406 4025 3406 3419 
Q 3406 3131 3298 2873 
Q 3191 2616 2906 2266 
Q 2828 2175 2409 1742 
Q 1991 1309 1228 531 
z
" transform="scale(0.015625)"/>
       </defs>
       <use xlink:href="#DejaVuSans-32"/>
       <use xlink:href="#DejaVuSans-30" x="63.623047"/>
      </g>
     </g>
    </g>
    <g id="xtick_3">
     <g id="line2d_5">
      <path d="M 300.43491 590.660625 
L 300.43491 243.543125 
" clip-path="url(#pab2455a01e)" style="fill: none; stroke: #b0b0b0; stroke-width: 0.8; stroke-linecap: square"/>
     </g>
     <g id="line2d_6">
      <g>
       <use xlink:href="#mea0a2962de" x="300.43491" y="590.660625" style="stroke: #000000; stroke-width: 0.8"/>
      </g>
     </g>
     <g id="text_3">
      <!-- 40 -->
      <g transform="translate(287.70991 612.8575)scale(0.2 -0.2)">
       <defs>
        <path id="DejaVuSans-34" d="M 2419 4116 
L 825 1625 
L 2419 1625 
L 2419 4116 
z
M 2253 4666 
L 3047 4666 
L 3047 1625 
L 3713 1625 
L 3713 1100 
L 3047 1100 
L 3047 0 
L 2419 0 
L 2419 1100 
L 313 1100 
L 313 1709 
L 2253 4666 
z
" transform="scale(0.015625)"/>
       </defs>
       <use xlink:href="#DejaVuSans-34"/>
       <use xlink:href="#DejaVuSans-30" x="63.623047"/>
      </g>
     </g>
    </g>
    <g id="xtick_4">
     <g id="line2d_7">
      <path d="M 396.671541 590.660625 
L 396.671541 243.543125 
" clip-path="url(#pab2455a01e)" style="fill: none; stroke: #b0b0b0; stroke-width: 0.8; stroke-linecap: square"/>
     </g>
     <g id="line2d_8">
      <g>
       <use xlink:href="#mea0a2962de" x="396.671541" y="590.660625" style="stroke: #000000; stroke-width: 0.8"/>
      </g>
     </g>
     <g id="text_4">
      <!-- 60 -->
      <g transform="translate(383.946541 612.8575)scale(0.2 -0.2)">
       <defs>
        <path id="DejaVuSans-36" d="M 2113 2584 
Q 1688 2584 1439 2293 
Q 1191 2003 1191 1497 
Q 1191 994 1439 701 
Q 1688 409 2113 409 
Q 2538 409 2786 701 
Q 3034 994 3034 1497 
Q 3034 2003 2786 2293 
Q 2538 2584 2113 2584 
z
M 3366 4563 
L 3366 3988 
Q 3128 4100 2886 4159 
Q 2644 4219 2406 4219 
Q 1781 4219 1451 3797 
Q 1122 3375 1075 2522 
Q 1259 2794 1537 2939 
Q 1816 3084 2150 3084 
Q 2853 3084 3261 2657 
Q 3669 2231 3669 1497 
Q 3669 778 3244 343 
Q 2819 -91 2113 -91 
Q 1303 -91 875 529 
Q 447 1150 447 2328 
Q 447 3434 972 4092 
Q 1497 4750 2381 4750 
Q 2619 4750 2861 4703 
Q 3103 4656 3366 4563 
z
" transform="scale(0.015625)"/>
       </defs>
       <use xlink:href="#DejaVuSans-36"/>
       <use xlink:href="#DejaVuSans-30" x="63.623047"/>
      </g>
     </g>
    </g>
    <g id="xtick_5">
     <g id="line2d_9">
      <path d="M 492.908172 590.660625 
L 492.908172 243.543125 
" clip-path="url(#pab2455a01e)" style="fill: none; stroke: #b0b0b0; stroke-width: 0.8; stroke-linecap: square"/>
     </g>
     <g id="line2d_10">
      <g>
       <use xlink:href="#mea0a2962de" x="492.908172" y="590.660625" style="stroke: #000000; stroke-width: 0.8"/>
      </g>
     </g>
     <g id="text_5">
      <!-- 80 -->
      <g transform="translate(480.183172 612.8575)scale(0.2 -0.2)">
       <defs>
        <path id="DejaVuSans-38" d="M 2034 2216 
Q 1584 2216 1326 1975 
Q 1069 1734 1069 1313 
Q 1069 891 1326 650 
Q 1584 409 2034 409 
Q 2484 409 2743 651 
Q 3003 894 3003 1313 
Q 3003 1734 2745 1975 
Q 2488 2216 2034 2216 
z
M 1403 2484 
Q 997 2584 770 2862 
Q 544 3141 544 3541 
Q 544 4100 942 4425 
Q 1341 4750 2034 4750 
Q 2731 4750 3128 4425 
Q 3525 4100 3525 3541 
Q 3525 3141 3298 2862 
Q 3072 2584 2669 2484 
Q 3125 2378 3379 2068 
Q 3634 1759 3634 1313 
Q 3634 634 3220 271 
Q 2806 -91 2034 -91 
Q 1263 -91 848 271 
Q 434 634 434 1313 
Q 434 1759 690 2068 
Q 947 2378 1403 2484 
z
M 1172 3481 
Q 1172 3119 1398 2916 
Q 1625 2713 2034 2713 
Q 2441 2713 2670 2916 
Q 2900 3119 2900 3481 
Q 2900 3844 2670 4047 
Q 2441 4250 2034 4250 
Q 1625 4250 1398 4047 
Q 1172 3844 1172 3481 
z
" transform="scale(0.015625)"/>
       </defs>
       <use xlink:href="#DejaVuSans-38"/>
       <use xlink:href="#DejaVuSans-30" x="63.623047"/>
      </g>
     </g>
    </g>
    <g id="xtick_6">
     <g id="line2d_11">
      <path d="M 589.144803 590.660625 
L 589.144803 243.543125 
" clip-path="url(#pab2455a01e)" style="fill: none; stroke: #b0b0b0; stroke-width: 0.8; stroke-linecap: square"/>
     </g>
     <g id="line2d_12">
      <g>
       <use xlink:href="#mea0a2962de" x="589.144803" y="590.660625" style="stroke: #000000; stroke-width: 0.8"/>
      </g>
     </g>
     <g id="text_6">
      <!-- 100 -->
      <g transform="translate(570.057303 612.8575)scale(0.2 -0.2)">
       <defs>
        <path id="DejaVuSans-31" d="M 794 531 
L 1825 531 
L 1825 4091 
L 703 3866 
L 703 4441 
L 1819 4666 
L 2450 4666 
L 2450 531 
L 3481 531 
L 3481 0 
L 794 0 
L 794 531 
z
" transform="scale(0.015625)"/>
       </defs>
       <use xlink:href="#DejaVuSans-31"/>
       <use xlink:href="#DejaVuSans-30" x="63.623047"/>
       <use xlink:href="#DejaVuSans-30" x="127.246094"/>
      </g>
     </g>
    </g>
    <g id="xtick_7">
     <g id="line2d_13">
      <path d="M 685.381434 590.660625 
L 685.381434 243.543125 
" clip-path="url(#pab2455a01e)" style="fill: none; stroke: #b0b0b0; stroke-width: 0.8; stroke-linecap: square"/>
     </g>
     <g id="line2d_14">
      <g>
       <use xlink:href="#mea0a2962de" x="685.381434" y="590.660625" style="stroke: #000000; stroke-width: 0.8"/>
      </g>
     </g>
     <g id="text_7">
      <!-- 120 -->
      <g transform="translate(666.293934 612.8575)scale(0.2 -0.2)">
       <use xlink:href="#DejaVuSans-31"/>
       <use xlink:href="#DejaVuSans-32" x="63.623047"/>
       <use xlink:href="#DejaVuSans-30" x="127.246094"/>
      </g>
     </g>
    </g>
    <g id="text_8">
     <!-- step -->
     <g transform="translate(372.634375 636.21375)scale(0.2 -0.2)">
      <defs>
       <path id="DejaVuSans-73" d="M 2834 3397 
L 2834 2853 
Q 2591 2978 2328 3040 
Q 2066 3103 1784 3103 
Q 1356 3103 1142 2972 
Q 928 2841 928 2578 
Q 928 2378 1081 2264 
Q 1234 2150 1697 2047 
L 1894 2003 
Q 2506 1872 2764 1633 
Q 3022 1394 3022 966 
Q 3022 478 2636 193 
Q 2250 -91 1575 -91 
Q 1294 -91 989 -36 
Q 684 19 347 128 
L 347 722 
Q 666 556 975 473 
Q 1284 391 1588 391 
Q 1994 391 2212 530 
Q 2431 669 2431 922 
Q 2431 1156 2273 1281 
Q 2116 1406 1581 1522 
L 1381 1569 
Q 847 1681 609 1914 
Q 372 2147 372 2553 
Q 372 3047 722 3315 
Q 1072 3584 1716 3584 
Q 2034 3584 2315 3537 
Q 2597 3491 2834 3397 
z
" transform="scale(0.015625)"/>
       <path id="DejaVuSans-74" d="M 1172 4494 
L 1172 3500 
L 2356 3500 
L 2356 3053 
L 1172 3053 
L 1172 1153 
Q 1172 725 1289 603 
Q 1406 481 1766 481 
L 2356 481 
L 2356 0 
L 1766 0 
Q 1100 0 847 248 
Q 594 497 594 1153 
L 594 3053 
L 172 3053 
L 172 3500 
L 594 3500 
L 594 4494 
L 1172 4494 
z
" transform="scale(0.015625)"/>
       <path id="DejaVuSans-65" d="M 3597 1894 
L 3597 1613 
L 953 1613 
Q 991 1019 1311 708 
Q 1631 397 2203 397 
Q 2534 397 2845 478 
Q 3156 559 3463 722 
L 3463 178 
Q 3153 47 2828 -22 
Q 2503 -91 2169 -91 
Q 1331 -91 842 396 
Q 353 884 353 1716 
Q 353 2575 817 3079 
Q 1281 3584 2069 3584 
Q 2775 3584 3186 3129 
Q 3597 2675 3597 1894 
z
M 3022 2063 
Q 3016 2534 2758 2815 
Q 2500 3097 2075 3097 
Q 1594 3097 1305 2825 
Q 1016 2553 972 2059 
L 3022 2063 
z
" transform="scale(0.015625)"/>
       <path id="DejaVuSans-70" d="M 1159 525 
L 1159 -1331 
L 581 -1331 
L 581 3500 
L 1159 3500 
L 1159 2969 
Q 1341 3281 1617 3432 
Q 1894 3584 2278 3584 
Q 2916 3584 3314 3078 
Q 3713 2572 3713 1747 
Q 3713 922 3314 415 
Q 2916 -91 2278 -91 
Q 1894 -91 1617 61 
Q 1341 213 1159 525 
z
M 3116 1747 
Q 3116 2381 2855 2742 
Q 2594 3103 2138 3103 
Q 1681 3103 1420 2742 
Q 1159 2381 1159 1747 
Q 1159 1113 1420 752 
Q 1681 391 2138 391 
Q 2594 391 2855 752 
Q 3116 1113 3116 1747 
z
" transform="scale(0.015625)"/>
      </defs>
      <use xlink:href="#DejaVuSans-73"/>
      <use xlink:href="#DejaVuSans-74" x="52.099609"/>
      <use xlink:href="#DejaVuSans-65" x="91.308594"/>
      <use xlink:href="#DejaVuSans-70" x="152.832031"/>
     </g>
    </g>
   </g>
   <g id="matplotlib.axis_2">
    <g id="ytick_1">
     <g id="line2d_15">
      <path d="M 79.33125 590.660625 
L 709.2 590.660625 
" clip-path="url(#pab2455a01e)" style="fill: none; stroke: #b0b0b0; stroke-width: 0.8; stroke-linecap: square"/>
     </g>
     <g id="line2d_16">
      <defs>
       <path id="m8e5871a5a2" d="M 0 0 
L -3.5 0 
" style="stroke: #000000; stroke-width: 0.8"/>
      </defs>
      <g>
       <use xlink:href="#m8e5871a5a2" x="79.33125" y="590.660625" style="stroke: #000000; stroke-width: 0.8"/>
      </g>
     </g>
     <g id="text_9">
      <!-- 30 -->
      <g transform="translate(46.88125 598.259063)scale(0.2 -0.2)">
       <defs>
        <path id="DejaVuSans-33" d="M 2597 2516 
Q 3050 2419 3304 2112 
Q 3559 1806 3559 1356 
Q 3559 666 3084 287 
Q 2609 -91 1734 -91 
Q 1441 -91 1130 -33 
Q 819 25 488 141 
L 488 750 
Q 750 597 1062 519 
Q 1375 441 1716 441 
Q 2309 441 2620 675 
Q 2931 909 2931 1356 
Q 2931 1769 2642 2001 
Q 2353 2234 1838 2234 
L 1294 2234 
L 1294 2753 
L 1863 2753 
Q 2328 2753 2575 2939 
Q 2822 3125 2822 3475 
Q 2822 3834 2567 4026 
Q 2313 4219 1838 4219 
Q 1578 4219 1281 4162 
Q 984 4106 628 3988 
L 628 4550 
Q 988 4650 1302 4700 
Q 1616 4750 1894 4750 
Q 2613 4750 3031 4423 
Q 3450 4097 3450 3541 
Q 3450 3153 3228 2886 
Q 3006 2619 2597 2516 
z
" transform="scale(0.015625)"/>
       </defs>
       <use xlink:href="#DejaVuSans-33"/>
       <use xlink:href="#DejaVuSans-30" x="63.623047"/>
      </g>
     </g>
    </g>
    <g id="ytick_2">
     <g id="line2d_17">
      <path d="M 79.33125 541.072411 
L 709.2 541.072411 
" clip-path="url(#pab2455a01e)" style="fill: none; stroke: #b0b0b0; stroke-width: 0.8; stroke-linecap: square"/>
     </g>
     <g id="line2d_18">
      <g>
       <use xlink:href="#m8e5871a5a2" x="79.33125" y="541.072411" style="stroke: #000000; stroke-width: 0.8"/>
      </g>
     </g>
     <g id="text_10">
      <!-- 40 -->
      <g transform="translate(46.88125 548.670848)scale(0.2 -0.2)">
       <use xlink:href="#DejaVuSans-34"/>
       <use xlink:href="#DejaVuSans-30" x="63.623047"/>
      </g>
     </g>
    </g>
    <g id="ytick_3">
     <g id="line2d_19">
      <path d="M 79.33125 491.484196 
L 709.2 491.484196 
" clip-path="url(#pab2455a01e)" style="fill: none; stroke: #b0b0b0; stroke-width: 0.8; stroke-linecap: square"/>
     </g>
     <g id="line2d_20">
      <g>
       <use xlink:href="#m8e5871a5a2" x="79.33125" y="491.484196" style="stroke: #000000; stroke-width: 0.8"/>
      </g>
     </g>
     <g id="text_11">
      <!-- 50 -->
      <g transform="translate(46.88125 499.082634)scale(0.2 -0.2)">
       <defs>
        <path id="DejaVuSans-35" d="M 691 4666 
L 3169 4666 
L 3169 4134 
L 1269 4134 
L 1269 2991 
Q 1406 3038 1543 3061 
Q 1681 3084 1819 3084 
Q 2600 3084 3056 2656 
Q 3513 2228 3513 1497 
Q 3513 744 3044 326 
Q 2575 -91 1722 -91 
Q 1428 -91 1123 -41 
Q 819 9 494 109 
L 494 744 
Q 775 591 1075 516 
Q 1375 441 1709 441 
Q 2250 441 2565 725 
Q 2881 1009 2881 1497 
Q 2881 1984 2565 2268 
Q 2250 2553 1709 2553 
Q 1456 2553 1204 2497 
Q 953 2441 691 2322 
L 691 4666 
z
" transform="scale(0.015625)"/>
       </defs>
       <use xlink:href="#DejaVuSans-35"/>
       <use xlink:href="#DejaVuSans-30" x="63.623047"/>
      </g>
     </g>
    </g>
    <g id="ytick_4">
     <g id="line2d_21">
      <path d="M 79.33125 441.895982 
L 709.2 441.895982 
" clip-path="url(#pab2455a01e)" style="fill: none; stroke: #b0b0b0; stroke-width: 0.8; stroke-linecap: square"/>
     </g>
     <g id="line2d_22">
      <g>
       <use xlink:href="#m8e5871a5a2" x="79.33125" y="441.895982" style="stroke: #000000; stroke-width: 0.8"/>
      </g>
     </g>
     <g id="text_12">
      <!-- 60 -->
      <g transform="translate(46.88125 449.49442)scale(0.2 -0.2)">
       <use xlink:href="#DejaVuSans-36"/>
       <use xlink:href="#DejaVuSans-30" x="63.623047"/>
      </g>
     </g>
    </g>
    <g id="ytick_5">
     <g id="line2d_23">
      <path d="M 79.33125 392.307768 
L 709.2 392.307768 
" clip-path="url(#pab2455a01e)" style="fill: none; stroke: #b0b0b0; stroke-width: 0.8; stroke-linecap: square"/>
     </g>
     <g id="line2d_24">
      <g>
       <use xlink:href="#m8e5871a5a2" x="79.33125" y="392.307768" style="stroke: #000000; stroke-width: 0.8"/>
      </g>
     </g>
     <g id="text_13">
      <!-- 70 -->
      <g transform="translate(46.88125 399.906205)scale(0.2 -0.2)">
       <defs>
        <path id="DejaVuSans-37" d="M 525 4666 
L 3525 4666 
L 3525 4397 
L 1831 0 
L 1172 0 
L 2766 4134 
L 525 4134 
L 525 4666 
z
" transform="scale(0.015625)"/>
       </defs>
       <use xlink:href="#DejaVuSans-37"/>
       <use xlink:href="#DejaVuSans-30" x="63.623047"/>
      </g>
     </g>
    </g>
    <g id="ytick_6">
     <g id="line2d_25">
      <path d="M 79.33125 342.719554 
L 709.2 342.719554 
" clip-path="url(#pab2455a01e)" style="fill: none; stroke: #b0b0b0; stroke-width: 0.8; stroke-linecap: square"/>
     </g>
     <g id="line2d_26">
      <g>
       <use xlink:href="#m8e5871a5a2" x="79.33125" y="342.719554" style="stroke: #000000; stroke-width: 0.8"/>
      </g>
     </g>
     <g id="text_14">
      <!-- 80 -->
      <g transform="translate(46.88125 350.317991)scale(0.2 -0.2)">
       <use xlink:href="#DejaVuSans-38"/>
       <use xlink:href="#DejaVuSans-30" x="63.623047"/>
      </g>
     </g>
    </g>
    <g id="ytick_7">
     <g id="line2d_27">
      <path d="M 79.33125 293.131339 
L 709.2 293.131339 
" clip-path="url(#pab2455a01e)" style="fill: none; stroke: #b0b0b0; stroke-width: 0.8; stroke-linecap: square"/>
     </g>
     <g id="line2d_28">
      <g>
       <use xlink:href="#m8e5871a5a2" x="79.33125" y="293.131339" style="stroke: #000000; stroke-width: 0.8"/>
      </g>
     </g>
     <g id="text_15">
      <!-- 90 -->
      <g transform="translate(46.88125 300.729777)scale(0.2 -0.2)">
       <defs>
        <path id="DejaVuSans-39" d="M 703 97 
L 703 672 
Q 941 559 1184 500 
Q 1428 441 1663 441 
Q 2288 441 2617 861 
Q 2947 1281 2994 2138 
Q 2813 1869 2534 1725 
Q 2256 1581 1919 1581 
Q 1219 1581 811 2004 
Q 403 2428 403 3163 
Q 403 3881 828 4315 
Q 1253 4750 1959 4750 
Q 2769 4750 3195 4129 
Q 3622 3509 3622 2328 
Q 3622 1225 3098 567 
Q 2575 -91 1691 -91 
Q 1453 -91 1209 -44 
Q 966 3 703 97 
z
M 1959 2075 
Q 2384 2075 2632 2365 
Q 2881 2656 2881 3163 
Q 2881 3666 2632 3958 
Q 2384 4250 1959 4250 
Q 1534 4250 1286 3958 
Q 1038 3666 1038 3163 
Q 1038 2656 1286 2365 
Q 1534 2075 1959 2075 
z
" transform="scale(0.015625)"/>
       </defs>
       <use xlink:href="#DejaVuSans-39"/>
       <use xlink:href="#DejaVuSans-30" x="63.623047"/>
      </g>
     </g>
    </g>
    <g id="ytick_8">
     <g id="line2d_29">
      <path d="M 79.33125 243.543125 
L 709.2 243.543125 
" clip-path="url(#pab2455a01e)" style="fill: none; stroke: #b0b0b0; stroke-width: 0.8; stroke-linecap: square"/>
     </g>
     <g id="line2d_30">
      <g>
       <use xlink:href="#m8e5871a5a2" x="79.33125" y="243.543125" style="stroke: #000000; stroke-width: 0.8"/>
      </g>
     </g>
     <g id="text_16">
      <!-- 100 -->
      <g transform="translate(34.15625 251.141562)scale(0.2 -0.2)">
       <use xlink:href="#DejaVuSans-31"/>
       <use xlink:href="#DejaVuSans-30" x="63.623047"/>
       <use xlink:href="#DejaVuSans-30" x="127.246094"/>
      </g>
     </g>
    </g>
    <g id="text_17">
     <!-- accuracy [%] -->
     <g transform="translate(25.996875 482.703437)rotate(-90)scale(0.2 -0.2)">
      <defs>
       <path id="DejaVuSans-61" d="M 2194 1759 
Q 1497 1759 1228 1600 
Q 959 1441 959 1056 
Q 959 750 1161 570 
Q 1363 391 1709 391 
Q 2188 391 2477 730 
Q 2766 1069 2766 1631 
L 2766 1759 
L 2194 1759 
z
M 3341 1997 
L 3341 0 
L 2766 0 
L 2766 531 
Q 2569 213 2275 61 
Q 1981 -91 1556 -91 
Q 1019 -91 701 211 
Q 384 513 384 1019 
Q 384 1609 779 1909 
Q 1175 2209 1959 2209 
L 2766 2209 
L 2766 2266 
Q 2766 2663 2505 2880 
Q 2244 3097 1772 3097 
Q 1472 3097 1187 3025 
Q 903 2953 641 2809 
L 641 3341 
Q 956 3463 1253 3523 
Q 1550 3584 1831 3584 
Q 2591 3584 2966 3190 
Q 3341 2797 3341 1997 
z
" transform="scale(0.015625)"/>
       <path id="DejaVuSans-63" d="M 3122 3366 
L 3122 2828 
Q 2878 2963 2633 3030 
Q 2388 3097 2138 3097 
Q 1578 3097 1268 2742 
Q 959 2388 959 1747 
Q 959 1106 1268 751 
Q 1578 397 2138 397 
Q 2388 397 2633 464 
Q 2878 531 3122 666 
L 3122 134 
Q 2881 22 2623 -34 
Q 2366 -91 2075 -91 
Q 1284 -91 818 406 
Q 353 903 353 1747 
Q 353 2603 823 3093 
Q 1294 3584 2113 3584 
Q 2378 3584 2631 3529 
Q 2884 3475 3122 3366 
z
" transform="scale(0.015625)"/>
       <path id="DejaVuSans-75" d="M 544 1381 
L 544 3500 
L 1119 3500 
L 1119 1403 
Q 1119 906 1312 657 
Q 1506 409 1894 409 
Q 2359 409 2629 706 
Q 2900 1003 2900 1516 
L 2900 3500 
L 3475 3500 
L 3475 0 
L 2900 0 
L 2900 538 
Q 2691 219 2414 64 
Q 2138 -91 1772 -91 
Q 1169 -91 856 284 
Q 544 659 544 1381 
z
M 1991 3584 
L 1991 3584 
z
" transform="scale(0.015625)"/>
       <path id="DejaVuSans-72" d="M 2631 2963 
Q 2534 3019 2420 3045 
Q 2306 3072 2169 3072 
Q 1681 3072 1420 2755 
Q 1159 2438 1159 1844 
L 1159 0 
L 581 0 
L 581 3500 
L 1159 3500 
L 1159 2956 
Q 1341 3275 1631 3429 
Q 1922 3584 2338 3584 
Q 2397 3584 2469 3576 
Q 2541 3569 2628 3553 
L 2631 2963 
z
" transform="scale(0.015625)"/>
       <path id="DejaVuSans-79" d="M 2059 -325 
Q 1816 -950 1584 -1140 
Q 1353 -1331 966 -1331 
L 506 -1331 
L 506 -850 
L 844 -850 
Q 1081 -850 1212 -737 
Q 1344 -625 1503 -206 
L 1606 56 
L 191 3500 
L 800 3500 
L 1894 763 
L 2988 3500 
L 3597 3500 
L 2059 -325 
z
" transform="scale(0.015625)"/>
       <path id="DejaVuSans-20" transform="scale(0.015625)"/>
       <path id="DejaVuSans-5b" d="M 550 4863 
L 1875 4863 
L 1875 4416 
L 1125 4416 
L 1125 -397 
L 1875 -397 
L 1875 -844 
L 550 -844 
L 550 4863 
z
" transform="scale(0.015625)"/>
       <path id="DejaVuSans-25" d="M 4653 2053 
Q 4381 2053 4226 1822 
Q 4072 1591 4072 1178 
Q 4072 772 4226 539 
Q 4381 306 4653 306 
Q 4919 306 5073 539 
Q 5228 772 5228 1178 
Q 5228 1588 5073 1820 
Q 4919 2053 4653 2053 
z
M 4653 2450 
Q 5147 2450 5437 2106 
Q 5728 1763 5728 1178 
Q 5728 594 5436 251 
Q 5144 -91 4653 -91 
Q 4153 -91 3862 251 
Q 3572 594 3572 1178 
Q 3572 1766 3864 2108 
Q 4156 2450 4653 2450 
z
M 1428 4353 
Q 1159 4353 1004 4120 
Q 850 3888 850 3481 
Q 850 3069 1003 2837 
Q 1156 2606 1428 2606 
Q 1700 2606 1854 2837 
Q 2009 3069 2009 3481 
Q 2009 3884 1853 4118 
Q 1697 4353 1428 4353 
z
M 4250 4750 
L 4750 4750 
L 1831 -91 
L 1331 -91 
L 4250 4750 
z
M 1428 4750 
Q 1922 4750 2215 4408 
Q 2509 4066 2509 3481 
Q 2509 2891 2217 2550 
Q 1925 2209 1428 2209 
Q 931 2209 642 2551 
Q 353 2894 353 3481 
Q 353 4063 643 4406 
Q 934 4750 1428 4750 
z
" transform="scale(0.015625)"/>
       <path id="DejaVuSans-5d" d="M 1947 4863 
L 1947 -844 
L 622 -844 
L 622 -397 
L 1369 -397 
L 1369 4416 
L 622 4416 
L 622 4863 
L 1947 4863 
z
" transform="scale(0.015625)"/>
      </defs>
      <use xlink:href="#DejaVuSans-61"/>
      <use xlink:href="#DejaVuSans-63" x="61.279297"/>
      <use xlink:href="#DejaVuSans-63" x="116.259766"/>
      <use xlink:href="#DejaVuSans-75" x="171.240234"/>
      <use xlink:href="#DejaVuSans-72" x="234.619141"/>
      <use xlink:href="#DejaVuSans-61" x="275.732422"/>
      <use xlink:href="#DejaVuSans-63" x="337.011719"/>
      <use xlink:href="#DejaVuSans-79" x="391.992188"/>
      <use xlink:href="#DejaVuSans-20" x="451.171875"/>
      <use xlink:href="#DejaVuSans-5b" x="482.958984"/>
      <use xlink:href="#DejaVuSans-25" x="521.972656"/>
      <use xlink:href="#DejaVuSans-5d" x="616.992188"/>
     </g>
    </g>
   </g>
   <g id="line2d_31">
    <path d="M 107.961648 490.988322 
L 112.773479 485.087312 
L 117.585311 464.656973 
L 122.397142 442.590214 
L 127.208974 428.655938 
L 132.020805 420.325116 
L 136.832637 412.291812 
L 141.644469 409.614044 
L 146.4563 414.672063 
L 151.268132 402.770884 
L 156.079963 397.068232 
L 160.891795 392.952401 
L 165.703626 390.175473 
L 170.515458 386.505956 
L 175.327289 383.183555 
L 180.139121 378.770169 
L 184.950953 380.35699 
L 189.762784 375.894081 
L 194.574616 372.422883 
L 199.386447 368.207893 
L 204.198279 368.50541 
L 209.01011 363.844143 
L 213.821942 362.207723 
L 218.633773 359.678714 
L 223.445605 366.918589 
L 228.257436 357.943134 
L 233.069268 354.273617 
L 237.8811 352.240482 
L 242.692931 352.438839 
L 247.504763 352.240482 
L 252.316594 349.265196 
L 257.128426 348.719723 
L 261.940257 357.100143 
L 266.752089 346.884945 
L 271.56392 342.273278 
L 276.375752 341.529447 
L 281.187584 342.521196 
L 285.999415 340.488099 
L 290.811247 335.380481 
L 295.623078 334.835046 
L 300.43491 343.90966 
L 305.246741 373.662589 
L 310.058573 380.25783 
L 314.870404 383.084357 
L 319.682236 384.274464 
L 324.494068 387.646464 
L 329.305899 389.332483 
L 334.117731 391.36558 
L 338.929562 392.208608 
L 343.741394 392.605285 
L 348.553225 388.588652 
L 353.365057 385.613366 
L 358.176888 386.853072 
L 362.98872 387.547304 
L 367.800551 387.99358 
L 372.612383 389.183724 
L 377.424215 388.886169 
L 382.236046 389.63 
L 387.047878 387.448106 
L 391.859709 389.034928 
L 396.671541 387.795222 
L 401.483372 389.580401 
L 406.295204 390.770545 
L 411.107035 390.175473 
L 415.918867 391.563937 
L 420.730699 390.522589 
L 425.54253 391.36558 
L 430.354362 389.729197 
L 435.166193 391.663135 
L 439.978025 395.134295 
L 444.789856 393.299517 
L 449.601688 392.010251 
L 454.413519 388.638251 
L 459.225351 389.877956 
L 464.037182 391.712696 
L 468.849014 390.324232 
L 473.660846 390.919304 
L 478.472677 390.423429 
L 483.284509 393.944188 
L 488.09634 394.489661 
L 492.908172 393.051599 
L 497.720003 388.985367 
L 502.531835 391.167222 
L 507.343666 392.605285 
L 512.155498 391.018464 
L 516.96733 389.778758 
L 521.779161 388.638251 
L 526.590993 390.423429 
L 531.402824 386.555517 
L 536.214656 389.084526 
L 541.026487 389.729197 
L 545.838319 388.73741 
L 550.65015 389.679599 
L 555.461982 389.134125 
L 560.273814 391.415178 
L 565.085645 392.605285 
L 569.897477 390.968903 
L 574.709308 389.778758 
L 579.52114 389.382081 
L 584.332971 390.225072 
L 589.144803 392.456526 
L 593.956634 391.018464 
L 598.768466 389.828357 
L 603.580297 393.101197 
L 608.392129 393.448313 
L 613.203961 391.712696 
L 618.015792 392.307768 
L 622.827624 390.572188 
L 627.639455 391.514338 
L 632.451287 393.002 
L 637.263118 389.679599 
L 642.07495 392.654884 
L 646.886781 391.415178 
L 651.698613 392.10941 
L 656.510445 392.90284 
L 661.322276 392.10941 
L 666.134108 393.894589 
L 670.945939 393.249956 
L 675.757771 393.646633 
L 680.569602 395.481411 
" clip-path="url(#pab2455a01e)" style="fill: none; stroke: #1f77b4; stroke-width: 1.5; stroke-linecap: square"/>
   </g>
   <g id="line2d_32">
    <path d="M 107.961648 489.748616 
L 112.773479 506.360661 
L 117.585311 502.294429 
L 122.397142 496.393438 
L 127.208974 495.352071 
L 132.020805 492.773482 
L 136.832637 492.475964 
L 141.644469 485.781544 
L 146.4563 485.831143 
L 151.268132 490.294071 
L 156.079963 490.294071 
L 160.891795 490.194911 
L 165.703626 492.178428 
L 170.515458 495.104134 
L 175.327289 492.07925 
L 180.139121 495.45125 
L 184.950953 499.269545 
L 189.762784 498.029839 
L 194.574616 493.120617 
L 199.386447 494.905776 
L 204.198279 493.021438 
L 209.01011 491.13708 
L 213.821942 496.690955 
L 218.633773 491.980071 
L 223.445605 491.732134 
L 228.257436 496.443018 
L 233.069268 495.004955 
L 237.8811 494.707438 
L 242.692931 496.145482 
L 247.504763 491.930491 
L 252.316594 492.674322 
L 257.128426 496.790134 
L 261.940257 500.211714 
L 266.752089 496.443018 
L 271.56392 493.269375 
L 276.375752 495.104134 
L 281.187584 495.203313 
L 285.999415 497.831482 
L 290.811247 496.343839 
L 295.623078 491.880911 
L 300.43491 493.071018 
L 305.246741 466.590911 
L 310.058573 447.846572 
L 314.870404 430.044402 
L 319.682236 422.60617 
L 324.494068 414.076991 
L 329.305899 408.870213 
L 334.117731 403.465116 
L 338.929562 399.299724 
L 343.741394 393.299517 
L 348.553225 388.73741 
L 353.365057 383.679429 
L 358.176888 378.571849 
L 362.98872 374.654376 
L 367.800551 370.786501 
L 372.612383 370.340187 
L 377.424215 373.761786 
L 382.236046 367.116946 
L 387.047878 364.687134 
L 391.859709 362.852356 
L 396.671541 360.819259 
L 401.483372 355.414124 
L 406.295204 354.81909 
L 411.107035 350.802419 
L 415.918867 352.736356 
L 420.730699 347.827134 
L 425.54253 345.496481 
L 430.354362 342.372438 
L 435.166193 342.719554 
L 439.978025 343.661742 
L 444.789856 340.091384 
L 449.601688 336.868143 
L 454.413519 343.314626 
L 459.225351 336.074751 
L 464.037182 333.992017 
L 468.849014 331.562205 
L 473.660846 327.595133 
L 478.472677 326.454625 
L 483.284509 326.157108 
L 488.09634 322.140437 
L 492.908172 329.628268 
L 497.720003 337.264858 
L 502.531835 342.223679 
L 507.343666 343.8105 
L 512.155498 344.70309 
L 516.96733 344.207215 
L 521.779161 343.711303 
L 526.590993 345.198964 
L 531.402824 348.17425 
L 536.214656 351.099974 
L 541.026487 350.306544 
L 545.838319 351.695008 
L 550.65015 349.860269 
L 555.461982 350.058626 
L 560.273814 350.256945 
L 565.085645 351.099974 
L 569.897477 349.166037 
L 574.709308 349.860269 
L 579.52114 351.000776 
L 584.332971 350.802419 
L 589.144803 350.009027 
L 593.956634 348.570964 
L 598.768466 353.529786 
L 603.580297 353.678544 
L 608.392129 355.662081 
L 613.203961 354.471974 
L 618.015792 351.744607 
L 622.827624 351.496651 
L 627.639455 351.248732 
L 632.451287 352.835554 
L 637.263118 353.777742 
L 642.07495 353.777742 
L 646.886781 353.331428 
L 651.698613 354.521535 
L 656.510445 352.091723 
L 661.322276 352.587598 
L 666.134108 350.951215 
L 670.945939 356.505071 
L 675.757771 356.55467 
L 680.569602 354.521535 
" clip-path="url(#pab2455a01e)" style="fill: none; stroke: #ff7f0e; stroke-width: 1.5; stroke-linecap: square"/>
   </g>
   <g id="line2d_33">
    <path d="M 107.961648 465.202447 
L 112.773479 491.236259 
L 117.585311 490.145312 
L 122.397142 485.731964 
L 127.208974 482.756679 
L 132.020805 479.384679 
L 136.832637 477.897017 
L 141.644469 477.698679 
L 146.4563 477.103607 
L 151.268132 476.756491 
L 156.079963 477.351563 
L 160.891795 479.136723 
L 165.703626 477.797858 
L 170.515458 477.698679 
L 175.327289 477.202785 
L 180.139121 480.326848 
L 184.950953 479.2855 
L 189.762784 480.22767 
L 194.574616 479.880554 
L 199.386447 479.087143 
L 204.198279 478.591268 
L 209.01011 477.450723 
L 213.821942 477.897017 
L 218.633773 477.64908 
L 223.445605 477.698679 
L 228.257436 479.037563 
L 233.069268 478.343312 
L 237.8811 478.244152 
L 242.692931 478.293732 
L 247.504763 479.434259 
L 252.316594 481.02108 
L 257.128426 478.987964 
L 261.940257 477.351563 
L 266.752089 478.938384 
L 271.56392 478.392911 
L 276.375752 477.401143 
L 281.187584 476.558152 
L 285.999415 479.136723 
L 290.811247 480.872322 
L 295.623078 478.442491 
L 300.43491 478.789607 
L 305.246741 479.384679 
L 310.058573 478.987964 
L 314.870404 478.343312 
L 319.682236 478.144974 
L 324.494068 479.136723 
L 329.305899 477.450723 
L 334.117731 478.49209 
L 338.929562 477.054027 
L 343.741394 478.293732 
L 348.553225 478.49209 
L 353.365057 478.392911 
L 358.176888 479.33508 
L 362.98872 478.987964 
L 367.800551 477.797858 
L 372.612383 479.037563 
L 377.424215 479.483858 
L 382.236046 477.351563 
L 387.047878 479.483858 
L 391.859709 480.277268 
L 396.671541 478.888785 
L 401.483372 477.351563 
L 406.295204 478.839206 
L 411.107035 477.847438 
L 415.918867 478.442491 
L 420.730699 480.773143 
L 425.54253 481.467375 
L 430.354362 479.533438 
L 435.166193 480.426027 
L 439.978025 480.872322 
L 444.789856 480.078911 
L 449.601688 480.773143 
L 454.413519 478.938384 
L 459.225351 479.930133 
L 464.037182 479.682196 
L 468.849014 481.566554 
L 473.660846 480.773143 
L 478.472677 479.037563 
L 483.284509 480.9715 
L 488.09634 481.120259 
L 492.908172 474.029143 
L 497.720003 421.71358 
L 502.531835 409.316527 
L 507.343666 397.16743 
L 512.155498 392.406928 
L 516.96733 387.596903 
L 521.779161 383.62983 
L 526.590993 379.41484 
L 531.402824 383.133956 
L 536.214656 378.125536 
L 541.026487 373.712187 
L 545.838319 370.984821 
L 550.65015 369.100482 
L 555.461982 363.943303 
L 560.273814 363.001115 
L 565.085645 360.620902 
L 569.897477 362.257322 
L 574.709308 359.034081 
L 579.52114 357.645617 
L 584.332971 353.777742 
L 589.144803 351.248732 
L 593.956634 349.661911 
L 598.768466 347.975892 
L 603.580297 346.240312 
L 608.392129 347.777535 
L 613.203961 345.248563 
L 618.015792 343.562544 
L 622.827624 341.479848 
L 627.639455 339.149196 
L 632.451287 339.793867 
L 637.263118 338.653322 
L 642.07495 335.727597 
L 646.886781 335.777196 
L 651.698613 334.239973 
L 656.510445 332.355635 
L 661.322276 328.785277 
L 666.134108 330.22334 
L 670.945939 328.388563 
L 675.757771 329.033196 
L 680.569602 325.611635 
" clip-path="url(#pab2455a01e)" style="fill: none; stroke: #2ca02c; stroke-width: 1.5; stroke-linecap: square"/>
   </g>
   <g id="line2d_34">
    <path d="M 107.961648 491.484196 
L 112.773479 475.169669 
L 117.585311 478.194553 
L 122.397142 478.690428 
L 127.208974 479.483858 
L 132.020805 483.302134 
L 136.832637 483.252554 
L 141.644469 484.293902 
L 146.4563 483.401312 
L 151.268132 483.847607 
L 156.079963 484.888955 
L 160.891795 482.6575 
L 165.703626 485.632786 
L 170.515458 487.566723 
L 175.327289 484.045964 
L 180.139121 486.227839 
L 184.950953 485.087312 
L 189.762784 486.97167 
L 194.574616 485.831143 
L 199.386447 486.624554 
L 204.198279 486.822911 
L 209.01011 484.690616 
L 213.821942 487.81466 
L 218.633773 488.062616 
L 223.445605 483.401312 
L 228.257436 484.293902 
L 233.069268 484.095544 
L 237.8811 486.0295 
L 242.692931 486.12866 
L 247.504763 489.798196 
L 252.316594 485.583206 
L 257.128426 489.252723 
L 261.940257 492.178428 
L 266.752089 488.013018 
L 271.56392 488.161795 
L 276.375752 489.203143 
L 281.187584 483.698848 
L 285.999415 485.880723 
L 290.811247 486.674134 
L 295.623078 490.690786 
L 300.43491 492.674322 
L 305.246741 497.13725 
L 310.058573 494.459482 
L 314.870404 494.013187 
L 319.682236 497.186849 
L 324.494068 494.707438 
L 329.305899 497.881081 
L 334.117731 493.914027 
L 338.929562 491.13708 
L 343.741394 493.318955 
L 348.553225 494.360322 
L 353.365057 494.806598 
L 358.176888 493.170196 
L 362.98872 495.252892 
L 367.800551 501.253081 
L 372.612383 498.376955 
L 377.424215 498.575313 
L 382.236046 499.864598 
L 387.047878 495.699187 
L 391.859709 496.740554 
L 396.671541 496.492598 
L 401.483372 495.252892 
L 406.295204 495.252892 
L 411.107035 497.484366 
L 415.918867 497.286008 
L 420.730699 495.699187 
L 425.54253 496.641375 
L 430.354362 496.046303 
L 435.166193 496.889313 
L 439.978025 495.847965 
L 444.789856 495.996723 
L 449.601688 496.046303 
L 454.413519 493.418134 
L 459.225351 495.252892 
L 464.037182 493.864428 
L 468.849014 492.624723 
L 473.660846 495.600027 
L 478.472677 497.385187 
L 483.284509 496.095902 
L 488.09634 493.566892 
L 492.908172 492.575143 
L 497.720003 495.45125 
L 502.531835 497.633143 
L 507.343666 496.443018 
L 512.155498 494.459482 
L 516.96733 493.76525 
L 521.779161 492.02967 
L 526.590993 491.236259 
L 531.402824 492.02967 
L 536.214656 494.261143 
L 541.026487 495.054554 
L 545.838319 494.360322 
L 550.65015 494.261143 
L 555.461982 493.71567 
L 560.273814 493.170196 
L 565.085645 493.864428 
L 569.897477 494.360322 
L 574.709308 493.616491 
L 579.52114 493.021438 
L 584.332971 493.219776 
L 589.144803 493.566892 
L 593.956634 494.707438 
L 598.768466 495.748786 
L 603.580297 495.054554 
L 608.392129 493.170196 
L 613.203961 498.029839 
L 618.015792 498.228197 
L 622.827624 492.82308 
L 627.639455 495.104134 
L 632.451287 494.310723 
L 637.263118 495.104134 
L 642.07495 495.352071 
L 646.886781 497.781902 
L 651.698613 494.261143 
L 656.510445 495.897544 
L 661.322276 494.112366 
L 666.134108 496.24466 
L 670.945939 497.732303 
L 675.757771 492.575143 
L 680.569602 494.211544 
" clip-path="url(#pab2455a01e)" style="fill: none; stroke: #d62728; stroke-width: 1.5; stroke-linecap: square"/>
   </g>
   <g id="line2d_35">
    <path d="M 107.961648 519.402366 
L 112.773479 491.484196 
L 117.585311 491.732134 
L 122.397142 495.153733 
L 127.208974 498.228197 
L 132.020805 498.228197 
L 136.832637 499.914197 
L 141.644469 498.376955 
L 146.4563 498.972008 
L 151.268132 498.079438 
L 156.079963 497.781902 
L 160.891795 499.269545 
L 165.703626 497.682723 
L 170.515458 496.889313 
L 175.327289 497.980259 
L 180.139121 499.120786 
L 184.950953 495.897544 
L 189.762784 495.40167 
L 194.574616 496.343839 
L 199.386447 497.533965 
L 204.198279 496.591776 
L 209.01011 495.798366 
L 213.821942 496.294259 
L 218.633773 496.095902 
L 223.445605 495.104134 
L 228.257436 495.302491 
L 233.069268 497.583545 
L 237.8811 496.591776 
L 242.692931 497.038071 
L 247.504763 496.393438 
L 252.316594 496.988491 
L 257.128426 498.129018 
L 261.940257 494.856197 
L 266.752089 495.40167 
L 271.56392 496.542197 
L 276.375752 494.55866 
L 281.187584 498.327375 
L 285.999415 498.029839 
L 290.811247 498.624892 
L 295.623078 498.129018 
L 300.43491 495.649607 
L 305.246741 495.203313 
L 310.058573 494.657839 
L 314.870404 490.542027 
L 319.682236 493.219776 
L 324.494068 491.831312 
L 329.305899 490.145312 
L 334.117731 491.285839 
L 338.929562 490.046134 
L 343.741394 489.004786 
L 348.553225 488.112196 
L 353.365057 489.847776 
L 358.176888 490.095732 
L 362.98872 490.095732 
L 367.800551 489.401501 
L 372.612383 490.542027 
L 377.424215 491.385018 
L 382.236046 492.575143 
L 387.047878 492.674322 
L 391.859709 492.475964 
L 396.671541 492.426366 
L 401.483372 492.475964 
L 406.295204 491.335438 
L 411.107035 491.583375 
L 415.918867 493.170196 
L 420.730699 491.880911 
L 425.54253 491.732134 
L 430.354362 492.376786 
L 435.166193 490.889143 
L 439.978025 490.591607 
L 444.789856 490.492428 
L 449.601688 491.13708 
L 454.413519 490.740366 
L 459.225351 489.351902 
L 464.037182 492.02967 
L 468.849014 491.434617 
L 473.660846 489.897375 
L 478.472677 491.236259 
L 483.284509 491.880911 
L 488.09634 492.922259 
L 492.908172 490.442848 
L 497.720003 489.699018 
L 502.531835 488.756848 
L 507.343666 488.756848 
L 512.155498 491.732134 
L 516.96733 491.037902 
L 521.779161 490.046134 
L 526.590993 491.434617 
L 531.402824 493.219776 
L 536.214656 494.013187 
L 541.026487 493.864428 
L 545.838319 492.773482 
L 550.65015 492.277607 
L 555.461982 490.046134 
L 560.273814 490.938723 
L 565.085645 491.682554 
L 569.897477 493.269375 
L 574.709308 492.674322 
L 579.52114 493.269375 
L 584.332971 492.624723 
L 589.144803 491.732134 
L 593.956634 491.533776 
L 598.768466 491.583375 
L 603.580297 493.269375 
L 608.392129 491.632955 
L 613.203961 491.583375 
L 618.015792 493.120617 
L 622.827624 492.475964 
L 627.639455 490.046134 
L 632.451287 492.426366 
L 637.263118 492.327187 
L 642.07495 493.418134 
L 646.886781 494.112366 
L 651.698613 493.566892 
L 656.510445 493.269375 
L 661.322276 494.161965 
L 666.134108 492.624723 
L 670.945939 492.922259 
L 675.757771 493.76525 
L 680.569602 492.178428 
" clip-path="url(#pab2455a01e)" style="fill: none; stroke: #9467bd; stroke-width: 1.5; stroke-linecap: square"/>
   </g>
   <g id="patch_3">
    <path d="M 79.33125 590.660625 
L 79.33125 243.543125 
" style="fill: none; stroke: #000000; stroke-width: 0.8; stroke-linejoin: miter; stroke-linecap: square"/>
   </g>
   <g id="patch_4">
    <path d="M 709.2 590.660625 
L 709.2 243.543125 
" style="fill: none; stroke: #000000; stroke-width: 0.8; stroke-linejoin: miter; stroke-linecap: square"/>
   </g>
   <g id="patch_5">
    <path d="M 79.33125 590.660625 
L 709.2 590.660625 
" style="fill: none; stroke: #000000; stroke-width: 0.8; stroke-linejoin: miter; stroke-linecap: square"/>
   </g>
   <g id="patch_6">
    <path d="M 79.33125 243.543125 
L 709.2 243.543125 
" style="fill: none; stroke: #000000; stroke-width: 0.8; stroke-linejoin: miter; stroke-linecap: square"/>
   </g>
   <g id="text_18">
    <!-- Train -->
    <g transform="translate(370.278125 237.543125)scale(0.2 -0.2)">
     <defs>
      <path id="DejaVuSans-54" d="M -19 4666 
L 3928 4666 
L 3928 4134 
L 2272 4134 
L 2272 0 
L 1638 0 
L 1638 4134 
L -19 4134 
L -19 4666 
z
" transform="scale(0.015625)"/>
      <path id="DejaVuSans-69" d="M 603 3500 
L 1178 3500 
L 1178 0 
L 603 0 
L 603 3500 
z
M 603 4863 
L 1178 4863 
L 1178 4134 
L 603 4134 
L 603 4863 
z
" transform="scale(0.015625)"/>
      <path id="DejaVuSans-6e" d="M 3513 2113 
L 3513 0 
L 2938 0 
L 2938 2094 
Q 2938 2591 2744 2837 
Q 2550 3084 2163 3084 
Q 1697 3084 1428 2787 
Q 1159 2491 1159 1978 
L 1159 0 
L 581 0 
L 581 3500 
L 1159 3500 
L 1159 2956 
Q 1366 3272 1645 3428 
Q 1925 3584 2291 3584 
Q 2894 3584 3203 3211 
Q 3513 2838 3513 2113 
z
" transform="scale(0.015625)"/>
     </defs>
     <use xlink:href="#DejaVuSans-54"/>
     <use xlink:href="#DejaVuSans-72" x="46.333984"/>
     <use xlink:href="#DejaVuSans-61" x="87.447266"/>
     <use xlink:href="#DejaVuSans-69" x="148.726562"/>
     <use xlink:href="#DejaVuSans-6e" x="176.509766"/>
    </g>
   </g>
   <g id="legend_1">
    <g id="patch_7">
     <path d="M 639.610937 324.93375 
L 702.2 324.93375 
Q 704.2 324.93375 704.2 322.93375 
L 704.2 250.543125 
Q 704.2 248.543125 702.2 248.543125 
L 639.610937 248.543125 
Q 637.610937 248.543125 637.610937 250.543125 
L 637.610937 322.93375 
Q 637.610937 324.93375 639.610937 324.93375 
z
" style="fill: #ffffff; opacity: 0.8; stroke: #cccccc; stroke-linejoin: miter"/>
    </g>
    <g id="line2d_36">
     <path d="M 641.610937 256.641562 
L 651.610937 256.641562 
L 661.610937 256.641562 
" style="fill: none; stroke: #1f77b4; stroke-width: 1.5; stroke-linecap: square"/>
    </g>
    <g id="text_19">
     <!-- task 0 -->
     <g transform="translate(669.610937 260.141562)scale(0.1 -0.1)">
      <defs>
       <path id="DejaVuSans-6b" d="M 581 4863 
L 1159 4863 
L 1159 1991 
L 2875 3500 
L 3609 3500 
L 1753 1863 
L 3688 0 
L 2938 0 
L 1159 1709 
L 1159 0 
L 581 0 
L 581 4863 
z
" transform="scale(0.015625)"/>
      </defs>
      <use xlink:href="#DejaVuSans-74"/>
      <use xlink:href="#DejaVuSans-61" x="39.208984"/>
      <use xlink:href="#DejaVuSans-73" x="100.488281"/>
      <use xlink:href="#DejaVuSans-6b" x="152.587891"/>
      <use xlink:href="#DejaVuSans-20" x="210.498047"/>
      <use xlink:href="#DejaVuSans-30" x="242.285156"/>
     </g>
    </g>
    <g id="line2d_37">
     <path d="M 641.610937 271.319687 
L 651.610937 271.319687 
L 661.610937 271.319687 
" style="fill: none; stroke: #ff7f0e; stroke-width: 1.5; stroke-linecap: square"/>
    </g>
    <g id="text_20">
     <!-- task 1 -->
     <g transform="translate(669.610937 274.819687)scale(0.1 -0.1)">
      <use xlink:href="#DejaVuSans-74"/>
      <use xlink:href="#DejaVuSans-61" x="39.208984"/>
      <use xlink:href="#DejaVuSans-73" x="100.488281"/>
      <use xlink:href="#DejaVuSans-6b" x="152.587891"/>
      <use xlink:href="#DejaVuSans-20" x="210.498047"/>
      <use xlink:href="#DejaVuSans-31" x="242.285156"/>
     </g>
    </g>
    <g id="line2d_38">
     <path d="M 641.610937 285.997813 
L 651.610937 285.997813 
L 661.610937 285.997813 
" style="fill: none; stroke: #2ca02c; stroke-width: 1.5; stroke-linecap: square"/>
    </g>
    <g id="text_21">
     <!-- task 2 -->
     <g transform="translate(669.610937 289.497813)scale(0.1 -0.1)">
      <use xlink:href="#DejaVuSans-74"/>
      <use xlink:href="#DejaVuSans-61" x="39.208984"/>
      <use xlink:href="#DejaVuSans-73" x="100.488281"/>
      <use xlink:href="#DejaVuSans-6b" x="152.587891"/>
      <use xlink:href="#DejaVuSans-20" x="210.498047"/>
      <use xlink:href="#DejaVuSans-32" x="242.285156"/>
     </g>
    </g>
    <g id="line2d_39">
     <path d="M 641.610937 300.675937 
L 651.610937 300.675937 
L 661.610937 300.675937 
" style="fill: none; stroke: #d62728; stroke-width: 1.5; stroke-linecap: square"/>
    </g>
    <g id="text_22">
     <!-- task 3 -->
     <g transform="translate(669.610937 304.175937)scale(0.1 -0.1)">
      <use xlink:href="#DejaVuSans-74"/>
      <use xlink:href="#DejaVuSans-61" x="39.208984"/>
      <use xlink:href="#DejaVuSans-73" x="100.488281"/>
      <use xlink:href="#DejaVuSans-6b" x="152.587891"/>
      <use xlink:href="#DejaVuSans-20" x="210.498047"/>
      <use xlink:href="#DejaVuSans-33" x="242.285156"/>
     </g>
    </g>
    <g id="line2d_40">
     <path d="M 641.610937 315.354062 
L 651.610937 315.354062 
L 661.610937 315.354062 
" style="fill: none; stroke: #9467bd; stroke-width: 1.5; stroke-linecap: square"/>
    </g>
    <g id="text_23">
     <!-- task 4 -->
     <g transform="translate(669.610937 318.854062)scale(0.1 -0.1)">
      <use xlink:href="#DejaVuSans-74"/>
      <use xlink:href="#DejaVuSans-61" x="39.208984"/>
      <use xlink:href="#DejaVuSans-73" x="100.488281"/>
      <use xlink:href="#DejaVuSans-6b" x="152.587891"/>
      <use xlink:href="#DejaVuSans-20" x="210.498047"/>
      <use xlink:href="#DejaVuSans-34" x="242.285156"/>
     </g>
    </g>
   </g>
  </g>
  <g id="axes_2">
   <g id="patch_8">
    <path d="M 79.33125 1019.4875 
L 709.2 1019.4875 
L 709.2 672.37 
L 79.33125 672.37 
z
" style="fill: #ffffff"/>
   </g>
   <g id="matplotlib.axis_3">
    <g id="xtick_8">
     <g id="line2d_41">
      <path d="M 107.961648 1019.4875 
L 107.961648 672.37 
" clip-path="url(#p0482ba8c1e)" style="fill: none; stroke: #b0b0b0; stroke-width: 0.8; stroke-linecap: square"/>
     </g>
     <g id="line2d_42">
      <g>
       <use xlink:href="#mea0a2962de" x="107.961648" y="1019.4875" style="stroke: #000000; stroke-width: 0.8"/>
      </g>
     </g>
     <g id="text_24">
      <!-- 0 -->
      <g transform="translate(101.599148 1041.684375)scale(0.2 -0.2)">
       <use xlink:href="#DejaVuSans-30"/>
      </g>
     </g>
    </g>
    <g id="xtick_9">
     <g id="line2d_43">
      <path d="M 204.198279 1019.4875 
L 204.198279 672.37 
" clip-path="url(#p0482ba8c1e)" style="fill: none; stroke: #b0b0b0; stroke-width: 0.8; stroke-linecap: square"/>
     </g>
     <g id="line2d_44">
      <g>
       <use xlink:href="#mea0a2962de" x="204.198279" y="1019.4875" style="stroke: #000000; stroke-width: 0.8"/>
      </g>
     </g>
     <g id="text_25">
      <!-- 20 -->
      <g transform="translate(191.473279 1041.684375)scale(0.2 -0.2)">
       <use xlink:href="#DejaVuSans-32"/>
       <use xlink:href="#DejaVuSans-30" x="63.623047"/>
      </g>
     </g>
    </g>
    <g id="xtick_10">
     <g id="line2d_45">
      <path d="M 300.43491 1019.4875 
L 300.43491 672.37 
" clip-path="url(#p0482ba8c1e)" style="fill: none; stroke: #b0b0b0; stroke-width: 0.8; stroke-linecap: square"/>
     </g>
     <g id="line2d_46">
      <g>
       <use xlink:href="#mea0a2962de" x="300.43491" y="1019.4875" style="stroke: #000000; stroke-width: 0.8"/>
      </g>
     </g>
     <g id="text_26">
      <!-- 40 -->
      <g transform="translate(287.70991 1041.684375)scale(0.2 -0.2)">
       <use xlink:href="#DejaVuSans-34"/>
       <use xlink:href="#DejaVuSans-30" x="63.623047"/>
      </g>
     </g>
    </g>
    <g id="xtick_11">
     <g id="line2d_47">
      <path d="M 396.671541 1019.4875 
L 396.671541 672.37 
" clip-path="url(#p0482ba8c1e)" style="fill: none; stroke: #b0b0b0; stroke-width: 0.8; stroke-linecap: square"/>
     </g>
     <g id="line2d_48">
      <g>
       <use xlink:href="#mea0a2962de" x="396.671541" y="1019.4875" style="stroke: #000000; stroke-width: 0.8"/>
      </g>
     </g>
     <g id="text_27">
      <!-- 60 -->
      <g transform="translate(383.946541 1041.684375)scale(0.2 -0.2)">
       <use xlink:href="#DejaVuSans-36"/>
       <use xlink:href="#DejaVuSans-30" x="63.623047"/>
      </g>
     </g>
    </g>
    <g id="xtick_12">
     <g id="line2d_49">
      <path d="M 492.908172 1019.4875 
L 492.908172 672.37 
" clip-path="url(#p0482ba8c1e)" style="fill: none; stroke: #b0b0b0; stroke-width: 0.8; stroke-linecap: square"/>
     </g>
     <g id="line2d_50">
      <g>
       <use xlink:href="#mea0a2962de" x="492.908172" y="1019.4875" style="stroke: #000000; stroke-width: 0.8"/>
      </g>
     </g>
     <g id="text_28">
      <!-- 80 -->
      <g transform="translate(480.183172 1041.684375)scale(0.2 -0.2)">
       <use xlink:href="#DejaVuSans-38"/>
       <use xlink:href="#DejaVuSans-30" x="63.623047"/>
      </g>
     </g>
    </g>
    <g id="xtick_13">
     <g id="line2d_51">
      <path d="M 589.144803 1019.4875 
L 589.144803 672.37 
" clip-path="url(#p0482ba8c1e)" style="fill: none; stroke: #b0b0b0; stroke-width: 0.8; stroke-linecap: square"/>
     </g>
     <g id="line2d_52">
      <g>
       <use xlink:href="#mea0a2962de" x="589.144803" y="1019.4875" style="stroke: #000000; stroke-width: 0.8"/>
      </g>
     </g>
     <g id="text_29">
      <!-- 100 -->
      <g transform="translate(570.057303 1041.684375)scale(0.2 -0.2)">
       <use xlink:href="#DejaVuSans-31"/>
       <use xlink:href="#DejaVuSans-30" x="63.623047"/>
       <use xlink:href="#DejaVuSans-30" x="127.246094"/>
      </g>
     </g>
    </g>
    <g id="xtick_14">
     <g id="line2d_53">
      <path d="M 685.381434 1019.4875 
L 685.381434 672.37 
" clip-path="url(#p0482ba8c1e)" style="fill: none; stroke: #b0b0b0; stroke-width: 0.8; stroke-linecap: square"/>
     </g>
     <g id="line2d_54">
      <g>
       <use xlink:href="#mea0a2962de" x="685.381434" y="1019.4875" style="stroke: #000000; stroke-width: 0.8"/>
      </g>
     </g>
     <g id="text_30">
      <!-- 120 -->
      <g transform="translate(666.293934 1041.684375)scale(0.2 -0.2)">
       <use xlink:href="#DejaVuSans-31"/>
       <use xlink:href="#DejaVuSans-32" x="63.623047"/>
       <use xlink:href="#DejaVuSans-30" x="127.246094"/>
      </g>
     </g>
    </g>
    <g id="text_31">
     <!-- step -->
     <g transform="translate(372.634375 1065.040625)scale(0.2 -0.2)">
      <use xlink:href="#DejaVuSans-73"/>
      <use xlink:href="#DejaVuSans-74" x="52.099609"/>
      <use xlink:href="#DejaVuSans-65" x="91.308594"/>
      <use xlink:href="#DejaVuSans-70" x="152.832031"/>
     </g>
    </g>
   </g>
   <g id="matplotlib.axis_4">
    <g id="ytick_9">
     <g id="line2d_55">
      <path d="M 79.33125 1019.4875 
L 709.2 1019.4875 
" clip-path="url(#p0482ba8c1e)" style="fill: none; stroke: #b0b0b0; stroke-width: 0.8; stroke-linecap: square"/>
     </g>
     <g id="line2d_56">
      <g>
       <use xlink:href="#m8e5871a5a2" x="79.33125" y="1019.4875" style="stroke: #000000; stroke-width: 0.8"/>
      </g>
     </g>
     <g id="text_32">
      <!-- 30 -->
      <g transform="translate(46.88125 1027.085938)scale(0.2 -0.2)">
       <use xlink:href="#DejaVuSans-33"/>
       <use xlink:href="#DejaVuSans-30" x="63.623047"/>
      </g>
     </g>
    </g>
    <g id="ytick_10">
     <g id="line2d_57">
      <path d="M 79.33125 969.899286 
L 709.2 969.899286 
" clip-path="url(#p0482ba8c1e)" style="fill: none; stroke: #b0b0b0; stroke-width: 0.8; stroke-linecap: square"/>
     </g>
     <g id="line2d_58">
      <g>
       <use xlink:href="#m8e5871a5a2" x="79.33125" y="969.899286" style="stroke: #000000; stroke-width: 0.8"/>
      </g>
     </g>
     <g id="text_33">
      <!-- 40 -->
      <g transform="translate(46.88125 977.497723)scale(0.2 -0.2)">
       <use xlink:href="#DejaVuSans-34"/>
       <use xlink:href="#DejaVuSans-30" x="63.623047"/>
      </g>
     </g>
    </g>
    <g id="ytick_11">
     <g id="line2d_59">
      <path d="M 79.33125 920.311071 
L 709.2 920.311071 
" clip-path="url(#p0482ba8c1e)" style="fill: none; stroke: #b0b0b0; stroke-width: 0.8; stroke-linecap: square"/>
     </g>
     <g id="line2d_60">
      <g>
       <use xlink:href="#m8e5871a5a2" x="79.33125" y="920.311071" style="stroke: #000000; stroke-width: 0.8"/>
      </g>
     </g>
     <g id="text_34">
      <!-- 50 -->
      <g transform="translate(46.88125 927.909509)scale(0.2 -0.2)">
       <use xlink:href="#DejaVuSans-35"/>
       <use xlink:href="#DejaVuSans-30" x="63.623047"/>
      </g>
     </g>
    </g>
    <g id="ytick_12">
     <g id="line2d_61">
      <path d="M 79.33125 870.722857 
L 709.2 870.722857 
" clip-path="url(#p0482ba8c1e)" style="fill: none; stroke: #b0b0b0; stroke-width: 0.8; stroke-linecap: square"/>
     </g>
     <g id="line2d_62">
      <g>
       <use xlink:href="#m8e5871a5a2" x="79.33125" y="870.722857" style="stroke: #000000; stroke-width: 0.8"/>
      </g>
     </g>
     <g id="text_35">
      <!-- 60 -->
      <g transform="translate(46.88125 878.321295)scale(0.2 -0.2)">
       <use xlink:href="#DejaVuSans-36"/>
       <use xlink:href="#DejaVuSans-30" x="63.623047"/>
      </g>
     </g>
    </g>
    <g id="ytick_13">
     <g id="line2d_63">
      <path d="M 79.33125 821.134643 
L 709.2 821.134643 
" clip-path="url(#p0482ba8c1e)" style="fill: none; stroke: #b0b0b0; stroke-width: 0.8; stroke-linecap: square"/>
     </g>
     <g id="line2d_64">
      <g>
       <use xlink:href="#m8e5871a5a2" x="79.33125" y="821.134643" style="stroke: #000000; stroke-width: 0.8"/>
      </g>
     </g>
     <g id="text_36">
      <!-- 70 -->
      <g transform="translate(46.88125 828.73308)scale(0.2 -0.2)">
       <use xlink:href="#DejaVuSans-37"/>
       <use xlink:href="#DejaVuSans-30" x="63.623047"/>
      </g>
     </g>
    </g>
    <g id="ytick_14">
     <g id="line2d_65">
      <path d="M 79.33125 771.546429 
L 709.2 771.546429 
" clip-path="url(#p0482ba8c1e)" style="fill: none; stroke: #b0b0b0; stroke-width: 0.8; stroke-linecap: square"/>
     </g>
     <g id="line2d_66">
      <g>
       <use xlink:href="#m8e5871a5a2" x="79.33125" y="771.546429" style="stroke: #000000; stroke-width: 0.8"/>
      </g>
     </g>
     <g id="text_37">
      <!-- 80 -->
      <g transform="translate(46.88125 779.144866)scale(0.2 -0.2)">
       <use xlink:href="#DejaVuSans-38"/>
       <use xlink:href="#DejaVuSans-30" x="63.623047"/>
      </g>
     </g>
    </g>
    <g id="ytick_15">
     <g id="line2d_67">
      <path d="M 79.33125 721.958214 
L 709.2 721.958214 
" clip-path="url(#p0482ba8c1e)" style="fill: none; stroke: #b0b0b0; stroke-width: 0.8; stroke-linecap: square"/>
     </g>
     <g id="line2d_68">
      <g>
       <use xlink:href="#m8e5871a5a2" x="79.33125" y="721.958214" style="stroke: #000000; stroke-width: 0.8"/>
      </g>
     </g>
     <g id="text_38">
      <!-- 90 -->
      <g transform="translate(46.88125 729.556652)scale(0.2 -0.2)">
       <use xlink:href="#DejaVuSans-39"/>
       <use xlink:href="#DejaVuSans-30" x="63.623047"/>
      </g>
     </g>
    </g>
    <g id="ytick_16">
     <g id="line2d_69">
      <path d="M 79.33125 672.37 
L 709.2 672.37 
" clip-path="url(#p0482ba8c1e)" style="fill: none; stroke: #b0b0b0; stroke-width: 0.8; stroke-linecap: square"/>
     </g>
     <g id="line2d_70">
      <g>
       <use xlink:href="#m8e5871a5a2" x="79.33125" y="672.37" style="stroke: #000000; stroke-width: 0.8"/>
      </g>
     </g>
     <g id="text_39">
      <!-- 100 -->
      <g transform="translate(34.15625 679.968437)scale(0.2 -0.2)">
       <use xlink:href="#DejaVuSans-31"/>
       <use xlink:href="#DejaVuSans-30" x="63.623047"/>
       <use xlink:href="#DejaVuSans-30" x="127.246094"/>
      </g>
     </g>
    </g>
    <g id="text_40">
     <!-- accuracy [%] -->
     <g transform="translate(25.996875 911.530312)rotate(-90)scale(0.2 -0.2)">
      <use xlink:href="#DejaVuSans-61"/>
      <use xlink:href="#DejaVuSans-63" x="61.279297"/>
      <use xlink:href="#DejaVuSans-63" x="116.259766"/>
      <use xlink:href="#DejaVuSans-75" x="171.240234"/>
      <use xlink:href="#DejaVuSans-72" x="234.619141"/>
      <use xlink:href="#DejaVuSans-61" x="275.732422"/>
      <use xlink:href="#DejaVuSans-63" x="337.011719"/>
      <use xlink:href="#DejaVuSans-79" x="391.992188"/>
      <use xlink:href="#DejaVuSans-20" x="451.171875"/>
      <use xlink:href="#DejaVuSans-5b" x="482.958984"/>
      <use xlink:href="#DejaVuSans-25" x="521.972656"/>
      <use xlink:href="#DejaVuSans-5d" x="616.992188"/>
     </g>
    </g>
   </g>
   <g id="line2d_71">
    <path d="M 107.961648 919.319303 
L 112.773479 911.137259 
L 117.585311 891.549911 
L 122.397142 880.392563 
L 127.208974 871.466688 
L 132.020805 860.557277 
L 136.832637 857.829929 
L 141.644469 852.871108 
L 146.4563 858.325804 
L 151.268132 849.39991 
L 156.079963 842.953465 
L 160.891795 838.490518 
L 165.703626 835.267276 
L 170.515458 832.787866 
L 175.327289 834.771402 
L 180.139121 827.581126 
L 184.950953 825.349634 
L 189.762784 826.093464 
L 194.574616 824.853759 
L 199.386447 827.33317 
L 204.198279 828.324919 
L 209.01011 819.399063 
L 213.821942 817.911401 
L 218.633773 817.415527 
L 223.445605 816.919652 
L 228.257436 815.679947 
L 233.069268 810.969044 
L 237.8811 811.960831 
L 242.692931 813.696411 
L 247.504763 813.200536 
L 252.316594 808.737589 
L 257.128426 814.440241 
L 261.940257 813.944367 
L 266.752089 810.721125 
L 271.56392 807.497884 
L 276.375752 808.737589 
L 281.187584 807.74584 
L 285.999415 810.473169 
L 290.811247 806.010222 
L 295.623078 804.274642 
L 300.43491 803.282893 
L 305.246741 808.985545 
L 310.058573 814.192285 
L 314.870404 819.894937 
L 319.682236 819.894937 
L 324.494068 822.126392 
L 329.305899 818.407276 
L 334.117731 824.109928 
L 338.929562 824.605803 
L 343.741394 821.878474 
L 348.553225 822.126392 
L 353.365057 823.614054 
L 358.176888 816.919652 
L 362.98872 822.126392 
L 367.800551 822.374348 
L 372.612383 825.349634 
L 377.424215 830.308455 
L 382.236046 831.300242 
L 387.047878 822.622304 
L 391.859709 825.845508 
L 396.671541 819.399063 
L 401.483372 818.655232 
L 406.295204 819.646981 
L 411.107035 823.86201 
L 415.918867 819.894937 
L 420.730699 823.86201 
L 425.54253 822.374348 
L 430.354362 822.622304 
L 435.166193 820.142894 
L 439.978025 823.86201 
L 444.789856 824.357884 
L 449.601688 822.374348 
L 454.413519 814.440241 
L 459.225351 819.894937 
L 464.037182 819.646981 
L 468.849014 818.407276 
L 473.660846 816.175821 
L 478.472677 820.638768 
L 483.284509 825.101715 
L 488.09634 823.614054 
L 492.908172 829.316706 
L 497.720003 823.614054 
L 502.531835 820.142894 
L 507.343666 817.415527 
L 512.155498 819.399063 
L 516.96733 818.407276 
L 521.779161 815.431991 
L 526.590993 815.679947 
L 531.402824 819.646981 
L 536.214656 817.911401 
L 541.026487 820.886687 
L 545.838319 818.655232 
L 550.65015 814.936116 
L 555.461982 821.382599 
L 560.273814 823.118179 
L 565.085645 822.622304 
L 569.897477 826.093464 
L 574.709308 821.382599 
L 579.52114 824.357884 
L 584.332971 825.101715 
L 589.144803 821.382599 
L 593.956634 818.903188 
L 598.768466 819.399063 
L 603.580297 823.86201 
L 608.392129 823.366097 
L 613.203961 824.109928 
L 618.015792 825.59759 
L 622.827624 825.101715 
L 627.639455 826.093464 
L 632.451287 823.118179 
L 637.263118 821.630517 
L 642.07495 822.374348 
L 646.886781 822.374348 
L 651.698613 821.134643 
L 656.510445 822.126392 
L 661.322276 821.630517 
L 666.134108 826.589339 
L 670.945939 830.060537 
L 675.757771 822.622304 
L 680.569602 824.605803 
" clip-path="url(#p0482ba8c1e)" style="fill: none; stroke: #1f77b4; stroke-width: 1.5; stroke-linecap: square"/>
   </g>
   <g id="line2d_72">
    <path d="M 107.961648 922.046651 
L 112.773479 924.278125 
L 117.585311 929.73284 
L 122.397142 927.501366 
L 127.208974 925.269893 
L 132.020805 929.980777 
L 136.832637 920.559009 
L 141.644469 914.360482 
L 146.4563 919.319303 
L 151.268132 921.550777 
L 156.079963 926.013724 
L 160.891795 922.542545 
L 165.703626 922.542545 
L 170.515458 932.708125 
L 175.327289 926.757536 
L 180.139121 924.030188 
L 184.950953 924.278125 
L 189.762784 927.749304 
L 194.574616 927.997241 
L 199.386447 919.815197 
L 204.198279 925.021956 
L 209.01011 925.51783 
L 213.821942 932.460188 
L 218.633773 926.509598 
L 223.445605 929.236946 
L 228.257436 926.261661 
L 233.069268 927.501366 
L 237.8811 931.220482 
L 242.692931 927.749304 
L 247.504763 925.51783 
L 252.316594 927.997241 
L 257.128426 925.269893 
L 261.940257 930.228714 
L 266.752089 927.749304 
L 271.56392 925.269893 
L 276.375752 921.302839 
L 281.187584 925.765767 
L 285.999415 928.989009 
L 290.811247 925.021956 
L 295.623078 925.269893 
L 300.43491 919.319303 
L 305.246741 911.137259 
L 310.058573 886.839027 
L 314.870404 868.739321 
L 319.682236 861.796982 
L 324.494068 851.631402 
L 329.305899 851.383446 
L 334.117731 840.474054 
L 338.929562 838.986392 
L 343.741394 836.011107 
L 348.553225 832.291991 
L 353.365057 829.316706 
L 358.176888 823.366097 
L 362.98872 822.622304 
L 367.800551 824.853759 
L 372.612383 820.390812 
L 377.424215 816.919652 
L 382.236046 819.646981 
L 387.047878 817.911401 
L 391.859709 809.977295 
L 396.671541 808.985545 
L 401.483372 808.241715 
L 406.295204 810.225251 
L 411.107035 804.274642 
L 415.918867 801.547313 
L 420.730699 800.307608 
L 425.54253 802.787019 
L 430.354362 801.051401 
L 435.166193 796.588492 
L 439.978025 800.059652 
L 444.789856 798.819946 
L 449.601688 797.084366 
L 454.413519 794.604956 
L 459.225351 794.604956 
L 464.037182 798.819946 
L 468.849014 797.084366 
L 473.660846 791.133758 
L 478.472677 792.373463 
L 483.284509 793.117294 
L 488.09634 788.654347 
L 492.908172 783.447608 
L 497.720003 789.15026 
L 502.531835 789.15026 
L 507.343666 790.637884 
L 512.155498 796.09258 
L 516.96733 797.580241 
L 521.779161 791.381714 
L 526.590993 793.613169 
L 531.402824 789.398178 
L 536.214656 795.596705 
L 541.026487 797.828197 
L 545.838319 800.307608 
L 550.65015 798.076116 
L 555.461982 796.340536 
L 560.273814 796.340536 
L 565.085645 797.332285 
L 569.897477 796.83641 
L 574.709308 798.076116 
L 579.52114 803.530812 
L 584.332971 804.026724 
L 589.144803 798.57199 
L 593.956634 796.588492 
L 598.768466 796.340536 
L 603.580297 798.324072 
L 608.392129 802.043188 
L 613.203961 801.547313 
L 618.015792 797.828197 
L 622.827624 798.324072 
L 627.639455 795.844661 
L 632.451287 802.043188 
L 637.263118 796.83641 
L 642.07495 801.299357 
L 646.886781 801.299357 
L 651.698613 799.067903 
L 656.510445 800.803483 
L 661.322276 800.555526 
L 666.134108 801.547313 
L 670.945939 804.274642 
L 675.757771 801.299357 
L 680.569602 802.291106 
" clip-path="url(#p0482ba8c1e)" style="fill: none; stroke: #ff7f0e; stroke-width: 1.5; stroke-linecap: square"/>
   </g>
   <g id="line2d_73">
    <path d="M 107.961648 893.533428 
L 112.773479 919.319303 
L 117.585311 918.823429 
L 122.397142 914.112545 
L 127.208974 906.92225 
L 132.020805 908.657849 
L 136.832637 905.18667 
L 141.644469 903.699027 
L 146.4563 906.92225 
L 151.268132 908.409892 
L 156.079963 906.426375 
L 160.891795 905.930482 
L 165.703626 903.699027 
L 170.515458 906.426375 
L 175.327289 904.690776 
L 180.139121 905.930482 
L 184.950953 906.674313 
L 189.762784 907.418143 
L 194.574616 907.914018 
L 199.386447 906.426375 
L 204.198279 904.690776 
L 209.01011 906.178438 
L 213.821942 902.955196 
L 218.633773 903.451071 
L 223.445605 902.707259 
L 228.257436 904.690776 
L 233.069268 904.194902 
L 237.8811 902.707259 
L 242.692931 905.930482 
L 247.504763 905.434607 
L 252.316594 909.897554 
L 257.128426 903.946964 
L 261.940257 905.18667 
L 266.752089 904.442839 
L 271.56392 906.674313 
L 276.375752 906.426375 
L 281.187584 902.459322 
L 285.999415 908.657849 
L 290.811247 908.161955 
L 295.623078 908.905786 
L 300.43491 906.426375 
L 305.246741 908.161955 
L 310.058573 907.914018 
L 314.870404 909.153723 
L 319.682236 905.930482 
L 324.494068 906.178438 
L 329.305899 907.418143 
L 334.117731 905.682544 
L 338.929562 903.699027 
L 343.741394 904.690776 
L 348.553225 908.657849 
L 353.365057 910.145491 
L 358.176888 908.905786 
L 362.98872 903.946964 
L 367.800551 904.938733 
L 372.612383 906.426375 
L 377.424215 908.161955 
L 382.236046 900.475786 
L 387.047878 904.194902 
L 391.859709 906.674313 
L 396.671541 907.418143 
L 401.483372 905.930482 
L 406.295204 906.92225 
L 411.107035 909.153723 
L 415.918867 906.92225 
L 420.730699 908.657849 
L 425.54253 908.409892 
L 430.354362 909.649598 
L 435.166193 906.426375 
L 439.978025 909.153723 
L 444.789856 906.92225 
L 449.601688 909.897554 
L 454.413519 909.897554 
L 459.225351 909.649598 
L 464.037182 908.409892 
L 468.849014 908.409892 
L 473.660846 910.889303 
L 478.472677 908.161955 
L 483.284509 908.905786 
L 488.09634 910.889303 
L 492.908172 902.459322 
L 497.720003 852.375214 
L 502.531835 837.994643 
L 507.343666 829.06875 
L 512.155498 827.581126 
L 516.96733 824.357884 
L 521.779161 824.357884 
L 526.590993 817.167571 
L 531.402824 823.366097 
L 536.214656 815.431991 
L 541.026487 807.497884 
L 545.838319 807.497884 
L 550.65015 804.770517 
L 555.461982 804.026724 
L 560.273814 804.026724 
L 565.085645 803.530812 
L 569.897477 805.514348 
L 574.709308 804.522599 
L 579.52114 799.067903 
L 584.332971 801.299357 
L 589.144803 804.770517 
L 593.956634 803.282893 
L 598.768466 797.828197 
L 603.580297 799.315821 
L 608.392129 796.588492 
L 613.203961 797.580241 
L 618.015792 793.613169 
L 622.827624 798.324072 
L 627.639455 794.852874 
L 632.451287 792.869376 
L 637.263118 796.340536 
L 642.07495 795.596705 
L 646.886781 791.133758 
L 651.698613 790.637884 
L 656.510445 790.637884 
L 661.322276 791.133758 
L 666.134108 788.158473 
L 670.945939 790.637884 
L 675.757771 788.654347 
L 680.569602 790.88584 
" clip-path="url(#p0482ba8c1e)" style="fill: none; stroke: #2ca02c; stroke-width: 1.5; stroke-linecap: square"/>
   </g>
   <g id="line2d_74">
    <path d="M 107.961648 920.311071 
L 112.773479 894.773134 
L 117.585311 906.92225 
L 122.397142 911.385197 
L 127.208974 907.170187 
L 132.020805 913.120777 
L 136.832637 915.600187 
L 141.644469 913.368714 
L 146.4563 909.401661 
L 151.268132 909.401661 
L 156.079963 909.401661 
L 160.891795 906.92225 
L 165.703626 908.161955 
L 170.515458 914.856375 
L 175.327289 910.889303 
L 180.139121 905.434607 
L 184.950953 909.897554 
L 189.762784 910.889303 
L 194.574616 908.657849 
L 199.386447 914.608419 
L 204.198279 910.641366 
L 209.01011 903.203134 
L 213.821942 912.129009 
L 218.633773 912.376965 
L 223.445605 909.897554 
L 228.257436 913.368714 
L 233.069268 910.145491 
L 237.8811 911.385197 
L 242.692931 916.839893 
L 247.504763 915.848125 
L 252.316594 905.18667 
L 257.128426 909.897554 
L 261.940257 915.104313 
L 266.752089 907.418143 
L 271.56392 909.649598 
L 276.375752 910.145491 
L 281.187584 908.905786 
L 285.999415 908.161955 
L 290.811247 904.690776 
L 295.623078 909.153723 
L 300.43491 920.806946 
L 305.246741 917.831661 
L 310.058573 918.575491 
L 314.870404 925.765767 
L 319.682236 931.964294 
L 324.494068 926.013724 
L 329.305899 929.980777 
L 334.117731 929.236946 
L 338.929562 925.765767 
L 343.741394 927.997241 
L 348.553225 926.757536 
L 353.365057 931.220482 
L 358.176888 931.220482 
L 362.98872 926.261661 
L 367.800551 933.699893 
L 372.612383 933.451956 
L 377.424215 930.724589 
L 382.236046 932.460188 
L 387.047878 931.220482 
L 391.859709 930.228714 
L 396.671541 931.220482 
L 401.483372 930.724589 
L 406.295204 934.939598 
L 411.107035 933.204 
L 415.918867 928.245178 
L 420.730699 931.964294 
L 425.54253 926.013724 
L 430.354362 928.741072 
L 435.166193 929.980777 
L 439.978025 932.21225 
L 444.789856 929.980777 
L 449.601688 930.972545 
L 454.413519 927.005473 
L 459.225351 928.989009 
L 464.037182 932.460188 
L 468.849014 936.427241 
L 473.660846 934.443705 
L 478.472677 935.435473 
L 483.284509 934.939598 
L 488.09634 928.245178 
L 492.908172 927.253429 
L 497.720003 928.741072 
L 502.531835 925.765767 
L 507.343666 924.030188 
L 512.155498 927.253429 
L 516.96733 927.253429 
L 521.779161 925.765767 
L 526.590993 926.509598 
L 531.402824 926.013724 
L 536.214656 930.228714 
L 541.026487 930.724589 
L 545.838319 923.038419 
L 550.65015 925.765767 
L 555.461982 927.253429 
L 560.273814 922.542545 
L 565.085645 926.757536 
L 569.897477 930.228714 
L 574.709308 927.997241 
L 579.52114 929.73284 
L 584.332971 927.749304 
L 589.144803 929.980777 
L 593.956634 930.724589 
L 598.768466 926.757536 
L 603.580297 924.278125 
L 608.392129 919.815197 
L 613.203961 926.509598 
L 618.015792 928.493134 
L 622.827624 931.220482 
L 627.639455 930.476652 
L 632.451287 930.476652 
L 637.263118 926.509598 
L 642.07495 927.749304 
L 646.886781 926.261661 
L 651.698613 926.509598 
L 656.510445 925.269893 
L 661.322276 921.798714 
L 666.134108 919.319303 
L 670.945939 927.005473 
L 675.757771 926.013724 
L 680.569602 922.790482 
" clip-path="url(#p0482ba8c1e)" style="fill: none; stroke: #d62728; stroke-width: 1.5; stroke-linecap: square"/>
   </g>
   <g id="line2d_75">
    <path d="M 107.961648 943.865473 
L 112.773479 919.071366 
L 117.585311 919.567241 
L 122.397142 922.542545 
L 127.208974 919.071366 
L 132.020805 915.848125 
L 136.832637 920.559009 
L 141.644469 925.021956 
L 146.4563 925.765767 
L 151.268132 922.046651 
L 156.079963 923.038419 
L 160.891795 918.327535 
L 165.703626 922.294608 
L 170.515458 925.765767 
L 175.327289 923.038419 
L 180.139121 918.823429 
L 184.950953 919.071366 
L 189.762784 920.806946 
L 194.574616 923.286357 
L 199.386447 922.294608 
L 204.198279 918.327535 
L 209.01011 918.079598 
L 213.821942 919.071366 
L 218.633773 918.823429 
L 223.445605 920.806946 
L 228.257436 918.823429 
L 233.069268 920.806946 
L 237.8811 920.559009 
L 242.692931 922.294608 
L 247.504763 921.550777 
L 252.316594 922.046651 
L 257.128426 926.757536 
L 261.940257 921.550777 
L 266.752089 920.063134 
L 271.56392 923.534313 
L 276.375752 921.302839 
L 281.187584 920.311071 
L 285.999415 923.038419 
L 290.811247 920.806946 
L 295.623078 922.790482 
L 300.43491 926.509598 
L 305.246741 920.063134 
L 310.058573 917.831661 
L 314.870404 922.294608 
L 319.682236 919.815197 
L 324.494068 924.526062 
L 329.305899 921.798714 
L 334.117731 918.079598 
L 338.929562 916.344018 
L 343.741394 914.608419 
L 348.553225 920.806946 
L 353.365057 915.104313 
L 358.176888 917.08783 
L 362.98872 927.749304 
L 367.800551 924.030188 
L 372.612383 921.798714 
L 377.424215 919.815197 
L 382.236046 919.071366 
L 387.047878 924.278125 
L 391.859709 925.021956 
L 396.671541 926.013724 
L 401.483372 921.054902 
L 406.295204 922.046651 
L 411.107035 924.526062 
L 415.918867 921.054902 
L 420.730699 921.550777 
L 425.54253 923.286357 
L 430.354362 923.286357 
L 435.166193 919.319303 
L 439.978025 922.294608 
L 444.789856 925.765767 
L 449.601688 925.021956 
L 454.413519 921.550777 
L 459.225351 919.567241 
L 464.037182 917.335786 
L 468.849014 917.831661 
L 473.660846 918.327535 
L 478.472677 916.839893 
L 483.284509 920.063134 
L 488.09634 917.831661 
L 492.908172 915.848125 
L 497.720003 916.839893 
L 502.531835 917.583723 
L 507.343666 920.806946 
L 512.155498 921.550777 
L 516.96733 918.575491 
L 521.779161 916.591955 
L 526.590993 919.815197 
L 531.402824 921.054902 
L 536.214656 922.046651 
L 541.026487 922.542545 
L 545.838319 922.294608 
L 550.65015 925.269893 
L 555.461982 917.831661 
L 560.273814 921.302839 
L 565.085645 922.790482 
L 569.897477 918.823429 
L 574.709308 921.798714 
L 579.52114 918.823429 
L 584.332971 919.071366 
L 589.144803 922.294608 
L 593.956634 922.294608 
L 598.768466 922.294608 
L 603.580297 925.765767 
L 608.392129 926.261661 
L 613.203961 924.526062 
L 618.015792 924.774018 
L 622.827624 922.790482 
L 627.639455 922.790482 
L 632.451287 920.311071 
L 637.263118 923.286357 
L 642.07495 920.806946 
L 646.886781 923.286357 
L 651.698613 923.038419 
L 656.510445 922.046651 
L 661.322276 923.534313 
L 666.134108 924.774018 
L 670.945939 920.806946 
L 675.757771 922.790482 
L 680.569602 922.046651 
" clip-path="url(#p0482ba8c1e)" style="fill: none; stroke: #9467bd; stroke-width: 1.5; stroke-linecap: square"/>
   </g>
   <g id="patch_9">
    <path d="M 79.33125 1019.4875 
L 79.33125 672.37 
" style="fill: none; stroke: #000000; stroke-width: 0.8; stroke-linejoin: miter; stroke-linecap: square"/>
   </g>
   <g id="patch_10">
    <path d="M 709.2 1019.4875 
L 709.2 672.37 
" style="fill: none; stroke: #000000; stroke-width: 0.8; stroke-linejoin: miter; stroke-linecap: square"/>
   </g>
   <g id="patch_11">
    <path d="M 79.33125 1019.4875 
L 709.2 1019.4875 
" style="fill: none; stroke: #000000; stroke-width: 0.8; stroke-linejoin: miter; stroke-linecap: square"/>
   </g>
   <g id="patch_12">
    <path d="M 79.33125 672.37 
L 709.2 672.37 
" style="fill: none; stroke: #000000; stroke-width: 0.8; stroke-linejoin: miter; stroke-linecap: square"/>
   </g>
   <g id="text_41">
    <!-- Test -->
    <g transform="translate(374.575 666.37)scale(0.2 -0.2)">
     <use xlink:href="#DejaVuSans-54"/>
     <use xlink:href="#DejaVuSans-65" x="44.083984"/>
     <use xlink:href="#DejaVuSans-73" x="105.607422"/>
     <use xlink:href="#DejaVuSans-74" x="157.707031"/>
    </g>
   </g>
   <g id="legend_2">
    <g id="patch_13">
     <path d="M 639.610937 753.760625 
L 702.2 753.760625 
Q 704.2 753.760625 704.2 751.760625 
L 704.2 679.37 
Q 704.2 677.37 702.2 677.37 
L 639.610937 677.37 
Q 637.610937 677.37 637.610937 679.37 
L 637.610937 751.760625 
Q 637.610937 753.760625 639.610937 753.760625 
z
" style="fill: #ffffff; opacity: 0.8; stroke: #cccccc; stroke-linejoin: miter"/>
    </g>
    <g id="line2d_76">
     <path d="M 641.610937 685.468437 
L 651.610937 685.468437 
L 661.610937 685.468437 
" style="fill: none; stroke: #1f77b4; stroke-width: 1.5; stroke-linecap: square"/>
    </g>
    <g id="text_42">
     <!-- task 0 -->
     <g transform="translate(669.610937 688.968437)scale(0.1 -0.1)">
      <use xlink:href="#DejaVuSans-74"/>
      <use xlink:href="#DejaVuSans-61" x="39.208984"/>
      <use xlink:href="#DejaVuSans-73" x="100.488281"/>
      <use xlink:href="#DejaVuSans-6b" x="152.587891"/>
      <use xlink:href="#DejaVuSans-20" x="210.498047"/>
      <use xlink:href="#DejaVuSans-30" x="242.285156"/>
     </g>
    </g>
    <g id="line2d_77">
     <path d="M 641.610937 700.146562 
L 651.610937 700.146562 
L 661.610937 700.146562 
" style="fill: none; stroke: #ff7f0e; stroke-width: 1.5; stroke-linecap: square"/>
    </g>
    <g id="text_43">
     <!-- task 1 -->
     <g transform="translate(669.610937 703.646562)scale(0.1 -0.1)">
      <use xlink:href="#DejaVuSans-74"/>
      <use xlink:href="#DejaVuSans-61" x="39.208984"/>
      <use xlink:href="#DejaVuSans-73" x="100.488281"/>
      <use xlink:href="#DejaVuSans-6b" x="152.587891"/>
      <use xlink:href="#DejaVuSans-20" x="210.498047"/>
      <use xlink:href="#DejaVuSans-31" x="242.285156"/>
     </g>
    </g>
    <g id="line2d_78">
     <path d="M 641.610937 714.824687 
L 651.610937 714.824687 
L 661.610937 714.824687 
" style="fill: none; stroke: #2ca02c; stroke-width: 1.5; stroke-linecap: square"/>
    </g>
    <g id="text_44">
     <!-- task 2 -->
     <g transform="translate(669.610937 718.324687)scale(0.1 -0.1)">
      <use xlink:href="#DejaVuSans-74"/>
      <use xlink:href="#DejaVuSans-61" x="39.208984"/>
      <use xlink:href="#DejaVuSans-73" x="100.488281"/>
      <use xlink:href="#DejaVuSans-6b" x="152.587891"/>
      <use xlink:href="#DejaVuSans-20" x="210.498047"/>
      <use xlink:href="#DejaVuSans-32" x="242.285156"/>
     </g>
    </g>
    <g id="line2d_79">
     <path d="M 641.610937 729.502812 
L 651.610937 729.502812 
L 661.610937 729.502812 
" style="fill: none; stroke: #d62728; stroke-width: 1.5; stroke-linecap: square"/>
    </g>
    <g id="text_45">
     <!-- task 3 -->
     <g transform="translate(669.610937 733.002812)scale(0.1 -0.1)">
      <use xlink:href="#DejaVuSans-74"/>
      <use xlink:href="#DejaVuSans-61" x="39.208984"/>
      <use xlink:href="#DejaVuSans-73" x="100.488281"/>
      <use xlink:href="#DejaVuSans-6b" x="152.587891"/>
      <use xlink:href="#DejaVuSans-20" x="210.498047"/>
      <use xlink:href="#DejaVuSans-33" x="242.285156"/>
     </g>
    </g>
    <g id="line2d_80">
     <path d="M 641.610937 744.180937 
L 651.610937 744.180937 
L 661.610937 744.180937 
" style="fill: none; stroke: #9467bd; stroke-width: 1.5; stroke-linecap: square"/>
    </g>
    <g id="text_46">
     <!-- task 4 -->
     <g transform="translate(669.610937 747.680937)scale(0.1 -0.1)">
      <use xlink:href="#DejaVuSans-74"/>
      <use xlink:href="#DejaVuSans-61" x="39.208984"/>
      <use xlink:href="#DejaVuSans-73" x="100.488281"/>
      <use xlink:href="#DejaVuSans-6b" x="152.587891"/>
      <use xlink:href="#DejaVuSans-20" x="210.498047"/>
      <use xlink:href="#DejaVuSans-34" x="242.285156"/>
     </g>
    </g>
   </g>
  </g>
  <g id="text_47">
   <!-- architecture: ResNet18 -->
   <g transform="translate(244.815625 15.196875)scale(0.2 -0.2)">
    <defs>
     <path id="DejaVuSans-68" d="M 3513 2113 
L 3513 0 
L 2938 0 
L 2938 2094 
Q 2938 2591 2744 2837 
Q 2550 3084 2163 3084 
Q 1697 3084 1428 2787 
Q 1159 2491 1159 1978 
L 1159 0 
L 581 0 
L 581 4863 
L 1159 4863 
L 1159 2956 
Q 1366 3272 1645 3428 
Q 1925 3584 2291 3584 
Q 2894 3584 3203 3211 
Q 3513 2838 3513 2113 
z
" transform="scale(0.015625)"/>
     <path id="DejaVuSans-3a" d="M 750 794 
L 1409 794 
L 1409 0 
L 750 0 
L 750 794 
z
M 750 3309 
L 1409 3309 
L 1409 2516 
L 750 2516 
L 750 3309 
z
" transform="scale(0.015625)"/>
     <path id="DejaVuSans-52" d="M 2841 2188 
Q 3044 2119 3236 1894 
Q 3428 1669 3622 1275 
L 4263 0 
L 3584 0 
L 2988 1197 
Q 2756 1666 2539 1819 
Q 2322 1972 1947 1972 
L 1259 1972 
L 1259 0 
L 628 0 
L 628 4666 
L 2053 4666 
Q 2853 4666 3247 4331 
Q 3641 3997 3641 3322 
Q 3641 2881 3436 2590 
Q 3231 2300 2841 2188 
z
M 1259 4147 
L 1259 2491 
L 2053 2491 
Q 2509 2491 2742 2702 
Q 2975 2913 2975 3322 
Q 2975 3731 2742 3939 
Q 2509 4147 2053 4147 
L 1259 4147 
z
" transform="scale(0.015625)"/>
     <path id="DejaVuSans-4e" d="M 628 4666 
L 1478 4666 
L 3547 763 
L 3547 4666 
L 4159 4666 
L 4159 0 
L 3309 0 
L 1241 3903 
L 1241 0 
L 628 0 
L 628 4666 
z
" transform="scale(0.015625)"/>
    </defs>
    <use xlink:href="#DejaVuSans-61"/>
    <use xlink:href="#DejaVuSans-72" x="61.279297"/>
    <use xlink:href="#DejaVuSans-63" x="100.142578"/>
    <use xlink:href="#DejaVuSans-68" x="155.123047"/>
    <use xlink:href="#DejaVuSans-69" x="218.501953"/>
    <use xlink:href="#DejaVuSans-74" x="246.285156"/>
    <use xlink:href="#DejaVuSans-65" x="285.494141"/>
    <use xlink:href="#DejaVuSans-63" x="347.017578"/>
    <use xlink:href="#DejaVuSans-74" x="401.998047"/>
    <use xlink:href="#DejaVuSans-75" x="441.207031"/>
    <use xlink:href="#DejaVuSans-72" x="504.585938"/>
    <use xlink:href="#DejaVuSans-65" x="543.449219"/>
    <use xlink:href="#DejaVuSans-3a" x="604.972656"/>
    <use xlink:href="#DejaVuSans-20" x="638.664062"/>
    <use xlink:href="#DejaVuSans-52" x="670.451172"/>
    <use xlink:href="#DejaVuSans-65" x="735.433594"/>
    <use xlink:href="#DejaVuSans-73" x="796.957031"/>
    <use xlink:href="#DejaVuSans-4e" x="849.056641"/>
    <use xlink:href="#DejaVuSans-65" x="923.861328"/>
    <use xlink:href="#DejaVuSans-74" x="985.384766"/>
    <use xlink:href="#DejaVuSans-31" x="1024.59375"/>
    <use xlink:href="#DejaVuSans-38" x="1088.216797"/>
   </g>
   <!-- dataset: CIFAR10 -->
   <g transform="translate(274.359375 37.5925)scale(0.2 -0.2)">
    <defs>
     <path id="DejaVuSans-64" d="M 2906 2969 
L 2906 4863 
L 3481 4863 
L 3481 0 
L 2906 0 
L 2906 525 
Q 2725 213 2448 61 
Q 2172 -91 1784 -91 
Q 1150 -91 751 415 
Q 353 922 353 1747 
Q 353 2572 751 3078 
Q 1150 3584 1784 3584 
Q 2172 3584 2448 3432 
Q 2725 3281 2906 2969 
z
M 947 1747 
Q 947 1113 1208 752 
Q 1469 391 1925 391 
Q 2381 391 2643 752 
Q 2906 1113 2906 1747 
Q 2906 2381 2643 2742 
Q 2381 3103 1925 3103 
Q 1469 3103 1208 2742 
Q 947 2381 947 1747 
z
" transform="scale(0.015625)"/>
     <path id="DejaVuSans-43" d="M 4122 4306 
L 4122 3641 
Q 3803 3938 3442 4084 
Q 3081 4231 2675 4231 
Q 1875 4231 1450 3742 
Q 1025 3253 1025 2328 
Q 1025 1406 1450 917 
Q 1875 428 2675 428 
Q 3081 428 3442 575 
Q 3803 722 4122 1019 
L 4122 359 
Q 3791 134 3420 21 
Q 3050 -91 2638 -91 
Q 1578 -91 968 557 
Q 359 1206 359 2328 
Q 359 3453 968 4101 
Q 1578 4750 2638 4750 
Q 3056 4750 3426 4639 
Q 3797 4528 4122 4306 
z
" transform="scale(0.015625)"/>
     <path id="DejaVuSans-49" d="M 628 4666 
L 1259 4666 
L 1259 0 
L 628 0 
L 628 4666 
z
" transform="scale(0.015625)"/>
     <path id="DejaVuSans-46" d="M 628 4666 
L 3309 4666 
L 3309 4134 
L 1259 4134 
L 1259 2759 
L 3109 2759 
L 3109 2228 
L 1259 2228 
L 1259 0 
L 628 0 
L 628 4666 
z
" transform="scale(0.015625)"/>
     <path id="DejaVuSans-41" d="M 2188 4044 
L 1331 1722 
L 3047 1722 
L 2188 4044 
z
M 1831 4666 
L 2547 4666 
L 4325 0 
L 3669 0 
L 3244 1197 
L 1141 1197 
L 716 0 
L 50 0 
L 1831 4666 
z
" transform="scale(0.015625)"/>
    </defs>
    <use xlink:href="#DejaVuSans-64"/>
    <use xlink:href="#DejaVuSans-61" x="63.476562"/>
    <use xlink:href="#DejaVuSans-74" x="124.755859"/>
    <use xlink:href="#DejaVuSans-61" x="163.964844"/>
    <use xlink:href="#DejaVuSans-73" x="225.244141"/>
    <use xlink:href="#DejaVuSans-65" x="277.34375"/>
    <use xlink:href="#DejaVuSans-74" x="338.867188"/>
    <use xlink:href="#DejaVuSans-3a" x="378.076172"/>
    <use xlink:href="#DejaVuSans-20" x="411.767578"/>
    <use xlink:href="#DejaVuSans-43" x="443.554688"/>
    <use xlink:href="#DejaVuSans-49" x="513.378906"/>
    <use xlink:href="#DejaVuSans-46" x="542.871094"/>
    <use xlink:href="#DejaVuSans-41" x="591.265625"/>
    <use xlink:href="#DejaVuSans-52" x="659.673828"/>
    <use xlink:href="#DejaVuSans-31" x="729.15625"/>
    <use xlink:href="#DejaVuSans-30" x="792.779297"/>
   </g>
   <!-- rehearsal_dataset:  -->
   <g transform="translate(263.760938 59.988125)scale(0.2 -0.2)">
    <defs>
     <path id="DejaVuSans-6c" d="M 603 4863 
L 1178 4863 
L 1178 0 
L 603 0 
L 603 4863 
z
" transform="scale(0.015625)"/>
     <path id="DejaVuSans-5f" d="M 3263 -1063 
L 3263 -1509 
L -63 -1509 
L -63 -1063 
L 3263 -1063 
z
" transform="scale(0.015625)"/>
    </defs>
    <use xlink:href="#DejaVuSans-72"/>
    <use xlink:href="#DejaVuSans-65" x="38.863281"/>
    <use xlink:href="#DejaVuSans-68" x="100.386719"/>
    <use xlink:href="#DejaVuSans-65" x="163.765625"/>
    <use xlink:href="#DejaVuSans-61" x="225.289062"/>
    <use xlink:href="#DejaVuSans-72" x="286.568359"/>
    <use xlink:href="#DejaVuSans-73" x="327.681641"/>
    <use xlink:href="#DejaVuSans-61" x="379.78125"/>
    <use xlink:href="#DejaVuSans-6c" x="441.060547"/>
    <use xlink:href="#DejaVuSans-5f" x="468.84375"/>
    <use xlink:href="#DejaVuSans-64" x="518.84375"/>
    <use xlink:href="#DejaVuSans-61" x="582.320312"/>
    <use xlink:href="#DejaVuSans-74" x="643.599609"/>
    <use xlink:href="#DejaVuSans-61" x="682.808594"/>
    <use xlink:href="#DejaVuSans-73" x="744.087891"/>
    <use xlink:href="#DejaVuSans-65" x="796.1875"/>
    <use xlink:href="#DejaVuSans-74" x="857.710938"/>
    <use xlink:href="#DejaVuSans-3a" x="896.919922"/>
    <use xlink:href="#DejaVuSans-20" x="930.611328"/>
   </g>
   <!-- batch_size_rehearsal: 128 -->
   <g transform="translate(229.859375 82.94)scale(0.2 -0.2)">
    <defs>
     <path id="DejaVuSans-62" d="M 3116 1747 
Q 3116 2381 2855 2742 
Q 2594 3103 2138 3103 
Q 1681 3103 1420 2742 
Q 1159 2381 1159 1747 
Q 1159 1113 1420 752 
Q 1681 391 2138 391 
Q 2594 391 2855 752 
Q 3116 1113 3116 1747 
z
M 1159 2969 
Q 1341 3281 1617 3432 
Q 1894 3584 2278 3584 
Q 2916 3584 3314 3078 
Q 3713 2572 3713 1747 
Q 3713 922 3314 415 
Q 2916 -91 2278 -91 
Q 1894 -91 1617 61 
Q 1341 213 1159 525 
L 1159 0 
L 581 0 
L 581 4863 
L 1159 4863 
L 1159 2969 
z
" transform="scale(0.015625)"/>
     <path id="DejaVuSans-7a" d="M 353 3500 
L 3084 3500 
L 3084 2975 
L 922 459 
L 3084 459 
L 3084 0 
L 275 0 
L 275 525 
L 2438 3041 
L 353 3041 
L 353 3500 
z
" transform="scale(0.015625)"/>
    </defs>
    <use xlink:href="#DejaVuSans-62"/>
    <use xlink:href="#DejaVuSans-61" x="63.476562"/>
    <use xlink:href="#DejaVuSans-74" x="124.755859"/>
    <use xlink:href="#DejaVuSans-63" x="163.964844"/>
    <use xlink:href="#DejaVuSans-68" x="218.945312"/>
    <use xlink:href="#DejaVuSans-5f" x="282.324219"/>
    <use xlink:href="#DejaVuSans-73" x="332.324219"/>
    <use xlink:href="#DejaVuSans-69" x="384.423828"/>
    <use xlink:href="#DejaVuSans-7a" x="412.207031"/>
    <use xlink:href="#DejaVuSans-65" x="464.697266"/>
    <use xlink:href="#DejaVuSans-5f" x="526.220703"/>
    <use xlink:href="#DejaVuSans-72" x="576.220703"/>
    <use xlink:href="#DejaVuSans-65" x="615.083984"/>
    <use xlink:href="#DejaVuSans-68" x="676.607422"/>
    <use xlink:href="#DejaVuSans-65" x="739.986328"/>
    <use xlink:href="#DejaVuSans-61" x="801.509766"/>
    <use xlink:href="#DejaVuSans-72" x="862.789062"/>
    <use xlink:href="#DejaVuSans-73" x="903.902344"/>
    <use xlink:href="#DejaVuSans-61" x="956.001953"/>
    <use xlink:href="#DejaVuSans-6c" x="1017.28125"/>
    <use xlink:href="#DejaVuSans-3a" x="1045.064453"/>
    <use xlink:href="#DejaVuSans-20" x="1078.755859"/>
    <use xlink:href="#DejaVuSans-31" x="1110.542969"/>
    <use xlink:href="#DejaVuSans-32" x="1174.166016"/>
    <use xlink:href="#DejaVuSans-38" x="1237.789062"/>
   </g>
   <!-- pretraining: False -->
   <g transform="translate(273.21875 105.891875)scale(0.2 -0.2)">
    <defs>
     <path id="DejaVuSans-67" d="M 2906 1791 
Q 2906 2416 2648 2759 
Q 2391 3103 1925 3103 
Q 1463 3103 1205 2759 
Q 947 2416 947 1791 
Q 947 1169 1205 825 
Q 1463 481 1925 481 
Q 2391 481 2648 825 
Q 2906 1169 2906 1791 
z
M 3481 434 
Q 3481 -459 3084 -895 
Q 2688 -1331 1869 -1331 
Q 1566 -1331 1297 -1286 
Q 1028 -1241 775 -1147 
L 775 -588 
Q 1028 -725 1275 -790 
Q 1522 -856 1778 -856 
Q 2344 -856 2625 -561 
Q 2906 -266 2906 331 
L 2906 616 
Q 2728 306 2450 153 
Q 2172 0 1784 0 
Q 1141 0 747 490 
Q 353 981 353 1791 
Q 353 2603 747 3093 
Q 1141 3584 1784 3584 
Q 2172 3584 2450 3431 
Q 2728 3278 2906 2969 
L 2906 3500 
L 3481 3500 
L 3481 434 
z
" transform="scale(0.015625)"/>
    </defs>
    <use xlink:href="#DejaVuSans-70"/>
    <use xlink:href="#DejaVuSans-72" x="63.476562"/>
    <use xlink:href="#DejaVuSans-65" x="102.339844"/>
    <use xlink:href="#DejaVuSans-74" x="163.863281"/>
    <use xlink:href="#DejaVuSans-72" x="203.072266"/>
    <use xlink:href="#DejaVuSans-61" x="244.185547"/>
    <use xlink:href="#DejaVuSans-69" x="305.464844"/>
    <use xlink:href="#DejaVuSans-6e" x="333.248047"/>
    <use xlink:href="#DejaVuSans-69" x="396.626953"/>
    <use xlink:href="#DejaVuSans-6e" x="424.410156"/>
    <use xlink:href="#DejaVuSans-67" x="487.789062"/>
    <use xlink:href="#DejaVuSans-3a" x="551.265625"/>
    <use xlink:href="#DejaVuSans-20" x="584.957031"/>
    <use xlink:href="#DejaVuSans-46" x="616.744141"/>
    <use xlink:href="#DejaVuSans-61" x="665.138672"/>
    <use xlink:href="#DejaVuSans-6c" x="726.417969"/>
    <use xlink:href="#DejaVuSans-73" x="754.201172"/>
    <use xlink:href="#DejaVuSans-65" x="806.300781"/>
   </g>
   <!-- learning_rate: 0.001 -->
   <g transform="translate(258.715625 128.2875)scale(0.2 -0.2)">
    <defs>
     <path id="DejaVuSans-2e" d="M 684 794 
L 1344 794 
L 1344 0 
L 684 0 
L 684 794 
z
" transform="scale(0.015625)"/>
    </defs>
    <use xlink:href="#DejaVuSans-6c"/>
    <use xlink:href="#DejaVuSans-65" x="27.783203"/>
    <use xlink:href="#DejaVuSans-61" x="89.306641"/>
    <use xlink:href="#DejaVuSans-72" x="150.585938"/>
    <use xlink:href="#DejaVuSans-6e" x="189.949219"/>
    <use xlink:href="#DejaVuSans-69" x="253.328125"/>
    <use xlink:href="#DejaVuSans-6e" x="281.111328"/>
    <use xlink:href="#DejaVuSans-67" x="344.490234"/>
    <use xlink:href="#DejaVuSans-5f" x="407.966797"/>
    <use xlink:href="#DejaVuSans-72" x="457.966797"/>
    <use xlink:href="#DejaVuSans-61" x="499.080078"/>
    <use xlink:href="#DejaVuSans-74" x="560.359375"/>
    <use xlink:href="#DejaVuSans-65" x="599.568359"/>
    <use xlink:href="#DejaVuSans-3a" x="661.091797"/>
    <use xlink:href="#DejaVuSans-20" x="694.783203"/>
    <use xlink:href="#DejaVuSans-30" x="726.570312"/>
    <use xlink:href="#DejaVuSans-2e" x="790.193359"/>
    <use xlink:href="#DejaVuSans-30" x="821.980469"/>
    <use xlink:href="#DejaVuSans-30" x="885.603516"/>
    <use xlink:href="#DejaVuSans-31" x="949.226562"/>
   </g>
   <!-- epochs: 5 -->
   <g transform="translate(311.425 151.239375)scale(0.2 -0.2)">
    <defs>
     <path id="DejaVuSans-6f" d="M 1959 3097 
Q 1497 3097 1228 2736 
Q 959 2375 959 1747 
Q 959 1119 1226 758 
Q 1494 397 1959 397 
Q 2419 397 2687 759 
Q 2956 1122 2956 1747 
Q 2956 2369 2687 2733 
Q 2419 3097 1959 3097 
z
M 1959 3584 
Q 2709 3584 3137 3096 
Q 3566 2609 3566 1747 
Q 3566 888 3137 398 
Q 2709 -91 1959 -91 
Q 1206 -91 779 398 
Q 353 888 353 1747 
Q 353 2609 779 3096 
Q 1206 3584 1959 3584 
z
" transform="scale(0.015625)"/>
    </defs>
    <use xlink:href="#DejaVuSans-65"/>
    <use xlink:href="#DejaVuSans-70" x="61.523438"/>
    <use xlink:href="#DejaVuSans-6f" x="125"/>
    <use xlink:href="#DejaVuSans-63" x="186.181641"/>
    <use xlink:href="#DejaVuSans-68" x="241.162109"/>
    <use xlink:href="#DejaVuSans-73" x="304.541016"/>
    <use xlink:href="#DejaVuSans-3a" x="356.640625"/>
    <use xlink:href="#DejaVuSans-20" x="390.332031"/>
    <use xlink:href="#DejaVuSans-35" x="422.119141"/>
   </g>
   <!-- separate_noise_output: None -->
   <g transform="translate(213.63125 173.635)scale(0.2 -0.2)">
    <use xlink:href="#DejaVuSans-73"/>
    <use xlink:href="#DejaVuSans-65" x="52.099609"/>
    <use xlink:href="#DejaVuSans-70" x="113.623047"/>
    <use xlink:href="#DejaVuSans-61" x="177.099609"/>
    <use xlink:href="#DejaVuSans-72" x="238.378906"/>
    <use xlink:href="#DejaVuSans-61" x="279.492188"/>
    <use xlink:href="#DejaVuSans-74" x="340.771484"/>
    <use xlink:href="#DejaVuSans-65" x="379.980469"/>
    <use xlink:href="#DejaVuSans-5f" x="441.503906"/>
    <use xlink:href="#DejaVuSans-6e" x="491.503906"/>
    <use xlink:href="#DejaVuSans-6f" x="554.882812"/>
    <use xlink:href="#DejaVuSans-69" x="616.064453"/>
    <use xlink:href="#DejaVuSans-73" x="643.847656"/>
    <use xlink:href="#DejaVuSans-65" x="695.947266"/>
    <use xlink:href="#DejaVuSans-5f" x="757.470703"/>
    <use xlink:href="#DejaVuSans-6f" x="807.470703"/>
    <use xlink:href="#DejaVuSans-75" x="868.652344"/>
    <use xlink:href="#DejaVuSans-74" x="932.03125"/>
    <use xlink:href="#DejaVuSans-70" x="971.240234"/>
    <use xlink:href="#DejaVuSans-75" x="1034.716797"/>
    <use xlink:href="#DejaVuSans-74" x="1098.095703"/>
    <use xlink:href="#DejaVuSans-3a" x="1137.304688"/>
    <use xlink:href="#DejaVuSans-20" x="1170.996094"/>
    <use xlink:href="#DejaVuSans-4e" x="1202.783203"/>
    <use xlink:href="#DejaVuSans-6f" x="1277.587891"/>
    <use xlink:href="#DejaVuSans-6e" x="1338.769531"/>
    <use xlink:href="#DejaVuSans-65" x="1402.148438"/>
   </g>
   <!-- runs: 1 -->
   <g transform="translate(325.095312 196.586875)scale(0.2 -0.2)">
    <use xlink:href="#DejaVuSans-72"/>
    <use xlink:href="#DejaVuSans-75" x="41.113281"/>
    <use xlink:href="#DejaVuSans-6e" x="104.492188"/>
    <use xlink:href="#DejaVuSans-73" x="167.871094"/>
    <use xlink:href="#DejaVuSans-3a" x="219.970703"/>
    <use xlink:href="#DejaVuSans-20" x="253.662109"/>
    <use xlink:href="#DejaVuSans-31" x="285.449219"/>
   </g>
  </g>
 </g>
 <defs>
  <clipPath id="pab2455a01e">
   <rect x="79.33125" y="243.543125" width="629.86875" height="347.1175"/>
  </clipPath>
  <clipPath id="p0482ba8c1e">
   <rect x="79.33125" y="672.37" width="629.86875" height="347.1175"/>
  </clipPath>
 </defs>
</svg>
