<?xml version="1.0" encoding="utf-8" standalone="no"?>
<!DOCTYPE svg PUBLIC "-//W3C//DTD SVG 1.1//EN"
  "http://www.w3.org/Graphics/SVG/1.1/DTD/svg11.dtd">
<svg xmlns:xlink="http://www.w3.org/1999/xlink" width="720pt" height="1080pt" viewBox="0 0 720 1080" xmlns="http://www.w3.org/2000/svg" version="1.1">
 <metadata>
  <rdf:RDF xmlns:dc="http://purl.org/dc/elements/1.1/" xmlns:cc="http://creativecommons.org/ns#" xmlns:rdf="http://www.w3.org/1999/02/22-rdf-syntax-ns#">
   <cc:Work>
    <dc:type rdf:resource="http://purl.org/dc/dcmitype/StillImage"/>
    <dc:date>2024-01-26T18:23:47.003799</dc:date>
    <dc:format>image/svg+xml</dc:format>
    <dc:creator>
     <cc:Agent>
      <dc:title>Matplotlib v3.5.1, https://matplotlib.org/</dc:title>
     </cc:Agent>
    </dc:creator>
   </cc:Work>
  </rdf:RDF>
 </metadata>
 <defs>
  <style type="text/css">*{stroke-linejoin: round; stroke-linecap: butt}</style>
 </defs>
 <g id="figure_1">
  <g id="patch_1">
   <path d="M 0 1080 
L 720 1080 
L 720 0 
L 0 0 
L 0 1080 
z
" style="fill: none"/>
  </g>
  <g id="axes_1">
   <g id="patch_2">
    <path d="M 79.33125 590.660625 
L 709.2 590.660625 
L 709.2 243.543125 
L 79.33125 243.543125 
z
" style="fill: #ffffff"/>
   </g>
   <g id="matplotlib.axis_1">
    <g id="xtick_1">
     <g id="line2d_1">
      <path d="M 107.961648 590.660625 
L 107.961648 243.543125 
" clip-path="url(#pbc1c4332c4)" style="fill: none; stroke: #b0b0b0; stroke-width: 0.8; stroke-linecap: square"/>
     </g>
     <g id="line2d_2">
      <defs>
       <path id="m948b336013" d="M 0 0 
L 0 3.5 
" style="stroke: #000000; stroke-width: 0.8"/>
      </defs>
      <g>
       <use xlink:href="#m948b336013" x="107.961648" y="590.660625" style="stroke: #000000; stroke-width: 0.8"/>
      </g>
     </g>
     <g id="text_1">
      <!-- 0 -->
      <g transform="translate(101.599148 612.8575)scale(0.2 -0.2)">
       <defs>
        <path id="DejaVuSans-30" d="M 2034 4250 
Q 1547 4250 1301 3770 
Q 1056 3291 1056 2328 
Q 1056 1369 1301 889 
Q 1547 409 2034 409 
Q 2525 409 2770 889 
Q 3016 1369 3016 2328 
Q 3016 3291 2770 3770 
Q 2525 4250 2034 4250 
z
M 2034 4750 
Q 2819 4750 3233 4129 
Q 3647 3509 3647 2328 
Q 3647 1150 3233 529 
Q 2819 -91 2034 -91 
Q 1250 -91 836 529 
Q 422 1150 422 2328 
Q 422 3509 836 4129 
Q 1250 4750 2034 4750 
z
" transform="scale(0.015625)"/>
       </defs>
       <use xlink:href="#DejaVuSans-30"/>
      </g>
     </g>
    </g>
    <g id="xtick_2">
     <g id="line2d_3">
      <path d="M 204.198279 590.660625 
L 204.198279 243.543125 
" clip-path="url(#pbc1c4332c4)" style="fill: none; stroke: #b0b0b0; stroke-width: 0.8; stroke-linecap: square"/>
     </g>
     <g id="line2d_4">
      <g>
       <use xlink:href="#m948b336013" x="204.198279" y="590.660625" style="stroke: #000000; stroke-width: 0.8"/>
      </g>
     </g>
     <g id="text_2">
      <!-- 20 -->
      <g transform="translate(191.473279 612.8575)scale(0.2 -0.2)">
       <defs>
        <path id="DejaVuSans-32" d="M 1228 531 
L 3431 531 
L 3431 0 
L 469 0 
L 469 531 
Q 828 903 1448 1529 
Q 2069 2156 2228 2338 
Q 2531 2678 2651 2914 
Q 2772 3150 2772 3378 
Q 2772 3750 2511 3984 
Q 2250 4219 1831 4219 
Q 1534 4219 1204 4116 
Q 875 4013 500 3803 
L 500 4441 
Q 881 4594 1212 4672 
Q 1544 4750 1819 4750 
Q 2544 4750 2975 4387 
Q 3406 4025 3406 3419 
Q 3406 3131 3298 2873 
Q 3191 2616 2906 2266 
Q 2828 2175 2409 1742 
Q 1991 1309 1228 531 
z
" transform="scale(0.015625)"/>
       </defs>
       <use xlink:href="#DejaVuSans-32"/>
       <use xlink:href="#DejaVuSans-30" x="63.623047"/>
      </g>
     </g>
    </g>
    <g id="xtick_3">
     <g id="line2d_5">
      <path d="M 300.43491 590.660625 
L 300.43491 243.543125 
" clip-path="url(#pbc1c4332c4)" style="fill: none; stroke: #b0b0b0; stroke-width: 0.8; stroke-linecap: square"/>
     </g>
     <g id="line2d_6">
      <g>
       <use xlink:href="#m948b336013" x="300.43491" y="590.660625" style="stroke: #000000; stroke-width: 0.8"/>
      </g>
     </g>
     <g id="text_3">
      <!-- 40 -->
      <g transform="translate(287.70991 612.8575)scale(0.2 -0.2)">
       <defs>
        <path id="DejaVuSans-34" d="M 2419 4116 
L 825 1625 
L 2419 1625 
L 2419 4116 
z
M 2253 4666 
L 3047 4666 
L 3047 1625 
L 3713 1625 
L 3713 1100 
L 3047 1100 
L 3047 0 
L 2419 0 
L 2419 1100 
L 313 1100 
L 313 1709 
L 2253 4666 
z
" transform="scale(0.015625)"/>
       </defs>
       <use xlink:href="#DejaVuSans-34"/>
       <use xlink:href="#DejaVuSans-30" x="63.623047"/>
      </g>
     </g>
    </g>
    <g id="xtick_4">
     <g id="line2d_7">
      <path d="M 396.671541 590.660625 
L 396.671541 243.543125 
" clip-path="url(#pbc1c4332c4)" style="fill: none; stroke: #b0b0b0; stroke-width: 0.8; stroke-linecap: square"/>
     </g>
     <g id="line2d_8">
      <g>
       <use xlink:href="#m948b336013" x="396.671541" y="590.660625" style="stroke: #000000; stroke-width: 0.8"/>
      </g>
     </g>
     <g id="text_4">
      <!-- 60 -->
      <g transform="translate(383.946541 612.8575)scale(0.2 -0.2)">
       <defs>
        <path id="DejaVuSans-36" d="M 2113 2584 
Q 1688 2584 1439 2293 
Q 1191 2003 1191 1497 
Q 1191 994 1439 701 
Q 1688 409 2113 409 
Q 2538 409 2786 701 
Q 3034 994 3034 1497 
Q 3034 2003 2786 2293 
Q 2538 2584 2113 2584 
z
M 3366 4563 
L 3366 3988 
Q 3128 4100 2886 4159 
Q 2644 4219 2406 4219 
Q 1781 4219 1451 3797 
Q 1122 3375 1075 2522 
Q 1259 2794 1537 2939 
Q 1816 3084 2150 3084 
Q 2853 3084 3261 2657 
Q 3669 2231 3669 1497 
Q 3669 778 3244 343 
Q 2819 -91 2113 -91 
Q 1303 -91 875 529 
Q 447 1150 447 2328 
Q 447 3434 972 4092 
Q 1497 4750 2381 4750 
Q 2619 4750 2861 4703 
Q 3103 4656 3366 4563 
z
" transform="scale(0.015625)"/>
       </defs>
       <use xlink:href="#DejaVuSans-36"/>
       <use xlink:href="#DejaVuSans-30" x="63.623047"/>
      </g>
     </g>
    </g>
    <g id="xtick_5">
     <g id="line2d_9">
      <path d="M 492.908172 590.660625 
L 492.908172 243.543125 
" clip-path="url(#pbc1c4332c4)" style="fill: none; stroke: #b0b0b0; stroke-width: 0.8; stroke-linecap: square"/>
     </g>
     <g id="line2d_10">
      <g>
       <use xlink:href="#m948b336013" x="492.908172" y="590.660625" style="stroke: #000000; stroke-width: 0.8"/>
      </g>
     </g>
     <g id="text_5">
      <!-- 80 -->
      <g transform="translate(480.183172 612.8575)scale(0.2 -0.2)">
       <defs>
        <path id="DejaVuSans-38" d="M 2034 2216 
Q 1584 2216 1326 1975 
Q 1069 1734 1069 1313 
Q 1069 891 1326 650 
Q 1584 409 2034 409 
Q 2484 409 2743 651 
Q 3003 894 3003 1313 
Q 3003 1734 2745 1975 
Q 2488 2216 2034 2216 
z
M 1403 2484 
Q 997 2584 770 2862 
Q 544 3141 544 3541 
Q 544 4100 942 4425 
Q 1341 4750 2034 4750 
Q 2731 4750 3128 4425 
Q 3525 4100 3525 3541 
Q 3525 3141 3298 2862 
Q 3072 2584 2669 2484 
Q 3125 2378 3379 2068 
Q 3634 1759 3634 1313 
Q 3634 634 3220 271 
Q 2806 -91 2034 -91 
Q 1263 -91 848 271 
Q 434 634 434 1313 
Q 434 1759 690 2068 
Q 947 2378 1403 2484 
z
M 1172 3481 
Q 1172 3119 1398 2916 
Q 1625 2713 2034 2713 
Q 2441 2713 2670 2916 
Q 2900 3119 2900 3481 
Q 2900 3844 2670 4047 
Q 2441 4250 2034 4250 
Q 1625 4250 1398 4047 
Q 1172 3844 1172 3481 
z
" transform="scale(0.015625)"/>
       </defs>
       <use xlink:href="#DejaVuSans-38"/>
       <use xlink:href="#DejaVuSans-30" x="63.623047"/>
      </g>
     </g>
    </g>
    <g id="xtick_6">
     <g id="line2d_11">
      <path d="M 589.144803 590.660625 
L 589.144803 243.543125 
" clip-path="url(#pbc1c4332c4)" style="fill: none; stroke: #b0b0b0; stroke-width: 0.8; stroke-linecap: square"/>
     </g>
     <g id="line2d_12">
      <g>
       <use xlink:href="#m948b336013" x="589.144803" y="590.660625" style="stroke: #000000; stroke-width: 0.8"/>
      </g>
     </g>
     <g id="text_6">
      <!-- 100 -->
      <g transform="translate(570.057303 612.8575)scale(0.2 -0.2)">
       <defs>
        <path id="DejaVuSans-31" d="M 794 531 
L 1825 531 
L 1825 4091 
L 703 3866 
L 703 4441 
L 1819 4666 
L 2450 4666 
L 2450 531 
L 3481 531 
L 3481 0 
L 794 0 
L 794 531 
z
" transform="scale(0.015625)"/>
       </defs>
       <use xlink:href="#DejaVuSans-31"/>
       <use xlink:href="#DejaVuSans-30" x="63.623047"/>
       <use xlink:href="#DejaVuSans-30" x="127.246094"/>
      </g>
     </g>
    </g>
    <g id="xtick_7">
     <g id="line2d_13">
      <path d="M 685.381434 590.660625 
L 685.381434 243.543125 
" clip-path="url(#pbc1c4332c4)" style="fill: none; stroke: #b0b0b0; stroke-width: 0.8; stroke-linecap: square"/>
     </g>
     <g id="line2d_14">
      <g>
       <use xlink:href="#m948b336013" x="685.381434" y="590.660625" style="stroke: #000000; stroke-width: 0.8"/>
      </g>
     </g>
     <g id="text_7">
      <!-- 120 -->
      <g transform="translate(666.293934 612.8575)scale(0.2 -0.2)">
       <use xlink:href="#DejaVuSans-31"/>
       <use xlink:href="#DejaVuSans-32" x="63.623047"/>
       <use xlink:href="#DejaVuSans-30" x="127.246094"/>
      </g>
     </g>
    </g>
    <g id="text_8">
     <!-- step -->
     <g transform="translate(372.634375 636.21375)scale(0.2 -0.2)">
      <defs>
       <path id="DejaVuSans-73" d="M 2834 3397 
L 2834 2853 
Q 2591 2978 2328 3040 
Q 2066 3103 1784 3103 
Q 1356 3103 1142 2972 
Q 928 2841 928 2578 
Q 928 2378 1081 2264 
Q 1234 2150 1697 2047 
L 1894 2003 
Q 2506 1872 2764 1633 
Q 3022 1394 3022 966 
Q 3022 478 2636 193 
Q 2250 -91 1575 -91 
Q 1294 -91 989 -36 
Q 684 19 347 128 
L 347 722 
Q 666 556 975 473 
Q 1284 391 1588 391 
Q 1994 391 2212 530 
Q 2431 669 2431 922 
Q 2431 1156 2273 1281 
Q 2116 1406 1581 1522 
L 1381 1569 
Q 847 1681 609 1914 
Q 372 2147 372 2553 
Q 372 3047 722 3315 
Q 1072 3584 1716 3584 
Q 2034 3584 2315 3537 
Q 2597 3491 2834 3397 
z
" transform="scale(0.015625)"/>
       <path id="DejaVuSans-74" d="M 1172 4494 
L 1172 3500 
L 2356 3500 
L 2356 3053 
L 1172 3053 
L 1172 1153 
Q 1172 725 1289 603 
Q 1406 481 1766 481 
L 2356 481 
L 2356 0 
L 1766 0 
Q 1100 0 847 248 
Q 594 497 594 1153 
L 594 3053 
L 172 3053 
L 172 3500 
L 594 3500 
L 594 4494 
L 1172 4494 
z
" transform="scale(0.015625)"/>
       <path id="DejaVuSans-65" d="M 3597 1894 
L 3597 1613 
L 953 1613 
Q 991 1019 1311 708 
Q 1631 397 2203 397 
Q 2534 397 2845 478 
Q 3156 559 3463 722 
L 3463 178 
Q 3153 47 2828 -22 
Q 2503 -91 2169 -91 
Q 1331 -91 842 396 
Q 353 884 353 1716 
Q 353 2575 817 3079 
Q 1281 3584 2069 3584 
Q 2775 3584 3186 3129 
Q 3597 2675 3597 1894 
z
M 3022 2063 
Q 3016 2534 2758 2815 
Q 2500 3097 2075 3097 
Q 1594 3097 1305 2825 
Q 1016 2553 972 2059 
L 3022 2063 
z
" transform="scale(0.015625)"/>
       <path id="DejaVuSans-70" d="M 1159 525 
L 1159 -1331 
L 581 -1331 
L 581 3500 
L 1159 3500 
L 1159 2969 
Q 1341 3281 1617 3432 
Q 1894 3584 2278 3584 
Q 2916 3584 3314 3078 
Q 3713 2572 3713 1747 
Q 3713 922 3314 415 
Q 2916 -91 2278 -91 
Q 1894 -91 1617 61 
Q 1341 213 1159 525 
z
M 3116 1747 
Q 3116 2381 2855 2742 
Q 2594 3103 2138 3103 
Q 1681 3103 1420 2742 
Q 1159 2381 1159 1747 
Q 1159 1113 1420 752 
Q 1681 391 2138 391 
Q 2594 391 2855 752 
Q 3116 1113 3116 1747 
z
" transform="scale(0.015625)"/>
      </defs>
      <use xlink:href="#DejaVuSans-73"/>
      <use xlink:href="#DejaVuSans-74" x="52.099609"/>
      <use xlink:href="#DejaVuSans-65" x="91.308594"/>
      <use xlink:href="#DejaVuSans-70" x="152.832031"/>
     </g>
    </g>
   </g>
   <g id="matplotlib.axis_2">
    <g id="ytick_1">
     <g id="line2d_15">
      <path d="M 79.33125 590.660625 
L 709.2 590.660625 
" clip-path="url(#pbc1c4332c4)" style="fill: none; stroke: #b0b0b0; stroke-width: 0.8; stroke-linecap: square"/>
     </g>
     <g id="line2d_16">
      <defs>
       <path id="m95e2b3836d" d="M 0 0 
L -3.5 0 
" style="stroke: #000000; stroke-width: 0.8"/>
      </defs>
      <g>
       <use xlink:href="#m95e2b3836d" x="79.33125" y="590.660625" style="stroke: #000000; stroke-width: 0.8"/>
      </g>
     </g>
     <g id="text_9">
      <!-- 30 -->
      <g transform="translate(46.88125 598.259063)scale(0.2 -0.2)">
       <defs>
        <path id="DejaVuSans-33" d="M 2597 2516 
Q 3050 2419 3304 2112 
Q 3559 1806 3559 1356 
Q 3559 666 3084 287 
Q 2609 -91 1734 -91 
Q 1441 -91 1130 -33 
Q 819 25 488 141 
L 488 750 
Q 750 597 1062 519 
Q 1375 441 1716 441 
Q 2309 441 2620 675 
Q 2931 909 2931 1356 
Q 2931 1769 2642 2001 
Q 2353 2234 1838 2234 
L 1294 2234 
L 1294 2753 
L 1863 2753 
Q 2328 2753 2575 2939 
Q 2822 3125 2822 3475 
Q 2822 3834 2567 4026 
Q 2313 4219 1838 4219 
Q 1578 4219 1281 4162 
Q 984 4106 628 3988 
L 628 4550 
Q 988 4650 1302 4700 
Q 1616 4750 1894 4750 
Q 2613 4750 3031 4423 
Q 3450 4097 3450 3541 
Q 3450 3153 3228 2886 
Q 3006 2619 2597 2516 
z
" transform="scale(0.015625)"/>
       </defs>
       <use xlink:href="#DejaVuSans-33"/>
       <use xlink:href="#DejaVuSans-30" x="63.623047"/>
      </g>
     </g>
    </g>
    <g id="ytick_2">
     <g id="line2d_17">
      <path d="M 79.33125 541.072411 
L 709.2 541.072411 
" clip-path="url(#pbc1c4332c4)" style="fill: none; stroke: #b0b0b0; stroke-width: 0.8; stroke-linecap: square"/>
     </g>
     <g id="line2d_18">
      <g>
       <use xlink:href="#m95e2b3836d" x="79.33125" y="541.072411" style="stroke: #000000; stroke-width: 0.8"/>
      </g>
     </g>
     <g id="text_10">
      <!-- 40 -->
      <g transform="translate(46.88125 548.670848)scale(0.2 -0.2)">
       <use xlink:href="#DejaVuSans-34"/>
       <use xlink:href="#DejaVuSans-30" x="63.623047"/>
      </g>
     </g>
    </g>
    <g id="ytick_3">
     <g id="line2d_19">
      <path d="M 79.33125 491.484196 
L 709.2 491.484196 
" clip-path="url(#pbc1c4332c4)" style="fill: none; stroke: #b0b0b0; stroke-width: 0.8; stroke-linecap: square"/>
     </g>
     <g id="line2d_20">
      <g>
       <use xlink:href="#m95e2b3836d" x="79.33125" y="491.484196" style="stroke: #000000; stroke-width: 0.8"/>
      </g>
     </g>
     <g id="text_11">
      <!-- 50 -->
      <g transform="translate(46.88125 499.082634)scale(0.2 -0.2)">
       <defs>
        <path id="DejaVuSans-35" d="M 691 4666 
L 3169 4666 
L 3169 4134 
L 1269 4134 
L 1269 2991 
Q 1406 3038 1543 3061 
Q 1681 3084 1819 3084 
Q 2600 3084 3056 2656 
Q 3513 2228 3513 1497 
Q 3513 744 3044 326 
Q 2575 -91 1722 -91 
Q 1428 -91 1123 -41 
Q 819 9 494 109 
L 494 744 
Q 775 591 1075 516 
Q 1375 441 1709 441 
Q 2250 441 2565 725 
Q 2881 1009 2881 1497 
Q 2881 1984 2565 2268 
Q 2250 2553 1709 2553 
Q 1456 2553 1204 2497 
Q 953 2441 691 2322 
L 691 4666 
z
" transform="scale(0.015625)"/>
       </defs>
       <use xlink:href="#DejaVuSans-35"/>
       <use xlink:href="#DejaVuSans-30" x="63.623047"/>
      </g>
     </g>
    </g>
    <g id="ytick_4">
     <g id="line2d_21">
      <path d="M 79.33125 441.895982 
L 709.2 441.895982 
" clip-path="url(#pbc1c4332c4)" style="fill: none; stroke: #b0b0b0; stroke-width: 0.8; stroke-linecap: square"/>
     </g>
     <g id="line2d_22">
      <g>
       <use xlink:href="#m95e2b3836d" x="79.33125" y="441.895982" style="stroke: #000000; stroke-width: 0.8"/>
      </g>
     </g>
     <g id="text_12">
      <!-- 60 -->
      <g transform="translate(46.88125 449.49442)scale(0.2 -0.2)">
       <use xlink:href="#DejaVuSans-36"/>
       <use xlink:href="#DejaVuSans-30" x="63.623047"/>
      </g>
     </g>
    </g>
    <g id="ytick_5">
     <g id="line2d_23">
      <path d="M 79.33125 392.307768 
L 709.2 392.307768 
" clip-path="url(#pbc1c4332c4)" style="fill: none; stroke: #b0b0b0; stroke-width: 0.8; stroke-linecap: square"/>
     </g>
     <g id="line2d_24">
      <g>
       <use xlink:href="#m95e2b3836d" x="79.33125" y="392.307768" style="stroke: #000000; stroke-width: 0.8"/>
      </g>
     </g>
     <g id="text_13">
      <!-- 70 -->
      <g transform="translate(46.88125 399.906205)scale(0.2 -0.2)">
       <defs>
        <path id="DejaVuSans-37" d="M 525 4666 
L 3525 4666 
L 3525 4397 
L 1831 0 
L 1172 0 
L 2766 4134 
L 525 4134 
L 525 4666 
z
" transform="scale(0.015625)"/>
       </defs>
       <use xlink:href="#DejaVuSans-37"/>
       <use xlink:href="#DejaVuSans-30" x="63.623047"/>
      </g>
     </g>
    </g>
    <g id="ytick_6">
     <g id="line2d_25">
      <path d="M 79.33125 342.719554 
L 709.2 342.719554 
" clip-path="url(#pbc1c4332c4)" style="fill: none; stroke: #b0b0b0; stroke-width: 0.8; stroke-linecap: square"/>
     </g>
     <g id="line2d_26">
      <g>
       <use xlink:href="#m95e2b3836d" x="79.33125" y="342.719554" style="stroke: #000000; stroke-width: 0.8"/>
      </g>
     </g>
     <g id="text_14">
      <!-- 80 -->
      <g transform="translate(46.88125 350.317991)scale(0.2 -0.2)">
       <use xlink:href="#DejaVuSans-38"/>
       <use xlink:href="#DejaVuSans-30" x="63.623047"/>
      </g>
     </g>
    </g>
    <g id="ytick_7">
     <g id="line2d_27">
      <path d="M 79.33125 293.131339 
L 709.2 293.131339 
" clip-path="url(#pbc1c4332c4)" style="fill: none; stroke: #b0b0b0; stroke-width: 0.8; stroke-linecap: square"/>
     </g>
     <g id="line2d_28">
      <g>
       <use xlink:href="#m95e2b3836d" x="79.33125" y="293.131339" style="stroke: #000000; stroke-width: 0.8"/>
      </g>
     </g>
     <g id="text_15">
      <!-- 90 -->
      <g transform="translate(46.88125 300.729777)scale(0.2 -0.2)">
       <defs>
        <path id="DejaVuSans-39" d="M 703 97 
L 703 672 
Q 941 559 1184 500 
Q 1428 441 1663 441 
Q 2288 441 2617 861 
Q 2947 1281 2994 2138 
Q 2813 1869 2534 1725 
Q 2256 1581 1919 1581 
Q 1219 1581 811 2004 
Q 403 2428 403 3163 
Q 403 3881 828 4315 
Q 1253 4750 1959 4750 
Q 2769 4750 3195 4129 
Q 3622 3509 3622 2328 
Q 3622 1225 3098 567 
Q 2575 -91 1691 -91 
Q 1453 -91 1209 -44 
Q 966 3 703 97 
z
M 1959 2075 
Q 2384 2075 2632 2365 
Q 2881 2656 2881 3163 
Q 2881 3666 2632 3958 
Q 2384 4250 1959 4250 
Q 1534 4250 1286 3958 
Q 1038 3666 1038 3163 
Q 1038 2656 1286 2365 
Q 1534 2075 1959 2075 
z
" transform="scale(0.015625)"/>
       </defs>
       <use xlink:href="#DejaVuSans-39"/>
       <use xlink:href="#DejaVuSans-30" x="63.623047"/>
      </g>
     </g>
    </g>
    <g id="ytick_8">
     <g id="line2d_29">
      <path d="M 79.33125 243.543125 
L 709.2 243.543125 
" clip-path="url(#pbc1c4332c4)" style="fill: none; stroke: #b0b0b0; stroke-width: 0.8; stroke-linecap: square"/>
     </g>
     <g id="line2d_30">
      <g>
       <use xlink:href="#m95e2b3836d" x="79.33125" y="243.543125" style="stroke: #000000; stroke-width: 0.8"/>
      </g>
     </g>
     <g id="text_16">
      <!-- 100 -->
      <g transform="translate(34.15625 251.141562)scale(0.2 -0.2)">
       <use xlink:href="#DejaVuSans-31"/>
       <use xlink:href="#DejaVuSans-30" x="63.623047"/>
       <use xlink:href="#DejaVuSans-30" x="127.246094"/>
      </g>
     </g>
    </g>
    <g id="text_17">
     <!-- accuracy [%] -->
     <g transform="translate(25.996875 482.703437)rotate(-90)scale(0.2 -0.2)">
      <defs>
       <path id="DejaVuSans-61" d="M 2194 1759 
Q 1497 1759 1228 1600 
Q 959 1441 959 1056 
Q 959 750 1161 570 
Q 1363 391 1709 391 
Q 2188 391 2477 730 
Q 2766 1069 2766 1631 
L 2766 1759 
L 2194 1759 
z
M 3341 1997 
L 3341 0 
L 2766 0 
L 2766 531 
Q 2569 213 2275 61 
Q 1981 -91 1556 -91 
Q 1019 -91 701 211 
Q 384 513 384 1019 
Q 384 1609 779 1909 
Q 1175 2209 1959 2209 
L 2766 2209 
L 2766 2266 
Q 2766 2663 2505 2880 
Q 2244 3097 1772 3097 
Q 1472 3097 1187 3025 
Q 903 2953 641 2809 
L 641 3341 
Q 956 3463 1253 3523 
Q 1550 3584 1831 3584 
Q 2591 3584 2966 3190 
Q 3341 2797 3341 1997 
z
" transform="scale(0.015625)"/>
       <path id="DejaVuSans-63" d="M 3122 3366 
L 3122 2828 
Q 2878 2963 2633 3030 
Q 2388 3097 2138 3097 
Q 1578 3097 1268 2742 
Q 959 2388 959 1747 
Q 959 1106 1268 751 
Q 1578 397 2138 397 
Q 2388 397 2633 464 
Q 2878 531 3122 666 
L 3122 134 
Q 2881 22 2623 -34 
Q 2366 -91 2075 -91 
Q 1284 -91 818 406 
Q 353 903 353 1747 
Q 353 2603 823 3093 
Q 1294 3584 2113 3584 
Q 2378 3584 2631 3529 
Q 2884 3475 3122 3366 
z
" transform="scale(0.015625)"/>
       <path id="DejaVuSans-75" d="M 544 1381 
L 544 3500 
L 1119 3500 
L 1119 1403 
Q 1119 906 1312 657 
Q 1506 409 1894 409 
Q 2359 409 2629 706 
Q 2900 1003 2900 1516 
L 2900 3500 
L 3475 3500 
L 3475 0 
L 2900 0 
L 2900 538 
Q 2691 219 2414 64 
Q 2138 -91 1772 -91 
Q 1169 -91 856 284 
Q 544 659 544 1381 
z
M 1991 3584 
L 1991 3584 
z
" transform="scale(0.015625)"/>
       <path id="DejaVuSans-72" d="M 2631 2963 
Q 2534 3019 2420 3045 
Q 2306 3072 2169 3072 
Q 1681 3072 1420 2755 
Q 1159 2438 1159 1844 
L 1159 0 
L 581 0 
L 581 3500 
L 1159 3500 
L 1159 2956 
Q 1341 3275 1631 3429 
Q 1922 3584 2338 3584 
Q 2397 3584 2469 3576 
Q 2541 3569 2628 3553 
L 2631 2963 
z
" transform="scale(0.015625)"/>
       <path id="DejaVuSans-79" d="M 2059 -325 
Q 1816 -950 1584 -1140 
Q 1353 -1331 966 -1331 
L 506 -1331 
L 506 -850 
L 844 -850 
Q 1081 -850 1212 -737 
Q 1344 -625 1503 -206 
L 1606 56 
L 191 3500 
L 800 3500 
L 1894 763 
L 2988 3500 
L 3597 3500 
L 2059 -325 
z
" transform="scale(0.015625)"/>
       <path id="DejaVuSans-20" transform="scale(0.015625)"/>
       <path id="DejaVuSans-5b" d="M 550 4863 
L 1875 4863 
L 1875 4416 
L 1125 4416 
L 1125 -397 
L 1875 -397 
L 1875 -844 
L 550 -844 
L 550 4863 
z
" transform="scale(0.015625)"/>
       <path id="DejaVuSans-25" d="M 4653 2053 
Q 4381 2053 4226 1822 
Q 4072 1591 4072 1178 
Q 4072 772 4226 539 
Q 4381 306 4653 306 
Q 4919 306 5073 539 
Q 5228 772 5228 1178 
Q 5228 1588 5073 1820 
Q 4919 2053 4653 2053 
z
M 4653 2450 
Q 5147 2450 5437 2106 
Q 5728 1763 5728 1178 
Q 5728 594 5436 251 
Q 5144 -91 4653 -91 
Q 4153 -91 3862 251 
Q 3572 594 3572 1178 
Q 3572 1766 3864 2108 
Q 4156 2450 4653 2450 
z
M 1428 4353 
Q 1159 4353 1004 4120 
Q 850 3888 850 3481 
Q 850 3069 1003 2837 
Q 1156 2606 1428 2606 
Q 1700 2606 1854 2837 
Q 2009 3069 2009 3481 
Q 2009 3884 1853 4118 
Q 1697 4353 1428 4353 
z
M 4250 4750 
L 4750 4750 
L 1831 -91 
L 1331 -91 
L 4250 4750 
z
M 1428 4750 
Q 1922 4750 2215 4408 
Q 2509 4066 2509 3481 
Q 2509 2891 2217 2550 
Q 1925 2209 1428 2209 
Q 931 2209 642 2551 
Q 353 2894 353 3481 
Q 353 4063 643 4406 
Q 934 4750 1428 4750 
z
" transform="scale(0.015625)"/>
       <path id="DejaVuSans-5d" d="M 1947 4863 
L 1947 -844 
L 622 -844 
L 622 -397 
L 1369 -397 
L 1369 4416 
L 622 4416 
L 622 4863 
L 1947 4863 
z
" transform="scale(0.015625)"/>
      </defs>
      <use xlink:href="#DejaVuSans-61"/>
      <use xlink:href="#DejaVuSans-63" x="61.279297"/>
      <use xlink:href="#DejaVuSans-63" x="116.259766"/>
      <use xlink:href="#DejaVuSans-75" x="171.240234"/>
      <use xlink:href="#DejaVuSans-72" x="234.619141"/>
      <use xlink:href="#DejaVuSans-61" x="275.732422"/>
      <use xlink:href="#DejaVuSans-63" x="337.011719"/>
      <use xlink:href="#DejaVuSans-79" x="391.992188"/>
      <use xlink:href="#DejaVuSans-20" x="451.171875"/>
      <use xlink:href="#DejaVuSans-5b" x="482.958984"/>
      <use xlink:href="#DejaVuSans-25" x="521.972656"/>
      <use xlink:href="#DejaVuSans-5d" x="616.992188"/>
     </g>
    </g>
   </g>
   <g id="line2d_31">
    <path d="M 107.961648 483.153375 
L 112.773479 323.628099 
L 117.585311 302.602706 
L 122.397142 335.182162 
L 127.208974 320.057741 
L 132.020805 281.031803 
L 136.832637 275.775464 
L 141.644469 273.147295 
L 146.4563 292.040393 
L 151.268132 269.130662 
L 156.079963 274.387 
L 160.891795 261.890749 
L 165.703626 266.750411 
L 170.515458 260.254367 
L 175.327289 261.543633 
L 180.139121 260.750241 
L 184.950953 283.312856 
L 189.762784 272.552223 
L 194.574616 258.965063 
L 199.386447 259.014661 
L 204.198279 253.807884 
L 209.01011 255.593063 
L 213.821942 257.42784 
L 218.633773 250.783 
L 223.445605 259.16342 
L 228.257436 253.312009 
L 233.069268 251.030956 
L 237.8811 249.04742 
L 242.692931 252.964893 
L 247.504763 249.245777 
L 252.316594 256.535251 
L 257.128426 250.039169 
L 261.940257 262.188304 
L 266.752089 252.865696 
L 271.56392 249.14658 
L 276.375752 250.68384 
L 281.187584 247.113482 
L 285.999415 246.270492 
L 290.811247 246.51841 
L 295.623078 247.460598 
L 300.43491 249.097019 
L 305.246741 276.469696 
L 310.058573 262.733778 
L 314.870404 281.131001 
L 319.682236 272.65142 
L 324.494068 268.039715 
L 329.305899 276.866411 
L 334.117731 283.213696 
L 338.929562 292.387509 
L 343.741394 281.924392 
L 348.553225 286.040223 
L 353.365057 282.370706 
L 358.176888 274.535759 
L 362.98872 276.618455 
L 367.800551 285.345991 
L 372.612383 287.279928 
L 377.424215 279.197063 
L 382.236046 284.155885 
L 387.047878 282.172348 
L 391.859709 274.734116 
L 396.671541 288.321276 
L 401.483372 279.643339 
L 406.295204 286.536098 
L 411.107035 282.172348 
L 415.918867 279.097866 
L 420.730699 278.949107 
L 425.54253 277.362286 
L 430.354362 283.114537 
L 435.166193 280.535928 
L 439.978025 297.495089 
L 444.789856 284.949276 
L 449.601688 277.907759 
L 454.413519 312.867465 
L 459.225351 290.552769 
L 464.037182 283.610411 
L 468.849014 284.899678 
L 473.660846 284.750919 
L 478.472677 296.007465 
L 483.284509 282.370706 
L 488.09634 292.536267 
L 492.908172 413.531518 
L 497.720003 356.108356 
L 502.531835 337.661572 
L 507.343666 341.380688 
L 512.155498 349.71151 
L 516.96733 347.331259 
L 521.779161 332.85151 
L 526.590993 336.22351 
L 531.402824 334.388732 
L 536.214656 330.867973 
L 541.026487 330.173741 
L 545.838319 342.570795 
L 550.65015 331.264688 
L 555.461982 330.471259 
L 560.273814 330.620017 
L 565.085645 342.124481 
L 569.897477 329.380312 
L 574.709308 321.743722 
L 579.52114 329.677867 
L 584.332971 336.074751 
L 589.144803 346.041955 
L 593.956634 341.33109 
L 598.768466 341.678206 
L 603.580297 330.124143 
L 608.392129 340.190544 
L 613.203961 334.934205 
L 618.015792 335.281321 
L 622.827624 336.967303 
L 627.639455 339.793867 
L 632.451287 337.463215 
L 637.263118 337.0665 
L 642.07495 331.95892 
L 646.886781 389.233285 
L 651.698613 346.736187 
L 656.510445 349.166037 
L 661.322276 336.173911 
L 666.134108 337.116099 
L 670.945939 340.289742 
L 675.757771 356.65383 
L 680.569602 336.074751 
" clip-path="url(#pbc1c4332c4)" style="fill: none; stroke: #1f77b4; stroke-width: 1.5; stroke-linecap: square"/>
   </g>
   <g id="line2d_32">
    <path d="M 107.961648 482.607902 
L 112.773479 520.74125 
L 117.585311 501.451419 
L 122.397142 498.178598 
L 127.208974 503.484535 
L 132.020805 501.996893 
L 136.832637 496.839733 
L 141.644469 478.293732 
L 146.4563 474.574616 
L 151.268132 445.267982 
L 156.079963 451.41691 
L 160.891795 437.284277 
L 165.703626 431.184929 
L 170.515458 442.93733 
L 175.327289 441.20175 
L 180.139121 445.863036 
L 184.950953 459.0535 
L 189.762784 458.359268 
L 194.574616 441.499267 
L 199.386447 447.251518 
L 204.198279 463.070152 
L 209.01011 464.805732 
L 213.821942 467.384321 
L 218.633773 468.128152 
L 223.445605 447.598634 
L 228.257436 452.954152 
L 233.069268 464.1115 
L 237.8811 450.127625 
L 242.692931 456.177393 
L 247.504763 476.558152 
L 252.316594 482.756679 
L 257.128426 470.409205 
L 261.940257 477.549901 
L 266.752089 454.73933 
L 271.56392 457.31792 
L 276.375752 463.665205 
L 281.187584 463.665205 
L 285.999415 462.127983 
L 290.811247 466.640509 
L 295.623078 471.004259 
L 300.43491 306.867258 
L 305.246741 289.70974 
L 310.058573 288.222117 
L 314.870404 284.503001 
L 319.682236 282.86658 
L 324.494068 271.808392 
L 329.305899 277.01517 
L 334.117731 266.403295 
L 338.929562 282.519464 
L 343.741394 268.039715 
L 348.553225 265.956981 
L 353.365057 263.080894 
L 358.176888 259.956812 
L 362.98872 261.444473 
L 367.800551 258.518749 
L 372.612383 263.775126 
L 377.424215 255.989777 
L 382.236046 255.444304 
L 387.047878 252.617777 
L 391.859709 249.989608 
L 396.671541 256.882367 
L 401.483372 249.89041 
L 406.295204 251.179715 
L 411.107035 249.642492 
L 415.918867 258.617947 
L 420.730699 246.022536 
L 425.54253 246.022536 
L 430.354362 246.220893 
L 435.166193 246.815965 
L 439.978025 253.956642 
L 444.789856 244.88199 
L 449.601688 245.080348 
L 454.413519 300.123296 
L 459.225351 252.171464 
L 464.037182 249.791251 
L 468.849014 246.865526 
L 473.660846 248.25399 
L 478.472677 246.865526 
L 483.284509 244.485313 
L 488.09634 245.377903 
L 492.908172 397.960821 
L 497.720003 341.380688 
L 502.531835 341.430249 
L 507.343666 344.554331 
L 512.155498 350.108187 
L 516.96733 354.471974 
L 521.779161 348.223848 
L 526.590993 346.289911 
L 531.402824 354.422375 
L 536.214656 356.802588 
L 541.026487 350.703259 
L 545.838319 350.554501 
L 550.65015 349.959428 
L 555.461982 352.785955 
L 560.273814 353.133071 
L 565.085645 359.232438 
L 569.897477 350.65366 
L 574.709308 350.604061 
L 579.52114 353.083472 
L 584.332971 354.372776 
L 589.144803 360.422545 
L 593.956634 356.455472 
L 598.768466 356.108356 
L 603.580297 355.314965 
L 608.392129 354.81909 
L 613.203961 357.348062 
L 618.015792 355.76124 
L 622.827624 358.19109 
L 627.639455 357.843974 
L 632.451287 353.529786 
L 637.263118 353.381027 
L 642.07495 351.992563 
L 646.886781 394.688019 
L 651.698613 359.083679 
L 656.510445 359.976269 
L 661.322276 353.827303 
L 666.134108 357.843974 
L 670.945939 356.306714 
L 675.757771 366.125197 
L 680.569602 355.364563 
" clip-path="url(#pbc1c4332c4)" style="fill: none; stroke: #ff7f0e; stroke-width: 1.5; stroke-linecap: square"/>
   </g>
   <g id="line2d_33">
    <path d="M 107.961648 397.16743 
L 112.773479 461.681688 
L 117.585311 419.13501 
L 122.397142 481.368196 
L 127.208974 439.862866 
L 132.020805 464.508215 
L 136.832637 482.310384 
L 141.644469 458.954321 
L 146.4563 497.930661 
L 151.268132 470.756321 
L 156.079963 495.748786 
L 160.891795 490.145312 
L 165.703626 469.962911 
L 170.515458 480.326848 
L 175.327289 503.980429 
L 180.139121 491.682554 
L 184.950953 491.533776 
L 189.762784 497.583545 
L 194.574616 483.996384 
L 199.386447 492.02967 
L 204.198279 480.525206 
L 209.01011 495.649607 
L 213.821942 481.02108 
L 218.633773 484.095544 
L 223.445605 473.830785 
L 228.257436 480.475607 
L 233.069268 498.525714 
L 237.8811 503.534134 
L 242.692931 491.632955 
L 247.504763 507.203651 
L 252.316594 484.789795 
L 257.128426 503.335777 
L 261.940257 500.608429 
L 266.752089 501.897714 
L 271.56392 492.82308 
L 276.375752 502.790303 
L 281.187584 508.096241 
L 285.999415 508.145839 
L 290.811247 517.319652 
L 295.623078 511.51784 
L 300.43491 529.419188 
L 305.246741 539.733527 
L 310.058573 553.320706 
L 314.870404 527.237294 
L 319.682236 538.097125 
L 324.494068 535.617715 
L 329.305899 532.890348 
L 334.117731 537.948348 
L 338.929562 531.204348 
L 343.741394 521.286705 
L 348.553225 539.931884 
L 353.365057 531.154768 
L 358.176888 521.782598 
L 362.98872 520.047 
L 367.800551 521.088366 
L 372.612383 541.816241 
L 377.424215 537.502053 
L 382.236046 520.245357 
L 387.047878 524.559526 
L 391.859709 526.096768 
L 396.671541 499.170366 
L 401.483372 509.881419 
L 406.295204 515.038598 
L 411.107035 520.691652 
L 415.918867 520.84041 
L 420.730699 522.52641 
L 425.54253 524.460366 
L 430.354362 528.972893 
L 435.166193 529.964642 
L 439.978025 509.187187 
L 444.789856 526.344705 
L 449.601688 530.361357 
L 454.413519 593.685509 
L 459.225351 547.419696 
L 464.037182 553.370286 
L 468.849014 552.626474 
L 473.660846 544.841107 
L 478.472677 541.568285 
L 483.284509 536.064009 
L 488.09634 552.775232 
L 492.908172 353.777742 
L 497.720003 295.908267 
L 502.531835 284.155885 
L 507.343666 279.444982 
L 512.155498 271.808392 
L 516.96733 269.428179 
L 521.779161 276.668054 
L 526.590993 263.47757 
L 531.402824 264.023044 
L 536.214656 263.973483 
L 541.026487 260.651044 
L 545.838319 261.047759 
L 550.65015 256.832768 
L 555.461982 256.336893 
L 560.273814 254.353357 
L 565.085645 253.708724 
L 569.897477 253.212812 
L 574.709308 256.535251 
L 579.52114 250.187928 
L 584.332971 251.179715 
L 589.144803 249.791251 
L 593.956634 248.25399 
L 598.768466 248.650705 
L 603.580297 256.336893 
L 608.392129 251.179715 
L 613.203961 246.220893 
L 618.015792 245.57626 
L 622.827624 244.981188 
L 627.639455 245.328304 
L 632.451287 244.683671 
L 637.263118 244.534874 
L 642.07495 244.78283 
L 646.886781 275.27959 
L 651.698613 250.187928 
L 656.510445 249.543294 
L 661.322276 246.419251 
L 666.134108 245.179545 
L 670.945939 247.361401 
L 675.757771 246.865526 
L 680.569602 243.93984 
" clip-path="url(#pbc1c4332c4)" style="fill: none; stroke: #2ca02c; stroke-width: 1.5; stroke-linecap: square"/>
   </g>
   <g id="line2d_34">
    <path d="M 107.961648 495.996723 
L 112.773479 473.186152 
L 117.585311 487.368366 
L 122.397142 470.657143 
L 127.208974 477.202785 
L 132.020805 471.996027 
L 136.832637 488.856027 
L 141.644469 477.748259 
L 146.4563 474.723375 
L 151.268132 481.715312 
L 156.079963 480.277268 
L 160.891795 479.235901 
L 165.703626 478.194553 
L 170.515458 476.161437 
L 175.327289 480.872322 
L 180.139121 487.517143 
L 184.950953 478.045795 
L 189.762784 486.574955 
L 194.574616 478.938384 
L 199.386447 487.170027 
L 204.198279 489.252723 
L 209.01011 490.442848 
L 213.821942 485.087312 
L 218.633773 486.426196 
L 223.445605 481.91367 
L 228.257436 486.0295 
L 233.069268 484.442679 
L 237.8811 481.318616 
L 242.692931 485.682384 
L 247.504763 477.450723 
L 252.316594 483.054196 
L 257.128426 485.484027 
L 261.940257 488.856027 
L 266.752089 486.426196 
L 271.56392 483.153375 
L 276.375752 484.541839 
L 281.187584 481.665732 
L 285.999415 480.376428 
L 290.811247 477.748259 
L 295.623078 483.401312 
L 300.43491 482.062428 
L 305.246741 473.434089 
L 310.058573 473.731607 
L 314.870404 471.698491 
L 319.682236 462.772616 
L 324.494068 469.268679 
L 329.305899 471.549732 
L 334.117731 464.508215 
L 338.929562 457.962572 
L 343.741394 461.681688 
L 348.553225 465.499964 
L 353.365057 466.789268 
L 358.176888 471.847268 
L 362.98872 472.194384 
L 367.800551 468.871964 
L 372.612383 469.714973 
L 377.424215 470.508384 
L 382.236046 474.772974 
L 387.047878 474.425858 
L 391.859709 479.483858 
L 396.671541 474.128321 
L 401.483372 471.698491 
L 406.295204 473.533268 
L 411.107035 476.855669 
L 415.918867 477.103607 
L 420.730699 474.475437 
L 425.54253 472.194384 
L 430.354362 476.954848 
L 435.166193 469.615795 
L 439.978025 475.417607 
L 444.789856 465.896679 
L 449.601688 468.723205 
L 454.413519 469.367857 
L 459.225351 471.748089 
L 464.037182 469.863732 
L 468.849014 476.558152 
L 473.660846 472.888616 
L 478.472677 471.599331 
L 483.284509 477.252384 
L 488.09634 471.996027 
L 492.908172 480.872322 
L 497.720003 472.442321 
L 502.531835 477.5995 
L 507.343666 482.260786 
L 512.155498 482.359964 
L 516.96733 485.979902 
L 521.779161 488.905607 
L 526.590993 492.376786 
L 531.402824 490.492428 
L 536.214656 495.897544 
L 541.026487 495.352071 
L 545.838319 487.7155 
L 550.65015 490.690786 
L 555.461982 500.45967 
L 560.273814 501.501018 
L 565.085645 501.352259 
L 569.897477 505.468071 
L 574.709308 505.716009 
L 579.52114 507.699545 
L 584.332971 491.087482 
L 589.144803 498.724071 
L 593.956634 487.566723 
L 598.768466 501.848134 
L 603.580297 505.963946 
L 608.392129 483.153375 
L 613.203961 485.186491 
L 618.015792 492.228027 
L 622.827624 491.880911 
L 627.639455 499.021607 
L 632.451287 498.674491 
L 637.263118 498.525714 
L 642.07495 495.252892 
L 646.886781 471.500152 
L 651.698613 479.781375 
L 656.510445 480.822723 
L 661.322276 489.153544 
L 666.134108 488.310554 
L 670.945939 487.368366 
L 675.757771 489.996554 
L 680.569602 493.71567 
" clip-path="url(#pbc1c4332c4)" style="fill: none; stroke: #d62728; stroke-width: 1.5; stroke-linecap: square"/>
   </g>
   <g id="line2d_35">
    <path d="M 107.961648 425.432697 
L 112.773479 494.112366 
L 117.585311 480.475607 
L 122.397142 508.641714 
L 127.208974 467.731437 
L 132.020805 471.103437 
L 136.832637 487.616322 
L 141.644469 491.037902 
L 146.4563 506.906134 
L 151.268132 511.071545 
L 156.079963 511.170724 
L 160.891795 502.24483 
L 165.703626 500.310893 
L 170.515458 511.121125 
L 175.327289 512.31125 
L 180.139121 507.600366 
L 184.950953 500.162134 
L 189.762784 497.335607 
L 194.574616 492.971839 
L 199.386447 504.674661 
L 204.198279 487.81466 
L 209.01011 497.633143 
L 213.821942 492.624723 
L 218.633773 489.946955 
L 223.445605 514.04683 
L 228.257436 511.418661 
L 233.069268 496.095902 
L 237.8811 494.55866 
L 242.692931 490.938723 
L 247.504763 488.360134 
L 252.316594 476.012679 
L 257.128426 500.806786 
L 261.940257 506.311081 
L 266.752089 498.178598 
L 271.56392 492.376786 
L 276.375752 490.641206 
L 281.187584 500.211714 
L 285.999415 501.203482 
L 290.811247 485.037732 
L 295.623078 488.459312 
L 300.43491 508.840071 
L 305.246741 490.194911 
L 310.058573 481.269017 
L 314.870404 483.004616 
L 319.682236 483.847607 
L 324.494068 488.608071 
L 329.305899 487.864259 
L 334.117731 486.0295 
L 338.929562 498.426554 
L 343.741394 495.40167 
L 348.553225 499.616661 
L 353.365057 496.393438 
L 358.176888 489.798196 
L 362.98872 498.476134 
L 367.800551 488.806428 
L 372.612383 500.856366 
L 377.424215 512.509608 
L 382.236046 501.451419 
L 387.047878 501.401839 
L 391.859709 494.55866 
L 396.671541 492.128849 
L 401.483372 486.872491 
L 406.295204 494.310723 
L 411.107035 495.352071 
L 415.918867 502.19525 
L 420.730699 501.798554 
L 425.54253 494.211544 
L 430.354362 497.633143 
L 435.166193 500.558849 
L 439.978025 507.699545 
L 444.789856 503.980429 
L 449.601688 495.004955 
L 454.413519 490.39325 
L 459.225351 485.136911 
L 464.037182 486.872491 
L 468.849014 485.434428 
L 473.660846 492.971839 
L 478.472677 495.004955 
L 483.284509 497.13725 
L 488.09634 497.633143 
L 492.908172 462.723036 
L 497.720003 467.334741 
L 502.531835 468.425669 
L 507.343666 457.764214 
L 512.155498 463.466848 
L 516.96733 461.185794 
L 521.779161 464.309857 
L 526.590993 453.10291 
L 531.402824 450.325982 
L 536.214656 448.243268 
L 541.026487 442.342277 
L 545.838319 454.193857 
L 550.65015 461.582509 
L 555.461982 448.937499 
L 560.273814 451.218572 
L 565.085645 442.689393 
L 569.897477 461.086616 
L 574.709308 455.235205 
L 579.52114 451.069794 
L 584.332971 454.193857 
L 589.144803 461.681688 
L 593.956634 456.028616 
L 598.768466 462.921393 
L 603.580297 469.367857 
L 608.392129 480.426027 
L 613.203961 473.334911 
L 618.015792 470.657143 
L 622.827624 472.095205 
L 627.639455 479.087143 
L 632.451287 457.069983 
L 637.263118 454.838509 
L 642.07495 463.466848 
L 646.886781 431.928759 
L 651.698613 491.484196 
L 656.510445 474.624196 
L 661.322276 475.863901 
L 666.134108 466.194215 
L 670.945939 455.383982 
L 675.757771 450.970634 
L 680.569602 453.747562 
" clip-path="url(#pbc1c4332c4)" style="fill: none; stroke: #9467bd; stroke-width: 1.5; stroke-linecap: square"/>
   </g>
   <g id="patch_3">
    <path d="M 79.33125 590.660625 
L 79.33125 243.543125 
" style="fill: none; stroke: #000000; stroke-width: 0.8; stroke-linejoin: miter; stroke-linecap: square"/>
   </g>
   <g id="patch_4">
    <path d="M 709.2 590.660625 
L 709.2 243.543125 
" style="fill: none; stroke: #000000; stroke-width: 0.8; stroke-linejoin: miter; stroke-linecap: square"/>
   </g>
   <g id="patch_5">
    <path d="M 79.33125 590.660625 
L 709.2 590.660625 
" style="fill: none; stroke: #000000; stroke-width: 0.8; stroke-linejoin: miter; stroke-linecap: square"/>
   </g>
   <g id="patch_6">
    <path d="M 79.33125 243.543125 
L 709.2 243.543125 
" style="fill: none; stroke: #000000; stroke-width: 0.8; stroke-linejoin: miter; stroke-linecap: square"/>
   </g>
   <g id="text_18">
    <!-- Train -->
    <g transform="translate(370.278125 237.543125)scale(0.2 -0.2)">
     <defs>
      <path id="DejaVuSans-54" d="M -19 4666 
L 3928 4666 
L 3928 4134 
L 2272 4134 
L 2272 0 
L 1638 0 
L 1638 4134 
L -19 4134 
L -19 4666 
z
" transform="scale(0.015625)"/>
      <path id="DejaVuSans-69" d="M 603 3500 
L 1178 3500 
L 1178 0 
L 603 0 
L 603 3500 
z
M 603 4863 
L 1178 4863 
L 1178 4134 
L 603 4134 
L 603 4863 
z
" transform="scale(0.015625)"/>
      <path id="DejaVuSans-6e" d="M 3513 2113 
L 3513 0 
L 2938 0 
L 2938 2094 
Q 2938 2591 2744 2837 
Q 2550 3084 2163 3084 
Q 1697 3084 1428 2787 
Q 1159 2491 1159 1978 
L 1159 0 
L 581 0 
L 581 3500 
L 1159 3500 
L 1159 2956 
Q 1366 3272 1645 3428 
Q 1925 3584 2291 3584 
Q 2894 3584 3203 3211 
Q 3513 2838 3513 2113 
z
" transform="scale(0.015625)"/>
     </defs>
     <use xlink:href="#DejaVuSans-54"/>
     <use xlink:href="#DejaVuSans-72" x="46.333984"/>
     <use xlink:href="#DejaVuSans-61" x="87.447266"/>
     <use xlink:href="#DejaVuSans-69" x="148.726562"/>
     <use xlink:href="#DejaVuSans-6e" x="176.509766"/>
    </g>
   </g>
   <g id="legend_1">
    <g id="patch_7">
     <path d="M 639.610937 585.660625 
L 702.2 585.660625 
Q 704.2 585.660625 704.2 583.660625 
L 704.2 511.27 
Q 704.2 509.27 702.2 509.27 
L 639.610937 509.27 
Q 637.610937 509.27 637.610937 511.27 
L 637.610937 583.660625 
Q 637.610937 585.660625 639.610937 585.660625 
z
" style="fill: #ffffff; opacity: 0.8; stroke: #cccccc; stroke-linejoin: miter"/>
    </g>
    <g id="line2d_36">
     <path d="M 641.610937 517.368438 
L 651.610937 517.368438 
L 661.610937 517.368438 
" style="fill: none; stroke: #1f77b4; stroke-width: 1.5; stroke-linecap: square"/>
    </g>
    <g id="text_19">
     <!-- task 0 -->
     <g transform="translate(669.610937 520.868438)scale(0.1 -0.1)">
      <defs>
       <path id="DejaVuSans-6b" d="M 581 4863 
L 1159 4863 
L 1159 1991 
L 2875 3500 
L 3609 3500 
L 1753 1863 
L 3688 0 
L 2938 0 
L 1159 1709 
L 1159 0 
L 581 0 
L 581 4863 
z
" transform="scale(0.015625)"/>
      </defs>
      <use xlink:href="#DejaVuSans-74"/>
      <use xlink:href="#DejaVuSans-61" x="39.208984"/>
      <use xlink:href="#DejaVuSans-73" x="100.488281"/>
      <use xlink:href="#DejaVuSans-6b" x="152.587891"/>
      <use xlink:href="#DejaVuSans-20" x="210.498047"/>
      <use xlink:href="#DejaVuSans-30" x="242.285156"/>
     </g>
    </g>
    <g id="line2d_37">
     <path d="M 641.610937 532.046563 
L 651.610937 532.046563 
L 661.610937 532.046563 
" style="fill: none; stroke: #ff7f0e; stroke-width: 1.5; stroke-linecap: square"/>
    </g>
    <g id="text_20">
     <!-- task 1 -->
     <g transform="translate(669.610937 535.546563)scale(0.1 -0.1)">
      <use xlink:href="#DejaVuSans-74"/>
      <use xlink:href="#DejaVuSans-61" x="39.208984"/>
      <use xlink:href="#DejaVuSans-73" x="100.488281"/>
      <use xlink:href="#DejaVuSans-6b" x="152.587891"/>
      <use xlink:href="#DejaVuSans-20" x="210.498047"/>
      <use xlink:href="#DejaVuSans-31" x="242.285156"/>
     </g>
    </g>
    <g id="line2d_38">
     <path d="M 641.610937 546.724688 
L 651.610937 546.724688 
L 661.610937 546.724688 
" style="fill: none; stroke: #2ca02c; stroke-width: 1.5; stroke-linecap: square"/>
    </g>
    <g id="text_21">
     <!-- task 2 -->
     <g transform="translate(669.610937 550.224688)scale(0.1 -0.1)">
      <use xlink:href="#DejaVuSans-74"/>
      <use xlink:href="#DejaVuSans-61" x="39.208984"/>
      <use xlink:href="#DejaVuSans-73" x="100.488281"/>
      <use xlink:href="#DejaVuSans-6b" x="152.587891"/>
      <use xlink:href="#DejaVuSans-20" x="210.498047"/>
      <use xlink:href="#DejaVuSans-32" x="242.285156"/>
     </g>
    </g>
    <g id="line2d_39">
     <path d="M 641.610937 561.402812 
L 651.610937 561.402812 
L 661.610937 561.402812 
" style="fill: none; stroke: #d62728; stroke-width: 1.5; stroke-linecap: square"/>
    </g>
    <g id="text_22">
     <!-- task 3 -->
     <g transform="translate(669.610937 564.902812)scale(0.1 -0.1)">
      <use xlink:href="#DejaVuSans-74"/>
      <use xlink:href="#DejaVuSans-61" x="39.208984"/>
      <use xlink:href="#DejaVuSans-73" x="100.488281"/>
      <use xlink:href="#DejaVuSans-6b" x="152.587891"/>
      <use xlink:href="#DejaVuSans-20" x="210.498047"/>
      <use xlink:href="#DejaVuSans-33" x="242.285156"/>
     </g>
    </g>
    <g id="line2d_40">
     <path d="M 641.610937 576.080938 
L 651.610937 576.080938 
L 661.610937 576.080938 
" style="fill: none; stroke: #9467bd; stroke-width: 1.5; stroke-linecap: square"/>
    </g>
    <g id="text_23">
     <!-- task 4 -->
     <g transform="translate(669.610937 579.580938)scale(0.1 -0.1)">
      <use xlink:href="#DejaVuSans-74"/>
      <use xlink:href="#DejaVuSans-61" x="39.208984"/>
      <use xlink:href="#DejaVuSans-73" x="100.488281"/>
      <use xlink:href="#DejaVuSans-6b" x="152.587891"/>
      <use xlink:href="#DejaVuSans-20" x="210.498047"/>
      <use xlink:href="#DejaVuSans-34" x="242.285156"/>
     </g>
    </g>
   </g>
  </g>
  <g id="axes_2">
   <g id="patch_8">
    <path d="M 79.33125 1019.4875 
L 709.2 1019.4875 
L 709.2 672.37 
L 79.33125 672.37 
z
" style="fill: #ffffff"/>
   </g>
   <g id="matplotlib.axis_3">
    <g id="xtick_8">
     <g id="line2d_41">
      <path d="M 107.961648 1019.4875 
L 107.961648 672.37 
" clip-path="url(#pd6c1791175)" style="fill: none; stroke: #b0b0b0; stroke-width: 0.8; stroke-linecap: square"/>
     </g>
     <g id="line2d_42">
      <g>
       <use xlink:href="#m948b336013" x="107.961648" y="1019.4875" style="stroke: #000000; stroke-width: 0.8"/>
      </g>
     </g>
     <g id="text_24">
      <!-- 0 -->
      <g transform="translate(101.599148 1041.684375)scale(0.2 -0.2)">
       <use xlink:href="#DejaVuSans-30"/>
      </g>
     </g>
    </g>
    <g id="xtick_9">
     <g id="line2d_43">
      <path d="M 204.198279 1019.4875 
L 204.198279 672.37 
" clip-path="url(#pd6c1791175)" style="fill: none; stroke: #b0b0b0; stroke-width: 0.8; stroke-linecap: square"/>
     </g>
     <g id="line2d_44">
      <g>
       <use xlink:href="#m948b336013" x="204.198279" y="1019.4875" style="stroke: #000000; stroke-width: 0.8"/>
      </g>
     </g>
     <g id="text_25">
      <!-- 20 -->
      <g transform="translate(191.473279 1041.684375)scale(0.2 -0.2)">
       <use xlink:href="#DejaVuSans-32"/>
       <use xlink:href="#DejaVuSans-30" x="63.623047"/>
      </g>
     </g>
    </g>
    <g id="xtick_10">
     <g id="line2d_45">
      <path d="M 300.43491 1019.4875 
L 300.43491 672.37 
" clip-path="url(#pd6c1791175)" style="fill: none; stroke: #b0b0b0; stroke-width: 0.8; stroke-linecap: square"/>
     </g>
     <g id="line2d_46">
      <g>
       <use xlink:href="#m948b336013" x="300.43491" y="1019.4875" style="stroke: #000000; stroke-width: 0.8"/>
      </g>
     </g>
     <g id="text_26">
      <!-- 40 -->
      <g transform="translate(287.70991 1041.684375)scale(0.2 -0.2)">
       <use xlink:href="#DejaVuSans-34"/>
       <use xlink:href="#DejaVuSans-30" x="63.623047"/>
      </g>
     </g>
    </g>
    <g id="xtick_11">
     <g id="line2d_47">
      <path d="M 396.671541 1019.4875 
L 396.671541 672.37 
" clip-path="url(#pd6c1791175)" style="fill: none; stroke: #b0b0b0; stroke-width: 0.8; stroke-linecap: square"/>
     </g>
     <g id="line2d_48">
      <g>
       <use xlink:href="#m948b336013" x="396.671541" y="1019.4875" style="stroke: #000000; stroke-width: 0.8"/>
      </g>
     </g>
     <g id="text_27">
      <!-- 60 -->
      <g transform="translate(383.946541 1041.684375)scale(0.2 -0.2)">
       <use xlink:href="#DejaVuSans-36"/>
       <use xlink:href="#DejaVuSans-30" x="63.623047"/>
      </g>
     </g>
    </g>
    <g id="xtick_12">
     <g id="line2d_49">
      <path d="M 492.908172 1019.4875 
L 492.908172 672.37 
" clip-path="url(#pd6c1791175)" style="fill: none; stroke: #b0b0b0; stroke-width: 0.8; stroke-linecap: square"/>
     </g>
     <g id="line2d_50">
      <g>
       <use xlink:href="#m948b336013" x="492.908172" y="1019.4875" style="stroke: #000000; stroke-width: 0.8"/>
      </g>
     </g>
     <g id="text_28">
      <!-- 80 -->
      <g transform="translate(480.183172 1041.684375)scale(0.2 -0.2)">
       <use xlink:href="#DejaVuSans-38"/>
       <use xlink:href="#DejaVuSans-30" x="63.623047"/>
      </g>
     </g>
    </g>
    <g id="xtick_13">
     <g id="line2d_51">
      <path d="M 589.144803 1019.4875 
L 589.144803 672.37 
" clip-path="url(#pd6c1791175)" style="fill: none; stroke: #b0b0b0; stroke-width: 0.8; stroke-linecap: square"/>
     </g>
     <g id="line2d_52">
      <g>
       <use xlink:href="#m948b336013" x="589.144803" y="1019.4875" style="stroke: #000000; stroke-width: 0.8"/>
      </g>
     </g>
     <g id="text_29">
      <!-- 100 -->
      <g transform="translate(570.057303 1041.684375)scale(0.2 -0.2)">
       <use xlink:href="#DejaVuSans-31"/>
       <use xlink:href="#DejaVuSans-30" x="63.623047"/>
       <use xlink:href="#DejaVuSans-30" x="127.246094"/>
      </g>
     </g>
    </g>
    <g id="xtick_14">
     <g id="line2d_53">
      <path d="M 685.381434 1019.4875 
L 685.381434 672.37 
" clip-path="url(#pd6c1791175)" style="fill: none; stroke: #b0b0b0; stroke-width: 0.8; stroke-linecap: square"/>
     </g>
     <g id="line2d_54">
      <g>
       <use xlink:href="#m948b336013" x="685.381434" y="1019.4875" style="stroke: #000000; stroke-width: 0.8"/>
      </g>
     </g>
     <g id="text_30">
      <!-- 120 -->
      <g transform="translate(666.293934 1041.684375)scale(0.2 -0.2)">
       <use xlink:href="#DejaVuSans-31"/>
       <use xlink:href="#DejaVuSans-32" x="63.623047"/>
       <use xlink:href="#DejaVuSans-30" x="127.246094"/>
      </g>
     </g>
    </g>
    <g id="text_31">
     <!-- step -->
     <g transform="translate(372.634375 1065.040625)scale(0.2 -0.2)">
      <use xlink:href="#DejaVuSans-73"/>
      <use xlink:href="#DejaVuSans-74" x="52.099609"/>
      <use xlink:href="#DejaVuSans-65" x="91.308594"/>
      <use xlink:href="#DejaVuSans-70" x="152.832031"/>
     </g>
    </g>
   </g>
   <g id="matplotlib.axis_4">
    <g id="ytick_9">
     <g id="line2d_55">
      <path d="M 79.33125 1019.4875 
L 709.2 1019.4875 
" clip-path="url(#pd6c1791175)" style="fill: none; stroke: #b0b0b0; stroke-width: 0.8; stroke-linecap: square"/>
     </g>
     <g id="line2d_56">
      <g>
       <use xlink:href="#m95e2b3836d" x="79.33125" y="1019.4875" style="stroke: #000000; stroke-width: 0.8"/>
      </g>
     </g>
     <g id="text_32">
      <!-- 30 -->
      <g transform="translate(46.88125 1027.085938)scale(0.2 -0.2)">
       <use xlink:href="#DejaVuSans-33"/>
       <use xlink:href="#DejaVuSans-30" x="63.623047"/>
      </g>
     </g>
    </g>
    <g id="ytick_10">
     <g id="line2d_57">
      <path d="M 79.33125 969.899286 
L 709.2 969.899286 
" clip-path="url(#pd6c1791175)" style="fill: none; stroke: #b0b0b0; stroke-width: 0.8; stroke-linecap: square"/>
     </g>
     <g id="line2d_58">
      <g>
       <use xlink:href="#m95e2b3836d" x="79.33125" y="969.899286" style="stroke: #000000; stroke-width: 0.8"/>
      </g>
     </g>
     <g id="text_33">
      <!-- 40 -->
      <g transform="translate(46.88125 977.497723)scale(0.2 -0.2)">
       <use xlink:href="#DejaVuSans-34"/>
       <use xlink:href="#DejaVuSans-30" x="63.623047"/>
      </g>
     </g>
    </g>
    <g id="ytick_11">
     <g id="line2d_59">
      <path d="M 79.33125 920.311071 
L 709.2 920.311071 
" clip-path="url(#pd6c1791175)" style="fill: none; stroke: #b0b0b0; stroke-width: 0.8; stroke-linecap: square"/>
     </g>
     <g id="line2d_60">
      <g>
       <use xlink:href="#m95e2b3836d" x="79.33125" y="920.311071" style="stroke: #000000; stroke-width: 0.8"/>
      </g>
     </g>
     <g id="text_34">
      <!-- 50 -->
      <g transform="translate(46.88125 927.909509)scale(0.2 -0.2)">
       <use xlink:href="#DejaVuSans-35"/>
       <use xlink:href="#DejaVuSans-30" x="63.623047"/>
      </g>
     </g>
    </g>
    <g id="ytick_12">
     <g id="line2d_61">
      <path d="M 79.33125 870.722857 
L 709.2 870.722857 
" clip-path="url(#pd6c1791175)" style="fill: none; stroke: #b0b0b0; stroke-width: 0.8; stroke-linecap: square"/>
     </g>
     <g id="line2d_62">
      <g>
       <use xlink:href="#m95e2b3836d" x="79.33125" y="870.722857" style="stroke: #000000; stroke-width: 0.8"/>
      </g>
     </g>
     <g id="text_35">
      <!-- 60 -->
      <g transform="translate(46.88125 878.321295)scale(0.2 -0.2)">
       <use xlink:href="#DejaVuSans-36"/>
       <use xlink:href="#DejaVuSans-30" x="63.623047"/>
      </g>
     </g>
    </g>
    <g id="ytick_13">
     <g id="line2d_63">
      <path d="M 79.33125 821.134643 
L 709.2 821.134643 
" clip-path="url(#pd6c1791175)" style="fill: none; stroke: #b0b0b0; stroke-width: 0.8; stroke-linecap: square"/>
     </g>
     <g id="line2d_64">
      <g>
       <use xlink:href="#m95e2b3836d" x="79.33125" y="821.134643" style="stroke: #000000; stroke-width: 0.8"/>
      </g>
     </g>
     <g id="text_36">
      <!-- 70 -->
      <g transform="translate(46.88125 828.73308)scale(0.2 -0.2)">
       <use xlink:href="#DejaVuSans-37"/>
       <use xlink:href="#DejaVuSans-30" x="63.623047"/>
      </g>
     </g>
    </g>
    <g id="ytick_14">
     <g id="line2d_65">
      <path d="M 79.33125 771.546429 
L 709.2 771.546429 
" clip-path="url(#pd6c1791175)" style="fill: none; stroke: #b0b0b0; stroke-width: 0.8; stroke-linecap: square"/>
     </g>
     <g id="line2d_66">
      <g>
       <use xlink:href="#m95e2b3836d" x="79.33125" y="771.546429" style="stroke: #000000; stroke-width: 0.8"/>
      </g>
     </g>
     <g id="text_37">
      <!-- 80 -->
      <g transform="translate(46.88125 779.144866)scale(0.2 -0.2)">
       <use xlink:href="#DejaVuSans-38"/>
       <use xlink:href="#DejaVuSans-30" x="63.623047"/>
      </g>
     </g>
    </g>
    <g id="ytick_15">
     <g id="line2d_67">
      <path d="M 79.33125 721.958214 
L 709.2 721.958214 
" clip-path="url(#pd6c1791175)" style="fill: none; stroke: #b0b0b0; stroke-width: 0.8; stroke-linecap: square"/>
     </g>
     <g id="line2d_68">
      <g>
       <use xlink:href="#m95e2b3836d" x="79.33125" y="721.958214" style="stroke: #000000; stroke-width: 0.8"/>
      </g>
     </g>
     <g id="text_38">
      <!-- 90 -->
      <g transform="translate(46.88125 729.556652)scale(0.2 -0.2)">
       <use xlink:href="#DejaVuSans-39"/>
       <use xlink:href="#DejaVuSans-30" x="63.623047"/>
      </g>
     </g>
    </g>
    <g id="ytick_16">
     <g id="line2d_69">
      <path d="M 79.33125 672.37 
L 709.2 672.37 
" clip-path="url(#pd6c1791175)" style="fill: none; stroke: #b0b0b0; stroke-width: 0.8; stroke-linecap: square"/>
     </g>
     <g id="line2d_70">
      <g>
       <use xlink:href="#m95e2b3836d" x="79.33125" y="672.37" style="stroke: #000000; stroke-width: 0.8"/>
      </g>
     </g>
     <g id="text_39">
      <!-- 100 -->
      <g transform="translate(34.15625 679.968437)scale(0.2 -0.2)">
       <use xlink:href="#DejaVuSans-31"/>
       <use xlink:href="#DejaVuSans-30" x="63.623047"/>
       <use xlink:href="#DejaVuSans-30" x="127.246094"/>
      </g>
     </g>
    </g>
    <g id="text_40">
     <!-- accuracy [%] -->
     <g transform="translate(25.996875 911.530312)rotate(-90)scale(0.2 -0.2)">
      <use xlink:href="#DejaVuSans-61"/>
      <use xlink:href="#DejaVuSans-63" x="61.279297"/>
      <use xlink:href="#DejaVuSans-63" x="116.259766"/>
      <use xlink:href="#DejaVuSans-75" x="171.240234"/>
      <use xlink:href="#DejaVuSans-72" x="234.619141"/>
      <use xlink:href="#DejaVuSans-61" x="275.732422"/>
      <use xlink:href="#DejaVuSans-63" x="337.011719"/>
      <use xlink:href="#DejaVuSans-79" x="391.992188"/>
      <use xlink:href="#DejaVuSans-20" x="451.171875"/>
      <use xlink:href="#DejaVuSans-5b" x="482.958984"/>
      <use xlink:href="#DejaVuSans-25" x="521.972656"/>
      <use xlink:href="#DejaVuSans-5d" x="616.992188"/>
     </g>
    </g>
   </g>
   <g id="line2d_71">
    <path d="M 107.961648 920.806946 
L 112.773479 751.215268 
L 117.585311 734.107312 
L 122.397142 776.009375 
L 127.208974 753.942597 
L 132.020805 716.007644 
L 136.832637 712.040571 
L 141.644469 711.544697 
L 146.4563 729.396446 
L 151.268132 705.34617 
L 156.079963 718.982929 
L 160.891795 704.354383 
L 165.703626 708.569412 
L 170.515458 702.370885 
L 175.327289 704.602339 
L 180.139121 706.337919 
L 184.950953 726.66908 
L 189.762784 715.759687 
L 194.574616 704.602339 
L 199.386447 705.34617 
L 204.198279 703.362634 
L 209.01011 704.850295 
L 213.821942 704.354383 
L 218.633773 701.379098 
L 223.445605 703.61059 
L 228.257436 702.370885 
L 233.069268 702.866759 
L 237.8811 700.139392 
L 242.692931 704.106465 
L 247.504763 702.866759 
L 252.316594 711.048822 
L 257.128426 703.61059 
L 261.940257 706.585875 
L 266.752089 703.114678 
L 271.56392 700.387349 
L 276.375752 700.387349 
L 281.187584 700.139392 
L 285.999415 700.883223 
L 290.811247 699.395562 
L 295.623078 702.122929 
L 300.43491 703.61059 
L 305.246741 725.67733 
L 310.058573 711.544697 
L 314.870404 721.958214 
L 319.682236 712.784402 
L 324.494068 710.057035 
L 329.305899 716.999393 
L 334.117731 721.958214 
L 338.929562 730.884108 
L 343.741394 721.710258 
L 348.553225 724.189669 
L 353.365057 720.222634 
L 358.176888 715.015857 
L 362.98872 718.487054 
L 367.800551 722.454089 
L 372.612383 724.685581 
L 377.424215 720.966465 
L 382.236046 723.693794 
L 387.047878 722.20617 
L 391.859709 716.255562 
L 396.671541 726.421161 
L 401.483372 718.734973 
L 406.295204 729.14849 
L 411.107035 722.454089 
L 415.918867 715.511731 
L 420.730699 723.693794 
L 425.54253 718.982929 
L 430.354362 727.908785 
L 435.166193 720.222634 
L 439.978025 736.586722 
L 444.789856 724.685581 
L 449.601688 717.991142 
L 454.413519 745.26466 
L 459.225351 731.627901 
L 464.037182 720.966465 
L 468.849014 723.445876 
L 473.660846 727.908785 
L 478.472677 734.851142 
L 483.284509 721.214384 
L 488.09634 730.388196 
L 492.908172 845.680794 
L 497.720003 785.183188 
L 502.531835 769.810849 
L 507.343666 773.282009 
L 512.155498 775.513501 
L 516.96733 777.001125 
L 521.779161 763.86024 
L 526.590993 766.091733 
L 531.402824 767.827312 
L 536.214656 766.339651 
L 541.026487 765.099946 
L 545.838319 774.76967 
L 550.65015 764.356153 
L 555.461982 766.339651 
L 560.273814 765.099946 
L 565.085645 774.025839 
L 569.897477 762.868491 
L 574.709308 754.190554 
L 579.52114 765.099946 
L 584.332971 767.827312 
L 589.144803 776.50525 
L 593.956634 775.265545 
L 598.768466 775.513501 
L 603.580297 762.12466 
L 608.392129 773.529965 
L 613.203961 768.571143 
L 618.015792 766.091733 
L 622.827624 767.579356 
L 627.639455 770.802598 
L 632.451287 770.554679 
L 637.263118 767.827312 
L 642.07495 767.579356 
L 646.886781 823.614054 
L 651.698613 778.984661 
L 656.510445 779.232617 
L 661.322276 767.579356 
L 666.134108 768.323187 
L 670.945939 772.042303 
L 675.757771 794.604956 
L 680.569602 768.323187 
" clip-path="url(#pd6c1791175)" style="fill: none; stroke: #1f77b4; stroke-width: 1.5; stroke-linecap: square"/>
   </g>
   <g id="line2d_72">
    <path d="M 107.961648 908.905786 
L 112.773479 951.303705 
L 117.585311 929.236946 
L 122.397142 926.013724 
L 127.208974 931.716357 
L 132.020805 937.914884 
L 136.832637 926.509598 
L 141.644469 907.170187 
L 146.4563 908.657849 
L 151.268132 877.913152 
L 156.079963 882.871973 
L 160.891795 867.499616 
L 165.703626 867.995509 
L 170.515458 870.970794 
L 175.327289 869.979026 
L 180.139121 876.425509 
L 184.950953 884.359616 
L 189.762784 886.591089 
L 194.574616 868.491384 
L 199.386447 875.929616 
L 204.198279 891.054017 
L 209.01011 897.748438 
L 213.821942 896.75667 
L 218.633773 898.988143 
L 223.445605 884.855491 
L 228.257436 886.591089 
L 233.069268 893.533428 
L 237.8811 885.351384 
L 242.692931 888.822563 
L 247.504763 901.963428 
L 252.316594 914.112545 
L 257.128426 899.979911 
L 261.940257 907.418143 
L 266.752089 887.334901 
L 271.56392 894.773134 
L 276.375752 890.062268 
L 281.187584 892.541679 
L 285.999415 889.318437 
L 290.811247 895.516964 
L 295.623078 899.979911 
L 300.43491 735.099099 
L 305.246741 720.222634 
L 310.058573 722.20617 
L 314.870404 717.495267 
L 319.682236 718.487054 
L 324.494068 710.800866 
L 329.305899 714.024108 
L 334.117731 707.329706 
L 338.929562 721.46234 
L 343.741394 707.577625 
L 348.553225 708.81733 
L 353.365057 708.569412 
L 358.176888 708.569412 
L 362.98872 712.288528 
L 367.800551 708.569412 
L 372.612383 712.040571 
L 377.424215 707.08175 
L 382.236046 704.850295 
L 387.047878 705.842045 
L 391.859709 705.098214 
L 396.671541 706.585875 
L 401.483372 704.106465 
L 406.295204 706.585875 
L 411.107035 706.585875 
L 415.918867 715.759687 
L 420.730699 705.594088 
L 425.54253 705.34617 
L 430.354362 705.594088 
L 435.166193 709.809117 
L 439.978025 711.544697 
L 444.789856 705.34617 
L 449.601688 706.585875 
L 454.413519 736.586722 
L 459.225351 707.577625 
L 464.037182 709.809117 
L 468.849014 708.569412 
L 473.660846 709.561161 
L 478.472677 705.34617 
L 483.284509 704.602339 
L 488.09634 706.090001 
L 492.908172 827.829044 
L 497.720003 781.959946 
L 502.531835 774.76967 
L 507.343666 779.480535 
L 512.155498 783.943482 
L 516.96733 788.902304 
L 521.779161 778.24083 
L 526.590993 777.249081 
L 531.402824 788.406429 
L 536.214656 787.166724 
L 541.026487 780.968197 
L 545.838319 780.224366 
L 550.65015 782.455821 
L 555.461982 782.703777 
L 560.273814 781.712028 
L 565.085645 791.62967 
L 569.897477 779.97641 
L 574.709308 785.927018 
L 579.52114 781.712028 
L 584.332971 792.125545 
L 589.144803 792.373463 
L 593.956634 788.902304 
L 598.768466 786.670849 
L 603.580297 786.918767 
L 608.392129 783.695526 
L 613.203961 785.679062 
L 618.015792 786.174937 
L 622.827624 791.133758 
L 627.639455 790.142009 
L 632.451287 785.431144 
L 637.263118 784.935231 
L 642.07495 784.191438 
L 646.886781 820.390812 
L 651.698613 787.414642 
L 656.510445 792.62142 
L 661.322276 785.927018 
L 666.134108 787.662598 
L 670.945939 785.431144 
L 675.757771 791.381714 
L 680.569602 785.927018 
" clip-path="url(#pd6c1791175)" style="fill: none; stroke: #ff7f0e; stroke-width: 1.5; stroke-linecap: square"/>
   </g>
   <g id="line2d_73">
    <path d="M 107.961648 812.208749 
L 112.773479 889.566375 
L 117.585311 839.978179 
L 122.397142 910.889303 
L 127.208974 864.52433 
L 132.020805 892.293723 
L 136.832637 902.211366 
L 141.644469 872.2105 
L 146.4563 915.35225 
L 151.268132 890.310206 
L 156.079963 920.063134 
L 160.891795 913.120777 
L 165.703626 898.244312 
L 170.515458 899.731955 
L 175.327289 928.493134 
L 180.139121 916.096081 
L 184.950953 909.897554 
L 189.762784 917.08783 
L 194.574616 910.393429 
L 199.386447 919.319303 
L 204.198279 909.153723 
L 209.01011 917.831661 
L 213.821942 900.723723 
L 218.633773 912.872839 
L 223.445605 898.244312 
L 228.257436 902.459322 
L 233.069268 924.278125 
L 237.8811 924.526062 
L 242.692931 910.145491 
L 247.504763 933.699893 
L 252.316594 903.699027 
L 257.128426 931.716357 
L 261.940257 929.484884 
L 266.752089 933.699893 
L 271.56392 926.509598 
L 276.375752 928.493134 
L 281.187584 938.658714 
L 285.999415 937.419009 
L 290.811247 944.113411 
L 295.623078 946.096947 
L 300.43491 960.973411 
L 305.246741 961.965179 
L 310.058573 977.337518 
L 314.870404 952.791348 
L 319.682236 953.535179 
L 324.494068 960.973411 
L 329.305899 953.039285 
L 334.117731 960.477517 
L 338.929562 959.733706 
L 343.741394 942.129893 
L 348.553225 966.924 
L 353.365057 966.428107 
L 358.176888 952.295473 
L 362.98872 942.873705 
L 367.800551 950.064 
L 372.612383 958.741937 
L 377.424215 970.39516 
L 382.236046 947.832527 
L 387.047878 954.774884 
L 391.859709 950.064 
L 396.671541 926.757536 
L 401.483372 940.394294 
L 406.295204 943.369599 
L 411.107035 953.783116 
L 415.918867 944.113411 
L 420.730699 947.832527 
L 425.54253 957.502232 
L 430.354362 958.989875 
L 435.166193 957.006358 
L 439.978025 934.939598 
L 444.789856 951.303705 
L 449.601688 956.758401 
L 454.413519 1022.958679 
L 459.225351 969.651348 
L 464.037182 972.130759 
L 468.849014 978.329286 
L 473.660846 967.171938 
L 478.472677 972.130759 
L 483.284509 958.246063 
L 488.09634 977.585455 
L 492.908172 786.174937 
L 497.720003 725.429374 
L 502.531835 716.999393 
L 507.343666 711.792615 
L 512.155498 706.337919 
L 516.96733 707.08175 
L 521.779161 714.272026 
L 526.590993 702.370885 
L 531.402824 703.858509 
L 536.214656 703.114678 
L 541.026487 704.850295 
L 545.838319 704.106465 
L 550.65015 703.858509 
L 555.461982 701.874972 
L 560.273814 701.379098 
L 565.085645 704.106465 
L 569.897477 701.379098 
L 574.709308 704.106465 
L 579.52114 699.643518 
L 584.332971 701.627054 
L 589.144803 701.131179 
L 593.956634 700.139392 
L 598.768466 700.139392 
L 603.580297 705.34617 
L 608.392129 700.635267 
L 613.203961 700.883223 
L 618.015792 698.651769 
L 622.827624 698.155856 
L 627.639455 699.891474 
L 632.451287 698.899687 
L 637.263118 699.891474 
L 642.07495 699.395562 
L 646.886781 717.247349 
L 651.698613 699.891474 
L 656.510445 697.907938 
L 661.322276 700.883223 
L 666.134108 698.899687 
L 670.945939 699.147643 
L 675.757771 701.131179 
L 680.569602 698.899687 
" clip-path="url(#pd6c1791175)" style="fill: none; stroke: #2ca02c; stroke-width: 1.5; stroke-linecap: square"/>
   </g>
   <g id="line2d_74">
    <path d="M 107.961648 929.236946 
L 112.773479 901.467554 
L 117.585311 907.914018 
L 122.397142 896.75667 
L 127.208974 908.657849 
L 132.020805 891.054017 
L 136.832637 918.079598 
L 141.644469 906.178438 
L 146.4563 906.674313 
L 151.268132 915.104313 
L 156.079963 907.418143 
L 160.891795 909.153723 
L 165.703626 904.442839 
L 170.515458 906.92225 
L 175.327289 908.657849 
L 180.139121 916.344018 
L 184.950953 903.946964 
L 189.762784 921.302839 
L 194.574616 902.459322 
L 199.386447 912.872839 
L 204.198279 919.071366 
L 209.01011 918.575491 
L 213.821942 917.335786 
L 218.633773 917.831661 
L 223.445605 910.393429 
L 228.257436 910.641366 
L 233.069268 908.905786 
L 237.8811 911.137259 
L 242.692931 915.600187 
L 247.504763 906.92225 
L 252.316594 912.872839 
L 257.128426 915.104313 
L 261.940257 922.790482 
L 266.752089 918.079598 
L 271.56392 911.385197 
L 276.375752 912.129009 
L 281.187584 908.161955 
L 285.999415 905.930482 
L 290.811247 909.649598 
L 295.623078 911.137259 
L 300.43491 912.624902 
L 305.246741 903.946964 
L 310.058573 904.194902 
L 314.870404 898.49225 
L 319.682236 892.045786 
L 324.494068 897.996375 
L 329.305899 899.23608 
L 334.117731 893.781384 
L 338.929562 889.566375 
L 343.741394 895.02109 
L 348.553225 883.615785 
L 353.365057 896.012839 
L 358.176888 897.748438 
L 362.98872 897.004607 
L 367.800551 892.541679 
L 372.612383 895.02109 
L 377.424215 902.459322 
L 382.236046 902.707259 
L 387.047878 902.707259 
L 391.859709 907.170187 
L 396.671541 903.699027 
L 401.483372 901.467554 
L 406.295204 901.715491 
L 411.107035 900.723723 
L 415.918867 898.244312 
L 420.730699 896.012839 
L 425.54253 898.49225 
L 430.354362 905.18667 
L 435.166193 897.5005 
L 439.978025 902.211366 
L 444.789856 889.318437 
L 449.601688 896.508732 
L 454.413519 901.467554 
L 459.225351 899.23608 
L 464.037182 900.227848 
L 468.849014 902.211366 
L 473.660846 894.773134 
L 478.472677 896.75667 
L 483.284509 902.707259 
L 488.09634 902.211366 
L 492.908172 906.426375 
L 497.720003 897.004607 
L 502.531835 913.61667 
L 507.343666 904.442839 
L 512.155498 904.938733 
L 516.96733 907.418143 
L 521.779161 907.170187 
L 526.590993 917.08783 
L 531.402824 918.823429 
L 536.214656 918.327535 
L 541.026487 917.831661 
L 545.838319 909.153723 
L 550.65015 911.137259 
L 555.461982 922.294608 
L 560.273814 927.997241 
L 565.085645 921.054902 
L 569.897477 929.73284 
L 574.709308 927.501366 
L 579.52114 926.509598 
L 584.332971 915.848125 
L 589.144803 923.038419 
L 593.956634 910.145491 
L 598.768466 919.815197 
L 603.580297 931.220482 
L 608.392129 904.442839 
L 613.203961 905.18667 
L 618.015792 904.442839 
L 622.827624 908.409892 
L 627.639455 917.583723 
L 632.451287 918.823429 
L 637.263118 922.542545 
L 642.07495 917.583723 
L 646.886781 896.75667 
L 651.698613 906.674313 
L 656.510445 903.451071 
L 661.322276 911.385197 
L 666.134108 902.459322 
L 670.945939 899.979911 
L 675.757771 907.418143 
L 680.569602 913.120777 
" clip-path="url(#pd6c1791175)" style="fill: none; stroke: #d62728; stroke-width: 1.5; stroke-linecap: square"/>
   </g>
   <g id="line2d_75">
    <path d="M 107.961648 859.069634 
L 112.773479 924.774018 
L 117.585311 912.624902 
L 122.397142 928.989009 
L 127.208974 894.277259 
L 132.020805 900.475786 
L 136.832637 918.327535 
L 141.644469 918.575491 
L 146.4563 932.21225 
L 151.268132 937.419009 
L 156.079963 939.154589 
L 160.891795 936.179304 
L 165.703626 926.757536 
L 170.515458 938.162821 
L 175.327289 928.493134 
L 180.139121 939.154589 
L 184.950953 928.741072 
L 189.762784 932.460188 
L 194.574616 913.864607 
L 199.386447 925.765767 
L 204.198279 918.575491 
L 209.01011 922.294608 
L 213.821942 913.61667 
L 218.633773 915.848125 
L 223.445605 934.691661 
L 228.257436 933.451956 
L 233.069268 922.542545 
L 237.8811 924.774018 
L 242.692931 918.327535 
L 247.504763 911.633134 
L 252.316594 898.988143 
L 257.128426 922.542545 
L 261.940257 935.435473 
L 266.752089 925.51783 
L 271.56392 925.269893 
L 276.375752 913.864607 
L 281.187584 921.798714 
L 285.999415 921.798714 
L 290.811247 908.409892 
L 295.623078 910.889303 
L 300.43491 930.972545 
L 305.246741 914.856375 
L 310.058573 900.723723 
L 314.870404 904.194902 
L 319.682236 912.129009 
L 324.494068 921.798714 
L 329.305899 913.368714 
L 334.117731 913.61667 
L 338.929562 922.790482 
L 343.741394 920.311071 
L 348.553225 927.749304 
L 353.365057 921.054902 
L 358.176888 920.559009 
L 362.98872 926.013724 
L 367.800551 915.600187 
L 372.612383 926.013724 
L 377.424215 935.931366 
L 382.236046 923.286357 
L 387.047878 923.534313 
L 391.859709 922.790482 
L 396.671541 909.401661 
L 401.483372 909.401661 
L 406.295204 922.294608 
L 411.107035 922.790482 
L 415.918867 926.013724 
L 420.730699 931.716357 
L 425.54253 914.112545 
L 430.354362 927.253429 
L 435.166193 928.493134 
L 439.978025 926.509598 
L 444.789856 927.253429 
L 449.601688 918.823429 
L 454.413519 921.798714 
L 459.225351 912.376965 
L 464.037182 911.137259 
L 468.849014 912.872839 
L 473.660846 919.071366 
L 478.472677 917.831661 
L 483.284509 920.559009 
L 488.09634 920.806946 
L 492.908172 894.773134 
L 497.720003 897.748438 
L 502.531835 898.244312 
L 507.343666 893.533428 
L 512.155498 903.203134 
L 516.96733 887.582858 
L 521.779161 898.988143 
L 526.590993 881.632268 
L 531.402824 887.582858 
L 536.214656 883.615785 
L 541.026487 875.929616 
L 545.838319 881.384331 
L 550.65015 900.475786 
L 555.461982 878.161089 
L 560.273814 878.161089 
L 565.085645 873.698142 
L 569.897477 892.293723 
L 574.709308 892.293723 
L 579.52114 884.359616 
L 584.332971 884.111679 
L 589.144803 902.459322 
L 593.956634 887.830795 
L 598.768466 899.23608 
L 603.580297 902.211366 
L 608.392129 906.426375 
L 613.203961 907.418143 
L 618.015792 899.731955 
L 622.827624 899.484018 
L 627.639455 910.145491 
L 632.451287 885.103447 
L 637.263118 892.789616 
L 642.07495 894.773134 
L 646.886781 866.25991 
L 651.698613 927.253429 
L 656.510445 906.92225 
L 661.322276 903.451071 
L 666.134108 898.49225 
L 670.945939 893.285491 
L 675.757771 878.409027 
L 680.569602 885.103447 
" clip-path="url(#pd6c1791175)" style="fill: none; stroke: #9467bd; stroke-width: 1.5; stroke-linecap: square"/>
   </g>
   <g id="patch_9">
    <path d="M 79.33125 1019.4875 
L 79.33125 672.37 
" style="fill: none; stroke: #000000; stroke-width: 0.8; stroke-linejoin: miter; stroke-linecap: square"/>
   </g>
   <g id="patch_10">
    <path d="M 709.2 1019.4875 
L 709.2 672.37 
" style="fill: none; stroke: #000000; stroke-width: 0.8; stroke-linejoin: miter; stroke-linecap: square"/>
   </g>
   <g id="patch_11">
    <path d="M 79.33125 1019.4875 
L 709.2 1019.4875 
" style="fill: none; stroke: #000000; stroke-width: 0.8; stroke-linejoin: miter; stroke-linecap: square"/>
   </g>
   <g id="patch_12">
    <path d="M 79.33125 672.37 
L 709.2 672.37 
" style="fill: none; stroke: #000000; stroke-width: 0.8; stroke-linejoin: miter; stroke-linecap: square"/>
   </g>
   <g id="text_41">
    <!-- Test -->
    <g transform="translate(374.575 666.37)scale(0.2 -0.2)">
     <use xlink:href="#DejaVuSans-54"/>
     <use xlink:href="#DejaVuSans-65" x="44.083984"/>
     <use xlink:href="#DejaVuSans-73" x="105.607422"/>
     <use xlink:href="#DejaVuSans-74" x="157.707031"/>
    </g>
   </g>
   <g id="legend_2">
    <g id="patch_13">
     <path d="M 639.610937 1014.4875 
L 702.2 1014.4875 
Q 704.2 1014.4875 704.2 1012.4875 
L 704.2 940.096875 
Q 704.2 938.096875 702.2 938.096875 
L 639.610937 938.096875 
Q 637.610937 938.096875 637.610937 940.096875 
L 637.610937 1012.4875 
Q 637.610937 1014.4875 639.610937 1014.4875 
z
" style="fill: #ffffff; opacity: 0.8; stroke: #cccccc; stroke-linejoin: miter"/>
    </g>
    <g id="line2d_76">
     <path d="M 641.610937 946.195312 
L 651.610937 946.195312 
L 661.610937 946.195312 
" style="fill: none; stroke: #1f77b4; stroke-width: 1.5; stroke-linecap: square"/>
    </g>
    <g id="text_42">
     <!-- task 0 -->
     <g transform="translate(669.610937 949.695312)scale(0.1 -0.1)">
      <use xlink:href="#DejaVuSans-74"/>
      <use xlink:href="#DejaVuSans-61" x="39.208984"/>
      <use xlink:href="#DejaVuSans-73" x="100.488281"/>
      <use xlink:href="#DejaVuSans-6b" x="152.587891"/>
      <use xlink:href="#DejaVuSans-20" x="210.498047"/>
      <use xlink:href="#DejaVuSans-30" x="242.285156"/>
     </g>
    </g>
    <g id="line2d_77">
     <path d="M 641.610937 960.873438 
L 651.610937 960.873438 
L 661.610937 960.873438 
" style="fill: none; stroke: #ff7f0e; stroke-width: 1.5; stroke-linecap: square"/>
    </g>
    <g id="text_43">
     <!-- task 1 -->
     <g transform="translate(669.610937 964.373438)scale(0.1 -0.1)">
      <use xlink:href="#DejaVuSans-74"/>
      <use xlink:href="#DejaVuSans-61" x="39.208984"/>
      <use xlink:href="#DejaVuSans-73" x="100.488281"/>
      <use xlink:href="#DejaVuSans-6b" x="152.587891"/>
      <use xlink:href="#DejaVuSans-20" x="210.498047"/>
      <use xlink:href="#DejaVuSans-31" x="242.285156"/>
     </g>
    </g>
    <g id="line2d_78">
     <path d="M 641.610937 975.551563 
L 651.610937 975.551563 
L 661.610937 975.551563 
" style="fill: none; stroke: #2ca02c; stroke-width: 1.5; stroke-linecap: square"/>
    </g>
    <g id="text_44">
     <!-- task 2 -->
     <g transform="translate(669.610937 979.051563)scale(0.1 -0.1)">
      <use xlink:href="#DejaVuSans-74"/>
      <use xlink:href="#DejaVuSans-61" x="39.208984"/>
      <use xlink:href="#DejaVuSans-73" x="100.488281"/>
      <use xlink:href="#DejaVuSans-6b" x="152.587891"/>
      <use xlink:href="#DejaVuSans-20" x="210.498047"/>
      <use xlink:href="#DejaVuSans-32" x="242.285156"/>
     </g>
    </g>
    <g id="line2d_79">
     <path d="M 641.610937 990.229687 
L 651.610937 990.229687 
L 661.610937 990.229687 
" style="fill: none; stroke: #d62728; stroke-width: 1.5; stroke-linecap: square"/>
    </g>
    <g id="text_45">
     <!-- task 3 -->
     <g transform="translate(669.610937 993.729687)scale(0.1 -0.1)">
      <use xlink:href="#DejaVuSans-74"/>
      <use xlink:href="#DejaVuSans-61" x="39.208984"/>
      <use xlink:href="#DejaVuSans-73" x="100.488281"/>
      <use xlink:href="#DejaVuSans-6b" x="152.587891"/>
      <use xlink:href="#DejaVuSans-20" x="210.498047"/>
      <use xlink:href="#DejaVuSans-33" x="242.285156"/>
     </g>
    </g>
    <g id="line2d_80">
     <path d="M 641.610937 1004.907812 
L 651.610937 1004.907812 
L 661.610937 1004.907812 
" style="fill: none; stroke: #9467bd; stroke-width: 1.5; stroke-linecap: square"/>
    </g>
    <g id="text_46">
     <!-- task 4 -->
     <g transform="translate(669.610937 1008.407812)scale(0.1 -0.1)">
      <use xlink:href="#DejaVuSans-74"/>
      <use xlink:href="#DejaVuSans-61" x="39.208984"/>
      <use xlink:href="#DejaVuSans-73" x="100.488281"/>
      <use xlink:href="#DejaVuSans-6b" x="152.587891"/>
      <use xlink:href="#DejaVuSans-20" x="210.498047"/>
      <use xlink:href="#DejaVuSans-34" x="242.285156"/>
     </g>
    </g>
   </g>
  </g>
  <g id="text_47">
   <!-- architecture: ResNet18 -->
   <g transform="translate(244.815625 15.196875)scale(0.2 -0.2)">
    <defs>
     <path id="DejaVuSans-68" d="M 3513 2113 
L 3513 0 
L 2938 0 
L 2938 2094 
Q 2938 2591 2744 2837 
Q 2550 3084 2163 3084 
Q 1697 3084 1428 2787 
Q 1159 2491 1159 1978 
L 1159 0 
L 581 0 
L 581 4863 
L 1159 4863 
L 1159 2956 
Q 1366 3272 1645 3428 
Q 1925 3584 2291 3584 
Q 2894 3584 3203 3211 
Q 3513 2838 3513 2113 
z
" transform="scale(0.015625)"/>
     <path id="DejaVuSans-3a" d="M 750 794 
L 1409 794 
L 1409 0 
L 750 0 
L 750 794 
z
M 750 3309 
L 1409 3309 
L 1409 2516 
L 750 2516 
L 750 3309 
z
" transform="scale(0.015625)"/>
     <path id="DejaVuSans-52" d="M 2841 2188 
Q 3044 2119 3236 1894 
Q 3428 1669 3622 1275 
L 4263 0 
L 3584 0 
L 2988 1197 
Q 2756 1666 2539 1819 
Q 2322 1972 1947 1972 
L 1259 1972 
L 1259 0 
L 628 0 
L 628 4666 
L 2053 4666 
Q 2853 4666 3247 4331 
Q 3641 3997 3641 3322 
Q 3641 2881 3436 2590 
Q 3231 2300 2841 2188 
z
M 1259 4147 
L 1259 2491 
L 2053 2491 
Q 2509 2491 2742 2702 
Q 2975 2913 2975 3322 
Q 2975 3731 2742 3939 
Q 2509 4147 2053 4147 
L 1259 4147 
z
" transform="scale(0.015625)"/>
     <path id="DejaVuSans-4e" d="M 628 4666 
L 1478 4666 
L 3547 763 
L 3547 4666 
L 4159 4666 
L 4159 0 
L 3309 0 
L 1241 3903 
L 1241 0 
L 628 0 
L 628 4666 
z
" transform="scale(0.015625)"/>
    </defs>
    <use xlink:href="#DejaVuSans-61"/>
    <use xlink:href="#DejaVuSans-72" x="61.279297"/>
    <use xlink:href="#DejaVuSans-63" x="100.142578"/>
    <use xlink:href="#DejaVuSans-68" x="155.123047"/>
    <use xlink:href="#DejaVuSans-69" x="218.501953"/>
    <use xlink:href="#DejaVuSans-74" x="246.285156"/>
    <use xlink:href="#DejaVuSans-65" x="285.494141"/>
    <use xlink:href="#DejaVuSans-63" x="347.017578"/>
    <use xlink:href="#DejaVuSans-74" x="401.998047"/>
    <use xlink:href="#DejaVuSans-75" x="441.207031"/>
    <use xlink:href="#DejaVuSans-72" x="504.585938"/>
    <use xlink:href="#DejaVuSans-65" x="543.449219"/>
    <use xlink:href="#DejaVuSans-3a" x="604.972656"/>
    <use xlink:href="#DejaVuSans-20" x="638.664062"/>
    <use xlink:href="#DejaVuSans-52" x="670.451172"/>
    <use xlink:href="#DejaVuSans-65" x="735.433594"/>
    <use xlink:href="#DejaVuSans-73" x="796.957031"/>
    <use xlink:href="#DejaVuSans-4e" x="849.056641"/>
    <use xlink:href="#DejaVuSans-65" x="923.861328"/>
    <use xlink:href="#DejaVuSans-74" x="985.384766"/>
    <use xlink:href="#DejaVuSans-31" x="1024.59375"/>
    <use xlink:href="#DejaVuSans-38" x="1088.216797"/>
   </g>
   <!-- dataset: CIFAR10 -->
   <g transform="translate(274.359375 37.5925)scale(0.2 -0.2)">
    <defs>
     <path id="DejaVuSans-64" d="M 2906 2969 
L 2906 4863 
L 3481 4863 
L 3481 0 
L 2906 0 
L 2906 525 
Q 2725 213 2448 61 
Q 2172 -91 1784 -91 
Q 1150 -91 751 415 
Q 353 922 353 1747 
Q 353 2572 751 3078 
Q 1150 3584 1784 3584 
Q 2172 3584 2448 3432 
Q 2725 3281 2906 2969 
z
M 947 1747 
Q 947 1113 1208 752 
Q 1469 391 1925 391 
Q 2381 391 2643 752 
Q 2906 1113 2906 1747 
Q 2906 2381 2643 2742 
Q 2381 3103 1925 3103 
Q 1469 3103 1208 2742 
Q 947 2381 947 1747 
z
" transform="scale(0.015625)"/>
     <path id="DejaVuSans-43" d="M 4122 4306 
L 4122 3641 
Q 3803 3938 3442 4084 
Q 3081 4231 2675 4231 
Q 1875 4231 1450 3742 
Q 1025 3253 1025 2328 
Q 1025 1406 1450 917 
Q 1875 428 2675 428 
Q 3081 428 3442 575 
Q 3803 722 4122 1019 
L 4122 359 
Q 3791 134 3420 21 
Q 3050 -91 2638 -91 
Q 1578 -91 968 557 
Q 359 1206 359 2328 
Q 359 3453 968 4101 
Q 1578 4750 2638 4750 
Q 3056 4750 3426 4639 
Q 3797 4528 4122 4306 
z
" transform="scale(0.015625)"/>
     <path id="DejaVuSans-49" d="M 628 4666 
L 1259 4666 
L 1259 0 
L 628 0 
L 628 4666 
z
" transform="scale(0.015625)"/>
     <path id="DejaVuSans-46" d="M 628 4666 
L 3309 4666 
L 3309 4134 
L 1259 4134 
L 1259 2759 
L 3109 2759 
L 3109 2228 
L 1259 2228 
L 1259 0 
L 628 0 
L 628 4666 
z
" transform="scale(0.015625)"/>
     <path id="DejaVuSans-41" d="M 2188 4044 
L 1331 1722 
L 3047 1722 
L 2188 4044 
z
M 1831 4666 
L 2547 4666 
L 4325 0 
L 3669 0 
L 3244 1197 
L 1141 1197 
L 716 0 
L 50 0 
L 1831 4666 
z
" transform="scale(0.015625)"/>
    </defs>
    <use xlink:href="#DejaVuSans-64"/>
    <use xlink:href="#DejaVuSans-61" x="63.476562"/>
    <use xlink:href="#DejaVuSans-74" x="124.755859"/>
    <use xlink:href="#DejaVuSans-61" x="163.964844"/>
    <use xlink:href="#DejaVuSans-73" x="225.244141"/>
    <use xlink:href="#DejaVuSans-65" x="277.34375"/>
    <use xlink:href="#DejaVuSans-74" x="338.867188"/>
    <use xlink:href="#DejaVuSans-3a" x="378.076172"/>
    <use xlink:href="#DejaVuSans-20" x="411.767578"/>
    <use xlink:href="#DejaVuSans-43" x="443.554688"/>
    <use xlink:href="#DejaVuSans-49" x="513.378906"/>
    <use xlink:href="#DejaVuSans-46" x="542.871094"/>
    <use xlink:href="#DejaVuSans-41" x="591.265625"/>
    <use xlink:href="#DejaVuSans-52" x="659.673828"/>
    <use xlink:href="#DejaVuSans-31" x="729.15625"/>
    <use xlink:href="#DejaVuSans-30" x="792.779297"/>
   </g>
   <!-- rehearsal_dataset:  -->
   <g transform="translate(263.760938 59.988125)scale(0.2 -0.2)">
    <defs>
     <path id="DejaVuSans-6c" d="M 603 4863 
L 1178 4863 
L 1178 0 
L 603 0 
L 603 4863 
z
" transform="scale(0.015625)"/>
     <path id="DejaVuSans-5f" d="M 3263 -1063 
L 3263 -1509 
L -63 -1509 
L -63 -1063 
L 3263 -1063 
z
" transform="scale(0.015625)"/>
    </defs>
    <use xlink:href="#DejaVuSans-72"/>
    <use xlink:href="#DejaVuSans-65" x="38.863281"/>
    <use xlink:href="#DejaVuSans-68" x="100.386719"/>
    <use xlink:href="#DejaVuSans-65" x="163.765625"/>
    <use xlink:href="#DejaVuSans-61" x="225.289062"/>
    <use xlink:href="#DejaVuSans-72" x="286.568359"/>
    <use xlink:href="#DejaVuSans-73" x="327.681641"/>
    <use xlink:href="#DejaVuSans-61" x="379.78125"/>
    <use xlink:href="#DejaVuSans-6c" x="441.060547"/>
    <use xlink:href="#DejaVuSans-5f" x="468.84375"/>
    <use xlink:href="#DejaVuSans-64" x="518.84375"/>
    <use xlink:href="#DejaVuSans-61" x="582.320312"/>
    <use xlink:href="#DejaVuSans-74" x="643.599609"/>
    <use xlink:href="#DejaVuSans-61" x="682.808594"/>
    <use xlink:href="#DejaVuSans-73" x="744.087891"/>
    <use xlink:href="#DejaVuSans-65" x="796.1875"/>
    <use xlink:href="#DejaVuSans-74" x="857.710938"/>
    <use xlink:href="#DejaVuSans-3a" x="896.919922"/>
    <use xlink:href="#DejaVuSans-20" x="930.611328"/>
   </g>
   <!-- batch_size_rehearsal: 128 -->
   <g transform="translate(229.859375 82.94)scale(0.2 -0.2)">
    <defs>
     <path id="DejaVuSans-62" d="M 3116 1747 
Q 3116 2381 2855 2742 
Q 2594 3103 2138 3103 
Q 1681 3103 1420 2742 
Q 1159 2381 1159 1747 
Q 1159 1113 1420 752 
Q 1681 391 2138 391 
Q 2594 391 2855 752 
Q 3116 1113 3116 1747 
z
M 1159 2969 
Q 1341 3281 1617 3432 
Q 1894 3584 2278 3584 
Q 2916 3584 3314 3078 
Q 3713 2572 3713 1747 
Q 3713 922 3314 415 
Q 2916 -91 2278 -91 
Q 1894 -91 1617 61 
Q 1341 213 1159 525 
L 1159 0 
L 581 0 
L 581 4863 
L 1159 4863 
L 1159 2969 
z
" transform="scale(0.015625)"/>
     <path id="DejaVuSans-7a" d="M 353 3500 
L 3084 3500 
L 3084 2975 
L 922 459 
L 3084 459 
L 3084 0 
L 275 0 
L 275 525 
L 2438 3041 
L 353 3041 
L 353 3500 
z
" transform="scale(0.015625)"/>
    </defs>
    <use xlink:href="#DejaVuSans-62"/>
    <use xlink:href="#DejaVuSans-61" x="63.476562"/>
    <use xlink:href="#DejaVuSans-74" x="124.755859"/>
    <use xlink:href="#DejaVuSans-63" x="163.964844"/>
    <use xlink:href="#DejaVuSans-68" x="218.945312"/>
    <use xlink:href="#DejaVuSans-5f" x="282.324219"/>
    <use xlink:href="#DejaVuSans-73" x="332.324219"/>
    <use xlink:href="#DejaVuSans-69" x="384.423828"/>
    <use xlink:href="#DejaVuSans-7a" x="412.207031"/>
    <use xlink:href="#DejaVuSans-65" x="464.697266"/>
    <use xlink:href="#DejaVuSans-5f" x="526.220703"/>
    <use xlink:href="#DejaVuSans-72" x="576.220703"/>
    <use xlink:href="#DejaVuSans-65" x="615.083984"/>
    <use xlink:href="#DejaVuSans-68" x="676.607422"/>
    <use xlink:href="#DejaVuSans-65" x="739.986328"/>
    <use xlink:href="#DejaVuSans-61" x="801.509766"/>
    <use xlink:href="#DejaVuSans-72" x="862.789062"/>
    <use xlink:href="#DejaVuSans-73" x="903.902344"/>
    <use xlink:href="#DejaVuSans-61" x="956.001953"/>
    <use xlink:href="#DejaVuSans-6c" x="1017.28125"/>
    <use xlink:href="#DejaVuSans-3a" x="1045.064453"/>
    <use xlink:href="#DejaVuSans-20" x="1078.755859"/>
    <use xlink:href="#DejaVuSans-31" x="1110.542969"/>
    <use xlink:href="#DejaVuSans-32" x="1174.166016"/>
    <use xlink:href="#DejaVuSans-38" x="1237.789062"/>
   </g>
   <!-- pretraining: False -->
   <g transform="translate(273.21875 105.891875)scale(0.2 -0.2)">
    <defs>
     <path id="DejaVuSans-67" d="M 2906 1791 
Q 2906 2416 2648 2759 
Q 2391 3103 1925 3103 
Q 1463 3103 1205 2759 
Q 947 2416 947 1791 
Q 947 1169 1205 825 
Q 1463 481 1925 481 
Q 2391 481 2648 825 
Q 2906 1169 2906 1791 
z
M 3481 434 
Q 3481 -459 3084 -895 
Q 2688 -1331 1869 -1331 
Q 1566 -1331 1297 -1286 
Q 1028 -1241 775 -1147 
L 775 -588 
Q 1028 -725 1275 -790 
Q 1522 -856 1778 -856 
Q 2344 -856 2625 -561 
Q 2906 -266 2906 331 
L 2906 616 
Q 2728 306 2450 153 
Q 2172 0 1784 0 
Q 1141 0 747 490 
Q 353 981 353 1791 
Q 353 2603 747 3093 
Q 1141 3584 1784 3584 
Q 2172 3584 2450 3431 
Q 2728 3278 2906 2969 
L 2906 3500 
L 3481 3500 
L 3481 434 
z
" transform="scale(0.015625)"/>
    </defs>
    <use xlink:href="#DejaVuSans-70"/>
    <use xlink:href="#DejaVuSans-72" x="63.476562"/>
    <use xlink:href="#DejaVuSans-65" x="102.339844"/>
    <use xlink:href="#DejaVuSans-74" x="163.863281"/>
    <use xlink:href="#DejaVuSans-72" x="203.072266"/>
    <use xlink:href="#DejaVuSans-61" x="244.185547"/>
    <use xlink:href="#DejaVuSans-69" x="305.464844"/>
    <use xlink:href="#DejaVuSans-6e" x="333.248047"/>
    <use xlink:href="#DejaVuSans-69" x="396.626953"/>
    <use xlink:href="#DejaVuSans-6e" x="424.410156"/>
    <use xlink:href="#DejaVuSans-67" x="487.789062"/>
    <use xlink:href="#DejaVuSans-3a" x="551.265625"/>
    <use xlink:href="#DejaVuSans-20" x="584.957031"/>
    <use xlink:href="#DejaVuSans-46" x="616.744141"/>
    <use xlink:href="#DejaVuSans-61" x="665.138672"/>
    <use xlink:href="#DejaVuSans-6c" x="726.417969"/>
    <use xlink:href="#DejaVuSans-73" x="754.201172"/>
    <use xlink:href="#DejaVuSans-65" x="806.300781"/>
   </g>
   <!-- learning_rate: 0.03 -->
   <g transform="translate(265.078125 128.2875)scale(0.2 -0.2)">
    <defs>
     <path id="DejaVuSans-2e" d="M 684 794 
L 1344 794 
L 1344 0 
L 684 0 
L 684 794 
z
" transform="scale(0.015625)"/>
    </defs>
    <use xlink:href="#DejaVuSans-6c"/>
    <use xlink:href="#DejaVuSans-65" x="27.783203"/>
    <use xlink:href="#DejaVuSans-61" x="89.306641"/>
    <use xlink:href="#DejaVuSans-72" x="150.585938"/>
    <use xlink:href="#DejaVuSans-6e" x="189.949219"/>
    <use xlink:href="#DejaVuSans-69" x="253.328125"/>
    <use xlink:href="#DejaVuSans-6e" x="281.111328"/>
    <use xlink:href="#DejaVuSans-67" x="344.490234"/>
    <use xlink:href="#DejaVuSans-5f" x="407.966797"/>
    <use xlink:href="#DejaVuSans-72" x="457.966797"/>
    <use xlink:href="#DejaVuSans-61" x="499.080078"/>
    <use xlink:href="#DejaVuSans-74" x="560.359375"/>
    <use xlink:href="#DejaVuSans-65" x="599.568359"/>
    <use xlink:href="#DejaVuSans-3a" x="661.091797"/>
    <use xlink:href="#DejaVuSans-20" x="694.783203"/>
    <use xlink:href="#DejaVuSans-30" x="726.570312"/>
    <use xlink:href="#DejaVuSans-2e" x="790.193359"/>
    <use xlink:href="#DejaVuSans-30" x="821.980469"/>
    <use xlink:href="#DejaVuSans-33" x="885.603516"/>
   </g>
   <!-- epochs: 5 -->
   <g transform="translate(311.425 151.239375)scale(0.2 -0.2)">
    <defs>
     <path id="DejaVuSans-6f" d="M 1959 3097 
Q 1497 3097 1228 2736 
Q 959 2375 959 1747 
Q 959 1119 1226 758 
Q 1494 397 1959 397 
Q 2419 397 2687 759 
Q 2956 1122 2956 1747 
Q 2956 2369 2687 2733 
Q 2419 3097 1959 3097 
z
M 1959 3584 
Q 2709 3584 3137 3096 
Q 3566 2609 3566 1747 
Q 3566 888 3137 398 
Q 2709 -91 1959 -91 
Q 1206 -91 779 398 
Q 353 888 353 1747 
Q 353 2609 779 3096 
Q 1206 3584 1959 3584 
z
" transform="scale(0.015625)"/>
    </defs>
    <use xlink:href="#DejaVuSans-65"/>
    <use xlink:href="#DejaVuSans-70" x="61.523438"/>
    <use xlink:href="#DejaVuSans-6f" x="125"/>
    <use xlink:href="#DejaVuSans-63" x="186.181641"/>
    <use xlink:href="#DejaVuSans-68" x="241.162109"/>
    <use xlink:href="#DejaVuSans-73" x="304.541016"/>
    <use xlink:href="#DejaVuSans-3a" x="356.640625"/>
    <use xlink:href="#DejaVuSans-20" x="390.332031"/>
    <use xlink:href="#DejaVuSans-35" x="422.119141"/>
   </g>
   <!-- separate_noise_output: None -->
   <g transform="translate(213.63125 173.635)scale(0.2 -0.2)">
    <use xlink:href="#DejaVuSans-73"/>
    <use xlink:href="#DejaVuSans-65" x="52.099609"/>
    <use xlink:href="#DejaVuSans-70" x="113.623047"/>
    <use xlink:href="#DejaVuSans-61" x="177.099609"/>
    <use xlink:href="#DejaVuSans-72" x="238.378906"/>
    <use xlink:href="#DejaVuSans-61" x="279.492188"/>
    <use xlink:href="#DejaVuSans-74" x="340.771484"/>
    <use xlink:href="#DejaVuSans-65" x="379.980469"/>
    <use xlink:href="#DejaVuSans-5f" x="441.503906"/>
    <use xlink:href="#DejaVuSans-6e" x="491.503906"/>
    <use xlink:href="#DejaVuSans-6f" x="554.882812"/>
    <use xlink:href="#DejaVuSans-69" x="616.064453"/>
    <use xlink:href="#DejaVuSans-73" x="643.847656"/>
    <use xlink:href="#DejaVuSans-65" x="695.947266"/>
    <use xlink:href="#DejaVuSans-5f" x="757.470703"/>
    <use xlink:href="#DejaVuSans-6f" x="807.470703"/>
    <use xlink:href="#DejaVuSans-75" x="868.652344"/>
    <use xlink:href="#DejaVuSans-74" x="932.03125"/>
    <use xlink:href="#DejaVuSans-70" x="971.240234"/>
    <use xlink:href="#DejaVuSans-75" x="1034.716797"/>
    <use xlink:href="#DejaVuSans-74" x="1098.095703"/>
    <use xlink:href="#DejaVuSans-3a" x="1137.304688"/>
    <use xlink:href="#DejaVuSans-20" x="1170.996094"/>
    <use xlink:href="#DejaVuSans-4e" x="1202.783203"/>
    <use xlink:href="#DejaVuSans-6f" x="1277.587891"/>
    <use xlink:href="#DejaVuSans-6e" x="1338.769531"/>
    <use xlink:href="#DejaVuSans-65" x="1402.148438"/>
   </g>
   <!-- runs: 1 -->
   <g transform="translate(325.095312 196.586875)scale(0.2 -0.2)">
    <use xlink:href="#DejaVuSans-72"/>
    <use xlink:href="#DejaVuSans-75" x="41.113281"/>
    <use xlink:href="#DejaVuSans-6e" x="104.492188"/>
    <use xlink:href="#DejaVuSans-73" x="167.871094"/>
    <use xlink:href="#DejaVuSans-3a" x="219.970703"/>
    <use xlink:href="#DejaVuSans-20" x="253.662109"/>
    <use xlink:href="#DejaVuSans-31" x="285.449219"/>
   </g>
  </g>
 </g>
 <defs>
  <clipPath id="pbc1c4332c4">
   <rect x="79.33125" y="243.543125" width="629.86875" height="347.1175"/>
  </clipPath>
  <clipPath id="pd6c1791175">
   <rect x="79.33125" y="672.37" width="629.86875" height="347.1175"/>
  </clipPath>
 </defs>
</svg>
