<?xml version="1.0" encoding="utf-8" standalone="no"?>
<!DOCTYPE svg PUBLIC "-//W3C//DTD SVG 1.1//EN"
  "http://www.w3.org/Graphics/SVG/1.1/DTD/svg11.dtd">
<svg xmlns:xlink="http://www.w3.org/1999/xlink" width="720pt" height="1080pt" viewBox="0 0 720 1080" xmlns="http://www.w3.org/2000/svg" version="1.1">
 <metadata>
  <rdf:RDF xmlns:dc="http://purl.org/dc/elements/1.1/" xmlns:cc="http://creativecommons.org/ns#" xmlns:rdf="http://www.w3.org/1999/02/22-rdf-syntax-ns#">
   <cc:Work>
    <dc:type rdf:resource="http://purl.org/dc/dcmitype/StillImage"/>
    <dc:date>2024-01-28T14:37:28.926997</dc:date>
    <dc:format>image/svg+xml</dc:format>
    <dc:creator>
     <cc:Agent>
      <dc:title>Matplotlib v3.5.1, https://matplotlib.org/</dc:title>
     </cc:Agent>
    </dc:creator>
   </cc:Work>
  </rdf:RDF>
 </metadata>
 <defs>
  <style type="text/css">*{stroke-linejoin: round; stroke-linecap: butt}</style>
 </defs>
 <g id="figure_1">
  <g id="patch_1">
   <path d="M 0 1080 
L 720 1080 
L 720 0 
L 0 0 
L 0 1080 
z
" style="fill: none"/>
  </g>
  <g id="axes_1">
   <g id="patch_2">
    <path d="M 79.33125 590.660625 
L 709.2 590.660625 
L 709.2 243.543125 
L 79.33125 243.543125 
z
" style="fill: #ffffff"/>
   </g>
   <g id="matplotlib.axis_1">
    <g id="xtick_1">
     <g id="line2d_1">
      <path d="M 107.961648 590.660625 
L 107.961648 243.543125 
" clip-path="url(#pd51ef920bf)" style="fill: none; stroke: #b0b0b0; stroke-width: 0.8; stroke-linecap: square"/>
     </g>
     <g id="line2d_2">
      <defs>
       <path id="mcaaf5cab2e" d="M 0 0 
L 0 3.5 
" style="stroke: #000000; stroke-width: 0.8"/>
      </defs>
      <g>
       <use xlink:href="#mcaaf5cab2e" x="107.961648" y="590.660625" style="stroke: #000000; stroke-width: 0.8"/>
      </g>
     </g>
     <g id="text_1">
      <!-- 0 -->
      <g transform="translate(101.599148 612.8575)scale(0.2 -0.2)">
       <defs>
        <path id="DejaVuSans-30" d="M 2034 4250 
Q 1547 4250 1301 3770 
Q 1056 3291 1056 2328 
Q 1056 1369 1301 889 
Q 1547 409 2034 409 
Q 2525 409 2770 889 
Q 3016 1369 3016 2328 
Q 3016 3291 2770 3770 
Q 2525 4250 2034 4250 
z
M 2034 4750 
Q 2819 4750 3233 4129 
Q 3647 3509 3647 2328 
Q 3647 1150 3233 529 
Q 2819 -91 2034 -91 
Q 1250 -91 836 529 
Q 422 1150 422 2328 
Q 422 3509 836 4129 
Q 1250 4750 2034 4750 
z
" transform="scale(0.015625)"/>
       </defs>
       <use xlink:href="#DejaVuSans-30"/>
      </g>
     </g>
    </g>
    <g id="xtick_2">
     <g id="line2d_3">
      <path d="M 204.198279 590.660625 
L 204.198279 243.543125 
" clip-path="url(#pd51ef920bf)" style="fill: none; stroke: #b0b0b0; stroke-width: 0.8; stroke-linecap: square"/>
     </g>
     <g id="line2d_4">
      <g>
       <use xlink:href="#mcaaf5cab2e" x="204.198279" y="590.660625" style="stroke: #000000; stroke-width: 0.8"/>
      </g>
     </g>
     <g id="text_2">
      <!-- 20 -->
      <g transform="translate(191.473279 612.8575)scale(0.2 -0.2)">
       <defs>
        <path id="DejaVuSans-32" d="M 1228 531 
L 3431 531 
L 3431 0 
L 469 0 
L 469 531 
Q 828 903 1448 1529 
Q 2069 2156 2228 2338 
Q 2531 2678 2651 2914 
Q 2772 3150 2772 3378 
Q 2772 3750 2511 3984 
Q 2250 4219 1831 4219 
Q 1534 4219 1204 4116 
Q 875 4013 500 3803 
L 500 4441 
Q 881 4594 1212 4672 
Q 1544 4750 1819 4750 
Q 2544 4750 2975 4387 
Q 3406 4025 3406 3419 
Q 3406 3131 3298 2873 
Q 3191 2616 2906 2266 
Q 2828 2175 2409 1742 
Q 1991 1309 1228 531 
z
" transform="scale(0.015625)"/>
       </defs>
       <use xlink:href="#DejaVuSans-32"/>
       <use xlink:href="#DejaVuSans-30" x="63.623047"/>
      </g>
     </g>
    </g>
    <g id="xtick_3">
     <g id="line2d_5">
      <path d="M 300.43491 590.660625 
L 300.43491 243.543125 
" clip-path="url(#pd51ef920bf)" style="fill: none; stroke: #b0b0b0; stroke-width: 0.8; stroke-linecap: square"/>
     </g>
     <g id="line2d_6">
      <g>
       <use xlink:href="#mcaaf5cab2e" x="300.43491" y="590.660625" style="stroke: #000000; stroke-width: 0.8"/>
      </g>
     </g>
     <g id="text_3">
      <!-- 40 -->
      <g transform="translate(287.70991 612.8575)scale(0.2 -0.2)">
       <defs>
        <path id="DejaVuSans-34" d="M 2419 4116 
L 825 1625 
L 2419 1625 
L 2419 4116 
z
M 2253 4666 
L 3047 4666 
L 3047 1625 
L 3713 1625 
L 3713 1100 
L 3047 1100 
L 3047 0 
L 2419 0 
L 2419 1100 
L 313 1100 
L 313 1709 
L 2253 4666 
z
" transform="scale(0.015625)"/>
       </defs>
       <use xlink:href="#DejaVuSans-34"/>
       <use xlink:href="#DejaVuSans-30" x="63.623047"/>
      </g>
     </g>
    </g>
    <g id="xtick_4">
     <g id="line2d_7">
      <path d="M 396.671541 590.660625 
L 396.671541 243.543125 
" clip-path="url(#pd51ef920bf)" style="fill: none; stroke: #b0b0b0; stroke-width: 0.8; stroke-linecap: square"/>
     </g>
     <g id="line2d_8">
      <g>
       <use xlink:href="#mcaaf5cab2e" x="396.671541" y="590.660625" style="stroke: #000000; stroke-width: 0.8"/>
      </g>
     </g>
     <g id="text_4">
      <!-- 60 -->
      <g transform="translate(383.946541 612.8575)scale(0.2 -0.2)">
       <defs>
        <path id="DejaVuSans-36" d="M 2113 2584 
Q 1688 2584 1439 2293 
Q 1191 2003 1191 1497 
Q 1191 994 1439 701 
Q 1688 409 2113 409 
Q 2538 409 2786 701 
Q 3034 994 3034 1497 
Q 3034 2003 2786 2293 
Q 2538 2584 2113 2584 
z
M 3366 4563 
L 3366 3988 
Q 3128 4100 2886 4159 
Q 2644 4219 2406 4219 
Q 1781 4219 1451 3797 
Q 1122 3375 1075 2522 
Q 1259 2794 1537 2939 
Q 1816 3084 2150 3084 
Q 2853 3084 3261 2657 
Q 3669 2231 3669 1497 
Q 3669 778 3244 343 
Q 2819 -91 2113 -91 
Q 1303 -91 875 529 
Q 447 1150 447 2328 
Q 447 3434 972 4092 
Q 1497 4750 2381 4750 
Q 2619 4750 2861 4703 
Q 3103 4656 3366 4563 
z
" transform="scale(0.015625)"/>
       </defs>
       <use xlink:href="#DejaVuSans-36"/>
       <use xlink:href="#DejaVuSans-30" x="63.623047"/>
      </g>
     </g>
    </g>
    <g id="xtick_5">
     <g id="line2d_9">
      <path d="M 492.908172 590.660625 
L 492.908172 243.543125 
" clip-path="url(#pd51ef920bf)" style="fill: none; stroke: #b0b0b0; stroke-width: 0.8; stroke-linecap: square"/>
     </g>
     <g id="line2d_10">
      <g>
       <use xlink:href="#mcaaf5cab2e" x="492.908172" y="590.660625" style="stroke: #000000; stroke-width: 0.8"/>
      </g>
     </g>
     <g id="text_5">
      <!-- 80 -->
      <g transform="translate(480.183172 612.8575)scale(0.2 -0.2)">
       <defs>
        <path id="DejaVuSans-38" d="M 2034 2216 
Q 1584 2216 1326 1975 
Q 1069 1734 1069 1313 
Q 1069 891 1326 650 
Q 1584 409 2034 409 
Q 2484 409 2743 651 
Q 3003 894 3003 1313 
Q 3003 1734 2745 1975 
Q 2488 2216 2034 2216 
z
M 1403 2484 
Q 997 2584 770 2862 
Q 544 3141 544 3541 
Q 544 4100 942 4425 
Q 1341 4750 2034 4750 
Q 2731 4750 3128 4425 
Q 3525 4100 3525 3541 
Q 3525 3141 3298 2862 
Q 3072 2584 2669 2484 
Q 3125 2378 3379 2068 
Q 3634 1759 3634 1313 
Q 3634 634 3220 271 
Q 2806 -91 2034 -91 
Q 1263 -91 848 271 
Q 434 634 434 1313 
Q 434 1759 690 2068 
Q 947 2378 1403 2484 
z
M 1172 3481 
Q 1172 3119 1398 2916 
Q 1625 2713 2034 2713 
Q 2441 2713 2670 2916 
Q 2900 3119 2900 3481 
Q 2900 3844 2670 4047 
Q 2441 4250 2034 4250 
Q 1625 4250 1398 4047 
Q 1172 3844 1172 3481 
z
" transform="scale(0.015625)"/>
       </defs>
       <use xlink:href="#DejaVuSans-38"/>
       <use xlink:href="#DejaVuSans-30" x="63.623047"/>
      </g>
     </g>
    </g>
    <g id="xtick_6">
     <g id="line2d_11">
      <path d="M 589.144803 590.660625 
L 589.144803 243.543125 
" clip-path="url(#pd51ef920bf)" style="fill: none; stroke: #b0b0b0; stroke-width: 0.8; stroke-linecap: square"/>
     </g>
     <g id="line2d_12">
      <g>
       <use xlink:href="#mcaaf5cab2e" x="589.144803" y="590.660625" style="stroke: #000000; stroke-width: 0.8"/>
      </g>
     </g>
     <g id="text_6">
      <!-- 100 -->
      <g transform="translate(570.057303 612.8575)scale(0.2 -0.2)">
       <defs>
        <path id="DejaVuSans-31" d="M 794 531 
L 1825 531 
L 1825 4091 
L 703 3866 
L 703 4441 
L 1819 4666 
L 2450 4666 
L 2450 531 
L 3481 531 
L 3481 0 
L 794 0 
L 794 531 
z
" transform="scale(0.015625)"/>
       </defs>
       <use xlink:href="#DejaVuSans-31"/>
       <use xlink:href="#DejaVuSans-30" x="63.623047"/>
       <use xlink:href="#DejaVuSans-30" x="127.246094"/>
      </g>
     </g>
    </g>
    <g id="xtick_7">
     <g id="line2d_13">
      <path d="M 685.381434 590.660625 
L 685.381434 243.543125 
" clip-path="url(#pd51ef920bf)" style="fill: none; stroke: #b0b0b0; stroke-width: 0.8; stroke-linecap: square"/>
     </g>
     <g id="line2d_14">
      <g>
       <use xlink:href="#mcaaf5cab2e" x="685.381434" y="590.660625" style="stroke: #000000; stroke-width: 0.8"/>
      </g>
     </g>
     <g id="text_7">
      <!-- 120 -->
      <g transform="translate(666.293934 612.8575)scale(0.2 -0.2)">
       <use xlink:href="#DejaVuSans-31"/>
       <use xlink:href="#DejaVuSans-32" x="63.623047"/>
       <use xlink:href="#DejaVuSans-30" x="127.246094"/>
      </g>
     </g>
    </g>
    <g id="text_8">
     <!-- step -->
     <g transform="translate(372.634375 636.21375)scale(0.2 -0.2)">
      <defs>
       <path id="DejaVuSans-73" d="M 2834 3397 
L 2834 2853 
Q 2591 2978 2328 3040 
Q 2066 3103 1784 3103 
Q 1356 3103 1142 2972 
Q 928 2841 928 2578 
Q 928 2378 1081 2264 
Q 1234 2150 1697 2047 
L 1894 2003 
Q 2506 1872 2764 1633 
Q 3022 1394 3022 966 
Q 3022 478 2636 193 
Q 2250 -91 1575 -91 
Q 1294 -91 989 -36 
Q 684 19 347 128 
L 347 722 
Q 666 556 975 473 
Q 1284 391 1588 391 
Q 1994 391 2212 530 
Q 2431 669 2431 922 
Q 2431 1156 2273 1281 
Q 2116 1406 1581 1522 
L 1381 1569 
Q 847 1681 609 1914 
Q 372 2147 372 2553 
Q 372 3047 722 3315 
Q 1072 3584 1716 3584 
Q 2034 3584 2315 3537 
Q 2597 3491 2834 3397 
z
" transform="scale(0.015625)"/>
       <path id="DejaVuSans-74" d="M 1172 4494 
L 1172 3500 
L 2356 3500 
L 2356 3053 
L 1172 3053 
L 1172 1153 
Q 1172 725 1289 603 
Q 1406 481 1766 481 
L 2356 481 
L 2356 0 
L 1766 0 
Q 1100 0 847 248 
Q 594 497 594 1153 
L 594 3053 
L 172 3053 
L 172 3500 
L 594 3500 
L 594 4494 
L 1172 4494 
z
" transform="scale(0.015625)"/>
       <path id="DejaVuSans-65" d="M 3597 1894 
L 3597 1613 
L 953 1613 
Q 991 1019 1311 708 
Q 1631 397 2203 397 
Q 2534 397 2845 478 
Q 3156 559 3463 722 
L 3463 178 
Q 3153 47 2828 -22 
Q 2503 -91 2169 -91 
Q 1331 -91 842 396 
Q 353 884 353 1716 
Q 353 2575 817 3079 
Q 1281 3584 2069 3584 
Q 2775 3584 3186 3129 
Q 3597 2675 3597 1894 
z
M 3022 2063 
Q 3016 2534 2758 2815 
Q 2500 3097 2075 3097 
Q 1594 3097 1305 2825 
Q 1016 2553 972 2059 
L 3022 2063 
z
" transform="scale(0.015625)"/>
       <path id="DejaVuSans-70" d="M 1159 525 
L 1159 -1331 
L 581 -1331 
L 581 3500 
L 1159 3500 
L 1159 2969 
Q 1341 3281 1617 3432 
Q 1894 3584 2278 3584 
Q 2916 3584 3314 3078 
Q 3713 2572 3713 1747 
Q 3713 922 3314 415 
Q 2916 -91 2278 -91 
Q 1894 -91 1617 61 
Q 1341 213 1159 525 
z
M 3116 1747 
Q 3116 2381 2855 2742 
Q 2594 3103 2138 3103 
Q 1681 3103 1420 2742 
Q 1159 2381 1159 1747 
Q 1159 1113 1420 752 
Q 1681 391 2138 391 
Q 2594 391 2855 752 
Q 3116 1113 3116 1747 
z
" transform="scale(0.015625)"/>
      </defs>
      <use xlink:href="#DejaVuSans-73"/>
      <use xlink:href="#DejaVuSans-74" x="52.099609"/>
      <use xlink:href="#DejaVuSans-65" x="91.308594"/>
      <use xlink:href="#DejaVuSans-70" x="152.832031"/>
     </g>
    </g>
   </g>
   <g id="matplotlib.axis_2">
    <g id="ytick_1">
     <g id="line2d_15">
      <path d="M 79.33125 590.660625 
L 709.2 590.660625 
" clip-path="url(#pd51ef920bf)" style="fill: none; stroke: #b0b0b0; stroke-width: 0.8; stroke-linecap: square"/>
     </g>
     <g id="line2d_16">
      <defs>
       <path id="m51c709945b" d="M 0 0 
L -3.5 0 
" style="stroke: #000000; stroke-width: 0.8"/>
      </defs>
      <g>
       <use xlink:href="#m51c709945b" x="79.33125" y="590.660625" style="stroke: #000000; stroke-width: 0.8"/>
      </g>
     </g>
     <g id="text_9">
      <!-- 30 -->
      <g transform="translate(46.88125 598.259063)scale(0.2 -0.2)">
       <defs>
        <path id="DejaVuSans-33" d="M 2597 2516 
Q 3050 2419 3304 2112 
Q 3559 1806 3559 1356 
Q 3559 666 3084 287 
Q 2609 -91 1734 -91 
Q 1441 -91 1130 -33 
Q 819 25 488 141 
L 488 750 
Q 750 597 1062 519 
Q 1375 441 1716 441 
Q 2309 441 2620 675 
Q 2931 909 2931 1356 
Q 2931 1769 2642 2001 
Q 2353 2234 1838 2234 
L 1294 2234 
L 1294 2753 
L 1863 2753 
Q 2328 2753 2575 2939 
Q 2822 3125 2822 3475 
Q 2822 3834 2567 4026 
Q 2313 4219 1838 4219 
Q 1578 4219 1281 4162 
Q 984 4106 628 3988 
L 628 4550 
Q 988 4650 1302 4700 
Q 1616 4750 1894 4750 
Q 2613 4750 3031 4423 
Q 3450 4097 3450 3541 
Q 3450 3153 3228 2886 
Q 3006 2619 2597 2516 
z
" transform="scale(0.015625)"/>
       </defs>
       <use xlink:href="#DejaVuSans-33"/>
       <use xlink:href="#DejaVuSans-30" x="63.623047"/>
      </g>
     </g>
    </g>
    <g id="ytick_2">
     <g id="line2d_17">
      <path d="M 79.33125 541.072411 
L 709.2 541.072411 
" clip-path="url(#pd51ef920bf)" style="fill: none; stroke: #b0b0b0; stroke-width: 0.8; stroke-linecap: square"/>
     </g>
     <g id="line2d_18">
      <g>
       <use xlink:href="#m51c709945b" x="79.33125" y="541.072411" style="stroke: #000000; stroke-width: 0.8"/>
      </g>
     </g>
     <g id="text_10">
      <!-- 40 -->
      <g transform="translate(46.88125 548.670848)scale(0.2 -0.2)">
       <use xlink:href="#DejaVuSans-34"/>
       <use xlink:href="#DejaVuSans-30" x="63.623047"/>
      </g>
     </g>
    </g>
    <g id="ytick_3">
     <g id="line2d_19">
      <path d="M 79.33125 491.484196 
L 709.2 491.484196 
" clip-path="url(#pd51ef920bf)" style="fill: none; stroke: #b0b0b0; stroke-width: 0.8; stroke-linecap: square"/>
     </g>
     <g id="line2d_20">
      <g>
       <use xlink:href="#m51c709945b" x="79.33125" y="491.484196" style="stroke: #000000; stroke-width: 0.8"/>
      </g>
     </g>
     <g id="text_11">
      <!-- 50 -->
      <g transform="translate(46.88125 499.082634)scale(0.2 -0.2)">
       <defs>
        <path id="DejaVuSans-35" d="M 691 4666 
L 3169 4666 
L 3169 4134 
L 1269 4134 
L 1269 2991 
Q 1406 3038 1543 3061 
Q 1681 3084 1819 3084 
Q 2600 3084 3056 2656 
Q 3513 2228 3513 1497 
Q 3513 744 3044 326 
Q 2575 -91 1722 -91 
Q 1428 -91 1123 -41 
Q 819 9 494 109 
L 494 744 
Q 775 591 1075 516 
Q 1375 441 1709 441 
Q 2250 441 2565 725 
Q 2881 1009 2881 1497 
Q 2881 1984 2565 2268 
Q 2250 2553 1709 2553 
Q 1456 2553 1204 2497 
Q 953 2441 691 2322 
L 691 4666 
z
" transform="scale(0.015625)"/>
       </defs>
       <use xlink:href="#DejaVuSans-35"/>
       <use xlink:href="#DejaVuSans-30" x="63.623047"/>
      </g>
     </g>
    </g>
    <g id="ytick_4">
     <g id="line2d_21">
      <path d="M 79.33125 441.895982 
L 709.2 441.895982 
" clip-path="url(#pd51ef920bf)" style="fill: none; stroke: #b0b0b0; stroke-width: 0.8; stroke-linecap: square"/>
     </g>
     <g id="line2d_22">
      <g>
       <use xlink:href="#m51c709945b" x="79.33125" y="441.895982" style="stroke: #000000; stroke-width: 0.8"/>
      </g>
     </g>
     <g id="text_12">
      <!-- 60 -->
      <g transform="translate(46.88125 449.49442)scale(0.2 -0.2)">
       <use xlink:href="#DejaVuSans-36"/>
       <use xlink:href="#DejaVuSans-30" x="63.623047"/>
      </g>
     </g>
    </g>
    <g id="ytick_5">
     <g id="line2d_23">
      <path d="M 79.33125 392.307768 
L 709.2 392.307768 
" clip-path="url(#pd51ef920bf)" style="fill: none; stroke: #b0b0b0; stroke-width: 0.8; stroke-linecap: square"/>
     </g>
     <g id="line2d_24">
      <g>
       <use xlink:href="#m51c709945b" x="79.33125" y="392.307768" style="stroke: #000000; stroke-width: 0.8"/>
      </g>
     </g>
     <g id="text_13">
      <!-- 70 -->
      <g transform="translate(46.88125 399.906205)scale(0.2 -0.2)">
       <defs>
        <path id="DejaVuSans-37" d="M 525 4666 
L 3525 4666 
L 3525 4397 
L 1831 0 
L 1172 0 
L 2766 4134 
L 525 4134 
L 525 4666 
z
" transform="scale(0.015625)"/>
       </defs>
       <use xlink:href="#DejaVuSans-37"/>
       <use xlink:href="#DejaVuSans-30" x="63.623047"/>
      </g>
     </g>
    </g>
    <g id="ytick_6">
     <g id="line2d_25">
      <path d="M 79.33125 342.719554 
L 709.2 342.719554 
" clip-path="url(#pd51ef920bf)" style="fill: none; stroke: #b0b0b0; stroke-width: 0.8; stroke-linecap: square"/>
     </g>
     <g id="line2d_26">
      <g>
       <use xlink:href="#m51c709945b" x="79.33125" y="342.719554" style="stroke: #000000; stroke-width: 0.8"/>
      </g>
     </g>
     <g id="text_14">
      <!-- 80 -->
      <g transform="translate(46.88125 350.317991)scale(0.2 -0.2)">
       <use xlink:href="#DejaVuSans-38"/>
       <use xlink:href="#DejaVuSans-30" x="63.623047"/>
      </g>
     </g>
    </g>
    <g id="ytick_7">
     <g id="line2d_27">
      <path d="M 79.33125 293.131339 
L 709.2 293.131339 
" clip-path="url(#pd51ef920bf)" style="fill: none; stroke: #b0b0b0; stroke-width: 0.8; stroke-linecap: square"/>
     </g>
     <g id="line2d_28">
      <g>
       <use xlink:href="#m51c709945b" x="79.33125" y="293.131339" style="stroke: #000000; stroke-width: 0.8"/>
      </g>
     </g>
     <g id="text_15">
      <!-- 90 -->
      <g transform="translate(46.88125 300.729777)scale(0.2 -0.2)">
       <defs>
        <path id="DejaVuSans-39" d="M 703 97 
L 703 672 
Q 941 559 1184 500 
Q 1428 441 1663 441 
Q 2288 441 2617 861 
Q 2947 1281 2994 2138 
Q 2813 1869 2534 1725 
Q 2256 1581 1919 1581 
Q 1219 1581 811 2004 
Q 403 2428 403 3163 
Q 403 3881 828 4315 
Q 1253 4750 1959 4750 
Q 2769 4750 3195 4129 
Q 3622 3509 3622 2328 
Q 3622 1225 3098 567 
Q 2575 -91 1691 -91 
Q 1453 -91 1209 -44 
Q 966 3 703 97 
z
M 1959 2075 
Q 2384 2075 2632 2365 
Q 2881 2656 2881 3163 
Q 2881 3666 2632 3958 
Q 2384 4250 1959 4250 
Q 1534 4250 1286 3958 
Q 1038 3666 1038 3163 
Q 1038 2656 1286 2365 
Q 1534 2075 1959 2075 
z
" transform="scale(0.015625)"/>
       </defs>
       <use xlink:href="#DejaVuSans-39"/>
       <use xlink:href="#DejaVuSans-30" x="63.623047"/>
      </g>
     </g>
    </g>
    <g id="ytick_8">
     <g id="line2d_29">
      <path d="M 79.33125 243.543125 
L 709.2 243.543125 
" clip-path="url(#pd51ef920bf)" style="fill: none; stroke: #b0b0b0; stroke-width: 0.8; stroke-linecap: square"/>
     </g>
     <g id="line2d_30">
      <g>
       <use xlink:href="#m51c709945b" x="79.33125" y="243.543125" style="stroke: #000000; stroke-width: 0.8"/>
      </g>
     </g>
     <g id="text_16">
      <!-- 100 -->
      <g transform="translate(34.15625 251.141562)scale(0.2 -0.2)">
       <use xlink:href="#DejaVuSans-31"/>
       <use xlink:href="#DejaVuSans-30" x="63.623047"/>
       <use xlink:href="#DejaVuSans-30" x="127.246094"/>
      </g>
     </g>
    </g>
    <g id="text_17">
     <!-- accuracy [%] -->
     <g transform="translate(25.996875 482.703437)rotate(-90)scale(0.2 -0.2)">
      <defs>
       <path id="DejaVuSans-61" d="M 2194 1759 
Q 1497 1759 1228 1600 
Q 959 1441 959 1056 
Q 959 750 1161 570 
Q 1363 391 1709 391 
Q 2188 391 2477 730 
Q 2766 1069 2766 1631 
L 2766 1759 
L 2194 1759 
z
M 3341 1997 
L 3341 0 
L 2766 0 
L 2766 531 
Q 2569 213 2275 61 
Q 1981 -91 1556 -91 
Q 1019 -91 701 211 
Q 384 513 384 1019 
Q 384 1609 779 1909 
Q 1175 2209 1959 2209 
L 2766 2209 
L 2766 2266 
Q 2766 2663 2505 2880 
Q 2244 3097 1772 3097 
Q 1472 3097 1187 3025 
Q 903 2953 641 2809 
L 641 3341 
Q 956 3463 1253 3523 
Q 1550 3584 1831 3584 
Q 2591 3584 2966 3190 
Q 3341 2797 3341 1997 
z
" transform="scale(0.015625)"/>
       <path id="DejaVuSans-63" d="M 3122 3366 
L 3122 2828 
Q 2878 2963 2633 3030 
Q 2388 3097 2138 3097 
Q 1578 3097 1268 2742 
Q 959 2388 959 1747 
Q 959 1106 1268 751 
Q 1578 397 2138 397 
Q 2388 397 2633 464 
Q 2878 531 3122 666 
L 3122 134 
Q 2881 22 2623 -34 
Q 2366 -91 2075 -91 
Q 1284 -91 818 406 
Q 353 903 353 1747 
Q 353 2603 823 3093 
Q 1294 3584 2113 3584 
Q 2378 3584 2631 3529 
Q 2884 3475 3122 3366 
z
" transform="scale(0.015625)"/>
       <path id="DejaVuSans-75" d="M 544 1381 
L 544 3500 
L 1119 3500 
L 1119 1403 
Q 1119 906 1312 657 
Q 1506 409 1894 409 
Q 2359 409 2629 706 
Q 2900 1003 2900 1516 
L 2900 3500 
L 3475 3500 
L 3475 0 
L 2900 0 
L 2900 538 
Q 2691 219 2414 64 
Q 2138 -91 1772 -91 
Q 1169 -91 856 284 
Q 544 659 544 1381 
z
M 1991 3584 
L 1991 3584 
z
" transform="scale(0.015625)"/>
       <path id="DejaVuSans-72" d="M 2631 2963 
Q 2534 3019 2420 3045 
Q 2306 3072 2169 3072 
Q 1681 3072 1420 2755 
Q 1159 2438 1159 1844 
L 1159 0 
L 581 0 
L 581 3500 
L 1159 3500 
L 1159 2956 
Q 1341 3275 1631 3429 
Q 1922 3584 2338 3584 
Q 2397 3584 2469 3576 
Q 2541 3569 2628 3553 
L 2631 2963 
z
" transform="scale(0.015625)"/>
       <path id="DejaVuSans-79" d="M 2059 -325 
Q 1816 -950 1584 -1140 
Q 1353 -1331 966 -1331 
L 506 -1331 
L 506 -850 
L 844 -850 
Q 1081 -850 1212 -737 
Q 1344 -625 1503 -206 
L 1606 56 
L 191 3500 
L 800 3500 
L 1894 763 
L 2988 3500 
L 3597 3500 
L 2059 -325 
z
" transform="scale(0.015625)"/>
       <path id="DejaVuSans-20" transform="scale(0.015625)"/>
       <path id="DejaVuSans-5b" d="M 550 4863 
L 1875 4863 
L 1875 4416 
L 1125 4416 
L 1125 -397 
L 1875 -397 
L 1875 -844 
L 550 -844 
L 550 4863 
z
" transform="scale(0.015625)"/>
       <path id="DejaVuSans-25" d="M 4653 2053 
Q 4381 2053 4226 1822 
Q 4072 1591 4072 1178 
Q 4072 772 4226 539 
Q 4381 306 4653 306 
Q 4919 306 5073 539 
Q 5228 772 5228 1178 
Q 5228 1588 5073 1820 
Q 4919 2053 4653 2053 
z
M 4653 2450 
Q 5147 2450 5437 2106 
Q 5728 1763 5728 1178 
Q 5728 594 5436 251 
Q 5144 -91 4653 -91 
Q 4153 -91 3862 251 
Q 3572 594 3572 1178 
Q 3572 1766 3864 2108 
Q 4156 2450 4653 2450 
z
M 1428 4353 
Q 1159 4353 1004 4120 
Q 850 3888 850 3481 
Q 850 3069 1003 2837 
Q 1156 2606 1428 2606 
Q 1700 2606 1854 2837 
Q 2009 3069 2009 3481 
Q 2009 3884 1853 4118 
Q 1697 4353 1428 4353 
z
M 4250 4750 
L 4750 4750 
L 1831 -91 
L 1331 -91 
L 4250 4750 
z
M 1428 4750 
Q 1922 4750 2215 4408 
Q 2509 4066 2509 3481 
Q 2509 2891 2217 2550 
Q 1925 2209 1428 2209 
Q 931 2209 642 2551 
Q 353 2894 353 3481 
Q 353 4063 643 4406 
Q 934 4750 1428 4750 
z
" transform="scale(0.015625)"/>
       <path id="DejaVuSans-5d" d="M 1947 4863 
L 1947 -844 
L 622 -844 
L 622 -397 
L 1369 -397 
L 1369 4416 
L 622 4416 
L 622 4863 
L 1947 4863 
z
" transform="scale(0.015625)"/>
      </defs>
      <use xlink:href="#DejaVuSans-61"/>
      <use xlink:href="#DejaVuSans-63" x="61.279297"/>
      <use xlink:href="#DejaVuSans-63" x="116.259766"/>
      <use xlink:href="#DejaVuSans-75" x="171.240234"/>
      <use xlink:href="#DejaVuSans-72" x="234.619141"/>
      <use xlink:href="#DejaVuSans-61" x="275.732422"/>
      <use xlink:href="#DejaVuSans-63" x="337.011719"/>
      <use xlink:href="#DejaVuSans-79" x="391.992188"/>
      <use xlink:href="#DejaVuSans-20" x="451.171875"/>
      <use xlink:href="#DejaVuSans-5b" x="482.958984"/>
      <use xlink:href="#DejaVuSans-25" x="521.972656"/>
      <use xlink:href="#DejaVuSans-5d" x="616.992188"/>
     </g>
    </g>
   </g>
   <g id="line2d_31">
    <path d="M 107.961648 498.426554 
L 112.773479 488.955206 
L 117.585311 482.806259 
L 122.397142 474.425858 
L 127.208974 471.103437 
L 132.020805 466.194215 
L 136.832637 460.888277 
L 141.644469 452.25992 
L 146.4563 446.854804 
L 151.268132 440.160402 
L 156.079963 433.168465 
L 160.891795 427.71375 
L 165.703626 424.044233 
L 170.515458 421.515223 
L 175.327289 416.804358 
L 180.139121 411.795938 
L 184.950953 408.22558 
L 189.762784 401.977455 
L 194.574616 400.043517 
L 199.386447 395.283053 
L 204.198279 394.340903 
L 209.01011 391.712696 
L 213.821942 386.753874 
L 218.633773 385.514169 
L 223.445605 382.340526 
L 228.257436 379.365241 
L 233.069268 377.332144 
L 237.8811 376.489115 
L 242.692931 375.695724 
L 247.504763 373.017956 
L 252.316594 370.538545 
L 257.128426 369.695554 
L 261.940257 368.158294 
L 266.752089 365.331767 
L 271.56392 365.183009 
L 276.375752 361.364733 
L 281.187584 362.604438 
L 285.999415 362.207723 
L 290.811247 359.728313 
L 295.623078 357.447259 
L 300.43491 354.323178 
L 305.246741 366.76983 
L 310.058573 376.04284 
L 314.870404 380.803304 
L 319.682236 383.976946 
L 324.494068 380.852902 
L 329.305899 386.406758 
L 334.117731 382.78684 
L 338.929562 385.712526 
L 343.741394 384.720777 
L 348.553225 383.133956 
L 353.365057 380.654545 
L 358.176888 382.836401 
L 362.98872 382.290965 
L 367.800551 383.72899 
L 372.612383 382.737241 
L 377.424215 383.828188 
L 382.236046 384.175304 
L 387.047878 383.976946 
L 391.859709 382.290965 
L 396.671541 380.902463 
L 401.483372 381.745492 
L 406.295204 383.431473 
L 411.107035 382.638081 
L 415.918867 380.753705 
L 420.730699 381.15042 
L 425.54253 385.415009 
L 430.354362 383.084357 
L 435.166193 384.671178 
L 439.978025 380.555347 
L 444.789856 381.497536 
L 449.601688 381.299178 
L 454.413519 381.795053 
L 459.225351 383.679429 
L 464.037182 381.200018 
L 468.849014 383.381874 
L 473.660846 383.72899 
L 478.472677 385.266251 
L 483.284509 382.737241 
L 488.09634 384.770376 
L 492.908172 381.447937 
L 497.720003 367.56326 
L 502.531835 361.711849 
L 507.343666 361.910206 
L 512.155498 363.645786 
L 516.96733 360.819259 
L 521.779161 362.653999 
L 526.590993 363.39783 
L 531.402824 363.893704 
L 536.214656 363.992902 
L 541.026487 364.389617 
L 545.838319 361.66225 
L 550.65015 362.009366 
L 555.461982 363.100313 
L 560.273814 364.290419 
L 565.085645 364.687134 
L 569.897477 364.835893 
L 574.709308 363.596187 
L 579.52114 364.191259 
L 584.332971 364.587974 
L 589.144803 364.786294 
L 593.956634 363.199472 
L 598.768466 365.430965 
L 603.580297 364.340018 
L 608.392129 364.637535 
L 613.203961 365.331767 
L 618.015792 366.521912 
L 622.827624 365.331767 
L 627.639455 363.050714 
L 632.451287 365.629322 
L 637.263118 365.331767 
L 642.07495 366.273955 
L 646.886781 365.728482 
L 651.698613 363.794545 
L 656.510445 364.290419 
L 661.322276 365.232607 
L 666.134108 364.637535 
L 670.945939 365.430965 
L 675.757771 363.447429 
L 680.569602 363.348269 
" clip-path="url(#pd51ef920bf)" style="fill: none; stroke: #1f77b4; stroke-width: 1.5; stroke-linecap: square"/>
   </g>
   <g id="line2d_32">
    <path d="M 107.961648 484.194723 
L 112.773479 496.591776 
L 117.585311 489.252723 
L 122.397142 487.170027 
L 127.208974 482.905438 
L 132.020805 483.252554 
L 136.832637 482.062428 
L 141.644469 480.9715 
L 146.4563 480.723563 
L 151.268132 480.277268 
L 156.079963 481.120259 
L 160.891795 478.541669 
L 165.703626 479.434259 
L 170.515458 481.368196 
L 175.327289 480.822723 
L 180.139121 480.17809 
L 184.950953 479.632616 
L 189.762784 478.442491 
L 194.574616 481.467375 
L 199.386447 480.029312 
L 204.198279 478.987964 
L 209.01011 480.624384 
L 213.821942 481.120259 
L 218.633773 480.723563 
L 223.445605 479.235901 
L 228.257436 480.376428 
L 233.069268 481.219438 
L 237.8811 479.880554 
L 242.692931 479.186322 
L 247.504763 480.376428 
L 252.316594 480.326848 
L 257.128426 480.574786 
L 261.940257 481.368196 
L 266.752089 481.814491 
L 271.56392 479.979732 
L 276.375752 480.376428 
L 281.187584 479.979732 
L 285.999415 479.930133 
L 290.811247 480.078911 
L 295.623078 480.426027 
L 300.43491 481.715312 
L 305.246741 481.417795 
L 310.058573 476.80609 
L 314.870404 472.739857 
L 319.682236 465.450384 
L 324.494068 458.855142 
L 329.305899 453.251688 
L 334.117731 444.177035 
L 338.929562 441.895982 
L 343.741394 435.251161 
L 348.553225 430.441098 
L 353.365057 425.680634 
L 358.176888 422.953286 
L 362.98872 418.490339 
L 367.800551 415.267097 
L 372.612383 411.101706 
L 377.424215 406.341242 
L 382.236046 403.861831 
L 387.047878 402.820483 
L 391.859709 400.53943 
L 396.671541 398.159179 
L 401.483372 395.531009 
L 406.295204 395.084696 
L 411.107035 393.002 
L 415.918867 392.853241 
L 420.730699 390.621787 
L 425.54253 388.787009 
L 430.354362 387.696062 
L 435.166193 387.249787 
L 439.978025 386.307598 
L 444.789856 384.42326 
L 449.601688 383.62983 
L 454.413519 382.78684 
L 459.225351 380.555347 
L 464.037182 380.15867 
L 468.849014 378.075937 
L 473.660846 376.588313 
L 478.472677 375.497366 
L 483.284509 376.141999 
L 488.09634 375.100651 
L 492.908172 375.100651 
L 497.720003 378.770169 
L 502.531835 382.588482 
L 507.343666 381.299178 
L 512.155498 381.745492 
L 516.96733 383.282714 
L 521.779161 382.043009 
L 526.590993 381.447937 
L 531.402824 381.844652 
L 536.214656 380.952062 
L 541.026487 380.753705 
L 545.838319 382.241366 
L 550.65015 382.78684 
L 555.461982 384.52242 
L 560.273814 383.580232 
L 565.085645 384.026545 
L 569.897477 383.828188 
L 574.709308 383.62983 
L 579.52114 384.175304 
L 584.332971 383.828188 
L 589.144803 384.572019 
L 593.956634 385.415009 
L 598.768466 384.472821 
L 603.580297 385.712526 
L 608.392129 387.448106 
L 613.203961 385.662965 
L 618.015792 386.010081 
L 622.827624 385.762125 
L 627.639455 386.109241 
L 632.451287 386.853072 
L 637.263118 386.753874 
L 642.07495 386.605116 
L 646.886781 387.398545 
L 651.698613 387.10099 
L 656.510445 387.646464 
L 661.322276 386.952232 
L 666.134108 385.514169 
L 670.945939 385.117492 
L 675.757771 387.745661 
L 680.569602 387.99358 
" clip-path="url(#pd51ef920bf)" style="fill: none; stroke: #ff7f0e; stroke-width: 1.5; stroke-linecap: square"/>
   </g>
   <g id="line2d_33">
    <path d="M 107.961648 566.56075 
L 112.773479 508.145839 
L 117.585311 498.476134 
L 122.397142 487.269206 
L 127.208974 488.161795 
L 132.020805 490.145312 
L 136.832637 489.45108 
L 141.644469 493.517312 
L 146.4563 490.39325 
L 151.268132 491.880911 
L 156.079963 492.773482 
L 160.891795 495.004955 
L 165.703626 490.938723 
L 170.515458 491.682554 
L 175.327289 491.533776 
L 180.139121 492.327187 
L 184.950953 487.120428 
L 189.762784 489.004786 
L 194.574616 491.781733 
L 199.386447 490.591607 
L 204.198279 492.525544 
L 209.01011 490.591607 
L 213.821942 492.525544 
L 218.633773 491.484196 
L 223.445605 482.161607 
L 228.257436 487.417964 
L 233.069268 486.0295 
L 237.8811 488.70725 
L 242.692931 489.847776 
L 247.504763 490.492428 
L 252.316594 489.203143 
L 257.128426 489.996554 
L 261.940257 490.442848 
L 266.752089 492.228027 
L 271.56392 491.930491 
L 276.375752 490.789964 
L 281.187584 492.922259 
L 285.999415 490.34367 
L 290.811247 489.897375 
L 295.623078 491.13708 
L 300.43491 488.65767 
L 305.246741 489.401501 
L 310.058573 491.781733 
L 314.870404 492.82308 
L 319.682236 489.897375 
L 324.494068 491.831312 
L 329.305899 490.046134 
L 334.117731 494.013187 
L 338.929562 491.732134 
L 343.741394 488.211375 
L 348.553225 489.946955 
L 353.365057 490.938723 
L 358.176888 488.806428 
L 362.98872 488.955206 
L 367.800551 486.07908 
L 372.612383 484.244322 
L 377.424215 488.260955 
L 382.236046 487.02125 
L 387.047878 483.649249 
L 391.859709 484.641018 
L 396.671541 485.781544 
L 401.483372 488.310554 
L 406.295204 484.839375 
L 411.107035 486.12866 
L 415.918867 483.55009 
L 420.730699 483.798027 
L 425.54253 486.277438 
L 430.354362 485.23609 
L 435.166193 482.508723 
L 439.978025 482.459143 
L 444.789856 482.161607 
L 449.601688 483.996384 
L 454.413519 481.169839 
L 459.225351 483.55009 
L 464.037182 484.641018 
L 468.849014 481.120259 
L 473.660846 480.376428 
L 478.472677 480.921901 
L 483.284509 481.516974 
L 488.09634 482.310384 
L 492.908172 482.211206 
L 497.720003 466.095036 
L 502.531835 449.780509 
L 507.343666 437.185098 
L 512.155498 428.110465 
L 516.96733 415.465455 
L 521.779161 405.250295 
L 526.590993 396.969072 
L 531.402824 392.605285 
L 536.214656 384.42326 
L 541.026487 379.513999 
L 545.838319 373.910545 
L 550.65015 371.133617 
L 555.461982 366.76983 
L 560.273814 362.653999 
L 565.085645 359.629153 
L 569.897477 358.538206 
L 574.709308 356.55467 
L 579.52114 354.521535 
L 584.332971 352.736356 
L 589.144803 351.794206 
L 593.956634 349.01724 
L 598.768466 347.579215 
L 603.580297 345.744438 
L 608.392129 345.397322 
L 613.203961 343.959259 
L 618.015792 343.06667 
L 622.827624 340.736017 
L 627.639455 340.53766 
L 632.451287 340.289742 
L 637.263118 337.810331 
L 642.07495 335.975553 
L 646.886781 337.413616 
L 651.698613 335.727597 
L 656.510445 334.140776 
L 661.322276 333.099428 
L 666.134108 333.099428 
L 670.945939 332.950669 
L 675.757771 332.05808 
L 680.569602 331.909321 
" clip-path="url(#pd51ef920bf)" style="fill: none; stroke: #2ca02c; stroke-width: 1.5; stroke-linecap: square"/>
   </g>
   <g id="line2d_34">
    <path d="M 107.961648 500.162134 
L 112.773479 488.409732 
L 117.585311 487.219607 
L 122.397142 485.087312 
L 127.208974 482.607902 
L 132.020805 482.161607 
L 136.832637 483.450911 
L 141.644469 484.145143 
L 146.4563 483.153375 
L 151.268132 485.484027 
L 156.079963 485.979902 
L 160.891795 484.3435 
L 165.703626 483.996384 
L 170.515458 484.3435 
L 175.327289 484.194723 
L 180.139121 484.39308 
L 184.950953 482.905438 
L 189.762784 484.988134 
L 194.574616 484.690616 
L 199.386447 485.831143 
L 204.198279 485.781544 
L 209.01011 485.28567 
L 213.821942 484.839375 
L 218.633773 484.690616 
L 223.445605 485.037732 
L 228.257436 484.938554 
L 233.069268 484.988134 
L 237.8811 485.33525 
L 242.692931 484.095544 
L 247.504763 484.095544 
L 252.316594 485.136911 
L 257.128426 485.831143 
L 261.940257 486.0295 
L 266.752089 485.583206 
L 271.56392 486.07908 
L 276.375752 484.988134 
L 281.187584 485.33525 
L 285.999415 484.789795 
L 290.811247 486.376616 
L 295.623078 484.541839 
L 300.43491 485.136911 
L 305.246741 480.078911 
L 310.058573 477.450723 
L 314.870404 474.921732 
L 319.682236 475.070491 
L 324.494068 474.029143 
L 329.305899 471.252196 
L 334.117731 472.491901 
L 338.929562 473.334911 
L 343.741394 471.202616 
L 348.553225 470.90508 
L 353.365057 471.648911 
L 358.176888 471.500152 
L 362.98872 470.458785 
L 367.800551 470.310027 
L 372.612383 470.954679 
L 377.424215 470.062089 
L 382.236046 471.252196 
L 387.047878 470.161268 
L 391.859709 469.566215 
L 396.671541 470.458785 
L 401.483372 468.822384 
L 406.295204 468.871964 
L 411.107035 469.21908 
L 415.918867 469.1695 
L 420.730699 469.863732 
L 425.54253 468.971143 
L 430.354362 470.508384 
L 435.166193 469.814152 
L 439.978025 468.772785 
L 444.789856 468.871964 
L 449.601688 468.078553 
L 454.413519 469.318259 
L 459.225351 468.574447 
L 464.037182 469.367857 
L 468.849014 470.161268 
L 473.660846 469.913331 
L 478.472677 468.673625 
L 483.284509 467.979375 
L 488.09634 470.458785 
L 492.908172 472.045626 
L 497.720003 475.318447 
L 502.531835 477.153206 
L 507.343666 477.401143 
L 512.155498 477.301964 
L 516.96733 477.847438 
L 521.779161 476.80609 
L 526.590993 477.202785 
L 531.402824 476.706911 
L 536.214656 477.401143 
L 541.026487 476.706911 
L 545.838319 478.442491 
L 550.65015 477.153206 
L 555.461982 476.558152 
L 560.273814 477.004447 
L 565.085645 477.202785 
L 569.897477 477.252384 
L 574.709308 477.698679 
L 579.52114 476.954848 
L 584.332971 477.500322 
L 589.144803 475.9135 
L 593.956634 474.822553 
L 598.768466 475.96308 
L 603.580297 475.516785 
L 608.392129 475.863901 
L 613.203961 476.508553 
L 618.015792 475.764742 
L 622.827624 475.814321 
L 627.639455 475.169669 
L 632.451287 475.863901 
L 637.263118 476.111858 
L 642.07495 475.020911 
L 646.886781 476.756491 
L 651.698613 476.706911 
L 656.510445 477.054027 
L 661.322276 475.9135 
L 666.134108 475.169669 
L 670.945939 474.425858 
L 675.757771 475.615964 
L 680.569602 476.458974 
" clip-path="url(#pd51ef920bf)" style="fill: none; stroke: #d62728; stroke-width: 1.5; stroke-linecap: square"/>
   </g>
   <g id="line2d_35">
    <path d="M 107.961648 490.839544 
L 112.773479 508.195419 
L 117.585311 513.451777 
L 122.397142 513.848473 
L 127.208974 513.20384 
L 132.020805 514.294767 
L 136.832637 513.947651 
L 141.644469 516.079946 
L 146.4563 514.790661 
L 151.268132 513.402178 
L 156.079963 514.344366 
L 160.891795 513.303018 
L 165.703626 511.864956 
L 170.515458 511.914535 
L 175.327289 512.31125 
L 180.139121 512.212072 
L 184.950953 512.509608 
L 189.762784 512.807125 
L 194.574616 513.550956 
L 199.386447 512.807125 
L 204.198279 511.716197 
L 209.01011 512.410429 
L 213.821942 513.947651 
L 218.633773 511.666598 
L 223.445605 513.055062 
L 228.257436 513.20384 
L 233.069268 512.509608 
L 237.8811 511.864956 
L 242.692931 510.873187 
L 247.504763 512.707946 
L 252.316594 513.550956 
L 257.128426 513.055062 
L 261.940257 510.922767 
L 266.752089 511.269902 
L 271.56392 511.964134 
L 276.375752 511.121125 
L 281.187584 511.765777 
L 285.999415 511.170724 
L 290.811247 512.608767 
L 295.623078 512.162473 
L 300.43491 510.030197 
L 305.246741 519.10483 
L 310.058573 518.856893 
L 314.870404 521.584241 
L 319.682236 521.187545 
L 324.494068 523.220661 
L 329.305899 520.394134 
L 334.117731 522.47683 
L 338.929562 522.724768 
L 343.741394 520.146178 
L 348.553225 522.774366 
L 353.365057 521.782598 
L 358.176888 521.286705 
L 362.98872 523.766116 
L 367.800551 521.881777 
L 372.612383 523.270241 
L 377.424215 521.733 
L 382.236046 522.576009 
L 387.047878 523.716536 
L 391.859709 522.179294 
L 396.671541 522.873545 
L 401.483372 520.989188 
L 406.295204 520.592473 
L 411.107035 521.485062 
L 415.918867 520.493294 
L 420.730699 521.68342 
L 425.54253 523.171062 
L 430.354362 522.278473 
L 435.166193 523.220661 
L 439.978025 522.972705 
L 444.789856 523.766116 
L 449.601688 523.270241 
L 454.413519 523.865294 
L 459.225351 523.964473 
L 464.037182 524.460366 
L 468.849014 523.964473 
L 473.660846 523.964473 
L 478.472677 522.179294 
L 483.284509 523.815714 
L 488.09634 523.121482 
L 492.908172 524.857062 
L 497.720003 518.113062 
L 502.531835 520.394134 
L 507.343666 517.41883 
L 512.155498 517.022134 
L 516.96733 516.526241 
L 521.779161 516.526241 
L 526.590993 517.319652 
L 531.402824 516.823777 
L 536.214656 514.294767 
L 541.026487 517.666768 
L 545.838319 517.765946 
L 550.65015 516.179125 
L 555.461982 517.121294 
L 560.273814 517.666768 
L 565.085645 517.170893 
L 569.897477 517.815545 
L 574.709308 516.526241 
L 579.52114 517.518009 
L 584.332971 518.460178 
L 589.144803 516.675018 
L 593.956634 516.278304 
L 598.768466 519.451946 
L 603.580297 517.319652 
L 608.392129 516.823777 
L 613.203961 517.36925 
L 618.015792 517.617188 
L 622.827624 515.782429 
L 627.639455 516.278304 
L 632.451287 516.476661 
L 637.263118 514.840241 
L 642.07495 515.385714 
L 646.886781 517.765946 
L 651.698613 517.270072 
L 656.510445 517.170893 
L 661.322276 515.782429 
L 666.134108 515.385714 
L 670.945939 516.179125 
L 675.757771 517.666768 
L 680.569602 517.666768 
" clip-path="url(#pd51ef920bf)" style="fill: none; stroke: #9467bd; stroke-width: 1.5; stroke-linecap: square"/>
   </g>
   <g id="patch_3">
    <path d="M 79.33125 590.660625 
L 79.33125 243.543125 
" style="fill: none; stroke: #000000; stroke-width: 0.8; stroke-linejoin: miter; stroke-linecap: square"/>
   </g>
   <g id="patch_4">
    <path d="M 709.2 590.660625 
L 709.2 243.543125 
" style="fill: none; stroke: #000000; stroke-width: 0.8; stroke-linejoin: miter; stroke-linecap: square"/>
   </g>
   <g id="patch_5">
    <path d="M 79.33125 590.660625 
L 709.2 590.660625 
" style="fill: none; stroke: #000000; stroke-width: 0.8; stroke-linejoin: miter; stroke-linecap: square"/>
   </g>
   <g id="patch_6">
    <path d="M 79.33125 243.543125 
L 709.2 243.543125 
" style="fill: none; stroke: #000000; stroke-width: 0.8; stroke-linejoin: miter; stroke-linecap: square"/>
   </g>
   <g id="text_18">
    <!-- Train -->
    <g transform="translate(370.278125 237.543125)scale(0.2 -0.2)">
     <defs>
      <path id="DejaVuSans-54" d="M -19 4666 
L 3928 4666 
L 3928 4134 
L 2272 4134 
L 2272 0 
L 1638 0 
L 1638 4134 
L -19 4134 
L -19 4666 
z
" transform="scale(0.015625)"/>
      <path id="DejaVuSans-69" d="M 603 3500 
L 1178 3500 
L 1178 0 
L 603 0 
L 603 3500 
z
M 603 4863 
L 1178 4863 
L 1178 4134 
L 603 4134 
L 603 4863 
z
" transform="scale(0.015625)"/>
      <path id="DejaVuSans-6e" d="M 3513 2113 
L 3513 0 
L 2938 0 
L 2938 2094 
Q 2938 2591 2744 2837 
Q 2550 3084 2163 3084 
Q 1697 3084 1428 2787 
Q 1159 2491 1159 1978 
L 1159 0 
L 581 0 
L 581 3500 
L 1159 3500 
L 1159 2956 
Q 1366 3272 1645 3428 
Q 1925 3584 2291 3584 
Q 2894 3584 3203 3211 
Q 3513 2838 3513 2113 
z
" transform="scale(0.015625)"/>
     </defs>
     <use xlink:href="#DejaVuSans-54"/>
     <use xlink:href="#DejaVuSans-72" x="46.333984"/>
     <use xlink:href="#DejaVuSans-61" x="87.447266"/>
     <use xlink:href="#DejaVuSans-69" x="148.726562"/>
     <use xlink:href="#DejaVuSans-6e" x="176.509766"/>
    </g>
   </g>
   <g id="legend_1">
    <g id="patch_7">
     <path d="M 639.610937 324.93375 
L 702.2 324.93375 
Q 704.2 324.93375 704.2 322.93375 
L 704.2 250.543125 
Q 704.2 248.543125 702.2 248.543125 
L 639.610937 248.543125 
Q 637.610937 248.543125 637.610937 250.543125 
L 637.610937 322.93375 
Q 637.610937 324.93375 639.610937 324.93375 
z
" style="fill: #ffffff; opacity: 0.8; stroke: #cccccc; stroke-linejoin: miter"/>
    </g>
    <g id="line2d_36">
     <path d="M 641.610937 256.641562 
L 651.610937 256.641562 
L 661.610937 256.641562 
" style="fill: none; stroke: #1f77b4; stroke-width: 1.5; stroke-linecap: square"/>
    </g>
    <g id="text_19">
     <!-- task 0 -->
     <g transform="translate(669.610937 260.141562)scale(0.1 -0.1)">
      <defs>
       <path id="DejaVuSans-6b" d="M 581 4863 
L 1159 4863 
L 1159 1991 
L 2875 3500 
L 3609 3500 
L 1753 1863 
L 3688 0 
L 2938 0 
L 1159 1709 
L 1159 0 
L 581 0 
L 581 4863 
z
" transform="scale(0.015625)"/>
      </defs>
      <use xlink:href="#DejaVuSans-74"/>
      <use xlink:href="#DejaVuSans-61" x="39.208984"/>
      <use xlink:href="#DejaVuSans-73" x="100.488281"/>
      <use xlink:href="#DejaVuSans-6b" x="152.587891"/>
      <use xlink:href="#DejaVuSans-20" x="210.498047"/>
      <use xlink:href="#DejaVuSans-30" x="242.285156"/>
     </g>
    </g>
    <g id="line2d_37">
     <path d="M 641.610937 271.319687 
L 651.610937 271.319687 
L 661.610937 271.319687 
" style="fill: none; stroke: #ff7f0e; stroke-width: 1.5; stroke-linecap: square"/>
    </g>
    <g id="text_20">
     <!-- task 1 -->
     <g transform="translate(669.610937 274.819687)scale(0.1 -0.1)">
      <use xlink:href="#DejaVuSans-74"/>
      <use xlink:href="#DejaVuSans-61" x="39.208984"/>
      <use xlink:href="#DejaVuSans-73" x="100.488281"/>
      <use xlink:href="#DejaVuSans-6b" x="152.587891"/>
      <use xlink:href="#DejaVuSans-20" x="210.498047"/>
      <use xlink:href="#DejaVuSans-31" x="242.285156"/>
     </g>
    </g>
    <g id="line2d_38">
     <path d="M 641.610937 285.997813 
L 651.610937 285.997813 
L 661.610937 285.997813 
" style="fill: none; stroke: #2ca02c; stroke-width: 1.5; stroke-linecap: square"/>
    </g>
    <g id="text_21">
     <!-- task 2 -->
     <g transform="translate(669.610937 289.497813)scale(0.1 -0.1)">
      <use xlink:href="#DejaVuSans-74"/>
      <use xlink:href="#DejaVuSans-61" x="39.208984"/>
      <use xlink:href="#DejaVuSans-73" x="100.488281"/>
      <use xlink:href="#DejaVuSans-6b" x="152.587891"/>
      <use xlink:href="#DejaVuSans-20" x="210.498047"/>
      <use xlink:href="#DejaVuSans-32" x="242.285156"/>
     </g>
    </g>
    <g id="line2d_39">
     <path d="M 641.610937 300.675937 
L 651.610937 300.675937 
L 661.610937 300.675937 
" style="fill: none; stroke: #d62728; stroke-width: 1.5; stroke-linecap: square"/>
    </g>
    <g id="text_22">
     <!-- task 3 -->
     <g transform="translate(669.610937 304.175937)scale(0.1 -0.1)">
      <use xlink:href="#DejaVuSans-74"/>
      <use xlink:href="#DejaVuSans-61" x="39.208984"/>
      <use xlink:href="#DejaVuSans-73" x="100.488281"/>
      <use xlink:href="#DejaVuSans-6b" x="152.587891"/>
      <use xlink:href="#DejaVuSans-20" x="210.498047"/>
      <use xlink:href="#DejaVuSans-33" x="242.285156"/>
     </g>
    </g>
    <g id="line2d_40">
     <path d="M 641.610937 315.354062 
L 651.610937 315.354062 
L 661.610937 315.354062 
" style="fill: none; stroke: #9467bd; stroke-width: 1.5; stroke-linecap: square"/>
    </g>
    <g id="text_23">
     <!-- task 4 -->
     <g transform="translate(669.610937 318.854062)scale(0.1 -0.1)">
      <use xlink:href="#DejaVuSans-74"/>
      <use xlink:href="#DejaVuSans-61" x="39.208984"/>
      <use xlink:href="#DejaVuSans-73" x="100.488281"/>
      <use xlink:href="#DejaVuSans-6b" x="152.587891"/>
      <use xlink:href="#DejaVuSans-20" x="210.498047"/>
      <use xlink:href="#DejaVuSans-34" x="242.285156"/>
     </g>
    </g>
   </g>
  </g>
  <g id="axes_2">
   <g id="patch_8">
    <path d="M 79.33125 1019.4875 
L 709.2 1019.4875 
L 709.2 672.37 
L 79.33125 672.37 
z
" style="fill: #ffffff"/>
   </g>
   <g id="matplotlib.axis_3">
    <g id="xtick_8">
     <g id="line2d_41">
      <path d="M 107.961648 1019.4875 
L 107.961648 672.37 
" clip-path="url(#pbdc29f6d3e)" style="fill: none; stroke: #b0b0b0; stroke-width: 0.8; stroke-linecap: square"/>
     </g>
     <g id="line2d_42">
      <g>
       <use xlink:href="#mcaaf5cab2e" x="107.961648" y="1019.4875" style="stroke: #000000; stroke-width: 0.8"/>
      </g>
     </g>
     <g id="text_24">
      <!-- 0 -->
      <g transform="translate(101.599148 1041.684375)scale(0.2 -0.2)">
       <use xlink:href="#DejaVuSans-30"/>
      </g>
     </g>
    </g>
    <g id="xtick_9">
     <g id="line2d_43">
      <path d="M 204.198279 1019.4875 
L 204.198279 672.37 
" clip-path="url(#pbdc29f6d3e)" style="fill: none; stroke: #b0b0b0; stroke-width: 0.8; stroke-linecap: square"/>
     </g>
     <g id="line2d_44">
      <g>
       <use xlink:href="#mcaaf5cab2e" x="204.198279" y="1019.4875" style="stroke: #000000; stroke-width: 0.8"/>
      </g>
     </g>
     <g id="text_25">
      <!-- 20 -->
      <g transform="translate(191.473279 1041.684375)scale(0.2 -0.2)">
       <use xlink:href="#DejaVuSans-32"/>
       <use xlink:href="#DejaVuSans-30" x="63.623047"/>
      </g>
     </g>
    </g>
    <g id="xtick_10">
     <g id="line2d_45">
      <path d="M 300.43491 1019.4875 
L 300.43491 672.37 
" clip-path="url(#pbdc29f6d3e)" style="fill: none; stroke: #b0b0b0; stroke-width: 0.8; stroke-linecap: square"/>
     </g>
     <g id="line2d_46">
      <g>
       <use xlink:href="#mcaaf5cab2e" x="300.43491" y="1019.4875" style="stroke: #000000; stroke-width: 0.8"/>
      </g>
     </g>
     <g id="text_26">
      <!-- 40 -->
      <g transform="translate(287.70991 1041.684375)scale(0.2 -0.2)">
       <use xlink:href="#DejaVuSans-34"/>
       <use xlink:href="#DejaVuSans-30" x="63.623047"/>
      </g>
     </g>
    </g>
    <g id="xtick_11">
     <g id="line2d_47">
      <path d="M 396.671541 1019.4875 
L 396.671541 672.37 
" clip-path="url(#pbdc29f6d3e)" style="fill: none; stroke: #b0b0b0; stroke-width: 0.8; stroke-linecap: square"/>
     </g>
     <g id="line2d_48">
      <g>
       <use xlink:href="#mcaaf5cab2e" x="396.671541" y="1019.4875" style="stroke: #000000; stroke-width: 0.8"/>
      </g>
     </g>
     <g id="text_27">
      <!-- 60 -->
      <g transform="translate(383.946541 1041.684375)scale(0.2 -0.2)">
       <use xlink:href="#DejaVuSans-36"/>
       <use xlink:href="#DejaVuSans-30" x="63.623047"/>
      </g>
     </g>
    </g>
    <g id="xtick_12">
     <g id="line2d_49">
      <path d="M 492.908172 1019.4875 
L 492.908172 672.37 
" clip-path="url(#pbdc29f6d3e)" style="fill: none; stroke: #b0b0b0; stroke-width: 0.8; stroke-linecap: square"/>
     </g>
     <g id="line2d_50">
      <g>
       <use xlink:href="#mcaaf5cab2e" x="492.908172" y="1019.4875" style="stroke: #000000; stroke-width: 0.8"/>
      </g>
     </g>
     <g id="text_28">
      <!-- 80 -->
      <g transform="translate(480.183172 1041.684375)scale(0.2 -0.2)">
       <use xlink:href="#DejaVuSans-38"/>
       <use xlink:href="#DejaVuSans-30" x="63.623047"/>
      </g>
     </g>
    </g>
    <g id="xtick_13">
     <g id="line2d_51">
      <path d="M 589.144803 1019.4875 
L 589.144803 672.37 
" clip-path="url(#pbdc29f6d3e)" style="fill: none; stroke: #b0b0b0; stroke-width: 0.8; stroke-linecap: square"/>
     </g>
     <g id="line2d_52">
      <g>
       <use xlink:href="#mcaaf5cab2e" x="589.144803" y="1019.4875" style="stroke: #000000; stroke-width: 0.8"/>
      </g>
     </g>
     <g id="text_29">
      <!-- 100 -->
      <g transform="translate(570.057303 1041.684375)scale(0.2 -0.2)">
       <use xlink:href="#DejaVuSans-31"/>
       <use xlink:href="#DejaVuSans-30" x="63.623047"/>
       <use xlink:href="#DejaVuSans-30" x="127.246094"/>
      </g>
     </g>
    </g>
    <g id="xtick_14">
     <g id="line2d_53">
      <path d="M 685.381434 1019.4875 
L 685.381434 672.37 
" clip-path="url(#pbdc29f6d3e)" style="fill: none; stroke: #b0b0b0; stroke-width: 0.8; stroke-linecap: square"/>
     </g>
     <g id="line2d_54">
      <g>
       <use xlink:href="#mcaaf5cab2e" x="685.381434" y="1019.4875" style="stroke: #000000; stroke-width: 0.8"/>
      </g>
     </g>
     <g id="text_30">
      <!-- 120 -->
      <g transform="translate(666.293934 1041.684375)scale(0.2 -0.2)">
       <use xlink:href="#DejaVuSans-31"/>
       <use xlink:href="#DejaVuSans-32" x="63.623047"/>
       <use xlink:href="#DejaVuSans-30" x="127.246094"/>
      </g>
     </g>
    </g>
    <g id="text_31">
     <!-- step -->
     <g transform="translate(372.634375 1065.040625)scale(0.2 -0.2)">
      <use xlink:href="#DejaVuSans-73"/>
      <use xlink:href="#DejaVuSans-74" x="52.099609"/>
      <use xlink:href="#DejaVuSans-65" x="91.308594"/>
      <use xlink:href="#DejaVuSans-70" x="152.832031"/>
     </g>
    </g>
   </g>
   <g id="matplotlib.axis_4">
    <g id="ytick_9">
     <g id="line2d_55">
      <path d="M 79.33125 1019.4875 
L 709.2 1019.4875 
" clip-path="url(#pbdc29f6d3e)" style="fill: none; stroke: #b0b0b0; stroke-width: 0.8; stroke-linecap: square"/>
     </g>
     <g id="line2d_56">
      <g>
       <use xlink:href="#m51c709945b" x="79.33125" y="1019.4875" style="stroke: #000000; stroke-width: 0.8"/>
      </g>
     </g>
     <g id="text_32">
      <!-- 30 -->
      <g transform="translate(46.88125 1027.085938)scale(0.2 -0.2)">
       <use xlink:href="#DejaVuSans-33"/>
       <use xlink:href="#DejaVuSans-30" x="63.623047"/>
      </g>
     </g>
    </g>
    <g id="ytick_10">
     <g id="line2d_57">
      <path d="M 79.33125 969.899286 
L 709.2 969.899286 
" clip-path="url(#pbdc29f6d3e)" style="fill: none; stroke: #b0b0b0; stroke-width: 0.8; stroke-linecap: square"/>
     </g>
     <g id="line2d_58">
      <g>
       <use xlink:href="#m51c709945b" x="79.33125" y="969.899286" style="stroke: #000000; stroke-width: 0.8"/>
      </g>
     </g>
     <g id="text_33">
      <!-- 40 -->
      <g transform="translate(46.88125 977.497723)scale(0.2 -0.2)">
       <use xlink:href="#DejaVuSans-34"/>
       <use xlink:href="#DejaVuSans-30" x="63.623047"/>
      </g>
     </g>
    </g>
    <g id="ytick_11">
     <g id="line2d_59">
      <path d="M 79.33125 920.311071 
L 709.2 920.311071 
" clip-path="url(#pbdc29f6d3e)" style="fill: none; stroke: #b0b0b0; stroke-width: 0.8; stroke-linecap: square"/>
     </g>
     <g id="line2d_60">
      <g>
       <use xlink:href="#m51c709945b" x="79.33125" y="920.311071" style="stroke: #000000; stroke-width: 0.8"/>
      </g>
     </g>
     <g id="text_34">
      <!-- 50 -->
      <g transform="translate(46.88125 927.909509)scale(0.2 -0.2)">
       <use xlink:href="#DejaVuSans-35"/>
       <use xlink:href="#DejaVuSans-30" x="63.623047"/>
      </g>
     </g>
    </g>
    <g id="ytick_12">
     <g id="line2d_61">
      <path d="M 79.33125 870.722857 
L 709.2 870.722857 
" clip-path="url(#pbdc29f6d3e)" style="fill: none; stroke: #b0b0b0; stroke-width: 0.8; stroke-linecap: square"/>
     </g>
     <g id="line2d_62">
      <g>
       <use xlink:href="#m51c709945b" x="79.33125" y="870.722857" style="stroke: #000000; stroke-width: 0.8"/>
      </g>
     </g>
     <g id="text_35">
      <!-- 60 -->
      <g transform="translate(46.88125 878.321295)scale(0.2 -0.2)">
       <use xlink:href="#DejaVuSans-36"/>
       <use xlink:href="#DejaVuSans-30" x="63.623047"/>
      </g>
     </g>
    </g>
    <g id="ytick_13">
     <g id="line2d_63">
      <path d="M 79.33125 821.134643 
L 709.2 821.134643 
" clip-path="url(#pbdc29f6d3e)" style="fill: none; stroke: #b0b0b0; stroke-width: 0.8; stroke-linecap: square"/>
     </g>
     <g id="line2d_64">
      <g>
       <use xlink:href="#m51c709945b" x="79.33125" y="821.134643" style="stroke: #000000; stroke-width: 0.8"/>
      </g>
     </g>
     <g id="text_36">
      <!-- 70 -->
      <g transform="translate(46.88125 828.73308)scale(0.2 -0.2)">
       <use xlink:href="#DejaVuSans-37"/>
       <use xlink:href="#DejaVuSans-30" x="63.623047"/>
      </g>
     </g>
    </g>
    <g id="ytick_14">
     <g id="line2d_65">
      <path d="M 79.33125 771.546429 
L 709.2 771.546429 
" clip-path="url(#pbdc29f6d3e)" style="fill: none; stroke: #b0b0b0; stroke-width: 0.8; stroke-linecap: square"/>
     </g>
     <g id="line2d_66">
      <g>
       <use xlink:href="#m51c709945b" x="79.33125" y="771.546429" style="stroke: #000000; stroke-width: 0.8"/>
      </g>
     </g>
     <g id="text_37">
      <!-- 80 -->
      <g transform="translate(46.88125 779.144866)scale(0.2 -0.2)">
       <use xlink:href="#DejaVuSans-38"/>
       <use xlink:href="#DejaVuSans-30" x="63.623047"/>
      </g>
     </g>
    </g>
    <g id="ytick_15">
     <g id="line2d_67">
      <path d="M 79.33125 721.958214 
L 709.2 721.958214 
" clip-path="url(#pbdc29f6d3e)" style="fill: none; stroke: #b0b0b0; stroke-width: 0.8; stroke-linecap: square"/>
     </g>
     <g id="line2d_68">
      <g>
       <use xlink:href="#m51c709945b" x="79.33125" y="721.958214" style="stroke: #000000; stroke-width: 0.8"/>
      </g>
     </g>
     <g id="text_38">
      <!-- 90 -->
      <g transform="translate(46.88125 729.556652)scale(0.2 -0.2)">
       <use xlink:href="#DejaVuSans-39"/>
       <use xlink:href="#DejaVuSans-30" x="63.623047"/>
      </g>
     </g>
    </g>
    <g id="ytick_16">
     <g id="line2d_69">
      <path d="M 79.33125 672.37 
L 709.2 672.37 
" clip-path="url(#pbdc29f6d3e)" style="fill: none; stroke: #b0b0b0; stroke-width: 0.8; stroke-linecap: square"/>
     </g>
     <g id="line2d_70">
      <g>
       <use xlink:href="#m51c709945b" x="79.33125" y="672.37" style="stroke: #000000; stroke-width: 0.8"/>
      </g>
     </g>
     <g id="text_39">
      <!-- 100 -->
      <g transform="translate(34.15625 679.968437)scale(0.2 -0.2)">
       <use xlink:href="#DejaVuSans-31"/>
       <use xlink:href="#DejaVuSans-30" x="63.623047"/>
       <use xlink:href="#DejaVuSans-30" x="127.246094"/>
      </g>
     </g>
    </g>
    <g id="text_40">
     <!-- accuracy [%] -->
     <g transform="translate(25.996875 911.530312)rotate(-90)scale(0.2 -0.2)">
      <use xlink:href="#DejaVuSans-61"/>
      <use xlink:href="#DejaVuSans-63" x="61.279297"/>
      <use xlink:href="#DejaVuSans-63" x="116.259766"/>
      <use xlink:href="#DejaVuSans-75" x="171.240234"/>
      <use xlink:href="#DejaVuSans-72" x="234.619141"/>
      <use xlink:href="#DejaVuSans-61" x="275.732422"/>
      <use xlink:href="#DejaVuSans-63" x="337.011719"/>
      <use xlink:href="#DejaVuSans-79" x="391.992188"/>
      <use xlink:href="#DejaVuSans-20" x="451.171875"/>
      <use xlink:href="#DejaVuSans-5b" x="482.958984"/>
      <use xlink:href="#DejaVuSans-25" x="521.972656"/>
      <use xlink:href="#DejaVuSans-5d" x="616.992188"/>
     </g>
    </g>
   </g>
   <g id="line2d_71">
    <path d="M 107.961648 922.790482 
L 112.773479 931.46842 
L 117.585311 920.311071 
L 122.397142 909.897554 
L 127.208974 897.996375 
L 132.020805 897.5005 
L 136.832637 893.285491 
L 141.644469 888.326669 
L 146.4563 884.111679 
L 151.268132 873.946099 
L 156.079963 870.47492 
L 160.891795 862.78875 
L 165.703626 859.317572 
L 170.515458 856.838161 
L 175.327289 851.383446 
L 180.139121 848.160205 
L 184.950953 847.66433 
L 189.762784 840.226098 
L 194.574616 836.506982 
L 199.386447 832.787866 
L 204.198279 831.300242 
L 209.01011 829.06875 
L 213.821942 823.86201 
L 218.633773 820.638768 
L 223.445605 823.118179 
L 228.257436 819.151107 
L 233.069268 815.431991 
L 237.8811 813.448455 
L 242.692931 810.969044 
L 247.504763 809.729338 
L 252.316594 808.737589 
L 257.128426 808.241715 
L 261.940257 806.258179 
L 266.752089 807.249928 
L 271.56392 801.299357 
L 276.375752 799.067903 
L 281.187584 799.563777 
L 285.999415 797.332285 
L 290.811247 796.83641 
L 295.623078 795.10083 
L 300.43491 793.117294 
L 305.246741 801.795232 
L 310.058573 806.754053 
L 314.870404 811.960831 
L 319.682236 815.679947 
L 324.494068 813.944367 
L 329.305899 818.159358 
L 334.117731 816.423778 
L 338.929562 818.655232 
L 343.741394 816.175821 
L 348.553225 814.440241 
L 353.365057 814.440241 
L 358.176888 816.423778 
L 362.98872 814.192285 
L 367.800551 816.175821 
L 372.612383 815.431991 
L 377.424215 814.192285 
L 382.236046 816.175821 
L 387.047878 816.423778 
L 391.859709 815.679947 
L 396.671541 814.936116 
L 401.483372 815.927865 
L 406.295204 816.175821 
L 411.107035 815.431991 
L 415.918867 814.192285 
L 420.730699 815.184072 
L 425.54253 816.175821 
L 430.354362 815.184072 
L 435.166193 815.927865 
L 439.978025 812.95258 
L 444.789856 814.936116 
L 449.601688 812.456705 
L 454.413519 813.200536 
L 459.225351 813.944367 
L 464.037182 813.200536 
L 468.849014 815.431991 
L 473.660846 814.440241 
L 478.472677 815.431991 
L 483.284509 815.679947 
L 488.09634 815.184072 
L 492.908172 812.95258 
L 497.720003 804.522599 
L 502.531835 793.36525 
L 507.343666 794.109081 
L 512.155498 796.340536 
L 516.96733 790.637884 
L 521.779161 797.332285 
L 526.590993 795.596705 
L 531.402824 795.596705 
L 536.214656 798.076116 
L 541.026487 794.357 
L 545.838319 795.10083 
L 550.65015 792.869376 
L 555.461982 797.580241 
L 560.273814 796.09258 
L 565.085645 795.844661 
L 569.897477 794.852874 
L 574.709308 794.604956 
L 579.52114 793.613169 
L 584.332971 795.596705 
L 589.144803 794.604956 
L 593.956634 794.357 
L 598.768466 793.861125 
L 603.580297 796.340536 
L 608.392129 798.076116 
L 613.203961 796.588492 
L 618.015792 798.324072 
L 622.827624 799.563777 
L 627.639455 796.588492 
L 632.451287 798.076116 
L 637.263118 800.555526 
L 642.07495 800.803483 
L 646.886781 800.555526 
L 651.698613 797.332285 
L 656.510445 799.067903 
L 661.322276 800.307608 
L 666.134108 799.811696 
L 670.945939 801.051401 
L 675.757771 799.067903 
L 680.569602 799.067903 
" clip-path="url(#pbdc29f6d3e)" style="fill: none; stroke: #1f77b4; stroke-width: 1.5; stroke-linecap: square"/>
   </g>
   <g id="line2d_72">
    <path d="M 107.961648 908.657849 
L 112.773479 922.542545 
L 117.585311 918.327535 
L 122.397142 916.096081 
L 127.208974 910.145491 
L 132.020805 907.418143 
L 136.832637 908.409892 
L 141.644469 907.170187 
L 146.4563 906.178438 
L 151.268132 907.666081 
L 156.079963 906.92225 
L 160.891795 900.227848 
L 165.703626 906.178438 
L 170.515458 907.418143 
L 175.327289 906.426375 
L 180.139121 901.467554 
L 184.950953 901.219616 
L 189.762784 900.723723 
L 194.574616 904.690776 
L 199.386447 899.979911 
L 204.198279 901.219616 
L 209.01011 901.219616 
L 213.821942 903.451071 
L 218.633773 902.707259 
L 223.445605 904.690776 
L 228.257436 906.674313 
L 233.069268 906.426375 
L 237.8811 900.97166 
L 242.692931 903.946964 
L 247.504763 902.707259 
L 252.316594 903.451071 
L 257.128426 903.946964 
L 261.940257 908.161955 
L 266.752089 906.178438 
L 271.56392 904.690776 
L 276.375752 904.442839 
L 281.187584 904.938733 
L 285.999415 903.451071 
L 290.811247 902.707259 
L 295.623078 902.707259 
L 300.43491 900.227848 
L 305.246741 906.674313 
L 310.058573 897.252544 
L 314.870404 892.789616 
L 319.682236 884.607553 
L 324.494068 880.888437 
L 329.305899 869.483152 
L 334.117731 861.549045 
L 338.929562 863.532562 
L 343.741394 855.846393 
L 348.553225 851.631402 
L 353.365057 846.424625 
L 358.176888 841.961678 
L 362.98872 838.986392 
L 367.800551 838.242562 
L 372.612383 836.011107 
L 377.424215 828.077 
L 382.236046 829.06875 
L 387.047878 823.366097 
L 391.859709 819.399063 
L 396.671541 820.886687 
L 401.483372 822.622304 
L 406.295204 821.134643 
L 411.107035 816.175821 
L 415.918867 814.440241 
L 420.730699 813.696411 
L 425.54253 809.977295 
L 430.354362 807.74584 
L 435.166193 808.489633 
L 439.978025 807.249928 
L 444.789856 805.762304 
L 449.601688 804.522599 
L 454.413519 801.299357 
L 459.225351 801.795232 
L 464.037182 801.051401 
L 468.849014 802.043188 
L 473.660846 800.555526 
L 478.472677 800.555526 
L 483.284509 798.819946 
L 488.09634 799.563777 
L 492.908172 800.803483 
L 497.720003 806.010222 
L 502.531835 810.721125 
L 507.343666 809.48142 
L 512.155498 807.993759 
L 516.96733 808.737589 
L 521.779161 809.729338 
L 526.590993 810.721125 
L 531.402824 810.473169 
L 536.214656 810.225251 
L 541.026487 808.737589 
L 545.838319 807.497884 
L 550.65015 811.712875 
L 555.461982 811.712875 
L 560.273814 811.464956 
L 565.085645 811.464956 
L 569.897477 809.729338 
L 574.709308 807.74584 
L 579.52114 807.249928 
L 584.332971 808.489633 
L 589.144803 808.489633 
L 593.956634 809.48142 
L 598.768466 807.993759 
L 603.580297 808.985545 
L 608.392129 810.969044 
L 613.203961 810.969044 
L 618.015792 809.977295 
L 622.827624 808.985545 
L 627.639455 808.241715 
L 632.451287 809.48142 
L 637.263118 809.729338 
L 642.07495 807.74584 
L 646.886781 808.241715 
L 651.698613 808.489633 
L 656.510445 806.506135 
L 661.322276 807.74584 
L 666.134108 807.249928 
L 670.945939 806.506135 
L 675.757771 811.464956 
L 680.569602 811.217 
" clip-path="url(#pbdc29f6d3e)" style="fill: none; stroke: #ff7f0e; stroke-width: 1.5; stroke-linecap: square"/>
   </g>
   <g id="line2d_73">
    <path d="M 107.961648 998.908384 
L 112.773479 932.956062 
L 117.585311 923.286357 
L 122.397142 923.78225 
L 127.208974 918.575491 
L 132.020805 916.839893 
L 136.832637 915.848125 
L 141.644469 921.798714 
L 146.4563 918.823429 
L 151.268132 914.360482 
L 156.079963 920.806946 
L 160.891795 921.798714 
L 165.703626 917.583723 
L 170.515458 922.542545 
L 175.327289 919.319303 
L 180.139121 920.311071 
L 184.950953 918.079598 
L 189.762784 918.823429 
L 194.574616 918.079598 
L 199.386447 919.815197 
L 204.198279 920.559009 
L 209.01011 922.046651 
L 213.821942 921.798714 
L 218.633773 921.798714 
L 223.445605 918.575491 
L 228.257436 920.559009 
L 233.069268 916.096081 
L 237.8811 923.038419 
L 242.692931 922.790482 
L 247.504763 920.063134 
L 252.316594 918.823429 
L 257.128426 919.815197 
L 261.940257 920.806946 
L 266.752089 924.278125 
L 271.56392 922.790482 
L 276.375752 924.774018 
L 281.187584 924.774018 
L 285.999415 919.319303 
L 290.811247 921.550777 
L 295.623078 926.757536 
L 300.43491 921.798714 
L 305.246741 922.046651 
L 310.058573 915.848125 
L 314.870404 915.600187 
L 319.682236 915.600187 
L 324.494068 913.368714 
L 329.305899 912.872839 
L 334.117731 921.550777 
L 338.929562 919.071366 
L 343.741394 909.897554 
L 348.553225 914.112545 
L 353.365057 913.368714 
L 358.176888 910.889303 
L 362.98872 911.881071 
L 367.800551 911.137259 
L 372.612383 909.153723 
L 377.424215 914.856375 
L 382.236046 913.120777 
L 387.047878 908.657849 
L 391.859709 910.145491 
L 396.671541 913.864607 
L 401.483372 914.360482 
L 406.295204 908.657849 
L 411.107035 908.161955 
L 415.918867 905.682544 
L 420.730699 910.889303 
L 425.54253 910.641366 
L 430.354362 911.881071 
L 435.166193 908.409892 
L 439.978025 909.153723 
L 444.789856 907.666081 
L 449.601688 912.624902 
L 454.413519 908.905786 
L 459.225351 910.145491 
L 464.037182 912.872839 
L 468.849014 907.418143 
L 473.660846 906.178438 
L 478.472677 907.170187 
L 483.284509 907.914018 
L 488.09634 909.649598 
L 492.908172 908.409892 
L 497.720003 894.773134 
L 502.531835 879.152857 
L 507.343666 869.731089 
L 512.155498 855.846393 
L 516.96733 843.201383 
L 521.779161 835.515233 
L 526.590993 828.572875 
L 531.402824 822.622304 
L 536.214656 818.903188 
L 541.026487 812.456705 
L 545.838319 805.514348 
L 550.65015 804.274642 
L 555.461982 801.795232 
L 560.273814 796.83641 
L 565.085645 794.852874 
L 569.897477 790.142009 
L 574.709308 788.158473 
L 579.52114 789.646134 
L 584.332971 790.142009 
L 589.144803 785.183188 
L 593.956634 782.207902 
L 598.768466 781.712028 
L 603.580297 778.488786 
L 608.392129 779.728491 
L 613.203961 777.001125 
L 618.015792 775.761419 
L 622.827624 773.777883 
L 627.639455 773.03409 
L 632.451287 773.03409 
L 637.263118 771.050554 
L 642.07495 771.546429 
L 646.886781 770.058767 
L 651.698613 769.810849 
L 656.510445 769.067018 
L 661.322276 767.331438 
L 666.134108 766.835563 
L 670.945939 768.323187 
L 675.757771 767.827312 
L 680.569602 764.604071 
" clip-path="url(#pbdc29f6d3e)" style="fill: none; stroke: #2ca02c; stroke-width: 1.5; stroke-linecap: square"/>
   </g>
   <g id="line2d_74">
    <path d="M 107.961648 926.757536 
L 112.773479 916.344018 
L 117.585311 915.104313 
L 122.397142 912.624902 
L 127.208974 911.137259 
L 132.020805 910.641366 
L 136.832637 913.120777 
L 141.644469 911.385197 
L 146.4563 911.633134 
L 151.268132 911.633134 
L 156.079963 909.153723 
L 160.891795 913.368714 
L 165.703626 912.129009 
L 170.515458 913.864607 
L 175.327289 912.872839 
L 180.139121 914.608419 
L 184.950953 912.624902 
L 189.762784 915.600187 
L 194.574616 916.839893 
L 199.386447 918.079598 
L 204.198279 917.583723 
L 209.01011 917.831661 
L 213.821942 916.839893 
L 218.633773 916.344018 
L 223.445605 919.319303 
L 228.257436 914.608419 
L 233.069268 913.61667 
L 237.8811 916.344018 
L 242.692931 913.120777 
L 247.504763 912.624902 
L 252.316594 916.344018 
L 257.128426 917.08783 
L 261.940257 913.61667 
L 266.752089 915.104313 
L 271.56392 915.600187 
L 276.375752 914.360482 
L 281.187584 916.839893 
L 285.999415 918.575491 
L 290.811247 916.591955 
L 295.623078 917.335786 
L 300.43491 914.360482 
L 305.246741 909.153723 
L 310.058573 906.92225 
L 314.870404 904.938733 
L 319.682236 906.92225 
L 324.494068 906.92225 
L 329.305899 906.426375 
L 334.117731 904.194902 
L 338.929562 904.442839 
L 343.741394 903.451071 
L 348.553225 903.203134 
L 353.365057 904.442839 
L 358.176888 904.938733 
L 362.98872 906.92225 
L 367.800551 907.666081 
L 372.612383 904.938733 
L 377.424215 903.451071 
L 382.236046 904.194902 
L 387.047878 905.434607 
L 391.859709 902.707259 
L 396.671541 902.955196 
L 401.483372 900.97166 
L 406.295204 903.451071 
L 411.107035 902.707259 
L 415.918867 901.219616 
L 420.730699 903.451071 
L 425.54253 902.955196 
L 430.354362 902.955196 
L 435.166193 901.963428 
L 439.978025 901.963428 
L 444.789856 902.707259 
L 449.601688 901.219616 
L 454.413519 901.963428 
L 459.225351 901.467554 
L 464.037182 901.219616 
L 468.849014 903.451071 
L 473.660846 903.203134 
L 478.472677 903.451071 
L 483.284509 903.203134 
L 488.09634 903.946964 
L 492.908172 905.930482 
L 497.720003 906.674313 
L 502.531835 909.153723 
L 507.343666 909.153723 
L 512.155498 912.129009 
L 516.96733 909.897554 
L 521.779161 907.666081 
L 526.590993 907.170187 
L 531.402824 908.657849 
L 536.214656 909.649598 
L 541.026487 909.649598 
L 545.838319 910.889303 
L 550.65015 907.418143 
L 555.461982 907.666081 
L 560.273814 908.657849 
L 565.085645 908.161955 
L 569.897477 909.649598 
L 574.709308 908.905786 
L 579.52114 909.401661 
L 584.332971 909.649598 
L 589.144803 912.129009 
L 593.956634 908.409892 
L 598.768466 907.914018 
L 603.580297 906.92225 
L 608.392129 907.666081 
L 613.203961 907.418143 
L 618.015792 908.161955 
L 622.827624 906.92225 
L 627.639455 905.682544 
L 632.451287 905.18667 
L 637.263118 903.699027 
L 642.07495 906.92225 
L 646.886781 908.905786 
L 651.698613 907.418143 
L 656.510445 905.434607 
L 661.322276 904.690776 
L 666.134108 903.203134 
L 670.945939 904.690776 
L 675.757771 907.914018 
L 680.569602 907.170187 
" clip-path="url(#pbdc29f6d3e)" style="fill: none; stroke: #d62728; stroke-width: 1.5; stroke-linecap: square"/>
   </g>
   <g id="line2d_75">
    <path d="M 107.961648 922.046651 
L 112.773479 939.154589 
L 117.585311 945.105179 
L 122.397142 947.584589 
L 127.208974 941.634 
L 132.020805 938.906652 
L 136.832637 940.146357 
L 141.644469 939.89842 
L 146.4563 944.857241 
L 151.268132 942.129893 
L 156.079963 943.865473 
L 160.891795 941.881937 
L 165.703626 944.361348 
L 170.515458 941.634 
L 175.327289 944.361348 
L 180.139121 944.113411 
L 184.950953 943.617536 
L 189.762784 942.129893 
L 194.574616 941.634 
L 199.386447 943.617536 
L 204.198279 945.849009 
L 209.01011 946.592821 
L 213.821942 944.113411 
L 218.633773 940.890188 
L 223.445605 942.377831 
L 228.257436 941.634 
L 233.069268 940.642232 
L 237.8811 938.906652 
L 242.692931 940.394294 
L 247.504763 941.138125 
L 252.316594 940.146357 
L 257.128426 939.154589 
L 261.940257 935.187536 
L 266.752089 936.427241 
L 271.56392 937.419009 
L 276.375752 940.890188 
L 281.187584 940.394294 
L 285.999415 941.634 
L 290.811247 942.625768 
L 295.623078 938.658714 
L 300.43491 940.394294 
L 305.246741 949.816063 
L 310.058573 954.526947 
L 314.870404 958.741937 
L 319.682236 956.758401 
L 324.494068 957.254295 
L 329.305899 955.022821 
L 334.117731 954.774884 
L 338.929562 955.270759 
L 343.741394 952.543411 
L 348.553225 952.791348 
L 353.365057 955.270759 
L 358.176888 956.014589 
L 362.98872 954.526947 
L 367.800551 955.270759 
L 372.612383 954.031053 
L 377.424215 951.79958 
L 382.236046 955.518696 
L 387.047878 955.270759 
L 391.859709 953.535179 
L 396.671541 957.254295 
L 401.483372 952.543411 
L 406.295204 952.543411 
L 411.107035 953.783116 
L 415.918867 948.824295 
L 420.730699 952.543411 
L 425.54253 953.783116 
L 430.354362 953.535179 
L 435.166193 957.006358 
L 439.978025 953.039285 
L 444.789856 953.783116 
L 449.601688 952.047536 
L 454.413519 953.535179 
L 459.225351 955.518696 
L 464.037182 957.502232 
L 468.849014 954.031053 
L 473.660846 953.535179 
L 478.472677 952.047536 
L 483.284509 951.551643 
L 488.09634 954.031053 
L 492.908172 955.766652 
L 497.720003 953.039285 
L 502.531835 953.039285 
L 507.343666 948.824295 
L 512.155498 949.816063 
L 516.96733 950.559875 
L 521.779161 948.080464 
L 526.590993 951.055768 
L 531.402824 949.072232 
L 536.214656 946.344884 
L 541.026487 946.840759 
L 545.838319 949.816063 
L 550.65015 950.807831 
L 555.461982 948.824295 
L 560.273814 949.816063 
L 565.085645 946.840759 
L 569.897477 947.336652 
L 574.709308 948.824295 
L 579.52114 952.047536 
L 584.332971 952.047536 
L 589.144803 949.072232 
L 593.956634 949.816063 
L 598.768466 951.551643 
L 603.580297 948.080464 
L 608.392129 951.303705 
L 613.203961 951.551643 
L 618.015792 951.551643 
L 622.827624 948.080464 
L 627.639455 949.816063 
L 632.451287 949.320169 
L 637.263118 951.551643 
L 642.07495 948.576357 
L 646.886781 948.32842 
L 651.698613 949.072232 
L 656.510445 947.832527 
L 661.322276 947.832527 
L 666.134108 949.568125 
L 670.945939 954.031053 
L 675.757771 949.568125 
L 680.569602 948.32842 
" clip-path="url(#pbdc29f6d3e)" style="fill: none; stroke: #9467bd; stroke-width: 1.5; stroke-linecap: square"/>
   </g>
   <g id="patch_9">
    <path d="M 79.33125 1019.4875 
L 79.33125 672.37 
" style="fill: none; stroke: #000000; stroke-width: 0.8; stroke-linejoin: miter; stroke-linecap: square"/>
   </g>
   <g id="patch_10">
    <path d="M 709.2 1019.4875 
L 709.2 672.37 
" style="fill: none; stroke: #000000; stroke-width: 0.8; stroke-linejoin: miter; stroke-linecap: square"/>
   </g>
   <g id="patch_11">
    <path d="M 79.33125 1019.4875 
L 709.2 1019.4875 
" style="fill: none; stroke: #000000; stroke-width: 0.8; stroke-linejoin: miter; stroke-linecap: square"/>
   </g>
   <g id="patch_12">
    <path d="M 79.33125 672.37 
L 709.2 672.37 
" style="fill: none; stroke: #000000; stroke-width: 0.8; stroke-linejoin: miter; stroke-linecap: square"/>
   </g>
   <g id="text_41">
    <!-- Test -->
    <g transform="translate(374.575 666.37)scale(0.2 -0.2)">
     <use xlink:href="#DejaVuSans-54"/>
     <use xlink:href="#DejaVuSans-65" x="44.083984"/>
     <use xlink:href="#DejaVuSans-73" x="105.607422"/>
     <use xlink:href="#DejaVuSans-74" x="157.707031"/>
    </g>
   </g>
   <g id="legend_2">
    <g id="patch_13">
     <path d="M 639.610937 753.760625 
L 702.2 753.760625 
Q 704.2 753.760625 704.2 751.760625 
L 704.2 679.37 
Q 704.2 677.37 702.2 677.37 
L 639.610937 677.37 
Q 637.610937 677.37 637.610937 679.37 
L 637.610937 751.760625 
Q 637.610937 753.760625 639.610937 753.760625 
z
" style="fill: #ffffff; opacity: 0.8; stroke: #cccccc; stroke-linejoin: miter"/>
    </g>
    <g id="line2d_76">
     <path d="M 641.610937 685.468437 
L 651.610937 685.468437 
L 661.610937 685.468437 
" style="fill: none; stroke: #1f77b4; stroke-width: 1.5; stroke-linecap: square"/>
    </g>
    <g id="text_42">
     <!-- task 0 -->
     <g transform="translate(669.610937 688.968437)scale(0.1 -0.1)">
      <use xlink:href="#DejaVuSans-74"/>
      <use xlink:href="#DejaVuSans-61" x="39.208984"/>
      <use xlink:href="#DejaVuSans-73" x="100.488281"/>
      <use xlink:href="#DejaVuSans-6b" x="152.587891"/>
      <use xlink:href="#DejaVuSans-20" x="210.498047"/>
      <use xlink:href="#DejaVuSans-30" x="242.285156"/>
     </g>
    </g>
    <g id="line2d_77">
     <path d="M 641.610937 700.146562 
L 651.610937 700.146562 
L 661.610937 700.146562 
" style="fill: none; stroke: #ff7f0e; stroke-width: 1.5; stroke-linecap: square"/>
    </g>
    <g id="text_43">
     <!-- task 1 -->
     <g transform="translate(669.610937 703.646562)scale(0.1 -0.1)">
      <use xlink:href="#DejaVuSans-74"/>
      <use xlink:href="#DejaVuSans-61" x="39.208984"/>
      <use xlink:href="#DejaVuSans-73" x="100.488281"/>
      <use xlink:href="#DejaVuSans-6b" x="152.587891"/>
      <use xlink:href="#DejaVuSans-20" x="210.498047"/>
      <use xlink:href="#DejaVuSans-31" x="242.285156"/>
     </g>
    </g>
    <g id="line2d_78">
     <path d="M 641.610937 714.824687 
L 651.610937 714.824687 
L 661.610937 714.824687 
" style="fill: none; stroke: #2ca02c; stroke-width: 1.5; stroke-linecap: square"/>
    </g>
    <g id="text_44">
     <!-- task 2 -->
     <g transform="translate(669.610937 718.324687)scale(0.1 -0.1)">
      <use xlink:href="#DejaVuSans-74"/>
      <use xlink:href="#DejaVuSans-61" x="39.208984"/>
      <use xlink:href="#DejaVuSans-73" x="100.488281"/>
      <use xlink:href="#DejaVuSans-6b" x="152.587891"/>
      <use xlink:href="#DejaVuSans-20" x="210.498047"/>
      <use xlink:href="#DejaVuSans-32" x="242.285156"/>
     </g>
    </g>
    <g id="line2d_79">
     <path d="M 641.610937 729.502812 
L 651.610937 729.502812 
L 661.610937 729.502812 
" style="fill: none; stroke: #d62728; stroke-width: 1.5; stroke-linecap: square"/>
    </g>
    <g id="text_45">
     <!-- task 3 -->
     <g transform="translate(669.610937 733.002812)scale(0.1 -0.1)">
      <use xlink:href="#DejaVuSans-74"/>
      <use xlink:href="#DejaVuSans-61" x="39.208984"/>
      <use xlink:href="#DejaVuSans-73" x="100.488281"/>
      <use xlink:href="#DejaVuSans-6b" x="152.587891"/>
      <use xlink:href="#DejaVuSans-20" x="210.498047"/>
      <use xlink:href="#DejaVuSans-33" x="242.285156"/>
     </g>
    </g>
    <g id="line2d_80">
     <path d="M 641.610937 744.180937 
L 651.610937 744.180937 
L 661.610937 744.180937 
" style="fill: none; stroke: #9467bd; stroke-width: 1.5; stroke-linecap: square"/>
    </g>
    <g id="text_46">
     <!-- task 4 -->
     <g transform="translate(669.610937 747.680937)scale(0.1 -0.1)">
      <use xlink:href="#DejaVuSans-74"/>
      <use xlink:href="#DejaVuSans-61" x="39.208984"/>
      <use xlink:href="#DejaVuSans-73" x="100.488281"/>
      <use xlink:href="#DejaVuSans-6b" x="152.587891"/>
      <use xlink:href="#DejaVuSans-20" x="210.498047"/>
      <use xlink:href="#DejaVuSans-34" x="242.285156"/>
     </g>
    </g>
   </g>
  </g>
  <g id="text_47">
   <!-- architecture: ResNet18 -->
   <g transform="translate(244.815625 15.196875)scale(0.2 -0.2)">
    <defs>
     <path id="DejaVuSans-68" d="M 3513 2113 
L 3513 0 
L 2938 0 
L 2938 2094 
Q 2938 2591 2744 2837 
Q 2550 3084 2163 3084 
Q 1697 3084 1428 2787 
Q 1159 2491 1159 1978 
L 1159 0 
L 581 0 
L 581 4863 
L 1159 4863 
L 1159 2956 
Q 1366 3272 1645 3428 
Q 1925 3584 2291 3584 
Q 2894 3584 3203 3211 
Q 3513 2838 3513 2113 
z
" transform="scale(0.015625)"/>
     <path id="DejaVuSans-3a" d="M 750 794 
L 1409 794 
L 1409 0 
L 750 0 
L 750 794 
z
M 750 3309 
L 1409 3309 
L 1409 2516 
L 750 2516 
L 750 3309 
z
" transform="scale(0.015625)"/>
     <path id="DejaVuSans-52" d="M 2841 2188 
Q 3044 2119 3236 1894 
Q 3428 1669 3622 1275 
L 4263 0 
L 3584 0 
L 2988 1197 
Q 2756 1666 2539 1819 
Q 2322 1972 1947 1972 
L 1259 1972 
L 1259 0 
L 628 0 
L 628 4666 
L 2053 4666 
Q 2853 4666 3247 4331 
Q 3641 3997 3641 3322 
Q 3641 2881 3436 2590 
Q 3231 2300 2841 2188 
z
M 1259 4147 
L 1259 2491 
L 2053 2491 
Q 2509 2491 2742 2702 
Q 2975 2913 2975 3322 
Q 2975 3731 2742 3939 
Q 2509 4147 2053 4147 
L 1259 4147 
z
" transform="scale(0.015625)"/>
     <path id="DejaVuSans-4e" d="M 628 4666 
L 1478 4666 
L 3547 763 
L 3547 4666 
L 4159 4666 
L 4159 0 
L 3309 0 
L 1241 3903 
L 1241 0 
L 628 0 
L 628 4666 
z
" transform="scale(0.015625)"/>
    </defs>
    <use xlink:href="#DejaVuSans-61"/>
    <use xlink:href="#DejaVuSans-72" x="61.279297"/>
    <use xlink:href="#DejaVuSans-63" x="100.142578"/>
    <use xlink:href="#DejaVuSans-68" x="155.123047"/>
    <use xlink:href="#DejaVuSans-69" x="218.501953"/>
    <use xlink:href="#DejaVuSans-74" x="246.285156"/>
    <use xlink:href="#DejaVuSans-65" x="285.494141"/>
    <use xlink:href="#DejaVuSans-63" x="347.017578"/>
    <use xlink:href="#DejaVuSans-74" x="401.998047"/>
    <use xlink:href="#DejaVuSans-75" x="441.207031"/>
    <use xlink:href="#DejaVuSans-72" x="504.585938"/>
    <use xlink:href="#DejaVuSans-65" x="543.449219"/>
    <use xlink:href="#DejaVuSans-3a" x="604.972656"/>
    <use xlink:href="#DejaVuSans-20" x="638.664062"/>
    <use xlink:href="#DejaVuSans-52" x="670.451172"/>
    <use xlink:href="#DejaVuSans-65" x="735.433594"/>
    <use xlink:href="#DejaVuSans-73" x="796.957031"/>
    <use xlink:href="#DejaVuSans-4e" x="849.056641"/>
    <use xlink:href="#DejaVuSans-65" x="923.861328"/>
    <use xlink:href="#DejaVuSans-74" x="985.384766"/>
    <use xlink:href="#DejaVuSans-31" x="1024.59375"/>
    <use xlink:href="#DejaVuSans-38" x="1088.216797"/>
   </g>
   <!-- dataset: CIFAR10 -->
   <g transform="translate(274.359375 37.5925)scale(0.2 -0.2)">
    <defs>
     <path id="DejaVuSans-64" d="M 2906 2969 
L 2906 4863 
L 3481 4863 
L 3481 0 
L 2906 0 
L 2906 525 
Q 2725 213 2448 61 
Q 2172 -91 1784 -91 
Q 1150 -91 751 415 
Q 353 922 353 1747 
Q 353 2572 751 3078 
Q 1150 3584 1784 3584 
Q 2172 3584 2448 3432 
Q 2725 3281 2906 2969 
z
M 947 1747 
Q 947 1113 1208 752 
Q 1469 391 1925 391 
Q 2381 391 2643 752 
Q 2906 1113 2906 1747 
Q 2906 2381 2643 2742 
Q 2381 3103 1925 3103 
Q 1469 3103 1208 2742 
Q 947 2381 947 1747 
z
" transform="scale(0.015625)"/>
     <path id="DejaVuSans-43" d="M 4122 4306 
L 4122 3641 
Q 3803 3938 3442 4084 
Q 3081 4231 2675 4231 
Q 1875 4231 1450 3742 
Q 1025 3253 1025 2328 
Q 1025 1406 1450 917 
Q 1875 428 2675 428 
Q 3081 428 3442 575 
Q 3803 722 4122 1019 
L 4122 359 
Q 3791 134 3420 21 
Q 3050 -91 2638 -91 
Q 1578 -91 968 557 
Q 359 1206 359 2328 
Q 359 3453 968 4101 
Q 1578 4750 2638 4750 
Q 3056 4750 3426 4639 
Q 3797 4528 4122 4306 
z
" transform="scale(0.015625)"/>
     <path id="DejaVuSans-49" d="M 628 4666 
L 1259 4666 
L 1259 0 
L 628 0 
L 628 4666 
z
" transform="scale(0.015625)"/>
     <path id="DejaVuSans-46" d="M 628 4666 
L 3309 4666 
L 3309 4134 
L 1259 4134 
L 1259 2759 
L 3109 2759 
L 3109 2228 
L 1259 2228 
L 1259 0 
L 628 0 
L 628 4666 
z
" transform="scale(0.015625)"/>
     <path id="DejaVuSans-41" d="M 2188 4044 
L 1331 1722 
L 3047 1722 
L 2188 4044 
z
M 1831 4666 
L 2547 4666 
L 4325 0 
L 3669 0 
L 3244 1197 
L 1141 1197 
L 716 0 
L 50 0 
L 1831 4666 
z
" transform="scale(0.015625)"/>
    </defs>
    <use xlink:href="#DejaVuSans-64"/>
    <use xlink:href="#DejaVuSans-61" x="63.476562"/>
    <use xlink:href="#DejaVuSans-74" x="124.755859"/>
    <use xlink:href="#DejaVuSans-61" x="163.964844"/>
    <use xlink:href="#DejaVuSans-73" x="225.244141"/>
    <use xlink:href="#DejaVuSans-65" x="277.34375"/>
    <use xlink:href="#DejaVuSans-74" x="338.867188"/>
    <use xlink:href="#DejaVuSans-3a" x="378.076172"/>
    <use xlink:href="#DejaVuSans-20" x="411.767578"/>
    <use xlink:href="#DejaVuSans-43" x="443.554688"/>
    <use xlink:href="#DejaVuSans-49" x="513.378906"/>
    <use xlink:href="#DejaVuSans-46" x="542.871094"/>
    <use xlink:href="#DejaVuSans-41" x="591.265625"/>
    <use xlink:href="#DejaVuSans-52" x="659.673828"/>
    <use xlink:href="#DejaVuSans-31" x="729.15625"/>
    <use xlink:href="#DejaVuSans-30" x="792.779297"/>
   </g>
   <!-- rehearsal_dataset:  -->
   <g transform="translate(263.760938 59.988125)scale(0.2 -0.2)">
    <defs>
     <path id="DejaVuSans-6c" d="M 603 4863 
L 1178 4863 
L 1178 0 
L 603 0 
L 603 4863 
z
" transform="scale(0.015625)"/>
     <path id="DejaVuSans-5f" d="M 3263 -1063 
L 3263 -1509 
L -63 -1509 
L -63 -1063 
L 3263 -1063 
z
" transform="scale(0.015625)"/>
    </defs>
    <use xlink:href="#DejaVuSans-72"/>
    <use xlink:href="#DejaVuSans-65" x="38.863281"/>
    <use xlink:href="#DejaVuSans-68" x="100.386719"/>
    <use xlink:href="#DejaVuSans-65" x="163.765625"/>
    <use xlink:href="#DejaVuSans-61" x="225.289062"/>
    <use xlink:href="#DejaVuSans-72" x="286.568359"/>
    <use xlink:href="#DejaVuSans-73" x="327.681641"/>
    <use xlink:href="#DejaVuSans-61" x="379.78125"/>
    <use xlink:href="#DejaVuSans-6c" x="441.060547"/>
    <use xlink:href="#DejaVuSans-5f" x="468.84375"/>
    <use xlink:href="#DejaVuSans-64" x="518.84375"/>
    <use xlink:href="#DejaVuSans-61" x="582.320312"/>
    <use xlink:href="#DejaVuSans-74" x="643.599609"/>
    <use xlink:href="#DejaVuSans-61" x="682.808594"/>
    <use xlink:href="#DejaVuSans-73" x="744.087891"/>
    <use xlink:href="#DejaVuSans-65" x="796.1875"/>
    <use xlink:href="#DejaVuSans-74" x="857.710938"/>
    <use xlink:href="#DejaVuSans-3a" x="896.919922"/>
    <use xlink:href="#DejaVuSans-20" x="930.611328"/>
   </g>
   <!-- batch_size_rehearsal: 128 -->
   <g transform="translate(229.859375 82.94)scale(0.2 -0.2)">
    <defs>
     <path id="DejaVuSans-62" d="M 3116 1747 
Q 3116 2381 2855 2742 
Q 2594 3103 2138 3103 
Q 1681 3103 1420 2742 
Q 1159 2381 1159 1747 
Q 1159 1113 1420 752 
Q 1681 391 2138 391 
Q 2594 391 2855 752 
Q 3116 1113 3116 1747 
z
M 1159 2969 
Q 1341 3281 1617 3432 
Q 1894 3584 2278 3584 
Q 2916 3584 3314 3078 
Q 3713 2572 3713 1747 
Q 3713 922 3314 415 
Q 2916 -91 2278 -91 
Q 1894 -91 1617 61 
Q 1341 213 1159 525 
L 1159 0 
L 581 0 
L 581 4863 
L 1159 4863 
L 1159 2969 
z
" transform="scale(0.015625)"/>
     <path id="DejaVuSans-7a" d="M 353 3500 
L 3084 3500 
L 3084 2975 
L 922 459 
L 3084 459 
L 3084 0 
L 275 0 
L 275 525 
L 2438 3041 
L 353 3041 
L 353 3500 
z
" transform="scale(0.015625)"/>
    </defs>
    <use xlink:href="#DejaVuSans-62"/>
    <use xlink:href="#DejaVuSans-61" x="63.476562"/>
    <use xlink:href="#DejaVuSans-74" x="124.755859"/>
    <use xlink:href="#DejaVuSans-63" x="163.964844"/>
    <use xlink:href="#DejaVuSans-68" x="218.945312"/>
    <use xlink:href="#DejaVuSans-5f" x="282.324219"/>
    <use xlink:href="#DejaVuSans-73" x="332.324219"/>
    <use xlink:href="#DejaVuSans-69" x="384.423828"/>
    <use xlink:href="#DejaVuSans-7a" x="412.207031"/>
    <use xlink:href="#DejaVuSans-65" x="464.697266"/>
    <use xlink:href="#DejaVuSans-5f" x="526.220703"/>
    <use xlink:href="#DejaVuSans-72" x="576.220703"/>
    <use xlink:href="#DejaVuSans-65" x="615.083984"/>
    <use xlink:href="#DejaVuSans-68" x="676.607422"/>
    <use xlink:href="#DejaVuSans-65" x="739.986328"/>
    <use xlink:href="#DejaVuSans-61" x="801.509766"/>
    <use xlink:href="#DejaVuSans-72" x="862.789062"/>
    <use xlink:href="#DejaVuSans-73" x="903.902344"/>
    <use xlink:href="#DejaVuSans-61" x="956.001953"/>
    <use xlink:href="#DejaVuSans-6c" x="1017.28125"/>
    <use xlink:href="#DejaVuSans-3a" x="1045.064453"/>
    <use xlink:href="#DejaVuSans-20" x="1078.755859"/>
    <use xlink:href="#DejaVuSans-31" x="1110.542969"/>
    <use xlink:href="#DejaVuSans-32" x="1174.166016"/>
    <use xlink:href="#DejaVuSans-38" x="1237.789062"/>
   </g>
   <!-- pretraining: False -->
   <g transform="translate(273.21875 105.891875)scale(0.2 -0.2)">
    <defs>
     <path id="DejaVuSans-67" d="M 2906 1791 
Q 2906 2416 2648 2759 
Q 2391 3103 1925 3103 
Q 1463 3103 1205 2759 
Q 947 2416 947 1791 
Q 947 1169 1205 825 
Q 1463 481 1925 481 
Q 2391 481 2648 825 
Q 2906 1169 2906 1791 
z
M 3481 434 
Q 3481 -459 3084 -895 
Q 2688 -1331 1869 -1331 
Q 1566 -1331 1297 -1286 
Q 1028 -1241 775 -1147 
L 775 -588 
Q 1028 -725 1275 -790 
Q 1522 -856 1778 -856 
Q 2344 -856 2625 -561 
Q 2906 -266 2906 331 
L 2906 616 
Q 2728 306 2450 153 
Q 2172 0 1784 0 
Q 1141 0 747 490 
Q 353 981 353 1791 
Q 353 2603 747 3093 
Q 1141 3584 1784 3584 
Q 2172 3584 2450 3431 
Q 2728 3278 2906 2969 
L 2906 3500 
L 3481 3500 
L 3481 434 
z
" transform="scale(0.015625)"/>
    </defs>
    <use xlink:href="#DejaVuSans-70"/>
    <use xlink:href="#DejaVuSans-72" x="63.476562"/>
    <use xlink:href="#DejaVuSans-65" x="102.339844"/>
    <use xlink:href="#DejaVuSans-74" x="163.863281"/>
    <use xlink:href="#DejaVuSans-72" x="203.072266"/>
    <use xlink:href="#DejaVuSans-61" x="244.185547"/>
    <use xlink:href="#DejaVuSans-69" x="305.464844"/>
    <use xlink:href="#DejaVuSans-6e" x="333.248047"/>
    <use xlink:href="#DejaVuSans-69" x="396.626953"/>
    <use xlink:href="#DejaVuSans-6e" x="424.410156"/>
    <use xlink:href="#DejaVuSans-67" x="487.789062"/>
    <use xlink:href="#DejaVuSans-3a" x="551.265625"/>
    <use xlink:href="#DejaVuSans-20" x="584.957031"/>
    <use xlink:href="#DejaVuSans-46" x="616.744141"/>
    <use xlink:href="#DejaVuSans-61" x="665.138672"/>
    <use xlink:href="#DejaVuSans-6c" x="726.417969"/>
    <use xlink:href="#DejaVuSans-73" x="754.201172"/>
    <use xlink:href="#DejaVuSans-65" x="806.300781"/>
   </g>
   <!-- learning_rate: 0.0001 -->
   <g transform="translate(252.353125 128.2875)scale(0.2 -0.2)">
    <defs>
     <path id="DejaVuSans-2e" d="M 684 794 
L 1344 794 
L 1344 0 
L 684 0 
L 684 794 
z
" transform="scale(0.015625)"/>
    </defs>
    <use xlink:href="#DejaVuSans-6c"/>
    <use xlink:href="#DejaVuSans-65" x="27.783203"/>
    <use xlink:href="#DejaVuSans-61" x="89.306641"/>
    <use xlink:href="#DejaVuSans-72" x="150.585938"/>
    <use xlink:href="#DejaVuSans-6e" x="189.949219"/>
    <use xlink:href="#DejaVuSans-69" x="253.328125"/>
    <use xlink:href="#DejaVuSans-6e" x="281.111328"/>
    <use xlink:href="#DejaVuSans-67" x="344.490234"/>
    <use xlink:href="#DejaVuSans-5f" x="407.966797"/>
    <use xlink:href="#DejaVuSans-72" x="457.966797"/>
    <use xlink:href="#DejaVuSans-61" x="499.080078"/>
    <use xlink:href="#DejaVuSans-74" x="560.359375"/>
    <use xlink:href="#DejaVuSans-65" x="599.568359"/>
    <use xlink:href="#DejaVuSans-3a" x="661.091797"/>
    <use xlink:href="#DejaVuSans-20" x="694.783203"/>
    <use xlink:href="#DejaVuSans-30" x="726.570312"/>
    <use xlink:href="#DejaVuSans-2e" x="790.193359"/>
    <use xlink:href="#DejaVuSans-30" x="821.980469"/>
    <use xlink:href="#DejaVuSans-30" x="885.603516"/>
    <use xlink:href="#DejaVuSans-30" x="949.226562"/>
    <use xlink:href="#DejaVuSans-31" x="1012.849609"/>
   </g>
   <!-- epochs: 5 -->
   <g transform="translate(311.425 151.239375)scale(0.2 -0.2)">
    <defs>
     <path id="DejaVuSans-6f" d="M 1959 3097 
Q 1497 3097 1228 2736 
Q 959 2375 959 1747 
Q 959 1119 1226 758 
Q 1494 397 1959 397 
Q 2419 397 2687 759 
Q 2956 1122 2956 1747 
Q 2956 2369 2687 2733 
Q 2419 3097 1959 3097 
z
M 1959 3584 
Q 2709 3584 3137 3096 
Q 3566 2609 3566 1747 
Q 3566 888 3137 398 
Q 2709 -91 1959 -91 
Q 1206 -91 779 398 
Q 353 888 353 1747 
Q 353 2609 779 3096 
Q 1206 3584 1959 3584 
z
" transform="scale(0.015625)"/>
    </defs>
    <use xlink:href="#DejaVuSans-65"/>
    <use xlink:href="#DejaVuSans-70" x="61.523438"/>
    <use xlink:href="#DejaVuSans-6f" x="125"/>
    <use xlink:href="#DejaVuSans-63" x="186.181641"/>
    <use xlink:href="#DejaVuSans-68" x="241.162109"/>
    <use xlink:href="#DejaVuSans-73" x="304.541016"/>
    <use xlink:href="#DejaVuSans-3a" x="356.640625"/>
    <use xlink:href="#DejaVuSans-20" x="390.332031"/>
    <use xlink:href="#DejaVuSans-35" x="422.119141"/>
   </g>
   <!-- separate_noise_output: None -->
   <g transform="translate(213.63125 173.635)scale(0.2 -0.2)">
    <use xlink:href="#DejaVuSans-73"/>
    <use xlink:href="#DejaVuSans-65" x="52.099609"/>
    <use xlink:href="#DejaVuSans-70" x="113.623047"/>
    <use xlink:href="#DejaVuSans-61" x="177.099609"/>
    <use xlink:href="#DejaVuSans-72" x="238.378906"/>
    <use xlink:href="#DejaVuSans-61" x="279.492188"/>
    <use xlink:href="#DejaVuSans-74" x="340.771484"/>
    <use xlink:href="#DejaVuSans-65" x="379.980469"/>
    <use xlink:href="#DejaVuSans-5f" x="441.503906"/>
    <use xlink:href="#DejaVuSans-6e" x="491.503906"/>
    <use xlink:href="#DejaVuSans-6f" x="554.882812"/>
    <use xlink:href="#DejaVuSans-69" x="616.064453"/>
    <use xlink:href="#DejaVuSans-73" x="643.847656"/>
    <use xlink:href="#DejaVuSans-65" x="695.947266"/>
    <use xlink:href="#DejaVuSans-5f" x="757.470703"/>
    <use xlink:href="#DejaVuSans-6f" x="807.470703"/>
    <use xlink:href="#DejaVuSans-75" x="868.652344"/>
    <use xlink:href="#DejaVuSans-74" x="932.03125"/>
    <use xlink:href="#DejaVuSans-70" x="971.240234"/>
    <use xlink:href="#DejaVuSans-75" x="1034.716797"/>
    <use xlink:href="#DejaVuSans-74" x="1098.095703"/>
    <use xlink:href="#DejaVuSans-3a" x="1137.304688"/>
    <use xlink:href="#DejaVuSans-20" x="1170.996094"/>
    <use xlink:href="#DejaVuSans-4e" x="1202.783203"/>
    <use xlink:href="#DejaVuSans-6f" x="1277.587891"/>
    <use xlink:href="#DejaVuSans-6e" x="1338.769531"/>
    <use xlink:href="#DejaVuSans-65" x="1402.148438"/>
   </g>
   <!-- runs: 1 -->
   <g transform="translate(325.095312 196.586875)scale(0.2 -0.2)">
    <use xlink:href="#DejaVuSans-72"/>
    <use xlink:href="#DejaVuSans-75" x="41.113281"/>
    <use xlink:href="#DejaVuSans-6e" x="104.492188"/>
    <use xlink:href="#DejaVuSans-73" x="167.871094"/>
    <use xlink:href="#DejaVuSans-3a" x="219.970703"/>
    <use xlink:href="#DejaVuSans-20" x="253.662109"/>
    <use xlink:href="#DejaVuSans-31" x="285.449219"/>
   </g>
  </g>
 </g>
 <defs>
  <clipPath id="pd51ef920bf">
   <rect x="79.33125" y="243.543125" width="629.86875" height="347.1175"/>
  </clipPath>
  <clipPath id="pbdc29f6d3e">
   <rect x="79.33125" y="672.37" width="629.86875" height="347.1175"/>
  </clipPath>
 </defs>
</svg>
