<?xml version="1.0" encoding="utf-8" standalone="no"?>
<!DOCTYPE svg PUBLIC "-//W3C//DTD SVG 1.1//EN"
  "http://www.w3.org/Graphics/SVG/1.1/DTD/svg11.dtd">
<svg xmlns:xlink="http://www.w3.org/1999/xlink" width="720pt" height="1080pt" viewBox="0 0 720 1080" xmlns="http://www.w3.org/2000/svg" version="1.1">
 <metadata>
  <rdf:RDF xmlns:dc="http://purl.org/dc/elements/1.1/" xmlns:cc="http://creativecommons.org/ns#" xmlns:rdf="http://www.w3.org/1999/02/22-rdf-syntax-ns#">
   <cc:Work>
    <dc:type rdf:resource="http://purl.org/dc/dcmitype/StillImage"/>
    <dc:date>2024-02-03T12:27:17.368893</dc:date>
    <dc:format>image/svg+xml</dc:format>
    <dc:creator>
     <cc:Agent>
      <dc:title>Matplotlib v3.5.1, https://matplotlib.org/</dc:title>
     </cc:Agent>
    </dc:creator>
   </cc:Work>
  </rdf:RDF>
 </metadata>
 <defs>
  <style type="text/css">*{stroke-linejoin: round; stroke-linecap: butt}</style>
 </defs>
 <g id="figure_1">
  <g id="patch_1">
   <path d="M 0 1080 
L 720 1080 
L 720 0 
L 0 0 
L 0 1080 
z
" style="fill: none"/>
  </g>
  <g id="axes_1">
   <g id="patch_2">
    <path d="M 108.096875 587.480313 
L 703.060528 587.480313 
L 703.060528 283.7325 
L 108.096875 283.7325 
z
" style="fill: #ffffff"/>
   </g>
   <g id="matplotlib.axis_1">
    <g id="xtick_1">
     <g id="line2d_1">
      <path d="M 135.140677 587.480313 
L 135.140677 283.7325 
" clip-path="url(#p4c8b96d8a1)" style="fill: none; stroke: #b0b0b0; stroke-width: 0.8; stroke-linecap: square"/>
     </g>
     <g id="line2d_2">
      <defs>
       <path id="m294adfb820" d="M 0 0 
L 0 3.5 
" style="stroke: #000000; stroke-width: 0.8"/>
      </defs>
      <g>
       <use xlink:href="#m294adfb820" x="135.140677" y="587.480313" style="stroke: #000000; stroke-width: 0.8"/>
      </g>
     </g>
     <g id="text_1">
      <!-- 0 -->
      <g transform="translate(125.596927 617.275625)scale(0.3 -0.3)">
       <defs>
        <path id="DejaVuSans-30" d="M 2034 4250 
Q 1547 4250 1301 3770 
Q 1056 3291 1056 2328 
Q 1056 1369 1301 889 
Q 1547 409 2034 409 
Q 2525 409 2770 889 
Q 3016 1369 3016 2328 
Q 3016 3291 2770 3770 
Q 2525 4250 2034 4250 
z
M 2034 4750 
Q 2819 4750 3233 4129 
Q 3647 3509 3647 2328 
Q 3647 1150 3233 529 
Q 2819 -91 2034 -91 
Q 1250 -91 836 529 
Q 422 1150 422 2328 
Q 422 3509 836 4129 
Q 1250 4750 2034 4750 
z
" transform="scale(0.015625)"/>
       </defs>
       <use xlink:href="#DejaVuSans-30"/>
      </g>
     </g>
    </g>
    <g id="xtick_2">
     <g id="line2d_3">
      <path d="M 226.044215 587.480313 
L 226.044215 283.7325 
" clip-path="url(#p4c8b96d8a1)" style="fill: none; stroke: #b0b0b0; stroke-width: 0.8; stroke-linecap: square"/>
     </g>
     <g id="line2d_4">
      <g>
       <use xlink:href="#m294adfb820" x="226.044215" y="587.480313" style="stroke: #000000; stroke-width: 0.8"/>
      </g>
     </g>
     <g id="text_2">
      <!-- 20 -->
      <g transform="translate(206.956715 617.275625)scale(0.3 -0.3)">
       <defs>
        <path id="DejaVuSans-32" d="M 1228 531 
L 3431 531 
L 3431 0 
L 469 0 
L 469 531 
Q 828 903 1448 1529 
Q 2069 2156 2228 2338 
Q 2531 2678 2651 2914 
Q 2772 3150 2772 3378 
Q 2772 3750 2511 3984 
Q 2250 4219 1831 4219 
Q 1534 4219 1204 4116 
Q 875 4013 500 3803 
L 500 4441 
Q 881 4594 1212 4672 
Q 1544 4750 1819 4750 
Q 2544 4750 2975 4387 
Q 3406 4025 3406 3419 
Q 3406 3131 3298 2873 
Q 3191 2616 2906 2266 
Q 2828 2175 2409 1742 
Q 1991 1309 1228 531 
z
" transform="scale(0.015625)"/>
       </defs>
       <use xlink:href="#DejaVuSans-32"/>
       <use xlink:href="#DejaVuSans-30" x="63.623047"/>
      </g>
     </g>
    </g>
    <g id="xtick_3">
     <g id="line2d_5">
      <path d="M 316.947753 587.480313 
L 316.947753 283.7325 
" clip-path="url(#p4c8b96d8a1)" style="fill: none; stroke: #b0b0b0; stroke-width: 0.8; stroke-linecap: square"/>
     </g>
     <g id="line2d_6">
      <g>
       <use xlink:href="#m294adfb820" x="316.947753" y="587.480313" style="stroke: #000000; stroke-width: 0.8"/>
      </g>
     </g>
     <g id="text_3">
      <!-- 40 -->
      <g transform="translate(297.860253 617.275625)scale(0.3 -0.3)">
       <defs>
        <path id="DejaVuSans-34" d="M 2419 4116 
L 825 1625 
L 2419 1625 
L 2419 4116 
z
M 2253 4666 
L 3047 4666 
L 3047 1625 
L 3713 1625 
L 3713 1100 
L 3047 1100 
L 3047 0 
L 2419 0 
L 2419 1100 
L 313 1100 
L 313 1709 
L 2253 4666 
z
" transform="scale(0.015625)"/>
       </defs>
       <use xlink:href="#DejaVuSans-34"/>
       <use xlink:href="#DejaVuSans-30" x="63.623047"/>
      </g>
     </g>
    </g>
    <g id="xtick_4">
     <g id="line2d_7">
      <path d="M 407.85129 587.480313 
L 407.85129 283.7325 
" clip-path="url(#p4c8b96d8a1)" style="fill: none; stroke: #b0b0b0; stroke-width: 0.8; stroke-linecap: square"/>
     </g>
     <g id="line2d_8">
      <g>
       <use xlink:href="#m294adfb820" x="407.85129" y="587.480313" style="stroke: #000000; stroke-width: 0.8"/>
      </g>
     </g>
     <g id="text_4">
      <!-- 60 -->
      <g transform="translate(388.76379 617.275625)scale(0.3 -0.3)">
       <defs>
        <path id="DejaVuSans-36" d="M 2113 2584 
Q 1688 2584 1439 2293 
Q 1191 2003 1191 1497 
Q 1191 994 1439 701 
Q 1688 409 2113 409 
Q 2538 409 2786 701 
Q 3034 994 3034 1497 
Q 3034 2003 2786 2293 
Q 2538 2584 2113 2584 
z
M 3366 4563 
L 3366 3988 
Q 3128 4100 2886 4159 
Q 2644 4219 2406 4219 
Q 1781 4219 1451 3797 
Q 1122 3375 1075 2522 
Q 1259 2794 1537 2939 
Q 1816 3084 2150 3084 
Q 2853 3084 3261 2657 
Q 3669 2231 3669 1497 
Q 3669 778 3244 343 
Q 2819 -91 2113 -91 
Q 1303 -91 875 529 
Q 447 1150 447 2328 
Q 447 3434 972 4092 
Q 1497 4750 2381 4750 
Q 2619 4750 2861 4703 
Q 3103 4656 3366 4563 
z
" transform="scale(0.015625)"/>
       </defs>
       <use xlink:href="#DejaVuSans-36"/>
       <use xlink:href="#DejaVuSans-30" x="63.623047"/>
      </g>
     </g>
    </g>
    <g id="xtick_5">
     <g id="line2d_9">
      <path d="M 498.754828 587.480313 
L 498.754828 283.7325 
" clip-path="url(#p4c8b96d8a1)" style="fill: none; stroke: #b0b0b0; stroke-width: 0.8; stroke-linecap: square"/>
     </g>
     <g id="line2d_10">
      <g>
       <use xlink:href="#m294adfb820" x="498.754828" y="587.480313" style="stroke: #000000; stroke-width: 0.8"/>
      </g>
     </g>
     <g id="text_5">
      <!-- 80 -->
      <g transform="translate(479.667328 617.275625)scale(0.3 -0.3)">
       <defs>
        <path id="DejaVuSans-38" d="M 2034 2216 
Q 1584 2216 1326 1975 
Q 1069 1734 1069 1313 
Q 1069 891 1326 650 
Q 1584 409 2034 409 
Q 2484 409 2743 651 
Q 3003 894 3003 1313 
Q 3003 1734 2745 1975 
Q 2488 2216 2034 2216 
z
M 1403 2484 
Q 997 2584 770 2862 
Q 544 3141 544 3541 
Q 544 4100 942 4425 
Q 1341 4750 2034 4750 
Q 2731 4750 3128 4425 
Q 3525 4100 3525 3541 
Q 3525 3141 3298 2862 
Q 3072 2584 2669 2484 
Q 3125 2378 3379 2068 
Q 3634 1759 3634 1313 
Q 3634 634 3220 271 
Q 2806 -91 2034 -91 
Q 1263 -91 848 271 
Q 434 634 434 1313 
Q 434 1759 690 2068 
Q 947 2378 1403 2484 
z
M 1172 3481 
Q 1172 3119 1398 2916 
Q 1625 2713 2034 2713 
Q 2441 2713 2670 2916 
Q 2900 3119 2900 3481 
Q 2900 3844 2670 4047 
Q 2441 4250 2034 4250 
Q 1625 4250 1398 4047 
Q 1172 3844 1172 3481 
z
" transform="scale(0.015625)"/>
       </defs>
       <use xlink:href="#DejaVuSans-38"/>
       <use xlink:href="#DejaVuSans-30" x="63.623047"/>
      </g>
     </g>
    </g>
    <g id="xtick_6">
     <g id="line2d_11">
      <path d="M 589.658365 587.480313 
L 589.658365 283.7325 
" clip-path="url(#p4c8b96d8a1)" style="fill: none; stroke: #b0b0b0; stroke-width: 0.8; stroke-linecap: square"/>
     </g>
     <g id="line2d_12">
      <g>
       <use xlink:href="#m294adfb820" x="589.658365" y="587.480313" style="stroke: #000000; stroke-width: 0.8"/>
      </g>
     </g>
     <g id="text_6">
      <!-- 100 -->
      <g transform="translate(561.027115 617.275625)scale(0.3 -0.3)">
       <defs>
        <path id="DejaVuSans-31" d="M 794 531 
L 1825 531 
L 1825 4091 
L 703 3866 
L 703 4441 
L 1819 4666 
L 2450 4666 
L 2450 531 
L 3481 531 
L 3481 0 
L 794 0 
L 794 531 
z
" transform="scale(0.015625)"/>
       </defs>
       <use xlink:href="#DejaVuSans-31"/>
       <use xlink:href="#DejaVuSans-30" x="63.623047"/>
       <use xlink:href="#DejaVuSans-30" x="127.246094"/>
      </g>
     </g>
    </g>
    <g id="xtick_7">
     <g id="line2d_13">
      <path d="M 680.561903 587.480313 
L 680.561903 283.7325 
" clip-path="url(#p4c8b96d8a1)" style="fill: none; stroke: #b0b0b0; stroke-width: 0.8; stroke-linecap: square"/>
     </g>
     <g id="line2d_14">
      <g>
       <use xlink:href="#m294adfb820" x="680.561903" y="587.480313" style="stroke: #000000; stroke-width: 0.8"/>
      </g>
     </g>
     <g id="text_7">
      <!-- 120 -->
      <g transform="translate(651.930653 617.275625)scale(0.3 -0.3)">
       <use xlink:href="#DejaVuSans-31"/>
       <use xlink:href="#DejaVuSans-32" x="63.623047"/>
       <use xlink:href="#DejaVuSans-30" x="127.246094"/>
      </g>
     </g>
    </g>
    <g id="text_8">
     <!-- step -->
     <g transform="translate(373.131827 650.31)scale(0.3 -0.3)">
      <defs>
       <path id="DejaVuSans-73" d="M 2834 3397 
L 2834 2853 
Q 2591 2978 2328 3040 
Q 2066 3103 1784 3103 
Q 1356 3103 1142 2972 
Q 928 2841 928 2578 
Q 928 2378 1081 2264 
Q 1234 2150 1697 2047 
L 1894 2003 
Q 2506 1872 2764 1633 
Q 3022 1394 3022 966 
Q 3022 478 2636 193 
Q 2250 -91 1575 -91 
Q 1294 -91 989 -36 
Q 684 19 347 128 
L 347 722 
Q 666 556 975 473 
Q 1284 391 1588 391 
Q 1994 391 2212 530 
Q 2431 669 2431 922 
Q 2431 1156 2273 1281 
Q 2116 1406 1581 1522 
L 1381 1569 
Q 847 1681 609 1914 
Q 372 2147 372 2553 
Q 372 3047 722 3315 
Q 1072 3584 1716 3584 
Q 2034 3584 2315 3537 
Q 2597 3491 2834 3397 
z
" transform="scale(0.015625)"/>
       <path id="DejaVuSans-74" d="M 1172 4494 
L 1172 3500 
L 2356 3500 
L 2356 3053 
L 1172 3053 
L 1172 1153 
Q 1172 725 1289 603 
Q 1406 481 1766 481 
L 2356 481 
L 2356 0 
L 1766 0 
Q 1100 0 847 248 
Q 594 497 594 1153 
L 594 3053 
L 172 3053 
L 172 3500 
L 594 3500 
L 594 4494 
L 1172 4494 
z
" transform="scale(0.015625)"/>
       <path id="DejaVuSans-65" d="M 3597 1894 
L 3597 1613 
L 953 1613 
Q 991 1019 1311 708 
Q 1631 397 2203 397 
Q 2534 397 2845 478 
Q 3156 559 3463 722 
L 3463 178 
Q 3153 47 2828 -22 
Q 2503 -91 2169 -91 
Q 1331 -91 842 396 
Q 353 884 353 1716 
Q 353 2575 817 3079 
Q 1281 3584 2069 3584 
Q 2775 3584 3186 3129 
Q 3597 2675 3597 1894 
z
M 3022 2063 
Q 3016 2534 2758 2815 
Q 2500 3097 2075 3097 
Q 1594 3097 1305 2825 
Q 1016 2553 972 2059 
L 3022 2063 
z
" transform="scale(0.015625)"/>
       <path id="DejaVuSans-70" d="M 1159 525 
L 1159 -1331 
L 581 -1331 
L 581 3500 
L 1159 3500 
L 1159 2969 
Q 1341 3281 1617 3432 
Q 1894 3584 2278 3584 
Q 2916 3584 3314 3078 
Q 3713 2572 3713 1747 
Q 3713 922 3314 415 
Q 2916 -91 2278 -91 
Q 1894 -91 1617 61 
Q 1341 213 1159 525 
z
M 3116 1747 
Q 3116 2381 2855 2742 
Q 2594 3103 2138 3103 
Q 1681 3103 1420 2742 
Q 1159 2381 1159 1747 
Q 1159 1113 1420 752 
Q 1681 391 2138 391 
Q 2594 391 2855 752 
Q 3116 1113 3116 1747 
z
" transform="scale(0.015625)"/>
      </defs>
      <use xlink:href="#DejaVuSans-73"/>
      <use xlink:href="#DejaVuSans-74" x="52.099609"/>
      <use xlink:href="#DejaVuSans-65" x="91.308594"/>
      <use xlink:href="#DejaVuSans-70" x="152.832031"/>
     </g>
    </g>
   </g>
   <g id="matplotlib.axis_2">
    <g id="ytick_1">
     <g id="line2d_15">
      <path d="M 108.096875 587.480313 
L 703.060528 587.480313 
" clip-path="url(#p4c8b96d8a1)" style="fill: none; stroke: #b0b0b0; stroke-width: 0.8; stroke-linecap: square"/>
     </g>
     <g id="line2d_16">
      <defs>
       <path id="m76b815a6e4" d="M 0 0 
L -3.5 0 
" style="stroke: #000000; stroke-width: 0.8"/>
      </defs>
      <g>
       <use xlink:href="#m76b815a6e4" x="108.096875" y="587.480313" style="stroke: #000000; stroke-width: 0.8"/>
      </g>
     </g>
     <g id="text_9">
      <!-- 30 -->
      <g transform="translate(62.921875 598.877969)scale(0.3 -0.3)">
       <defs>
        <path id="DejaVuSans-33" d="M 2597 2516 
Q 3050 2419 3304 2112 
Q 3559 1806 3559 1356 
Q 3559 666 3084 287 
Q 2609 -91 1734 -91 
Q 1441 -91 1130 -33 
Q 819 25 488 141 
L 488 750 
Q 750 597 1062 519 
Q 1375 441 1716 441 
Q 2309 441 2620 675 
Q 2931 909 2931 1356 
Q 2931 1769 2642 2001 
Q 2353 2234 1838 2234 
L 1294 2234 
L 1294 2753 
L 1863 2753 
Q 2328 2753 2575 2939 
Q 2822 3125 2822 3475 
Q 2822 3834 2567 4026 
Q 2313 4219 1838 4219 
Q 1578 4219 1281 4162 
Q 984 4106 628 3988 
L 628 4550 
Q 988 4650 1302 4700 
Q 1616 4750 1894 4750 
Q 2613 4750 3031 4423 
Q 3450 4097 3450 3541 
Q 3450 3153 3228 2886 
Q 3006 2619 2597 2516 
z
" transform="scale(0.015625)"/>
       </defs>
       <use xlink:href="#DejaVuSans-33"/>
       <use xlink:href="#DejaVuSans-30" x="63.623047"/>
      </g>
     </g>
    </g>
    <g id="ytick_2">
     <g id="line2d_17">
      <path d="M 108.096875 544.087768 
L 703.060528 544.087768 
" clip-path="url(#p4c8b96d8a1)" style="fill: none; stroke: #b0b0b0; stroke-width: 0.8; stroke-linecap: square"/>
     </g>
     <g id="line2d_18">
      <g>
       <use xlink:href="#m76b815a6e4" x="108.096875" y="544.087768" style="stroke: #000000; stroke-width: 0.8"/>
      </g>
     </g>
     <g id="text_10">
      <!-- 40 -->
      <g transform="translate(62.921875 555.485424)scale(0.3 -0.3)">
       <use xlink:href="#DejaVuSans-34"/>
       <use xlink:href="#DejaVuSans-30" x="63.623047"/>
      </g>
     </g>
    </g>
    <g id="ytick_3">
     <g id="line2d_19">
      <path d="M 108.096875 500.695223 
L 703.060528 500.695223 
" clip-path="url(#p4c8b96d8a1)" style="fill: none; stroke: #b0b0b0; stroke-width: 0.8; stroke-linecap: square"/>
     </g>
     <g id="line2d_20">
      <g>
       <use xlink:href="#m76b815a6e4" x="108.096875" y="500.695223" style="stroke: #000000; stroke-width: 0.8"/>
      </g>
     </g>
     <g id="text_11">
      <!-- 50 -->
      <g transform="translate(62.921875 512.092879)scale(0.3 -0.3)">
       <defs>
        <path id="DejaVuSans-35" d="M 691 4666 
L 3169 4666 
L 3169 4134 
L 1269 4134 
L 1269 2991 
Q 1406 3038 1543 3061 
Q 1681 3084 1819 3084 
Q 2600 3084 3056 2656 
Q 3513 2228 3513 1497 
Q 3513 744 3044 326 
Q 2575 -91 1722 -91 
Q 1428 -91 1123 -41 
Q 819 9 494 109 
L 494 744 
Q 775 591 1075 516 
Q 1375 441 1709 441 
Q 2250 441 2565 725 
Q 2881 1009 2881 1497 
Q 2881 1984 2565 2268 
Q 2250 2553 1709 2553 
Q 1456 2553 1204 2497 
Q 953 2441 691 2322 
L 691 4666 
z
" transform="scale(0.015625)"/>
       </defs>
       <use xlink:href="#DejaVuSans-35"/>
       <use xlink:href="#DejaVuSans-30" x="63.623047"/>
      </g>
     </g>
    </g>
    <g id="ytick_4">
     <g id="line2d_21">
      <path d="M 108.096875 457.302679 
L 703.060528 457.302679 
" clip-path="url(#p4c8b96d8a1)" style="fill: none; stroke: #b0b0b0; stroke-width: 0.8; stroke-linecap: square"/>
     </g>
     <g id="line2d_22">
      <g>
       <use xlink:href="#m76b815a6e4" x="108.096875" y="457.302679" style="stroke: #000000; stroke-width: 0.8"/>
      </g>
     </g>
     <g id="text_12">
      <!-- 60 -->
      <g transform="translate(62.921875 468.700335)scale(0.3 -0.3)">
       <use xlink:href="#DejaVuSans-36"/>
       <use xlink:href="#DejaVuSans-30" x="63.623047"/>
      </g>
     </g>
    </g>
    <g id="ytick_5">
     <g id="line2d_23">
      <path d="M 108.096875 413.910134 
L 703.060528 413.910134 
" clip-path="url(#p4c8b96d8a1)" style="fill: none; stroke: #b0b0b0; stroke-width: 0.8; stroke-linecap: square"/>
     </g>
     <g id="line2d_24">
      <g>
       <use xlink:href="#m76b815a6e4" x="108.096875" y="413.910134" style="stroke: #000000; stroke-width: 0.8"/>
      </g>
     </g>
     <g id="text_13">
      <!-- 70 -->
      <g transform="translate(62.921875 425.30779)scale(0.3 -0.3)">
       <defs>
        <path id="DejaVuSans-37" d="M 525 4666 
L 3525 4666 
L 3525 4397 
L 1831 0 
L 1172 0 
L 2766 4134 
L 525 4134 
L 525 4666 
z
" transform="scale(0.015625)"/>
       </defs>
       <use xlink:href="#DejaVuSans-37"/>
       <use xlink:href="#DejaVuSans-30" x="63.623047"/>
      </g>
     </g>
    </g>
    <g id="ytick_6">
     <g id="line2d_25">
      <path d="M 108.096875 370.517589 
L 703.060528 370.517589 
" clip-path="url(#p4c8b96d8a1)" style="fill: none; stroke: #b0b0b0; stroke-width: 0.8; stroke-linecap: square"/>
     </g>
     <g id="line2d_26">
      <g>
       <use xlink:href="#m76b815a6e4" x="108.096875" y="370.517589" style="stroke: #000000; stroke-width: 0.8"/>
      </g>
     </g>
     <g id="text_14">
      <!-- 80 -->
      <g transform="translate(62.921875 381.915246)scale(0.3 -0.3)">
       <use xlink:href="#DejaVuSans-38"/>
       <use xlink:href="#DejaVuSans-30" x="63.623047"/>
      </g>
     </g>
    </g>
    <g id="ytick_7">
     <g id="line2d_27">
      <path d="M 108.096875 327.125045 
L 703.060528 327.125045 
" clip-path="url(#p4c8b96d8a1)" style="fill: none; stroke: #b0b0b0; stroke-width: 0.8; stroke-linecap: square"/>
     </g>
     <g id="line2d_28">
      <g>
       <use xlink:href="#m76b815a6e4" x="108.096875" y="327.125045" style="stroke: #000000; stroke-width: 0.8"/>
      </g>
     </g>
     <g id="text_15">
      <!-- 90 -->
      <g transform="translate(62.921875 338.522701)scale(0.3 -0.3)">
       <defs>
        <path id="DejaVuSans-39" d="M 703 97 
L 703 672 
Q 941 559 1184 500 
Q 1428 441 1663 441 
Q 2288 441 2617 861 
Q 2947 1281 2994 2138 
Q 2813 1869 2534 1725 
Q 2256 1581 1919 1581 
Q 1219 1581 811 2004 
Q 403 2428 403 3163 
Q 403 3881 828 4315 
Q 1253 4750 1959 4750 
Q 2769 4750 3195 4129 
Q 3622 3509 3622 2328 
Q 3622 1225 3098 567 
Q 2575 -91 1691 -91 
Q 1453 -91 1209 -44 
Q 966 3 703 97 
z
M 1959 2075 
Q 2384 2075 2632 2365 
Q 2881 2656 2881 3163 
Q 2881 3666 2632 3958 
Q 2384 4250 1959 4250 
Q 1534 4250 1286 3958 
Q 1038 3666 1038 3163 
Q 1038 2656 1286 2365 
Q 1534 2075 1959 2075 
z
" transform="scale(0.015625)"/>
       </defs>
       <use xlink:href="#DejaVuSans-39"/>
       <use xlink:href="#DejaVuSans-30" x="63.623047"/>
      </g>
     </g>
    </g>
    <g id="ytick_8">
     <g id="line2d_29">
      <path d="M 108.096875 283.7325 
L 703.060528 283.7325 
" clip-path="url(#p4c8b96d8a1)" style="fill: none; stroke: #b0b0b0; stroke-width: 0.8; stroke-linecap: square"/>
     </g>
     <g id="line2d_30">
      <g>
       <use xlink:href="#m76b815a6e4" x="108.096875" y="283.7325" style="stroke: #000000; stroke-width: 0.8"/>
      </g>
     </g>
     <g id="text_16">
      <!-- 100 -->
      <g transform="translate(43.834375 295.130156)scale(0.3 -0.3)">
       <use xlink:href="#DejaVuSans-31"/>
       <use xlink:href="#DejaVuSans-30" x="63.623047"/>
       <use xlink:href="#DejaVuSans-30" x="127.246094"/>
      </g>
     </g>
    </g>
    <g id="text_17">
     <!-- accuracy [%] -->
     <g transform="translate(33.595312 534.00875)rotate(-90)scale(0.3 -0.3)">
      <defs>
       <path id="DejaVuSans-61" d="M 2194 1759 
Q 1497 1759 1228 1600 
Q 959 1441 959 1056 
Q 959 750 1161 570 
Q 1363 391 1709 391 
Q 2188 391 2477 730 
Q 2766 1069 2766 1631 
L 2766 1759 
L 2194 1759 
z
M 3341 1997 
L 3341 0 
L 2766 0 
L 2766 531 
Q 2569 213 2275 61 
Q 1981 -91 1556 -91 
Q 1019 -91 701 211 
Q 384 513 384 1019 
Q 384 1609 779 1909 
Q 1175 2209 1959 2209 
L 2766 2209 
L 2766 2266 
Q 2766 2663 2505 2880 
Q 2244 3097 1772 3097 
Q 1472 3097 1187 3025 
Q 903 2953 641 2809 
L 641 3341 
Q 956 3463 1253 3523 
Q 1550 3584 1831 3584 
Q 2591 3584 2966 3190 
Q 3341 2797 3341 1997 
z
" transform="scale(0.015625)"/>
       <path id="DejaVuSans-63" d="M 3122 3366 
L 3122 2828 
Q 2878 2963 2633 3030 
Q 2388 3097 2138 3097 
Q 1578 3097 1268 2742 
Q 959 2388 959 1747 
Q 959 1106 1268 751 
Q 1578 397 2138 397 
Q 2388 397 2633 464 
Q 2878 531 3122 666 
L 3122 134 
Q 2881 22 2623 -34 
Q 2366 -91 2075 -91 
Q 1284 -91 818 406 
Q 353 903 353 1747 
Q 353 2603 823 3093 
Q 1294 3584 2113 3584 
Q 2378 3584 2631 3529 
Q 2884 3475 3122 3366 
z
" transform="scale(0.015625)"/>
       <path id="DejaVuSans-75" d="M 544 1381 
L 544 3500 
L 1119 3500 
L 1119 1403 
Q 1119 906 1312 657 
Q 1506 409 1894 409 
Q 2359 409 2629 706 
Q 2900 1003 2900 1516 
L 2900 3500 
L 3475 3500 
L 3475 0 
L 2900 0 
L 2900 538 
Q 2691 219 2414 64 
Q 2138 -91 1772 -91 
Q 1169 -91 856 284 
Q 544 659 544 1381 
z
M 1991 3584 
L 1991 3584 
z
" transform="scale(0.015625)"/>
       <path id="DejaVuSans-72" d="M 2631 2963 
Q 2534 3019 2420 3045 
Q 2306 3072 2169 3072 
Q 1681 3072 1420 2755 
Q 1159 2438 1159 1844 
L 1159 0 
L 581 0 
L 581 3500 
L 1159 3500 
L 1159 2956 
Q 1341 3275 1631 3429 
Q 1922 3584 2338 3584 
Q 2397 3584 2469 3576 
Q 2541 3569 2628 3553 
L 2631 2963 
z
" transform="scale(0.015625)"/>
       <path id="DejaVuSans-79" d="M 2059 -325 
Q 1816 -950 1584 -1140 
Q 1353 -1331 966 -1331 
L 506 -1331 
L 506 -850 
L 844 -850 
Q 1081 -850 1212 -737 
Q 1344 -625 1503 -206 
L 1606 56 
L 191 3500 
L 800 3500 
L 1894 763 
L 2988 3500 
L 3597 3500 
L 2059 -325 
z
" transform="scale(0.015625)"/>
       <path id="DejaVuSans-20" transform="scale(0.015625)"/>
       <path id="DejaVuSans-5b" d="M 550 4863 
L 1875 4863 
L 1875 4416 
L 1125 4416 
L 1125 -397 
L 1875 -397 
L 1875 -844 
L 550 -844 
L 550 4863 
z
" transform="scale(0.015625)"/>
       <path id="DejaVuSans-25" d="M 4653 2053 
Q 4381 2053 4226 1822 
Q 4072 1591 4072 1178 
Q 4072 772 4226 539 
Q 4381 306 4653 306 
Q 4919 306 5073 539 
Q 5228 772 5228 1178 
Q 5228 1588 5073 1820 
Q 4919 2053 4653 2053 
z
M 4653 2450 
Q 5147 2450 5437 2106 
Q 5728 1763 5728 1178 
Q 5728 594 5436 251 
Q 5144 -91 4653 -91 
Q 4153 -91 3862 251 
Q 3572 594 3572 1178 
Q 3572 1766 3864 2108 
Q 4156 2450 4653 2450 
z
M 1428 4353 
Q 1159 4353 1004 4120 
Q 850 3888 850 3481 
Q 850 3069 1003 2837 
Q 1156 2606 1428 2606 
Q 1700 2606 1854 2837 
Q 2009 3069 2009 3481 
Q 2009 3884 1853 4118 
Q 1697 4353 1428 4353 
z
M 4250 4750 
L 4750 4750 
L 1831 -91 
L 1331 -91 
L 4250 4750 
z
M 1428 4750 
Q 1922 4750 2215 4408 
Q 2509 4066 2509 3481 
Q 2509 2891 2217 2550 
Q 1925 2209 1428 2209 
Q 931 2209 642 2551 
Q 353 2894 353 3481 
Q 353 4063 643 4406 
Q 934 4750 1428 4750 
z
" transform="scale(0.015625)"/>
       <path id="DejaVuSans-5d" d="M 1947 4863 
L 1947 -844 
L 622 -844 
L 622 -397 
L 1369 -397 
L 1369 4416 
L 622 4416 
L 622 4863 
L 1947 4863 
z
" transform="scale(0.015625)"/>
      </defs>
      <use xlink:href="#DejaVuSans-61"/>
      <use xlink:href="#DejaVuSans-63" x="61.279297"/>
      <use xlink:href="#DejaVuSans-63" x="116.259766"/>
      <use xlink:href="#DejaVuSans-75" x="171.240234"/>
      <use xlink:href="#DejaVuSans-72" x="234.619141"/>
      <use xlink:href="#DejaVuSans-61" x="275.732422"/>
      <use xlink:href="#DejaVuSans-63" x="337.011719"/>
      <use xlink:href="#DejaVuSans-79" x="391.992188"/>
      <use xlink:href="#DejaVuSans-20" x="451.171875"/>
      <use xlink:href="#DejaVuSans-5b" x="482.958984"/>
      <use xlink:href="#DejaVuSans-25" x="521.972656"/>
      <use xlink:href="#DejaVuSans-5d" x="616.992188"/>
     </g>
    </g>
   </g>
   <g id="line2d_31">
    <path d="M 135.140677 489.589626 
L 139.685854 426.346441 
L 144.231031 406.805336 
L 148.776208 397.941681 
L 153.321385 393.813602 
L 157.866562 382.540217 
L 162.411739 381.976116 
L 166.956916 374.139419 
L 171.502092 379.919309 
L 176.047269 371.651581 
L 180.592446 367.315217 
L 185.137623 365.058806 
L 189.6828 364.731919 
L 194.227977 361.558473 
L 198.773154 357.661824 
L 203.318331 356.102581 
L 207.863507 358.758211 
L 212.408684 357.737038 
L 216.953861 354.74006 
L 221.499038 352.960967 
L 226.044215 348.725851 
L 230.589392 348.005537 
L 235.134569 349.055638 
L 239.679746 347.623685 
L 244.224922 350.74216 
L 248.770099 345.728879 
L 253.315276 345.141631 
L 257.860453 344.913092 
L 262.40563 343.232357 
L 266.950807 341.169766 
L 271.495984 340.680874 
L 276.041161 342.072329 
L 280.586338 341.308625 
L 285.131514 339.121639 
L 289.676691 338.386856 
L 294.221868 337.33386 
L 298.767045 337.131367 
L 303.312222 337.906649 
L 307.857399 335.673379 
L 312.402576 334.796848 
L 316.947753 344.100208 
L 321.492929 356.001337 
L 326.038106 359.458275 
L 330.583283 361.49483 
L 335.12846 360.427373 
L 339.673637 360.890228 
L 344.218814 361.775435 
L 348.763991 362.654865 
L 353.309168 364.474454 
L 357.854344 362.539146 
L 362.399521 361.723371 
L 366.944698 362.183331 
L 371.489875 362.527575 
L 376.035052 363.514035 
L 380.580229 363.262355 
L 385.125406 362.993317 
L 389.670583 365.617126 
L 394.215759 362.95282 
L 398.760936 364.118632 
L 403.306113 362.54782 
L 407.85129 361.474582 
L 412.396467 363.285496 
L 416.941644 363.33757 
L 421.486821 363.354924 
L 426.031998 366.791612 
L 430.577174 363.751245 
L 435.122351 364.757951 
L 439.667528 365.813837 
L 444.212705 363.629742 
L 448.757882 363.7715 
L 453.303059 364.306672 
L 457.848236 363.311535 
L 462.393413 365.463804 
L 466.938589 365.238163 
L 471.483766 364.37031 
L 476.028943 363.985564 
L 480.57412 363.490892 
L 485.119297 362.860247 
L 489.664474 363.514033 
L 494.209651 364.68563 
L 498.754828 362.91232 
L 503.300005 358.440004 
L 507.845181 358.217248 
L 512.390358 358.706136 
L 516.935535 357.815142 
L 521.480712 356.779506 
L 526.025889 356.973334 
L 530.571066 357.086152 
L 535.116243 357.375438 
L 539.66142 358.972276 
L 544.206596 356.869185 
L 548.751773 356.98201 
L 553.29695 355.62816 
L 557.842127 356.565439 
L 562.387304 356.828688 
L 566.932481 356.085229 
L 571.477658 358.029215 
L 576.022835 357.262611 
L 580.568011 357.326258 
L 585.113188 356.151765 
L 589.658365 355.769909 
L 594.203542 356.95308 
L 598.748719 355.145053 
L 603.293896 354.88181 
L 607.839073 358.480499 
L 612.38425 357.149791 
L 616.929426 356.287725 
L 621.474603 355.593443 
L 626.01978 355.428558 
L 630.564957 355.492197 
L 635.110134 356.273264 
L 639.655311 357.225005 
L 644.200488 358.486286 
L 648.745665 356.724546 
L 653.290841 355.917444 
L 657.836018 356.397649 
L 662.381195 356.093905 
L 666.926372 355.85669 
L 671.471549 356.990682 
L 676.016726 356.721652 
" clip-path="url(#p4c8b96d8a1)" style="fill: none; stroke: #1f77b4; stroke-width: 1.5; stroke-linecap: square"/>
   </g>
   <g id="line2d_32">
    <path d="M 135.140677 502.887993 
L 139.685854 502.271819 
L 144.231031 506.145329 
L 148.776208 505.572549 
L 153.321385 504.901407 
L 157.866562 504.311267 
L 162.411739 505.422118 
L 166.956916 504.464589 
L 171.502092 503.897594 
L 176.047269 505.20805 
L 180.592446 503.504165 
L 185.137623 502.766495 
L 189.6828 503.264062 
L 194.227977 503.76163 
L 198.773154 504.30259 
L 203.318331 503.590953 
L 207.863507 502.934279 
L 212.408684 503.955451 
L 216.953861 503.521524 
L 221.499038 503.703773 
L 226.044215 505.109689 
L 230.589392 504.088521 
L 235.134569 504.875371 
L 239.679746 504.536911 
L 244.224922 505.451044 
L 248.770099 505.283263 
L 253.315276 505.801078 
L 257.860453 505.532045 
L 262.40563 506.180042 
L 266.950807 505.801081 
L 271.495984 505.326656 
L 276.041161 504.866694 
L 280.586338 506.394113 
L 285.131514 505.601473 
L 289.676691 505.228297 
L 294.221868 505.994901 
L 298.767045 503.981485 
L 303.312222 504.669982 
L 307.857399 504.982407 
L 312.402576 505.581224 
L 316.947753 486.132684 
L 321.492929 423.106462 
L 326.038106 407.028076 
L 330.583283 397.678429 
L 335.12846 390.585197 
L 339.673637 385.059875 
L 344.218814 382.366647 
L 348.763991 380.790049 
L 353.309168 379.87013 
L 357.854344 375.58873 
L 362.399521 374.619632 
L 366.944698 373.147172 
L 371.489875 370.563878 
L 376.035052 370.691159 
L 380.580229 365.825411 
L 385.125406 365.738626 
L 389.670583 368.579391 
L 394.215759 362.394509 
L 398.760936 361.969257 
L 403.306113 362.709826 
L 407.85129 360.282736 
L 412.396467 360.78319 
L 416.941644 357.994501 
L 421.486821 358.052359 
L 426.031998 359.073534 
L 430.577174 357.329147 
L 435.122351 356.684047 
L 439.667528 355.827767 
L 444.212705 354.317705 
L 448.757882 353.221323 
L 453.303059 354.910736 
L 457.848236 352.888649 
L 462.393413 353.614747 
L 466.938589 351.51744 
L 471.483766 352.443149 
L 476.028943 349.935056 
L 480.57412 349.718102 
L 485.119297 350.218555 
L 489.664474 350.033416 
L 494.209651 349.107707 
L 498.754828 353.160573 
L 503.300005 357.259719 
L 507.845181 358.298247 
L 512.390358 360.123626 
L 516.935535 362.197793 
L 521.480712 361.442761 
L 526.025889 361.844866 
L 530.571066 363.190034 
L 535.116243 364.413705 
L 539.66142 364.318237 
L 544.206596 363.751243 
L 548.751773 363.404103 
L 553.29695 363.670247 
L 557.842127 364.91995 
L 562.387304 364.755057 
L 566.932481 365.484055 
L 571.477658 366.496546 
L 576.022835 364.702987 
L 580.568011 365.735732 
L 585.113188 365.975835 
L 589.658365 364.836061 
L 594.203542 365.753089 
L 598.748719 365.206343 
L 603.293896 365.932445 
L 607.839073 366.94783 
L 612.38425 366.83212 
L 616.929426 365.793586 
L 621.474603 366.487867 
L 626.01978 365.006735 
L 630.564957 365.944014 
L 635.110134 366.612259 
L 639.655311 365.663409 
L 644.200488 367.286291 
L 648.745665 366.088656 
L 653.290841 366.088656 
L 657.836018 366.079976 
L 662.381195 366.320082 
L 666.926372 366.192799 
L 671.471549 367.306544 
L 676.016726 365.993192 
" clip-path="url(#p4c8b96d8a1)" style="fill: none; stroke: #ff7f0e; stroke-width: 1.5; stroke-linecap: square"/>
   </g>
   <g id="line2d_33">
    <path d="M 135.140677 502.482996 
L 139.685854 506.573467 
L 144.231031 500.732831 
L 148.776208 500.313369 
L 153.321385 499.297984 
L 157.866562 500.371227 
L 162.411739 499.931515 
L 166.956916 499.731908 
L 171.502092 499.338481 
L 176.047269 499.072343 
L 180.592446 500.547689 
L 185.137623 499.911265 
L 189.6828 500.287334 
L 194.227977 499.341376 
L 198.773154 500.28444 
L 203.318331 500.05012 
L 207.863507 500.585297 
L 212.408684 499.662481 
L 216.953861 499.616195 
L 221.499038 500.489831 
L 226.044215 499.986478 
L 230.589392 498.864057 
L 235.134569 498.936378 
L 239.679746 499.335591 
L 244.224922 498.244991 
L 248.770099 499.350057 
L 253.315276 500.015406 
L 257.860453 499.190949 
L 262.40563 499.271947 
L 266.950807 498.785953 
L 271.495984 498.600811 
L 276.041161 498.482204 
L 280.586338 498.505348 
L 285.131514 497.871815 
L 289.676691 499.211197 
L 294.221868 498.81488 
L 298.767045 499.917051 
L 303.312222 499.769518 
L 307.857399 500.171617 
L 312.402576 500.142692 
L 316.947753 498.398312 
L 321.492929 500.269979 
L 326.038106 499.731907 
L 330.583283 499.555446 
L 335.12846 500.203441 
L 339.673637 499.240125 
L 344.218814 500.588186 
L 348.763991 500.229475 
L 353.309168 500.235261 
L 357.854344 499.995155 
L 362.399521 498.98845 
L 366.944698 498.814879 
L 371.489875 500.941117 
L 376.035052 500.171619 
L 380.580229 499.84762 
L 385.125406 499.922835 
L 389.670583 500.729941 
L 394.215759 501.158078 
L 398.760936 500.990292 
L 403.306113 499.992265 
L 407.85129 500.238156 
L 412.396467 500.755974 
L 416.941644 500.258405 
L 421.486821 499.286413 
L 426.031998 500.264188 
L 430.577174 498.117705 
L 435.122351 498.82645 
L 439.667528 499.309552 
L 444.212705 499.75505 
L 448.757882 499.454196 
L 453.303059 499.338481 
L 457.848236 498.757022 
L 462.393413 500.379905 
L 466.938589 499.031843 
L 471.483766 499.807123 
L 476.028943 499.280629 
L 480.57412 499.248805 
L 485.119297 498.204491 
L 489.664474 497.938352 
L 494.209651 499.24302 
L 498.754828 477.830244 
L 503.300005 412.414539 
L 507.845181 394.152061 
L 512.390358 386.387688 
L 516.935535 380.486303 
L 521.480712 376.88472 
L 526.025889 372.909964 
L 530.571066 371.044081 
L 535.116243 374.900232 
L 539.66142 368.076033 
L 544.206596 365.559266 
L 548.751773 362.576754 
L 553.29695 360.224884 
L 557.842127 360.013695 
L 562.387304 357.913499 
L 566.932481 357.019618 
L 571.477658 359.351242 
L 576.022835 356.927043 
L 580.568011 354.25117 
L 585.113188 353.744926 
L 589.658365 353.310996 
L 594.203542 351.254191 
L 598.748719 351.667871 
L 603.293896 350.183845 
L 607.839073 349.888776 
L 612.38425 348.627497 
L 616.929426 348.234074 
L 621.474603 347.58029 
L 626.01978 345.708622 
L 630.564957 344.34321 
L 635.110134 345.679697 
L 639.655311 343.920847 
L 644.200488 344.470493 
L 648.745665 343.099285 
L 653.290841 342.289294 
L 657.836018 341.739655 
L 662.381195 341.380942 
L 666.926372 340.432096 
L 671.471549 340.735843 
L 676.016726 340.996198 
" clip-path="url(#p4c8b96d8a1)" style="fill: none; stroke: #2ca02c; stroke-width: 1.5; stroke-linecap: square"/>
   </g>
   <g id="line2d_34">
    <path d="M 135.140677 503.104957 
L 139.685854 504.366232 
L 144.231031 503.770309 
L 148.776208 504.215804 
L 153.321385 504.713373 
L 157.866562 505.176227 
L 162.411739 503.854199 
L 166.956916 504.105877 
L 171.502092 503.298776 
L 176.047269 503.316131 
L 180.592446 504.039343 
L 185.137623 504.50798 
L 189.6828 503.816595 
L 194.227977 503.023956 
L 198.773154 503.22935 
L 203.318331 503.258277 
L 207.863507 503.145455 
L 212.408684 502.190818 
L 216.953861 503.290098 
L 221.499038 503.683524 
L 226.044215 503.631454 
L 230.589392 503.466559 
L 235.134569 504.577408 
L 239.679746 502.69996 
L 244.224922 503.255382 
L 248.770099 502.789635 
L 253.315276 503.17149 
L 257.860453 502.280497 
L 262.40563 503.556239 
L 266.950807 503.787664 
L 271.495984 502.876422 
L 276.041161 504.091412 
L 280.586338 503.576487 
L 285.131514 504.273663 
L 289.676691 503.521524 
L 294.221868 503.8542 
L 298.767045 503.787665 
L 303.312222 503.585166 
L 307.857399 503.894702 
L 312.402576 503.773201 
L 316.947753 503.732702 
L 321.492929 503.527311 
L 326.038106 503.625667 
L 330.583283 501.788716 
L 335.12846 501.270899 
L 339.673637 501.331649 
L 344.218814 501.927572 
L 348.763991 503.067348 
L 353.309168 501.970965 
L 357.854344 501.424218 
L 362.399521 501.441572 
L 366.944698 501.840786 
L 371.489875 502.176354 
L 376.035052 501.652751 
L 380.580229 501.241969 
L 385.125406 500.978719 
L 389.670583 501.065506 
L 394.215759 501.829213 
L 398.760936 501.921785 
L 403.306113 501.751109 
L 407.85129 501.409754 
L 412.396467 501.612252 
L 416.941644 501.988319 
L 421.486821 501.389503 
L 426.031998 500.397257 
L 430.577174 500.718368 
L 435.122351 501.178329 
L 439.667528 500.993185 
L 444.212705 501.349005 
L 448.757882 501.273792 
L 453.303059 501.806072 
L 457.848236 501.727966 
L 462.393413 501.421324 
L 466.938589 501.61804 
L 471.483766 501.655647 
L 476.028943 502.361499 
L 480.57412 501.594897 
L 485.119297 501.568859 
L 489.664474 501.52836 
L 494.209651 502.049072 
L 498.754828 502.237102 
L 503.300005 501.149397 
L 507.845181 500.053012 
L 512.390358 500.512974 
L 516.935535 499.676944 
L 521.480712 499.8563 
L 526.025889 499.329804 
L 530.571066 498.693382 
L 535.116243 499.972016 
L 539.66142 499.364518 
L 544.206596 499.729016 
L 548.751773 500.319154 
L 553.29695 500.515868 
L 557.842127 500.582402 
L 562.387304 500.871688 
L 566.932481 500.006728 
L 571.477658 500.009621 
L 576.022835 499.810017 
L 580.568011 501.001865 
L 585.113188 501.43579 
L 589.658365 501.320077 
L 594.203542 501.013436 
L 598.748719 501.832107 
L 603.293896 501.201468 
L 607.839073 500.446438 
L 612.38425 500.822507 
L 616.929426 500.492724 
L 621.474603 501.470503 
L 626.01978 500.776223 
L 630.564957 501.036578 
L 635.110134 501.25354 
L 639.655311 500.9064 
L 644.200488 501.427109 
L 648.745665 501.334539 
L 653.290841 501.673002 
L 657.836018 500.831188 
L 662.381195 500.24394 
L 666.926372 501.019222 
L 671.471549 502.083786 
L 676.016726 501.684573 
" clip-path="url(#p4c8b96d8a1)" style="fill: none; stroke: #d62728; stroke-width: 1.5; stroke-linecap: square"/>
   </g>
   <g id="line2d_35">
    <path d="M 135.140677 511.199112 
L 139.685854 504.568732 
L 144.231031 504.973729 
L 148.776208 506.909033 
L 153.321385 505.89365 
L 157.866562 506.874324 
L 162.411739 507.296678 
L 166.956916 507.666958 
L 171.502092 506.605287 
L 176.047269 507.235927 
L 180.592446 508.181885 
L 185.137623 508.583986 
L 189.6828 509.848158 
L 194.227977 509.495232 
L 198.773154 509.055521 
L 203.318331 509.330339 
L 207.863507 510.470117 
L 212.408684 508.300489 
L 216.953861 507.611996 
L 221.499038 509.411339 
L 226.044215 508.630274 
L 230.589392 508.824092 
L 235.134569 508.552164 
L 239.679746 509.113376 
L 244.224922 508.890629 
L 248.770099 508.786486 
L 253.315276 507.652493 
L 257.860453 508.474059 
L 262.40563 508.861699 
L 266.950807 508.777809 
L 271.495984 509.069986 
L 276.041161 509.064198 
L 280.586338 508.627378 
L 285.131514 509.052627 
L 289.676691 510.033297 
L 294.221868 510.137441 
L 298.767045 510.814362 
L 303.312222 509.703516 
L 307.857399 509.564659 
L 312.402576 511.109435 
L 316.947753 510.415155 
L 321.492929 510.60608 
L 326.038106 513.490239 
L 330.583283 513.334025 
L 335.12846 514.832515 
L 339.673637 512.014891 
L 344.218814 513.111279 
L 348.763991 511.763216 
L 353.309168 513.362953 
L 357.854344 514.013843 
L 362.399521 513.935734 
L 366.944698 513.131526 
L 371.489875 513.846057 
L 376.035052 514.329161 
L 380.580229 513.527845 
L 385.125406 513.513382 
L 389.670583 513.854736 
L 394.215759 513.030277 
L 398.760936 514.034093 
L 403.306113 513.455526 
L 407.85129 514.034093 
L 412.396467 513.782414 
L 416.941644 513.611736 
L 421.486821 515.515223 
L 426.031998 514.835408 
L 430.577174 515.170976 
L 435.122351 513.846058 
L 439.667528 514.433303 
L 444.212705 514.288662 
L 448.757882 513.174918 
L 453.303059 513.611737 
L 457.848236 513.924164 
L 462.393413 511.14704 
L 466.938589 512.405423 
L 471.483766 512.943491 
L 476.028943 513.316669 
L 480.57412 512.868279 
L 485.119297 513.218312 
L 489.664474 512.662887 
L 494.209651 512.738101 
L 498.754828 511.418968 
L 503.300005 510.915616 
L 507.845181 511.71693 
L 512.390358 510.811472 
L 516.935535 510.74783 
L 521.480712 511.453682 
L 526.025889 510.837506 
L 530.571066 511.300361 
L 535.116243 510.551116 
L 539.66142 510.904042 
L 544.206596 512.049605 
L 548.751773 512.697599 
L 553.29695 513.313773 
L 557.842127 513.05342 
L 562.387304 511.630143 
L 566.932481 511.70536 
L 571.477658 510.383331 
L 576.022835 511.332182 
L 580.568011 511.508645 
L 585.113188 510.834613 
L 589.658365 509.628303 
L 594.203542 509.498125 
L 598.748719 509.477876 
L 603.293896 510.134552 
L 607.839073 509.558873 
L 612.38425 509.78162 
L 616.929426 509.506803 
L 621.474603 510.31101 
L 626.01978 509.023698 
L 630.564957 509.341911 
L 635.110134 509.827906 
L 639.655311 510.172154 
L 644.200488 508.109564 
L 648.745665 508.066171 
L 653.290841 507.43553 
L 657.836018 507.745066 
L 662.381195 509.362159 
L 666.926372 507.84053 
L 671.471549 508.436454 
L 676.016726 508.644738 
" clip-path="url(#p4c8b96d8a1)" style="fill: none; stroke: #9467bd; stroke-width: 1.5; stroke-linecap: square"/>
   </g>
   <g id="patch_3">
    <path d="M 108.096875 587.480313 
L 108.096875 283.7325 
" style="fill: none; stroke: #000000; stroke-width: 0.8; stroke-linejoin: miter; stroke-linecap: square"/>
   </g>
   <g id="patch_4">
    <path d="M 703.060528 587.480313 
L 703.060528 283.7325 
" style="fill: none; stroke: #000000; stroke-width: 0.8; stroke-linejoin: miter; stroke-linecap: square"/>
   </g>
   <g id="patch_5">
    <path d="M 108.096875 587.480313 
L 703.060528 587.480313 
" style="fill: none; stroke: #000000; stroke-width: 0.8; stroke-linejoin: miter; stroke-linecap: square"/>
   </g>
   <g id="patch_6">
    <path d="M 108.096875 283.7325 
L 703.060528 283.7325 
" style="fill: none; stroke: #000000; stroke-width: 0.8; stroke-linejoin: miter; stroke-linecap: square"/>
   </g>
   <g id="text_18">
    <!-- Train -->
    <g transform="translate(369.597452 277.493438)scale(0.3 -0.3)">
     <defs>
      <path id="DejaVuSans-54" d="M -19 4666 
L 3928 4666 
L 3928 4134 
L 2272 4134 
L 2272 0 
L 1638 0 
L 1638 4134 
L -19 4134 
L -19 4666 
z
" transform="scale(0.015625)"/>
      <path id="DejaVuSans-69" d="M 603 3500 
L 1178 3500 
L 1178 0 
L 603 0 
L 603 3500 
z
M 603 4863 
L 1178 4863 
L 1178 4134 
L 603 4134 
L 603 4863 
z
" transform="scale(0.015625)"/>
      <path id="DejaVuSans-6e" d="M 3513 2113 
L 3513 0 
L 2938 0 
L 2938 2094 
Q 2938 2591 2744 2837 
Q 2550 3084 2163 3084 
Q 1697 3084 1428 2787 
Q 1159 2491 1159 1978 
L 1159 0 
L 581 0 
L 581 3500 
L 1159 3500 
L 1159 2956 
Q 1366 3272 1645 3428 
Q 1925 3584 2291 3584 
Q 2894 3584 3203 3211 
Q 3513 2838 3513 2113 
z
" transform="scale(0.015625)"/>
     </defs>
     <use xlink:href="#DejaVuSans-54"/>
     <use xlink:href="#DejaVuSans-72" x="46.333984"/>
     <use xlink:href="#DejaVuSans-61" x="87.447266"/>
     <use xlink:href="#DejaVuSans-69" x="148.726562"/>
     <use xlink:href="#DejaVuSans-6e" x="176.509766"/>
    </g>
   </g>
   <g id="legend_1">
    <g id="patch_7">
     <path d="M 115.096875 365.123125 
L 177.685937 365.123125 
Q 179.685937 365.123125 179.685937 363.123125 
L 179.685937 290.7325 
Q 179.685937 288.7325 177.685937 288.7325 
L 115.096875 288.7325 
Q 113.096875 288.7325 113.096875 290.7325 
L 113.096875 363.123125 
Q 113.096875 365.123125 115.096875 365.123125 
z
" style="fill: #ffffff; opacity: 0.8; stroke: #cccccc; stroke-linejoin: miter"/>
    </g>
    <g id="line2d_36">
     <path d="M 117.096875 296.830938 
L 127.096875 296.830938 
L 137.096875 296.830938 
" style="fill: none; stroke: #1f77b4; stroke-width: 1.5; stroke-linecap: square"/>
    </g>
    <g id="text_19">
     <!-- task 0 -->
     <g transform="translate(145.096875 300.330938)scale(0.1 -0.1)">
      <defs>
       <path id="DejaVuSans-6b" d="M 581 4863 
L 1159 4863 
L 1159 1991 
L 2875 3500 
L 3609 3500 
L 1753 1863 
L 3688 0 
L 2938 0 
L 1159 1709 
L 1159 0 
L 581 0 
L 581 4863 
z
" transform="scale(0.015625)"/>
      </defs>
      <use xlink:href="#DejaVuSans-74"/>
      <use xlink:href="#DejaVuSans-61" x="39.208984"/>
      <use xlink:href="#DejaVuSans-73" x="100.488281"/>
      <use xlink:href="#DejaVuSans-6b" x="152.587891"/>
      <use xlink:href="#DejaVuSans-20" x="210.498047"/>
      <use xlink:href="#DejaVuSans-30" x="242.285156"/>
     </g>
    </g>
    <g id="line2d_37">
     <path d="M 117.096875 311.509063 
L 127.096875 311.509063 
L 137.096875 311.509063 
" style="fill: none; stroke: #ff7f0e; stroke-width: 1.5; stroke-linecap: square"/>
    </g>
    <g id="text_20">
     <!-- task 1 -->
     <g transform="translate(145.096875 315.009063)scale(0.1 -0.1)">
      <use xlink:href="#DejaVuSans-74"/>
      <use xlink:href="#DejaVuSans-61" x="39.208984"/>
      <use xlink:href="#DejaVuSans-73" x="100.488281"/>
      <use xlink:href="#DejaVuSans-6b" x="152.587891"/>
      <use xlink:href="#DejaVuSans-20" x="210.498047"/>
      <use xlink:href="#DejaVuSans-31" x="242.285156"/>
     </g>
    </g>
    <g id="line2d_38">
     <path d="M 117.096875 326.187188 
L 127.096875 326.187188 
L 137.096875 326.187188 
" style="fill: none; stroke: #2ca02c; stroke-width: 1.5; stroke-linecap: square"/>
    </g>
    <g id="text_21">
     <!-- task 2 -->
     <g transform="translate(145.096875 329.687188)scale(0.1 -0.1)">
      <use xlink:href="#DejaVuSans-74"/>
      <use xlink:href="#DejaVuSans-61" x="39.208984"/>
      <use xlink:href="#DejaVuSans-73" x="100.488281"/>
      <use xlink:href="#DejaVuSans-6b" x="152.587891"/>
      <use xlink:href="#DejaVuSans-20" x="210.498047"/>
      <use xlink:href="#DejaVuSans-32" x="242.285156"/>
     </g>
    </g>
    <g id="line2d_39">
     <path d="M 117.096875 340.865313 
L 127.096875 340.865313 
L 137.096875 340.865313 
" style="fill: none; stroke: #d62728; stroke-width: 1.5; stroke-linecap: square"/>
    </g>
    <g id="text_22">
     <!-- task 3 -->
     <g transform="translate(145.096875 344.365313)scale(0.1 -0.1)">
      <use xlink:href="#DejaVuSans-74"/>
      <use xlink:href="#DejaVuSans-61" x="39.208984"/>
      <use xlink:href="#DejaVuSans-73" x="100.488281"/>
      <use xlink:href="#DejaVuSans-6b" x="152.587891"/>
      <use xlink:href="#DejaVuSans-20" x="210.498047"/>
      <use xlink:href="#DejaVuSans-33" x="242.285156"/>
     </g>
    </g>
    <g id="line2d_40">
     <path d="M 117.096875 355.543438 
L 127.096875 355.543438 
L 137.096875 355.543438 
" style="fill: none; stroke: #9467bd; stroke-width: 1.5; stroke-linecap: square"/>
    </g>
    <g id="text_23">
     <!-- task 4 -->
     <g transform="translate(145.096875 359.043438)scale(0.1 -0.1)">
      <use xlink:href="#DejaVuSans-74"/>
      <use xlink:href="#DejaVuSans-61" x="39.208984"/>
      <use xlink:href="#DejaVuSans-73" x="100.488281"/>
      <use xlink:href="#DejaVuSans-6b" x="152.587891"/>
      <use xlink:href="#DejaVuSans-20" x="210.498047"/>
      <use xlink:href="#DejaVuSans-34" x="242.285156"/>
     </g>
    </g>
   </g>
  </g>
  <g id="axes_2">
   <g id="patch_8">
    <path d="M 108.096875 1000.13125 
L 703.060528 1000.13125 
L 703.060528 696.383438 
L 108.096875 696.383438 
z
" style="fill: #ffffff"/>
   </g>
   <g id="matplotlib.axis_3">
    <g id="xtick_8">
     <g id="line2d_41">
      <path d="M 135.140677 1000.13125 
L 135.140677 696.383438 
" clip-path="url(#p287395b0b4)" style="fill: none; stroke: #b0b0b0; stroke-width: 0.8; stroke-linecap: square"/>
     </g>
     <g id="line2d_42">
      <g>
       <use xlink:href="#m294adfb820" x="135.140677" y="1000.13125" style="stroke: #000000; stroke-width: 0.8"/>
      </g>
     </g>
     <g id="text_24">
      <!-- 0 -->
      <g transform="translate(125.596927 1029.926563)scale(0.3 -0.3)">
       <use xlink:href="#DejaVuSans-30"/>
      </g>
     </g>
    </g>
    <g id="xtick_9">
     <g id="line2d_43">
      <path d="M 226.044215 1000.13125 
L 226.044215 696.383438 
" clip-path="url(#p287395b0b4)" style="fill: none; stroke: #b0b0b0; stroke-width: 0.8; stroke-linecap: square"/>
     </g>
     <g id="line2d_44">
      <g>
       <use xlink:href="#m294adfb820" x="226.044215" y="1000.13125" style="stroke: #000000; stroke-width: 0.8"/>
      </g>
     </g>
     <g id="text_25">
      <!-- 20 -->
      <g transform="translate(206.956715 1029.926563)scale(0.3 -0.3)">
       <use xlink:href="#DejaVuSans-32"/>
       <use xlink:href="#DejaVuSans-30" x="63.623047"/>
      </g>
     </g>
    </g>
    <g id="xtick_10">
     <g id="line2d_45">
      <path d="M 316.947753 1000.13125 
L 316.947753 696.383438 
" clip-path="url(#p287395b0b4)" style="fill: none; stroke: #b0b0b0; stroke-width: 0.8; stroke-linecap: square"/>
     </g>
     <g id="line2d_46">
      <g>
       <use xlink:href="#m294adfb820" x="316.947753" y="1000.13125" style="stroke: #000000; stroke-width: 0.8"/>
      </g>
     </g>
     <g id="text_26">
      <!-- 40 -->
      <g transform="translate(297.860253 1029.926563)scale(0.3 -0.3)">
       <use xlink:href="#DejaVuSans-34"/>
       <use xlink:href="#DejaVuSans-30" x="63.623047"/>
      </g>
     </g>
    </g>
    <g id="xtick_11">
     <g id="line2d_47">
      <path d="M 407.85129 1000.13125 
L 407.85129 696.383438 
" clip-path="url(#p287395b0b4)" style="fill: none; stroke: #b0b0b0; stroke-width: 0.8; stroke-linecap: square"/>
     </g>
     <g id="line2d_48">
      <g>
       <use xlink:href="#m294adfb820" x="407.85129" y="1000.13125" style="stroke: #000000; stroke-width: 0.8"/>
      </g>
     </g>
     <g id="text_27">
      <!-- 60 -->
      <g transform="translate(388.76379 1029.926563)scale(0.3 -0.3)">
       <use xlink:href="#DejaVuSans-36"/>
       <use xlink:href="#DejaVuSans-30" x="63.623047"/>
      </g>
     </g>
    </g>
    <g id="xtick_12">
     <g id="line2d_49">
      <path d="M 498.754828 1000.13125 
L 498.754828 696.383438 
" clip-path="url(#p287395b0b4)" style="fill: none; stroke: #b0b0b0; stroke-width: 0.8; stroke-linecap: square"/>
     </g>
     <g id="line2d_50">
      <g>
       <use xlink:href="#m294adfb820" x="498.754828" y="1000.13125" style="stroke: #000000; stroke-width: 0.8"/>
      </g>
     </g>
     <g id="text_28">
      <!-- 80 -->
      <g transform="translate(479.667328 1029.926563)scale(0.3 -0.3)">
       <use xlink:href="#DejaVuSans-38"/>
       <use xlink:href="#DejaVuSans-30" x="63.623047"/>
      </g>
     </g>
    </g>
    <g id="xtick_13">
     <g id="line2d_51">
      <path d="M 589.658365 1000.13125 
L 589.658365 696.383438 
" clip-path="url(#p287395b0b4)" style="fill: none; stroke: #b0b0b0; stroke-width: 0.8; stroke-linecap: square"/>
     </g>
     <g id="line2d_52">
      <g>
       <use xlink:href="#m294adfb820" x="589.658365" y="1000.13125" style="stroke: #000000; stroke-width: 0.8"/>
      </g>
     </g>
     <g id="text_29">
      <!-- 100 -->
      <g transform="translate(561.027115 1029.926563)scale(0.3 -0.3)">
       <use xlink:href="#DejaVuSans-31"/>
       <use xlink:href="#DejaVuSans-30" x="63.623047"/>
       <use xlink:href="#DejaVuSans-30" x="127.246094"/>
      </g>
     </g>
    </g>
    <g id="xtick_14">
     <g id="line2d_53">
      <path d="M 680.561903 1000.13125 
L 680.561903 696.383438 
" clip-path="url(#p287395b0b4)" style="fill: none; stroke: #b0b0b0; stroke-width: 0.8; stroke-linecap: square"/>
     </g>
     <g id="line2d_54">
      <g>
       <use xlink:href="#m294adfb820" x="680.561903" y="1000.13125" style="stroke: #000000; stroke-width: 0.8"/>
      </g>
     </g>
     <g id="text_30">
      <!-- 120 -->
      <g transform="translate(651.930653 1029.926563)scale(0.3 -0.3)">
       <use xlink:href="#DejaVuSans-31"/>
       <use xlink:href="#DejaVuSans-32" x="63.623047"/>
       <use xlink:href="#DejaVuSans-30" x="127.246094"/>
      </g>
     </g>
    </g>
    <g id="text_31">
     <!-- step -->
     <g transform="translate(373.131827 1062.960938)scale(0.3 -0.3)">
      <use xlink:href="#DejaVuSans-73"/>
      <use xlink:href="#DejaVuSans-74" x="52.099609"/>
      <use xlink:href="#DejaVuSans-65" x="91.308594"/>
      <use xlink:href="#DejaVuSans-70" x="152.832031"/>
     </g>
    </g>
   </g>
   <g id="matplotlib.axis_4">
    <g id="ytick_9">
     <g id="line2d_55">
      <path d="M 108.096875 1000.13125 
L 703.060528 1000.13125 
" clip-path="url(#p287395b0b4)" style="fill: none; stroke: #b0b0b0; stroke-width: 0.8; stroke-linecap: square"/>
     </g>
     <g id="line2d_56">
      <g>
       <use xlink:href="#m76b815a6e4" x="108.096875" y="1000.13125" style="stroke: #000000; stroke-width: 0.8"/>
      </g>
     </g>
     <g id="text_32">
      <!-- 30 -->
      <g transform="translate(62.921875 1011.528906)scale(0.3 -0.3)">
       <use xlink:href="#DejaVuSans-33"/>
       <use xlink:href="#DejaVuSans-30" x="63.623047"/>
      </g>
     </g>
    </g>
    <g id="ytick_10">
     <g id="line2d_57">
      <path d="M 108.096875 956.738705 
L 703.060528 956.738705 
" clip-path="url(#p287395b0b4)" style="fill: none; stroke: #b0b0b0; stroke-width: 0.8; stroke-linecap: square"/>
     </g>
     <g id="line2d_58">
      <g>
       <use xlink:href="#m76b815a6e4" x="108.096875" y="956.738705" style="stroke: #000000; stroke-width: 0.8"/>
      </g>
     </g>
     <g id="text_33">
      <!-- 40 -->
      <g transform="translate(62.921875 968.136362)scale(0.3 -0.3)">
       <use xlink:href="#DejaVuSans-34"/>
       <use xlink:href="#DejaVuSans-30" x="63.623047"/>
      </g>
     </g>
    </g>
    <g id="ytick_11">
     <g id="line2d_59">
      <path d="M 108.096875 913.346161 
L 703.060528 913.346161 
" clip-path="url(#p287395b0b4)" style="fill: none; stroke: #b0b0b0; stroke-width: 0.8; stroke-linecap: square"/>
     </g>
     <g id="line2d_60">
      <g>
       <use xlink:href="#m76b815a6e4" x="108.096875" y="913.346161" style="stroke: #000000; stroke-width: 0.8"/>
      </g>
     </g>
     <g id="text_34">
      <!-- 50 -->
      <g transform="translate(62.921875 924.743817)scale(0.3 -0.3)">
       <use xlink:href="#DejaVuSans-35"/>
       <use xlink:href="#DejaVuSans-30" x="63.623047"/>
      </g>
     </g>
    </g>
    <g id="ytick_12">
     <g id="line2d_61">
      <path d="M 108.096875 869.953616 
L 703.060528 869.953616 
" clip-path="url(#p287395b0b4)" style="fill: none; stroke: #b0b0b0; stroke-width: 0.8; stroke-linecap: square"/>
     </g>
     <g id="line2d_62">
      <g>
       <use xlink:href="#m76b815a6e4" x="108.096875" y="869.953616" style="stroke: #000000; stroke-width: 0.8"/>
      </g>
     </g>
     <g id="text_35">
      <!-- 60 -->
      <g transform="translate(62.921875 881.351272)scale(0.3 -0.3)">
       <use xlink:href="#DejaVuSans-36"/>
       <use xlink:href="#DejaVuSans-30" x="63.623047"/>
      </g>
     </g>
    </g>
    <g id="ytick_13">
     <g id="line2d_63">
      <path d="M 108.096875 826.561071 
L 703.060528 826.561071 
" clip-path="url(#p287395b0b4)" style="fill: none; stroke: #b0b0b0; stroke-width: 0.8; stroke-linecap: square"/>
     </g>
     <g id="line2d_64">
      <g>
       <use xlink:href="#m76b815a6e4" x="108.096875" y="826.561071" style="stroke: #000000; stroke-width: 0.8"/>
      </g>
     </g>
     <g id="text_36">
      <!-- 70 -->
      <g transform="translate(62.921875 837.958728)scale(0.3 -0.3)">
       <use xlink:href="#DejaVuSans-37"/>
       <use xlink:href="#DejaVuSans-30" x="63.623047"/>
      </g>
     </g>
    </g>
    <g id="ytick_14">
     <g id="line2d_65">
      <path d="M 108.096875 783.168527 
L 703.060528 783.168527 
" clip-path="url(#p287395b0b4)" style="fill: none; stroke: #b0b0b0; stroke-width: 0.8; stroke-linecap: square"/>
     </g>
     <g id="line2d_66">
      <g>
       <use xlink:href="#m76b815a6e4" x="108.096875" y="783.168527" style="stroke: #000000; stroke-width: 0.8"/>
      </g>
     </g>
     <g id="text_37">
      <!-- 80 -->
      <g transform="translate(62.921875 794.566183)scale(0.3 -0.3)">
       <use xlink:href="#DejaVuSans-38"/>
       <use xlink:href="#DejaVuSans-30" x="63.623047"/>
      </g>
     </g>
    </g>
    <g id="ytick_15">
     <g id="line2d_67">
      <path d="M 108.096875 739.775982 
L 703.060528 739.775982 
" clip-path="url(#p287395b0b4)" style="fill: none; stroke: #b0b0b0; stroke-width: 0.8; stroke-linecap: square"/>
     </g>
     <g id="line2d_68">
      <g>
       <use xlink:href="#m76b815a6e4" x="108.096875" y="739.775982" style="stroke: #000000; stroke-width: 0.8"/>
      </g>
     </g>
     <g id="text_38">
      <!-- 90 -->
      <g transform="translate(62.921875 751.173638)scale(0.3 -0.3)">
       <use xlink:href="#DejaVuSans-39"/>
       <use xlink:href="#DejaVuSans-30" x="63.623047"/>
      </g>
     </g>
    </g>
    <g id="ytick_16">
     <g id="line2d_69">
      <path d="M 108.096875 696.383438 
L 703.060528 696.383438 
" clip-path="url(#p287395b0b4)" style="fill: none; stroke: #b0b0b0; stroke-width: 0.8; stroke-linecap: square"/>
     </g>
     <g id="line2d_70">
      <g>
       <use xlink:href="#m76b815a6e4" x="108.096875" y="696.383438" style="stroke: #000000; stroke-width: 0.8"/>
      </g>
     </g>
     <g id="text_39">
      <!-- 100 -->
      <g transform="translate(43.834375 707.781094)scale(0.3 -0.3)">
       <use xlink:href="#DejaVuSans-31"/>
       <use xlink:href="#DejaVuSans-30" x="63.623047"/>
       <use xlink:href="#DejaVuSans-30" x="127.246094"/>
      </g>
     </g>
    </g>
    <g id="text_40">
     <!-- accuracy [%] -->
     <g transform="translate(33.595312 946.659688)rotate(-90)scale(0.3 -0.3)">
      <use xlink:href="#DejaVuSans-61"/>
      <use xlink:href="#DejaVuSans-63" x="61.279297"/>
      <use xlink:href="#DejaVuSans-63" x="116.259766"/>
      <use xlink:href="#DejaVuSans-75" x="171.240234"/>
      <use xlink:href="#DejaVuSans-72" x="234.619141"/>
      <use xlink:href="#DejaVuSans-61" x="275.732422"/>
      <use xlink:href="#DejaVuSans-63" x="337.011719"/>
      <use xlink:href="#DejaVuSans-79" x="391.992188"/>
      <use xlink:href="#DejaVuSans-20" x="451.171875"/>
      <use xlink:href="#DejaVuSans-5b" x="482.958984"/>
      <use xlink:href="#DejaVuSans-25" x="521.972656"/>
      <use xlink:href="#DejaVuSans-5d" x="616.992188"/>
     </g>
    </g>
   </g>
   <g id="line2d_71">
    <path d="M 135.140677 905.058185 
L 139.685854 839.332944 
L 144.231031 820.775399 
L 148.776208 812.140287 
L 153.321385 808.278344 
L 157.866562 798.196811 
L 162.411739 796.837178 
L 166.956916 790.140262 
L 171.502092 794.624158 
L 176.047269 786.784574 
L 180.592446 782.213892 
L 185.137623 780.680686 
L 189.6828 780.015335 
L 194.227977 777.61428 
L 198.773154 773.723418 
L 203.318331 771.727358 
L 207.863507 774.301983 
L 212.408684 773.781269 
L 216.953861 770.873975 
L 221.499038 769.832552 
L 226.044215 765.970614 
L 230.589392 765.175084 
L 235.134569 766.505792 
L 239.679746 764.538661 
L 244.224922 766.939713 
L 248.770099 762.224394 
L 253.315276 762.32564 
L 257.860453 762.007431 
L 262.40563 760.821366 
L 266.950807 760.156015 
L 271.495984 759.11459 
L 276.041161 760.532085 
L 280.586338 760.011371 
L 285.131514 758.087637 
L 289.676691 757.827286 
L 294.221868 756.728007 
L 298.767045 755.455154 
L 303.312222 756.612291 
L 307.857399 755.050154 
L 312.402576 753.372311 
L 316.947753 762.036352 
L 321.492929 772.262533 
L 326.038106 775.430187 
L 330.583283 777.353924 
L 335.12846 777.050178 
L 339.673637 776.775363 
L 344.218814 777.194819 
L 348.763991 777.686605 
L 353.309168 779.378907 
L 357.854344 777.252675 
L 362.399521 776.110006 
L 366.944698 776.977859 
L 371.489875 777.816784 
L 376.035052 778.539984 
L 380.580229 778.380886 
L 385.125406 777.064636 
L 389.670583 780.000876 
L 394.215759 776.746431 
L 398.760936 778.843733 
L 403.306113 777.484099 
L 407.85129 776.31251 
L 412.396467 777.151429 
L 416.941644 777.744468 
L 421.486821 777.281608 
L 426.031998 780.666227 
L 430.577174 778.294098 
L 435.122351 779.075165 
L 439.667528 780.116584 
L 444.212705 777.527496 
L 448.757882 778.380877 
L 453.303059 778.670165 
L 457.848236 777.657677 
L 462.393413 780.102119 
L 466.938589 779.957477 
L 471.483766 779.118558 
L 476.028943 778.120528 
L 480.57412 778.077138 
L 485.119297 777.151431 
L 489.664474 778.106061 
L 494.209651 778.901593 
L 498.754828 776.876606 
L 503.300005 772.537356 
L 507.845181 772.667528 
L 512.390358 773.029135 
L 516.935535 772.898958 
L 521.480712 772.378242 
L 526.025889 772.146821 
L 530.571066 772.884495 
L 535.116243 772.493965 
L 539.66142 774.142876 
L 544.206596 772.291463 
L 548.751773 771.698428 
L 553.29695 770.700403 
L 557.842127 771.07647 
L 562.387304 771.148793 
L 566.932481 770.497903 
L 571.477658 772.537349 
L 576.022835 771.481468 
L 580.568011 771.597182 
L 585.113188 770.150761 
L 589.658365 769.065952 
L 594.203542 769.774689 
L 598.748719 769.253987 
L 603.293896 769.123808 
L 607.839073 773.376279 
L 612.38425 771.481472 
L 616.929426 770.063977 
L 621.474603 769.991657 
L 626.01978 769.991659 
L 630.564957 770.006124 
L 635.110134 770.483438 
L 639.655311 771.394682 
L 644.200488 772.537353 
L 648.745665 770.65701 
L 653.290841 770.006122 
L 657.836018 770.555757 
L 662.381195 770.468977 
L 666.926372 770.07844 
L 671.471549 770.888438 
L 676.016726 771.582719 
" clip-path="url(#p287395b0b4)" style="fill: none; stroke: #1f77b4; stroke-width: 1.5; stroke-linecap: square"/>
   </g>
   <g id="line2d_72">
    <path d="M 135.140677 915.660431 
L 139.685854 914.705793 
L 144.231031 918.770228 
L 148.776208 917.87345 
L 153.321385 918.56773 
L 157.866562 917.048991 
L 162.411739 919.551294 
L 166.956916 916.267924 
L 171.502092 915.617037 
L 176.047269 916.542744 
L 180.592446 915.429002 
L 185.137623 914.647935 
L 189.6828 915.284361 
L 194.227977 914.937222 
L 198.773154 916.672922 
L 203.318331 916.094355 
L 207.863507 915.732752 
L 212.408684 917.381668 
L 216.953861 916.484889 
L 221.499038 917.468452 
L 226.044215 916.427032 
L 230.589392 915.602574 
L 235.134569 917.034525 
L 239.679746 917.222563 
L 244.224922 917.757737 
L 248.770099 917.352742 
L 253.315276 917.699878 
L 257.860453 919.146297 
L 262.40563 918.162734 
L 266.950807 917.772201 
L 271.495984 918.003627 
L 276.041161 917.7722 
L 280.586338 917.540772 
L 285.131514 918.480945 
L 289.676691 918.350767 
L 294.221868 918.133802 
L 298.767045 916.007569 
L 303.312222 916.962206 
L 307.857399 916.210067 
L 312.402576 916.137747 
L 316.947753 896.712351 
L 321.492929 836.685999 
L 326.038106 820.225762 
L 330.583283 810.954222 
L 335.12846 804.864802 
L 339.673637 799.26716 
L 344.218814 797.618245 
L 348.763991 796.345395 
L 353.309168 795.607724 
L 357.854344 792.570245 
L 362.399521 790.357223 
L 366.944698 789.793125 
L 371.489875 786.726714 
L 376.035052 788.230991 
L 380.580229 782.922632 
L 385.125406 782.850316 
L 389.670583 784.325661 
L 394.215759 780.058724 
L 398.760936 780.564975 
L 403.306113 781.418364 
L 407.85129 779.075164 
L 412.396467 779.30659 
L 416.941644 777.874637 
L 421.486821 777.816777 
L 426.031998 777.599812 
L 430.577174 777.035714 
L 435.122351 776.167862 
L 439.667528 775.603759 
L 444.212705 775.111974 
L 448.757882 774.432162 
L 453.303059 775.51698 
L 457.848236 773.318416 
L 462.393413 773.925913 
L 466.938589 772.320391 
L 471.483766 773.520918 
L 476.028943 771.35129 
L 480.57412 770.411121 
L 485.119297 771.973249 
L 489.664474 771.177719 
L 494.209651 771.698428 
L 498.754828 774.706984 
L 503.300005 777.035715 
L 507.845181 778.120524 
L 512.390358 779.928548 
L 516.935535 781.490685 
L 521.480712 780.998897 
L 526.025889 781.143539 
L 530.571066 783.052813 
L 535.116243 783.472273 
L 539.66142 783.53013 
L 544.206596 783.313167 
L 548.751773 781.606387 
L 553.29695 781.751038 
L 557.842127 782.966023 
L 562.387304 783.457809 
L 566.932481 783.327631 
L 571.477658 783.906198 
L 576.022835 782.58996 
L 580.568011 783.327634 
L 585.113188 784.09423 
L 589.658365 783.284238 
L 594.203542 782.401926 
L 598.748719 782.44532 
L 603.293896 783.9062 
L 607.839073 785.092266 
L 612.38425 784.296734 
L 616.929426 783.154066 
L 621.474603 784.050842 
L 626.01978 782.90817 
L 630.564957 783.732633 
L 635.110134 784.600484 
L 639.655311 783.139601 
L 644.200488 785.04887 
L 648.745665 783.761559 
L 653.290841 783.718164 
L 657.836018 783.804954 
L 662.381195 783.790483 
L 666.926372 783.83388 
L 671.471549 784.267804 
L 676.016726 783.87727 
" clip-path="url(#p287395b0b4)" style="fill: none; stroke: #ff7f0e; stroke-width: 1.5; stroke-linecap: square"/>
   </g>
   <g id="line2d_73">
    <path d="M 135.140677 914.228476 
L 139.685854 918.857013 
L 144.231031 915.038471 
L 148.776208 912.738664 
L 153.321385 911.899744 
L 157.866562 912.897772 
L 162.411739 912.275811 
L 166.956916 912.912232 
L 171.502092 912.391525 
L 176.047269 912.087777 
L 180.592446 912.565095 
L 185.137623 913.172591 
L 189.6828 913.649907 
L 194.227977 912.984556 
L 198.773154 914.561152 
L 203.318331 913.606515 
L 207.863507 912.565096 
L 212.408684 911.523672 
L 216.953861 913.837943 
L 221.499038 913.302768 
L 226.044215 913.461875 
L 230.589392 912.362597 
L 235.134569 913.172591 
L 239.679746 913.331695 
L 244.224922 911.162068 
L 248.770099 912.594023 
L 253.315276 914.185083 
L 257.860453 912.970093 
L 262.40563 913.722228 
L 266.950807 912.666344 
L 271.495984 911.943134 
L 276.041161 913.013484 
L 280.586338 912.897771 
L 285.131514 913.620983 
L 289.676691 913.490803 
L 294.221868 914.054907 
L 298.767045 913.432946 
L 303.312222 913.042414 
L 307.857399 914.315263 
L 312.402576 914.054904 
L 316.947753 912.478308 
L 321.492929 914.474366 
L 326.038106 913.62098 
L 330.583283 913.780086 
L 335.12846 914.41651 
L 339.673637 914.980613 
L 344.218814 914.271867 
L 348.763991 914.532224 
L 353.309168 914.17062 
L 357.854344 913.939191 
L 362.399521 913.563122 
L 366.944698 913.968121 
L 371.489875 913.76562 
L 376.035052 913.809014 
L 380.580229 914.590078 
L 385.125406 914.821507 
L 389.670583 914.416508 
L 394.215759 915.038468 
L 398.760936 915.385609 
L 403.306113 913.62098 
L 407.85129 914.228476 
L 412.396467 914.474366 
L 416.941644 914.054904 
L 421.486821 913.288303 
L 426.031998 914.329726 
L 430.577174 911.653852 
L 435.122351 912.434919 
L 439.667528 912.926699 
L 444.212705 912.999022 
L 448.757882 913.678835 
L 453.303059 913.866871 
L 457.848236 913.751157 
L 462.393413 914.517759 
L 466.938589 912.695273 
L 471.483766 914.127226 
L 476.028943 913.20152 
L 480.57412 912.839913 
L 485.119297 911.639386 
L 489.664474 912.116703 
L 494.209651 913.360625 
L 498.754828 892.06935 
L 503.300005 827.399994 
L 507.845181 808.07585 
L 512.390358 800.612332 
L 516.935535 795.101477 
L 521.480712 792.266497 
L 526.025889 789.503839 
L 530.571066 787.854922 
L 535.116243 790.227048 
L 539.66142 783.616915 
L 544.206596 780.348011 
L 548.751773 778.771416 
L 553.29695 777.397317 
L 557.842127 778.0916 
L 562.387304 775.328941 
L 566.932481 774.475551 
L 571.477658 776.312503 
L 576.022835 774.533413 
L 580.568011 772.349319 
L 585.113188 771.192188 
L 589.658365 771.134328 
L 594.203542 770.570226 
L 598.748719 770.194156 
L 603.293896 769.774692 
L 607.839073 769.26845 
L 612.38425 768.400594 
L 616.929426 768.067918 
L 621.474603 767.691855 
L 626.01978 766.014009 
L 630.564957 765.536686 
L 635.110134 766.491327 
L 639.655311 765.363118 
L 644.200488 765.580081 
L 648.745665 765.05937 
L 653.290841 764.350624 
L 657.836018 763.670812 
L 662.381195 762.933138 
L 666.926372 763.179024 
L 671.471549 762.817424 
L 676.016726 762.904208 
" clip-path="url(#p287395b0b4)" style="fill: none; stroke: #2ca02c; stroke-width: 1.5; stroke-linecap: square"/>
   </g>
   <g id="line2d_74">
    <path d="M 135.140677 916.860956 
L 139.685854 917.17917 
L 144.231031 918.480945 
L 148.776208 916.267925 
L 153.321385 917.005597 
L 157.866562 917.714342 
L 162.411739 916.340247 
L 166.956916 915.617038 
L 171.502092 914.416509 
L 176.047269 915.935251 
L 180.592446 915.197575 
L 185.137623 915.732751 
L 189.6828 915.993107 
L 194.227977 916.15221 
L 198.773154 916.18114 
L 203.318331 915.226503 
L 207.863507 915.28436 
L 212.408684 915.559181 
L 216.953861 917.410596 
L 221.499038 916.166678 
L 226.044215 916.152212 
L 230.589392 915.949712 
L 235.134569 916.311318 
L 239.679746 915.327754 
L 244.224922 914.749186 
L 248.770099 915.21204 
L 253.315276 916.325782 
L 257.860453 915.978645 
L 262.40563 916.065429 
L 266.950807 916.224534 
L 271.495984 917.511844 
L 276.041161 919.001655 
L 280.586338 915.66043 
L 285.131514 916.325782 
L 289.676691 916.398103 
L 294.221868 916.571673 
L 298.767045 916.991133 
L 303.312222 917.04899 
L 307.857399 917.728806 
L 312.402576 918.018091 
L 316.947753 916.87542 
L 321.492929 915.457932 
L 326.038106 916.90435 
L 330.583283 916.238998 
L 335.12846 914.257405 
L 339.673637 914.908294 
L 344.218814 915.081864 
L 348.763991 917.020062 
L 353.309168 913.751157 
L 357.854344 913.505268 
L 362.399521 914.214012 
L 366.944698 914.749187 
L 371.489875 915.183111 
L 376.035052 915.34222 
L 380.580229 914.271867 
L 385.125406 913.476337 
L 389.670583 914.17062 
L 394.215759 915.197576 
L 398.760936 914.286334 
L 403.306113 915.501325 
L 407.85129 913.534196 
L 412.396467 914.48883 
L 416.941644 913.606515 
L 421.486821 913.649909 
L 426.031998 913.432947 
L 430.577174 913.519729 
L 435.122351 913.143662 
L 439.667528 913.765618 
L 444.212705 912.941162 
L 448.757882 911.885279 
L 453.303059 913.59205 
L 457.848236 913.085806 
L 462.393413 913.837943 
L 466.938589 914.069368 
L 471.483766 913.809014 
L 476.028943 913.72223 
L 480.57412 914.315263 
L 485.119297 913.968122 
L 489.664474 913.548658 
L 494.209651 913.823479 
L 498.754828 916.340246 
L 503.300005 912.984556 
L 507.845181 911.899743 
L 512.390358 913.505269 
L 516.935535 911.870814 
L 521.480712 911.841885 
L 526.025889 910.988499 
L 530.571066 910.800464 
L 535.116243 910.916178 
L 539.66142 910.829392 
L 544.206596 911.653851 
L 548.751773 911.972063 
L 553.29695 910.930643 
L 557.842127 911.494746 
L 562.387304 912.941163 
L 566.932481 912.666344 
L 571.477658 911.653852 
L 576.022835 912.897771 
L 580.568011 912.275811 
L 585.113188 913.881333 
L 589.658365 914.575616 
L 594.203542 913.418483 
L 598.748719 914.995078 
L 603.293896 913.548658 
L 607.839073 913.302768 
L 612.38425 913.215982 
L 616.929426 912.434918 
L 621.474603 914.430973 
L 626.01978 914.127227 
L 630.564957 913.158127 
L 635.110134 913.447411 
L 639.655311 913.17259 
L 644.200488 913.447412 
L 648.745665 912.99902 
L 653.290841 913.577587 
L 657.836018 914.011512 
L 662.381195 912.565095 
L 666.926372 913.34616 
L 671.471549 913.924726 
L 676.016726 913.476336 
" clip-path="url(#p287395b0b4)" style="fill: none; stroke: #d62728; stroke-width: 1.5; stroke-linecap: square"/>
   </g>
   <g id="line2d_75">
    <path d="M 135.140677 923.514477 
L 139.685854 918.480944 
L 144.231031 918.018092 
L 148.776208 921.793242 
L 153.321385 919.233083 
L 157.866562 920.983247 
L 162.411739 920.549322 
L 166.956916 922.559845 
L 171.502092 919.826112 
L 176.047269 919.36326 
L 180.592446 921.619674 
L 185.137623 920.722893 
L 189.6828 921.691993 
L 194.227977 920.968785 
L 198.773154 921.822171 
L 203.318331 922.429666 
L 207.863507 923.528944 
L 212.408684 919.826111 
L 216.953861 919.26201 
L 221.499038 921.243604 
L 226.044215 922.371812 
L 230.589392 921.315922 
L 235.134569 921.475031 
L 239.679746 921.286996 
L 244.224922 922.270559 
L 248.770099 922.429668 
L 253.315276 920.346825 
L 257.860453 921.070033 
L 262.40563 920.983247 
L 266.950807 921.619674 
L 271.495984 922.487524 
L 276.041161 921.923419 
L 280.586338 922.762343 
L 285.131514 921.171283 
L 289.676691 922.530916 
L 294.221868 922.039134 
L 298.767045 923.64466 
L 303.312222 922.559846 
L 307.857399 921.995741 
L 312.402576 922.776807 
L 316.947753 922.950375 
L 321.492929 923.311982 
L 326.038106 925.741963 
L 330.583283 925.857677 
L 335.12846 927.738022 
L 339.673637 924.165369 
L 344.218814 924.483582 
L 348.763991 925.13447 
L 353.309168 926.118032 
L 357.854344 926.884634 
L 362.399521 927.21731 
L 366.944698 925.727499 
L 371.489875 926.045711 
L 376.035052 926.465174 
L 380.580229 925.148932 
L 385.125406 924.541437 
L 389.670583 925.076612 
L 394.215759 925.727501 
L 398.760936 925.134469 
L 403.306113 925.496074 
L 407.85129 924.353403 
L 412.396467 925.394824 
L 416.941644 924.498043 
L 421.486821 926.204818 
L 426.031998 926.884635 
L 430.577174 926.551958 
L 435.122351 924.54144 
L 439.667528 926.392854 
L 444.212705 926.103568 
L 448.757882 925.076614 
L 453.303059 924.917504 
L 457.848236 926.031247 
L 462.393413 923.731444 
L 466.938589 925.423753 
L 471.483766 926.190353 
L 476.028943 926.884635 
L 480.57412 926.523032 
L 485.119297 926.797851 
L 489.664474 925.033221 
L 494.209651 926.262674 
L 498.754828 924.064119 
L 503.300005 923.109482 
L 507.845181 922.415202 
L 512.390358 923.03716 
L 516.935535 922.16931 
L 521.480712 922.791271 
L 526.025889 923.123946 
L 530.571066 922.92145 
L 535.116243 922.791271 
L 539.66142 921.793243 
L 544.206596 923.774834 
L 548.751773 923.93394 
L 553.29695 924.555903 
L 557.842127 924.72947 
L 562.387304 923.933941 
L 566.932481 923.716978 
L 571.477658 924.584829 
L 576.022835 923.369838 
L 580.568011 922.921449 
L 585.113188 924.469119 
L 589.658365 921.793243 
L 594.203542 922.357347 
L 598.748719 921.677531 
L 603.293896 922.024672 
L 607.839073 922.024669 
L 612.38425 922.964843 
L 616.929426 921.966812 
L 621.474603 922.921447 
L 626.01978 921.200212 
L 630.564957 922.111455 
L 635.110134 922.096991 
L 639.655311 922.906986 
L 644.200488 920.33236 
L 648.745665 920.621643 
L 653.290841 921.156819 
L 657.836018 921.041106 
L 662.381195 921.359318 
L 666.926372 920.390218 
L 671.471549 919.421117 
L 676.016726 921.243603 
" clip-path="url(#p287395b0b4)" style="fill: none; stroke: #9467bd; stroke-width: 1.5; stroke-linecap: square"/>
   </g>
   <g id="patch_9">
    <path d="M 108.096875 1000.13125 
L 108.096875 696.383438 
" style="fill: none; stroke: #000000; stroke-width: 0.8; stroke-linejoin: miter; stroke-linecap: square"/>
   </g>
   <g id="patch_10">
    <path d="M 703.060528 1000.13125 
L 703.060528 696.383438 
" style="fill: none; stroke: #000000; stroke-width: 0.8; stroke-linejoin: miter; stroke-linecap: square"/>
   </g>
   <g id="patch_11">
    <path d="M 108.096875 1000.13125 
L 703.060528 1000.13125 
" style="fill: none; stroke: #000000; stroke-width: 0.8; stroke-linejoin: miter; stroke-linecap: square"/>
   </g>
   <g id="patch_12">
    <path d="M 108.096875 696.383438 
L 703.060528 696.383438 
" style="fill: none; stroke: #000000; stroke-width: 0.8; stroke-linejoin: miter; stroke-linecap: square"/>
   </g>
   <g id="text_41">
    <!-- Test -->
    <g transform="translate(376.042764 690.144375)scale(0.3 -0.3)">
     <use xlink:href="#DejaVuSans-54"/>
     <use xlink:href="#DejaVuSans-65" x="44.083984"/>
     <use xlink:href="#DejaVuSans-73" x="105.607422"/>
     <use xlink:href="#DejaVuSans-74" x="157.707031"/>
    </g>
   </g>
   <g id="legend_2">
    <g id="patch_13">
     <path d="M 115.096875 777.774063 
L 177.685937 777.774063 
Q 179.685937 777.774063 179.685937 775.774063 
L 179.685937 703.383438 
Q 179.685937 701.383438 177.685937 701.383438 
L 115.096875 701.383438 
Q 113.096875 701.383438 113.096875 703.383438 
L 113.096875 775.774063 
Q 113.096875 777.774063 115.096875 777.774063 
z
" style="fill: #ffffff; opacity: 0.8; stroke: #cccccc; stroke-linejoin: miter"/>
    </g>
    <g id="line2d_76">
     <path d="M 117.096875 709.481875 
L 127.096875 709.481875 
L 137.096875 709.481875 
" style="fill: none; stroke: #1f77b4; stroke-width: 1.5; stroke-linecap: square"/>
    </g>
    <g id="text_42">
     <!-- task 0 -->
     <g transform="translate(145.096875 712.981875)scale(0.1 -0.1)">
      <use xlink:href="#DejaVuSans-74"/>
      <use xlink:href="#DejaVuSans-61" x="39.208984"/>
      <use xlink:href="#DejaVuSans-73" x="100.488281"/>
      <use xlink:href="#DejaVuSans-6b" x="152.587891"/>
      <use xlink:href="#DejaVuSans-20" x="210.498047"/>
      <use xlink:href="#DejaVuSans-30" x="242.285156"/>
     </g>
    </g>
    <g id="line2d_77">
     <path d="M 117.096875 724.16 
L 127.096875 724.16 
L 137.096875 724.16 
" style="fill: none; stroke: #ff7f0e; stroke-width: 1.5; stroke-linecap: square"/>
    </g>
    <g id="text_43">
     <!-- task 1 -->
     <g transform="translate(145.096875 727.66)scale(0.1 -0.1)">
      <use xlink:href="#DejaVuSans-74"/>
      <use xlink:href="#DejaVuSans-61" x="39.208984"/>
      <use xlink:href="#DejaVuSans-73" x="100.488281"/>
      <use xlink:href="#DejaVuSans-6b" x="152.587891"/>
      <use xlink:href="#DejaVuSans-20" x="210.498047"/>
      <use xlink:href="#DejaVuSans-31" x="242.285156"/>
     </g>
    </g>
    <g id="line2d_78">
     <path d="M 117.096875 738.838125 
L 127.096875 738.838125 
L 137.096875 738.838125 
" style="fill: none; stroke: #2ca02c; stroke-width: 1.5; stroke-linecap: square"/>
    </g>
    <g id="text_44">
     <!-- task 2 -->
     <g transform="translate(145.096875 742.338125)scale(0.1 -0.1)">
      <use xlink:href="#DejaVuSans-74"/>
      <use xlink:href="#DejaVuSans-61" x="39.208984"/>
      <use xlink:href="#DejaVuSans-73" x="100.488281"/>
      <use xlink:href="#DejaVuSans-6b" x="152.587891"/>
      <use xlink:href="#DejaVuSans-20" x="210.498047"/>
      <use xlink:href="#DejaVuSans-32" x="242.285156"/>
     </g>
    </g>
    <g id="line2d_79">
     <path d="M 117.096875 753.51625 
L 127.096875 753.51625 
L 137.096875 753.51625 
" style="fill: none; stroke: #d62728; stroke-width: 1.5; stroke-linecap: square"/>
    </g>
    <g id="text_45">
     <!-- task 3 -->
     <g transform="translate(145.096875 757.01625)scale(0.1 -0.1)">
      <use xlink:href="#DejaVuSans-74"/>
      <use xlink:href="#DejaVuSans-61" x="39.208984"/>
      <use xlink:href="#DejaVuSans-73" x="100.488281"/>
      <use xlink:href="#DejaVuSans-6b" x="152.587891"/>
      <use xlink:href="#DejaVuSans-20" x="210.498047"/>
      <use xlink:href="#DejaVuSans-33" x="242.285156"/>
     </g>
    </g>
    <g id="line2d_80">
     <path d="M 117.096875 768.194375 
L 127.096875 768.194375 
L 137.096875 768.194375 
" style="fill: none; stroke: #9467bd; stroke-width: 1.5; stroke-linecap: square"/>
    </g>
    <g id="text_46">
     <!-- task 4 -->
     <g transform="translate(145.096875 771.694375)scale(0.1 -0.1)">
      <use xlink:href="#DejaVuSans-74"/>
      <use xlink:href="#DejaVuSans-61" x="39.208984"/>
      <use xlink:href="#DejaVuSans-73" x="100.488281"/>
      <use xlink:href="#DejaVuSans-6b" x="152.587891"/>
      <use xlink:href="#DejaVuSans-20" x="210.498047"/>
      <use xlink:href="#DejaVuSans-34" x="242.285156"/>
     </g>
    </g>
   </g>
  </g>
  <g id="text_47">
   <!-- architecture: ResNet18 -->
   <g transform="translate(187.223438 22.795312)scale(0.3 -0.3)">
    <defs>
     <path id="DejaVuSans-68" d="M 3513 2113 
L 3513 0 
L 2938 0 
L 2938 2094 
Q 2938 2591 2744 2837 
Q 2550 3084 2163 3084 
Q 1697 3084 1428 2787 
Q 1159 2491 1159 1978 
L 1159 0 
L 581 0 
L 581 4863 
L 1159 4863 
L 1159 2956 
Q 1366 3272 1645 3428 
Q 1925 3584 2291 3584 
Q 2894 3584 3203 3211 
Q 3513 2838 3513 2113 
z
" transform="scale(0.015625)"/>
     <path id="DejaVuSans-3a" d="M 750 794 
L 1409 794 
L 1409 0 
L 750 0 
L 750 794 
z
M 750 3309 
L 1409 3309 
L 1409 2516 
L 750 2516 
L 750 3309 
z
" transform="scale(0.015625)"/>
     <path id="DejaVuSans-52" d="M 2841 2188 
Q 3044 2119 3236 1894 
Q 3428 1669 3622 1275 
L 4263 0 
L 3584 0 
L 2988 1197 
Q 2756 1666 2539 1819 
Q 2322 1972 1947 1972 
L 1259 1972 
L 1259 0 
L 628 0 
L 628 4666 
L 2053 4666 
Q 2853 4666 3247 4331 
Q 3641 3997 3641 3322 
Q 3641 2881 3436 2590 
Q 3231 2300 2841 2188 
z
M 1259 4147 
L 1259 2491 
L 2053 2491 
Q 2509 2491 2742 2702 
Q 2975 2913 2975 3322 
Q 2975 3731 2742 3939 
Q 2509 4147 2053 4147 
L 1259 4147 
z
" transform="scale(0.015625)"/>
     <path id="DejaVuSans-4e" d="M 628 4666 
L 1478 4666 
L 3547 763 
L 3547 4666 
L 4159 4666 
L 4159 0 
L 3309 0 
L 1241 3903 
L 1241 0 
L 628 0 
L 628 4666 
z
" transform="scale(0.015625)"/>
    </defs>
    <use xlink:href="#DejaVuSans-61"/>
    <use xlink:href="#DejaVuSans-72" x="61.279297"/>
    <use xlink:href="#DejaVuSans-63" x="100.142578"/>
    <use xlink:href="#DejaVuSans-68" x="155.123047"/>
    <use xlink:href="#DejaVuSans-69" x="218.501953"/>
    <use xlink:href="#DejaVuSans-74" x="246.285156"/>
    <use xlink:href="#DejaVuSans-65" x="285.494141"/>
    <use xlink:href="#DejaVuSans-63" x="347.017578"/>
    <use xlink:href="#DejaVuSans-74" x="401.998047"/>
    <use xlink:href="#DejaVuSans-75" x="441.207031"/>
    <use xlink:href="#DejaVuSans-72" x="504.585938"/>
    <use xlink:href="#DejaVuSans-65" x="543.449219"/>
    <use xlink:href="#DejaVuSans-3a" x="604.972656"/>
    <use xlink:href="#DejaVuSans-20" x="638.664062"/>
    <use xlink:href="#DejaVuSans-52" x="670.451172"/>
    <use xlink:href="#DejaVuSans-65" x="735.433594"/>
    <use xlink:href="#DejaVuSans-73" x="796.957031"/>
    <use xlink:href="#DejaVuSans-4e" x="849.056641"/>
    <use xlink:href="#DejaVuSans-65" x="923.861328"/>
    <use xlink:href="#DejaVuSans-74" x="985.384766"/>
    <use xlink:href="#DejaVuSans-31" x="1024.59375"/>
    <use xlink:href="#DejaVuSans-38" x="1088.216797"/>
   </g>
   <!-- dataset: CIFAR10 -->
   <g transform="translate(231.539062 56.38875)scale(0.3 -0.3)">
    <defs>
     <path id="DejaVuSans-64" d="M 2906 2969 
L 2906 4863 
L 3481 4863 
L 3481 0 
L 2906 0 
L 2906 525 
Q 2725 213 2448 61 
Q 2172 -91 1784 -91 
Q 1150 -91 751 415 
Q 353 922 353 1747 
Q 353 2572 751 3078 
Q 1150 3584 1784 3584 
Q 2172 3584 2448 3432 
Q 2725 3281 2906 2969 
z
M 947 1747 
Q 947 1113 1208 752 
Q 1469 391 1925 391 
Q 2381 391 2643 752 
Q 2906 1113 2906 1747 
Q 2906 2381 2643 2742 
Q 2381 3103 1925 3103 
Q 1469 3103 1208 2742 
Q 947 2381 947 1747 
z
" transform="scale(0.015625)"/>
     <path id="DejaVuSans-43" d="M 4122 4306 
L 4122 3641 
Q 3803 3938 3442 4084 
Q 3081 4231 2675 4231 
Q 1875 4231 1450 3742 
Q 1025 3253 1025 2328 
Q 1025 1406 1450 917 
Q 1875 428 2675 428 
Q 3081 428 3442 575 
Q 3803 722 4122 1019 
L 4122 359 
Q 3791 134 3420 21 
Q 3050 -91 2638 -91 
Q 1578 -91 968 557 
Q 359 1206 359 2328 
Q 359 3453 968 4101 
Q 1578 4750 2638 4750 
Q 3056 4750 3426 4639 
Q 3797 4528 4122 4306 
z
" transform="scale(0.015625)"/>
     <path id="DejaVuSans-49" d="M 628 4666 
L 1259 4666 
L 1259 0 
L 628 0 
L 628 4666 
z
" transform="scale(0.015625)"/>
     <path id="DejaVuSans-46" d="M 628 4666 
L 3309 4666 
L 3309 4134 
L 1259 4134 
L 1259 2759 
L 3109 2759 
L 3109 2228 
L 1259 2228 
L 1259 0 
L 628 0 
L 628 4666 
z
" transform="scale(0.015625)"/>
     <path id="DejaVuSans-41" d="M 2188 4044 
L 1331 1722 
L 3047 1722 
L 2188 4044 
z
M 1831 4666 
L 2547 4666 
L 4325 0 
L 3669 0 
L 3244 1197 
L 1141 1197 
L 716 0 
L 50 0 
L 1831 4666 
z
" transform="scale(0.015625)"/>
    </defs>
    <use xlink:href="#DejaVuSans-64"/>
    <use xlink:href="#DejaVuSans-61" x="63.476562"/>
    <use xlink:href="#DejaVuSans-74" x="124.755859"/>
    <use xlink:href="#DejaVuSans-61" x="163.964844"/>
    <use xlink:href="#DejaVuSans-73" x="225.244141"/>
    <use xlink:href="#DejaVuSans-65" x="277.34375"/>
    <use xlink:href="#DejaVuSans-74" x="338.867188"/>
    <use xlink:href="#DejaVuSans-3a" x="378.076172"/>
    <use xlink:href="#DejaVuSans-20" x="411.767578"/>
    <use xlink:href="#DejaVuSans-43" x="443.554688"/>
    <use xlink:href="#DejaVuSans-49" x="513.378906"/>
    <use xlink:href="#DejaVuSans-46" x="542.871094"/>
    <use xlink:href="#DejaVuSans-41" x="591.265625"/>
    <use xlink:href="#DejaVuSans-52" x="659.673828"/>
    <use xlink:href="#DejaVuSans-31" x="729.15625"/>
    <use xlink:href="#DejaVuSans-30" x="792.779297"/>
   </g>
   <!-- rehearsal_dataset: stat-wmm -->
   <g transform="translate(139.973438 89.982188)scale(0.3 -0.3)">
    <defs>
     <path id="DejaVuSans-6c" d="M 603 4863 
L 1178 4863 
L 1178 0 
L 603 0 
L 603 4863 
z
" transform="scale(0.015625)"/>
     <path id="DejaVuSans-5f" d="M 3263 -1063 
L 3263 -1509 
L -63 -1509 
L -63 -1063 
L 3263 -1063 
z
" transform="scale(0.015625)"/>
     <path id="DejaVuSans-2d" d="M 313 2009 
L 1997 2009 
L 1997 1497 
L 313 1497 
L 313 2009 
z
" transform="scale(0.015625)"/>
     <path id="DejaVuSans-77" d="M 269 3500 
L 844 3500 
L 1563 769 
L 2278 3500 
L 2956 3500 
L 3675 769 
L 4391 3500 
L 4966 3500 
L 4050 0 
L 3372 0 
L 2619 2869 
L 1863 0 
L 1184 0 
L 269 3500 
z
" transform="scale(0.015625)"/>
     <path id="DejaVuSans-6d" d="M 3328 2828 
Q 3544 3216 3844 3400 
Q 4144 3584 4550 3584 
Q 5097 3584 5394 3201 
Q 5691 2819 5691 2113 
L 5691 0 
L 5113 0 
L 5113 2094 
Q 5113 2597 4934 2840 
Q 4756 3084 4391 3084 
Q 3944 3084 3684 2787 
Q 3425 2491 3425 1978 
L 3425 0 
L 2847 0 
L 2847 2094 
Q 2847 2600 2669 2842 
Q 2491 3084 2119 3084 
Q 1678 3084 1418 2786 
Q 1159 2488 1159 1978 
L 1159 0 
L 581 0 
L 581 3500 
L 1159 3500 
L 1159 2956 
Q 1356 3278 1631 3431 
Q 1906 3584 2284 3584 
Q 2666 3584 2933 3390 
Q 3200 3197 3328 2828 
z
" transform="scale(0.015625)"/>
    </defs>
    <use xlink:href="#DejaVuSans-72"/>
    <use xlink:href="#DejaVuSans-65" x="38.863281"/>
    <use xlink:href="#DejaVuSans-68" x="100.386719"/>
    <use xlink:href="#DejaVuSans-65" x="163.765625"/>
    <use xlink:href="#DejaVuSans-61" x="225.289062"/>
    <use xlink:href="#DejaVuSans-72" x="286.568359"/>
    <use xlink:href="#DejaVuSans-73" x="327.681641"/>
    <use xlink:href="#DejaVuSans-61" x="379.78125"/>
    <use xlink:href="#DejaVuSans-6c" x="441.060547"/>
    <use xlink:href="#DejaVuSans-5f" x="468.84375"/>
    <use xlink:href="#DejaVuSans-64" x="518.84375"/>
    <use xlink:href="#DejaVuSans-61" x="582.320312"/>
    <use xlink:href="#DejaVuSans-74" x="643.599609"/>
    <use xlink:href="#DejaVuSans-61" x="682.808594"/>
    <use xlink:href="#DejaVuSans-73" x="744.087891"/>
    <use xlink:href="#DejaVuSans-65" x="796.1875"/>
    <use xlink:href="#DejaVuSans-74" x="857.710938"/>
    <use xlink:href="#DejaVuSans-3a" x="896.919922"/>
    <use xlink:href="#DejaVuSans-20" x="930.611328"/>
    <use xlink:href="#DejaVuSans-73" x="962.398438"/>
    <use xlink:href="#DejaVuSans-74" x="1014.498047"/>
    <use xlink:href="#DejaVuSans-61" x="1053.707031"/>
    <use xlink:href="#DejaVuSans-74" x="1114.986328"/>
    <use xlink:href="#DejaVuSans-2d" x="1154.195312"/>
    <use xlink:href="#DejaVuSans-77" x="1190.279297"/>
    <use xlink:href="#DejaVuSans-6d" x="1272.066406"/>
    <use xlink:href="#DejaVuSans-6d" x="1369.478516"/>
   </g>
   <!-- batch_size_rehearsal: 256 -->
   <g transform="translate(164.789062 124.41)scale(0.3 -0.3)">
    <defs>
     <path id="DejaVuSans-62" d="M 3116 1747 
Q 3116 2381 2855 2742 
Q 2594 3103 2138 3103 
Q 1681 3103 1420 2742 
Q 1159 2381 1159 1747 
Q 1159 1113 1420 752 
Q 1681 391 2138 391 
Q 2594 391 2855 752 
Q 3116 1113 3116 1747 
z
M 1159 2969 
Q 1341 3281 1617 3432 
Q 1894 3584 2278 3584 
Q 2916 3584 3314 3078 
Q 3713 2572 3713 1747 
Q 3713 922 3314 415 
Q 2916 -91 2278 -91 
Q 1894 -91 1617 61 
Q 1341 213 1159 525 
L 1159 0 
L 581 0 
L 581 4863 
L 1159 4863 
L 1159 2969 
z
" transform="scale(0.015625)"/>
     <path id="DejaVuSans-7a" d="M 353 3500 
L 3084 3500 
L 3084 2975 
L 922 459 
L 3084 459 
L 3084 0 
L 275 0 
L 275 525 
L 2438 3041 
L 353 3041 
L 353 3500 
z
" transform="scale(0.015625)"/>
    </defs>
    <use xlink:href="#DejaVuSans-62"/>
    <use xlink:href="#DejaVuSans-61" x="63.476562"/>
    <use xlink:href="#DejaVuSans-74" x="124.755859"/>
    <use xlink:href="#DejaVuSans-63" x="163.964844"/>
    <use xlink:href="#DejaVuSans-68" x="218.945312"/>
    <use xlink:href="#DejaVuSans-5f" x="282.324219"/>
    <use xlink:href="#DejaVuSans-73" x="332.324219"/>
    <use xlink:href="#DejaVuSans-69" x="384.423828"/>
    <use xlink:href="#DejaVuSans-7a" x="412.207031"/>
    <use xlink:href="#DejaVuSans-65" x="464.697266"/>
    <use xlink:href="#DejaVuSans-5f" x="526.220703"/>
    <use xlink:href="#DejaVuSans-72" x="576.220703"/>
    <use xlink:href="#DejaVuSans-65" x="615.083984"/>
    <use xlink:href="#DejaVuSans-68" x="676.607422"/>
    <use xlink:href="#DejaVuSans-65" x="739.986328"/>
    <use xlink:href="#DejaVuSans-61" x="801.509766"/>
    <use xlink:href="#DejaVuSans-72" x="862.789062"/>
    <use xlink:href="#DejaVuSans-73" x="903.902344"/>
    <use xlink:href="#DejaVuSans-61" x="956.001953"/>
    <use xlink:href="#DejaVuSans-6c" x="1017.28125"/>
    <use xlink:href="#DejaVuSans-3a" x="1045.064453"/>
    <use xlink:href="#DejaVuSans-20" x="1078.755859"/>
    <use xlink:href="#DejaVuSans-32" x="1110.542969"/>
    <use xlink:href="#DejaVuSans-35" x="1174.166016"/>
    <use xlink:href="#DejaVuSans-36" x="1237.789062"/>
   </g>
   <!-- learning_rate: 0.003 -->
   <g transform="translate(208.073438 158.837813)scale(0.3 -0.3)">
    <defs>
     <path id="DejaVuSans-67" d="M 2906 1791 
Q 2906 2416 2648 2759 
Q 2391 3103 1925 3103 
Q 1463 3103 1205 2759 
Q 947 2416 947 1791 
Q 947 1169 1205 825 
Q 1463 481 1925 481 
Q 2391 481 2648 825 
Q 2906 1169 2906 1791 
z
M 3481 434 
Q 3481 -459 3084 -895 
Q 2688 -1331 1869 -1331 
Q 1566 -1331 1297 -1286 
Q 1028 -1241 775 -1147 
L 775 -588 
Q 1028 -725 1275 -790 
Q 1522 -856 1778 -856 
Q 2344 -856 2625 -561 
Q 2906 -266 2906 331 
L 2906 616 
Q 2728 306 2450 153 
Q 2172 0 1784 0 
Q 1141 0 747 490 
Q 353 981 353 1791 
Q 353 2603 747 3093 
Q 1141 3584 1784 3584 
Q 2172 3584 2450 3431 
Q 2728 3278 2906 2969 
L 2906 3500 
L 3481 3500 
L 3481 434 
z
" transform="scale(0.015625)"/>
     <path id="DejaVuSans-2e" d="M 684 794 
L 1344 794 
L 1344 0 
L 684 0 
L 684 794 
z
" transform="scale(0.015625)"/>
    </defs>
    <use xlink:href="#DejaVuSans-6c"/>
    <use xlink:href="#DejaVuSans-65" x="27.783203"/>
    <use xlink:href="#DejaVuSans-61" x="89.306641"/>
    <use xlink:href="#DejaVuSans-72" x="150.585938"/>
    <use xlink:href="#DejaVuSans-6e" x="189.949219"/>
    <use xlink:href="#DejaVuSans-69" x="253.328125"/>
    <use xlink:href="#DejaVuSans-6e" x="281.111328"/>
    <use xlink:href="#DejaVuSans-67" x="344.490234"/>
    <use xlink:href="#DejaVuSans-5f" x="407.966797"/>
    <use xlink:href="#DejaVuSans-72" x="457.966797"/>
    <use xlink:href="#DejaVuSans-61" x="499.080078"/>
    <use xlink:href="#DejaVuSans-74" x="560.359375"/>
    <use xlink:href="#DejaVuSans-65" x="599.568359"/>
    <use xlink:href="#DejaVuSans-3a" x="661.091797"/>
    <use xlink:href="#DejaVuSans-20" x="694.783203"/>
    <use xlink:href="#DejaVuSans-30" x="726.570312"/>
    <use xlink:href="#DejaVuSans-2e" x="790.193359"/>
    <use xlink:href="#DejaVuSans-30" x="821.980469"/>
    <use xlink:href="#DejaVuSans-30" x="885.603516"/>
    <use xlink:href="#DejaVuSans-33" x="949.226562"/>
   </g>
   <!-- epochs: 5 -->
   <g transform="translate(287.1375 193.265625)scale(0.3 -0.3)">
    <defs>
     <path id="DejaVuSans-6f" d="M 1959 3097 
Q 1497 3097 1228 2736 
Q 959 2375 959 1747 
Q 959 1119 1226 758 
Q 1494 397 1959 397 
Q 2419 397 2687 759 
Q 2956 1122 2956 1747 
Q 2956 2369 2687 2733 
Q 2419 3097 1959 3097 
z
M 1959 3584 
Q 2709 3584 3137 3096 
Q 3566 2609 3566 1747 
Q 3566 888 3137 398 
Q 2709 -91 1959 -91 
Q 1206 -91 779 398 
Q 353 888 353 1747 
Q 353 2609 779 3096 
Q 1206 3584 1959 3584 
z
" transform="scale(0.015625)"/>
    </defs>
    <use xlink:href="#DejaVuSans-65"/>
    <use xlink:href="#DejaVuSans-70" x="61.523438"/>
    <use xlink:href="#DejaVuSans-6f" x="125"/>
    <use xlink:href="#DejaVuSans-63" x="186.181641"/>
    <use xlink:href="#DejaVuSans-68" x="241.162109"/>
    <use xlink:href="#DejaVuSans-73" x="304.541016"/>
    <use xlink:href="#DejaVuSans-3a" x="356.640625"/>
    <use xlink:href="#DejaVuSans-20" x="390.332031"/>
    <use xlink:href="#DejaVuSans-35" x="422.119141"/>
   </g>
   <!-- runs: 15 -->
   <g transform="translate(298.099219 226.859063)scale(0.3 -0.3)">
    <use xlink:href="#DejaVuSans-72"/>
    <use xlink:href="#DejaVuSans-75" x="41.113281"/>
    <use xlink:href="#DejaVuSans-6e" x="104.492188"/>
    <use xlink:href="#DejaVuSans-73" x="167.871094"/>
    <use xlink:href="#DejaVuSans-3a" x="219.970703"/>
    <use xlink:href="#DejaVuSans-20" x="253.662109"/>
    <use xlink:href="#DejaVuSans-31" x="285.449219"/>
    <use xlink:href="#DejaVuSans-35" x="349.072266"/>
   </g>
  </g>
 </g>
 <defs>
  <clipPath id="p4c8b96d8a1">
   <rect x="108.096875" y="283.7325" width="594.963653" height="303.747812"/>
  </clipPath>
  <clipPath id="p287395b0b4">
   <rect x="108.096875" y="696.383438" width="594.963653" height="303.747812"/>
  </clipPath>
 </defs>
</svg>
