<?xml version="1.0" encoding="utf-8" standalone="no"?>
<!DOCTYPE svg PUBLIC "-//W3C//DTD SVG 1.1//EN"
  "http://www.w3.org/Graphics/SVG/1.1/DTD/svg11.dtd">
<svg xmlns:xlink="http://www.w3.org/1999/xlink" width="720pt" height="1080pt" viewBox="0 0 720 1080" xmlns="http://www.w3.org/2000/svg" version="1.1">
 <metadata>
  <rdf:RDF xmlns:dc="http://purl.org/dc/elements/1.1/" xmlns:cc="http://creativecommons.org/ns#" xmlns:rdf="http://www.w3.org/1999/02/22-rdf-syntax-ns#">
   <cc:Work>
    <dc:type rdf:resource="http://purl.org/dc/dcmitype/StillImage"/>
    <dc:date>2024-02-02T00:29:17.390121</dc:date>
    <dc:format>image/svg+xml</dc:format>
    <dc:creator>
     <cc:Agent>
      <dc:title>Matplotlib v3.5.1, https://matplotlib.org/</dc:title>
     </cc:Agent>
    </dc:creator>
   </cc:Work>
  </rdf:RDF>
 </metadata>
 <defs>
  <style type="text/css">*{stroke-linejoin: round; stroke-linecap: butt}</style>
 </defs>
 <g id="figure_1">
  <g id="patch_1">
   <path d="M 0 1080 
L 720 1080 
L 720 0 
L 0 0 
L 0 1080 
z
" style="fill: none"/>
  </g>
  <g id="axes_1">
   <g id="patch_2">
    <path d="M 108.096875 587.480313 
L 703.060528 587.480313 
L 703.060528 283.7325 
L 108.096875 283.7325 
z
" style="fill: #ffffff"/>
   </g>
   <g id="matplotlib.axis_1">
    <g id="xtick_1">
     <g id="line2d_1">
      <path d="M 135.140677 587.480313 
L 135.140677 283.7325 
" clip-path="url(#pec9790b6fd)" style="fill: none; stroke: #b0b0b0; stroke-width: 0.8; stroke-linecap: square"/>
     </g>
     <g id="line2d_2">
      <defs>
       <path id="m86b85ce103" d="M 0 0 
L 0 3.5 
" style="stroke: #000000; stroke-width: 0.8"/>
      </defs>
      <g>
       <use xlink:href="#m86b85ce103" x="135.140677" y="587.480313" style="stroke: #000000; stroke-width: 0.8"/>
      </g>
     </g>
     <g id="text_1">
      <!-- 0 -->
      <g transform="translate(125.596927 617.275625)scale(0.3 -0.3)">
       <defs>
        <path id="DejaVuSans-30" d="M 2034 4250 
Q 1547 4250 1301 3770 
Q 1056 3291 1056 2328 
Q 1056 1369 1301 889 
Q 1547 409 2034 409 
Q 2525 409 2770 889 
Q 3016 1369 3016 2328 
Q 3016 3291 2770 3770 
Q 2525 4250 2034 4250 
z
M 2034 4750 
Q 2819 4750 3233 4129 
Q 3647 3509 3647 2328 
Q 3647 1150 3233 529 
Q 2819 -91 2034 -91 
Q 1250 -91 836 529 
Q 422 1150 422 2328 
Q 422 3509 836 4129 
Q 1250 4750 2034 4750 
z
" transform="scale(0.015625)"/>
       </defs>
       <use xlink:href="#DejaVuSans-30"/>
      </g>
     </g>
    </g>
    <g id="xtick_2">
     <g id="line2d_3">
      <path d="M 226.044215 587.480313 
L 226.044215 283.7325 
" clip-path="url(#pec9790b6fd)" style="fill: none; stroke: #b0b0b0; stroke-width: 0.8; stroke-linecap: square"/>
     </g>
     <g id="line2d_4">
      <g>
       <use xlink:href="#m86b85ce103" x="226.044215" y="587.480313" style="stroke: #000000; stroke-width: 0.8"/>
      </g>
     </g>
     <g id="text_2">
      <!-- 20 -->
      <g transform="translate(206.956715 617.275625)scale(0.3 -0.3)">
       <defs>
        <path id="DejaVuSans-32" d="M 1228 531 
L 3431 531 
L 3431 0 
L 469 0 
L 469 531 
Q 828 903 1448 1529 
Q 2069 2156 2228 2338 
Q 2531 2678 2651 2914 
Q 2772 3150 2772 3378 
Q 2772 3750 2511 3984 
Q 2250 4219 1831 4219 
Q 1534 4219 1204 4116 
Q 875 4013 500 3803 
L 500 4441 
Q 881 4594 1212 4672 
Q 1544 4750 1819 4750 
Q 2544 4750 2975 4387 
Q 3406 4025 3406 3419 
Q 3406 3131 3298 2873 
Q 3191 2616 2906 2266 
Q 2828 2175 2409 1742 
Q 1991 1309 1228 531 
z
" transform="scale(0.015625)"/>
       </defs>
       <use xlink:href="#DejaVuSans-32"/>
       <use xlink:href="#DejaVuSans-30" x="63.623047"/>
      </g>
     </g>
    </g>
    <g id="xtick_3">
     <g id="line2d_5">
      <path d="M 316.947753 587.480313 
L 316.947753 283.7325 
" clip-path="url(#pec9790b6fd)" style="fill: none; stroke: #b0b0b0; stroke-width: 0.8; stroke-linecap: square"/>
     </g>
     <g id="line2d_6">
      <g>
       <use xlink:href="#m86b85ce103" x="316.947753" y="587.480313" style="stroke: #000000; stroke-width: 0.8"/>
      </g>
     </g>
     <g id="text_3">
      <!-- 40 -->
      <g transform="translate(297.860253 617.275625)scale(0.3 -0.3)">
       <defs>
        <path id="DejaVuSans-34" d="M 2419 4116 
L 825 1625 
L 2419 1625 
L 2419 4116 
z
M 2253 4666 
L 3047 4666 
L 3047 1625 
L 3713 1625 
L 3713 1100 
L 3047 1100 
L 3047 0 
L 2419 0 
L 2419 1100 
L 313 1100 
L 313 1709 
L 2253 4666 
z
" transform="scale(0.015625)"/>
       </defs>
       <use xlink:href="#DejaVuSans-34"/>
       <use xlink:href="#DejaVuSans-30" x="63.623047"/>
      </g>
     </g>
    </g>
    <g id="xtick_4">
     <g id="line2d_7">
      <path d="M 407.85129 587.480313 
L 407.85129 283.7325 
" clip-path="url(#pec9790b6fd)" style="fill: none; stroke: #b0b0b0; stroke-width: 0.8; stroke-linecap: square"/>
     </g>
     <g id="line2d_8">
      <g>
       <use xlink:href="#m86b85ce103" x="407.85129" y="587.480313" style="stroke: #000000; stroke-width: 0.8"/>
      </g>
     </g>
     <g id="text_4">
      <!-- 60 -->
      <g transform="translate(388.76379 617.275625)scale(0.3 -0.3)">
       <defs>
        <path id="DejaVuSans-36" d="M 2113 2584 
Q 1688 2584 1439 2293 
Q 1191 2003 1191 1497 
Q 1191 994 1439 701 
Q 1688 409 2113 409 
Q 2538 409 2786 701 
Q 3034 994 3034 1497 
Q 3034 2003 2786 2293 
Q 2538 2584 2113 2584 
z
M 3366 4563 
L 3366 3988 
Q 3128 4100 2886 4159 
Q 2644 4219 2406 4219 
Q 1781 4219 1451 3797 
Q 1122 3375 1075 2522 
Q 1259 2794 1537 2939 
Q 1816 3084 2150 3084 
Q 2853 3084 3261 2657 
Q 3669 2231 3669 1497 
Q 3669 778 3244 343 
Q 2819 -91 2113 -91 
Q 1303 -91 875 529 
Q 447 1150 447 2328 
Q 447 3434 972 4092 
Q 1497 4750 2381 4750 
Q 2619 4750 2861 4703 
Q 3103 4656 3366 4563 
z
" transform="scale(0.015625)"/>
       </defs>
       <use xlink:href="#DejaVuSans-36"/>
       <use xlink:href="#DejaVuSans-30" x="63.623047"/>
      </g>
     </g>
    </g>
    <g id="xtick_5">
     <g id="line2d_9">
      <path d="M 498.754828 587.480313 
L 498.754828 283.7325 
" clip-path="url(#pec9790b6fd)" style="fill: none; stroke: #b0b0b0; stroke-width: 0.8; stroke-linecap: square"/>
     </g>
     <g id="line2d_10">
      <g>
       <use xlink:href="#m86b85ce103" x="498.754828" y="587.480313" style="stroke: #000000; stroke-width: 0.8"/>
      </g>
     </g>
     <g id="text_5">
      <!-- 80 -->
      <g transform="translate(479.667328 617.275625)scale(0.3 -0.3)">
       <defs>
        <path id="DejaVuSans-38" d="M 2034 2216 
Q 1584 2216 1326 1975 
Q 1069 1734 1069 1313 
Q 1069 891 1326 650 
Q 1584 409 2034 409 
Q 2484 409 2743 651 
Q 3003 894 3003 1313 
Q 3003 1734 2745 1975 
Q 2488 2216 2034 2216 
z
M 1403 2484 
Q 997 2584 770 2862 
Q 544 3141 544 3541 
Q 544 4100 942 4425 
Q 1341 4750 2034 4750 
Q 2731 4750 3128 4425 
Q 3525 4100 3525 3541 
Q 3525 3141 3298 2862 
Q 3072 2584 2669 2484 
Q 3125 2378 3379 2068 
Q 3634 1759 3634 1313 
Q 3634 634 3220 271 
Q 2806 -91 2034 -91 
Q 1263 -91 848 271 
Q 434 634 434 1313 
Q 434 1759 690 2068 
Q 947 2378 1403 2484 
z
M 1172 3481 
Q 1172 3119 1398 2916 
Q 1625 2713 2034 2713 
Q 2441 2713 2670 2916 
Q 2900 3119 2900 3481 
Q 2900 3844 2670 4047 
Q 2441 4250 2034 4250 
Q 1625 4250 1398 4047 
Q 1172 3844 1172 3481 
z
" transform="scale(0.015625)"/>
       </defs>
       <use xlink:href="#DejaVuSans-38"/>
       <use xlink:href="#DejaVuSans-30" x="63.623047"/>
      </g>
     </g>
    </g>
    <g id="xtick_6">
     <g id="line2d_11">
      <path d="M 589.658365 587.480313 
L 589.658365 283.7325 
" clip-path="url(#pec9790b6fd)" style="fill: none; stroke: #b0b0b0; stroke-width: 0.8; stroke-linecap: square"/>
     </g>
     <g id="line2d_12">
      <g>
       <use xlink:href="#m86b85ce103" x="589.658365" y="587.480313" style="stroke: #000000; stroke-width: 0.8"/>
      </g>
     </g>
     <g id="text_6">
      <!-- 100 -->
      <g transform="translate(561.027115 617.275625)scale(0.3 -0.3)">
       <defs>
        <path id="DejaVuSans-31" d="M 794 531 
L 1825 531 
L 1825 4091 
L 703 3866 
L 703 4441 
L 1819 4666 
L 2450 4666 
L 2450 531 
L 3481 531 
L 3481 0 
L 794 0 
L 794 531 
z
" transform="scale(0.015625)"/>
       </defs>
       <use xlink:href="#DejaVuSans-31"/>
       <use xlink:href="#DejaVuSans-30" x="63.623047"/>
       <use xlink:href="#DejaVuSans-30" x="127.246094"/>
      </g>
     </g>
    </g>
    <g id="xtick_7">
     <g id="line2d_13">
      <path d="M 680.561903 587.480313 
L 680.561903 283.7325 
" clip-path="url(#pec9790b6fd)" style="fill: none; stroke: #b0b0b0; stroke-width: 0.8; stroke-linecap: square"/>
     </g>
     <g id="line2d_14">
      <g>
       <use xlink:href="#m86b85ce103" x="680.561903" y="587.480313" style="stroke: #000000; stroke-width: 0.8"/>
      </g>
     </g>
     <g id="text_7">
      <!-- 120 -->
      <g transform="translate(651.930653 617.275625)scale(0.3 -0.3)">
       <use xlink:href="#DejaVuSans-31"/>
       <use xlink:href="#DejaVuSans-32" x="63.623047"/>
       <use xlink:href="#DejaVuSans-30" x="127.246094"/>
      </g>
     </g>
    </g>
    <g id="text_8">
     <!-- step -->
     <g transform="translate(373.131827 650.31)scale(0.3 -0.3)">
      <defs>
       <path id="DejaVuSans-73" d="M 2834 3397 
L 2834 2853 
Q 2591 2978 2328 3040 
Q 2066 3103 1784 3103 
Q 1356 3103 1142 2972 
Q 928 2841 928 2578 
Q 928 2378 1081 2264 
Q 1234 2150 1697 2047 
L 1894 2003 
Q 2506 1872 2764 1633 
Q 3022 1394 3022 966 
Q 3022 478 2636 193 
Q 2250 -91 1575 -91 
Q 1294 -91 989 -36 
Q 684 19 347 128 
L 347 722 
Q 666 556 975 473 
Q 1284 391 1588 391 
Q 1994 391 2212 530 
Q 2431 669 2431 922 
Q 2431 1156 2273 1281 
Q 2116 1406 1581 1522 
L 1381 1569 
Q 847 1681 609 1914 
Q 372 2147 372 2553 
Q 372 3047 722 3315 
Q 1072 3584 1716 3584 
Q 2034 3584 2315 3537 
Q 2597 3491 2834 3397 
z
" transform="scale(0.015625)"/>
       <path id="DejaVuSans-74" d="M 1172 4494 
L 1172 3500 
L 2356 3500 
L 2356 3053 
L 1172 3053 
L 1172 1153 
Q 1172 725 1289 603 
Q 1406 481 1766 481 
L 2356 481 
L 2356 0 
L 1766 0 
Q 1100 0 847 248 
Q 594 497 594 1153 
L 594 3053 
L 172 3053 
L 172 3500 
L 594 3500 
L 594 4494 
L 1172 4494 
z
" transform="scale(0.015625)"/>
       <path id="DejaVuSans-65" d="M 3597 1894 
L 3597 1613 
L 953 1613 
Q 991 1019 1311 708 
Q 1631 397 2203 397 
Q 2534 397 2845 478 
Q 3156 559 3463 722 
L 3463 178 
Q 3153 47 2828 -22 
Q 2503 -91 2169 -91 
Q 1331 -91 842 396 
Q 353 884 353 1716 
Q 353 2575 817 3079 
Q 1281 3584 2069 3584 
Q 2775 3584 3186 3129 
Q 3597 2675 3597 1894 
z
M 3022 2063 
Q 3016 2534 2758 2815 
Q 2500 3097 2075 3097 
Q 1594 3097 1305 2825 
Q 1016 2553 972 2059 
L 3022 2063 
z
" transform="scale(0.015625)"/>
       <path id="DejaVuSans-70" d="M 1159 525 
L 1159 -1331 
L 581 -1331 
L 581 3500 
L 1159 3500 
L 1159 2969 
Q 1341 3281 1617 3432 
Q 1894 3584 2278 3584 
Q 2916 3584 3314 3078 
Q 3713 2572 3713 1747 
Q 3713 922 3314 415 
Q 2916 -91 2278 -91 
Q 1894 -91 1617 61 
Q 1341 213 1159 525 
z
M 3116 1747 
Q 3116 2381 2855 2742 
Q 2594 3103 2138 3103 
Q 1681 3103 1420 2742 
Q 1159 2381 1159 1747 
Q 1159 1113 1420 752 
Q 1681 391 2138 391 
Q 2594 391 2855 752 
Q 3116 1113 3116 1747 
z
" transform="scale(0.015625)"/>
      </defs>
      <use xlink:href="#DejaVuSans-73"/>
      <use xlink:href="#DejaVuSans-74" x="52.099609"/>
      <use xlink:href="#DejaVuSans-65" x="91.308594"/>
      <use xlink:href="#DejaVuSans-70" x="152.832031"/>
     </g>
    </g>
   </g>
   <g id="matplotlib.axis_2">
    <g id="ytick_1">
     <g id="line2d_15">
      <path d="M 108.096875 587.480313 
L 703.060528 587.480313 
" clip-path="url(#pec9790b6fd)" style="fill: none; stroke: #b0b0b0; stroke-width: 0.8; stroke-linecap: square"/>
     </g>
     <g id="line2d_16">
      <defs>
       <path id="mf0ffed282d" d="M 0 0 
L -3.5 0 
" style="stroke: #000000; stroke-width: 0.8"/>
      </defs>
      <g>
       <use xlink:href="#mf0ffed282d" x="108.096875" y="587.480313" style="stroke: #000000; stroke-width: 0.8"/>
      </g>
     </g>
     <g id="text_9">
      <!-- 30 -->
      <g transform="translate(62.921875 598.877969)scale(0.3 -0.3)">
       <defs>
        <path id="DejaVuSans-33" d="M 2597 2516 
Q 3050 2419 3304 2112 
Q 3559 1806 3559 1356 
Q 3559 666 3084 287 
Q 2609 -91 1734 -91 
Q 1441 -91 1130 -33 
Q 819 25 488 141 
L 488 750 
Q 750 597 1062 519 
Q 1375 441 1716 441 
Q 2309 441 2620 675 
Q 2931 909 2931 1356 
Q 2931 1769 2642 2001 
Q 2353 2234 1838 2234 
L 1294 2234 
L 1294 2753 
L 1863 2753 
Q 2328 2753 2575 2939 
Q 2822 3125 2822 3475 
Q 2822 3834 2567 4026 
Q 2313 4219 1838 4219 
Q 1578 4219 1281 4162 
Q 984 4106 628 3988 
L 628 4550 
Q 988 4650 1302 4700 
Q 1616 4750 1894 4750 
Q 2613 4750 3031 4423 
Q 3450 4097 3450 3541 
Q 3450 3153 3228 2886 
Q 3006 2619 2597 2516 
z
" transform="scale(0.015625)"/>
       </defs>
       <use xlink:href="#DejaVuSans-33"/>
       <use xlink:href="#DejaVuSans-30" x="63.623047"/>
      </g>
     </g>
    </g>
    <g id="ytick_2">
     <g id="line2d_17">
      <path d="M 108.096875 544.087768 
L 703.060528 544.087768 
" clip-path="url(#pec9790b6fd)" style="fill: none; stroke: #b0b0b0; stroke-width: 0.8; stroke-linecap: square"/>
     </g>
     <g id="line2d_18">
      <g>
       <use xlink:href="#mf0ffed282d" x="108.096875" y="544.087768" style="stroke: #000000; stroke-width: 0.8"/>
      </g>
     </g>
     <g id="text_10">
      <!-- 40 -->
      <g transform="translate(62.921875 555.485424)scale(0.3 -0.3)">
       <use xlink:href="#DejaVuSans-34"/>
       <use xlink:href="#DejaVuSans-30" x="63.623047"/>
      </g>
     </g>
    </g>
    <g id="ytick_3">
     <g id="line2d_19">
      <path d="M 108.096875 500.695223 
L 703.060528 500.695223 
" clip-path="url(#pec9790b6fd)" style="fill: none; stroke: #b0b0b0; stroke-width: 0.8; stroke-linecap: square"/>
     </g>
     <g id="line2d_20">
      <g>
       <use xlink:href="#mf0ffed282d" x="108.096875" y="500.695223" style="stroke: #000000; stroke-width: 0.8"/>
      </g>
     </g>
     <g id="text_11">
      <!-- 50 -->
      <g transform="translate(62.921875 512.092879)scale(0.3 -0.3)">
       <defs>
        <path id="DejaVuSans-35" d="M 691 4666 
L 3169 4666 
L 3169 4134 
L 1269 4134 
L 1269 2991 
Q 1406 3038 1543 3061 
Q 1681 3084 1819 3084 
Q 2600 3084 3056 2656 
Q 3513 2228 3513 1497 
Q 3513 744 3044 326 
Q 2575 -91 1722 -91 
Q 1428 -91 1123 -41 
Q 819 9 494 109 
L 494 744 
Q 775 591 1075 516 
Q 1375 441 1709 441 
Q 2250 441 2565 725 
Q 2881 1009 2881 1497 
Q 2881 1984 2565 2268 
Q 2250 2553 1709 2553 
Q 1456 2553 1204 2497 
Q 953 2441 691 2322 
L 691 4666 
z
" transform="scale(0.015625)"/>
       </defs>
       <use xlink:href="#DejaVuSans-35"/>
       <use xlink:href="#DejaVuSans-30" x="63.623047"/>
      </g>
     </g>
    </g>
    <g id="ytick_4">
     <g id="line2d_21">
      <path d="M 108.096875 457.302679 
L 703.060528 457.302679 
" clip-path="url(#pec9790b6fd)" style="fill: none; stroke: #b0b0b0; stroke-width: 0.8; stroke-linecap: square"/>
     </g>
     <g id="line2d_22">
      <g>
       <use xlink:href="#mf0ffed282d" x="108.096875" y="457.302679" style="stroke: #000000; stroke-width: 0.8"/>
      </g>
     </g>
     <g id="text_12">
      <!-- 60 -->
      <g transform="translate(62.921875 468.700335)scale(0.3 -0.3)">
       <use xlink:href="#DejaVuSans-36"/>
       <use xlink:href="#DejaVuSans-30" x="63.623047"/>
      </g>
     </g>
    </g>
    <g id="ytick_5">
     <g id="line2d_23">
      <path d="M 108.096875 413.910134 
L 703.060528 413.910134 
" clip-path="url(#pec9790b6fd)" style="fill: none; stroke: #b0b0b0; stroke-width: 0.8; stroke-linecap: square"/>
     </g>
     <g id="line2d_24">
      <g>
       <use xlink:href="#mf0ffed282d" x="108.096875" y="413.910134" style="stroke: #000000; stroke-width: 0.8"/>
      </g>
     </g>
     <g id="text_13">
      <!-- 70 -->
      <g transform="translate(62.921875 425.30779)scale(0.3 -0.3)">
       <defs>
        <path id="DejaVuSans-37" d="M 525 4666 
L 3525 4666 
L 3525 4397 
L 1831 0 
L 1172 0 
L 2766 4134 
L 525 4134 
L 525 4666 
z
" transform="scale(0.015625)"/>
       </defs>
       <use xlink:href="#DejaVuSans-37"/>
       <use xlink:href="#DejaVuSans-30" x="63.623047"/>
      </g>
     </g>
    </g>
    <g id="ytick_6">
     <g id="line2d_25">
      <path d="M 108.096875 370.517589 
L 703.060528 370.517589 
" clip-path="url(#pec9790b6fd)" style="fill: none; stroke: #b0b0b0; stroke-width: 0.8; stroke-linecap: square"/>
     </g>
     <g id="line2d_26">
      <g>
       <use xlink:href="#mf0ffed282d" x="108.096875" y="370.517589" style="stroke: #000000; stroke-width: 0.8"/>
      </g>
     </g>
     <g id="text_14">
      <!-- 80 -->
      <g transform="translate(62.921875 381.915246)scale(0.3 -0.3)">
       <use xlink:href="#DejaVuSans-38"/>
       <use xlink:href="#DejaVuSans-30" x="63.623047"/>
      </g>
     </g>
    </g>
    <g id="ytick_7">
     <g id="line2d_27">
      <path d="M 108.096875 327.125045 
L 703.060528 327.125045 
" clip-path="url(#pec9790b6fd)" style="fill: none; stroke: #b0b0b0; stroke-width: 0.8; stroke-linecap: square"/>
     </g>
     <g id="line2d_28">
      <g>
       <use xlink:href="#mf0ffed282d" x="108.096875" y="327.125045" style="stroke: #000000; stroke-width: 0.8"/>
      </g>
     </g>
     <g id="text_15">
      <!-- 90 -->
      <g transform="translate(62.921875 338.522701)scale(0.3 -0.3)">
       <defs>
        <path id="DejaVuSans-39" d="M 703 97 
L 703 672 
Q 941 559 1184 500 
Q 1428 441 1663 441 
Q 2288 441 2617 861 
Q 2947 1281 2994 2138 
Q 2813 1869 2534 1725 
Q 2256 1581 1919 1581 
Q 1219 1581 811 2004 
Q 403 2428 403 3163 
Q 403 3881 828 4315 
Q 1253 4750 1959 4750 
Q 2769 4750 3195 4129 
Q 3622 3509 3622 2328 
Q 3622 1225 3098 567 
Q 2575 -91 1691 -91 
Q 1453 -91 1209 -44 
Q 966 3 703 97 
z
M 1959 2075 
Q 2384 2075 2632 2365 
Q 2881 2656 2881 3163 
Q 2881 3666 2632 3958 
Q 2384 4250 1959 4250 
Q 1534 4250 1286 3958 
Q 1038 3666 1038 3163 
Q 1038 2656 1286 2365 
Q 1534 2075 1959 2075 
z
" transform="scale(0.015625)"/>
       </defs>
       <use xlink:href="#DejaVuSans-39"/>
       <use xlink:href="#DejaVuSans-30" x="63.623047"/>
      </g>
     </g>
    </g>
    <g id="ytick_8">
     <g id="line2d_29">
      <path d="M 108.096875 283.7325 
L 703.060528 283.7325 
" clip-path="url(#pec9790b6fd)" style="fill: none; stroke: #b0b0b0; stroke-width: 0.8; stroke-linecap: square"/>
     </g>
     <g id="line2d_30">
      <g>
       <use xlink:href="#mf0ffed282d" x="108.096875" y="283.7325" style="stroke: #000000; stroke-width: 0.8"/>
      </g>
     </g>
     <g id="text_16">
      <!-- 100 -->
      <g transform="translate(43.834375 295.130156)scale(0.3 -0.3)">
       <use xlink:href="#DejaVuSans-31"/>
       <use xlink:href="#DejaVuSans-30" x="63.623047"/>
       <use xlink:href="#DejaVuSans-30" x="127.246094"/>
      </g>
     </g>
    </g>
    <g id="text_17">
     <!-- accuracy [%] -->
     <g transform="translate(33.595312 534.00875)rotate(-90)scale(0.3 -0.3)">
      <defs>
       <path id="DejaVuSans-61" d="M 2194 1759 
Q 1497 1759 1228 1600 
Q 959 1441 959 1056 
Q 959 750 1161 570 
Q 1363 391 1709 391 
Q 2188 391 2477 730 
Q 2766 1069 2766 1631 
L 2766 1759 
L 2194 1759 
z
M 3341 1997 
L 3341 0 
L 2766 0 
L 2766 531 
Q 2569 213 2275 61 
Q 1981 -91 1556 -91 
Q 1019 -91 701 211 
Q 384 513 384 1019 
Q 384 1609 779 1909 
Q 1175 2209 1959 2209 
L 2766 2209 
L 2766 2266 
Q 2766 2663 2505 2880 
Q 2244 3097 1772 3097 
Q 1472 3097 1187 3025 
Q 903 2953 641 2809 
L 641 3341 
Q 956 3463 1253 3523 
Q 1550 3584 1831 3584 
Q 2591 3584 2966 3190 
Q 3341 2797 3341 1997 
z
" transform="scale(0.015625)"/>
       <path id="DejaVuSans-63" d="M 3122 3366 
L 3122 2828 
Q 2878 2963 2633 3030 
Q 2388 3097 2138 3097 
Q 1578 3097 1268 2742 
Q 959 2388 959 1747 
Q 959 1106 1268 751 
Q 1578 397 2138 397 
Q 2388 397 2633 464 
Q 2878 531 3122 666 
L 3122 134 
Q 2881 22 2623 -34 
Q 2366 -91 2075 -91 
Q 1284 -91 818 406 
Q 353 903 353 1747 
Q 353 2603 823 3093 
Q 1294 3584 2113 3584 
Q 2378 3584 2631 3529 
Q 2884 3475 3122 3366 
z
" transform="scale(0.015625)"/>
       <path id="DejaVuSans-75" d="M 544 1381 
L 544 3500 
L 1119 3500 
L 1119 1403 
Q 1119 906 1312 657 
Q 1506 409 1894 409 
Q 2359 409 2629 706 
Q 2900 1003 2900 1516 
L 2900 3500 
L 3475 3500 
L 3475 0 
L 2900 0 
L 2900 538 
Q 2691 219 2414 64 
Q 2138 -91 1772 -91 
Q 1169 -91 856 284 
Q 544 659 544 1381 
z
M 1991 3584 
L 1991 3584 
z
" transform="scale(0.015625)"/>
       <path id="DejaVuSans-72" d="M 2631 2963 
Q 2534 3019 2420 3045 
Q 2306 3072 2169 3072 
Q 1681 3072 1420 2755 
Q 1159 2438 1159 1844 
L 1159 0 
L 581 0 
L 581 3500 
L 1159 3500 
L 1159 2956 
Q 1341 3275 1631 3429 
Q 1922 3584 2338 3584 
Q 2397 3584 2469 3576 
Q 2541 3569 2628 3553 
L 2631 2963 
z
" transform="scale(0.015625)"/>
       <path id="DejaVuSans-79" d="M 2059 -325 
Q 1816 -950 1584 -1140 
Q 1353 -1331 966 -1331 
L 506 -1331 
L 506 -850 
L 844 -850 
Q 1081 -850 1212 -737 
Q 1344 -625 1503 -206 
L 1606 56 
L 191 3500 
L 800 3500 
L 1894 763 
L 2988 3500 
L 3597 3500 
L 2059 -325 
z
" transform="scale(0.015625)"/>
       <path id="DejaVuSans-20" transform="scale(0.015625)"/>
       <path id="DejaVuSans-5b" d="M 550 4863 
L 1875 4863 
L 1875 4416 
L 1125 4416 
L 1125 -397 
L 1875 -397 
L 1875 -844 
L 550 -844 
L 550 4863 
z
" transform="scale(0.015625)"/>
       <path id="DejaVuSans-25" d="M 4653 2053 
Q 4381 2053 4226 1822 
Q 4072 1591 4072 1178 
Q 4072 772 4226 539 
Q 4381 306 4653 306 
Q 4919 306 5073 539 
Q 5228 772 5228 1178 
Q 5228 1588 5073 1820 
Q 4919 2053 4653 2053 
z
M 4653 2450 
Q 5147 2450 5437 2106 
Q 5728 1763 5728 1178 
Q 5728 594 5436 251 
Q 5144 -91 4653 -91 
Q 4153 -91 3862 251 
Q 3572 594 3572 1178 
Q 3572 1766 3864 2108 
Q 4156 2450 4653 2450 
z
M 1428 4353 
Q 1159 4353 1004 4120 
Q 850 3888 850 3481 
Q 850 3069 1003 2837 
Q 1156 2606 1428 2606 
Q 1700 2606 1854 2837 
Q 2009 3069 2009 3481 
Q 2009 3884 1853 4118 
Q 1697 4353 1428 4353 
z
M 4250 4750 
L 4750 4750 
L 1831 -91 
L 1331 -91 
L 4250 4750 
z
M 1428 4750 
Q 1922 4750 2215 4408 
Q 2509 4066 2509 3481 
Q 2509 2891 2217 2550 
Q 1925 2209 1428 2209 
Q 931 2209 642 2551 
Q 353 2894 353 3481 
Q 353 4063 643 4406 
Q 934 4750 1428 4750 
z
" transform="scale(0.015625)"/>
       <path id="DejaVuSans-5d" d="M 1947 4863 
L 1947 -844 
L 622 -844 
L 622 -397 
L 1369 -397 
L 1369 4416 
L 622 4416 
L 622 4863 
L 1947 4863 
z
" transform="scale(0.015625)"/>
      </defs>
      <use xlink:href="#DejaVuSans-61"/>
      <use xlink:href="#DejaVuSans-63" x="61.279297"/>
      <use xlink:href="#DejaVuSans-63" x="116.259766"/>
      <use xlink:href="#DejaVuSans-75" x="171.240234"/>
      <use xlink:href="#DejaVuSans-72" x="234.619141"/>
      <use xlink:href="#DejaVuSans-61" x="275.732422"/>
      <use xlink:href="#DejaVuSans-63" x="337.011719"/>
      <use xlink:href="#DejaVuSans-79" x="391.992188"/>
      <use xlink:href="#DejaVuSans-20" x="451.171875"/>
      <use xlink:href="#DejaVuSans-5b" x="482.958984"/>
      <use xlink:href="#DejaVuSans-25" x="521.972656"/>
      <use xlink:href="#DejaVuSans-5d" x="616.992188"/>
     </g>
    </g>
   </g>
   <g id="line2d_31">
    <path d="M 135.140677 501.172542 
L 139.685854 448.854148 
L 144.231031 435.888455 
L 148.776208 429.201667 
L 153.321385 415.611126 
L 157.866562 418.952347 
L 162.411739 415.585081 
L 166.956916 408.143268 
L 171.502092 407.331828 
L 176.047269 401.460813 
L 180.592446 401.812292 
L 185.137623 402.597696 
L 189.6828 393.901828 
L 194.227977 391.185457 
L 198.773154 396.292758 
L 203.318331 393.020963 
L 207.863507 390.204788 
L 212.408684 393.628459 
L 216.953861 390.048571 
L 221.499038 386.299452 
L 226.044215 385.54443 
L 230.589392 387.887621 
L 235.134569 384.312076 
L 239.679746 382.971248 
L 244.224922 385.86119 
L 248.770099 378.519172 
L 253.315276 383.066712 
L 257.860453 379.504188 
L 262.40563 374.678933 
L 266.950807 374.245014 
L 271.495984 376.605563 
L 276.041161 376.987416 
L 280.586338 375.47302 
L 285.131514 368.183068 
L 289.676691 372.583072 
L 294.221868 371.363739 
L 298.767045 372.934551 
L 303.312222 370.300627 
L 307.857399 374.479331 
L 312.402576 364.377547 
L 316.947753 373.233957 
L 321.492929 377.204375 
L 326.038106 377.581892 
L 330.583283 377.477754 
L 335.12846 378.089587 
L 339.673637 378.636331 
L 344.218814 380.280918 
L 348.763991 380.662765 
L 353.309168 380.181108 
L 357.854344 379.729821 
L 362.399521 379.083277 
L 366.944698 381.682496 
L 371.489875 381.270261 
L 376.035052 380.332987 
L 380.580229 379.200438 
L 385.125406 378.723121 
L 389.670583 381.265915 
L 394.215759 381.200832 
L 398.760936 381.621737 
L 403.306113 380.497878 
L 407.85129 378.250144 
L 412.396467 380.163757 
L 416.941644 382.606752 
L 421.486821 383.609119 
L 426.031998 383.674205 
L 430.577174 381.803991 
L 435.122351 381.547977 
L 439.667528 382.190181 
L 444.212705 381.925486 
L 448.757882 380.341655 
L 453.303059 379.760203 
L 457.848236 381.760599 
L 462.393413 381.830026 
L 466.938589 383.235943 
L 471.483766 381.595705 
L 476.028943 382.207539 
L 480.57412 382.949554 
L 485.119297 380.788604 
L 489.664474 380.94048 
L 494.209651 381.85172 
L 498.754828 381.326674 
L 503.300005 393.979935 
L 507.845181 395.056071 
L 512.390358 392.326686 
L 516.935535 393.385466 
L 521.480712 394.917219 
L 526.025889 393.797693 
L 530.571066 392.656464 
L 535.116243 393.619786 
L 539.66142 393.984275 
L 544.206596 393.927866 
L 548.751773 395.637536 
L 553.29695 396.492368 
L 557.842127 394.656862 
L 562.387304 396.600842 
L 566.932481 394.847789 
L 571.477658 395.268697 
L 576.022835 395.524712 
L 580.568011 394.370475 
L 585.113188 393.71091 
L 589.658365 396.084476 
L 594.203542 396.162583 
L 598.748719 395.897891 
L 603.293896 397.121564 
L 607.839073 397.321163 
L 612.38425 397.828861 
L 616.929426 396.093159 
L 621.474603 397.460019 
L 626.01978 398.510117 
L 630.564957 397.629246 
L 635.110134 397.785469 
L 639.655311 397.659622 
L 644.200488 398.0328 
L 648.745665 397.542474 
L 653.290841 399.169688 
L 657.836018 396.704993 
L 662.381195 398.037144 
L 666.926372 395.793748 
L 671.471549 395.450948 
L 676.016726 396.817804 
" clip-path="url(#pec9790b6fd)" style="fill: none; stroke: #1f77b4; stroke-width: 1.5; stroke-linecap: square"/>
   </g>
   <g id="line2d_32">
    <path d="M 135.140677 489.517304 
L 139.685854 492.732694 
L 144.231031 494.559518 
L 148.776208 492.485351 
L 153.321385 493.058136 
L 157.866562 492.793441 
L 162.411739 492.1035 
L 166.956916 491.253003 
L 171.502092 490.554383 
L 176.047269 492.494033 
L 180.592446 490.45892 
L 185.137623 489.88614 
L 189.6828 490.133479 
L 194.227977 487.790281 
L 198.773154 488.523613 
L 203.318331 491.079435 
L 207.863507 488.966217 
L 212.408684 491.135846 
L 216.953861 490.198566 
L 221.499038 489.469571 
L 226.044215 490.476278 
L 230.589392 490.970954 
L 235.134569 490.272334 
L 239.679746 490.541365 
L 244.224922 490.849455 
L 248.770099 492.03407 
L 253.315276 492.060106 
L 257.860453 493.170956 
L 262.40563 491.899556 
L 266.950807 492.507051 
L 271.495984 492.376873 
L 276.041161 491.031703 
L 280.586338 493.210009 
L 285.131514 492.398569 
L 289.676691 492.329139 
L 294.221868 493.205669 
L 298.767045 493.201331 
L 303.312222 492.684958 
L 307.857399 492.945316 
L 312.402576 492.459322 
L 316.947753 477.580014 
L 321.492929 429.774447 
L 326.038106 418.783116 
L 330.583283 405.873831 
L 335.12846 400.34996 
L 339.673637 402.367716 
L 344.218814 396.266724 
L 348.763991 396.058445 
L 353.309168 392.40912 
L 357.854344 388.269478 
L 362.399521 389.506168 
L 366.944698 389.302226 
L 371.489875 387.666321 
L 376.035052 385.752715 
L 380.580229 384.962968 
L 385.125406 381.790969 
L 389.670583 378.033178 
L 394.215759 382.194525 
L 398.760936 380.879729 
L 403.306113 382.268291 
L 407.85129 375.069466 
L 412.396467 379.352312 
L 416.941644 375.516412 
L 421.486821 377.043825 
L 426.031998 380.706157 
L 430.577174 379.343638 
L 435.122351 379.868681 
L 439.667528 367.896679 
L 444.212705 365.310487 
L 448.757882 373.125485 
L 453.303059 369.311274 
L 457.848236 364.893913 
L 462.393413 369.649738 
L 466.938589 366.3736 
L 471.483766 365.089181 
L 476.028943 361.196873 
L 480.57412 367.579912 
L 485.119297 363.123503 
L 489.664474 364.902593 
L 494.209651 368.252498 
L 498.754828 363.019358 
L 503.300005 375.182291 
L 507.845181 375.433962 
L 512.390358 373.095107 
L 516.935535 373.85014 
L 521.480712 375.633567 
L 526.025889 376.631601 
L 530.571066 376.193338 
L 535.116243 378.47144 
L 539.66142 376.605566 
L 544.206596 375.377553 
L 548.751773 377.07855 
L 553.29695 380.220166 
L 557.842127 377.916019 
L 562.387304 379.204775 
L 566.932481 377.399644 
L 571.477658 377.738105 
L 576.022835 379.61267 
L 580.568011 377.369269 
L 585.113188 377.399647 
L 589.658365 379.45645 
L 594.203542 379.213452 
L 598.748719 379.912082 
L 603.293896 380.636731 
L 607.839073 383.16218 
L 612.38425 380.176774 
L 616.929426 381.526272 
L 621.474603 382.532989 
L 626.01978 382.285645 
L 630.564957 381.899452 
L 635.110134 381.582695 
L 639.655311 382.250937 
L 644.200488 383.604776 
L 648.745665 383.977955 
L 653.290841 386.09117 
L 657.836018 384.941267 
L 662.381195 385.179931 
L 666.926372 384.142849 
L 671.471549 383.817405 
L 676.016726 384.194921 
" clip-path="url(#pec9790b6fd)" style="fill: none; stroke: #ff7f0e; stroke-width: 1.5; stroke-linecap: square"/>
   </g>
   <g id="line2d_33">
    <path d="M 135.140677 502.756369 
L 139.685854 501.823429 
L 144.231031 504.713372 
L 148.776208 504.513767 
L 153.321385 505.997794 
L 157.866562 506.284182 
L 162.411739 507.585958 
L 166.956916 506.913376 
L 171.502092 507.104304 
L 176.047269 507.694439 
L 180.592446 508.991879 
L 185.137623 509.378072 
L 189.6828 508.918109 
L 194.227977 507.629353 
L 198.773154 507.078269 
L 203.318331 508.67511 
L 207.863507 507.208447 
L 212.408684 509.217519 
L 216.953861 508.557952 
L 221.499038 507.81594 
L 226.044215 508.423436 
L 230.589392 508.52324 
L 235.134569 507.199763 
L 239.679746 506.553218 
L 244.224922 505.507458 
L 248.770099 506.670378 
L 253.315276 508.340991 
L 257.860453 508.132703 
L 262.40563 507.7118 
L 266.950807 506.974128 
L 271.495984 506.331914 
L 276.041161 506.145326 
L 280.586338 505.815543 
L 285.131514 505.819883 
L 289.676691 506.275505 
L 294.221868 504.952032 
L 298.767045 505.273136 
L 303.312222 504.08418 
L 307.857399 504.561499 
L 312.402576 504.882606 
L 316.947753 504.036449 
L 321.492929 503.43763 
L 326.038106 504.518105 
L 330.583283 505.433688 
L 335.12846 502.16189 
L 339.673637 504.179646 
L 344.218814 502.92126 
L 348.763991 501.819089 
L 353.309168 502.248674 
L 357.854344 503.329147 
L 362.399521 505.477083 
L 366.944698 504.153606 
L 371.489875 504.682999 
L 376.035052 505.056174 
L 380.580229 504.756766 
L 385.125406 506.136649 
L 389.670583 505.32087 
L 394.215759 503.940985 
L 398.760936 503.954004 
L 403.306113 504.322842 
L 407.85129 505.884971 
L 412.396467 504.244733 
L 416.941644 502.691281 
L 421.486821 503.69365 
L 426.031998 505.095227 
L 430.577174 504.153611 
L 435.122351 503.663272 
L 439.667528 504.965048 
L 444.212705 502.196605 
L 448.757882 504.166628 
L 453.303059 503.415936 
L 457.848236 504.55716 
L 462.393413 505.650651 
L 466.938589 504.691676 
L 471.483766 504.461698 
L 476.028943 504.105877 
L 480.57412 504.27511 
L 485.119297 503.80647 
L 489.664474 503.216331 
L 494.209651 501.879841 
L 498.754828 493.925985 
L 503.300005 451.813521 
L 507.845181 425.252942 
L 512.390358 424.884109 
L 516.935535 420.29318 
L 521.480712 409.241094 
L 526.025889 410.391002 
L 530.571066 401.334975 
L 535.116243 401.925114 
L 539.66142 397.976393 
L 544.206596 394.908535 
L 548.751773 386.811488 
L 553.29695 390.63871 
L 557.842127 391.758242 
L 562.387304 385.878547 
L 566.932481 378.328244 
L 571.477658 381.304983 
L 576.022835 386.820171 
L 580.568011 379.907737 
L 585.113188 381.856057 
L 589.658365 385.171252 
L 594.203542 382.09472 
L 598.748719 382.910499 
L 603.293896 379.443442 
L 607.839073 380.849356 
L 612.38425 382.381116 
L 616.929426 377.269465 
L 621.474603 373.902209 
L 626.01978 373.832779 
L 630.564957 373.585442 
L 635.110134 369.263548 
L 639.655311 378.059212 
L 644.200488 373.047372 
L 648.745665 369.584649 
L 653.290841 371.177151 
L 657.836018 371.884458 
L 662.381195 366.968082 
L 666.926372 366.768474 
L 671.471549 370.53928 
L 676.016726 366.820543 
" clip-path="url(#pec9790b6fd)" style="fill: none; stroke: #2ca02c; stroke-width: 1.5; stroke-linecap: square"/>
   </g>
   <g id="line2d_34">
    <path d="M 135.140677 497.041568 
L 139.685854 497.731512 
L 144.231031 497.045907 
L 148.776208 497.935455 
L 153.321385 497.566619 
L 157.866562 495.77885 
L 162.411739 497.61869 
L 166.956916 495.752814 
L 171.502092 498.46485 
L 176.047269 496.729145 
L 180.592446 497.332303 
L 185.137623 495.748476 
L 189.6828 498.846702 
L 194.227977 497.978851 
L 198.773154 497.779244 
L 203.318331 500.365441 
L 207.863507 500.12244 
L 212.408684 497.236837 
L 216.953861 496.325592 
L 221.499038 496.57293 
L 226.044215 496.516521 
L 230.589392 496.581609 
L 235.134569 496.564251 
L 239.679746 496.434075 
L 244.224922 496.564253 
L 248.770099 496.681414 
L 253.315276 495.049852 
L 257.860453 495.067208 
L 262.40563 493.552811 
L 266.950807 494.23841 
L 271.495984 494.737425 
L 276.041161 494.841568 
L 280.586338 496.173721 
L 285.131514 493.613562 
L 289.676691 495.357942 
L 294.221868 493.804488 
L 298.767045 495.370958 
L 303.312222 496.030523 
L 307.857399 497.826976 
L 312.402576 495.310208 
L 316.947753 496.451436 
L 321.492929 494.711389 
L 326.038106 494.186342 
L 330.583283 494.190683 
L 335.12846 493.279437 
L 339.673637 494.902321 
L 344.218814 496.711787 
L 348.763991 496.338613 
L 353.309168 496.516522 
L 357.854344 497.267213 
L 362.399521 496.1824 
L 366.944698 497.228158 
L 371.489875 496.143346 
L 376.035052 495.943741 
L 380.580229 495.644331 
L 385.125406 497.093642 
L 389.670583 498.477867 
L 394.215759 496.92007 
L 398.760936 499.141769 
L 403.306113 498.9682 
L 407.85129 498.929147 
L 412.396467 498.547292 
L 416.941644 497.10666 
L 421.486821 500.712579 
L 426.031998 500.873136 
L 430.577174 498.456168 
L 435.122351 498.32165 
L 439.667528 498.421453 
L 444.212705 497.892067 
L 448.757882 498.299955 
L 453.303059 498.000545 
L 457.848236 500.326387 
L 462.393413 499.028949 
L 466.938589 499.380428 
L 471.483766 500.959915 
L 476.028943 500.404492 
L 480.57412 500.88615 
L 485.119297 500.855775 
L 489.664474 498.720864 
L 494.209651 498.356364 
L 498.754828 499.445519 
L 503.300005 502.81278 
L 507.845181 503.376883 
L 512.390358 503.185956 
L 516.935535 503.441969 
L 521.480712 503.172937 
L 526.025889 504.50509 
L 530.571066 503.337829 
L 535.116243 503.884575 
L 539.66142 503.962685 
L 544.206596 503.793451 
L 548.751773 503.064456 
L 553.29695 504.453018 
L 557.842127 505.928363 
L 562.387304 507.486157 
L 566.932481 508.826983 
L 571.477658 506.29286 
L 576.022835 506.653023 
L 580.568011 508.666435 
L 585.113188 506.245128 
L 589.658365 507.434088 
L 594.203542 508.570972 
L 598.748719 507.494837 
L 603.293896 507.742172 
L 607.839073 505.164653 
L 612.38425 507.225799 
L 616.929426 505.268799 
L 621.474603 505.876291 
L 626.01978 506.466431 
L 630.564957 506.774518 
L 635.110134 506.640002 
L 639.655311 506.049862 
L 644.200488 505.815543 
L 648.745665 504.908639 
L 653.290841 506.661696 
L 657.836018 506.904697 
L 662.381195 505.31219 
L 666.926372 506.019489 
L 671.471549 505.173334 
L 676.016726 506.249469 
" clip-path="url(#pec9790b6fd)" style="fill: none; stroke: #d62728; stroke-width: 1.5; stroke-linecap: square"/>
   </g>
   <g id="line2d_35">
    <path d="M 135.140677 503.381221 
L 139.685854 508.892075 
L 144.231031 507.416727 
L 148.776208 508.848684 
L 153.321385 505.177671 
L 157.866562 504.730728 
L 162.411739 505.381618 
L 166.956916 505.572546 
L 171.502092 507.008836 
L 176.047269 506.644341 
L 180.592446 506.505483 
L 185.137623 507.095622 
L 189.6828 505.455386 
L 194.227977 506.987141 
L 198.773154 510.332709 
L 203.318331 512.111801 
L 207.863507 510.462886 
L 212.408684 510.068014 
L 216.953861 508.918112 
L 221.499038 508.536256 
L 226.044215 508.414759 
L 230.589392 509.213184 
L 235.134569 509.447502 
L 239.679746 510.159136 
L 244.224922 512.033696 
L 248.770099 508.440793 
L 253.315276 506.757164 
L 257.860453 506.496806 
L 262.40563 507.152034 
L 266.950807 508.753215 
L 271.495984 507.221462 
L 276.041161 507.646707 
L 280.586338 507.742173 
L 285.131514 508.314955 
L 289.676691 506.765841 
L 294.221868 506.1757 
L 298.767045 506.462091 
L 303.312222 505.915346 
L 307.857399 507.40805 
L 312.402576 506.865642 
L 316.947753 504.101541 
L 321.492929 506.670375 
L 326.038106 504.826194 
L 330.583283 505.668008 
L 335.12846 503.936647 
L 339.673637 503.012387 
L 344.218814 504.960713 
L 348.763991 503.654595 
L 353.309168 506.718109 
L 357.854344 502.500351 
L 362.399521 502.101141 
L 366.944698 502.109821 
L 371.489875 502.305086 
L 376.035052 501.819092 
L 380.580229 501.081415 
L 385.125406 501.042362 
L 389.670583 499.419483 
L 394.215759 500.604098 
L 398.760936 499.054984 
L 403.306113 500.972935 
L 407.85129 499.801338 
L 412.396467 498.26958 
L 416.941644 500.404494 
L 421.486821 497.397392 
L 426.031998 498.54729 
L 430.577174 499.172144 
L 435.122351 498.963858 
L 439.667528 498.647096 
L 444.212705 497.423427 
L 448.757882 498.660113 
L 453.303059 499.002915 
L 457.848236 499.723231 
L 462.393413 499.04631 
L 466.938589 499.150445 
L 471.483766 499.393449 
L 476.028943 499.211197 
L 480.57412 499.571355 
L 485.119297 497.853012 
L 489.664474 498.833683 
L 494.209651 500.512974 
L 498.754828 502.391873 
L 503.300005 500.565046 
L 507.845181 498.525596 
L 512.390358 500.018301 
L 516.935535 499.879441 
L 521.480712 501.033688 
L 526.025889 502.109821 
L 530.571066 502.135856 
L 535.116243 502.982009 
L 539.66142 503.671952 
L 544.206596 501.832109 
L 548.751773 502.686943 
L 553.29695 503.342168 
L 557.842127 502.496011 
L 562.387304 504.019092 
L 566.932481 503.203312 
L 571.477658 502.578461 
L 576.022835 502.578458 
L 580.568011 501.593447 
L 585.113188 501.953606 
L 589.658365 503.146901 
L 594.203542 503.515739 
L 598.748719 503.2684 
L 603.293896 505.355582 
L 607.839073 504.001736 
L 612.38425 504.565839 
L 616.929426 505.095229 
L 621.474603 507.681424 
L 626.01978 504.500748 
L 630.564957 502.752027 
L 635.110134 502.613175 
L 639.655311 502.626188 
L 644.200488 500.981616 
L 648.745665 502.34414 
L 653.290841 500.335066 
L 657.836018 501.159523 
L 662.381195 500.669187 
L 666.926372 501.593447 
L 671.471549 502.430925 
L 676.016726 501.268003 
" clip-path="url(#pec9790b6fd)" style="fill: none; stroke: #9467bd; stroke-width: 1.5; stroke-linecap: square"/>
   </g>
   <g id="patch_3">
    <path d="M 108.096875 587.480313 
L 108.096875 283.7325 
" style="fill: none; stroke: #000000; stroke-width: 0.8; stroke-linejoin: miter; stroke-linecap: square"/>
   </g>
   <g id="patch_4">
    <path d="M 703.060528 587.480313 
L 703.060528 283.7325 
" style="fill: none; stroke: #000000; stroke-width: 0.8; stroke-linejoin: miter; stroke-linecap: square"/>
   </g>
   <g id="patch_5">
    <path d="M 108.096875 587.480313 
L 703.060528 587.480313 
" style="fill: none; stroke: #000000; stroke-width: 0.8; stroke-linejoin: miter; stroke-linecap: square"/>
   </g>
   <g id="patch_6">
    <path d="M 108.096875 283.7325 
L 703.060528 283.7325 
" style="fill: none; stroke: #000000; stroke-width: 0.8; stroke-linejoin: miter; stroke-linecap: square"/>
   </g>
   <g id="text_18">
    <!-- Train -->
    <g transform="translate(369.597452 277.493438)scale(0.3 -0.3)">
     <defs>
      <path id="DejaVuSans-54" d="M -19 4666 
L 3928 4666 
L 3928 4134 
L 2272 4134 
L 2272 0 
L 1638 0 
L 1638 4134 
L -19 4134 
L -19 4666 
z
" transform="scale(0.015625)"/>
      <path id="DejaVuSans-69" d="M 603 3500 
L 1178 3500 
L 1178 0 
L 603 0 
L 603 3500 
z
M 603 4863 
L 1178 4863 
L 1178 4134 
L 603 4134 
L 603 4863 
z
" transform="scale(0.015625)"/>
      <path id="DejaVuSans-6e" d="M 3513 2113 
L 3513 0 
L 2938 0 
L 2938 2094 
Q 2938 2591 2744 2837 
Q 2550 3084 2163 3084 
Q 1697 3084 1428 2787 
Q 1159 2491 1159 1978 
L 1159 0 
L 581 0 
L 581 3500 
L 1159 3500 
L 1159 2956 
Q 1366 3272 1645 3428 
Q 1925 3584 2291 3584 
Q 2894 3584 3203 3211 
Q 3513 2838 3513 2113 
z
" transform="scale(0.015625)"/>
     </defs>
     <use xlink:href="#DejaVuSans-54"/>
     <use xlink:href="#DejaVuSans-72" x="46.333984"/>
     <use xlink:href="#DejaVuSans-61" x="87.447266"/>
     <use xlink:href="#DejaVuSans-69" x="148.726562"/>
     <use xlink:href="#DejaVuSans-6e" x="176.509766"/>
    </g>
   </g>
   <g id="legend_1">
    <g id="patch_7">
     <path d="M 633.471466 365.123125 
L 696.060528 365.123125 
Q 698.060528 365.123125 698.060528 363.123125 
L 698.060528 290.7325 
Q 698.060528 288.7325 696.060528 288.7325 
L 633.471466 288.7325 
Q 631.471466 288.7325 631.471466 290.7325 
L 631.471466 363.123125 
Q 631.471466 365.123125 633.471466 365.123125 
z
" style="fill: #ffffff; opacity: 0.8; stroke: #cccccc; stroke-linejoin: miter"/>
    </g>
    <g id="line2d_36">
     <path d="M 635.471466 296.830938 
L 645.471466 296.830938 
L 655.471466 296.830938 
" style="fill: none; stroke: #1f77b4; stroke-width: 1.5; stroke-linecap: square"/>
    </g>
    <g id="text_19">
     <!-- task 0 -->
     <g transform="translate(663.471466 300.330938)scale(0.1 -0.1)">
      <defs>
       <path id="DejaVuSans-6b" d="M 581 4863 
L 1159 4863 
L 1159 1991 
L 2875 3500 
L 3609 3500 
L 1753 1863 
L 3688 0 
L 2938 0 
L 1159 1709 
L 1159 0 
L 581 0 
L 581 4863 
z
" transform="scale(0.015625)"/>
      </defs>
      <use xlink:href="#DejaVuSans-74"/>
      <use xlink:href="#DejaVuSans-61" x="39.208984"/>
      <use xlink:href="#DejaVuSans-73" x="100.488281"/>
      <use xlink:href="#DejaVuSans-6b" x="152.587891"/>
      <use xlink:href="#DejaVuSans-20" x="210.498047"/>
      <use xlink:href="#DejaVuSans-30" x="242.285156"/>
     </g>
    </g>
    <g id="line2d_37">
     <path d="M 635.471466 311.509063 
L 645.471466 311.509063 
L 655.471466 311.509063 
" style="fill: none; stroke: #ff7f0e; stroke-width: 1.5; stroke-linecap: square"/>
    </g>
    <g id="text_20">
     <!-- task 1 -->
     <g transform="translate(663.471466 315.009063)scale(0.1 -0.1)">
      <use xlink:href="#DejaVuSans-74"/>
      <use xlink:href="#DejaVuSans-61" x="39.208984"/>
      <use xlink:href="#DejaVuSans-73" x="100.488281"/>
      <use xlink:href="#DejaVuSans-6b" x="152.587891"/>
      <use xlink:href="#DejaVuSans-20" x="210.498047"/>
      <use xlink:href="#DejaVuSans-31" x="242.285156"/>
     </g>
    </g>
    <g id="line2d_38">
     <path d="M 635.471466 326.187188 
L 645.471466 326.187188 
L 655.471466 326.187188 
" style="fill: none; stroke: #2ca02c; stroke-width: 1.5; stroke-linecap: square"/>
    </g>
    <g id="text_21">
     <!-- task 2 -->
     <g transform="translate(663.471466 329.687188)scale(0.1 -0.1)">
      <use xlink:href="#DejaVuSans-74"/>
      <use xlink:href="#DejaVuSans-61" x="39.208984"/>
      <use xlink:href="#DejaVuSans-73" x="100.488281"/>
      <use xlink:href="#DejaVuSans-6b" x="152.587891"/>
      <use xlink:href="#DejaVuSans-20" x="210.498047"/>
      <use xlink:href="#DejaVuSans-32" x="242.285156"/>
     </g>
    </g>
    <g id="line2d_39">
     <path d="M 635.471466 340.865313 
L 645.471466 340.865313 
L 655.471466 340.865313 
" style="fill: none; stroke: #d62728; stroke-width: 1.5; stroke-linecap: square"/>
    </g>
    <g id="text_22">
     <!-- task 3 -->
     <g transform="translate(663.471466 344.365313)scale(0.1 -0.1)">
      <use xlink:href="#DejaVuSans-74"/>
      <use xlink:href="#DejaVuSans-61" x="39.208984"/>
      <use xlink:href="#DejaVuSans-73" x="100.488281"/>
      <use xlink:href="#DejaVuSans-6b" x="152.587891"/>
      <use xlink:href="#DejaVuSans-20" x="210.498047"/>
      <use xlink:href="#DejaVuSans-33" x="242.285156"/>
     </g>
    </g>
    <g id="line2d_40">
     <path d="M 635.471466 355.543438 
L 645.471466 355.543438 
L 655.471466 355.543438 
" style="fill: none; stroke: #9467bd; stroke-width: 1.5; stroke-linecap: square"/>
    </g>
    <g id="text_23">
     <!-- task 4 -->
     <g transform="translate(663.471466 359.043438)scale(0.1 -0.1)">
      <use xlink:href="#DejaVuSans-74"/>
      <use xlink:href="#DejaVuSans-61" x="39.208984"/>
      <use xlink:href="#DejaVuSans-73" x="100.488281"/>
      <use xlink:href="#DejaVuSans-6b" x="152.587891"/>
      <use xlink:href="#DejaVuSans-20" x="210.498047"/>
      <use xlink:href="#DejaVuSans-34" x="242.285156"/>
     </g>
    </g>
   </g>
  </g>
  <g id="axes_2">
   <g id="patch_8">
    <path d="M 108.096875 1000.13125 
L 703.060528 1000.13125 
L 703.060528 696.383438 
L 108.096875 696.383438 
z
" style="fill: #ffffff"/>
   </g>
   <g id="matplotlib.axis_3">
    <g id="xtick_8">
     <g id="line2d_41">
      <path d="M 135.140677 1000.13125 
L 135.140677 696.383438 
" clip-path="url(#p970adb2f67)" style="fill: none; stroke: #b0b0b0; stroke-width: 0.8; stroke-linecap: square"/>
     </g>
     <g id="line2d_42">
      <g>
       <use xlink:href="#m86b85ce103" x="135.140677" y="1000.13125" style="stroke: #000000; stroke-width: 0.8"/>
      </g>
     </g>
     <g id="text_24">
      <!-- 0 -->
      <g transform="translate(125.596927 1029.926563)scale(0.3 -0.3)">
       <use xlink:href="#DejaVuSans-30"/>
      </g>
     </g>
    </g>
    <g id="xtick_9">
     <g id="line2d_43">
      <path d="M 226.044215 1000.13125 
L 226.044215 696.383438 
" clip-path="url(#p970adb2f67)" style="fill: none; stroke: #b0b0b0; stroke-width: 0.8; stroke-linecap: square"/>
     </g>
     <g id="line2d_44">
      <g>
       <use xlink:href="#m86b85ce103" x="226.044215" y="1000.13125" style="stroke: #000000; stroke-width: 0.8"/>
      </g>
     </g>
     <g id="text_25">
      <!-- 20 -->
      <g transform="translate(206.956715 1029.926563)scale(0.3 -0.3)">
       <use xlink:href="#DejaVuSans-32"/>
       <use xlink:href="#DejaVuSans-30" x="63.623047"/>
      </g>
     </g>
    </g>
    <g id="xtick_10">
     <g id="line2d_45">
      <path d="M 316.947753 1000.13125 
L 316.947753 696.383438 
" clip-path="url(#p970adb2f67)" style="fill: none; stroke: #b0b0b0; stroke-width: 0.8; stroke-linecap: square"/>
     </g>
     <g id="line2d_46">
      <g>
       <use xlink:href="#m86b85ce103" x="316.947753" y="1000.13125" style="stroke: #000000; stroke-width: 0.8"/>
      </g>
     </g>
     <g id="text_26">
      <!-- 40 -->
      <g transform="translate(297.860253 1029.926563)scale(0.3 -0.3)">
       <use xlink:href="#DejaVuSans-34"/>
       <use xlink:href="#DejaVuSans-30" x="63.623047"/>
      </g>
     </g>
    </g>
    <g id="xtick_11">
     <g id="line2d_47">
      <path d="M 407.85129 1000.13125 
L 407.85129 696.383438 
" clip-path="url(#p970adb2f67)" style="fill: none; stroke: #b0b0b0; stroke-width: 0.8; stroke-linecap: square"/>
     </g>
     <g id="line2d_48">
      <g>
       <use xlink:href="#m86b85ce103" x="407.85129" y="1000.13125" style="stroke: #000000; stroke-width: 0.8"/>
      </g>
     </g>
     <g id="text_27">
      <!-- 60 -->
      <g transform="translate(388.76379 1029.926563)scale(0.3 -0.3)">
       <use xlink:href="#DejaVuSans-36"/>
       <use xlink:href="#DejaVuSans-30" x="63.623047"/>
      </g>
     </g>
    </g>
    <g id="xtick_12">
     <g id="line2d_49">
      <path d="M 498.754828 1000.13125 
L 498.754828 696.383438 
" clip-path="url(#p970adb2f67)" style="fill: none; stroke: #b0b0b0; stroke-width: 0.8; stroke-linecap: square"/>
     </g>
     <g id="line2d_50">
      <g>
       <use xlink:href="#m86b85ce103" x="498.754828" y="1000.13125" style="stroke: #000000; stroke-width: 0.8"/>
      </g>
     </g>
     <g id="text_28">
      <!-- 80 -->
      <g transform="translate(479.667328 1029.926563)scale(0.3 -0.3)">
       <use xlink:href="#DejaVuSans-38"/>
       <use xlink:href="#DejaVuSans-30" x="63.623047"/>
      </g>
     </g>
    </g>
    <g id="xtick_13">
     <g id="line2d_51">
      <path d="M 589.658365 1000.13125 
L 589.658365 696.383438 
" clip-path="url(#p970adb2f67)" style="fill: none; stroke: #b0b0b0; stroke-width: 0.8; stroke-linecap: square"/>
     </g>
     <g id="line2d_52">
      <g>
       <use xlink:href="#m86b85ce103" x="589.658365" y="1000.13125" style="stroke: #000000; stroke-width: 0.8"/>
      </g>
     </g>
     <g id="text_29">
      <!-- 100 -->
      <g transform="translate(561.027115 1029.926563)scale(0.3 -0.3)">
       <use xlink:href="#DejaVuSans-31"/>
       <use xlink:href="#DejaVuSans-30" x="63.623047"/>
       <use xlink:href="#DejaVuSans-30" x="127.246094"/>
      </g>
     </g>
    </g>
    <g id="xtick_14">
     <g id="line2d_53">
      <path d="M 680.561903 1000.13125 
L 680.561903 696.383438 
" clip-path="url(#p970adb2f67)" style="fill: none; stroke: #b0b0b0; stroke-width: 0.8; stroke-linecap: square"/>
     </g>
     <g id="line2d_54">
      <g>
       <use xlink:href="#m86b85ce103" x="680.561903" y="1000.13125" style="stroke: #000000; stroke-width: 0.8"/>
      </g>
     </g>
     <g id="text_30">
      <!-- 120 -->
      <g transform="translate(651.930653 1029.926563)scale(0.3 -0.3)">
       <use xlink:href="#DejaVuSans-31"/>
       <use xlink:href="#DejaVuSans-32" x="63.623047"/>
       <use xlink:href="#DejaVuSans-30" x="127.246094"/>
      </g>
     </g>
    </g>
    <g id="text_31">
     <!-- step -->
     <g transform="translate(373.131827 1062.960938)scale(0.3 -0.3)">
      <use xlink:href="#DejaVuSans-73"/>
      <use xlink:href="#DejaVuSans-74" x="52.099609"/>
      <use xlink:href="#DejaVuSans-65" x="91.308594"/>
      <use xlink:href="#DejaVuSans-70" x="152.832031"/>
     </g>
    </g>
   </g>
   <g id="matplotlib.axis_4">
    <g id="ytick_9">
     <g id="line2d_55">
      <path d="M 108.096875 1000.13125 
L 703.060528 1000.13125 
" clip-path="url(#p970adb2f67)" style="fill: none; stroke: #b0b0b0; stroke-width: 0.8; stroke-linecap: square"/>
     </g>
     <g id="line2d_56">
      <g>
       <use xlink:href="#mf0ffed282d" x="108.096875" y="1000.13125" style="stroke: #000000; stroke-width: 0.8"/>
      </g>
     </g>
     <g id="text_32">
      <!-- 30 -->
      <g transform="translate(62.921875 1011.528906)scale(0.3 -0.3)">
       <use xlink:href="#DejaVuSans-33"/>
       <use xlink:href="#DejaVuSans-30" x="63.623047"/>
      </g>
     </g>
    </g>
    <g id="ytick_10">
     <g id="line2d_57">
      <path d="M 108.096875 956.738705 
L 703.060528 956.738705 
" clip-path="url(#p970adb2f67)" style="fill: none; stroke: #b0b0b0; stroke-width: 0.8; stroke-linecap: square"/>
     </g>
     <g id="line2d_58">
      <g>
       <use xlink:href="#mf0ffed282d" x="108.096875" y="956.738705" style="stroke: #000000; stroke-width: 0.8"/>
      </g>
     </g>
     <g id="text_33">
      <!-- 40 -->
      <g transform="translate(62.921875 968.136362)scale(0.3 -0.3)">
       <use xlink:href="#DejaVuSans-34"/>
       <use xlink:href="#DejaVuSans-30" x="63.623047"/>
      </g>
     </g>
    </g>
    <g id="ytick_11">
     <g id="line2d_59">
      <path d="M 108.096875 913.346161 
L 703.060528 913.346161 
" clip-path="url(#p970adb2f67)" style="fill: none; stroke: #b0b0b0; stroke-width: 0.8; stroke-linecap: square"/>
     </g>
     <g id="line2d_60">
      <g>
       <use xlink:href="#mf0ffed282d" x="108.096875" y="913.346161" style="stroke: #000000; stroke-width: 0.8"/>
      </g>
     </g>
     <g id="text_34">
      <!-- 50 -->
      <g transform="translate(62.921875 924.743817)scale(0.3 -0.3)">
       <use xlink:href="#DejaVuSans-35"/>
       <use xlink:href="#DejaVuSans-30" x="63.623047"/>
      </g>
     </g>
    </g>
    <g id="ytick_12">
     <g id="line2d_61">
      <path d="M 108.096875 869.953616 
L 703.060528 869.953616 
" clip-path="url(#p970adb2f67)" style="fill: none; stroke: #b0b0b0; stroke-width: 0.8; stroke-linecap: square"/>
     </g>
     <g id="line2d_62">
      <g>
       <use xlink:href="#mf0ffed282d" x="108.096875" y="869.953616" style="stroke: #000000; stroke-width: 0.8"/>
      </g>
     </g>
     <g id="text_35">
      <!-- 60 -->
      <g transform="translate(62.921875 881.351272)scale(0.3 -0.3)">
       <use xlink:href="#DejaVuSans-36"/>
       <use xlink:href="#DejaVuSans-30" x="63.623047"/>
      </g>
     </g>
    </g>
    <g id="ytick_13">
     <g id="line2d_63">
      <path d="M 108.096875 826.561071 
L 703.060528 826.561071 
" clip-path="url(#p970adb2f67)" style="fill: none; stroke: #b0b0b0; stroke-width: 0.8; stroke-linecap: square"/>
     </g>
     <g id="line2d_64">
      <g>
       <use xlink:href="#mf0ffed282d" x="108.096875" y="826.561071" style="stroke: #000000; stroke-width: 0.8"/>
      </g>
     </g>
     <g id="text_36">
      <!-- 70 -->
      <g transform="translate(62.921875 837.958728)scale(0.3 -0.3)">
       <use xlink:href="#DejaVuSans-37"/>
       <use xlink:href="#DejaVuSans-30" x="63.623047"/>
      </g>
     </g>
    </g>
    <g id="ytick_14">
     <g id="line2d_65">
      <path d="M 108.096875 783.168527 
L 703.060528 783.168527 
" clip-path="url(#p970adb2f67)" style="fill: none; stroke: #b0b0b0; stroke-width: 0.8; stroke-linecap: square"/>
     </g>
     <g id="line2d_66">
      <g>
       <use xlink:href="#mf0ffed282d" x="108.096875" y="783.168527" style="stroke: #000000; stroke-width: 0.8"/>
      </g>
     </g>
     <g id="text_37">
      <!-- 80 -->
      <g transform="translate(62.921875 794.566183)scale(0.3 -0.3)">
       <use xlink:href="#DejaVuSans-38"/>
       <use xlink:href="#DejaVuSans-30" x="63.623047"/>
      </g>
     </g>
    </g>
    <g id="ytick_15">
     <g id="line2d_67">
      <path d="M 108.096875 739.775982 
L 703.060528 739.775982 
" clip-path="url(#p970adb2f67)" style="fill: none; stroke: #b0b0b0; stroke-width: 0.8; stroke-linecap: square"/>
     </g>
     <g id="line2d_68">
      <g>
       <use xlink:href="#mf0ffed282d" x="108.096875" y="739.775982" style="stroke: #000000; stroke-width: 0.8"/>
      </g>
     </g>
     <g id="text_38">
      <!-- 90 -->
      <g transform="translate(62.921875 751.173638)scale(0.3 -0.3)">
       <use xlink:href="#DejaVuSans-39"/>
       <use xlink:href="#DejaVuSans-30" x="63.623047"/>
      </g>
     </g>
    </g>
    <g id="ytick_16">
     <g id="line2d_69">
      <path d="M 108.096875 696.383438 
L 703.060528 696.383438 
" clip-path="url(#p970adb2f67)" style="fill: none; stroke: #b0b0b0; stroke-width: 0.8; stroke-linecap: square"/>
     </g>
     <g id="line2d_70">
      <g>
       <use xlink:href="#mf0ffed282d" x="108.096875" y="696.383438" style="stroke: #000000; stroke-width: 0.8"/>
      </g>
     </g>
     <g id="text_39">
      <!-- 100 -->
      <g transform="translate(43.834375 707.781094)scale(0.3 -0.3)">
       <use xlink:href="#DejaVuSans-31"/>
       <use xlink:href="#DejaVuSans-30" x="63.623047"/>
       <use xlink:href="#DejaVuSans-30" x="127.246094"/>
      </g>
     </g>
    </g>
    <g id="text_40">
     <!-- accuracy [%] -->
     <g transform="translate(33.595312 946.659688)rotate(-90)scale(0.3 -0.3)">
      <use xlink:href="#DejaVuSans-61"/>
      <use xlink:href="#DejaVuSans-63" x="61.279297"/>
      <use xlink:href="#DejaVuSans-63" x="116.259766"/>
      <use xlink:href="#DejaVuSans-75" x="171.240234"/>
      <use xlink:href="#DejaVuSans-72" x="234.619141"/>
      <use xlink:href="#DejaVuSans-61" x="275.732422"/>
      <use xlink:href="#DejaVuSans-63" x="337.011719"/>
      <use xlink:href="#DejaVuSans-79" x="391.992188"/>
      <use xlink:href="#DejaVuSans-20" x="451.171875"/>
      <use xlink:href="#DejaVuSans-5b" x="482.958984"/>
      <use xlink:href="#DejaVuSans-25" x="521.972656"/>
      <use xlink:href="#DejaVuSans-5d" x="616.992188"/>
     </g>
    </g>
   </g>
   <g id="line2d_71">
    <path d="M 135.140677 912.217955 
L 139.685854 864.204102 
L 144.231031 853.854981 
L 148.776208 847.671545 
L 153.321385 832.310585 
L 157.866562 835.261278 
L 162.411739 832.50585 
L 166.956916 825.888491 
L 171.502092 824.217873 
L 176.047269 816.125166 
L 180.592446 818.772111 
L 185.137623 818.49006 
L 189.6828 812.111359 
L 194.227977 808.596561 
L 198.773154 813.695178 
L 203.318331 810.679404 
L 207.863507 808.661642 
L 212.408684 811.026537 
L 216.953861 807.381566 
L 221.499038 803.80168 
L 226.044215 804.778019 
L 230.589392 805.88453 
L 235.134569 801.263217 
L 239.679746 801.284914 
L 244.224922 802.955525 
L 248.770099 796.967357 
L 253.315276 802.26125 
L 257.860453 798.442704 
L 262.40563 794.363798 
L 266.950807 793.25729 
L 271.495984 795.969324 
L 276.041161 796.772089 
L 280.586338 794.298715 
L 285.131514 787.138945 
L 289.676691 791.86873 
L 294.221868 790.458469 
L 298.767045 792.628103 
L 303.312222 789.156699 
L 307.857399 794.363805 
L 312.402576 784.209945 
L 316.947753 791.890431 
L 321.492929 796.077807 
L 326.038106 795.839144 
L 330.583283 795.860846 
L 335.12846 796.750395 
L 339.673637 796.902266 
L 344.218814 798.616275 
L 348.763991 797.444668 
L 353.309168 797.661641 
L 357.854344 796.815484 
L 362.399521 796.728695 
L 366.944698 798.985111 
L 371.489875 798.746451 
L 376.035052 797.553153 
L 380.580229 795.405223 
L 385.125406 795.470313 
L 389.670583 799.440731 
L 394.215759 798.920015 
L 398.760936 797.965384 
L 403.306113 797.444671 
L 407.85129 794.971294 
L 412.396467 797.162622 
L 416.941644 798.811544 
L 421.486821 800.482153 
L 426.031998 801.545269 
L 430.577174 799.397346 
L 435.122351 799.570913 
L 439.667528 799.766168 
L 444.212705 798.659667 
L 448.757882 797.422977 
L 453.303059 795.600491 
L 457.848236 798.529488 
L 462.393413 798.204038 
L 466.938589 799.635993 
L 471.483766 799.310552 
L 476.028943 798.616272 
L 480.57412 799.592601 
L 485.119297 798.030477 
L 489.664474 799.028497 
L 494.209651 798.833238 
L 498.754828 798.03047 
L 503.300005 810.35396 
L 507.845181 811.807606 
L 512.390358 808.314508 
L 516.935535 809.963423 
L 521.480712 811.417069 
L 526.025889 811.851001 
L 530.571066 810.202082 
L 535.116243 809.724763 
L 539.66142 809.399324 
L 544.206596 810.744489 
L 548.751773 811.850996 
L 553.29695 812.935807 
L 557.842127 811.417069 
L 562.387304 813.022599 
L 566.932481 811.850992 
L 571.477658 812.480189 
L 576.022835 811.308586 
L 580.568011 810.809576 
L 585.113188 810.050204 
L 589.658365 812.523586 
L 594.203542 812.219834 
L 598.748719 811.482162 
L 603.293896 813.413129 
L 607.839073 813.955539 
L 612.38425 814.801689 
L 616.929426 813.630092 
L 621.474603 814.129107 
L 626.01978 814.454551 
L 630.564957 814.953562 
L 635.110134 814.107409 
L 639.655311 814.04232 
L 644.200488 813.34804 
L 648.745665 813.499916 
L 653.290841 814.845093 
L 657.836018 814.107414 
L 662.381195 814.129105 
L 666.926372 812.501891 
L 671.471549 811.829306 
L 676.016726 812.979205 
" clip-path="url(#p970adb2f67)" style="fill: none; stroke: #1f77b4; stroke-width: 1.5; stroke-linecap: square"/>
   </g>
   <g id="line2d_72">
    <path d="M 135.140677 902.93195 
L 139.685854 905.492109 
L 144.231031 907.618343 
L 148.776208 903.92998 
L 153.321385 906.034516 
L 157.866562 906.142999 
L 162.411739 905.926035 
L 166.956916 905.166667 
L 171.502092 906.793887 
L 176.047269 907.184421 
L 180.592446 904.168637 
L 185.137623 903.322482 
L 189.6828 903.756407 
L 194.227977 900.805718 
L 198.773154 903.604534 
L 203.318331 906.142997 
L 207.863507 900.675537 
L 212.408684 905.383631 
L 216.953861 903.691323 
L 221.499038 902.432935 
L 226.044215 904.146939 
L 230.589392 905.144969 
L 235.134569 904.212027 
L 239.679746 901.738655 
L 244.224922 905.036488 
L 248.770099 906.143001 
L 253.315276 905.361932 
L 257.860453 907.900398 
L 262.40563 904.55917 
L 266.950807 906.25148 
L 271.495984 907.683436 
L 276.041161 904.190333 
L 280.586338 906.403355 
L 285.131514 907.683434 
L 289.676691 907.097632 
L 294.221868 905.361933 
L 298.767045 907.314596 
L 303.312222 907.184421 
L 307.857399 907.35799 
L 312.402576 905.817557 
L 316.947753 889.02464 
L 321.492929 844.026571 
L 326.038106 831.985136 
L 330.583283 818.511755 
L 335.12846 813.348041 
L 339.673637 815.66954 
L 344.218814 810.050213 
L 348.763991 809.963421 
L 353.309168 806.426925 
L 357.854344 801.458485 
L 362.399521 806.188268 
L 366.944698 804.908188 
L 371.489875 803.476236 
L 376.035052 800.764198 
L 380.580229 800.200099 
L 385.125406 795.925936 
L 389.670583 793.669525 
L 394.215759 797.813511 
L 398.760936 797.422975 
L 403.306113 798.941713 
L 407.85129 791.152756 
L 412.396467 795.557096 
L 416.941644 791.022577 
L 421.486821 792.845069 
L 426.031998 797.075842 
L 430.577174 794.667551 
L 435.122351 797.596551 
L 439.667528 784.839136 
L 444.212705 782.734598 
L 448.757882 789.981155 
L 453.303059 787.33421 
L 457.848236 783.710934 
L 462.393413 787.637957 
L 466.938589 783.667538 
L 471.483766 782.756299 
L 476.028943 779.675422 
L 480.57412 784.774046 
L 485.119297 781.714877 
L 489.664474 783.298702 
L 494.209651 786.921979 
L 498.754828 782.38746 
L 503.300005 793.821398 
L 507.845181 794.10344 
L 512.390358 792.584708 
L 516.935535 793.886484 
L 521.480712 795.253356 
L 526.025889 793.973271 
L 530.571066 794.233626 
L 535.116243 796.728697 
L 539.66142 794.9496 
L 544.206596 793.17051 
L 548.751773 794.298715 
L 553.29695 797.835205 
L 557.842127 795.296745 
L 562.387304 796.446648 
L 566.932481 794.081756 
L 571.477658 794.927906 
L 576.022835 796.077809 
L 580.568011 795.361831 
L 585.113188 795.535399 
L 589.658365 797.574847 
L 594.203542 796.056108 
L 598.748719 797.357891 
L 603.293896 798.985111 
L 607.839073 801.653747 
L 612.38425 798.247436 
L 616.929426 799.202071 
L 621.474603 799.766178 
L 626.01978 799.180376 
L 630.564957 798.833235 
L 635.110134 799.983138 
L 639.655311 799.202071 
L 644.200488 801.328306 
L 648.745665 801.19813 
L 653.290841 802.217851 
L 657.836018 801.176436 
L 662.381195 802.000895 
L 666.926372 801.046247 
L 671.471549 800.243496 
L 676.016726 800.308582 
" clip-path="url(#p970adb2f67)" style="fill: none; stroke: #ff7f0e; stroke-width: 1.5; stroke-linecap: square"/>
   </g>
   <g id="line2d_73">
    <path d="M 135.140677 914.951684 
L 139.685854 914.713025 
L 144.231031 916.839264 
L 148.776208 915.21204 
L 153.321385 916.687389 
L 157.866562 919.746563 
L 162.411739 920.571018 
L 166.956916 919.920132 
L 171.502092 920.288968 
L 176.047269 922.914216 
L 180.592446 921.807707 
L 185.137623 919.83335 
L 189.6828 919.464509 
L 194.227977 920.80968 
L 198.773154 921.395477 
L 203.318331 922.068062 
L 207.863507 920.809679 
L 212.408684 922.827436 
L 216.953861 921.894491 
L 221.499038 920.245576 
L 226.044215 920.939856 
L 230.589392 920.592713 
L 235.134569 920.505929 
L 239.679746 919.225849 
L 244.224922 919.030585 
L 248.770099 918.987192 
L 253.315276 921.525651 
L 257.860453 921.373783 
L 262.40563 920.462539 
L 266.950807 920.679501 
L 271.495984 918.618356 
L 276.041161 920.657802 
L 280.586338 917.880684 
L 285.131514 917.98916 
L 289.676691 918.748533 
L 294.221868 917.924075 
L 298.767045 917.924075 
L 303.312222 915.754447 
L 307.857399 918.119339 
L 312.402576 917.685412 
L 316.947753 917.533542 
L 321.492929 917.620329 
L 326.038106 919.377725 
L 330.583283 918.40139 
L 335.12846 917.14301 
L 339.673637 916.492119 
L 344.218814 915.407308 
L 348.763991 915.884624 
L 353.309168 914.691331 
L 357.854344 915.624269 
L 362.399521 918.531572 
L 366.944698 918.531568 
L 371.489875 917.143007 
L 376.035052 918.141038 
L 380.580229 918.357998 
L 385.125406 918.857011 
L 389.670583 918.748533 
L 394.215759 915.060168 
L 398.760936 917.034525 
L 403.306113 916.361943 
L 407.85129 918.531568 
L 412.396467 917.143007 
L 416.941644 914.691331 
L 421.486821 917.099613 
L 426.031998 917.034525 
L 430.577174 917.967467 
L 435.122351 917.359968 
L 439.667528 918.271211 
L 444.212705 915.125256 
L 448.757882 916.752475 
L 453.303059 915.949713 
L 457.848236 917.967467 
L 462.393413 918.748531 
L 466.938589 918.53157 
L 471.483766 916.470426 
L 476.028943 916.448728 
L 480.57412 916.231767 
L 485.119297 916.340249 
L 489.664474 915.472394 
L 494.209651 916.144982 
L 498.754828 906.685404 
L 503.300005 865.288918 
L 507.845181 839.470352 
L 512.390358 839.101517 
L 516.935535 834.892444 
L 521.480712 824.087696 
L 526.025889 826.30072 
L 530.571066 816.298734 
L 535.116243 817.60051 
L 539.66142 814.172499 
L 544.206596 810.353957 
L 548.751773 804.387475 
L 553.29695 806.817465 
L 557.842127 809.247442 
L 562.387304 802.282941 
L 566.932481 794.233629 
L 571.477658 798.703062 
L 576.022835 804.105433 
L 580.568011 797.249405 
L 585.113188 799.874656 
L 589.658365 801.740537 
L 594.203542 797.531462 
L 598.748719 800.981168 
L 603.293896 799.136981 
L 607.839073 800.764205 
L 612.38425 802.065981 
L 616.929426 795.839148 
L 621.474603 793.908182 
L 626.01978 793.821398 
L 630.564957 792.41114 
L 635.110134 789.02652 
L 639.655311 797.18432 
L 644.200488 791.543286 
L 648.745665 787.269121 
L 653.290841 790.697133 
L 657.836018 792.649797 
L 662.381195 787.594568 
L 666.926372 787.703046 
L 671.471549 789.612316 
L 676.016726 787.312513 
" clip-path="url(#p970adb2f67)" style="fill: none; stroke: #2ca02c; stroke-width: 1.5; stroke-linecap: square"/>
   </g>
   <g id="line2d_74">
    <path d="M 135.140677 909.918149 
L 139.685854 909.787975 
L 144.231031 909.462528 
L 148.776208 910.655824 
L 153.321385 910.2002 
L 157.866562 906.707102 
L 162.411739 909.158781 
L 166.956916 908.703161 
L 171.502092 909.375742 
L 176.047269 908.290927 
L 180.592446 909.202171 
L 185.137623 907.94379 
L 189.6828 911.241621 
L 194.227977 910.460557 
L 198.773154 911.632155 
L 203.318331 912.131168 
L 207.863507 911.67555 
L 212.408684 909.462528 
L 216.953861 909.505923 
L 221.499038 909.419136 
L 226.044215 908.920119 
L 230.589392 909.701186 
L 235.134569 909.896455 
L 239.679746 908.659766 
L 244.224922 910.004934 
L 248.770099 910.590735 
L 253.315276 908.985209 
L 257.860453 907.857005 
L 262.40563 905.383628 
L 266.950807 905.687376 
L 271.495984 906.468443 
L 276.041161 906.555225 
L 280.586338 908.59468 
L 285.131514 906.750497 
L 289.676691 907.162723 
L 294.221868 905.058182 
L 298.767045 907.444775 
L 303.312222 907.249507 
L 307.857399 908.681461 
L 312.402576 906.490137 
L 316.947753 907.791915 
L 321.492929 909.267261 
L 326.038106 904.971402 
L 330.583283 904.993098 
L 335.12846 904.081851 
L 339.673637 906.381656 
L 344.218814 907.162725 
L 348.763991 907.227813 
L 353.309168 906.490137 
L 357.854344 907.596647 
L 362.399521 906.446744 
L 366.944698 907.965485 
L 371.489875 906.533533 
L 376.035052 905.340234 
L 380.580229 906.511833 
L 385.125406 908.768248 
L 389.670583 909.419134 
L 394.215759 909.006908 
L 398.760936 910.764304 
L 403.306113 910.63413 
L 407.85129 910.807698 
L 412.396467 910.156808 
L 416.941644 908.855033 
L 421.486821 912.022687 
L 426.031998 910.699216 
L 430.577174 910.677517 
L 435.122351 910.807696 
L 439.667528 910.135113 
L 444.212705 908.833337 
L 448.757882 910.178507 
L 453.303059 910.373772 
L 457.848236 910.786 
L 462.393413 911.78403 
L 466.938589 913.649911 
L 471.483766 913.498034 
L 476.028943 913.085806 
L 480.57412 912.565094 
L 485.119297 912.217955 
L 489.664474 910.569041 
L 494.209651 910.352076 
L 498.754828 910.612432 
L 503.300005 915.754445 
L 507.845181 916.578906 
L 512.390358 915.732751 
L 516.935535 915.624269 
L 521.480712 915.55918 
L 526.025889 916.947742 
L 530.571066 914.279099 
L 535.116243 915.038472 
L 539.66142 916.188372 
L 544.206596 915.884626 
L 548.751773 914.821508 
L 553.29695 917.945771 
L 557.842127 917.294882 
L 562.387304 920.809679 
L 566.932481 920.961552 
L 571.477658 918.900408 
L 576.022835 917.858984 
L 580.568011 920.33236 
L 585.113188 917.359973 
L 589.658365 918.336303 
L 594.203542 919.356027 
L 598.748719 917.143008 
L 603.293896 918.661747 
L 607.839073 917.316578 
L 612.38425 917.121311 
L 616.929426 915.10356 
L 621.474603 916.361943 
L 626.01978 916.361941 
L 630.564957 917.815591 
L 635.110134 917.837287 
L 639.655311 916.492119 
L 644.200488 917.533542 
L 648.745665 916.860958 
L 653.290841 919.095675 
L 657.836018 918.097648 
L 662.381195 917.772201 
L 666.926372 917.381667 
L 671.471549 915.862928 
L 676.016726 918.010858 
" clip-path="url(#p970adb2f67)" style="fill: none; stroke: #d62728; stroke-width: 1.5; stroke-linecap: square"/>
   </g>
   <g id="line2d_75">
    <path d="M 135.140677 917.186399 
L 139.685854 924.215994 
L 144.231031 923.760368 
L 148.776208 921.786008 
L 153.321385 919.204151 
L 157.866562 920.093703 
L 162.411739 919.33433 
L 166.956916 920.267275 
L 171.502092 922.849127 
L 176.047269 920.831376 
L 180.592446 920.766287 
L 185.137623 921.417173 
L 189.6828 920.245574 
L 194.227977 923.41323 
L 198.773154 927.079905 
L 203.318331 926.949723 
L 207.863507 926.255444 
L 212.408684 925.062146 
L 216.953861 924.780094 
L 221.499038 922.610468 
L 226.044215 923.847155 
L 230.589392 925.669642 
L 235.134569 922.697255 
L 239.679746 922.827434 
L 244.224922 925.539467 
L 248.770099 923.131181 
L 253.315276 920.397448 
L 257.860453 922.523683 
L 262.40563 921.243604 
L 266.950807 922.285026 
L 271.495984 921.417173 
L 276.041161 922.480291 
L 280.586338 924.432954 
L 285.131514 924.715008 
L 289.676691 922.95761 
L 294.221868 922.675558 
L 298.767045 922.263328 
L 303.312222 921.438868 
L 307.857399 922.65386 
L 312.402576 922.653862 
L 316.947753 919.421117 
L 321.492929 922.068062 
L 326.038106 920.52763 
L 330.583283 922.219935 
L 335.12846 918.401394 
L 339.673637 917.338272 
L 344.218814 919.63808 
L 348.763991 916.839262 
L 353.309168 920.115397 
L 357.854344 915.385611 
L 362.399521 914.821508 
L 366.944698 914.626243 
L 371.489875 916.144982 
L 376.035052 915.559181 
L 380.580229 915.602573 
L 385.125406 914.864898 
L 389.670583 913.51973 
L 394.215759 913.671605 
L 398.760936 912.41322 
L 403.306113 912.131168 
L 407.85129 911.957597 
L 412.396467 910.937876 
L 416.941644 913.649906 
L 421.486821 910.352078 
L 426.031998 911.567065 
L 430.577174 912.152866 
L 435.122351 910.438858 
L 439.667528 912.890539 
L 444.212705 911.111446 
L 448.757882 912.109472 
L 453.303059 912.456616 
L 457.848236 913.020715 
L 462.393413 913.888569 
L 466.938589 912.304739 
L 471.483766 912.044384 
L 476.028943 911.41519 
L 480.57412 911.328407 
L 485.119297 910.872787 
L 489.664474 911.068052 
L 494.209651 912.890538 
L 498.754828 913.237679 
L 503.300005 914.539454 
L 507.845181 911.436891 
L 512.390358 913.780086 
L 516.935535 913.714995 
L 521.480712 916.709081 
L 526.025889 914.322495 
L 530.571066 915.862928 
L 535.116243 915.776144 
L 539.66142 916.969438 
L 544.206596 917.858986 
L 548.751773 915.86293 
L 553.29695 917.077922 
L 557.842127 915.277129 
L 562.387304 917.403363 
L 566.932481 915.255432 
L 571.477658 916.340245 
L 576.022835 916.860956 
L 580.568011 915.841229 
L 585.113188 915.645964 
L 589.658365 918.032559 
L 594.203542 916.774171 
L 598.748719 917.403363 
L 603.293896 919.073977 
L 607.839073 919.681473 
L 612.38425 918.77023 
L 616.929426 918.18443 
L 621.474603 921.352086 
L 626.01978 917.359971 
L 630.564957 915.363915 
L 635.110134 914.539457 
L 639.655311 916.123283 
L 644.200488 913.953654 
L 648.745665 916.817561 
L 653.290841 913.671603 
L 657.836018 914.083834 
L 662.381195 913.801784 
L 666.926372 914.843204 
L 671.471549 916.275157 
L 676.016726 914.344187 
" clip-path="url(#p970adb2f67)" style="fill: none; stroke: #9467bd; stroke-width: 1.5; stroke-linecap: square"/>
   </g>
   <g id="patch_9">
    <path d="M 108.096875 1000.13125 
L 108.096875 696.383438 
" style="fill: none; stroke: #000000; stroke-width: 0.8; stroke-linejoin: miter; stroke-linecap: square"/>
   </g>
   <g id="patch_10">
    <path d="M 703.060528 1000.13125 
L 703.060528 696.383438 
" style="fill: none; stroke: #000000; stroke-width: 0.8; stroke-linejoin: miter; stroke-linecap: square"/>
   </g>
   <g id="patch_11">
    <path d="M 108.096875 1000.13125 
L 703.060528 1000.13125 
" style="fill: none; stroke: #000000; stroke-width: 0.8; stroke-linejoin: miter; stroke-linecap: square"/>
   </g>
   <g id="patch_12">
    <path d="M 108.096875 696.383438 
L 703.060528 696.383438 
" style="fill: none; stroke: #000000; stroke-width: 0.8; stroke-linejoin: miter; stroke-linecap: square"/>
   </g>
   <g id="text_41">
    <!-- Test -->
    <g transform="translate(376.042764 690.144375)scale(0.3 -0.3)">
     <use xlink:href="#DejaVuSans-54"/>
     <use xlink:href="#DejaVuSans-65" x="44.083984"/>
     <use xlink:href="#DejaVuSans-73" x="105.607422"/>
     <use xlink:href="#DejaVuSans-74" x="157.707031"/>
    </g>
   </g>
   <g id="legend_2">
    <g id="patch_13">
     <path d="M 633.471466 777.774063 
L 696.060528 777.774063 
Q 698.060528 777.774063 698.060528 775.774063 
L 698.060528 703.383438 
Q 698.060528 701.383438 696.060528 701.383438 
L 633.471466 701.383438 
Q 631.471466 701.383438 631.471466 703.383438 
L 631.471466 775.774063 
Q 631.471466 777.774063 633.471466 777.774063 
z
" style="fill: #ffffff; opacity: 0.8; stroke: #cccccc; stroke-linejoin: miter"/>
    </g>
    <g id="line2d_76">
     <path d="M 635.471466 709.481875 
L 645.471466 709.481875 
L 655.471466 709.481875 
" style="fill: none; stroke: #1f77b4; stroke-width: 1.5; stroke-linecap: square"/>
    </g>
    <g id="text_42">
     <!-- task 0 -->
     <g transform="translate(663.471466 712.981875)scale(0.1 -0.1)">
      <use xlink:href="#DejaVuSans-74"/>
      <use xlink:href="#DejaVuSans-61" x="39.208984"/>
      <use xlink:href="#DejaVuSans-73" x="100.488281"/>
      <use xlink:href="#DejaVuSans-6b" x="152.587891"/>
      <use xlink:href="#DejaVuSans-20" x="210.498047"/>
      <use xlink:href="#DejaVuSans-30" x="242.285156"/>
     </g>
    </g>
    <g id="line2d_77">
     <path d="M 635.471466 724.16 
L 645.471466 724.16 
L 655.471466 724.16 
" style="fill: none; stroke: #ff7f0e; stroke-width: 1.5; stroke-linecap: square"/>
    </g>
    <g id="text_43">
     <!-- task 1 -->
     <g transform="translate(663.471466 727.66)scale(0.1 -0.1)">
      <use xlink:href="#DejaVuSans-74"/>
      <use xlink:href="#DejaVuSans-61" x="39.208984"/>
      <use xlink:href="#DejaVuSans-73" x="100.488281"/>
      <use xlink:href="#DejaVuSans-6b" x="152.587891"/>
      <use xlink:href="#DejaVuSans-20" x="210.498047"/>
      <use xlink:href="#DejaVuSans-31" x="242.285156"/>
     </g>
    </g>
    <g id="line2d_78">
     <path d="M 635.471466 738.838125 
L 645.471466 738.838125 
L 655.471466 738.838125 
" style="fill: none; stroke: #2ca02c; stroke-width: 1.5; stroke-linecap: square"/>
    </g>
    <g id="text_44">
     <!-- task 2 -->
     <g transform="translate(663.471466 742.338125)scale(0.1 -0.1)">
      <use xlink:href="#DejaVuSans-74"/>
      <use xlink:href="#DejaVuSans-61" x="39.208984"/>
      <use xlink:href="#DejaVuSans-73" x="100.488281"/>
      <use xlink:href="#DejaVuSans-6b" x="152.587891"/>
      <use xlink:href="#DejaVuSans-20" x="210.498047"/>
      <use xlink:href="#DejaVuSans-32" x="242.285156"/>
     </g>
    </g>
    <g id="line2d_79">
     <path d="M 635.471466 753.51625 
L 645.471466 753.51625 
L 655.471466 753.51625 
" style="fill: none; stroke: #d62728; stroke-width: 1.5; stroke-linecap: square"/>
    </g>
    <g id="text_45">
     <!-- task 3 -->
     <g transform="translate(663.471466 757.01625)scale(0.1 -0.1)">
      <use xlink:href="#DejaVuSans-74"/>
      <use xlink:href="#DejaVuSans-61" x="39.208984"/>
      <use xlink:href="#DejaVuSans-73" x="100.488281"/>
      <use xlink:href="#DejaVuSans-6b" x="152.587891"/>
      <use xlink:href="#DejaVuSans-20" x="210.498047"/>
      <use xlink:href="#DejaVuSans-33" x="242.285156"/>
     </g>
    </g>
    <g id="line2d_80">
     <path d="M 635.471466 768.194375 
L 645.471466 768.194375 
L 655.471466 768.194375 
" style="fill: none; stroke: #9467bd; stroke-width: 1.5; stroke-linecap: square"/>
    </g>
    <g id="text_46">
     <!-- task 4 -->
     <g transform="translate(663.471466 771.694375)scale(0.1 -0.1)">
      <use xlink:href="#DejaVuSans-74"/>
      <use xlink:href="#DejaVuSans-61" x="39.208984"/>
      <use xlink:href="#DejaVuSans-73" x="100.488281"/>
      <use xlink:href="#DejaVuSans-6b" x="152.587891"/>
      <use xlink:href="#DejaVuSans-20" x="210.498047"/>
      <use xlink:href="#DejaVuSans-34" x="242.285156"/>
     </g>
    </g>
   </g>
  </g>
  <g id="text_47">
   <!-- architecture: ResNet18 -->
   <g transform="translate(187.223438 22.795312)scale(0.3 -0.3)">
    <defs>
     <path id="DejaVuSans-68" d="M 3513 2113 
L 3513 0 
L 2938 0 
L 2938 2094 
Q 2938 2591 2744 2837 
Q 2550 3084 2163 3084 
Q 1697 3084 1428 2787 
Q 1159 2491 1159 1978 
L 1159 0 
L 581 0 
L 581 4863 
L 1159 4863 
L 1159 2956 
Q 1366 3272 1645 3428 
Q 1925 3584 2291 3584 
Q 2894 3584 3203 3211 
Q 3513 2838 3513 2113 
z
" transform="scale(0.015625)"/>
     <path id="DejaVuSans-3a" d="M 750 794 
L 1409 794 
L 1409 0 
L 750 0 
L 750 794 
z
M 750 3309 
L 1409 3309 
L 1409 2516 
L 750 2516 
L 750 3309 
z
" transform="scale(0.015625)"/>
     <path id="DejaVuSans-52" d="M 2841 2188 
Q 3044 2119 3236 1894 
Q 3428 1669 3622 1275 
L 4263 0 
L 3584 0 
L 2988 1197 
Q 2756 1666 2539 1819 
Q 2322 1972 1947 1972 
L 1259 1972 
L 1259 0 
L 628 0 
L 628 4666 
L 2053 4666 
Q 2853 4666 3247 4331 
Q 3641 3997 3641 3322 
Q 3641 2881 3436 2590 
Q 3231 2300 2841 2188 
z
M 1259 4147 
L 1259 2491 
L 2053 2491 
Q 2509 2491 2742 2702 
Q 2975 2913 2975 3322 
Q 2975 3731 2742 3939 
Q 2509 4147 2053 4147 
L 1259 4147 
z
" transform="scale(0.015625)"/>
     <path id="DejaVuSans-4e" d="M 628 4666 
L 1478 4666 
L 3547 763 
L 3547 4666 
L 4159 4666 
L 4159 0 
L 3309 0 
L 1241 3903 
L 1241 0 
L 628 0 
L 628 4666 
z
" transform="scale(0.015625)"/>
    </defs>
    <use xlink:href="#DejaVuSans-61"/>
    <use xlink:href="#DejaVuSans-72" x="61.279297"/>
    <use xlink:href="#DejaVuSans-63" x="100.142578"/>
    <use xlink:href="#DejaVuSans-68" x="155.123047"/>
    <use xlink:href="#DejaVuSans-69" x="218.501953"/>
    <use xlink:href="#DejaVuSans-74" x="246.285156"/>
    <use xlink:href="#DejaVuSans-65" x="285.494141"/>
    <use xlink:href="#DejaVuSans-63" x="347.017578"/>
    <use xlink:href="#DejaVuSans-74" x="401.998047"/>
    <use xlink:href="#DejaVuSans-75" x="441.207031"/>
    <use xlink:href="#DejaVuSans-72" x="504.585938"/>
    <use xlink:href="#DejaVuSans-65" x="543.449219"/>
    <use xlink:href="#DejaVuSans-3a" x="604.972656"/>
    <use xlink:href="#DejaVuSans-20" x="638.664062"/>
    <use xlink:href="#DejaVuSans-52" x="670.451172"/>
    <use xlink:href="#DejaVuSans-65" x="735.433594"/>
    <use xlink:href="#DejaVuSans-73" x="796.957031"/>
    <use xlink:href="#DejaVuSans-4e" x="849.056641"/>
    <use xlink:href="#DejaVuSans-65" x="923.861328"/>
    <use xlink:href="#DejaVuSans-74" x="985.384766"/>
    <use xlink:href="#DejaVuSans-31" x="1024.59375"/>
    <use xlink:href="#DejaVuSans-38" x="1088.216797"/>
   </g>
   <!-- dataset: CIFAR10 -->
   <g transform="translate(231.539062 56.38875)scale(0.3 -0.3)">
    <defs>
     <path id="DejaVuSans-64" d="M 2906 2969 
L 2906 4863 
L 3481 4863 
L 3481 0 
L 2906 0 
L 2906 525 
Q 2725 213 2448 61 
Q 2172 -91 1784 -91 
Q 1150 -91 751 415 
Q 353 922 353 1747 
Q 353 2572 751 3078 
Q 1150 3584 1784 3584 
Q 2172 3584 2448 3432 
Q 2725 3281 2906 2969 
z
M 947 1747 
Q 947 1113 1208 752 
Q 1469 391 1925 391 
Q 2381 391 2643 752 
Q 2906 1113 2906 1747 
Q 2906 2381 2643 2742 
Q 2381 3103 1925 3103 
Q 1469 3103 1208 2742 
Q 947 2381 947 1747 
z
" transform="scale(0.015625)"/>
     <path id="DejaVuSans-43" d="M 4122 4306 
L 4122 3641 
Q 3803 3938 3442 4084 
Q 3081 4231 2675 4231 
Q 1875 4231 1450 3742 
Q 1025 3253 1025 2328 
Q 1025 1406 1450 917 
Q 1875 428 2675 428 
Q 3081 428 3442 575 
Q 3803 722 4122 1019 
L 4122 359 
Q 3791 134 3420 21 
Q 3050 -91 2638 -91 
Q 1578 -91 968 557 
Q 359 1206 359 2328 
Q 359 3453 968 4101 
Q 1578 4750 2638 4750 
Q 3056 4750 3426 4639 
Q 3797 4528 4122 4306 
z
" transform="scale(0.015625)"/>
     <path id="DejaVuSans-49" d="M 628 4666 
L 1259 4666 
L 1259 0 
L 628 0 
L 628 4666 
z
" transform="scale(0.015625)"/>
     <path id="DejaVuSans-46" d="M 628 4666 
L 3309 4666 
L 3309 4134 
L 1259 4134 
L 1259 2759 
L 3109 2759 
L 3109 2228 
L 1259 2228 
L 1259 0 
L 628 0 
L 628 4666 
z
" transform="scale(0.015625)"/>
     <path id="DejaVuSans-41" d="M 2188 4044 
L 1331 1722 
L 3047 1722 
L 2188 4044 
z
M 1831 4666 
L 2547 4666 
L 4325 0 
L 3669 0 
L 3244 1197 
L 1141 1197 
L 716 0 
L 50 0 
L 1831 4666 
z
" transform="scale(0.015625)"/>
    </defs>
    <use xlink:href="#DejaVuSans-64"/>
    <use xlink:href="#DejaVuSans-61" x="63.476562"/>
    <use xlink:href="#DejaVuSans-74" x="124.755859"/>
    <use xlink:href="#DejaVuSans-61" x="163.964844"/>
    <use xlink:href="#DejaVuSans-73" x="225.244141"/>
    <use xlink:href="#DejaVuSans-65" x="277.34375"/>
    <use xlink:href="#DejaVuSans-74" x="338.867188"/>
    <use xlink:href="#DejaVuSans-3a" x="378.076172"/>
    <use xlink:href="#DejaVuSans-20" x="411.767578"/>
    <use xlink:href="#DejaVuSans-43" x="443.554688"/>
    <use xlink:href="#DejaVuSans-49" x="513.378906"/>
    <use xlink:href="#DejaVuSans-46" x="542.871094"/>
    <use xlink:href="#DejaVuSans-41" x="591.265625"/>
    <use xlink:href="#DejaVuSans-52" x="659.673828"/>
    <use xlink:href="#DejaVuSans-31" x="729.15625"/>
    <use xlink:href="#DejaVuSans-30" x="792.779297"/>
   </g>
   <!-- rehearsal_dataset: stat-wmm -->
   <g transform="translate(139.973438 89.982188)scale(0.3 -0.3)">
    <defs>
     <path id="DejaVuSans-6c" d="M 603 4863 
L 1178 4863 
L 1178 0 
L 603 0 
L 603 4863 
z
" transform="scale(0.015625)"/>
     <path id="DejaVuSans-5f" d="M 3263 -1063 
L 3263 -1509 
L -63 -1509 
L -63 -1063 
L 3263 -1063 
z
" transform="scale(0.015625)"/>
     <path id="DejaVuSans-2d" d="M 313 2009 
L 1997 2009 
L 1997 1497 
L 313 1497 
L 313 2009 
z
" transform="scale(0.015625)"/>
     <path id="DejaVuSans-77" d="M 269 3500 
L 844 3500 
L 1563 769 
L 2278 3500 
L 2956 3500 
L 3675 769 
L 4391 3500 
L 4966 3500 
L 4050 0 
L 3372 0 
L 2619 2869 
L 1863 0 
L 1184 0 
L 269 3500 
z
" transform="scale(0.015625)"/>
     <path id="DejaVuSans-6d" d="M 3328 2828 
Q 3544 3216 3844 3400 
Q 4144 3584 4550 3584 
Q 5097 3584 5394 3201 
Q 5691 2819 5691 2113 
L 5691 0 
L 5113 0 
L 5113 2094 
Q 5113 2597 4934 2840 
Q 4756 3084 4391 3084 
Q 3944 3084 3684 2787 
Q 3425 2491 3425 1978 
L 3425 0 
L 2847 0 
L 2847 2094 
Q 2847 2600 2669 2842 
Q 2491 3084 2119 3084 
Q 1678 3084 1418 2786 
Q 1159 2488 1159 1978 
L 1159 0 
L 581 0 
L 581 3500 
L 1159 3500 
L 1159 2956 
Q 1356 3278 1631 3431 
Q 1906 3584 2284 3584 
Q 2666 3584 2933 3390 
Q 3200 3197 3328 2828 
z
" transform="scale(0.015625)"/>
    </defs>
    <use xlink:href="#DejaVuSans-72"/>
    <use xlink:href="#DejaVuSans-65" x="38.863281"/>
    <use xlink:href="#DejaVuSans-68" x="100.386719"/>
    <use xlink:href="#DejaVuSans-65" x="163.765625"/>
    <use xlink:href="#DejaVuSans-61" x="225.289062"/>
    <use xlink:href="#DejaVuSans-72" x="286.568359"/>
    <use xlink:href="#DejaVuSans-73" x="327.681641"/>
    <use xlink:href="#DejaVuSans-61" x="379.78125"/>
    <use xlink:href="#DejaVuSans-6c" x="441.060547"/>
    <use xlink:href="#DejaVuSans-5f" x="468.84375"/>
    <use xlink:href="#DejaVuSans-64" x="518.84375"/>
    <use xlink:href="#DejaVuSans-61" x="582.320312"/>
    <use xlink:href="#DejaVuSans-74" x="643.599609"/>
    <use xlink:href="#DejaVuSans-61" x="682.808594"/>
    <use xlink:href="#DejaVuSans-73" x="744.087891"/>
    <use xlink:href="#DejaVuSans-65" x="796.1875"/>
    <use xlink:href="#DejaVuSans-74" x="857.710938"/>
    <use xlink:href="#DejaVuSans-3a" x="896.919922"/>
    <use xlink:href="#DejaVuSans-20" x="930.611328"/>
    <use xlink:href="#DejaVuSans-73" x="962.398438"/>
    <use xlink:href="#DejaVuSans-74" x="1014.498047"/>
    <use xlink:href="#DejaVuSans-61" x="1053.707031"/>
    <use xlink:href="#DejaVuSans-74" x="1114.986328"/>
    <use xlink:href="#DejaVuSans-2d" x="1154.195312"/>
    <use xlink:href="#DejaVuSans-77" x="1190.279297"/>
    <use xlink:href="#DejaVuSans-6d" x="1272.066406"/>
    <use xlink:href="#DejaVuSans-6d" x="1369.478516"/>
   </g>
   <!-- batch_size_rehearsal: 16 -->
   <g transform="translate(174.332813 124.41)scale(0.3 -0.3)">
    <defs>
     <path id="DejaVuSans-62" d="M 3116 1747 
Q 3116 2381 2855 2742 
Q 2594 3103 2138 3103 
Q 1681 3103 1420 2742 
Q 1159 2381 1159 1747 
Q 1159 1113 1420 752 
Q 1681 391 2138 391 
Q 2594 391 2855 752 
Q 3116 1113 3116 1747 
z
M 1159 2969 
Q 1341 3281 1617 3432 
Q 1894 3584 2278 3584 
Q 2916 3584 3314 3078 
Q 3713 2572 3713 1747 
Q 3713 922 3314 415 
Q 2916 -91 2278 -91 
Q 1894 -91 1617 61 
Q 1341 213 1159 525 
L 1159 0 
L 581 0 
L 581 4863 
L 1159 4863 
L 1159 2969 
z
" transform="scale(0.015625)"/>
     <path id="DejaVuSans-7a" d="M 353 3500 
L 3084 3500 
L 3084 2975 
L 922 459 
L 3084 459 
L 3084 0 
L 275 0 
L 275 525 
L 2438 3041 
L 353 3041 
L 353 3500 
z
" transform="scale(0.015625)"/>
    </defs>
    <use xlink:href="#DejaVuSans-62"/>
    <use xlink:href="#DejaVuSans-61" x="63.476562"/>
    <use xlink:href="#DejaVuSans-74" x="124.755859"/>
    <use xlink:href="#DejaVuSans-63" x="163.964844"/>
    <use xlink:href="#DejaVuSans-68" x="218.945312"/>
    <use xlink:href="#DejaVuSans-5f" x="282.324219"/>
    <use xlink:href="#DejaVuSans-73" x="332.324219"/>
    <use xlink:href="#DejaVuSans-69" x="384.423828"/>
    <use xlink:href="#DejaVuSans-7a" x="412.207031"/>
    <use xlink:href="#DejaVuSans-65" x="464.697266"/>
    <use xlink:href="#DejaVuSans-5f" x="526.220703"/>
    <use xlink:href="#DejaVuSans-72" x="576.220703"/>
    <use xlink:href="#DejaVuSans-65" x="615.083984"/>
    <use xlink:href="#DejaVuSans-68" x="676.607422"/>
    <use xlink:href="#DejaVuSans-65" x="739.986328"/>
    <use xlink:href="#DejaVuSans-61" x="801.509766"/>
    <use xlink:href="#DejaVuSans-72" x="862.789062"/>
    <use xlink:href="#DejaVuSans-73" x="903.902344"/>
    <use xlink:href="#DejaVuSans-61" x="956.001953"/>
    <use xlink:href="#DejaVuSans-6c" x="1017.28125"/>
    <use xlink:href="#DejaVuSans-3a" x="1045.064453"/>
    <use xlink:href="#DejaVuSans-20" x="1078.755859"/>
    <use xlink:href="#DejaVuSans-31" x="1110.542969"/>
    <use xlink:href="#DejaVuSans-36" x="1174.166016"/>
   </g>
   <!-- learning_rate: 0.003 -->
   <g transform="translate(208.073438 158.837813)scale(0.3 -0.3)">
    <defs>
     <path id="DejaVuSans-67" d="M 2906 1791 
Q 2906 2416 2648 2759 
Q 2391 3103 1925 3103 
Q 1463 3103 1205 2759 
Q 947 2416 947 1791 
Q 947 1169 1205 825 
Q 1463 481 1925 481 
Q 2391 481 2648 825 
Q 2906 1169 2906 1791 
z
M 3481 434 
Q 3481 -459 3084 -895 
Q 2688 -1331 1869 -1331 
Q 1566 -1331 1297 -1286 
Q 1028 -1241 775 -1147 
L 775 -588 
Q 1028 -725 1275 -790 
Q 1522 -856 1778 -856 
Q 2344 -856 2625 -561 
Q 2906 -266 2906 331 
L 2906 616 
Q 2728 306 2450 153 
Q 2172 0 1784 0 
Q 1141 0 747 490 
Q 353 981 353 1791 
Q 353 2603 747 3093 
Q 1141 3584 1784 3584 
Q 2172 3584 2450 3431 
Q 2728 3278 2906 2969 
L 2906 3500 
L 3481 3500 
L 3481 434 
z
" transform="scale(0.015625)"/>
     <path id="DejaVuSans-2e" d="M 684 794 
L 1344 794 
L 1344 0 
L 684 0 
L 684 794 
z
" transform="scale(0.015625)"/>
    </defs>
    <use xlink:href="#DejaVuSans-6c"/>
    <use xlink:href="#DejaVuSans-65" x="27.783203"/>
    <use xlink:href="#DejaVuSans-61" x="89.306641"/>
    <use xlink:href="#DejaVuSans-72" x="150.585938"/>
    <use xlink:href="#DejaVuSans-6e" x="189.949219"/>
    <use xlink:href="#DejaVuSans-69" x="253.328125"/>
    <use xlink:href="#DejaVuSans-6e" x="281.111328"/>
    <use xlink:href="#DejaVuSans-67" x="344.490234"/>
    <use xlink:href="#DejaVuSans-5f" x="407.966797"/>
    <use xlink:href="#DejaVuSans-72" x="457.966797"/>
    <use xlink:href="#DejaVuSans-61" x="499.080078"/>
    <use xlink:href="#DejaVuSans-74" x="560.359375"/>
    <use xlink:href="#DejaVuSans-65" x="599.568359"/>
    <use xlink:href="#DejaVuSans-3a" x="661.091797"/>
    <use xlink:href="#DejaVuSans-20" x="694.783203"/>
    <use xlink:href="#DejaVuSans-30" x="726.570312"/>
    <use xlink:href="#DejaVuSans-2e" x="790.193359"/>
    <use xlink:href="#DejaVuSans-30" x="821.980469"/>
    <use xlink:href="#DejaVuSans-30" x="885.603516"/>
    <use xlink:href="#DejaVuSans-33" x="949.226562"/>
   </g>
   <!-- epochs: 5 -->
   <g transform="translate(287.1375 193.265625)scale(0.3 -0.3)">
    <defs>
     <path id="DejaVuSans-6f" d="M 1959 3097 
Q 1497 3097 1228 2736 
Q 959 2375 959 1747 
Q 959 1119 1226 758 
Q 1494 397 1959 397 
Q 2419 397 2687 759 
Q 2956 1122 2956 1747 
Q 2956 2369 2687 2733 
Q 2419 3097 1959 3097 
z
M 1959 3584 
Q 2709 3584 3137 3096 
Q 3566 2609 3566 1747 
Q 3566 888 3137 398 
Q 2709 -91 1959 -91 
Q 1206 -91 779 398 
Q 353 888 353 1747 
Q 353 2609 779 3096 
Q 1206 3584 1959 3584 
z
" transform="scale(0.015625)"/>
    </defs>
    <use xlink:href="#DejaVuSans-65"/>
    <use xlink:href="#DejaVuSans-70" x="61.523438"/>
    <use xlink:href="#DejaVuSans-6f" x="125"/>
    <use xlink:href="#DejaVuSans-63" x="186.181641"/>
    <use xlink:href="#DejaVuSans-68" x="241.162109"/>
    <use xlink:href="#DejaVuSans-73" x="304.541016"/>
    <use xlink:href="#DejaVuSans-3a" x="356.640625"/>
    <use xlink:href="#DejaVuSans-20" x="390.332031"/>
    <use xlink:href="#DejaVuSans-35" x="422.119141"/>
   </g>
   <!-- runs: 10 -->
   <g transform="translate(298.099219 226.859063)scale(0.3 -0.3)">
    <use xlink:href="#DejaVuSans-72"/>
    <use xlink:href="#DejaVuSans-75" x="41.113281"/>
    <use xlink:href="#DejaVuSans-6e" x="104.492188"/>
    <use xlink:href="#DejaVuSans-73" x="167.871094"/>
    <use xlink:href="#DejaVuSans-3a" x="219.970703"/>
    <use xlink:href="#DejaVuSans-20" x="253.662109"/>
    <use xlink:href="#DejaVuSans-31" x="285.449219"/>
    <use xlink:href="#DejaVuSans-30" x="349.072266"/>
   </g>
  </g>
 </g>
 <defs>
  <clipPath id="pec9790b6fd">
   <rect x="108.096875" y="283.7325" width="594.963653" height="303.747812"/>
  </clipPath>
  <clipPath id="p970adb2f67">
   <rect x="108.096875" y="696.383438" width="594.963653" height="303.747812"/>
  </clipPath>
 </defs>
</svg>
