<?xml version="1.0" encoding="utf-8" standalone="no"?>
<!DOCTYPE svg PUBLIC "-//W3C//DTD SVG 1.1//EN"
  "http://www.w3.org/Graphics/SVG/1.1/DTD/svg11.dtd">
<svg xmlns:xlink="http://www.w3.org/1999/xlink" width="720pt" height="1080pt" viewBox="0 0 720 1080" xmlns="http://www.w3.org/2000/svg" version="1.1">
 <metadata>
  <rdf:RDF xmlns:dc="http://purl.org/dc/elements/1.1/" xmlns:cc="http://creativecommons.org/ns#" xmlns:rdf="http://www.w3.org/1999/02/22-rdf-syntax-ns#">
   <cc:Work>
    <dc:type rdf:resource="http://purl.org/dc/dcmitype/StillImage"/>
    <dc:date>2024-02-02T00:29:08.536162</dc:date>
    <dc:format>image/svg+xml</dc:format>
    <dc:creator>
     <cc:Agent>
      <dc:title>Matplotlib v3.5.1, https://matplotlib.org/</dc:title>
     </cc:Agent>
    </dc:creator>
   </cc:Work>
  </rdf:RDF>
 </metadata>
 <defs>
  <style type="text/css">*{stroke-linejoin: round; stroke-linecap: butt}</style>
 </defs>
 <g id="figure_1">
  <g id="patch_1">
   <path d="M 0 1080 
L 720 1080 
L 720 0 
L 0 0 
L 0 1080 
z
" style="fill: none"/>
  </g>
  <g id="axes_1">
   <g id="patch_2">
    <path d="M 108.096875 587.480313 
L 703.060528 587.480313 
L 703.060528 283.7325 
L 108.096875 283.7325 
z
" style="fill: #ffffff"/>
   </g>
   <g id="matplotlib.axis_1">
    <g id="xtick_1">
     <g id="line2d_1">
      <path d="M 135.140677 587.480313 
L 135.140677 283.7325 
" clip-path="url(#pf89c5f02af)" style="fill: none; stroke: #b0b0b0; stroke-width: 0.8; stroke-linecap: square"/>
     </g>
     <g id="line2d_2">
      <defs>
       <path id="m9a9e49d1d4" d="M 0 0 
L 0 3.5 
" style="stroke: #000000; stroke-width: 0.8"/>
      </defs>
      <g>
       <use xlink:href="#m9a9e49d1d4" x="135.140677" y="587.480313" style="stroke: #000000; stroke-width: 0.8"/>
      </g>
     </g>
     <g id="text_1">
      <!-- 0 -->
      <g transform="translate(125.596927 617.275625)scale(0.3 -0.3)">
       <defs>
        <path id="DejaVuSans-30" d="M 2034 4250 
Q 1547 4250 1301 3770 
Q 1056 3291 1056 2328 
Q 1056 1369 1301 889 
Q 1547 409 2034 409 
Q 2525 409 2770 889 
Q 3016 1369 3016 2328 
Q 3016 3291 2770 3770 
Q 2525 4250 2034 4250 
z
M 2034 4750 
Q 2819 4750 3233 4129 
Q 3647 3509 3647 2328 
Q 3647 1150 3233 529 
Q 2819 -91 2034 -91 
Q 1250 -91 836 529 
Q 422 1150 422 2328 
Q 422 3509 836 4129 
Q 1250 4750 2034 4750 
z
" transform="scale(0.015625)"/>
       </defs>
       <use xlink:href="#DejaVuSans-30"/>
      </g>
     </g>
    </g>
    <g id="xtick_2">
     <g id="line2d_3">
      <path d="M 226.044215 587.480313 
L 226.044215 283.7325 
" clip-path="url(#pf89c5f02af)" style="fill: none; stroke: #b0b0b0; stroke-width: 0.8; stroke-linecap: square"/>
     </g>
     <g id="line2d_4">
      <g>
       <use xlink:href="#m9a9e49d1d4" x="226.044215" y="587.480313" style="stroke: #000000; stroke-width: 0.8"/>
      </g>
     </g>
     <g id="text_2">
      <!-- 20 -->
      <g transform="translate(206.956715 617.275625)scale(0.3 -0.3)">
       <defs>
        <path id="DejaVuSans-32" d="M 1228 531 
L 3431 531 
L 3431 0 
L 469 0 
L 469 531 
Q 828 903 1448 1529 
Q 2069 2156 2228 2338 
Q 2531 2678 2651 2914 
Q 2772 3150 2772 3378 
Q 2772 3750 2511 3984 
Q 2250 4219 1831 4219 
Q 1534 4219 1204 4116 
Q 875 4013 500 3803 
L 500 4441 
Q 881 4594 1212 4672 
Q 1544 4750 1819 4750 
Q 2544 4750 2975 4387 
Q 3406 4025 3406 3419 
Q 3406 3131 3298 2873 
Q 3191 2616 2906 2266 
Q 2828 2175 2409 1742 
Q 1991 1309 1228 531 
z
" transform="scale(0.015625)"/>
       </defs>
       <use xlink:href="#DejaVuSans-32"/>
       <use xlink:href="#DejaVuSans-30" x="63.623047"/>
      </g>
     </g>
    </g>
    <g id="xtick_3">
     <g id="line2d_5">
      <path d="M 316.947753 587.480313 
L 316.947753 283.7325 
" clip-path="url(#pf89c5f02af)" style="fill: none; stroke: #b0b0b0; stroke-width: 0.8; stroke-linecap: square"/>
     </g>
     <g id="line2d_6">
      <g>
       <use xlink:href="#m9a9e49d1d4" x="316.947753" y="587.480313" style="stroke: #000000; stroke-width: 0.8"/>
      </g>
     </g>
     <g id="text_3">
      <!-- 40 -->
      <g transform="translate(297.860253 617.275625)scale(0.3 -0.3)">
       <defs>
        <path id="DejaVuSans-34" d="M 2419 4116 
L 825 1625 
L 2419 1625 
L 2419 4116 
z
M 2253 4666 
L 3047 4666 
L 3047 1625 
L 3713 1625 
L 3713 1100 
L 3047 1100 
L 3047 0 
L 2419 0 
L 2419 1100 
L 313 1100 
L 313 1709 
L 2253 4666 
z
" transform="scale(0.015625)"/>
       </defs>
       <use xlink:href="#DejaVuSans-34"/>
       <use xlink:href="#DejaVuSans-30" x="63.623047"/>
      </g>
     </g>
    </g>
    <g id="xtick_4">
     <g id="line2d_7">
      <path d="M 407.85129 587.480313 
L 407.85129 283.7325 
" clip-path="url(#pf89c5f02af)" style="fill: none; stroke: #b0b0b0; stroke-width: 0.8; stroke-linecap: square"/>
     </g>
     <g id="line2d_8">
      <g>
       <use xlink:href="#m9a9e49d1d4" x="407.85129" y="587.480313" style="stroke: #000000; stroke-width: 0.8"/>
      </g>
     </g>
     <g id="text_4">
      <!-- 60 -->
      <g transform="translate(388.76379 617.275625)scale(0.3 -0.3)">
       <defs>
        <path id="DejaVuSans-36" d="M 2113 2584 
Q 1688 2584 1439 2293 
Q 1191 2003 1191 1497 
Q 1191 994 1439 701 
Q 1688 409 2113 409 
Q 2538 409 2786 701 
Q 3034 994 3034 1497 
Q 3034 2003 2786 2293 
Q 2538 2584 2113 2584 
z
M 3366 4563 
L 3366 3988 
Q 3128 4100 2886 4159 
Q 2644 4219 2406 4219 
Q 1781 4219 1451 3797 
Q 1122 3375 1075 2522 
Q 1259 2794 1537 2939 
Q 1816 3084 2150 3084 
Q 2853 3084 3261 2657 
Q 3669 2231 3669 1497 
Q 3669 778 3244 343 
Q 2819 -91 2113 -91 
Q 1303 -91 875 529 
Q 447 1150 447 2328 
Q 447 3434 972 4092 
Q 1497 4750 2381 4750 
Q 2619 4750 2861 4703 
Q 3103 4656 3366 4563 
z
" transform="scale(0.015625)"/>
       </defs>
       <use xlink:href="#DejaVuSans-36"/>
       <use xlink:href="#DejaVuSans-30" x="63.623047"/>
      </g>
     </g>
    </g>
    <g id="xtick_5">
     <g id="line2d_9">
      <path d="M 498.754828 587.480313 
L 498.754828 283.7325 
" clip-path="url(#pf89c5f02af)" style="fill: none; stroke: #b0b0b0; stroke-width: 0.8; stroke-linecap: square"/>
     </g>
     <g id="line2d_10">
      <g>
       <use xlink:href="#m9a9e49d1d4" x="498.754828" y="587.480313" style="stroke: #000000; stroke-width: 0.8"/>
      </g>
     </g>
     <g id="text_5">
      <!-- 80 -->
      <g transform="translate(479.667328 617.275625)scale(0.3 -0.3)">
       <defs>
        <path id="DejaVuSans-38" d="M 2034 2216 
Q 1584 2216 1326 1975 
Q 1069 1734 1069 1313 
Q 1069 891 1326 650 
Q 1584 409 2034 409 
Q 2484 409 2743 651 
Q 3003 894 3003 1313 
Q 3003 1734 2745 1975 
Q 2488 2216 2034 2216 
z
M 1403 2484 
Q 997 2584 770 2862 
Q 544 3141 544 3541 
Q 544 4100 942 4425 
Q 1341 4750 2034 4750 
Q 2731 4750 3128 4425 
Q 3525 4100 3525 3541 
Q 3525 3141 3298 2862 
Q 3072 2584 2669 2484 
Q 3125 2378 3379 2068 
Q 3634 1759 3634 1313 
Q 3634 634 3220 271 
Q 2806 -91 2034 -91 
Q 1263 -91 848 271 
Q 434 634 434 1313 
Q 434 1759 690 2068 
Q 947 2378 1403 2484 
z
M 1172 3481 
Q 1172 3119 1398 2916 
Q 1625 2713 2034 2713 
Q 2441 2713 2670 2916 
Q 2900 3119 2900 3481 
Q 2900 3844 2670 4047 
Q 2441 4250 2034 4250 
Q 1625 4250 1398 4047 
Q 1172 3844 1172 3481 
z
" transform="scale(0.015625)"/>
       </defs>
       <use xlink:href="#DejaVuSans-38"/>
       <use xlink:href="#DejaVuSans-30" x="63.623047"/>
      </g>
     </g>
    </g>
    <g id="xtick_6">
     <g id="line2d_11">
      <path d="M 589.658365 587.480313 
L 589.658365 283.7325 
" clip-path="url(#pf89c5f02af)" style="fill: none; stroke: #b0b0b0; stroke-width: 0.8; stroke-linecap: square"/>
     </g>
     <g id="line2d_12">
      <g>
       <use xlink:href="#m9a9e49d1d4" x="589.658365" y="587.480313" style="stroke: #000000; stroke-width: 0.8"/>
      </g>
     </g>
     <g id="text_6">
      <!-- 100 -->
      <g transform="translate(561.027115 617.275625)scale(0.3 -0.3)">
       <defs>
        <path id="DejaVuSans-31" d="M 794 531 
L 1825 531 
L 1825 4091 
L 703 3866 
L 703 4441 
L 1819 4666 
L 2450 4666 
L 2450 531 
L 3481 531 
L 3481 0 
L 794 0 
L 794 531 
z
" transform="scale(0.015625)"/>
       </defs>
       <use xlink:href="#DejaVuSans-31"/>
       <use xlink:href="#DejaVuSans-30" x="63.623047"/>
       <use xlink:href="#DejaVuSans-30" x="127.246094"/>
      </g>
     </g>
    </g>
    <g id="xtick_7">
     <g id="line2d_13">
      <path d="M 680.561903 587.480313 
L 680.561903 283.7325 
" clip-path="url(#pf89c5f02af)" style="fill: none; stroke: #b0b0b0; stroke-width: 0.8; stroke-linecap: square"/>
     </g>
     <g id="line2d_14">
      <g>
       <use xlink:href="#m9a9e49d1d4" x="680.561903" y="587.480313" style="stroke: #000000; stroke-width: 0.8"/>
      </g>
     </g>
     <g id="text_7">
      <!-- 120 -->
      <g transform="translate(651.930653 617.275625)scale(0.3 -0.3)">
       <use xlink:href="#DejaVuSans-31"/>
       <use xlink:href="#DejaVuSans-32" x="63.623047"/>
       <use xlink:href="#DejaVuSans-30" x="127.246094"/>
      </g>
     </g>
    </g>
    <g id="text_8">
     <!-- step -->
     <g transform="translate(373.131827 650.31)scale(0.3 -0.3)">
      <defs>
       <path id="DejaVuSans-73" d="M 2834 3397 
L 2834 2853 
Q 2591 2978 2328 3040 
Q 2066 3103 1784 3103 
Q 1356 3103 1142 2972 
Q 928 2841 928 2578 
Q 928 2378 1081 2264 
Q 1234 2150 1697 2047 
L 1894 2003 
Q 2506 1872 2764 1633 
Q 3022 1394 3022 966 
Q 3022 478 2636 193 
Q 2250 -91 1575 -91 
Q 1294 -91 989 -36 
Q 684 19 347 128 
L 347 722 
Q 666 556 975 473 
Q 1284 391 1588 391 
Q 1994 391 2212 530 
Q 2431 669 2431 922 
Q 2431 1156 2273 1281 
Q 2116 1406 1581 1522 
L 1381 1569 
Q 847 1681 609 1914 
Q 372 2147 372 2553 
Q 372 3047 722 3315 
Q 1072 3584 1716 3584 
Q 2034 3584 2315 3537 
Q 2597 3491 2834 3397 
z
" transform="scale(0.015625)"/>
       <path id="DejaVuSans-74" d="M 1172 4494 
L 1172 3500 
L 2356 3500 
L 2356 3053 
L 1172 3053 
L 1172 1153 
Q 1172 725 1289 603 
Q 1406 481 1766 481 
L 2356 481 
L 2356 0 
L 1766 0 
Q 1100 0 847 248 
Q 594 497 594 1153 
L 594 3053 
L 172 3053 
L 172 3500 
L 594 3500 
L 594 4494 
L 1172 4494 
z
" transform="scale(0.015625)"/>
       <path id="DejaVuSans-65" d="M 3597 1894 
L 3597 1613 
L 953 1613 
Q 991 1019 1311 708 
Q 1631 397 2203 397 
Q 2534 397 2845 478 
Q 3156 559 3463 722 
L 3463 178 
Q 3153 47 2828 -22 
Q 2503 -91 2169 -91 
Q 1331 -91 842 396 
Q 353 884 353 1716 
Q 353 2575 817 3079 
Q 1281 3584 2069 3584 
Q 2775 3584 3186 3129 
Q 3597 2675 3597 1894 
z
M 3022 2063 
Q 3016 2534 2758 2815 
Q 2500 3097 2075 3097 
Q 1594 3097 1305 2825 
Q 1016 2553 972 2059 
L 3022 2063 
z
" transform="scale(0.015625)"/>
       <path id="DejaVuSans-70" d="M 1159 525 
L 1159 -1331 
L 581 -1331 
L 581 3500 
L 1159 3500 
L 1159 2969 
Q 1341 3281 1617 3432 
Q 1894 3584 2278 3584 
Q 2916 3584 3314 3078 
Q 3713 2572 3713 1747 
Q 3713 922 3314 415 
Q 2916 -91 2278 -91 
Q 1894 -91 1617 61 
Q 1341 213 1159 525 
z
M 3116 1747 
Q 3116 2381 2855 2742 
Q 2594 3103 2138 3103 
Q 1681 3103 1420 2742 
Q 1159 2381 1159 1747 
Q 1159 1113 1420 752 
Q 1681 391 2138 391 
Q 2594 391 2855 752 
Q 3116 1113 3116 1747 
z
" transform="scale(0.015625)"/>
      </defs>
      <use xlink:href="#DejaVuSans-73"/>
      <use xlink:href="#DejaVuSans-74" x="52.099609"/>
      <use xlink:href="#DejaVuSans-65" x="91.308594"/>
      <use xlink:href="#DejaVuSans-70" x="152.832031"/>
     </g>
    </g>
   </g>
   <g id="matplotlib.axis_2">
    <g id="ytick_1">
     <g id="line2d_15">
      <path d="M 108.096875 587.480313 
L 703.060528 587.480313 
" clip-path="url(#pf89c5f02af)" style="fill: none; stroke: #b0b0b0; stroke-width: 0.8; stroke-linecap: square"/>
     </g>
     <g id="line2d_16">
      <defs>
       <path id="mfa279b4cca" d="M 0 0 
L -3.5 0 
" style="stroke: #000000; stroke-width: 0.8"/>
      </defs>
      <g>
       <use xlink:href="#mfa279b4cca" x="108.096875" y="587.480313" style="stroke: #000000; stroke-width: 0.8"/>
      </g>
     </g>
     <g id="text_9">
      <!-- 30 -->
      <g transform="translate(62.921875 598.877969)scale(0.3 -0.3)">
       <defs>
        <path id="DejaVuSans-33" d="M 2597 2516 
Q 3050 2419 3304 2112 
Q 3559 1806 3559 1356 
Q 3559 666 3084 287 
Q 2609 -91 1734 -91 
Q 1441 -91 1130 -33 
Q 819 25 488 141 
L 488 750 
Q 750 597 1062 519 
Q 1375 441 1716 441 
Q 2309 441 2620 675 
Q 2931 909 2931 1356 
Q 2931 1769 2642 2001 
Q 2353 2234 1838 2234 
L 1294 2234 
L 1294 2753 
L 1863 2753 
Q 2328 2753 2575 2939 
Q 2822 3125 2822 3475 
Q 2822 3834 2567 4026 
Q 2313 4219 1838 4219 
Q 1578 4219 1281 4162 
Q 984 4106 628 3988 
L 628 4550 
Q 988 4650 1302 4700 
Q 1616 4750 1894 4750 
Q 2613 4750 3031 4423 
Q 3450 4097 3450 3541 
Q 3450 3153 3228 2886 
Q 3006 2619 2597 2516 
z
" transform="scale(0.015625)"/>
       </defs>
       <use xlink:href="#DejaVuSans-33"/>
       <use xlink:href="#DejaVuSans-30" x="63.623047"/>
      </g>
     </g>
    </g>
    <g id="ytick_2">
     <g id="line2d_17">
      <path d="M 108.096875 544.087768 
L 703.060528 544.087768 
" clip-path="url(#pf89c5f02af)" style="fill: none; stroke: #b0b0b0; stroke-width: 0.8; stroke-linecap: square"/>
     </g>
     <g id="line2d_18">
      <g>
       <use xlink:href="#mfa279b4cca" x="108.096875" y="544.087768" style="stroke: #000000; stroke-width: 0.8"/>
      </g>
     </g>
     <g id="text_10">
      <!-- 40 -->
      <g transform="translate(62.921875 555.485424)scale(0.3 -0.3)">
       <use xlink:href="#DejaVuSans-34"/>
       <use xlink:href="#DejaVuSans-30" x="63.623047"/>
      </g>
     </g>
    </g>
    <g id="ytick_3">
     <g id="line2d_19">
      <path d="M 108.096875 500.695223 
L 703.060528 500.695223 
" clip-path="url(#pf89c5f02af)" style="fill: none; stroke: #b0b0b0; stroke-width: 0.8; stroke-linecap: square"/>
     </g>
     <g id="line2d_20">
      <g>
       <use xlink:href="#mfa279b4cca" x="108.096875" y="500.695223" style="stroke: #000000; stroke-width: 0.8"/>
      </g>
     </g>
     <g id="text_11">
      <!-- 50 -->
      <g transform="translate(62.921875 512.092879)scale(0.3 -0.3)">
       <defs>
        <path id="DejaVuSans-35" d="M 691 4666 
L 3169 4666 
L 3169 4134 
L 1269 4134 
L 1269 2991 
Q 1406 3038 1543 3061 
Q 1681 3084 1819 3084 
Q 2600 3084 3056 2656 
Q 3513 2228 3513 1497 
Q 3513 744 3044 326 
Q 2575 -91 1722 -91 
Q 1428 -91 1123 -41 
Q 819 9 494 109 
L 494 744 
Q 775 591 1075 516 
Q 1375 441 1709 441 
Q 2250 441 2565 725 
Q 2881 1009 2881 1497 
Q 2881 1984 2565 2268 
Q 2250 2553 1709 2553 
Q 1456 2553 1204 2497 
Q 953 2441 691 2322 
L 691 4666 
z
" transform="scale(0.015625)"/>
       </defs>
       <use xlink:href="#DejaVuSans-35"/>
       <use xlink:href="#DejaVuSans-30" x="63.623047"/>
      </g>
     </g>
    </g>
    <g id="ytick_4">
     <g id="line2d_21">
      <path d="M 108.096875 457.302679 
L 703.060528 457.302679 
" clip-path="url(#pf89c5f02af)" style="fill: none; stroke: #b0b0b0; stroke-width: 0.8; stroke-linecap: square"/>
     </g>
     <g id="line2d_22">
      <g>
       <use xlink:href="#mfa279b4cca" x="108.096875" y="457.302679" style="stroke: #000000; stroke-width: 0.8"/>
      </g>
     </g>
     <g id="text_12">
      <!-- 60 -->
      <g transform="translate(62.921875 468.700335)scale(0.3 -0.3)">
       <use xlink:href="#DejaVuSans-36"/>
       <use xlink:href="#DejaVuSans-30" x="63.623047"/>
      </g>
     </g>
    </g>
    <g id="ytick_5">
     <g id="line2d_23">
      <path d="M 108.096875 413.910134 
L 703.060528 413.910134 
" clip-path="url(#pf89c5f02af)" style="fill: none; stroke: #b0b0b0; stroke-width: 0.8; stroke-linecap: square"/>
     </g>
     <g id="line2d_24">
      <g>
       <use xlink:href="#mfa279b4cca" x="108.096875" y="413.910134" style="stroke: #000000; stroke-width: 0.8"/>
      </g>
     </g>
     <g id="text_13">
      <!-- 70 -->
      <g transform="translate(62.921875 425.30779)scale(0.3 -0.3)">
       <defs>
        <path id="DejaVuSans-37" d="M 525 4666 
L 3525 4666 
L 3525 4397 
L 1831 0 
L 1172 0 
L 2766 4134 
L 525 4134 
L 525 4666 
z
" transform="scale(0.015625)"/>
       </defs>
       <use xlink:href="#DejaVuSans-37"/>
       <use xlink:href="#DejaVuSans-30" x="63.623047"/>
      </g>
     </g>
    </g>
    <g id="ytick_6">
     <g id="line2d_25">
      <path d="M 108.096875 370.517589 
L 703.060528 370.517589 
" clip-path="url(#pf89c5f02af)" style="fill: none; stroke: #b0b0b0; stroke-width: 0.8; stroke-linecap: square"/>
     </g>
     <g id="line2d_26">
      <g>
       <use xlink:href="#mfa279b4cca" x="108.096875" y="370.517589" style="stroke: #000000; stroke-width: 0.8"/>
      </g>
     </g>
     <g id="text_14">
      <!-- 80 -->
      <g transform="translate(62.921875 381.915246)scale(0.3 -0.3)">
       <use xlink:href="#DejaVuSans-38"/>
       <use xlink:href="#DejaVuSans-30" x="63.623047"/>
      </g>
     </g>
    </g>
    <g id="ytick_7">
     <g id="line2d_27">
      <path d="M 108.096875 327.125045 
L 703.060528 327.125045 
" clip-path="url(#pf89c5f02af)" style="fill: none; stroke: #b0b0b0; stroke-width: 0.8; stroke-linecap: square"/>
     </g>
     <g id="line2d_28">
      <g>
       <use xlink:href="#mfa279b4cca" x="108.096875" y="327.125045" style="stroke: #000000; stroke-width: 0.8"/>
      </g>
     </g>
     <g id="text_15">
      <!-- 90 -->
      <g transform="translate(62.921875 338.522701)scale(0.3 -0.3)">
       <defs>
        <path id="DejaVuSans-39" d="M 703 97 
L 703 672 
Q 941 559 1184 500 
Q 1428 441 1663 441 
Q 2288 441 2617 861 
Q 2947 1281 2994 2138 
Q 2813 1869 2534 1725 
Q 2256 1581 1919 1581 
Q 1219 1581 811 2004 
Q 403 2428 403 3163 
Q 403 3881 828 4315 
Q 1253 4750 1959 4750 
Q 2769 4750 3195 4129 
Q 3622 3509 3622 2328 
Q 3622 1225 3098 567 
Q 2575 -91 1691 -91 
Q 1453 -91 1209 -44 
Q 966 3 703 97 
z
M 1959 2075 
Q 2384 2075 2632 2365 
Q 2881 2656 2881 3163 
Q 2881 3666 2632 3958 
Q 2384 4250 1959 4250 
Q 1534 4250 1286 3958 
Q 1038 3666 1038 3163 
Q 1038 2656 1286 2365 
Q 1534 2075 1959 2075 
z
" transform="scale(0.015625)"/>
       </defs>
       <use xlink:href="#DejaVuSans-39"/>
       <use xlink:href="#DejaVuSans-30" x="63.623047"/>
      </g>
     </g>
    </g>
    <g id="ytick_8">
     <g id="line2d_29">
      <path d="M 108.096875 283.7325 
L 703.060528 283.7325 
" clip-path="url(#pf89c5f02af)" style="fill: none; stroke: #b0b0b0; stroke-width: 0.8; stroke-linecap: square"/>
     </g>
     <g id="line2d_30">
      <g>
       <use xlink:href="#mfa279b4cca" x="108.096875" y="283.7325" style="stroke: #000000; stroke-width: 0.8"/>
      </g>
     </g>
     <g id="text_16">
      <!-- 100 -->
      <g transform="translate(43.834375 295.130156)scale(0.3 -0.3)">
       <use xlink:href="#DejaVuSans-31"/>
       <use xlink:href="#DejaVuSans-30" x="63.623047"/>
       <use xlink:href="#DejaVuSans-30" x="127.246094"/>
      </g>
     </g>
    </g>
    <g id="text_17">
     <!-- accuracy [%] -->
     <g transform="translate(33.595312 534.00875)rotate(-90)scale(0.3 -0.3)">
      <defs>
       <path id="DejaVuSans-61" d="M 2194 1759 
Q 1497 1759 1228 1600 
Q 959 1441 959 1056 
Q 959 750 1161 570 
Q 1363 391 1709 391 
Q 2188 391 2477 730 
Q 2766 1069 2766 1631 
L 2766 1759 
L 2194 1759 
z
M 3341 1997 
L 3341 0 
L 2766 0 
L 2766 531 
Q 2569 213 2275 61 
Q 1981 -91 1556 -91 
Q 1019 -91 701 211 
Q 384 513 384 1019 
Q 384 1609 779 1909 
Q 1175 2209 1959 2209 
L 2766 2209 
L 2766 2266 
Q 2766 2663 2505 2880 
Q 2244 3097 1772 3097 
Q 1472 3097 1187 3025 
Q 903 2953 641 2809 
L 641 3341 
Q 956 3463 1253 3523 
Q 1550 3584 1831 3584 
Q 2591 3584 2966 3190 
Q 3341 2797 3341 1997 
z
" transform="scale(0.015625)"/>
       <path id="DejaVuSans-63" d="M 3122 3366 
L 3122 2828 
Q 2878 2963 2633 3030 
Q 2388 3097 2138 3097 
Q 1578 3097 1268 2742 
Q 959 2388 959 1747 
Q 959 1106 1268 751 
Q 1578 397 2138 397 
Q 2388 397 2633 464 
Q 2878 531 3122 666 
L 3122 134 
Q 2881 22 2623 -34 
Q 2366 -91 2075 -91 
Q 1284 -91 818 406 
Q 353 903 353 1747 
Q 353 2603 823 3093 
Q 1294 3584 2113 3584 
Q 2378 3584 2631 3529 
Q 2884 3475 3122 3366 
z
" transform="scale(0.015625)"/>
       <path id="DejaVuSans-75" d="M 544 1381 
L 544 3500 
L 1119 3500 
L 1119 1403 
Q 1119 906 1312 657 
Q 1506 409 1894 409 
Q 2359 409 2629 706 
Q 2900 1003 2900 1516 
L 2900 3500 
L 3475 3500 
L 3475 0 
L 2900 0 
L 2900 538 
Q 2691 219 2414 64 
Q 2138 -91 1772 -91 
Q 1169 -91 856 284 
Q 544 659 544 1381 
z
M 1991 3584 
L 1991 3584 
z
" transform="scale(0.015625)"/>
       <path id="DejaVuSans-72" d="M 2631 2963 
Q 2534 3019 2420 3045 
Q 2306 3072 2169 3072 
Q 1681 3072 1420 2755 
Q 1159 2438 1159 1844 
L 1159 0 
L 581 0 
L 581 3500 
L 1159 3500 
L 1159 2956 
Q 1341 3275 1631 3429 
Q 1922 3584 2338 3584 
Q 2397 3584 2469 3576 
Q 2541 3569 2628 3553 
L 2631 2963 
z
" transform="scale(0.015625)"/>
       <path id="DejaVuSans-79" d="M 2059 -325 
Q 1816 -950 1584 -1140 
Q 1353 -1331 966 -1331 
L 506 -1331 
L 506 -850 
L 844 -850 
Q 1081 -850 1212 -737 
Q 1344 -625 1503 -206 
L 1606 56 
L 191 3500 
L 800 3500 
L 1894 763 
L 2988 3500 
L 3597 3500 
L 2059 -325 
z
" transform="scale(0.015625)"/>
       <path id="DejaVuSans-20" transform="scale(0.015625)"/>
       <path id="DejaVuSans-5b" d="M 550 4863 
L 1875 4863 
L 1875 4416 
L 1125 4416 
L 1125 -397 
L 1875 -397 
L 1875 -844 
L 550 -844 
L 550 4863 
z
" transform="scale(0.015625)"/>
       <path id="DejaVuSans-25" d="M 4653 2053 
Q 4381 2053 4226 1822 
Q 4072 1591 4072 1178 
Q 4072 772 4226 539 
Q 4381 306 4653 306 
Q 4919 306 5073 539 
Q 5228 772 5228 1178 
Q 5228 1588 5073 1820 
Q 4919 2053 4653 2053 
z
M 4653 2450 
Q 5147 2450 5437 2106 
Q 5728 1763 5728 1178 
Q 5728 594 5436 251 
Q 5144 -91 4653 -91 
Q 4153 -91 3862 251 
Q 3572 594 3572 1178 
Q 3572 1766 3864 2108 
Q 4156 2450 4653 2450 
z
M 1428 4353 
Q 1159 4353 1004 4120 
Q 850 3888 850 3481 
Q 850 3069 1003 2837 
Q 1156 2606 1428 2606 
Q 1700 2606 1854 2837 
Q 2009 3069 2009 3481 
Q 2009 3884 1853 4118 
Q 1697 4353 1428 4353 
z
M 4250 4750 
L 4750 4750 
L 1831 -91 
L 1331 -91 
L 4250 4750 
z
M 1428 4750 
Q 1922 4750 2215 4408 
Q 2509 4066 2509 3481 
Q 2509 2891 2217 2550 
Q 1925 2209 1428 2209 
Q 931 2209 642 2551 
Q 353 2894 353 3481 
Q 353 4063 643 4406 
Q 934 4750 1428 4750 
z
" transform="scale(0.015625)"/>
       <path id="DejaVuSans-5d" d="M 1947 4863 
L 1947 -844 
L 622 -844 
L 622 -397 
L 1369 -397 
L 1369 4416 
L 622 4416 
L 622 4863 
L 1947 4863 
z
" transform="scale(0.015625)"/>
      </defs>
      <use xlink:href="#DejaVuSans-61"/>
      <use xlink:href="#DejaVuSans-63" x="61.279297"/>
      <use xlink:href="#DejaVuSans-63" x="116.259766"/>
      <use xlink:href="#DejaVuSans-75" x="171.240234"/>
      <use xlink:href="#DejaVuSans-72" x="234.619141"/>
      <use xlink:href="#DejaVuSans-61" x="275.732422"/>
      <use xlink:href="#DejaVuSans-63" x="337.011719"/>
      <use xlink:href="#DejaVuSans-79" x="391.992188"/>
      <use xlink:href="#DejaVuSans-20" x="451.171875"/>
      <use xlink:href="#DejaVuSans-5b" x="482.958984"/>
      <use xlink:href="#DejaVuSans-25" x="521.972656"/>
      <use xlink:href="#DejaVuSans-5d" x="616.992188"/>
     </g>
    </g>
   </g>
   <g id="line2d_31">
    <path d="M 135.140677 507.047891 
L 139.685854 444.232845 
L 144.231031 429.52277 
L 148.776208 420.679369 
L 153.321385 412.28725 
L 157.866562 405.214268 
L 162.411739 402.706182 
L 166.956916 394.370477 
L 171.502092 393.485263 
L 176.047269 388.273821 
L 180.592446 386.217015 
L 185.137623 381.869084 
L 189.6828 381.430815 
L 194.227977 378.349948 
L 198.773154 374.192935 
L 203.318331 373.641851 
L 207.863507 378.193735 
L 212.408684 372.322724 
L 216.953861 370.235537 
L 221.499038 368.265522 
L 226.044215 365.484055 
L 230.589392 367.809889 
L 235.134569 365.831193 
L 239.679746 362.433556 
L 244.224922 364.559795 
L 248.770099 362.021325 
L 253.315276 359.604364 
L 257.860453 361.912847 
L 262.40563 357.764517 
L 266.950807 355.3519 
L 271.495984 357.460774 
L 276.041161 356.089565 
L 280.586338 355.82921 
L 285.131514 353.251695 
L 289.676691 352.587787 
L 294.221868 353.603174 
L 298.767045 351.502976 
L 303.312222 352.35781 
L 307.857399 351.251295 
L 312.402576 348.682461 
L 316.947753 355.868262 
L 321.492929 365.718365 
L 326.038106 369.194112 
L 330.583283 368.30891 
L 335.12846 369.102995 
L 339.673637 370.964539 
L 344.218814 370.122716 
L 348.763991 373.299053 
L 353.309168 374.54442 
L 357.854344 372.934551 
L 362.399521 373.728635 
L 366.944698 373.785044 
L 371.489875 372.309697 
L 376.035052 373.863151 
L 380.580229 372.201225 
L 385.125406 373.680903 
L 389.670583 374.995696 
L 394.215759 374.058419 
L 398.760936 374.822132 
L 403.306113 374.388203 
L 407.85129 375.746392 
L 412.396467 373.138499 
L 416.941644 374.275382 
L 421.486821 374.674596 
L 426.031998 374.483668 
L 430.577174 373.016997 
L 435.122351 373.520356 
L 439.667528 373.711281 
L 444.212705 374.822132 
L 448.757882 373.650535 
L 453.303059 374.913259 
L 457.848236 374.900232 
L 462.393413 375.290766 
L 466.938589 374.626864 
L 471.483766 374.505362 
L 476.028943 373.207922 
L 480.57412 373.871834 
L 485.119297 374.288399 
L 489.664474 374.822136 
L 494.209651 373.659215 
L 498.754828 372.873805 
L 503.300005 374.24067 
L 507.845181 376.349548 
L 512.390358 376.931007 
L 516.935535 374.891559 
L 521.480712 377.716411 
L 526.025889 377.425678 
L 530.571066 379.117998 
L 535.116243 380.506555 
L 539.66142 377.074203 
L 544.206596 378.684066 
L 548.751773 379.235147 
L 553.29695 378.983469 
L 557.842127 380.736535 
L 562.387304 382.025294 
L 566.932481 380.011877 
L 571.477658 380.146393 
L 576.022835 379.078936 
L 580.568011 380.424105 
L 585.113188 381.079333 
L 589.658365 382.073026 
L 594.203542 383.118775 
L 598.748719 381.222533 
L 603.293896 382.524299 
L 607.839073 382.61977 
L 612.38425 381.357045 
L 616.929426 382.333381 
L 621.474603 381.994916 
L 626.01978 381.803988 
L 630.564957 381.851723 
L 635.110134 381.925483 
L 639.655311 382.745612 
L 644.200488 381.374402 
L 648.745665 383.305373 
L 653.290841 383.192548 
L 657.836018 383.999653 
L 662.381195 383.726281 
L 666.926372 382.797681 
L 671.471549 383.760996 
L 676.016726 382.498274 
" clip-path="url(#pf89c5f02af)" style="fill: none; stroke: #1f77b4; stroke-width: 1.5; stroke-linecap: square"/>
   </g>
   <g id="line2d_32">
    <path d="M 135.140677 499.953214 
L 139.685854 501.944929 
L 144.231031 500.981612 
L 148.776208 500.447889 
L 153.321385 503.09483 
L 157.866562 502.712979 
L 162.411739 503.303114 
L 166.956916 502.522047 
L 171.502092 502.509033 
L 176.047269 502.708639 
L 180.592446 502.791082 
L 185.137623 503.841179 
L 189.6828 503.563471 
L 194.227977 504.049468 
L 198.773154 503.993056 
L 203.318331 503.09483 
L 207.863507 502.144533 
L 212.408684 502.821459 
L 216.953861 503.810808 
L 221.499038 503.216329 
L 226.044215 503.194633 
L 230.589392 503.81081 
L 235.134569 502.951634 
L 239.679746 503.073133 
L 244.224922 503.034078 
L 248.770099 503.20765 
L 253.315276 503.897592 
L 257.860453 502.860512 
L 262.40563 503.198972 
L 266.950807 503.697987 
L 271.495984 503.307455 
L 276.041161 503.767418 
L 280.586338 503.060117 
L 285.131514 503.680631 
L 289.676691 504.292464 
L 294.221868 504.457359 
L 298.767045 504.947694 
L 303.312222 505.442367 
L 307.857399 504.110216 
L 312.402576 504.39227 
L 316.947753 487.226179 
L 321.492929 432.052557 
L 326.038106 417.338144 
L 330.583283 408.564174 
L 335.12846 401.339317 
L 339.673637 399.104597 
L 344.218814 395.620174 
L 348.763991 388.377962 
L 353.309168 390.725496 
L 357.854344 387.206358 
L 362.399521 385.153893 
L 366.944698 382.797677 
L 371.489875 380.749552 
L 376.035052 378.662372 
L 380.580229 375.885245 
L 385.125406 375.264738 
L 389.670583 376.870261 
L 394.215759 373.767687 
L 398.760936 371.762957 
L 403.306113 371.08169 
L 407.85129 369.91009 
L 412.396467 368.087607 
L 416.941644 367.757826 
L 421.486821 367.193719 
L 426.031998 369.45447 
L 430.577174 363.613837 
L 435.122351 364.433953 
L 439.667528 363.175575 
L 444.212705 363.579122 
L 448.757882 361.366103 
L 453.303059 360.801995 
L 457.848236 360.558995 
L 462.393413 361.813039 
L 466.938589 359.899436 
L 471.483766 359.270246 
L 476.028943 358.13336 
L 480.57412 358.476158 
L 485.119297 357.98148 
L 489.664474 359.378721 
L 494.209651 356.072211 
L 498.754828 359.304947 
L 503.300005 361.51798 
L 507.845181 366.022118 
L 512.390358 365.688 
L 516.935535 366.247761 
L 521.480712 369.185442 
L 526.025889 367.597276 
L 530.571066 370.131396 
L 535.116243 371.589389 
L 539.66142 369.714831 
L 544.206596 369.133366 
L 548.751773 370.430802 
L 553.29695 370.087997 
L 557.842127 370.066313 
L 562.387304 369.818969 
L 566.932481 369.788591 
L 571.477658 370.022915 
L 576.022835 370.591356 
L 580.568011 370.960192 
L 585.113188 371.749936 
L 589.658365 372.240274 
L 594.203542 371.815025 
L 598.748719 370.600033 
L 603.293896 371.754276 
L 607.839073 374.054079 
L 612.38425 371.745596 
L 616.929426 371.975579 
L 621.474603 373.003984 
L 626.01978 372.183861 
L 630.564957 370.860387 
L 635.110134 371.31167 
L 639.655311 371.906149 
L 644.200488 372.001617 
L 648.745665 372.669859 
L 653.290841 372.6959 
L 657.836018 372.956251 
L 662.381195 371.762963 
L 666.926372 371.862761 
L 671.471549 371.723901 
L 676.016726 371.263945 
" clip-path="url(#pf89c5f02af)" style="fill: none; stroke: #ff7f0e; stroke-width: 1.5; stroke-linecap: square"/>
   </g>
   <g id="line2d_33">
    <path d="M 135.140677 499.493251 
L 139.685854 507.785563 
L 144.231031 509.647107 
L 148.776208 508.067616 
L 153.321385 508.462488 
L 157.866562 509.169785 
L 162.411739 509.885764 
L 166.956916 510.497601 
L 171.502092 511.135468 
L 176.047269 509.347696 
L 180.592446 506.527182 
L 185.137623 506.535859 
L 189.6828 507.499174 
L 194.227977 506.540198 
L 198.773154 507.59464 
L 203.318331 507.538228 
L 207.863507 508.0546 
L 212.408684 508.649076 
L 216.953861 508.015545 
L 221.499038 508.33231 
L 226.044215 506.852625 
L 230.589392 507.572943 
L 235.134569 506.874319 
L 239.679746 506.462094 
L 244.224922 506.049863 
L 248.770099 507.12166 
L 253.315276 506.748484 
L 257.860453 507.70312 
L 262.40563 506.440397 
L 266.950807 507.833299 
L 271.495984 507.533888 
L 276.041161 507.05223 
L 280.586338 507.147697 
L 285.131514 505.320867 
L 289.676691 506.488129 
L 294.221868 506.88734 
L 298.767045 506.301539 
L 303.312222 506.410019 
L 307.857399 505.937042 
L 312.402576 507.134675 
L 316.947753 504.466035 
L 321.492929 504.144932 
L 326.038106 505.286152 
L 330.583283 505.442369 
L 335.12846 504.544143 
L 339.673637 504.487731 
L 344.218814 503.875894 
L 348.763991 503.450651 
L 353.309168 502.97767 
L 357.854344 502.765046 
L 362.399521 502.977672 
L 366.944698 501.71061 
L 371.489875 502.665245 
L 376.035052 503.585167 
L 380.580229 499.740589 
L 385.125406 500.226583 
L 389.670583 500.790687 
L 394.215759 501.714947 
L 398.760936 502.760708 
L 403.306113 501.901537 
L 407.85129 502.539408 
L 412.396467 502.678262 
L 416.941644 502.400547 
L 421.486821 503.975702 
L 426.031998 504.917316 
L 430.577174 502.257356 
L 435.122351 501.80607 
L 439.667528 501.775698 
L 444.212705 502.148876 
L 448.757882 501.680236 
L 453.303059 502.496013 
L 457.848236 501.979642 
L 462.393413 502.127175 
L 466.938589 502.74335 
L 471.483766 503.242368 
L 476.028943 501.979644 
L 480.57412 501.905876 
L 485.119297 502.053409 
L 489.664474 501.732305 
L 494.209651 501.819092 
L 498.754828 486.297575 
L 503.300005 422.159054 
L 507.845181 402.68014 
L 512.390358 396.106173 
L 516.935535 390.152722 
L 521.480712 383.925883 
L 526.025889 381.205175 
L 530.571066 375.416611 
L 535.116243 375.104184 
L 539.66142 373.268675 
L 544.206596 371.31167 
L 548.751773 369.211473 
L 553.29695 365.232371 
L 557.842127 363.98701 
L 562.387304 363.939285 
L 566.932481 361.865115 
L 571.477658 362.281683 
L 576.022835 360.255258 
L 580.568011 357.929414 
L 585.113188 357.577929 
L 589.658365 355.330195 
L 594.203542 354.939665 
L 598.748719 355.516787 
L 603.293896 353.451304 
L 607.839073 354.236701 
L 612.38425 352.188573 
L 616.929426 352.82645 
L 621.474603 350.96491 
L 626.01978 350.930198 
L 630.564957 349.754261 
L 635.110134 348.74755 
L 639.655311 347.949126 
L 644.200488 350.765304 
L 648.745665 347.185419 
L 653.290841 346.755831 
L 657.836018 347.493506 
L 662.381195 346.252479 
L 666.926372 344.49942 
L 671.471549 343.970034 
L 676.016726 343.640246 
" clip-path="url(#pf89c5f02af)" style="fill: none; stroke: #2ca02c; stroke-width: 1.5; stroke-linecap: square"/>
   </g>
   <g id="line2d_34">
    <path d="M 135.140677 491.543737 
L 139.685854 491.838805 
L 144.231031 486.262865 
L 148.776208 485.160693 
L 153.321385 484.579231 
L 157.866562 483.832878 
L 162.411739 482.505069 
L 166.956916 482.656944 
L 171.502092 484.175683 
L 176.047269 483.221047 
L 180.592446 483.390274 
L 185.137623 483.650632 
L 189.6828 483.342546 
L 194.227977 481.893233 
L 198.773154 483.338205 
L 203.318331 483.928346 
L 207.863507 483.902311 
L 212.408684 482.917297 
L 216.953861 482.730712 
L 221.499038 482.630908 
L 226.044215 483.082191 
L 230.589392 483.381597 
L 235.134569 481.407237 
L 239.679746 481.806447 
L 244.224922 482.140569 
L 248.770099 483.073509 
L 253.315276 482.40093 
L 257.860453 483.203686 
L 262.40563 482.570155 
L 266.950807 484.119269 
L 271.495984 484.036827 
L 276.041161 485.078246 
L 280.586338 484.700734 
L 285.131514 483.312171 
L 289.676691 484.058525 
L 294.221868 484.427356 
L 298.767045 484.084561 
L 303.312222 483.68101 
L 307.857399 483.364243 
L 312.402576 483.468381 
L 316.947753 485.013156 
L 321.492929 487.651424 
L 326.038106 488.041957 
L 330.583283 486.644717 
L 335.12846 486.45813 
L 339.673637 487.67312 
L 344.218814 485.191067 
L 348.763991 486.488505 
L 353.309168 489.105075 
L 357.854344 488.380422 
L 362.399521 487.872723 
L 366.944698 488.345704 
L 371.489875 487.434461 
L 376.035052 487.521246 
L 380.580229 487.634066 
L 385.125406 486.401718 
L 389.670583 486.002507 
L 394.215759 486.557931 
L 398.760936 485.624996 
L 403.306113 485.985152 
L 407.85129 485.889687 
L 412.396467 486.583967 
L 416.941644 485.928741 
L 421.486821 486.531897 
L 426.031998 487.286926 
L 430.577174 486.124008 
L 435.122351 486.258523 
L 439.667528 486.336628 
L 444.212705 485.598957 
L 448.757882 485.937418 
L 453.303059 486.696787 
L 457.848236 486.128344 
L 462.393413 487.191464 
L 466.938589 486.375683 
L 471.483766 486.384362 
L 476.028943 486.002509 
L 480.57412 486.284558 
L 485.119297 486.176078 
L 489.664474 486.345309 
L 494.209651 485.820256 
L 498.754828 486.358326 
L 503.300005 487.44314 
L 507.845181 487.408425 
L 512.390358 487.417105 
L 516.935535 487.595016 
L 521.480712 487.612372 
L 526.025889 487.742548 
L 530.571066 487.503891 
L 535.116243 487.217498 
L 539.66142 488.849057 
L 544.206596 489.738604 
L 548.751773 490.480619 
L 553.29695 491.226968 
L 557.842127 490.701921 
L 562.387304 490.654189 
L 566.932481 490.307047 
L 571.477658 490.471941 
L 576.022835 489.265627 
L 580.568011 489.79502 
L 585.113188 489.161484 
L 589.658365 490.727955 
L 594.203542 489.634463 
L 598.748719 490.172529 
L 603.293896 489.252608 
L 607.839073 488.506259 
L 612.38425 488.289295 
L 616.929426 488.436829 
L 621.474603 489.053004 
L 626.01978 490.059711 
L 630.564957 489.092058 
L 635.110134 489.187519 
L 639.655311 489.269965 
L 644.200488 491.500344 
L 648.745665 489.890479 
L 653.290841 489.569375 
L 657.836018 488.623419 
L 662.381195 488.597383 
L 666.926372 488.810004 
L 671.471549 489.07904 
L 676.016726 488.701524 
" clip-path="url(#pf89c5f02af)" style="fill: none; stroke: #d62728; stroke-width: 1.5; stroke-linecap: square"/>
   </g>
   <g id="line2d_35">
    <path d="M 135.140677 509.030931 
L 139.685854 507.63369 
L 144.231031 506.336254 
L 148.776208 506.097595 
L 153.321385 506.13231 
L 157.866562 506.036846 
L 162.411739 504.891281 
L 166.956916 505.468405 
L 171.502092 505.234085 
L 176.047269 503.194635 
L 180.592446 504.448679 
L 185.137623 504.301146 
L 189.6828 504.518109 
L 194.227977 505.89799 
L 198.773154 507.295229 
L 203.318331 506.553222 
L 207.863507 506.94809 
L 212.408684 507.112981 
L 216.953861 507.091285 
L 221.499038 507.182411 
L 226.044215 506.093255 
L 230.589392 505.78951 
L 235.134569 505.459726 
L 239.679746 505.455386 
L 244.224922 506.488131 
L 248.770099 506.774518 
L 253.315276 505.385958 
L 257.860453 506.032506 
L 262.40563 507.568601 
L 266.950807 507.0045 
L 271.495984 507.139015 
L 276.041161 505.611599 
L 280.586338 506.444739 
L 285.131514 506.896018 
L 289.676691 506.640005 
L 294.221868 506.648681 
L 298.767045 507.126 
L 303.312222 507.546906 
L 307.857399 507.338622 
L 312.402576 507.633692 
L 316.947753 507.598974 
L 321.492929 506.145327 
L 326.038106 506.023827 
L 330.583283 505.954401 
L 335.12846 506.843948 
L 339.673637 506.709432 
L 344.218814 506.640002 
L 348.763991 506.28852 
L 353.309168 506.501144 
L 357.854344 507.17373 
L 362.399521 507.247498 
L 366.944698 506.974123 
L 371.489875 506.674719 
L 376.035052 506.887338 
L 380.580229 506.826589 
L 385.125406 507.178067 
L 389.670583 507.629352 
L 394.215759 506.770179 
L 398.760936 508.084973 
L 403.306113 507.52521 
L 407.85129 507.403709 
L 412.396467 506.913374 
L 416.941644 507.225799 
L 421.486821 507.147694 
L 426.031998 507.008841 
L 430.577174 506.93941 
L 435.122351 507.112978 
L 439.667528 506.00647 
L 444.212705 506.47077 
L 448.757882 505.871954 
L 453.303059 506.075896 
L 457.848236 506.210415 
L 462.393413 505.398973 
L 466.938589 505.038818 
L 471.483766 505.997791 
L 476.028943 506.075899 
L 480.57412 506.188719 
L 485.119297 505.694043 
L 489.664474 506.036843 
L 494.209651 506.635664 
L 498.754828 506.648683 
L 503.300005 506.167023 
L 507.845181 506.049863 
L 512.390358 505.559527 
L 516.935535 505.633294 
L 521.480712 506.318895 
L 526.025889 506.184379 
L 530.571066 506.145326 
L 535.116243 507.577281 
L 539.66142 506.388328 
L 544.206596 506.570574 
L 548.751773 506.796216 
L 553.29695 506.140986 
L 557.842127 506.436057 
L 562.387304 507.616333 
L 566.932481 507.165048 
L 571.477658 507.256177 
L 576.022835 507.325605 
L 580.568011 507.013178 
L 585.113188 507.434082 
L 589.658365 506.496806 
L 594.203542 507.16939 
L 598.748719 507.026196 
L 603.293896 506.809234 
L 607.839073 507.364659 
L 612.38425 507.455782 
L 616.929426 507.62935 
L 621.474603 507.807259 
L 626.01978 507.347298 
L 630.564957 507.82028 
L 635.110134 507.755189 
L 639.655311 507.490497 
L 644.200488 507.416727 
L 648.745665 506.852623 
L 653.290841 508.028564 
L 657.836018 507.655386 
L 662.381195 508.015545 
L 666.926372 507.017517 
L 671.471549 507.447104 
L 676.016726 508.028564 
" clip-path="url(#pf89c5f02af)" style="fill: none; stroke: #9467bd; stroke-width: 1.5; stroke-linecap: square"/>
   </g>
   <g id="patch_3">
    <path d="M 108.096875 587.480313 
L 108.096875 283.7325 
" style="fill: none; stroke: #000000; stroke-width: 0.8; stroke-linejoin: miter; stroke-linecap: square"/>
   </g>
   <g id="patch_4">
    <path d="M 703.060528 587.480313 
L 703.060528 283.7325 
" style="fill: none; stroke: #000000; stroke-width: 0.8; stroke-linejoin: miter; stroke-linecap: square"/>
   </g>
   <g id="patch_5">
    <path d="M 108.096875 587.480313 
L 703.060528 587.480313 
" style="fill: none; stroke: #000000; stroke-width: 0.8; stroke-linejoin: miter; stroke-linecap: square"/>
   </g>
   <g id="patch_6">
    <path d="M 108.096875 283.7325 
L 703.060528 283.7325 
" style="fill: none; stroke: #000000; stroke-width: 0.8; stroke-linejoin: miter; stroke-linecap: square"/>
   </g>
   <g id="text_18">
    <!-- Train -->
    <g transform="translate(369.597452 277.493438)scale(0.3 -0.3)">
     <defs>
      <path id="DejaVuSans-54" d="M -19 4666 
L 3928 4666 
L 3928 4134 
L 2272 4134 
L 2272 0 
L 1638 0 
L 1638 4134 
L -19 4134 
L -19 4666 
z
" transform="scale(0.015625)"/>
      <path id="DejaVuSans-69" d="M 603 3500 
L 1178 3500 
L 1178 0 
L 603 0 
L 603 3500 
z
M 603 4863 
L 1178 4863 
L 1178 4134 
L 603 4134 
L 603 4863 
z
" transform="scale(0.015625)"/>
      <path id="DejaVuSans-6e" d="M 3513 2113 
L 3513 0 
L 2938 0 
L 2938 2094 
Q 2938 2591 2744 2837 
Q 2550 3084 2163 3084 
Q 1697 3084 1428 2787 
Q 1159 2491 1159 1978 
L 1159 0 
L 581 0 
L 581 3500 
L 1159 3500 
L 1159 2956 
Q 1366 3272 1645 3428 
Q 1925 3584 2291 3584 
Q 2894 3584 3203 3211 
Q 3513 2838 3513 2113 
z
" transform="scale(0.015625)"/>
     </defs>
     <use xlink:href="#DejaVuSans-54"/>
     <use xlink:href="#DejaVuSans-72" x="46.333984"/>
     <use xlink:href="#DejaVuSans-61" x="87.447266"/>
     <use xlink:href="#DejaVuSans-69" x="148.726562"/>
     <use xlink:href="#DejaVuSans-6e" x="176.509766"/>
    </g>
   </g>
   <g id="legend_1">
    <g id="patch_7">
     <path d="M 115.096875 365.123125 
L 177.685937 365.123125 
Q 179.685937 365.123125 179.685937 363.123125 
L 179.685937 290.7325 
Q 179.685937 288.7325 177.685937 288.7325 
L 115.096875 288.7325 
Q 113.096875 288.7325 113.096875 290.7325 
L 113.096875 363.123125 
Q 113.096875 365.123125 115.096875 365.123125 
z
" style="fill: #ffffff; opacity: 0.8; stroke: #cccccc; stroke-linejoin: miter"/>
    </g>
    <g id="line2d_36">
     <path d="M 117.096875 296.830938 
L 127.096875 296.830938 
L 137.096875 296.830938 
" style="fill: none; stroke: #1f77b4; stroke-width: 1.5; stroke-linecap: square"/>
    </g>
    <g id="text_19">
     <!-- task 0 -->
     <g transform="translate(145.096875 300.330938)scale(0.1 -0.1)">
      <defs>
       <path id="DejaVuSans-6b" d="M 581 4863 
L 1159 4863 
L 1159 1991 
L 2875 3500 
L 3609 3500 
L 1753 1863 
L 3688 0 
L 2938 0 
L 1159 1709 
L 1159 0 
L 581 0 
L 581 4863 
z
" transform="scale(0.015625)"/>
      </defs>
      <use xlink:href="#DejaVuSans-74"/>
      <use xlink:href="#DejaVuSans-61" x="39.208984"/>
      <use xlink:href="#DejaVuSans-73" x="100.488281"/>
      <use xlink:href="#DejaVuSans-6b" x="152.587891"/>
      <use xlink:href="#DejaVuSans-20" x="210.498047"/>
      <use xlink:href="#DejaVuSans-30" x="242.285156"/>
     </g>
    </g>
    <g id="line2d_37">
     <path d="M 117.096875 311.509063 
L 127.096875 311.509063 
L 137.096875 311.509063 
" style="fill: none; stroke: #ff7f0e; stroke-width: 1.5; stroke-linecap: square"/>
    </g>
    <g id="text_20">
     <!-- task 1 -->
     <g transform="translate(145.096875 315.009063)scale(0.1 -0.1)">
      <use xlink:href="#DejaVuSans-74"/>
      <use xlink:href="#DejaVuSans-61" x="39.208984"/>
      <use xlink:href="#DejaVuSans-73" x="100.488281"/>
      <use xlink:href="#DejaVuSans-6b" x="152.587891"/>
      <use xlink:href="#DejaVuSans-20" x="210.498047"/>
      <use xlink:href="#DejaVuSans-31" x="242.285156"/>
     </g>
    </g>
    <g id="line2d_38">
     <path d="M 117.096875 326.187188 
L 127.096875 326.187188 
L 137.096875 326.187188 
" style="fill: none; stroke: #2ca02c; stroke-width: 1.5; stroke-linecap: square"/>
    </g>
    <g id="text_21">
     <!-- task 2 -->
     <g transform="translate(145.096875 329.687188)scale(0.1 -0.1)">
      <use xlink:href="#DejaVuSans-74"/>
      <use xlink:href="#DejaVuSans-61" x="39.208984"/>
      <use xlink:href="#DejaVuSans-73" x="100.488281"/>
      <use xlink:href="#DejaVuSans-6b" x="152.587891"/>
      <use xlink:href="#DejaVuSans-20" x="210.498047"/>
      <use xlink:href="#DejaVuSans-32" x="242.285156"/>
     </g>
    </g>
    <g id="line2d_39">
     <path d="M 117.096875 340.865313 
L 127.096875 340.865313 
L 137.096875 340.865313 
" style="fill: none; stroke: #d62728; stroke-width: 1.5; stroke-linecap: square"/>
    </g>
    <g id="text_22">
     <!-- task 3 -->
     <g transform="translate(145.096875 344.365313)scale(0.1 -0.1)">
      <use xlink:href="#DejaVuSans-74"/>
      <use xlink:href="#DejaVuSans-61" x="39.208984"/>
      <use xlink:href="#DejaVuSans-73" x="100.488281"/>
      <use xlink:href="#DejaVuSans-6b" x="152.587891"/>
      <use xlink:href="#DejaVuSans-20" x="210.498047"/>
      <use xlink:href="#DejaVuSans-33" x="242.285156"/>
     </g>
    </g>
    <g id="line2d_40">
     <path d="M 117.096875 355.543438 
L 127.096875 355.543438 
L 137.096875 355.543438 
" style="fill: none; stroke: #9467bd; stroke-width: 1.5; stroke-linecap: square"/>
    </g>
    <g id="text_23">
     <!-- task 4 -->
     <g transform="translate(145.096875 359.043438)scale(0.1 -0.1)">
      <use xlink:href="#DejaVuSans-74"/>
      <use xlink:href="#DejaVuSans-61" x="39.208984"/>
      <use xlink:href="#DejaVuSans-73" x="100.488281"/>
      <use xlink:href="#DejaVuSans-6b" x="152.587891"/>
      <use xlink:href="#DejaVuSans-20" x="210.498047"/>
      <use xlink:href="#DejaVuSans-34" x="242.285156"/>
     </g>
    </g>
   </g>
  </g>
  <g id="axes_2">
   <g id="patch_8">
    <path d="M 108.096875 1000.13125 
L 703.060528 1000.13125 
L 703.060528 696.383438 
L 108.096875 696.383438 
z
" style="fill: #ffffff"/>
   </g>
   <g id="matplotlib.axis_3">
    <g id="xtick_8">
     <g id="line2d_41">
      <path d="M 135.140677 1000.13125 
L 135.140677 696.383438 
" clip-path="url(#p2a6f5eef16)" style="fill: none; stroke: #b0b0b0; stroke-width: 0.8; stroke-linecap: square"/>
     </g>
     <g id="line2d_42">
      <g>
       <use xlink:href="#m9a9e49d1d4" x="135.140677" y="1000.13125" style="stroke: #000000; stroke-width: 0.8"/>
      </g>
     </g>
     <g id="text_24">
      <!-- 0 -->
      <g transform="translate(125.596927 1029.926563)scale(0.3 -0.3)">
       <use xlink:href="#DejaVuSans-30"/>
      </g>
     </g>
    </g>
    <g id="xtick_9">
     <g id="line2d_43">
      <path d="M 226.044215 1000.13125 
L 226.044215 696.383438 
" clip-path="url(#p2a6f5eef16)" style="fill: none; stroke: #b0b0b0; stroke-width: 0.8; stroke-linecap: square"/>
     </g>
     <g id="line2d_44">
      <g>
       <use xlink:href="#m9a9e49d1d4" x="226.044215" y="1000.13125" style="stroke: #000000; stroke-width: 0.8"/>
      </g>
     </g>
     <g id="text_25">
      <!-- 20 -->
      <g transform="translate(206.956715 1029.926563)scale(0.3 -0.3)">
       <use xlink:href="#DejaVuSans-32"/>
       <use xlink:href="#DejaVuSans-30" x="63.623047"/>
      </g>
     </g>
    </g>
    <g id="xtick_10">
     <g id="line2d_45">
      <path d="M 316.947753 1000.13125 
L 316.947753 696.383438 
" clip-path="url(#p2a6f5eef16)" style="fill: none; stroke: #b0b0b0; stroke-width: 0.8; stroke-linecap: square"/>
     </g>
     <g id="line2d_46">
      <g>
       <use xlink:href="#m9a9e49d1d4" x="316.947753" y="1000.13125" style="stroke: #000000; stroke-width: 0.8"/>
      </g>
     </g>
     <g id="text_26">
      <!-- 40 -->
      <g transform="translate(297.860253 1029.926563)scale(0.3 -0.3)">
       <use xlink:href="#DejaVuSans-34"/>
       <use xlink:href="#DejaVuSans-30" x="63.623047"/>
      </g>
     </g>
    </g>
    <g id="xtick_11">
     <g id="line2d_47">
      <path d="M 407.85129 1000.13125 
L 407.85129 696.383438 
" clip-path="url(#p2a6f5eef16)" style="fill: none; stroke: #b0b0b0; stroke-width: 0.8; stroke-linecap: square"/>
     </g>
     <g id="line2d_48">
      <g>
       <use xlink:href="#m9a9e49d1d4" x="407.85129" y="1000.13125" style="stroke: #000000; stroke-width: 0.8"/>
      </g>
     </g>
     <g id="text_27">
      <!-- 60 -->
      <g transform="translate(388.76379 1029.926563)scale(0.3 -0.3)">
       <use xlink:href="#DejaVuSans-36"/>
       <use xlink:href="#DejaVuSans-30" x="63.623047"/>
      </g>
     </g>
    </g>
    <g id="xtick_12">
     <g id="line2d_49">
      <path d="M 498.754828 1000.13125 
L 498.754828 696.383438 
" clip-path="url(#p2a6f5eef16)" style="fill: none; stroke: #b0b0b0; stroke-width: 0.8; stroke-linecap: square"/>
     </g>
     <g id="line2d_50">
      <g>
       <use xlink:href="#m9a9e49d1d4" x="498.754828" y="1000.13125" style="stroke: #000000; stroke-width: 0.8"/>
      </g>
     </g>
     <g id="text_28">
      <!-- 80 -->
      <g transform="translate(479.667328 1029.926563)scale(0.3 -0.3)">
       <use xlink:href="#DejaVuSans-38"/>
       <use xlink:href="#DejaVuSans-30" x="63.623047"/>
      </g>
     </g>
    </g>
    <g id="xtick_13">
     <g id="line2d_51">
      <path d="M 589.658365 1000.13125 
L 589.658365 696.383438 
" clip-path="url(#p2a6f5eef16)" style="fill: none; stroke: #b0b0b0; stroke-width: 0.8; stroke-linecap: square"/>
     </g>
     <g id="line2d_52">
      <g>
       <use xlink:href="#m9a9e49d1d4" x="589.658365" y="1000.13125" style="stroke: #000000; stroke-width: 0.8"/>
      </g>
     </g>
     <g id="text_29">
      <!-- 100 -->
      <g transform="translate(561.027115 1029.926563)scale(0.3 -0.3)">
       <use xlink:href="#DejaVuSans-31"/>
       <use xlink:href="#DejaVuSans-30" x="63.623047"/>
       <use xlink:href="#DejaVuSans-30" x="127.246094"/>
      </g>
     </g>
    </g>
    <g id="xtick_14">
     <g id="line2d_53">
      <path d="M 680.561903 1000.13125 
L 680.561903 696.383438 
" clip-path="url(#p2a6f5eef16)" style="fill: none; stroke: #b0b0b0; stroke-width: 0.8; stroke-linecap: square"/>
     </g>
     <g id="line2d_54">
      <g>
       <use xlink:href="#m9a9e49d1d4" x="680.561903" y="1000.13125" style="stroke: #000000; stroke-width: 0.8"/>
      </g>
     </g>
     <g id="text_30">
      <!-- 120 -->
      <g transform="translate(651.930653 1029.926563)scale(0.3 -0.3)">
       <use xlink:href="#DejaVuSans-31"/>
       <use xlink:href="#DejaVuSans-32" x="63.623047"/>
       <use xlink:href="#DejaVuSans-30" x="127.246094"/>
      </g>
     </g>
    </g>
    <g id="text_31">
     <!-- step -->
     <g transform="translate(373.131827 1062.960938)scale(0.3 -0.3)">
      <use xlink:href="#DejaVuSans-73"/>
      <use xlink:href="#DejaVuSans-74" x="52.099609"/>
      <use xlink:href="#DejaVuSans-65" x="91.308594"/>
      <use xlink:href="#DejaVuSans-70" x="152.832031"/>
     </g>
    </g>
   </g>
   <g id="matplotlib.axis_4">
    <g id="ytick_9">
     <g id="line2d_55">
      <path d="M 108.096875 1000.13125 
L 703.060528 1000.13125 
" clip-path="url(#p2a6f5eef16)" style="fill: none; stroke: #b0b0b0; stroke-width: 0.8; stroke-linecap: square"/>
     </g>
     <g id="line2d_56">
      <g>
       <use xlink:href="#mfa279b4cca" x="108.096875" y="1000.13125" style="stroke: #000000; stroke-width: 0.8"/>
      </g>
     </g>
     <g id="text_32">
      <!-- 30 -->
      <g transform="translate(62.921875 1011.528906)scale(0.3 -0.3)">
       <use xlink:href="#DejaVuSans-33"/>
       <use xlink:href="#DejaVuSans-30" x="63.623047"/>
      </g>
     </g>
    </g>
    <g id="ytick_10">
     <g id="line2d_57">
      <path d="M 108.096875 956.738705 
L 703.060528 956.738705 
" clip-path="url(#p2a6f5eef16)" style="fill: none; stroke: #b0b0b0; stroke-width: 0.8; stroke-linecap: square"/>
     </g>
     <g id="line2d_58">
      <g>
       <use xlink:href="#mfa279b4cca" x="108.096875" y="956.738705" style="stroke: #000000; stroke-width: 0.8"/>
      </g>
     </g>
     <g id="text_33">
      <!-- 40 -->
      <g transform="translate(62.921875 968.136362)scale(0.3 -0.3)">
       <use xlink:href="#DejaVuSans-34"/>
       <use xlink:href="#DejaVuSans-30" x="63.623047"/>
      </g>
     </g>
    </g>
    <g id="ytick_11">
     <g id="line2d_59">
      <path d="M 108.096875 913.346161 
L 703.060528 913.346161 
" clip-path="url(#p2a6f5eef16)" style="fill: none; stroke: #b0b0b0; stroke-width: 0.8; stroke-linecap: square"/>
     </g>
     <g id="line2d_60">
      <g>
       <use xlink:href="#mfa279b4cca" x="108.096875" y="913.346161" style="stroke: #000000; stroke-width: 0.8"/>
      </g>
     </g>
     <g id="text_34">
      <!-- 50 -->
      <g transform="translate(62.921875 924.743817)scale(0.3 -0.3)">
       <use xlink:href="#DejaVuSans-35"/>
       <use xlink:href="#DejaVuSans-30" x="63.623047"/>
      </g>
     </g>
    </g>
    <g id="ytick_12">
     <g id="line2d_61">
      <path d="M 108.096875 869.953616 
L 703.060528 869.953616 
" clip-path="url(#p2a6f5eef16)" style="fill: none; stroke: #b0b0b0; stroke-width: 0.8; stroke-linecap: square"/>
     </g>
     <g id="line2d_62">
      <g>
       <use xlink:href="#mfa279b4cca" x="108.096875" y="869.953616" style="stroke: #000000; stroke-width: 0.8"/>
      </g>
     </g>
     <g id="text_35">
      <!-- 60 -->
      <g transform="translate(62.921875 881.351272)scale(0.3 -0.3)">
       <use xlink:href="#DejaVuSans-36"/>
       <use xlink:href="#DejaVuSans-30" x="63.623047"/>
      </g>
     </g>
    </g>
    <g id="ytick_13">
     <g id="line2d_63">
      <path d="M 108.096875 826.561071 
L 703.060528 826.561071 
" clip-path="url(#p2a6f5eef16)" style="fill: none; stroke: #b0b0b0; stroke-width: 0.8; stroke-linecap: square"/>
     </g>
     <g id="line2d_64">
      <g>
       <use xlink:href="#mfa279b4cca" x="108.096875" y="826.561071" style="stroke: #000000; stroke-width: 0.8"/>
      </g>
     </g>
     <g id="text_36">
      <!-- 70 -->
      <g transform="translate(62.921875 837.958728)scale(0.3 -0.3)">
       <use xlink:href="#DejaVuSans-37"/>
       <use xlink:href="#DejaVuSans-30" x="63.623047"/>
      </g>
     </g>
    </g>
    <g id="ytick_14">
     <g id="line2d_65">
      <path d="M 108.096875 783.168527 
L 703.060528 783.168527 
" clip-path="url(#p2a6f5eef16)" style="fill: none; stroke: #b0b0b0; stroke-width: 0.8; stroke-linecap: square"/>
     </g>
     <g id="line2d_66">
      <g>
       <use xlink:href="#mfa279b4cca" x="108.096875" y="783.168527" style="stroke: #000000; stroke-width: 0.8"/>
      </g>
     </g>
     <g id="text_37">
      <!-- 80 -->
      <g transform="translate(62.921875 794.566183)scale(0.3 -0.3)">
       <use xlink:href="#DejaVuSans-38"/>
       <use xlink:href="#DejaVuSans-30" x="63.623047"/>
      </g>
     </g>
    </g>
    <g id="ytick_15">
     <g id="line2d_67">
      <path d="M 108.096875 739.775982 
L 703.060528 739.775982 
" clip-path="url(#p2a6f5eef16)" style="fill: none; stroke: #b0b0b0; stroke-width: 0.8; stroke-linecap: square"/>
     </g>
     <g id="line2d_68">
      <g>
       <use xlink:href="#mfa279b4cca" x="108.096875" y="739.775982" style="stroke: #000000; stroke-width: 0.8"/>
      </g>
     </g>
     <g id="text_38">
      <!-- 90 -->
      <g transform="translate(62.921875 751.173638)scale(0.3 -0.3)">
       <use xlink:href="#DejaVuSans-39"/>
       <use xlink:href="#DejaVuSans-30" x="63.623047"/>
      </g>
     </g>
    </g>
    <g id="ytick_16">
     <g id="line2d_69">
      <path d="M 108.096875 696.383438 
L 703.060528 696.383438 
" clip-path="url(#p2a6f5eef16)" style="fill: none; stroke: #b0b0b0; stroke-width: 0.8; stroke-linecap: square"/>
     </g>
     <g id="line2d_70">
      <g>
       <use xlink:href="#mfa279b4cca" x="108.096875" y="696.383438" style="stroke: #000000; stroke-width: 0.8"/>
      </g>
     </g>
     <g id="text_39">
      <!-- 100 -->
      <g transform="translate(43.834375 707.781094)scale(0.3 -0.3)">
       <use xlink:href="#DejaVuSans-31"/>
       <use xlink:href="#DejaVuSans-30" x="63.623047"/>
       <use xlink:href="#DejaVuSans-30" x="127.246094"/>
      </g>
     </g>
    </g>
    <g id="text_40">
     <!-- accuracy [%] -->
     <g transform="translate(33.595312 946.659688)rotate(-90)scale(0.3 -0.3)">
      <use xlink:href="#DejaVuSans-61"/>
      <use xlink:href="#DejaVuSans-63" x="61.279297"/>
      <use xlink:href="#DejaVuSans-63" x="116.259766"/>
      <use xlink:href="#DejaVuSans-75" x="171.240234"/>
      <use xlink:href="#DejaVuSans-72" x="234.619141"/>
      <use xlink:href="#DejaVuSans-61" x="275.732422"/>
      <use xlink:href="#DejaVuSans-63" x="337.011719"/>
      <use xlink:href="#DejaVuSans-79" x="391.992188"/>
      <use xlink:href="#DejaVuSans-20" x="451.171875"/>
      <use xlink:href="#DejaVuSans-5b" x="482.958984"/>
      <use xlink:href="#DejaVuSans-25" x="521.972656"/>
      <use xlink:href="#DejaVuSans-5d" x="616.992188"/>
     </g>
    </g>
   </g>
   <g id="line2d_71">
    <path d="M 135.140677 919.768259 
L 139.685854 857.109427 
L 144.231031 843.245504 
L 148.776208 833.829326 
L 153.321385 827.537402 
L 157.866562 821.87467 
L 162.411739 818.012741 
L 166.956916 810.59262 
L 171.502092 808.748427 
L 176.047269 802.89044 
L 180.592446 803.237582 
L 185.137623 798.052168 
L 189.6828 797.726724 
L 194.227977 795.166566 
L 198.773154 790.089633 
L 203.318331 791.304626 
L 207.863507 795.383532 
L 212.408684 789.916062 
L 216.953861 788.353935 
L 221.499038 785.31646 
L 226.044215 782.92987 
L 230.589392 785.273065 
L 235.134569 784.31843 
L 239.679746 781.367742 
L 244.224922 782.387456 
L 248.770099 781.259254 
L 253.315276 781.259254 
L 257.860453 780.890425 
L 262.40563 777.527496 
L 266.950807 776.247421 
L 271.495984 777.505795 
L 276.041161 775.488044 
L 280.586338 773.882522 
L 285.131514 773.448599 
L 289.676691 773.730655 
L 294.221868 773.882525 
L 298.767045 771.495928 
L 303.312222 773.405204 
L 307.857399 772.754323 
L 312.402576 769.955495 
L 316.947753 774.186268 
L 321.492929 784.166553 
L 326.038106 787.117248 
L 330.583283 786.357881 
L 335.12846 785.142889 
L 339.673637 787.269118 
L 344.218814 786.791804 
L 348.763991 789.265177 
L 353.309168 791.044278 
L 357.854344 790.328297 
L 362.399521 790.48017 
L 366.944698 790.154729 
L 371.489875 788.635983 
L 376.035052 788.592598 
L 380.580229 788.722774 
L 385.125406 790.24151 
L 389.670583 790.219812 
L 394.215759 790.827308 
L 398.760936 791.825341 
L 403.306113 790.393386 
L 407.85129 792.129091 
L 412.396467 789.069906 
L 416.941644 790.870707 
L 421.486821 789.981155 
L 426.031998 791.738548 
L 430.577174 789.547233 
L 435.122351 790.393386 
L 439.667528 791.521592 
L 444.212705 792.280958 
L 448.757882 791.304629 
L 453.303059 791.239543 
L 457.848236 791.673458 
L 462.393413 791.955517 
L 466.938589 791.196151 
L 471.483766 790.718827 
L 476.028943 788.939737 
L 480.57412 791.152752 
L 485.119297 790.783913 
L 489.664474 791.131058 
L 494.209651 790.957487 
L 498.754828 787.811524 
L 503.300005 788.115278 
L 507.845181 790.610342 
L 512.390358 790.588651 
L 516.935535 788.48412 
L 521.480712 792.107394 
L 526.025889 791.673462 
L 530.571066 793.387472 
L 535.116243 794.211931 
L 539.66142 791.998909 
L 544.206596 793.105423 
L 548.751773 793.626133 
L 553.29695 792.606405 
L 557.842127 794.841122 
L 562.387304 795.991028 
L 566.932481 794.667551 
L 571.477658 793.148812 
L 576.022835 792.237569 
L 580.568011 793.474259 
L 585.113188 793.821395 
L 589.658365 795.058085 
L 594.203542 796.511734 
L 598.748719 795.426924 
L 603.293896 796.490043 
L 607.839073 796.207994 
L 612.38425 794.949603 
L 616.929426 796.424947 
L 621.474603 795.535402 
L 626.01978 795.296745 
L 630.564957 795.730667 
L 635.110134 794.689245 
L 639.655311 795.643887 
L 644.200488 794.862816 
L 648.745665 796.381555 
L 653.290841 796.49004 
L 657.836018 797.618245 
L 662.381195 797.596548 
L 666.926372 796.164593 
L 671.471549 797.531455 
L 676.016726 796.511734 
" clip-path="url(#p2a6f5eef16)" style="fill: none; stroke: #1f77b4; stroke-width: 1.5; stroke-linecap: square"/>
   </g>
   <g id="line2d_72">
    <path d="M 135.140677 912.261345 
L 139.685854 915.472396 
L 144.231031 914.843204 
L 148.776208 913.671606 
L 153.321385 917.88068 
L 157.866562 917.14301 
L 162.411739 915.819536 
L 166.956916 916.231764 
L 171.502092 916.817564 
L 176.047269 915.559181 
L 180.592446 917.468451 
L 185.137623 915.450698 
L 189.6828 915.689359 
L 194.227977 916.318549 
L 198.773154 917.772202 
L 203.318331 914.647935 
L 207.863507 914.951687 
L 212.408684 914.734724 
L 216.953861 916.926046 
L 221.499038 915.862931 
L 226.044215 915.580877 
L 230.589392 915.537486 
L 235.134569 916.926044 
L 239.679746 916.55721 
L 244.224922 916.730779 
L 248.770099 917.620326 
L 253.315276 917.077921 
L 257.860453 915.190344 
L 262.40563 915.645967 
L 266.950807 915.667661 
L 271.495984 916.535514 
L 276.041161 917.251486 
L 280.586338 917.251488 
L 285.131514 916.578904 
L 289.676691 917.012831 
L 294.221868 917.164708 
L 298.767045 918.878709 
L 303.312222 917.772199 
L 307.857399 918.444786 
L 312.402576 917.359971 
L 316.947753 898.744569 
L 321.492929 843.180416 
L 326.038106 828.470349 
L 330.583283 821.440751 
L 335.12846 816.645871 
L 339.673637 814.866785 
L 344.218814 811.742515 
L 348.763991 805.971305 
L 353.309168 806.49202 
L 357.854344 805.493993 
L 362.399521 801.892414 
L 366.944698 801.02456 
L 371.489875 799.462425 
L 376.035052 797.574854 
L 380.580229 794.580764 
L 385.125406 794.255323 
L 389.670583 795.492004 
L 394.215759 793.582734 
L 398.760936 793.2573 
L 403.306113 791.71686 
L 407.85129 791.456499 
L 412.396467 790.371692 
L 416.941644 789.156693 
L 421.486821 789.373662 
L 426.031998 791.499897 
L 430.577174 786.032441 
L 435.122351 787.095553 
L 439.667528 785.880558 
L 444.212705 786.553143 
L 448.757882 785.381543 
L 453.303059 783.906205 
L 457.848236 784.275038 
L 462.393413 784.62218 
L 466.938589 784.55709 
L 471.483766 783.884504 
L 476.028943 782.344064 
L 480.57412 782.712904 
L 485.119297 781.302646 
L 489.664474 783.797721 
L 494.209651 781.563004 
L 498.754828 782.322377 
L 503.300005 783.38549 
L 507.845181 785.945647 
L 512.390358 784.752355 
L 516.935535 785.728684 
L 521.480712 788.874644 
L 526.025889 787.420994 
L 530.571066 790.089633 
L 535.116243 790.805617 
L 539.66142 788.874644 
L 544.206596 788.223759 
L 548.751773 790.241516 
L 553.29695 788.722771 
L 557.842127 789.113304 
L 562.387304 789.7208 
L 566.932481 788.419031 
L 571.477658 788.136978 
L 576.022835 789.460442 
L 580.568011 788.983132 
L 585.113188 790.067949 
L 589.658365 790.805617 
L 594.203542 790.349991 
L 598.748719 788.78786 
L 603.293896 789.916062 
L 607.839073 792.150786 
L 612.38425 790.154729 
L 616.929426 790.480173 
L 621.474603 790.566954 
L 626.01978 790.241506 
L 630.564957 789.026517 
L 635.110134 789.959467 
L 639.655311 790.718827 
L 644.200488 790.71883 
L 648.745665 791.630073 
L 653.290841 791.998909 
L 657.836018 792.432834 
L 662.381195 791.131065 
L 666.926372 789.981155 
L 671.471549 791.10936 
L 676.016726 791.152756 
" clip-path="url(#p2a6f5eef16)" style="fill: none; stroke: #ff7f0e; stroke-width: 1.5; stroke-linecap: square"/>
   </g>
   <g id="line2d_73">
    <path d="M 135.140677 911.675548 
L 139.685854 919.681473 
L 144.231031 920.050306 
L 148.776208 918.9438 
L 153.321385 918.661746 
L 157.866562 920.245574 
L 162.411739 919.898436 
L 166.956916 921.438868 
L 171.502092 922.111453 
L 176.047269 922.046366 
L 180.592446 920.549324 
L 185.137623 918.227822 
L 189.6828 919.182457 
L 194.227977 919.269244 
L 198.773154 921.113424 
L 203.318331 917.511848 
L 207.863507 919.529597 
L 212.408684 921.634136 
L 216.953861 920.028613 
L 221.499038 918.423089 
L 226.044215 917.143007 
L 230.589392 918.596656 
L 235.134569 919.182457 
L 239.679746 918.9438 
L 244.224922 918.618354 
L 248.770099 920.072005 
L 253.315276 918.705139 
L 257.860453 919.638078 
L 262.40563 919.204154 
L 266.950807 918.9221 
L 271.495984 920.223877 
L 276.041161 918.141038 
L 280.586338 919.269244 
L 285.131514 917.403361 
L 289.676691 917.208096 
L 294.221868 918.119339 
L 298.767045 918.423089 
L 303.312222 918.770229 
L 307.857399 918.032555 
L 312.402576 919.464509 
L 316.947753 917.533542 
L 321.492929 917.858984 
L 326.038106 917.728809 
L 330.583283 916.752478 
L 335.12846 915.84123 
L 339.673637 916.665688 
L 344.218814 917.077921 
L 348.763991 915.732752 
L 353.309168 913.411249 
L 357.854344 914.582846 
L 362.399521 916.101588 
L 366.944698 914.040437 
L 371.489875 915.86293 
L 376.035052 914.713025 
L 380.580229 913.150896 
L 385.125406 912.543399 
L 389.670583 912.673577 
L 394.215759 914.105535 
L 398.760936 914.691329 
L 403.306113 914.430974 
L 407.85129 916.904353 
L 412.396467 915.928016 
L 416.941644 915.320523 
L 421.486821 916.101585 
L 426.031998 915.342219 
L 430.577174 913.758389 
L 435.122351 915.342214 
L 439.667528 914.669631 
L 444.212705 915.884627 
L 448.757882 913.476338 
L 453.303059 915.689357 
L 457.848236 915.277129 
L 462.393413 916.622294 
L 466.938589 915.884622 
L 471.483766 915.819534 
L 476.028943 914.452669 
L 480.57412 914.018746 
L 485.119297 914.279099 
L 489.664474 913.628211 
L 494.209651 914.148924 
L 498.754828 897.486189 
L 503.300005 833.65575 
L 507.845181 815.062047 
L 512.390358 808.943699 
L 516.935535 804.170519 
L 521.480712 798.768145 
L 526.025889 793.799697 
L 530.571066 789.069916 
L 535.116243 789.503834 
L 539.66142 787.486084 
L 544.206596 785.620203 
L 548.751773 784.492001 
L 553.29695 781.23756 
L 557.842127 779.263201 
L 562.387304 779.566948 
L 566.932481 776.681343 
L 571.477658 777.918026 
L 576.022835 776.464377 
L 580.568011 774.663589 
L 585.113188 774.359846 
L 589.658365 772.559051 
L 594.203542 772.146823 
L 598.748719 773.643858 
L 603.293896 771.604416 
L 607.839073 770.476201 
L 612.38425 769.716838 
L 616.929426 771.105401 
L 621.474603 769.239524 
L 626.01978 769.60835 
L 630.564957 768.935774 
L 635.110134 767.82926 
L 639.655311 767.807569 
L 644.200488 769.673439 
L 648.745665 766.744449 
L 653.290841 766.52748 
L 657.836018 766.701054 
L 662.381195 767.699087 
L 666.926372 765.833203 
L 671.471549 764.661606 
L 676.016726 765.117229 
" clip-path="url(#p2a6f5eef16)" style="fill: none; stroke: #2ca02c; stroke-width: 1.5; stroke-linecap: square"/>
   </g>
   <g id="line2d_74">
    <path d="M 135.140677 903.27909 
L 139.685854 905.058189 
L 144.231031 899.894475 
L 148.776208 898.223861 
L 153.321385 897.876718 
L 157.866562 896.336285 
L 162.411739 895.186383 
L 166.956916 895.468434 
L 171.502092 895.446736 
L 176.047269 897.486186 
L 180.592446 896.705119 
L 185.137623 896.856994 
L 189.6828 894.860939 
L 194.227977 892.34417 
L 198.773154 895.772182 
L 203.318331 896.379676 
L 207.863507 897.703149 
L 212.408684 895.62031 
L 216.953861 894.492098 
L 221.499038 895.403343 
L 226.044215 893.862911 
L 230.589392 892.604526 
L 235.134569 892.604526 
L 239.679746 894.470404 
L 244.224922 895.142988 
L 248.770099 895.924055 
L 253.315276 895.880663 
L 257.860453 896.032535 
L 262.40563 894.882633 
L 266.950807 895.945749 
L 271.495984 896.075927 
L 276.041161 898.071986 
L 280.586338 896.726816 
L 285.131514 894.210049 
L 289.676691 897.225833 
L 294.221868 895.208079 
L 298.767045 895.967447 
L 303.312222 895.707091 
L 307.857399 895.967445 
L 312.402576 896.075927 
L 316.947753 898.223858 
L 321.492929 900.350093 
L 326.038106 900.415183 
L 330.583283 898.46252 
L 335.12846 898.071985 
L 339.673637 899.026621 
L 344.218814 898.093681 
L 348.763991 900.632145 
L 353.309168 902.780075 
L 357.854344 901.109463 
L 362.399521 900.089737 
L 366.944698 899.178493 
L 371.489875 899.916169 
L 376.035052 899.113406 
L 380.580229 899.677507 
L 385.125406 897.746542 
L 389.670583 898.939836 
L 394.215759 898.722873 
L 398.760936 898.440824 
L 403.306113 898.484213 
L 407.85129 898.419123 
L 412.396467 898.440821 
L 416.941644 898.419125 
L 421.486821 897.81163 
L 426.031998 897.442794 
L 430.577174 897.204135 
L 435.122351 896.401371 
L 439.667528 898.571 
L 444.212705 898.657785 
L 448.757882 898.245559 
L 453.303059 898.809657 
L 457.848236 897.117348 
L 462.393413 897.356004 
L 466.938589 896.640033 
L 471.483766 897.551272 
L 476.028943 896.379673 
L 480.57412 896.206104 
L 485.119297 898.071986 
L 489.664474 897.486184 
L 494.209651 896.553246 
L 498.754828 897.659758 
L 503.300005 898.896444 
L 507.845181 899.395457 
L 512.390358 900.024648 
L 516.935535 899.829386 
L 521.480712 900.78402 
L 526.025889 901.304731 
L 530.571066 900.068039 
L 535.116243 900.393483 
L 539.66142 902.628204 
L 544.206596 903.995068 
L 548.751773 902.606509 
L 553.29695 904.515775 
L 557.842127 902.736687 
L 562.387304 902.69329 
L 566.932481 902.780078 
L 571.477658 904.363902 
L 576.022835 903.539446 
L 580.568011 903.864889 
L 585.113188 901.608476 
L 589.658365 903.908282 
L 594.203542 902.584808 
L 598.748719 903.148913 
L 603.293896 901.977315 
L 607.839073 900.805713 
L 612.38425 902.389543 
L 616.929426 902.042403 
L 621.474603 902.346148 
L 626.01978 903.452661 
L 630.564957 902.693293 
L 635.110134 902.671595 
L 639.655311 901.977315 
L 644.200488 904.949702 
L 648.745665 903.344178 
L 653.290841 902.476329 
L 657.836018 901.066073 
L 662.381195 900.501968 
L 666.926372 902.150886 
L 671.471549 901.673564 
L 676.016726 901.196248 
" clip-path="url(#p2a6f5eef16)" style="fill: none; stroke: #d62728; stroke-width: 1.5; stroke-linecap: square"/>
   </g>
   <g id="line2d_75">
    <path d="M 135.140677 922.30672 
L 139.685854 923.95564 
L 144.231031 919.269242 
L 148.776208 917.164704 
L 153.321385 918.249516 
L 157.866562 918.357998 
L 162.411739 916.687389 
L 166.956916 918.965496 
L 171.502092 915.884626 
L 176.047269 914.691331 
L 180.592446 915.363915 
L 185.137623 916.622299 
L 189.6828 918.249516 
L 194.227977 917.685415 
L 198.773154 919.030583 
L 203.318331 922.30672 
L 207.863507 919.182458 
L 212.408684 919.139065 
L 216.953861 918.423089 
L 221.499038 917.468452 
L 226.044215 917.815592 
L 230.589392 917.294882 
L 235.134569 916.166676 
L 239.679746 918.075947 
L 244.224922 917.425061 
L 248.770099 917.338273 
L 253.315276 915.49409 
L 257.860453 916.296852 
L 262.40563 916.83926 
L 266.950807 918.705139 
L 271.495984 918.68344 
L 276.041161 917.793897 
L 280.586338 918.444786 
L 285.131514 916.709081 
L 289.676691 915.993105 
L 294.221868 918.010861 
L 298.767045 917.143008 
L 303.312222 918.358001 
L 307.857399 916.361941 
L 312.402576 918.314604 
L 316.947753 919.204153 
L 321.492929 918.965494 
L 326.038106 917.815594 
L 330.583283 919.312636 
L 335.12846 920.419145 
L 339.673637 919.87674 
L 344.218814 920.657804 
L 348.763991 921.091731 
L 353.309168 918.987192 
L 357.854344 920.853071 
L 362.399521 920.571018 
L 366.944698 920.310665 
L 371.489875 921.004947 
L 376.035052 922.306722 
L 380.580229 920.26727 
L 385.125406 920.267272 
L 389.670583 921.200211 
L 394.215759 922.089759 
L 398.760936 922.219936 
L 403.306113 920.440844 
L 407.85129 921.677528 
L 412.396467 921.634134 
L 416.941644 920.983248 
L 421.486821 921.2653 
L 426.031998 923.326448 
L 430.577174 923.087786 
L 435.122351 922.588774 
L 439.667528 920.657805 
L 444.212705 921.547354 
L 448.757882 919.399419 
L 453.303059 920.831376 
L 457.848236 920.288966 
L 462.393413 919.290941 
L 466.938589 918.075945 
L 471.483766 918.509876 
L 476.028943 919.594688 
L 480.57412 920.549322 
L 485.119297 919.941828 
L 489.664474 920.701197 
L 494.209651 921.22191 
L 498.754828 922.046366 
L 503.300005 919.941826 
L 507.845181 919.464509 
L 512.390358 920.028612 
L 516.935535 917.598631 
L 521.480712 918.726835 
L 526.025889 919.681472 
L 530.571066 919.659776 
L 535.116243 921.091731 
L 539.66142 919.594688 
L 544.206596 920.592714 
L 548.751773 920.158789 
L 553.29695 918.466481 
L 557.842127 918.618356 
L 562.387304 919.073975 
L 566.932481 920.180486 
L 571.477658 919.659777 
L 576.022835 919.876738 
L 580.568011 920.050311 
L 585.113188 919.204154 
L 589.658365 918.857014 
L 594.203542 919.659776 
L 598.748719 919.551298 
L 603.293896 920.028612 
L 607.839073 919.464511 
L 612.38425 919.898436 
L 616.929426 919.312636 
L 621.474603 919.941826 
L 626.01978 918.53157 
L 630.564957 919.507902 
L 635.110134 919.486205 
L 639.655311 918.987193 
L 644.200488 919.638078 
L 648.745665 918.553268 
L 653.290841 920.983248 
L 657.836018 919.486206 
L 662.381195 920.440841 
L 666.926372 920.202182 
L 671.471549 919.11737 
L 676.016726 918.857014 
" clip-path="url(#p2a6f5eef16)" style="fill: none; stroke: #9467bd; stroke-width: 1.5; stroke-linecap: square"/>
   </g>
   <g id="patch_9">
    <path d="M 108.096875 1000.13125 
L 108.096875 696.383438 
" style="fill: none; stroke: #000000; stroke-width: 0.8; stroke-linejoin: miter; stroke-linecap: square"/>
   </g>
   <g id="patch_10">
    <path d="M 703.060528 1000.13125 
L 703.060528 696.383438 
" style="fill: none; stroke: #000000; stroke-width: 0.8; stroke-linejoin: miter; stroke-linecap: square"/>
   </g>
   <g id="patch_11">
    <path d="M 108.096875 1000.13125 
L 703.060528 1000.13125 
" style="fill: none; stroke: #000000; stroke-width: 0.8; stroke-linejoin: miter; stroke-linecap: square"/>
   </g>
   <g id="patch_12">
    <path d="M 108.096875 696.383438 
L 703.060528 696.383438 
" style="fill: none; stroke: #000000; stroke-width: 0.8; stroke-linejoin: miter; stroke-linecap: square"/>
   </g>
   <g id="text_41">
    <!-- Test -->
    <g transform="translate(376.042764 690.144375)scale(0.3 -0.3)">
     <use xlink:href="#DejaVuSans-54"/>
     <use xlink:href="#DejaVuSans-65" x="44.083984"/>
     <use xlink:href="#DejaVuSans-73" x="105.607422"/>
     <use xlink:href="#DejaVuSans-74" x="157.707031"/>
    </g>
   </g>
   <g id="legend_2">
    <g id="patch_13">
     <path d="M 115.096875 777.774063 
L 177.685937 777.774063 
Q 179.685937 777.774063 179.685937 775.774063 
L 179.685937 703.383438 
Q 179.685937 701.383438 177.685937 701.383438 
L 115.096875 701.383438 
Q 113.096875 701.383438 113.096875 703.383438 
L 113.096875 775.774063 
Q 113.096875 777.774063 115.096875 777.774063 
z
" style="fill: #ffffff; opacity: 0.8; stroke: #cccccc; stroke-linejoin: miter"/>
    </g>
    <g id="line2d_76">
     <path d="M 117.096875 709.481875 
L 127.096875 709.481875 
L 137.096875 709.481875 
" style="fill: none; stroke: #1f77b4; stroke-width: 1.5; stroke-linecap: square"/>
    </g>
    <g id="text_42">
     <!-- task 0 -->
     <g transform="translate(145.096875 712.981875)scale(0.1 -0.1)">
      <use xlink:href="#DejaVuSans-74"/>
      <use xlink:href="#DejaVuSans-61" x="39.208984"/>
      <use xlink:href="#DejaVuSans-73" x="100.488281"/>
      <use xlink:href="#DejaVuSans-6b" x="152.587891"/>
      <use xlink:href="#DejaVuSans-20" x="210.498047"/>
      <use xlink:href="#DejaVuSans-30" x="242.285156"/>
     </g>
    </g>
    <g id="line2d_77">
     <path d="M 117.096875 724.16 
L 127.096875 724.16 
L 137.096875 724.16 
" style="fill: none; stroke: #ff7f0e; stroke-width: 1.5; stroke-linecap: square"/>
    </g>
    <g id="text_43">
     <!-- task 1 -->
     <g transform="translate(145.096875 727.66)scale(0.1 -0.1)">
      <use xlink:href="#DejaVuSans-74"/>
      <use xlink:href="#DejaVuSans-61" x="39.208984"/>
      <use xlink:href="#DejaVuSans-73" x="100.488281"/>
      <use xlink:href="#DejaVuSans-6b" x="152.587891"/>
      <use xlink:href="#DejaVuSans-20" x="210.498047"/>
      <use xlink:href="#DejaVuSans-31" x="242.285156"/>
     </g>
    </g>
    <g id="line2d_78">
     <path d="M 117.096875 738.838125 
L 127.096875 738.838125 
L 137.096875 738.838125 
" style="fill: none; stroke: #2ca02c; stroke-width: 1.5; stroke-linecap: square"/>
    </g>
    <g id="text_44">
     <!-- task 2 -->
     <g transform="translate(145.096875 742.338125)scale(0.1 -0.1)">
      <use xlink:href="#DejaVuSans-74"/>
      <use xlink:href="#DejaVuSans-61" x="39.208984"/>
      <use xlink:href="#DejaVuSans-73" x="100.488281"/>
      <use xlink:href="#DejaVuSans-6b" x="152.587891"/>
      <use xlink:href="#DejaVuSans-20" x="210.498047"/>
      <use xlink:href="#DejaVuSans-32" x="242.285156"/>
     </g>
    </g>
    <g id="line2d_79">
     <path d="M 117.096875 753.51625 
L 127.096875 753.51625 
L 137.096875 753.51625 
" style="fill: none; stroke: #d62728; stroke-width: 1.5; stroke-linecap: square"/>
    </g>
    <g id="text_45">
     <!-- task 3 -->
     <g transform="translate(145.096875 757.01625)scale(0.1 -0.1)">
      <use xlink:href="#DejaVuSans-74"/>
      <use xlink:href="#DejaVuSans-61" x="39.208984"/>
      <use xlink:href="#DejaVuSans-73" x="100.488281"/>
      <use xlink:href="#DejaVuSans-6b" x="152.587891"/>
      <use xlink:href="#DejaVuSans-20" x="210.498047"/>
      <use xlink:href="#DejaVuSans-33" x="242.285156"/>
     </g>
    </g>
    <g id="line2d_80">
     <path d="M 117.096875 768.194375 
L 127.096875 768.194375 
L 137.096875 768.194375 
" style="fill: none; stroke: #9467bd; stroke-width: 1.5; stroke-linecap: square"/>
    </g>
    <g id="text_46">
     <!-- task 4 -->
     <g transform="translate(145.096875 771.694375)scale(0.1 -0.1)">
      <use xlink:href="#DejaVuSans-74"/>
      <use xlink:href="#DejaVuSans-61" x="39.208984"/>
      <use xlink:href="#DejaVuSans-73" x="100.488281"/>
      <use xlink:href="#DejaVuSans-6b" x="152.587891"/>
      <use xlink:href="#DejaVuSans-20" x="210.498047"/>
      <use xlink:href="#DejaVuSans-34" x="242.285156"/>
     </g>
    </g>
   </g>
  </g>
  <g id="text_47">
   <!-- architecture: ResNet18 -->
   <g transform="translate(187.223438 22.795312)scale(0.3 -0.3)">
    <defs>
     <path id="DejaVuSans-68" d="M 3513 2113 
L 3513 0 
L 2938 0 
L 2938 2094 
Q 2938 2591 2744 2837 
Q 2550 3084 2163 3084 
Q 1697 3084 1428 2787 
Q 1159 2491 1159 1978 
L 1159 0 
L 581 0 
L 581 4863 
L 1159 4863 
L 1159 2956 
Q 1366 3272 1645 3428 
Q 1925 3584 2291 3584 
Q 2894 3584 3203 3211 
Q 3513 2838 3513 2113 
z
" transform="scale(0.015625)"/>
     <path id="DejaVuSans-3a" d="M 750 794 
L 1409 794 
L 1409 0 
L 750 0 
L 750 794 
z
M 750 3309 
L 1409 3309 
L 1409 2516 
L 750 2516 
L 750 3309 
z
" transform="scale(0.015625)"/>
     <path id="DejaVuSans-52" d="M 2841 2188 
Q 3044 2119 3236 1894 
Q 3428 1669 3622 1275 
L 4263 0 
L 3584 0 
L 2988 1197 
Q 2756 1666 2539 1819 
Q 2322 1972 1947 1972 
L 1259 1972 
L 1259 0 
L 628 0 
L 628 4666 
L 2053 4666 
Q 2853 4666 3247 4331 
Q 3641 3997 3641 3322 
Q 3641 2881 3436 2590 
Q 3231 2300 2841 2188 
z
M 1259 4147 
L 1259 2491 
L 2053 2491 
Q 2509 2491 2742 2702 
Q 2975 2913 2975 3322 
Q 2975 3731 2742 3939 
Q 2509 4147 2053 4147 
L 1259 4147 
z
" transform="scale(0.015625)"/>
     <path id="DejaVuSans-4e" d="M 628 4666 
L 1478 4666 
L 3547 763 
L 3547 4666 
L 4159 4666 
L 4159 0 
L 3309 0 
L 1241 3903 
L 1241 0 
L 628 0 
L 628 4666 
z
" transform="scale(0.015625)"/>
    </defs>
    <use xlink:href="#DejaVuSans-61"/>
    <use xlink:href="#DejaVuSans-72" x="61.279297"/>
    <use xlink:href="#DejaVuSans-63" x="100.142578"/>
    <use xlink:href="#DejaVuSans-68" x="155.123047"/>
    <use xlink:href="#DejaVuSans-69" x="218.501953"/>
    <use xlink:href="#DejaVuSans-74" x="246.285156"/>
    <use xlink:href="#DejaVuSans-65" x="285.494141"/>
    <use xlink:href="#DejaVuSans-63" x="347.017578"/>
    <use xlink:href="#DejaVuSans-74" x="401.998047"/>
    <use xlink:href="#DejaVuSans-75" x="441.207031"/>
    <use xlink:href="#DejaVuSans-72" x="504.585938"/>
    <use xlink:href="#DejaVuSans-65" x="543.449219"/>
    <use xlink:href="#DejaVuSans-3a" x="604.972656"/>
    <use xlink:href="#DejaVuSans-20" x="638.664062"/>
    <use xlink:href="#DejaVuSans-52" x="670.451172"/>
    <use xlink:href="#DejaVuSans-65" x="735.433594"/>
    <use xlink:href="#DejaVuSans-73" x="796.957031"/>
    <use xlink:href="#DejaVuSans-4e" x="849.056641"/>
    <use xlink:href="#DejaVuSans-65" x="923.861328"/>
    <use xlink:href="#DejaVuSans-74" x="985.384766"/>
    <use xlink:href="#DejaVuSans-31" x="1024.59375"/>
    <use xlink:href="#DejaVuSans-38" x="1088.216797"/>
   </g>
   <!-- dataset: CIFAR10 -->
   <g transform="translate(231.539062 56.38875)scale(0.3 -0.3)">
    <defs>
     <path id="DejaVuSans-64" d="M 2906 2969 
L 2906 4863 
L 3481 4863 
L 3481 0 
L 2906 0 
L 2906 525 
Q 2725 213 2448 61 
Q 2172 -91 1784 -91 
Q 1150 -91 751 415 
Q 353 922 353 1747 
Q 353 2572 751 3078 
Q 1150 3584 1784 3584 
Q 2172 3584 2448 3432 
Q 2725 3281 2906 2969 
z
M 947 1747 
Q 947 1113 1208 752 
Q 1469 391 1925 391 
Q 2381 391 2643 752 
Q 2906 1113 2906 1747 
Q 2906 2381 2643 2742 
Q 2381 3103 1925 3103 
Q 1469 3103 1208 2742 
Q 947 2381 947 1747 
z
" transform="scale(0.015625)"/>
     <path id="DejaVuSans-43" d="M 4122 4306 
L 4122 3641 
Q 3803 3938 3442 4084 
Q 3081 4231 2675 4231 
Q 1875 4231 1450 3742 
Q 1025 3253 1025 2328 
Q 1025 1406 1450 917 
Q 1875 428 2675 428 
Q 3081 428 3442 575 
Q 3803 722 4122 1019 
L 4122 359 
Q 3791 134 3420 21 
Q 3050 -91 2638 -91 
Q 1578 -91 968 557 
Q 359 1206 359 2328 
Q 359 3453 968 4101 
Q 1578 4750 2638 4750 
Q 3056 4750 3426 4639 
Q 3797 4528 4122 4306 
z
" transform="scale(0.015625)"/>
     <path id="DejaVuSans-49" d="M 628 4666 
L 1259 4666 
L 1259 0 
L 628 0 
L 628 4666 
z
" transform="scale(0.015625)"/>
     <path id="DejaVuSans-46" d="M 628 4666 
L 3309 4666 
L 3309 4134 
L 1259 4134 
L 1259 2759 
L 3109 2759 
L 3109 2228 
L 1259 2228 
L 1259 0 
L 628 0 
L 628 4666 
z
" transform="scale(0.015625)"/>
     <path id="DejaVuSans-41" d="M 2188 4044 
L 1331 1722 
L 3047 1722 
L 2188 4044 
z
M 1831 4666 
L 2547 4666 
L 4325 0 
L 3669 0 
L 3244 1197 
L 1141 1197 
L 716 0 
L 50 0 
L 1831 4666 
z
" transform="scale(0.015625)"/>
    </defs>
    <use xlink:href="#DejaVuSans-64"/>
    <use xlink:href="#DejaVuSans-61" x="63.476562"/>
    <use xlink:href="#DejaVuSans-74" x="124.755859"/>
    <use xlink:href="#DejaVuSans-61" x="163.964844"/>
    <use xlink:href="#DejaVuSans-73" x="225.244141"/>
    <use xlink:href="#DejaVuSans-65" x="277.34375"/>
    <use xlink:href="#DejaVuSans-74" x="338.867188"/>
    <use xlink:href="#DejaVuSans-3a" x="378.076172"/>
    <use xlink:href="#DejaVuSans-20" x="411.767578"/>
    <use xlink:href="#DejaVuSans-43" x="443.554688"/>
    <use xlink:href="#DejaVuSans-49" x="513.378906"/>
    <use xlink:href="#DejaVuSans-46" x="542.871094"/>
    <use xlink:href="#DejaVuSans-41" x="591.265625"/>
    <use xlink:href="#DejaVuSans-52" x="659.673828"/>
    <use xlink:href="#DejaVuSans-31" x="729.15625"/>
    <use xlink:href="#DejaVuSans-30" x="792.779297"/>
   </g>
   <!-- rehearsal_dataset: stat-wmm -->
   <g transform="translate(139.973438 89.982188)scale(0.3 -0.3)">
    <defs>
     <path id="DejaVuSans-6c" d="M 603 4863 
L 1178 4863 
L 1178 0 
L 603 0 
L 603 4863 
z
" transform="scale(0.015625)"/>
     <path id="DejaVuSans-5f" d="M 3263 -1063 
L 3263 -1509 
L -63 -1509 
L -63 -1063 
L 3263 -1063 
z
" transform="scale(0.015625)"/>
     <path id="DejaVuSans-2d" d="M 313 2009 
L 1997 2009 
L 1997 1497 
L 313 1497 
L 313 2009 
z
" transform="scale(0.015625)"/>
     <path id="DejaVuSans-77" d="M 269 3500 
L 844 3500 
L 1563 769 
L 2278 3500 
L 2956 3500 
L 3675 769 
L 4391 3500 
L 4966 3500 
L 4050 0 
L 3372 0 
L 2619 2869 
L 1863 0 
L 1184 0 
L 269 3500 
z
" transform="scale(0.015625)"/>
     <path id="DejaVuSans-6d" d="M 3328 2828 
Q 3544 3216 3844 3400 
Q 4144 3584 4550 3584 
Q 5097 3584 5394 3201 
Q 5691 2819 5691 2113 
L 5691 0 
L 5113 0 
L 5113 2094 
Q 5113 2597 4934 2840 
Q 4756 3084 4391 3084 
Q 3944 3084 3684 2787 
Q 3425 2491 3425 1978 
L 3425 0 
L 2847 0 
L 2847 2094 
Q 2847 2600 2669 2842 
Q 2491 3084 2119 3084 
Q 1678 3084 1418 2786 
Q 1159 2488 1159 1978 
L 1159 0 
L 581 0 
L 581 3500 
L 1159 3500 
L 1159 2956 
Q 1356 3278 1631 3431 
Q 1906 3584 2284 3584 
Q 2666 3584 2933 3390 
Q 3200 3197 3328 2828 
z
" transform="scale(0.015625)"/>
    </defs>
    <use xlink:href="#DejaVuSans-72"/>
    <use xlink:href="#DejaVuSans-65" x="38.863281"/>
    <use xlink:href="#DejaVuSans-68" x="100.386719"/>
    <use xlink:href="#DejaVuSans-65" x="163.765625"/>
    <use xlink:href="#DejaVuSans-61" x="225.289062"/>
    <use xlink:href="#DejaVuSans-72" x="286.568359"/>
    <use xlink:href="#DejaVuSans-73" x="327.681641"/>
    <use xlink:href="#DejaVuSans-61" x="379.78125"/>
    <use xlink:href="#DejaVuSans-6c" x="441.060547"/>
    <use xlink:href="#DejaVuSans-5f" x="468.84375"/>
    <use xlink:href="#DejaVuSans-64" x="518.84375"/>
    <use xlink:href="#DejaVuSans-61" x="582.320312"/>
    <use xlink:href="#DejaVuSans-74" x="643.599609"/>
    <use xlink:href="#DejaVuSans-61" x="682.808594"/>
    <use xlink:href="#DejaVuSans-73" x="744.087891"/>
    <use xlink:href="#DejaVuSans-65" x="796.1875"/>
    <use xlink:href="#DejaVuSans-74" x="857.710938"/>
    <use xlink:href="#DejaVuSans-3a" x="896.919922"/>
    <use xlink:href="#DejaVuSans-20" x="930.611328"/>
    <use xlink:href="#DejaVuSans-73" x="962.398438"/>
    <use xlink:href="#DejaVuSans-74" x="1014.498047"/>
    <use xlink:href="#DejaVuSans-61" x="1053.707031"/>
    <use xlink:href="#DejaVuSans-74" x="1114.986328"/>
    <use xlink:href="#DejaVuSans-2d" x="1154.195312"/>
    <use xlink:href="#DejaVuSans-77" x="1190.279297"/>
    <use xlink:href="#DejaVuSans-6d" x="1272.066406"/>
    <use xlink:href="#DejaVuSans-6d" x="1369.478516"/>
   </g>
   <!-- batch_size_rehearsal: 512 -->
   <g transform="translate(164.789062 124.41)scale(0.3 -0.3)">
    <defs>
     <path id="DejaVuSans-62" d="M 3116 1747 
Q 3116 2381 2855 2742 
Q 2594 3103 2138 3103 
Q 1681 3103 1420 2742 
Q 1159 2381 1159 1747 
Q 1159 1113 1420 752 
Q 1681 391 2138 391 
Q 2594 391 2855 752 
Q 3116 1113 3116 1747 
z
M 1159 2969 
Q 1341 3281 1617 3432 
Q 1894 3584 2278 3584 
Q 2916 3584 3314 3078 
Q 3713 2572 3713 1747 
Q 3713 922 3314 415 
Q 2916 -91 2278 -91 
Q 1894 -91 1617 61 
Q 1341 213 1159 525 
L 1159 0 
L 581 0 
L 581 4863 
L 1159 4863 
L 1159 2969 
z
" transform="scale(0.015625)"/>
     <path id="DejaVuSans-7a" d="M 353 3500 
L 3084 3500 
L 3084 2975 
L 922 459 
L 3084 459 
L 3084 0 
L 275 0 
L 275 525 
L 2438 3041 
L 353 3041 
L 353 3500 
z
" transform="scale(0.015625)"/>
    </defs>
    <use xlink:href="#DejaVuSans-62"/>
    <use xlink:href="#DejaVuSans-61" x="63.476562"/>
    <use xlink:href="#DejaVuSans-74" x="124.755859"/>
    <use xlink:href="#DejaVuSans-63" x="163.964844"/>
    <use xlink:href="#DejaVuSans-68" x="218.945312"/>
    <use xlink:href="#DejaVuSans-5f" x="282.324219"/>
    <use xlink:href="#DejaVuSans-73" x="332.324219"/>
    <use xlink:href="#DejaVuSans-69" x="384.423828"/>
    <use xlink:href="#DejaVuSans-7a" x="412.207031"/>
    <use xlink:href="#DejaVuSans-65" x="464.697266"/>
    <use xlink:href="#DejaVuSans-5f" x="526.220703"/>
    <use xlink:href="#DejaVuSans-72" x="576.220703"/>
    <use xlink:href="#DejaVuSans-65" x="615.083984"/>
    <use xlink:href="#DejaVuSans-68" x="676.607422"/>
    <use xlink:href="#DejaVuSans-65" x="739.986328"/>
    <use xlink:href="#DejaVuSans-61" x="801.509766"/>
    <use xlink:href="#DejaVuSans-72" x="862.789062"/>
    <use xlink:href="#DejaVuSans-73" x="903.902344"/>
    <use xlink:href="#DejaVuSans-61" x="956.001953"/>
    <use xlink:href="#DejaVuSans-6c" x="1017.28125"/>
    <use xlink:href="#DejaVuSans-3a" x="1045.064453"/>
    <use xlink:href="#DejaVuSans-20" x="1078.755859"/>
    <use xlink:href="#DejaVuSans-35" x="1110.542969"/>
    <use xlink:href="#DejaVuSans-31" x="1174.166016"/>
    <use xlink:href="#DejaVuSans-32" x="1237.789062"/>
   </g>
   <!-- learning_rate: 0.003 -->
   <g transform="translate(208.073438 158.837813)scale(0.3 -0.3)">
    <defs>
     <path id="DejaVuSans-67" d="M 2906 1791 
Q 2906 2416 2648 2759 
Q 2391 3103 1925 3103 
Q 1463 3103 1205 2759 
Q 947 2416 947 1791 
Q 947 1169 1205 825 
Q 1463 481 1925 481 
Q 2391 481 2648 825 
Q 2906 1169 2906 1791 
z
M 3481 434 
Q 3481 -459 3084 -895 
Q 2688 -1331 1869 -1331 
Q 1566 -1331 1297 -1286 
Q 1028 -1241 775 -1147 
L 775 -588 
Q 1028 -725 1275 -790 
Q 1522 -856 1778 -856 
Q 2344 -856 2625 -561 
Q 2906 -266 2906 331 
L 2906 616 
Q 2728 306 2450 153 
Q 2172 0 1784 0 
Q 1141 0 747 490 
Q 353 981 353 1791 
Q 353 2603 747 3093 
Q 1141 3584 1784 3584 
Q 2172 3584 2450 3431 
Q 2728 3278 2906 2969 
L 2906 3500 
L 3481 3500 
L 3481 434 
z
" transform="scale(0.015625)"/>
     <path id="DejaVuSans-2e" d="M 684 794 
L 1344 794 
L 1344 0 
L 684 0 
L 684 794 
z
" transform="scale(0.015625)"/>
    </defs>
    <use xlink:href="#DejaVuSans-6c"/>
    <use xlink:href="#DejaVuSans-65" x="27.783203"/>
    <use xlink:href="#DejaVuSans-61" x="89.306641"/>
    <use xlink:href="#DejaVuSans-72" x="150.585938"/>
    <use xlink:href="#DejaVuSans-6e" x="189.949219"/>
    <use xlink:href="#DejaVuSans-69" x="253.328125"/>
    <use xlink:href="#DejaVuSans-6e" x="281.111328"/>
    <use xlink:href="#DejaVuSans-67" x="344.490234"/>
    <use xlink:href="#DejaVuSans-5f" x="407.966797"/>
    <use xlink:href="#DejaVuSans-72" x="457.966797"/>
    <use xlink:href="#DejaVuSans-61" x="499.080078"/>
    <use xlink:href="#DejaVuSans-74" x="560.359375"/>
    <use xlink:href="#DejaVuSans-65" x="599.568359"/>
    <use xlink:href="#DejaVuSans-3a" x="661.091797"/>
    <use xlink:href="#DejaVuSans-20" x="694.783203"/>
    <use xlink:href="#DejaVuSans-30" x="726.570312"/>
    <use xlink:href="#DejaVuSans-2e" x="790.193359"/>
    <use xlink:href="#DejaVuSans-30" x="821.980469"/>
    <use xlink:href="#DejaVuSans-30" x="885.603516"/>
    <use xlink:href="#DejaVuSans-33" x="949.226562"/>
   </g>
   <!-- epochs: 5 -->
   <g transform="translate(287.1375 193.265625)scale(0.3 -0.3)">
    <defs>
     <path id="DejaVuSans-6f" d="M 1959 3097 
Q 1497 3097 1228 2736 
Q 959 2375 959 1747 
Q 959 1119 1226 758 
Q 1494 397 1959 397 
Q 2419 397 2687 759 
Q 2956 1122 2956 1747 
Q 2956 2369 2687 2733 
Q 2419 3097 1959 3097 
z
M 1959 3584 
Q 2709 3584 3137 3096 
Q 3566 2609 3566 1747 
Q 3566 888 3137 398 
Q 2709 -91 1959 -91 
Q 1206 -91 779 398 
Q 353 888 353 1747 
Q 353 2609 779 3096 
Q 1206 3584 1959 3584 
z
" transform="scale(0.015625)"/>
    </defs>
    <use xlink:href="#DejaVuSans-65"/>
    <use xlink:href="#DejaVuSans-70" x="61.523438"/>
    <use xlink:href="#DejaVuSans-6f" x="125"/>
    <use xlink:href="#DejaVuSans-63" x="186.181641"/>
    <use xlink:href="#DejaVuSans-68" x="241.162109"/>
    <use xlink:href="#DejaVuSans-73" x="304.541016"/>
    <use xlink:href="#DejaVuSans-3a" x="356.640625"/>
    <use xlink:href="#DejaVuSans-20" x="390.332031"/>
    <use xlink:href="#DejaVuSans-35" x="422.119141"/>
   </g>
   <!-- runs: 10 -->
   <g transform="translate(298.099219 226.859063)scale(0.3 -0.3)">
    <use xlink:href="#DejaVuSans-72"/>
    <use xlink:href="#DejaVuSans-75" x="41.113281"/>
    <use xlink:href="#DejaVuSans-6e" x="104.492188"/>
    <use xlink:href="#DejaVuSans-73" x="167.871094"/>
    <use xlink:href="#DejaVuSans-3a" x="219.970703"/>
    <use xlink:href="#DejaVuSans-20" x="253.662109"/>
    <use xlink:href="#DejaVuSans-31" x="285.449219"/>
    <use xlink:href="#DejaVuSans-30" x="349.072266"/>
   </g>
  </g>
 </g>
 <defs>
  <clipPath id="pf89c5f02af">
   <rect x="108.096875" y="283.7325" width="594.963653" height="303.747812"/>
  </clipPath>
  <clipPath id="p2a6f5eef16">
   <rect x="108.096875" y="696.383438" width="594.963653" height="303.747812"/>
  </clipPath>
 </defs>
</svg>
