<?xml version="1.0" encoding="utf-8" standalone="no"?>
<!DOCTYPE svg PUBLIC "-//W3C//DTD SVG 1.1//EN"
  "http://www.w3.org/Graphics/SVG/1.1/DTD/svg11.dtd">
<svg xmlns:xlink="http://www.w3.org/1999/xlink" width="1181.501563pt" height="866.6875pt" viewBox="0 0 1181.501563 866.6875" xmlns="http://www.w3.org/2000/svg" version="1.1">
 <metadata>
  <rdf:RDF xmlns:dc="http://purl.org/dc/elements/1.1/" xmlns:cc="http://creativecommons.org/ns#" xmlns:rdf="http://www.w3.org/1999/02/22-rdf-syntax-ns#">
   <cc:Work>
    <dc:type rdf:resource="http://purl.org/dc/dcmitype/StillImage"/>
    <dc:date>2024-02-12T15:18:28.013518</dc:date>
    <dc:format>image/svg+xml</dc:format>
    <dc:creator>
     <cc:Agent>
      <dc:title>Matplotlib v3.5.1, https://matplotlib.org/</dc:title>
     </cc:Agent>
    </dc:creator>
   </cc:Work>
  </rdf:RDF>
 </metadata>
 <defs>
  <style type="text/css">*{stroke-linejoin: round; stroke-linecap: butt}</style>
 </defs>
 <g id="figure_1">
  <g id="patch_1">
   <path d="M -0 866.6875 
L 1181.501563 866.6875 
L 1181.501563 0 
L -0 0 
L -0 866.6875 
z
" style="fill: none"/>
  </g>
  <g id="axes_1">
   <g id="patch_2">
    <path d="M 58.301563 550.8 
L 1174.301563 550.8 
L 1174.301563 7.2 
L 58.301563 7.2 
z
" style="fill: #ffffff"/>
   </g>
   <g id="patch_3">
    <path d="M 71.587277 550.8 
L 98.158705 550.8 
L 98.158705 548.897891 
L 71.587277 548.897891 
z
" clip-path="url(#pc4d8c9089d)" style="fill: #1f77b4"/>
   </g>
   <g id="patch_4">
    <path d="M 124.730134 550.8 
L 151.301562 550.8 
L 151.301562 544.047419 
L 124.730134 544.047419 
z
" clip-path="url(#pc4d8c9089d)" style="fill: #1f77b4"/>
   </g>
   <g id="patch_5">
    <path d="M 177.872991 550.8 
L 204.44442 550.8 
L 204.44442 536.486408 
L 177.872991 536.486408 
z
" clip-path="url(#pc4d8c9089d)" style="fill: #1f77b4"/>
   </g>
   <g id="patch_6">
    <path d="M 231.015848 550.8 
L 257.587277 550.8 
L 257.587277 534.679431 
L 231.015848 534.679431 
z
" clip-path="url(#pc4d8c9089d)" style="fill: #1f77b4"/>
   </g>
   <g id="patch_7">
    <path d="M 284.158705 550.8 
L 310.730134 550.8 
L 310.730134 528.117025 
L 284.158705 528.117025 
z
" clip-path="url(#pc4d8c9089d)" style="fill: #1f77b4"/>
   </g>
   <g id="patch_8">
    <path d="M 337.301562 550.8 
L 363.872991 550.8 
L 363.872991 506.052241 
L 337.301562 506.052241 
z
" clip-path="url(#pc4d8c9089d)" style="fill: #1f77b4"/>
   </g>
   <g id="patch_9">
    <path d="M 390.44442 550.8 
L 417.015848 550.8 
L 417.015848 480.896448 
L 390.44442 480.896448 
z
" clip-path="url(#pc4d8c9089d)" style="fill: #1f77b4"/>
   </g>
   <g id="patch_10">
    <path d="M 443.587277 550.8 
L 470.158705 550.8 
L 470.158705 451.318247 
L 443.587277 451.318247 
z
" clip-path="url(#pc4d8c9089d)" style="fill: #1f77b4"/>
   </g>
   <g id="patch_11">
    <path d="M 496.730134 550.8 
L 523.301563 550.8 
L 523.301563 439.905386 
L 496.730134 439.905386 
z
" clip-path="url(#pc4d8c9089d)" style="fill: #1f77b4"/>
   </g>
   <g id="patch_12">
    <path d="M 549.872991 550.8 
L 576.44442 550.8 
L 576.44442 432.867423 
L 549.872991 432.867423 
z
" clip-path="url(#pc4d8c9089d)" style="fill: #1f77b4"/>
   </g>
   <g id="patch_13">
    <path d="M 603.015848 550.8 
L 629.587277 550.8 
L 629.587277 402.623587 
L 603.015848 402.623587 
z
" clip-path="url(#pc4d8c9089d)" style="fill: #1f77b4"/>
   </g>
   <g id="patch_14">
    <path d="M 656.158705 550.8 
L 682.730134 550.8 
L 682.730134 392.447009 
L 656.158705 392.447009 
z
" clip-path="url(#pc4d8c9089d)" style="fill: #1f77b4"/>
   </g>
   <g id="patch_15">
    <path d="M 709.301562 550.8 
L 735.872991 550.8 
L 735.872991 365.76958 
L 709.301562 365.76958 
z
" clip-path="url(#pc4d8c9089d)" style="fill: #1f77b4"/>
   </g>
   <g id="patch_16">
    <path d="M 762.44442 550.8 
L 789.015848 550.8 
L 789.015848 360.205882 
L 762.44442 360.205882 
z
" clip-path="url(#pc4d8c9089d)" style="fill: #1f77b4"/>
   </g>
   <g id="patch_17">
    <path d="M 815.587277 550.8 
L 842.158705 550.8 
L 842.158705 276.178917 
L 815.587277 276.178917 
z
" clip-path="url(#pc4d8c9089d)" style="fill: #1f77b4"/>
   </g>
   <g id="patch_18">
    <path d="M 868.730134 550.8 
L 895.301562 550.8 
L 895.301562 202.70886 
L 868.730134 202.70886 
z
" clip-path="url(#pc4d8c9089d)" style="fill: #1f77b4"/>
   </g>
   <g id="patch_19">
    <path d="M 921.872991 550.8 
L 948.44442 550.8 
L 948.44442 153.966628 
L 921.872991 153.966628 
z
" clip-path="url(#pc4d8c9089d)" style="fill: #1f77b4"/>
   </g>
   <g id="patch_20">
    <path d="M 975.015848 550.8 
L 1001.587277 550.8 
L 1001.587277 143.885249 
L 975.015848 143.885249 
z
" clip-path="url(#pc4d8c9089d)" style="fill: #1f77b4"/>
   </g>
   <g id="patch_21">
    <path d="M 1028.158705 550.8 
L 1054.730134 550.8 
L 1054.730134 88.961012 
L 1028.158705 88.961012 
z
" clip-path="url(#pc4d8c9089d)" style="fill: #1f77b4"/>
   </g>
   <g id="patch_22">
    <path d="M 1081.301562 550.8 
L 1107.872991 550.8 
L 1107.872991 82.731514 
L 1081.301562 82.731514 
z
" clip-path="url(#pc4d8c9089d)" style="fill: #1f77b4"/>
   </g>
   <g id="patch_23">
    <path d="M 1134.44442 550.8 
L 1161.015848 550.8 
L 1161.015848 33.085714 
L 1134.44442 33.085714 
z
" clip-path="url(#pc4d8c9089d)" style="fill: #1f77b4"/>
   </g>
   <g id="matplotlib.axis_1">
    <g id="xtick_1">
     <g id="line2d_1">
      <defs>
       <path id="m3263412d2b" d="M 0 0 
L 0 3.5 
" style="stroke: #000000; stroke-width: 0.8"/>
      </defs>
      <g>
       <use xlink:href="#m3263412d2b" x="84.872991" y="550.8" style="stroke: #000000; stroke-width: 0.8"/>
      </g>
     </g>
     <g id="text_1">
      <!--  1e-07 SGD -->
      <g transform="translate(91.771429 700.303906)rotate(-90)scale(0.25 -0.25)">
       <defs>
        <path id="DejaVuSans-20" transform="scale(0.015625)"/>
        <path id="DejaVuSans-31" d="M 794 531 
L 1825 531 
L 1825 4091 
L 703 3866 
L 703 4441 
L 1819 4666 
L 2450 4666 
L 2450 531 
L 3481 531 
L 3481 0 
L 794 0 
L 794 531 
z
" transform="scale(0.015625)"/>
        <path id="DejaVuSans-65" d="M 3597 1894 
L 3597 1613 
L 953 1613 
Q 991 1019 1311 708 
Q 1631 397 2203 397 
Q 2534 397 2845 478 
Q 3156 559 3463 722 
L 3463 178 
Q 3153 47 2828 -22 
Q 2503 -91 2169 -91 
Q 1331 -91 842 396 
Q 353 884 353 1716 
Q 353 2575 817 3079 
Q 1281 3584 2069 3584 
Q 2775 3584 3186 3129 
Q 3597 2675 3597 1894 
z
M 3022 2063 
Q 3016 2534 2758 2815 
Q 2500 3097 2075 3097 
Q 1594 3097 1305 2825 
Q 1016 2553 972 2059 
L 3022 2063 
z
" transform="scale(0.015625)"/>
        <path id="DejaVuSans-2d" d="M 313 2009 
L 1997 2009 
L 1997 1497 
L 313 1497 
L 313 2009 
z
" transform="scale(0.015625)"/>
        <path id="DejaVuSans-30" d="M 2034 4250 
Q 1547 4250 1301 3770 
Q 1056 3291 1056 2328 
Q 1056 1369 1301 889 
Q 1547 409 2034 409 
Q 2525 409 2770 889 
Q 3016 1369 3016 2328 
Q 3016 3291 2770 3770 
Q 2525 4250 2034 4250 
z
M 2034 4750 
Q 2819 4750 3233 4129 
Q 3647 3509 3647 2328 
Q 3647 1150 3233 529 
Q 2819 -91 2034 -91 
Q 1250 -91 836 529 
Q 422 1150 422 2328 
Q 422 3509 836 4129 
Q 1250 4750 2034 4750 
z
" transform="scale(0.015625)"/>
        <path id="DejaVuSans-37" d="M 525 4666 
L 3525 4666 
L 3525 4397 
L 1831 0 
L 1172 0 
L 2766 4134 
L 525 4134 
L 525 4666 
z
" transform="scale(0.015625)"/>
        <path id="DejaVuSans-53" d="M 3425 4513 
L 3425 3897 
Q 3066 4069 2747 4153 
Q 2428 4238 2131 4238 
Q 1616 4238 1336 4038 
Q 1056 3838 1056 3469 
Q 1056 3159 1242 3001 
Q 1428 2844 1947 2747 
L 2328 2669 
Q 3034 2534 3370 2195 
Q 3706 1856 3706 1288 
Q 3706 609 3251 259 
Q 2797 -91 1919 -91 
Q 1588 -91 1214 -16 
Q 841 59 441 206 
L 441 856 
Q 825 641 1194 531 
Q 1563 422 1919 422 
Q 2459 422 2753 634 
Q 3047 847 3047 1241 
Q 3047 1584 2836 1778 
Q 2625 1972 2144 2069 
L 1759 2144 
Q 1053 2284 737 2584 
Q 422 2884 422 3419 
Q 422 4038 858 4394 
Q 1294 4750 2059 4750 
Q 2388 4750 2728 4690 
Q 3069 4631 3425 4513 
z
" transform="scale(0.015625)"/>
        <path id="DejaVuSans-47" d="M 3809 666 
L 3809 1919 
L 2778 1919 
L 2778 2438 
L 4434 2438 
L 4434 434 
Q 4069 175 3628 42 
Q 3188 -91 2688 -91 
Q 1594 -91 976 548 
Q 359 1188 359 2328 
Q 359 3472 976 4111 
Q 1594 4750 2688 4750 
Q 3144 4750 3555 4637 
Q 3966 4525 4313 4306 
L 4313 3634 
Q 3963 3931 3569 4081 
Q 3175 4231 2741 4231 
Q 1884 4231 1454 3753 
Q 1025 3275 1025 2328 
Q 1025 1384 1454 906 
Q 1884 428 2741 428 
Q 3075 428 3337 486 
Q 3600 544 3809 666 
z
" transform="scale(0.015625)"/>
        <path id="DejaVuSans-44" d="M 1259 4147 
L 1259 519 
L 2022 519 
Q 2988 519 3436 956 
Q 3884 1394 3884 2338 
Q 3884 3275 3436 3711 
Q 2988 4147 2022 4147 
L 1259 4147 
z
M 628 4666 
L 1925 4666 
Q 3281 4666 3915 4102 
Q 4550 3538 4550 2338 
Q 4550 1131 3912 565 
Q 3275 0 1925 0 
L 628 0 
L 628 4666 
z
" transform="scale(0.015625)"/>
       </defs>
       <use xlink:href="#DejaVuSans-20"/>
       <use xlink:href="#DejaVuSans-31" x="31.787109"/>
       <use xlink:href="#DejaVuSans-65" x="95.410156"/>
       <use xlink:href="#DejaVuSans-2d" x="156.933594"/>
       <use xlink:href="#DejaVuSans-30" x="193.017578"/>
       <use xlink:href="#DejaVuSans-37" x="256.640625"/>
       <use xlink:href="#DejaVuSans-20" x="320.263672"/>
       <use xlink:href="#DejaVuSans-53" x="352.050781"/>
       <use xlink:href="#DejaVuSans-47" x="415.527344"/>
       <use xlink:href="#DejaVuSans-44" x="493.017578"/>
      </g>
     </g>
    </g>
    <g id="xtick_2">
     <g id="line2d_2">
      <g>
       <use xlink:href="#m3263412d2b" x="138.015848" y="550.8" style="stroke: #000000; stroke-width: 0.8"/>
      </g>
     </g>
     <g id="text_2">
      <!-- stat-wmm 1e-05 SGD -->
      <g transform="translate(144.914286 826.417187)rotate(-90)scale(0.25 -0.25)">
       <defs>
        <path id="DejaVuSans-73" d="M 2834 3397 
L 2834 2853 
Q 2591 2978 2328 3040 
Q 2066 3103 1784 3103 
Q 1356 3103 1142 2972 
Q 928 2841 928 2578 
Q 928 2378 1081 2264 
Q 1234 2150 1697 2047 
L 1894 2003 
Q 2506 1872 2764 1633 
Q 3022 1394 3022 966 
Q 3022 478 2636 193 
Q 2250 -91 1575 -91 
Q 1294 -91 989 -36 
Q 684 19 347 128 
L 347 722 
Q 666 556 975 473 
Q 1284 391 1588 391 
Q 1994 391 2212 530 
Q 2431 669 2431 922 
Q 2431 1156 2273 1281 
Q 2116 1406 1581 1522 
L 1381 1569 
Q 847 1681 609 1914 
Q 372 2147 372 2553 
Q 372 3047 722 3315 
Q 1072 3584 1716 3584 
Q 2034 3584 2315 3537 
Q 2597 3491 2834 3397 
z
" transform="scale(0.015625)"/>
        <path id="DejaVuSans-74" d="M 1172 4494 
L 1172 3500 
L 2356 3500 
L 2356 3053 
L 1172 3053 
L 1172 1153 
Q 1172 725 1289 603 
Q 1406 481 1766 481 
L 2356 481 
L 2356 0 
L 1766 0 
Q 1100 0 847 248 
Q 594 497 594 1153 
L 594 3053 
L 172 3053 
L 172 3500 
L 594 3500 
L 594 4494 
L 1172 4494 
z
" transform="scale(0.015625)"/>
        <path id="DejaVuSans-61" d="M 2194 1759 
Q 1497 1759 1228 1600 
Q 959 1441 959 1056 
Q 959 750 1161 570 
Q 1363 391 1709 391 
Q 2188 391 2477 730 
Q 2766 1069 2766 1631 
L 2766 1759 
L 2194 1759 
z
M 3341 1997 
L 3341 0 
L 2766 0 
L 2766 531 
Q 2569 213 2275 61 
Q 1981 -91 1556 -91 
Q 1019 -91 701 211 
Q 384 513 384 1019 
Q 384 1609 779 1909 
Q 1175 2209 1959 2209 
L 2766 2209 
L 2766 2266 
Q 2766 2663 2505 2880 
Q 2244 3097 1772 3097 
Q 1472 3097 1187 3025 
Q 903 2953 641 2809 
L 641 3341 
Q 956 3463 1253 3523 
Q 1550 3584 1831 3584 
Q 2591 3584 2966 3190 
Q 3341 2797 3341 1997 
z
" transform="scale(0.015625)"/>
        <path id="DejaVuSans-77" d="M 269 3500 
L 844 3500 
L 1563 769 
L 2278 3500 
L 2956 3500 
L 3675 769 
L 4391 3500 
L 4966 3500 
L 4050 0 
L 3372 0 
L 2619 2869 
L 1863 0 
L 1184 0 
L 269 3500 
z
" transform="scale(0.015625)"/>
        <path id="DejaVuSans-6d" d="M 3328 2828 
Q 3544 3216 3844 3400 
Q 4144 3584 4550 3584 
Q 5097 3584 5394 3201 
Q 5691 2819 5691 2113 
L 5691 0 
L 5113 0 
L 5113 2094 
Q 5113 2597 4934 2840 
Q 4756 3084 4391 3084 
Q 3944 3084 3684 2787 
Q 3425 2491 3425 1978 
L 3425 0 
L 2847 0 
L 2847 2094 
Q 2847 2600 2669 2842 
Q 2491 3084 2119 3084 
Q 1678 3084 1418 2786 
Q 1159 2488 1159 1978 
L 1159 0 
L 581 0 
L 581 3500 
L 1159 3500 
L 1159 2956 
Q 1356 3278 1631 3431 
Q 1906 3584 2284 3584 
Q 2666 3584 2933 3390 
Q 3200 3197 3328 2828 
z
" transform="scale(0.015625)"/>
        <path id="DejaVuSans-35" d="M 691 4666 
L 3169 4666 
L 3169 4134 
L 1269 4134 
L 1269 2991 
Q 1406 3038 1543 3061 
Q 1681 3084 1819 3084 
Q 2600 3084 3056 2656 
Q 3513 2228 3513 1497 
Q 3513 744 3044 326 
Q 2575 -91 1722 -91 
Q 1428 -91 1123 -41 
Q 819 9 494 109 
L 494 744 
Q 775 591 1075 516 
Q 1375 441 1709 441 
Q 2250 441 2565 725 
Q 2881 1009 2881 1497 
Q 2881 1984 2565 2268 
Q 2250 2553 1709 2553 
Q 1456 2553 1204 2497 
Q 953 2441 691 2322 
L 691 4666 
z
" transform="scale(0.015625)"/>
       </defs>
       <use xlink:href="#DejaVuSans-73"/>
       <use xlink:href="#DejaVuSans-74" x="52.099609"/>
       <use xlink:href="#DejaVuSans-61" x="91.308594"/>
       <use xlink:href="#DejaVuSans-74" x="152.587891"/>
       <use xlink:href="#DejaVuSans-2d" x="191.796875"/>
       <use xlink:href="#DejaVuSans-77" x="227.880859"/>
       <use xlink:href="#DejaVuSans-6d" x="309.667969"/>
       <use xlink:href="#DejaVuSans-6d" x="407.080078"/>
       <use xlink:href="#DejaVuSans-20" x="504.492188"/>
       <use xlink:href="#DejaVuSans-31" x="536.279297"/>
       <use xlink:href="#DejaVuSans-65" x="599.902344"/>
       <use xlink:href="#DejaVuSans-2d" x="661.425781"/>
       <use xlink:href="#DejaVuSans-30" x="697.509766"/>
       <use xlink:href="#DejaVuSans-35" x="761.132812"/>
       <use xlink:href="#DejaVuSans-20" x="824.755859"/>
       <use xlink:href="#DejaVuSans-53" x="856.542969"/>
       <use xlink:href="#DejaVuSans-47" x="920.019531"/>
       <use xlink:href="#DejaVuSans-44" x="997.509766"/>
      </g>
     </g>
    </g>
    <g id="xtick_3">
     <g id="line2d_3">
      <g>
       <use xlink:href="#m3263412d2b" x="191.158705" y="550.8" style="stroke: #000000; stroke-width: 0.8"/>
      </g>
     </g>
     <g id="text_3">
      <!--  1e-05 SGD -->
      <g transform="translate(198.057143 700.303906)rotate(-90)scale(0.25 -0.25)">
       <use xlink:href="#DejaVuSans-20"/>
       <use xlink:href="#DejaVuSans-31" x="31.787109"/>
       <use xlink:href="#DejaVuSans-65" x="95.410156"/>
       <use xlink:href="#DejaVuSans-2d" x="156.933594"/>
       <use xlink:href="#DejaVuSans-30" x="193.017578"/>
       <use xlink:href="#DejaVuSans-35" x="256.640625"/>
       <use xlink:href="#DejaVuSans-20" x="320.263672"/>
       <use xlink:href="#DejaVuSans-53" x="352.050781"/>
       <use xlink:href="#DejaVuSans-47" x="415.527344"/>
       <use xlink:href="#DejaVuSans-44" x="493.017578"/>
      </g>
     </g>
    </g>
    <g id="xtick_4">
     <g id="line2d_4">
      <g>
       <use xlink:href="#m3263412d2b" x="244.301562" y="550.8" style="stroke: #000000; stroke-width: 0.8"/>
      </g>
     </g>
     <g id="text_4">
      <!-- stat-wmm 1e-06 SGD -->
      <g transform="translate(251.2 826.417187)rotate(-90)scale(0.25 -0.25)">
       <defs>
        <path id="DejaVuSans-36" d="M 2113 2584 
Q 1688 2584 1439 2293 
Q 1191 2003 1191 1497 
Q 1191 994 1439 701 
Q 1688 409 2113 409 
Q 2538 409 2786 701 
Q 3034 994 3034 1497 
Q 3034 2003 2786 2293 
Q 2538 2584 2113 2584 
z
M 3366 4563 
L 3366 3988 
Q 3128 4100 2886 4159 
Q 2644 4219 2406 4219 
Q 1781 4219 1451 3797 
Q 1122 3375 1075 2522 
Q 1259 2794 1537 2939 
Q 1816 3084 2150 3084 
Q 2853 3084 3261 2657 
Q 3669 2231 3669 1497 
Q 3669 778 3244 343 
Q 2819 -91 2113 -91 
Q 1303 -91 875 529 
Q 447 1150 447 2328 
Q 447 3434 972 4092 
Q 1497 4750 2381 4750 
Q 2619 4750 2861 4703 
Q 3103 4656 3366 4563 
z
" transform="scale(0.015625)"/>
       </defs>
       <use xlink:href="#DejaVuSans-73"/>
       <use xlink:href="#DejaVuSans-74" x="52.099609"/>
       <use xlink:href="#DejaVuSans-61" x="91.308594"/>
       <use xlink:href="#DejaVuSans-74" x="152.587891"/>
       <use xlink:href="#DejaVuSans-2d" x="191.796875"/>
       <use xlink:href="#DejaVuSans-77" x="227.880859"/>
       <use xlink:href="#DejaVuSans-6d" x="309.667969"/>
       <use xlink:href="#DejaVuSans-6d" x="407.080078"/>
       <use xlink:href="#DejaVuSans-20" x="504.492188"/>
       <use xlink:href="#DejaVuSans-31" x="536.279297"/>
       <use xlink:href="#DejaVuSans-65" x="599.902344"/>
       <use xlink:href="#DejaVuSans-2d" x="661.425781"/>
       <use xlink:href="#DejaVuSans-30" x="697.509766"/>
       <use xlink:href="#DejaVuSans-36" x="761.132812"/>
       <use xlink:href="#DejaVuSans-20" x="824.755859"/>
       <use xlink:href="#DejaVuSans-53" x="856.542969"/>
       <use xlink:href="#DejaVuSans-47" x="920.019531"/>
       <use xlink:href="#DejaVuSans-44" x="997.509766"/>
      </g>
     </g>
    </g>
    <g id="xtick_5">
     <g id="line2d_5">
      <g>
       <use xlink:href="#m3263412d2b" x="297.44442" y="550.8" style="stroke: #000000; stroke-width: 0.8"/>
      </g>
     </g>
     <g id="text_5">
      <!--  1e-06 SGD -->
      <g transform="translate(304.342857 700.303906)rotate(-90)scale(0.25 -0.25)">
       <use xlink:href="#DejaVuSans-20"/>
       <use xlink:href="#DejaVuSans-31" x="31.787109"/>
       <use xlink:href="#DejaVuSans-65" x="95.410156"/>
       <use xlink:href="#DejaVuSans-2d" x="156.933594"/>
       <use xlink:href="#DejaVuSans-30" x="193.017578"/>
       <use xlink:href="#DejaVuSans-36" x="256.640625"/>
       <use xlink:href="#DejaVuSans-20" x="320.263672"/>
       <use xlink:href="#DejaVuSans-53" x="352.050781"/>
       <use xlink:href="#DejaVuSans-47" x="415.527344"/>
       <use xlink:href="#DejaVuSans-44" x="493.017578"/>
      </g>
     </g>
    </g>
    <g id="xtick_6">
     <g id="line2d_6">
      <g>
       <use xlink:href="#m3263412d2b" x="350.587277" y="550.8" style="stroke: #000000; stroke-width: 0.8"/>
      </g>
     </g>
     <g id="text_6">
      <!-- stat-wmm 1e-07 SGD -->
      <g transform="translate(357.485714 826.417187)rotate(-90)scale(0.25 -0.25)">
       <use xlink:href="#DejaVuSans-73"/>
       <use xlink:href="#DejaVuSans-74" x="52.099609"/>
       <use xlink:href="#DejaVuSans-61" x="91.308594"/>
       <use xlink:href="#DejaVuSans-74" x="152.587891"/>
       <use xlink:href="#DejaVuSans-2d" x="191.796875"/>
       <use xlink:href="#DejaVuSans-77" x="227.880859"/>
       <use xlink:href="#DejaVuSans-6d" x="309.667969"/>
       <use xlink:href="#DejaVuSans-6d" x="407.080078"/>
       <use xlink:href="#DejaVuSans-20" x="504.492188"/>
       <use xlink:href="#DejaVuSans-31" x="536.279297"/>
       <use xlink:href="#DejaVuSans-65" x="599.902344"/>
       <use xlink:href="#DejaVuSans-2d" x="661.425781"/>
       <use xlink:href="#DejaVuSans-30" x="697.509766"/>
       <use xlink:href="#DejaVuSans-37" x="761.132812"/>
       <use xlink:href="#DejaVuSans-20" x="824.755859"/>
       <use xlink:href="#DejaVuSans-53" x="856.542969"/>
       <use xlink:href="#DejaVuSans-47" x="920.019531"/>
       <use xlink:href="#DejaVuSans-44" x="997.509766"/>
      </g>
     </g>
    </g>
    <g id="xtick_7">
     <g id="line2d_7">
      <g>
       <use xlink:href="#m3263412d2b" x="403.730134" y="550.8" style="stroke: #000000; stroke-width: 0.8"/>
      </g>
     </g>
     <g id="text_7">
      <!--  1e-08 SGD -->
      <g transform="translate(410.628571 700.303906)rotate(-90)scale(0.25 -0.25)">
       <defs>
        <path id="DejaVuSans-38" d="M 2034 2216 
Q 1584 2216 1326 1975 
Q 1069 1734 1069 1313 
Q 1069 891 1326 650 
Q 1584 409 2034 409 
Q 2484 409 2743 651 
Q 3003 894 3003 1313 
Q 3003 1734 2745 1975 
Q 2488 2216 2034 2216 
z
M 1403 2484 
Q 997 2584 770 2862 
Q 544 3141 544 3541 
Q 544 4100 942 4425 
Q 1341 4750 2034 4750 
Q 2731 4750 3128 4425 
Q 3525 4100 3525 3541 
Q 3525 3141 3298 2862 
Q 3072 2584 2669 2484 
Q 3125 2378 3379 2068 
Q 3634 1759 3634 1313 
Q 3634 634 3220 271 
Q 2806 -91 2034 -91 
Q 1263 -91 848 271 
Q 434 634 434 1313 
Q 434 1759 690 2068 
Q 947 2378 1403 2484 
z
M 1172 3481 
Q 1172 3119 1398 2916 
Q 1625 2713 2034 2713 
Q 2441 2713 2670 2916 
Q 2900 3119 2900 3481 
Q 2900 3844 2670 4047 
Q 2441 4250 2034 4250 
Q 1625 4250 1398 4047 
Q 1172 3844 1172 3481 
z
" transform="scale(0.015625)"/>
       </defs>
       <use xlink:href="#DejaVuSans-20"/>
       <use xlink:href="#DejaVuSans-31" x="31.787109"/>
       <use xlink:href="#DejaVuSans-65" x="95.410156"/>
       <use xlink:href="#DejaVuSans-2d" x="156.933594"/>
       <use xlink:href="#DejaVuSans-30" x="193.017578"/>
       <use xlink:href="#DejaVuSans-38" x="256.640625"/>
       <use xlink:href="#DejaVuSans-20" x="320.263672"/>
       <use xlink:href="#DejaVuSans-53" x="352.050781"/>
       <use xlink:href="#DejaVuSans-47" x="415.527344"/>
       <use xlink:href="#DejaVuSans-44" x="493.017578"/>
      </g>
     </g>
    </g>
    <g id="xtick_8">
     <g id="line2d_8">
      <g>
       <use xlink:href="#m3263412d2b" x="456.872991" y="550.8" style="stroke: #000000; stroke-width: 0.8"/>
      </g>
     </g>
     <g id="text_8">
      <!-- stat-wmm 0.0001 SGD -->
      <g transform="translate(463.771429 841.772656)rotate(-90)scale(0.25 -0.25)">
       <defs>
        <path id="DejaVuSans-2e" d="M 684 794 
L 1344 794 
L 1344 0 
L 684 0 
L 684 794 
z
" transform="scale(0.015625)"/>
       </defs>
       <use xlink:href="#DejaVuSans-73"/>
       <use xlink:href="#DejaVuSans-74" x="52.099609"/>
       <use xlink:href="#DejaVuSans-61" x="91.308594"/>
       <use xlink:href="#DejaVuSans-74" x="152.587891"/>
       <use xlink:href="#DejaVuSans-2d" x="191.796875"/>
       <use xlink:href="#DejaVuSans-77" x="227.880859"/>
       <use xlink:href="#DejaVuSans-6d" x="309.667969"/>
       <use xlink:href="#DejaVuSans-6d" x="407.080078"/>
       <use xlink:href="#DejaVuSans-20" x="504.492188"/>
       <use xlink:href="#DejaVuSans-30" x="536.279297"/>
       <use xlink:href="#DejaVuSans-2e" x="599.902344"/>
       <use xlink:href="#DejaVuSans-30" x="631.689453"/>
       <use xlink:href="#DejaVuSans-30" x="695.3125"/>
       <use xlink:href="#DejaVuSans-30" x="758.935547"/>
       <use xlink:href="#DejaVuSans-31" x="822.558594"/>
       <use xlink:href="#DejaVuSans-20" x="886.181641"/>
       <use xlink:href="#DejaVuSans-53" x="917.96875"/>
       <use xlink:href="#DejaVuSans-47" x="981.445312"/>
       <use xlink:href="#DejaVuSans-44" x="1058.935547"/>
      </g>
     </g>
    </g>
    <g id="xtick_9">
     <g id="line2d_9">
      <g>
       <use xlink:href="#m3263412d2b" x="510.015848" y="550.8" style="stroke: #000000; stroke-width: 0.8"/>
      </g>
     </g>
     <g id="text_9">
      <!--  0.001 SGD -->
      <g transform="translate(516.914286 699.753125)rotate(-90)scale(0.25 -0.25)">
       <use xlink:href="#DejaVuSans-20"/>
       <use xlink:href="#DejaVuSans-30" x="31.787109"/>
       <use xlink:href="#DejaVuSans-2e" x="95.410156"/>
       <use xlink:href="#DejaVuSans-30" x="127.197266"/>
       <use xlink:href="#DejaVuSans-30" x="190.820312"/>
       <use xlink:href="#DejaVuSans-31" x="254.443359"/>
       <use xlink:href="#DejaVuSans-20" x="318.066406"/>
       <use xlink:href="#DejaVuSans-53" x="349.853516"/>
       <use xlink:href="#DejaVuSans-47" x="413.330078"/>
       <use xlink:href="#DejaVuSans-44" x="490.820312"/>
      </g>
     </g>
    </g>
    <g id="xtick_10">
     <g id="line2d_10">
      <g>
       <use xlink:href="#m3263412d2b" x="563.158705" y="550.8" style="stroke: #000000; stroke-width: 0.8"/>
      </g>
     </g>
     <g id="text_10">
      <!-- stat-wmm 0.001 SGD -->
      <g transform="translate(570.057143 825.866406)rotate(-90)scale(0.25 -0.25)">
       <use xlink:href="#DejaVuSans-73"/>
       <use xlink:href="#DejaVuSans-74" x="52.099609"/>
       <use xlink:href="#DejaVuSans-61" x="91.308594"/>
       <use xlink:href="#DejaVuSans-74" x="152.587891"/>
       <use xlink:href="#DejaVuSans-2d" x="191.796875"/>
       <use xlink:href="#DejaVuSans-77" x="227.880859"/>
       <use xlink:href="#DejaVuSans-6d" x="309.667969"/>
       <use xlink:href="#DejaVuSans-6d" x="407.080078"/>
       <use xlink:href="#DejaVuSans-20" x="504.492188"/>
       <use xlink:href="#DejaVuSans-30" x="536.279297"/>
       <use xlink:href="#DejaVuSans-2e" x="599.902344"/>
       <use xlink:href="#DejaVuSans-30" x="631.689453"/>
       <use xlink:href="#DejaVuSans-30" x="695.3125"/>
       <use xlink:href="#DejaVuSans-31" x="758.935547"/>
       <use xlink:href="#DejaVuSans-20" x="822.558594"/>
       <use xlink:href="#DejaVuSans-53" x="854.345703"/>
       <use xlink:href="#DejaVuSans-47" x="917.822266"/>
       <use xlink:href="#DejaVuSans-44" x="995.3125"/>
      </g>
     </g>
    </g>
    <g id="xtick_11">
     <g id="line2d_11">
      <g>
       <use xlink:href="#m3263412d2b" x="616.301562" y="550.8" style="stroke: #000000; stroke-width: 0.8"/>
      </g>
     </g>
     <g id="text_11">
      <!-- stat-wmm 1e-05 Adam -->
      <g transform="translate(623.2 844.132031)rotate(-90)scale(0.25 -0.25)">
       <defs>
        <path id="DejaVuSans-41" d="M 2188 4044 
L 1331 1722 
L 3047 1722 
L 2188 4044 
z
M 1831 4666 
L 2547 4666 
L 4325 0 
L 3669 0 
L 3244 1197 
L 1141 1197 
L 716 0 
L 50 0 
L 1831 4666 
z
" transform="scale(0.015625)"/>
        <path id="DejaVuSans-64" d="M 2906 2969 
L 2906 4863 
L 3481 4863 
L 3481 0 
L 2906 0 
L 2906 525 
Q 2725 213 2448 61 
Q 2172 -91 1784 -91 
Q 1150 -91 751 415 
Q 353 922 353 1747 
Q 353 2572 751 3078 
Q 1150 3584 1784 3584 
Q 2172 3584 2448 3432 
Q 2725 3281 2906 2969 
z
M 947 1747 
Q 947 1113 1208 752 
Q 1469 391 1925 391 
Q 2381 391 2643 752 
Q 2906 1113 2906 1747 
Q 2906 2381 2643 2742 
Q 2381 3103 1925 3103 
Q 1469 3103 1208 2742 
Q 947 2381 947 1747 
z
" transform="scale(0.015625)"/>
       </defs>
       <use xlink:href="#DejaVuSans-73"/>
       <use xlink:href="#DejaVuSans-74" x="52.099609"/>
       <use xlink:href="#DejaVuSans-61" x="91.308594"/>
       <use xlink:href="#DejaVuSans-74" x="152.587891"/>
       <use xlink:href="#DejaVuSans-2d" x="191.796875"/>
       <use xlink:href="#DejaVuSans-77" x="227.880859"/>
       <use xlink:href="#DejaVuSans-6d" x="309.667969"/>
       <use xlink:href="#DejaVuSans-6d" x="407.080078"/>
       <use xlink:href="#DejaVuSans-20" x="504.492188"/>
       <use xlink:href="#DejaVuSans-31" x="536.279297"/>
       <use xlink:href="#DejaVuSans-65" x="599.902344"/>
       <use xlink:href="#DejaVuSans-2d" x="661.425781"/>
       <use xlink:href="#DejaVuSans-30" x="697.509766"/>
       <use xlink:href="#DejaVuSans-35" x="761.132812"/>
       <use xlink:href="#DejaVuSans-20" x="824.755859"/>
       <use xlink:href="#DejaVuSans-41" x="856.542969"/>
       <use xlink:href="#DejaVuSans-64" x="923.201172"/>
       <use xlink:href="#DejaVuSans-61" x="986.677734"/>
       <use xlink:href="#DejaVuSans-6d" x="1047.957031"/>
      </g>
     </g>
    </g>
    <g id="xtick_12">
     <g id="line2d_12">
      <g>
       <use xlink:href="#m3263412d2b" x="669.44442" y="550.8" style="stroke: #000000; stroke-width: 0.8"/>
      </g>
     </g>
     <g id="text_12">
      <!--  1e-06 Adam -->
      <g transform="translate(676.342857 718.01875)rotate(-90)scale(0.25 -0.25)">
       <use xlink:href="#DejaVuSans-20"/>
       <use xlink:href="#DejaVuSans-31" x="31.787109"/>
       <use xlink:href="#DejaVuSans-65" x="95.410156"/>
       <use xlink:href="#DejaVuSans-2d" x="156.933594"/>
       <use xlink:href="#DejaVuSans-30" x="193.017578"/>
       <use xlink:href="#DejaVuSans-36" x="256.640625"/>
       <use xlink:href="#DejaVuSans-20" x="320.263672"/>
       <use xlink:href="#DejaVuSans-41" x="352.050781"/>
       <use xlink:href="#DejaVuSans-64" x="418.708984"/>
       <use xlink:href="#DejaVuSans-61" x="482.185547"/>
       <use xlink:href="#DejaVuSans-6d" x="543.464844"/>
      </g>
     </g>
    </g>
    <g id="xtick_13">
     <g id="line2d_13">
      <g>
       <use xlink:href="#m3263412d2b" x="722.587277" y="550.8" style="stroke: #000000; stroke-width: 0.8"/>
      </g>
     </g>
     <g id="text_13">
      <!--  0.001 Adam -->
      <g transform="translate(729.485714 717.467969)rotate(-90)scale(0.25 -0.25)">
       <use xlink:href="#DejaVuSans-20"/>
       <use xlink:href="#DejaVuSans-30" x="31.787109"/>
       <use xlink:href="#DejaVuSans-2e" x="95.410156"/>
       <use xlink:href="#DejaVuSans-30" x="127.197266"/>
       <use xlink:href="#DejaVuSans-30" x="190.820312"/>
       <use xlink:href="#DejaVuSans-31" x="254.443359"/>
       <use xlink:href="#DejaVuSans-20" x="318.066406"/>
       <use xlink:href="#DejaVuSans-41" x="349.853516"/>
       <use xlink:href="#DejaVuSans-64" x="416.511719"/>
       <use xlink:href="#DejaVuSans-61" x="479.988281"/>
       <use xlink:href="#DejaVuSans-6d" x="541.267578"/>
      </g>
     </g>
    </g>
    <g id="xtick_14">
     <g id="line2d_14">
      <g>
       <use xlink:href="#m3263412d2b" x="775.730134" y="550.8" style="stroke: #000000; stroke-width: 0.8"/>
      </g>
     </g>
     <g id="text_14">
      <!--  1e-07 Adam -->
      <g transform="translate(782.628571 718.01875)rotate(-90)scale(0.25 -0.25)">
       <use xlink:href="#DejaVuSans-20"/>
       <use xlink:href="#DejaVuSans-31" x="31.787109"/>
       <use xlink:href="#DejaVuSans-65" x="95.410156"/>
       <use xlink:href="#DejaVuSans-2d" x="156.933594"/>
       <use xlink:href="#DejaVuSans-30" x="193.017578"/>
       <use xlink:href="#DejaVuSans-37" x="256.640625"/>
       <use xlink:href="#DejaVuSans-20" x="320.263672"/>
       <use xlink:href="#DejaVuSans-41" x="352.050781"/>
       <use xlink:href="#DejaVuSans-64" x="418.708984"/>
       <use xlink:href="#DejaVuSans-61" x="482.185547"/>
       <use xlink:href="#DejaVuSans-6d" x="543.464844"/>
      </g>
     </g>
    </g>
    <g id="xtick_15">
     <g id="line2d_15">
      <g>
       <use xlink:href="#m3263412d2b" x="828.872991" y="550.8" style="stroke: #000000; stroke-width: 0.8"/>
      </g>
     </g>
     <g id="text_15">
      <!--  1e-08 Adam -->
      <g transform="translate(835.771429 718.01875)rotate(-90)scale(0.25 -0.25)">
       <use xlink:href="#DejaVuSans-20"/>
       <use xlink:href="#DejaVuSans-31" x="31.787109"/>
       <use xlink:href="#DejaVuSans-65" x="95.410156"/>
       <use xlink:href="#DejaVuSans-2d" x="156.933594"/>
       <use xlink:href="#DejaVuSans-30" x="193.017578"/>
       <use xlink:href="#DejaVuSans-38" x="256.640625"/>
       <use xlink:href="#DejaVuSans-20" x="320.263672"/>
       <use xlink:href="#DejaVuSans-41" x="352.050781"/>
       <use xlink:href="#DejaVuSans-64" x="418.708984"/>
       <use xlink:href="#DejaVuSans-61" x="482.185547"/>
       <use xlink:href="#DejaVuSans-6d" x="543.464844"/>
      </g>
     </g>
    </g>
    <g id="xtick_16">
     <g id="line2d_16">
      <g>
       <use xlink:href="#m3263412d2b" x="882.015848" y="550.8" style="stroke: #000000; stroke-width: 0.8"/>
      </g>
     </g>
     <g id="text_16">
      <!--  0.0001 Adam -->
      <g transform="translate(888.914286 733.374219)rotate(-90)scale(0.25 -0.25)">
       <use xlink:href="#DejaVuSans-20"/>
       <use xlink:href="#DejaVuSans-30" x="31.787109"/>
       <use xlink:href="#DejaVuSans-2e" x="95.410156"/>
       <use xlink:href="#DejaVuSans-30" x="127.197266"/>
       <use xlink:href="#DejaVuSans-30" x="190.820312"/>
       <use xlink:href="#DejaVuSans-30" x="254.443359"/>
       <use xlink:href="#DejaVuSans-31" x="318.066406"/>
       <use xlink:href="#DejaVuSans-20" x="381.689453"/>
       <use xlink:href="#DejaVuSans-41" x="413.476562"/>
       <use xlink:href="#DejaVuSans-64" x="480.134766"/>
       <use xlink:href="#DejaVuSans-61" x="543.611328"/>
       <use xlink:href="#DejaVuSans-6d" x="604.890625"/>
      </g>
     </g>
    </g>
    <g id="xtick_17">
     <g id="line2d_17">
      <g>
       <use xlink:href="#m3263412d2b" x="935.158705" y="550.8" style="stroke: #000000; stroke-width: 0.8"/>
      </g>
     </g>
     <g id="text_17">
      <!-- stat-wmm 1e-06 Adam -->
      <g transform="translate(942.057143 844.132031)rotate(-90)scale(0.25 -0.25)">
       <use xlink:href="#DejaVuSans-73"/>
       <use xlink:href="#DejaVuSans-74" x="52.099609"/>
       <use xlink:href="#DejaVuSans-61" x="91.308594"/>
       <use xlink:href="#DejaVuSans-74" x="152.587891"/>
       <use xlink:href="#DejaVuSans-2d" x="191.796875"/>
       <use xlink:href="#DejaVuSans-77" x="227.880859"/>
       <use xlink:href="#DejaVuSans-6d" x="309.667969"/>
       <use xlink:href="#DejaVuSans-6d" x="407.080078"/>
       <use xlink:href="#DejaVuSans-20" x="504.492188"/>
       <use xlink:href="#DejaVuSans-31" x="536.279297"/>
       <use xlink:href="#DejaVuSans-65" x="599.902344"/>
       <use xlink:href="#DejaVuSans-2d" x="661.425781"/>
       <use xlink:href="#DejaVuSans-30" x="697.509766"/>
       <use xlink:href="#DejaVuSans-36" x="761.132812"/>
       <use xlink:href="#DejaVuSans-20" x="824.755859"/>
       <use xlink:href="#DejaVuSans-41" x="856.542969"/>
       <use xlink:href="#DejaVuSans-64" x="923.201172"/>
       <use xlink:href="#DejaVuSans-61" x="986.677734"/>
       <use xlink:href="#DejaVuSans-6d" x="1047.957031"/>
      </g>
     </g>
    </g>
    <g id="xtick_18">
     <g id="line2d_18">
      <g>
       <use xlink:href="#m3263412d2b" x="988.301562" y="550.8" style="stroke: #000000; stroke-width: 0.8"/>
      </g>
     </g>
     <g id="text_18">
      <!-- stat-wmm 1e-07 Adam -->
      <g transform="translate(995.2 844.132031)rotate(-90)scale(0.25 -0.25)">
       <use xlink:href="#DejaVuSans-73"/>
       <use xlink:href="#DejaVuSans-74" x="52.099609"/>
       <use xlink:href="#DejaVuSans-61" x="91.308594"/>
       <use xlink:href="#DejaVuSans-74" x="152.587891"/>
       <use xlink:href="#DejaVuSans-2d" x="191.796875"/>
       <use xlink:href="#DejaVuSans-77" x="227.880859"/>
       <use xlink:href="#DejaVuSans-6d" x="309.667969"/>
       <use xlink:href="#DejaVuSans-6d" x="407.080078"/>
       <use xlink:href="#DejaVuSans-20" x="504.492188"/>
       <use xlink:href="#DejaVuSans-31" x="536.279297"/>
       <use xlink:href="#DejaVuSans-65" x="599.902344"/>
       <use xlink:href="#DejaVuSans-2d" x="661.425781"/>
       <use xlink:href="#DejaVuSans-30" x="697.509766"/>
       <use xlink:href="#DejaVuSans-37" x="761.132812"/>
       <use xlink:href="#DejaVuSans-20" x="824.755859"/>
       <use xlink:href="#DejaVuSans-41" x="856.542969"/>
       <use xlink:href="#DejaVuSans-64" x="923.201172"/>
       <use xlink:href="#DejaVuSans-61" x="986.677734"/>
       <use xlink:href="#DejaVuSans-6d" x="1047.957031"/>
      </g>
     </g>
    </g>
    <g id="xtick_19">
     <g id="line2d_19">
      <g>
       <use xlink:href="#m3263412d2b" x="1041.44442" y="550.8" style="stroke: #000000; stroke-width: 0.8"/>
      </g>
     </g>
     <g id="text_19">
      <!-- stat-wmm 0.001 Adam -->
      <g transform="translate(1048.342857 843.58125)rotate(-90)scale(0.25 -0.25)">
       <use xlink:href="#DejaVuSans-73"/>
       <use xlink:href="#DejaVuSans-74" x="52.099609"/>
       <use xlink:href="#DejaVuSans-61" x="91.308594"/>
       <use xlink:href="#DejaVuSans-74" x="152.587891"/>
       <use xlink:href="#DejaVuSans-2d" x="191.796875"/>
       <use xlink:href="#DejaVuSans-77" x="227.880859"/>
       <use xlink:href="#DejaVuSans-6d" x="309.667969"/>
       <use xlink:href="#DejaVuSans-6d" x="407.080078"/>
       <use xlink:href="#DejaVuSans-20" x="504.492188"/>
       <use xlink:href="#DejaVuSans-30" x="536.279297"/>
       <use xlink:href="#DejaVuSans-2e" x="599.902344"/>
       <use xlink:href="#DejaVuSans-30" x="631.689453"/>
       <use xlink:href="#DejaVuSans-30" x="695.3125"/>
       <use xlink:href="#DejaVuSans-31" x="758.935547"/>
       <use xlink:href="#DejaVuSans-20" x="822.558594"/>
       <use xlink:href="#DejaVuSans-41" x="854.345703"/>
       <use xlink:href="#DejaVuSans-64" x="921.003906"/>
       <use xlink:href="#DejaVuSans-61" x="984.480469"/>
       <use xlink:href="#DejaVuSans-6d" x="1045.759766"/>
      </g>
     </g>
    </g>
    <g id="xtick_20">
     <g id="line2d_20">
      <g>
       <use xlink:href="#m3263412d2b" x="1094.587277" y="550.8" style="stroke: #000000; stroke-width: 0.8"/>
      </g>
     </g>
     <g id="text_20">
      <!--  1e-05 Adam -->
      <g transform="translate(1101.485714 718.01875)rotate(-90)scale(0.25 -0.25)">
       <use xlink:href="#DejaVuSans-20"/>
       <use xlink:href="#DejaVuSans-31" x="31.787109"/>
       <use xlink:href="#DejaVuSans-65" x="95.410156"/>
       <use xlink:href="#DejaVuSans-2d" x="156.933594"/>
       <use xlink:href="#DejaVuSans-30" x="193.017578"/>
       <use xlink:href="#DejaVuSans-35" x="256.640625"/>
       <use xlink:href="#DejaVuSans-20" x="320.263672"/>
       <use xlink:href="#DejaVuSans-41" x="352.050781"/>
       <use xlink:href="#DejaVuSans-64" x="418.708984"/>
       <use xlink:href="#DejaVuSans-61" x="482.185547"/>
       <use xlink:href="#DejaVuSans-6d" x="543.464844"/>
      </g>
     </g>
    </g>
    <g id="xtick_21">
     <g id="line2d_21">
      <g>
       <use xlink:href="#m3263412d2b" x="1147.730134" y="550.8" style="stroke: #000000; stroke-width: 0.8"/>
      </g>
     </g>
     <g id="text_21">
      <!-- stat-wmm 0.0001 Adam -->
      <g transform="translate(1154.628571 859.4875)rotate(-90)scale(0.25 -0.25)">
       <use xlink:href="#DejaVuSans-73"/>
       <use xlink:href="#DejaVuSans-74" x="52.099609"/>
       <use xlink:href="#DejaVuSans-61" x="91.308594"/>
       <use xlink:href="#DejaVuSans-74" x="152.587891"/>
       <use xlink:href="#DejaVuSans-2d" x="191.796875"/>
       <use xlink:href="#DejaVuSans-77" x="227.880859"/>
       <use xlink:href="#DejaVuSans-6d" x="309.667969"/>
       <use xlink:href="#DejaVuSans-6d" x="407.080078"/>
       <use xlink:href="#DejaVuSans-20" x="504.492188"/>
       <use xlink:href="#DejaVuSans-30" x="536.279297"/>
       <use xlink:href="#DejaVuSans-2e" x="599.902344"/>
       <use xlink:href="#DejaVuSans-30" x="631.689453"/>
       <use xlink:href="#DejaVuSans-30" x="695.3125"/>
       <use xlink:href="#DejaVuSans-30" x="758.935547"/>
       <use xlink:href="#DejaVuSans-31" x="822.558594"/>
       <use xlink:href="#DejaVuSans-20" x="886.181641"/>
       <use xlink:href="#DejaVuSans-41" x="917.96875"/>
       <use xlink:href="#DejaVuSans-64" x="984.626953"/>
       <use xlink:href="#DejaVuSans-61" x="1048.103516"/>
       <use xlink:href="#DejaVuSans-6d" x="1109.382812"/>
      </g>
     </g>
    </g>
   </g>
   <g id="matplotlib.axis_2">
    <g id="ytick_1">
     <g id="line2d_22">
      <defs>
       <path id="m058cf88039" d="M 0 0 
L -3.5 0 
" style="stroke: #000000; stroke-width: 0.8"/>
      </defs>
      <g>
       <use xlink:href="#m058cf88039" x="58.301563" y="550.8" style="stroke: #000000; stroke-width: 0.8"/>
      </g>
     </g>
     <g id="text_22">
      <!-- 0 -->
      <g transform="translate(35.395313 560.298047)scale(0.25 -0.25)">
       <use xlink:href="#DejaVuSans-30"/>
      </g>
     </g>
    </g>
    <g id="ytick_2">
     <g id="line2d_23">
      <g>
       <use xlink:href="#m058cf88039" x="58.301563" y="436.671756" style="stroke: #000000; stroke-width: 0.8"/>
      </g>
     </g>
     <g id="text_23">
      <!-- 2 -->
      <g transform="translate(35.395313 446.169803)scale(0.25 -0.25)">
       <defs>
        <path id="DejaVuSans-32" d="M 1228 531 
L 3431 531 
L 3431 0 
L 469 0 
L 469 531 
Q 828 903 1448 1529 
Q 2069 2156 2228 2338 
Q 2531 2678 2651 2914 
Q 2772 3150 2772 3378 
Q 2772 3750 2511 3984 
Q 2250 4219 1831 4219 
Q 1534 4219 1204 4116 
Q 875 4013 500 3803 
L 500 4441 
Q 881 4594 1212 4672 
Q 1544 4750 1819 4750 
Q 2544 4750 2975 4387 
Q 3406 4025 3406 3419 
Q 3406 3131 3298 2873 
Q 3191 2616 2906 2266 
Q 2828 2175 2409 1742 
Q 1991 1309 1228 531 
z
" transform="scale(0.015625)"/>
       </defs>
       <use xlink:href="#DejaVuSans-32"/>
      </g>
     </g>
    </g>
    <g id="ytick_3">
     <g id="line2d_24">
      <g>
       <use xlink:href="#m058cf88039" x="58.301563" y="322.543512" style="stroke: #000000; stroke-width: 0.8"/>
      </g>
     </g>
     <g id="text_24">
      <!-- 4 -->
      <g transform="translate(35.395313 332.041559)scale(0.25 -0.25)">
       <defs>
        <path id="DejaVuSans-34" d="M 2419 4116 
L 825 1625 
L 2419 1625 
L 2419 4116 
z
M 2253 4666 
L 3047 4666 
L 3047 1625 
L 3713 1625 
L 3713 1100 
L 3047 1100 
L 3047 0 
L 2419 0 
L 2419 1100 
L 313 1100 
L 313 1709 
L 2253 4666 
z
" transform="scale(0.015625)"/>
       </defs>
       <use xlink:href="#DejaVuSans-34"/>
      </g>
     </g>
    </g>
    <g id="ytick_4">
     <g id="line2d_25">
      <g>
       <use xlink:href="#m058cf88039" x="58.301563" y="208.415268" style="stroke: #000000; stroke-width: 0.8"/>
      </g>
     </g>
     <g id="text_25">
      <!-- 6 -->
      <g transform="translate(35.395313 217.913315)scale(0.25 -0.25)">
       <use xlink:href="#DejaVuSans-36"/>
      </g>
     </g>
    </g>
    <g id="ytick_5">
     <g id="line2d_26">
      <g>
       <use xlink:href="#m058cf88039" x="58.301563" y="94.287024" style="stroke: #000000; stroke-width: 0.8"/>
      </g>
     </g>
     <g id="text_26">
      <!-- 8 -->
      <g transform="translate(35.395313 103.785071)scale(0.25 -0.25)">
       <use xlink:href="#DejaVuSans-38"/>
      </g>
     </g>
    </g>
    <g id="text_27">
     <!-- accuracy [%] -->
     <g transform="translate(26.196094 361.001953)rotate(-90)scale(0.25 -0.25)">
      <defs>
       <path id="DejaVuSans-63" d="M 3122 3366 
L 3122 2828 
Q 2878 2963 2633 3030 
Q 2388 3097 2138 3097 
Q 1578 3097 1268 2742 
Q 959 2388 959 1747 
Q 959 1106 1268 751 
Q 1578 397 2138 397 
Q 2388 397 2633 464 
Q 2878 531 3122 666 
L 3122 134 
Q 2881 22 2623 -34 
Q 2366 -91 2075 -91 
Q 1284 -91 818 406 
Q 353 903 353 1747 
Q 353 2603 823 3093 
Q 1294 3584 2113 3584 
Q 2378 3584 2631 3529 
Q 2884 3475 3122 3366 
z
" transform="scale(0.015625)"/>
       <path id="DejaVuSans-75" d="M 544 1381 
L 544 3500 
L 1119 3500 
L 1119 1403 
Q 1119 906 1312 657 
Q 1506 409 1894 409 
Q 2359 409 2629 706 
Q 2900 1003 2900 1516 
L 2900 3500 
L 3475 3500 
L 3475 0 
L 2900 0 
L 2900 538 
Q 2691 219 2414 64 
Q 2138 -91 1772 -91 
Q 1169 -91 856 284 
Q 544 659 544 1381 
z
M 1991 3584 
L 1991 3584 
z
" transform="scale(0.015625)"/>
       <path id="DejaVuSans-72" d="M 2631 2963 
Q 2534 3019 2420 3045 
Q 2306 3072 2169 3072 
Q 1681 3072 1420 2755 
Q 1159 2438 1159 1844 
L 1159 0 
L 581 0 
L 581 3500 
L 1159 3500 
L 1159 2956 
Q 1341 3275 1631 3429 
Q 1922 3584 2338 3584 
Q 2397 3584 2469 3576 
Q 2541 3569 2628 3553 
L 2631 2963 
z
" transform="scale(0.015625)"/>
       <path id="DejaVuSans-79" d="M 2059 -325 
Q 1816 -950 1584 -1140 
Q 1353 -1331 966 -1331 
L 506 -1331 
L 506 -850 
L 844 -850 
Q 1081 -850 1212 -737 
Q 1344 -625 1503 -206 
L 1606 56 
L 191 3500 
L 800 3500 
L 1894 763 
L 2988 3500 
L 3597 3500 
L 2059 -325 
z
" transform="scale(0.015625)"/>
       <path id="DejaVuSans-5b" d="M 550 4863 
L 1875 4863 
L 1875 4416 
L 1125 4416 
L 1125 -397 
L 1875 -397 
L 1875 -844 
L 550 -844 
L 550 4863 
z
" transform="scale(0.015625)"/>
       <path id="DejaVuSans-25" d="M 4653 2053 
Q 4381 2053 4226 1822 
Q 4072 1591 4072 1178 
Q 4072 772 4226 539 
Q 4381 306 4653 306 
Q 4919 306 5073 539 
Q 5228 772 5228 1178 
Q 5228 1588 5073 1820 
Q 4919 2053 4653 2053 
z
M 4653 2450 
Q 5147 2450 5437 2106 
Q 5728 1763 5728 1178 
Q 5728 594 5436 251 
Q 5144 -91 4653 -91 
Q 4153 -91 3862 251 
Q 3572 594 3572 1178 
Q 3572 1766 3864 2108 
Q 4156 2450 4653 2450 
z
M 1428 4353 
Q 1159 4353 1004 4120 
Q 850 3888 850 3481 
Q 850 3069 1003 2837 
Q 1156 2606 1428 2606 
Q 1700 2606 1854 2837 
Q 2009 3069 2009 3481 
Q 2009 3884 1853 4118 
Q 1697 4353 1428 4353 
z
M 4250 4750 
L 4750 4750 
L 1831 -91 
L 1331 -91 
L 4250 4750 
z
M 1428 4750 
Q 1922 4750 2215 4408 
Q 2509 4066 2509 3481 
Q 2509 2891 2217 2550 
Q 1925 2209 1428 2209 
Q 931 2209 642 2551 
Q 353 2894 353 3481 
Q 353 4063 643 4406 
Q 934 4750 1428 4750 
z
" transform="scale(0.015625)"/>
       <path id="DejaVuSans-5d" d="M 1947 4863 
L 1947 -844 
L 622 -844 
L 622 -397 
L 1369 -397 
L 1369 4416 
L 622 4416 
L 622 4863 
L 1947 4863 
z
" transform="scale(0.015625)"/>
      </defs>
      <use xlink:href="#DejaVuSans-61"/>
      <use xlink:href="#DejaVuSans-63" x="61.279297"/>
      <use xlink:href="#DejaVuSans-63" x="116.259766"/>
      <use xlink:href="#DejaVuSans-75" x="171.240234"/>
      <use xlink:href="#DejaVuSans-72" x="234.619141"/>
      <use xlink:href="#DejaVuSans-61" x="275.732422"/>
      <use xlink:href="#DejaVuSans-63" x="337.011719"/>
      <use xlink:href="#DejaVuSans-79" x="391.992188"/>
      <use xlink:href="#DejaVuSans-20" x="451.171875"/>
      <use xlink:href="#DejaVuSans-5b" x="482.958984"/>
      <use xlink:href="#DejaVuSans-25" x="521.972656"/>
      <use xlink:href="#DejaVuSans-5d" x="616.992188"/>
     </g>
    </g>
   </g>
   <g id="patch_24">
    <path d="M 58.301563 550.8 
L 58.301563 7.2 
" style="fill: none; stroke: #000000; stroke-width: 0.8; stroke-linejoin: miter; stroke-linecap: square"/>
   </g>
   <g id="patch_25">
    <path d="M 1174.301563 550.8 
L 1174.301563 7.2 
" style="fill: none; stroke: #000000; stroke-width: 0.8; stroke-linejoin: miter; stroke-linecap: square"/>
   </g>
   <g id="patch_26">
    <path d="M 58.301563 550.8 
L 1174.301562 550.8 
" style="fill: none; stroke: #000000; stroke-width: 0.8; stroke-linejoin: miter; stroke-linecap: square"/>
   </g>
   <g id="patch_27">
    <path d="M 58.301563 7.2 
L 1174.301562 7.2 
" style="fill: none; stroke: #000000; stroke-width: 0.8; stroke-linejoin: miter; stroke-linecap: square"/>
   </g>
  </g>
 </g>
 <defs>
  <clipPath id="pc4d8c9089d">
   <rect x="58.301563" y="7.2" width="1116" height="543.6"/>
  </clipPath>
 </defs>
</svg>
