<?xml version="1.0" encoding="utf-8" standalone="no"?>
<!DOCTYPE svg PUBLIC "-//W3C//DTD SVG 1.1//EN"
  "http://www.w3.org/Graphics/SVG/1.1/DTD/svg11.dtd">
<svg xmlns:xlink="http://www.w3.org/1999/xlink" width="720pt" height="1080pt" viewBox="0 0 720 1080" xmlns="http://www.w3.org/2000/svg" version="1.1">
 <metadata>
  <rdf:RDF xmlns:dc="http://purl.org/dc/elements/1.1/" xmlns:cc="http://creativecommons.org/ns#" xmlns:rdf="http://www.w3.org/1999/02/22-rdf-syntax-ns#">
   <cc:Work>
    <dc:type rdf:resource="http://purl.org/dc/dcmitype/StillImage"/>
    <dc:date>2024-01-26T18:25:41.433568</dc:date>
    <dc:format>image/svg+xml</dc:format>
    <dc:creator>
     <cc:Agent>
      <dc:title>Matplotlib v3.5.1, https://matplotlib.org/</dc:title>
     </cc:Agent>
    </dc:creator>
   </cc:Work>
  </rdf:RDF>
 </metadata>
 <defs>
  <style type="text/css">*{stroke-linejoin: round; stroke-linecap: butt}</style>
 </defs>
 <g id="figure_1">
  <g id="patch_1">
   <path d="M 0 1080 
L 720 1080 
L 720 0 
L 0 0 
L 0 1080 
z
" style="fill: none"/>
  </g>
  <g id="axes_1">
   <g id="patch_2">
    <path d="M 79.33125 590.660625 
L 709.2 590.660625 
L 709.2 243.543125 
L 79.33125 243.543125 
z
" style="fill: #ffffff"/>
   </g>
   <g id="matplotlib.axis_1">
    <g id="xtick_1">
     <g id="line2d_1">
      <path d="M 107.961648 590.660625 
L 107.961648 243.543125 
" clip-path="url(#pddb3e75141)" style="fill: none; stroke: #b0b0b0; stroke-width: 0.8; stroke-linecap: square"/>
     </g>
     <g id="line2d_2">
      <defs>
       <path id="m445b5637c9" d="M 0 0 
L 0 3.5 
" style="stroke: #000000; stroke-width: 0.8"/>
      </defs>
      <g>
       <use xlink:href="#m445b5637c9" x="107.961648" y="590.660625" style="stroke: #000000; stroke-width: 0.8"/>
      </g>
     </g>
     <g id="text_1">
      <!-- 0 -->
      <g transform="translate(101.599148 612.8575)scale(0.2 -0.2)">
       <defs>
        <path id="DejaVuSans-30" d="M 2034 4250 
Q 1547 4250 1301 3770 
Q 1056 3291 1056 2328 
Q 1056 1369 1301 889 
Q 1547 409 2034 409 
Q 2525 409 2770 889 
Q 3016 1369 3016 2328 
Q 3016 3291 2770 3770 
Q 2525 4250 2034 4250 
z
M 2034 4750 
Q 2819 4750 3233 4129 
Q 3647 3509 3647 2328 
Q 3647 1150 3233 529 
Q 2819 -91 2034 -91 
Q 1250 -91 836 529 
Q 422 1150 422 2328 
Q 422 3509 836 4129 
Q 1250 4750 2034 4750 
z
" transform="scale(0.015625)"/>
       </defs>
       <use xlink:href="#DejaVuSans-30"/>
      </g>
     </g>
    </g>
    <g id="xtick_2">
     <g id="line2d_3">
      <path d="M 204.198279 590.660625 
L 204.198279 243.543125 
" clip-path="url(#pddb3e75141)" style="fill: none; stroke: #b0b0b0; stroke-width: 0.8; stroke-linecap: square"/>
     </g>
     <g id="line2d_4">
      <g>
       <use xlink:href="#m445b5637c9" x="204.198279" y="590.660625" style="stroke: #000000; stroke-width: 0.8"/>
      </g>
     </g>
     <g id="text_2">
      <!-- 20 -->
      <g transform="translate(191.473279 612.8575)scale(0.2 -0.2)">
       <defs>
        <path id="DejaVuSans-32" d="M 1228 531 
L 3431 531 
L 3431 0 
L 469 0 
L 469 531 
Q 828 903 1448 1529 
Q 2069 2156 2228 2338 
Q 2531 2678 2651 2914 
Q 2772 3150 2772 3378 
Q 2772 3750 2511 3984 
Q 2250 4219 1831 4219 
Q 1534 4219 1204 4116 
Q 875 4013 500 3803 
L 500 4441 
Q 881 4594 1212 4672 
Q 1544 4750 1819 4750 
Q 2544 4750 2975 4387 
Q 3406 4025 3406 3419 
Q 3406 3131 3298 2873 
Q 3191 2616 2906 2266 
Q 2828 2175 2409 1742 
Q 1991 1309 1228 531 
z
" transform="scale(0.015625)"/>
       </defs>
       <use xlink:href="#DejaVuSans-32"/>
       <use xlink:href="#DejaVuSans-30" x="63.623047"/>
      </g>
     </g>
    </g>
    <g id="xtick_3">
     <g id="line2d_5">
      <path d="M 300.43491 590.660625 
L 300.43491 243.543125 
" clip-path="url(#pddb3e75141)" style="fill: none; stroke: #b0b0b0; stroke-width: 0.8; stroke-linecap: square"/>
     </g>
     <g id="line2d_6">
      <g>
       <use xlink:href="#m445b5637c9" x="300.43491" y="590.660625" style="stroke: #000000; stroke-width: 0.8"/>
      </g>
     </g>
     <g id="text_3">
      <!-- 40 -->
      <g transform="translate(287.70991 612.8575)scale(0.2 -0.2)">
       <defs>
        <path id="DejaVuSans-34" d="M 2419 4116 
L 825 1625 
L 2419 1625 
L 2419 4116 
z
M 2253 4666 
L 3047 4666 
L 3047 1625 
L 3713 1625 
L 3713 1100 
L 3047 1100 
L 3047 0 
L 2419 0 
L 2419 1100 
L 313 1100 
L 313 1709 
L 2253 4666 
z
" transform="scale(0.015625)"/>
       </defs>
       <use xlink:href="#DejaVuSans-34"/>
       <use xlink:href="#DejaVuSans-30" x="63.623047"/>
      </g>
     </g>
    </g>
    <g id="xtick_4">
     <g id="line2d_7">
      <path d="M 396.671541 590.660625 
L 396.671541 243.543125 
" clip-path="url(#pddb3e75141)" style="fill: none; stroke: #b0b0b0; stroke-width: 0.8; stroke-linecap: square"/>
     </g>
     <g id="line2d_8">
      <g>
       <use xlink:href="#m445b5637c9" x="396.671541" y="590.660625" style="stroke: #000000; stroke-width: 0.8"/>
      </g>
     </g>
     <g id="text_4">
      <!-- 60 -->
      <g transform="translate(383.946541 612.8575)scale(0.2 -0.2)">
       <defs>
        <path id="DejaVuSans-36" d="M 2113 2584 
Q 1688 2584 1439 2293 
Q 1191 2003 1191 1497 
Q 1191 994 1439 701 
Q 1688 409 2113 409 
Q 2538 409 2786 701 
Q 3034 994 3034 1497 
Q 3034 2003 2786 2293 
Q 2538 2584 2113 2584 
z
M 3366 4563 
L 3366 3988 
Q 3128 4100 2886 4159 
Q 2644 4219 2406 4219 
Q 1781 4219 1451 3797 
Q 1122 3375 1075 2522 
Q 1259 2794 1537 2939 
Q 1816 3084 2150 3084 
Q 2853 3084 3261 2657 
Q 3669 2231 3669 1497 
Q 3669 778 3244 343 
Q 2819 -91 2113 -91 
Q 1303 -91 875 529 
Q 447 1150 447 2328 
Q 447 3434 972 4092 
Q 1497 4750 2381 4750 
Q 2619 4750 2861 4703 
Q 3103 4656 3366 4563 
z
" transform="scale(0.015625)"/>
       </defs>
       <use xlink:href="#DejaVuSans-36"/>
       <use xlink:href="#DejaVuSans-30" x="63.623047"/>
      </g>
     </g>
    </g>
    <g id="xtick_5">
     <g id="line2d_9">
      <path d="M 492.908172 590.660625 
L 492.908172 243.543125 
" clip-path="url(#pddb3e75141)" style="fill: none; stroke: #b0b0b0; stroke-width: 0.8; stroke-linecap: square"/>
     </g>
     <g id="line2d_10">
      <g>
       <use xlink:href="#m445b5637c9" x="492.908172" y="590.660625" style="stroke: #000000; stroke-width: 0.8"/>
      </g>
     </g>
     <g id="text_5">
      <!-- 80 -->
      <g transform="translate(480.183172 612.8575)scale(0.2 -0.2)">
       <defs>
        <path id="DejaVuSans-38" d="M 2034 2216 
Q 1584 2216 1326 1975 
Q 1069 1734 1069 1313 
Q 1069 891 1326 650 
Q 1584 409 2034 409 
Q 2484 409 2743 651 
Q 3003 894 3003 1313 
Q 3003 1734 2745 1975 
Q 2488 2216 2034 2216 
z
M 1403 2484 
Q 997 2584 770 2862 
Q 544 3141 544 3541 
Q 544 4100 942 4425 
Q 1341 4750 2034 4750 
Q 2731 4750 3128 4425 
Q 3525 4100 3525 3541 
Q 3525 3141 3298 2862 
Q 3072 2584 2669 2484 
Q 3125 2378 3379 2068 
Q 3634 1759 3634 1313 
Q 3634 634 3220 271 
Q 2806 -91 2034 -91 
Q 1263 -91 848 271 
Q 434 634 434 1313 
Q 434 1759 690 2068 
Q 947 2378 1403 2484 
z
M 1172 3481 
Q 1172 3119 1398 2916 
Q 1625 2713 2034 2713 
Q 2441 2713 2670 2916 
Q 2900 3119 2900 3481 
Q 2900 3844 2670 4047 
Q 2441 4250 2034 4250 
Q 1625 4250 1398 4047 
Q 1172 3844 1172 3481 
z
" transform="scale(0.015625)"/>
       </defs>
       <use xlink:href="#DejaVuSans-38"/>
       <use xlink:href="#DejaVuSans-30" x="63.623047"/>
      </g>
     </g>
    </g>
    <g id="xtick_6">
     <g id="line2d_11">
      <path d="M 589.144803 590.660625 
L 589.144803 243.543125 
" clip-path="url(#pddb3e75141)" style="fill: none; stroke: #b0b0b0; stroke-width: 0.8; stroke-linecap: square"/>
     </g>
     <g id="line2d_12">
      <g>
       <use xlink:href="#m445b5637c9" x="589.144803" y="590.660625" style="stroke: #000000; stroke-width: 0.8"/>
      </g>
     </g>
     <g id="text_6">
      <!-- 100 -->
      <g transform="translate(570.057303 612.8575)scale(0.2 -0.2)">
       <defs>
        <path id="DejaVuSans-31" d="M 794 531 
L 1825 531 
L 1825 4091 
L 703 3866 
L 703 4441 
L 1819 4666 
L 2450 4666 
L 2450 531 
L 3481 531 
L 3481 0 
L 794 0 
L 794 531 
z
" transform="scale(0.015625)"/>
       </defs>
       <use xlink:href="#DejaVuSans-31"/>
       <use xlink:href="#DejaVuSans-30" x="63.623047"/>
       <use xlink:href="#DejaVuSans-30" x="127.246094"/>
      </g>
     </g>
    </g>
    <g id="xtick_7">
     <g id="line2d_13">
      <path d="M 685.381434 590.660625 
L 685.381434 243.543125 
" clip-path="url(#pddb3e75141)" style="fill: none; stroke: #b0b0b0; stroke-width: 0.8; stroke-linecap: square"/>
     </g>
     <g id="line2d_14">
      <g>
       <use xlink:href="#m445b5637c9" x="685.381434" y="590.660625" style="stroke: #000000; stroke-width: 0.8"/>
      </g>
     </g>
     <g id="text_7">
      <!-- 120 -->
      <g transform="translate(666.293934 612.8575)scale(0.2 -0.2)">
       <use xlink:href="#DejaVuSans-31"/>
       <use xlink:href="#DejaVuSans-32" x="63.623047"/>
       <use xlink:href="#DejaVuSans-30" x="127.246094"/>
      </g>
     </g>
    </g>
    <g id="text_8">
     <!-- step -->
     <g transform="translate(372.634375 636.21375)scale(0.2 -0.2)">
      <defs>
       <path id="DejaVuSans-73" d="M 2834 3397 
L 2834 2853 
Q 2591 2978 2328 3040 
Q 2066 3103 1784 3103 
Q 1356 3103 1142 2972 
Q 928 2841 928 2578 
Q 928 2378 1081 2264 
Q 1234 2150 1697 2047 
L 1894 2003 
Q 2506 1872 2764 1633 
Q 3022 1394 3022 966 
Q 3022 478 2636 193 
Q 2250 -91 1575 -91 
Q 1294 -91 989 -36 
Q 684 19 347 128 
L 347 722 
Q 666 556 975 473 
Q 1284 391 1588 391 
Q 1994 391 2212 530 
Q 2431 669 2431 922 
Q 2431 1156 2273 1281 
Q 2116 1406 1581 1522 
L 1381 1569 
Q 847 1681 609 1914 
Q 372 2147 372 2553 
Q 372 3047 722 3315 
Q 1072 3584 1716 3584 
Q 2034 3584 2315 3537 
Q 2597 3491 2834 3397 
z
" transform="scale(0.015625)"/>
       <path id="DejaVuSans-74" d="M 1172 4494 
L 1172 3500 
L 2356 3500 
L 2356 3053 
L 1172 3053 
L 1172 1153 
Q 1172 725 1289 603 
Q 1406 481 1766 481 
L 2356 481 
L 2356 0 
L 1766 0 
Q 1100 0 847 248 
Q 594 497 594 1153 
L 594 3053 
L 172 3053 
L 172 3500 
L 594 3500 
L 594 4494 
L 1172 4494 
z
" transform="scale(0.015625)"/>
       <path id="DejaVuSans-65" d="M 3597 1894 
L 3597 1613 
L 953 1613 
Q 991 1019 1311 708 
Q 1631 397 2203 397 
Q 2534 397 2845 478 
Q 3156 559 3463 722 
L 3463 178 
Q 3153 47 2828 -22 
Q 2503 -91 2169 -91 
Q 1331 -91 842 396 
Q 353 884 353 1716 
Q 353 2575 817 3079 
Q 1281 3584 2069 3584 
Q 2775 3584 3186 3129 
Q 3597 2675 3597 1894 
z
M 3022 2063 
Q 3016 2534 2758 2815 
Q 2500 3097 2075 3097 
Q 1594 3097 1305 2825 
Q 1016 2553 972 2059 
L 3022 2063 
z
" transform="scale(0.015625)"/>
       <path id="DejaVuSans-70" d="M 1159 525 
L 1159 -1331 
L 581 -1331 
L 581 3500 
L 1159 3500 
L 1159 2969 
Q 1341 3281 1617 3432 
Q 1894 3584 2278 3584 
Q 2916 3584 3314 3078 
Q 3713 2572 3713 1747 
Q 3713 922 3314 415 
Q 2916 -91 2278 -91 
Q 1894 -91 1617 61 
Q 1341 213 1159 525 
z
M 3116 1747 
Q 3116 2381 2855 2742 
Q 2594 3103 2138 3103 
Q 1681 3103 1420 2742 
Q 1159 2381 1159 1747 
Q 1159 1113 1420 752 
Q 1681 391 2138 391 
Q 2594 391 2855 752 
Q 3116 1113 3116 1747 
z
" transform="scale(0.015625)"/>
      </defs>
      <use xlink:href="#DejaVuSans-73"/>
      <use xlink:href="#DejaVuSans-74" x="52.099609"/>
      <use xlink:href="#DejaVuSans-65" x="91.308594"/>
      <use xlink:href="#DejaVuSans-70" x="152.832031"/>
     </g>
    </g>
   </g>
   <g id="matplotlib.axis_2">
    <g id="ytick_1">
     <g id="line2d_15">
      <path d="M 79.33125 590.660625 
L 709.2 590.660625 
" clip-path="url(#pddb3e75141)" style="fill: none; stroke: #b0b0b0; stroke-width: 0.8; stroke-linecap: square"/>
     </g>
     <g id="line2d_16">
      <defs>
       <path id="ma825e37577" d="M 0 0 
L -3.5 0 
" style="stroke: #000000; stroke-width: 0.8"/>
      </defs>
      <g>
       <use xlink:href="#ma825e37577" x="79.33125" y="590.660625" style="stroke: #000000; stroke-width: 0.8"/>
      </g>
     </g>
     <g id="text_9">
      <!-- 30 -->
      <g transform="translate(46.88125 598.259063)scale(0.2 -0.2)">
       <defs>
        <path id="DejaVuSans-33" d="M 2597 2516 
Q 3050 2419 3304 2112 
Q 3559 1806 3559 1356 
Q 3559 666 3084 287 
Q 2609 -91 1734 -91 
Q 1441 -91 1130 -33 
Q 819 25 488 141 
L 488 750 
Q 750 597 1062 519 
Q 1375 441 1716 441 
Q 2309 441 2620 675 
Q 2931 909 2931 1356 
Q 2931 1769 2642 2001 
Q 2353 2234 1838 2234 
L 1294 2234 
L 1294 2753 
L 1863 2753 
Q 2328 2753 2575 2939 
Q 2822 3125 2822 3475 
Q 2822 3834 2567 4026 
Q 2313 4219 1838 4219 
Q 1578 4219 1281 4162 
Q 984 4106 628 3988 
L 628 4550 
Q 988 4650 1302 4700 
Q 1616 4750 1894 4750 
Q 2613 4750 3031 4423 
Q 3450 4097 3450 3541 
Q 3450 3153 3228 2886 
Q 3006 2619 2597 2516 
z
" transform="scale(0.015625)"/>
       </defs>
       <use xlink:href="#DejaVuSans-33"/>
       <use xlink:href="#DejaVuSans-30" x="63.623047"/>
      </g>
     </g>
    </g>
    <g id="ytick_2">
     <g id="line2d_17">
      <path d="M 79.33125 541.072411 
L 709.2 541.072411 
" clip-path="url(#pddb3e75141)" style="fill: none; stroke: #b0b0b0; stroke-width: 0.8; stroke-linecap: square"/>
     </g>
     <g id="line2d_18">
      <g>
       <use xlink:href="#ma825e37577" x="79.33125" y="541.072411" style="stroke: #000000; stroke-width: 0.8"/>
      </g>
     </g>
     <g id="text_10">
      <!-- 40 -->
      <g transform="translate(46.88125 548.670848)scale(0.2 -0.2)">
       <use xlink:href="#DejaVuSans-34"/>
       <use xlink:href="#DejaVuSans-30" x="63.623047"/>
      </g>
     </g>
    </g>
    <g id="ytick_3">
     <g id="line2d_19">
      <path d="M 79.33125 491.484196 
L 709.2 491.484196 
" clip-path="url(#pddb3e75141)" style="fill: none; stroke: #b0b0b0; stroke-width: 0.8; stroke-linecap: square"/>
     </g>
     <g id="line2d_20">
      <g>
       <use xlink:href="#ma825e37577" x="79.33125" y="491.484196" style="stroke: #000000; stroke-width: 0.8"/>
      </g>
     </g>
     <g id="text_11">
      <!-- 50 -->
      <g transform="translate(46.88125 499.082634)scale(0.2 -0.2)">
       <defs>
        <path id="DejaVuSans-35" d="M 691 4666 
L 3169 4666 
L 3169 4134 
L 1269 4134 
L 1269 2991 
Q 1406 3038 1543 3061 
Q 1681 3084 1819 3084 
Q 2600 3084 3056 2656 
Q 3513 2228 3513 1497 
Q 3513 744 3044 326 
Q 2575 -91 1722 -91 
Q 1428 -91 1123 -41 
Q 819 9 494 109 
L 494 744 
Q 775 591 1075 516 
Q 1375 441 1709 441 
Q 2250 441 2565 725 
Q 2881 1009 2881 1497 
Q 2881 1984 2565 2268 
Q 2250 2553 1709 2553 
Q 1456 2553 1204 2497 
Q 953 2441 691 2322 
L 691 4666 
z
" transform="scale(0.015625)"/>
       </defs>
       <use xlink:href="#DejaVuSans-35"/>
       <use xlink:href="#DejaVuSans-30" x="63.623047"/>
      </g>
     </g>
    </g>
    <g id="ytick_4">
     <g id="line2d_21">
      <path d="M 79.33125 441.895982 
L 709.2 441.895982 
" clip-path="url(#pddb3e75141)" style="fill: none; stroke: #b0b0b0; stroke-width: 0.8; stroke-linecap: square"/>
     </g>
     <g id="line2d_22">
      <g>
       <use xlink:href="#ma825e37577" x="79.33125" y="441.895982" style="stroke: #000000; stroke-width: 0.8"/>
      </g>
     </g>
     <g id="text_12">
      <!-- 60 -->
      <g transform="translate(46.88125 449.49442)scale(0.2 -0.2)">
       <use xlink:href="#DejaVuSans-36"/>
       <use xlink:href="#DejaVuSans-30" x="63.623047"/>
      </g>
     </g>
    </g>
    <g id="ytick_5">
     <g id="line2d_23">
      <path d="M 79.33125 392.307768 
L 709.2 392.307768 
" clip-path="url(#pddb3e75141)" style="fill: none; stroke: #b0b0b0; stroke-width: 0.8; stroke-linecap: square"/>
     </g>
     <g id="line2d_24">
      <g>
       <use xlink:href="#ma825e37577" x="79.33125" y="392.307768" style="stroke: #000000; stroke-width: 0.8"/>
      </g>
     </g>
     <g id="text_13">
      <!-- 70 -->
      <g transform="translate(46.88125 399.906205)scale(0.2 -0.2)">
       <defs>
        <path id="DejaVuSans-37" d="M 525 4666 
L 3525 4666 
L 3525 4397 
L 1831 0 
L 1172 0 
L 2766 4134 
L 525 4134 
L 525 4666 
z
" transform="scale(0.015625)"/>
       </defs>
       <use xlink:href="#DejaVuSans-37"/>
       <use xlink:href="#DejaVuSans-30" x="63.623047"/>
      </g>
     </g>
    </g>
    <g id="ytick_6">
     <g id="line2d_25">
      <path d="M 79.33125 342.719554 
L 709.2 342.719554 
" clip-path="url(#pddb3e75141)" style="fill: none; stroke: #b0b0b0; stroke-width: 0.8; stroke-linecap: square"/>
     </g>
     <g id="line2d_26">
      <g>
       <use xlink:href="#ma825e37577" x="79.33125" y="342.719554" style="stroke: #000000; stroke-width: 0.8"/>
      </g>
     </g>
     <g id="text_14">
      <!-- 80 -->
      <g transform="translate(46.88125 350.317991)scale(0.2 -0.2)">
       <use xlink:href="#DejaVuSans-38"/>
       <use xlink:href="#DejaVuSans-30" x="63.623047"/>
      </g>
     </g>
    </g>
    <g id="ytick_7">
     <g id="line2d_27">
      <path d="M 79.33125 293.131339 
L 709.2 293.131339 
" clip-path="url(#pddb3e75141)" style="fill: none; stroke: #b0b0b0; stroke-width: 0.8; stroke-linecap: square"/>
     </g>
     <g id="line2d_28">
      <g>
       <use xlink:href="#ma825e37577" x="79.33125" y="293.131339" style="stroke: #000000; stroke-width: 0.8"/>
      </g>
     </g>
     <g id="text_15">
      <!-- 90 -->
      <g transform="translate(46.88125 300.729777)scale(0.2 -0.2)">
       <defs>
        <path id="DejaVuSans-39" d="M 703 97 
L 703 672 
Q 941 559 1184 500 
Q 1428 441 1663 441 
Q 2288 441 2617 861 
Q 2947 1281 2994 2138 
Q 2813 1869 2534 1725 
Q 2256 1581 1919 1581 
Q 1219 1581 811 2004 
Q 403 2428 403 3163 
Q 403 3881 828 4315 
Q 1253 4750 1959 4750 
Q 2769 4750 3195 4129 
Q 3622 3509 3622 2328 
Q 3622 1225 3098 567 
Q 2575 -91 1691 -91 
Q 1453 -91 1209 -44 
Q 966 3 703 97 
z
M 1959 2075 
Q 2384 2075 2632 2365 
Q 2881 2656 2881 3163 
Q 2881 3666 2632 3958 
Q 2384 4250 1959 4250 
Q 1534 4250 1286 3958 
Q 1038 3666 1038 3163 
Q 1038 2656 1286 2365 
Q 1534 2075 1959 2075 
z
" transform="scale(0.015625)"/>
       </defs>
       <use xlink:href="#DejaVuSans-39"/>
       <use xlink:href="#DejaVuSans-30" x="63.623047"/>
      </g>
     </g>
    </g>
    <g id="ytick_8">
     <g id="line2d_29">
      <path d="M 79.33125 243.543125 
L 709.2 243.543125 
" clip-path="url(#pddb3e75141)" style="fill: none; stroke: #b0b0b0; stroke-width: 0.8; stroke-linecap: square"/>
     </g>
     <g id="line2d_30">
      <g>
       <use xlink:href="#ma825e37577" x="79.33125" y="243.543125" style="stroke: #000000; stroke-width: 0.8"/>
      </g>
     </g>
     <g id="text_16">
      <!-- 100 -->
      <g transform="translate(34.15625 251.141562)scale(0.2 -0.2)">
       <use xlink:href="#DejaVuSans-31"/>
       <use xlink:href="#DejaVuSans-30" x="63.623047"/>
       <use xlink:href="#DejaVuSans-30" x="127.246094"/>
      </g>
     </g>
    </g>
    <g id="text_17">
     <!-- accuracy [%] -->
     <g transform="translate(25.996875 482.703437)rotate(-90)scale(0.2 -0.2)">
      <defs>
       <path id="DejaVuSans-61" d="M 2194 1759 
Q 1497 1759 1228 1600 
Q 959 1441 959 1056 
Q 959 750 1161 570 
Q 1363 391 1709 391 
Q 2188 391 2477 730 
Q 2766 1069 2766 1631 
L 2766 1759 
L 2194 1759 
z
M 3341 1997 
L 3341 0 
L 2766 0 
L 2766 531 
Q 2569 213 2275 61 
Q 1981 -91 1556 -91 
Q 1019 -91 701 211 
Q 384 513 384 1019 
Q 384 1609 779 1909 
Q 1175 2209 1959 2209 
L 2766 2209 
L 2766 2266 
Q 2766 2663 2505 2880 
Q 2244 3097 1772 3097 
Q 1472 3097 1187 3025 
Q 903 2953 641 2809 
L 641 3341 
Q 956 3463 1253 3523 
Q 1550 3584 1831 3584 
Q 2591 3584 2966 3190 
Q 3341 2797 3341 1997 
z
" transform="scale(0.015625)"/>
       <path id="DejaVuSans-63" d="M 3122 3366 
L 3122 2828 
Q 2878 2963 2633 3030 
Q 2388 3097 2138 3097 
Q 1578 3097 1268 2742 
Q 959 2388 959 1747 
Q 959 1106 1268 751 
Q 1578 397 2138 397 
Q 2388 397 2633 464 
Q 2878 531 3122 666 
L 3122 134 
Q 2881 22 2623 -34 
Q 2366 -91 2075 -91 
Q 1284 -91 818 406 
Q 353 903 353 1747 
Q 353 2603 823 3093 
Q 1294 3584 2113 3584 
Q 2378 3584 2631 3529 
Q 2884 3475 3122 3366 
z
" transform="scale(0.015625)"/>
       <path id="DejaVuSans-75" d="M 544 1381 
L 544 3500 
L 1119 3500 
L 1119 1403 
Q 1119 906 1312 657 
Q 1506 409 1894 409 
Q 2359 409 2629 706 
Q 2900 1003 2900 1516 
L 2900 3500 
L 3475 3500 
L 3475 0 
L 2900 0 
L 2900 538 
Q 2691 219 2414 64 
Q 2138 -91 1772 -91 
Q 1169 -91 856 284 
Q 544 659 544 1381 
z
M 1991 3584 
L 1991 3584 
z
" transform="scale(0.015625)"/>
       <path id="DejaVuSans-72" d="M 2631 2963 
Q 2534 3019 2420 3045 
Q 2306 3072 2169 3072 
Q 1681 3072 1420 2755 
Q 1159 2438 1159 1844 
L 1159 0 
L 581 0 
L 581 3500 
L 1159 3500 
L 1159 2956 
Q 1341 3275 1631 3429 
Q 1922 3584 2338 3584 
Q 2397 3584 2469 3576 
Q 2541 3569 2628 3553 
L 2631 2963 
z
" transform="scale(0.015625)"/>
       <path id="DejaVuSans-79" d="M 2059 -325 
Q 1816 -950 1584 -1140 
Q 1353 -1331 966 -1331 
L 506 -1331 
L 506 -850 
L 844 -850 
Q 1081 -850 1212 -737 
Q 1344 -625 1503 -206 
L 1606 56 
L 191 3500 
L 800 3500 
L 1894 763 
L 2988 3500 
L 3597 3500 
L 2059 -325 
z
" transform="scale(0.015625)"/>
       <path id="DejaVuSans-20" transform="scale(0.015625)"/>
       <path id="DejaVuSans-5b" d="M 550 4863 
L 1875 4863 
L 1875 4416 
L 1125 4416 
L 1125 -397 
L 1875 -397 
L 1875 -844 
L 550 -844 
L 550 4863 
z
" transform="scale(0.015625)"/>
       <path id="DejaVuSans-25" d="M 4653 2053 
Q 4381 2053 4226 1822 
Q 4072 1591 4072 1178 
Q 4072 772 4226 539 
Q 4381 306 4653 306 
Q 4919 306 5073 539 
Q 5228 772 5228 1178 
Q 5228 1588 5073 1820 
Q 4919 2053 4653 2053 
z
M 4653 2450 
Q 5147 2450 5437 2106 
Q 5728 1763 5728 1178 
Q 5728 594 5436 251 
Q 5144 -91 4653 -91 
Q 4153 -91 3862 251 
Q 3572 594 3572 1178 
Q 3572 1766 3864 2108 
Q 4156 2450 4653 2450 
z
M 1428 4353 
Q 1159 4353 1004 4120 
Q 850 3888 850 3481 
Q 850 3069 1003 2837 
Q 1156 2606 1428 2606 
Q 1700 2606 1854 2837 
Q 2009 3069 2009 3481 
Q 2009 3884 1853 4118 
Q 1697 4353 1428 4353 
z
M 4250 4750 
L 4750 4750 
L 1831 -91 
L 1331 -91 
L 4250 4750 
z
M 1428 4750 
Q 1922 4750 2215 4408 
Q 2509 4066 2509 3481 
Q 2509 2891 2217 2550 
Q 1925 2209 1428 2209 
Q 931 2209 642 2551 
Q 353 2894 353 3481 
Q 353 4063 643 4406 
Q 934 4750 1428 4750 
z
" transform="scale(0.015625)"/>
       <path id="DejaVuSans-5d" d="M 1947 4863 
L 1947 -844 
L 622 -844 
L 622 -397 
L 1369 -397 
L 1369 4416 
L 622 4416 
L 622 4863 
L 1947 4863 
z
" transform="scale(0.015625)"/>
      </defs>
      <use xlink:href="#DejaVuSans-61"/>
      <use xlink:href="#DejaVuSans-63" x="61.279297"/>
      <use xlink:href="#DejaVuSans-63" x="116.259766"/>
      <use xlink:href="#DejaVuSans-75" x="171.240234"/>
      <use xlink:href="#DejaVuSans-72" x="234.619141"/>
      <use xlink:href="#DejaVuSans-61" x="275.732422"/>
      <use xlink:href="#DejaVuSans-63" x="337.011719"/>
      <use xlink:href="#DejaVuSans-79" x="391.992188"/>
      <use xlink:href="#DejaVuSans-20" x="451.171875"/>
      <use xlink:href="#DejaVuSans-5b" x="482.958984"/>
      <use xlink:href="#DejaVuSans-25" x="521.972656"/>
      <use xlink:href="#DejaVuSans-5d" x="616.992188"/>
     </g>
    </g>
   </g>
   <g id="line2d_31">
    <path d="M 107.961648 515.980767 
L 112.773479 450.425161 
L 117.585311 418.490339 
L 122.397142 412.738126 
L 127.208974 396.820314 
L 132.020805 383.927348 
L 136.832637 384.968695 
L 141.644469 375.993241 
L 146.4563 380.109072 
L 151.268132 370.389786 
L 156.079963 364.587974 
L 160.891795 357.744776 
L 165.703626 360.868858 
L 170.515458 354.02566 
L 175.327289 350.554501 
L 180.139121 366.174796 
L 184.950953 347.926331 
L 189.762784 344.405535 
L 194.574616 344.157616 
L 199.386447 349.364356 
L 204.198279 356.009197 
L 209.01011 342.818713 
L 213.821942 355.067008 
L 218.633773 349.166037 
L 223.445605 345.496481 
L 228.257436 348.719723 
L 233.069268 343.711303 
L 237.8811 346.785786 
L 242.692931 342.719554 
L 247.504763 343.215428 
L 252.316594 342.669955 
L 257.128426 339.248394 
L 261.940257 341.876563 
L 266.752089 339.496312 
L 271.56392 334.636688 
L 276.375752 329.181954 
L 281.187584 337.215259 
L 285.999415 337.512776 
L 290.811247 334.537491 
L 295.623078 332.306036 
L 300.43491 329.52907 
L 305.246741 327.79349 
L 310.058573 326.9505 
L 314.870404 328.140606 
L 319.682236 329.826625 
L 324.494068 327.248017 
L 329.305899 328.735679 
L 334.117731 329.777027 
L 338.929562 332.256437 
L 343.741394 329.033196 
L 348.553225 329.479509 
L 353.365057 328.934036 
L 358.176888 327.694331 
L 362.98872 327.991848 
L 367.800551 326.603384 
L 372.612383 324.322331 
L 377.424215 326.702544 
L 382.236046 329.677867 
L 387.047878 326.504224 
L 391.859709 325.859553 
L 396.671541 329.033196 
L 401.483372 326.157108 
L 406.295204 325.562036 
L 411.107035 326.256268 
L 415.918867 328.68608 
L 420.730699 326.900901 
L 425.54253 328.041447 
L 430.354362 328.041447 
L 435.166193 327.495973 
L 439.978025 328.190205 
L 444.789856 326.256268 
L 449.601688 330.272901 
L 454.413519 330.124143 
L 459.225351 327.04966 
L 464.037182 327.595133 
L 468.849014 326.305867 
L 473.660846 328.091045 
L 478.472677 331.165491 
L 483.284509 332.157278 
L 488.09634 330.42166 
L 492.908172 332.801911 
L 497.720003 332.85151 
L 502.531835 337.16566 
L 507.343666 341.876563 
L 512.155498 338.107848 
L 516.96733 337.116099 
L 521.779161 341.380688 
L 526.590993 335.380481 
L 531.402824 331.611804 
L 536.214656 333.446544 
L 541.026487 334.289572 
L 545.838319 333.149027 
L 550.65015 333.843259 
L 555.461982 335.281321 
L 560.273814 338.355804 
L 565.085645 333.446544 
L 569.897477 341.579008 
L 574.709308 339.59551 
L 579.52114 340.53766 
L 584.332971 345.149365 
L 589.144803 337.314456 
L 593.956634 336.025152 
L 598.768466 336.22351 
L 603.580297 340.140983 
L 608.392129 344.157616 
L 613.203961 342.124481 
L 618.015792 341.430249 
L 622.827624 335.132563 
L 627.639455 342.422036 
L 632.451287 338.80208 
L 637.263118 339.992187 
L 642.07495 342.471597 
L 646.886781 339.545911 
L 651.698613 336.372268 
L 656.510445 337.661572 
L 661.322276 342.025322 
L 666.134108 336.173911 
L 670.945939 337.16566 
L 675.757771 342.96751 
L 680.569602 337.810331 
" clip-path="url(#pddb3e75141)" style="fill: none; stroke: #1f77b4; stroke-width: 1.5; stroke-linecap: square"/>
   </g>
   <g id="line2d_32">
    <path d="M 107.961648 496.492598 
L 112.773479 504.625081 
L 117.585311 507.154071 
L 122.397142 503.038259 
L 127.208974 500.806786 
L 132.020805 497.633143 
L 136.832637 501.054723 
L 141.644469 496.641375 
L 146.4563 496.393438 
L 151.268132 494.905776 
L 156.079963 494.211544 
L 160.891795 489.946955 
L 165.703626 491.632955 
L 170.515458 487.269206 
L 175.327289 487.76508 
L 180.139121 484.988134 
L 184.950953 480.624384 
L 189.762784 485.632786 
L 194.574616 484.888955 
L 199.386447 484.988134 
L 204.198279 486.227839 
L 209.01011 484.938554 
L 213.821942 482.955018 
L 218.633773 481.91367 
L 223.445605 484.442679 
L 228.257436 485.731964 
L 233.069268 486.525375 
L 237.8811 486.674134 
L 242.692931 485.33525 
L 247.504763 484.690616 
L 252.316594 485.632786 
L 257.128426 484.145143 
L 261.940257 480.475607 
L 266.752089 484.938554 
L 271.56392 485.136911 
L 276.375752 481.120259 
L 281.187584 480.525206 
L 285.999415 481.417795 
L 290.811247 482.855839 
L 295.623078 481.467375 
L 300.43491 473.136553 
L 305.246741 420.374715 
L 310.058573 391.167222 
L 314.870404 376.340357 
L 319.682236 372.373322 
L 324.494068 356.356313 
L 329.305899 348.521366 
L 334.117731 339.793867 
L 338.929562 341.033572 
L 343.741394 338.603723 
L 348.553225 339.000437 
L 353.365057 327.347215 
L 358.176888 325.115722 
L 362.98872 324.719045 
L 367.800551 324.42149 
L 372.612383 321.396606 
L 377.424215 320.156901 
L 382.236046 316.73534 
L 387.047878 314.454287 
L 391.859709 313.115384 
L 396.671541 312.817866 
L 401.483372 307.809446 
L 406.295204 306.371383 
L 411.107035 306.024267 
L 415.918867 305.577992 
L 420.730699 306.668938 
L 425.54253 303.99117 
L 430.354362 303.743214 
L 435.166193 302.156393 
L 439.978025 301.610919 
L 444.789856 299.825741 
L 449.601688 300.470412 
L 454.413519 304.189528 
L 459.225351 298.338117 
L 464.037182 298.338117 
L 468.849014 296.453741 
L 473.660846 296.800857 
L 478.472677 295.61075 
L 483.284509 294.371045 
L 488.09634 294.073527 
L 492.908172 295.461991 
L 497.720003 299.131509 
L 502.531835 297.395929 
L 507.343666 300.123296 
L 512.155498 299.825741 
L 516.96733 301.412562 
L 521.779161 300.668731 
L 526.590993 301.065446 
L 531.402824 300.817528 
L 536.214656 302.701866 
L 541.026487 302.801026 
L 545.838319 301.462161 
L 550.65015 302.205992 
L 555.461982 301.363001 
L 560.273814 301.858876 
L 565.085645 302.900224 
L 569.897477 302.404349 
L 574.709308 302.999383 
L 579.52114 302.35475 
L 584.332971 305.032518 
L 589.144803 304.09033 
L 593.956634 301.660518 
L 598.768466 304.189528 
L 603.580297 303.148142 
L 608.392129 304.88376 
L 613.203961 302.999383 
L 618.015792 304.586205 
L 622.827624 302.701866 
L 627.639455 304.784562 
L 632.451287 302.652267 
L 637.263118 303.346499 
L 642.07495 303.99117 
L 646.886781 304.88376 
L 651.698613 304.734963 
L 656.510445 303.594456 
L 661.322276 306.668938 
L 666.134108 304.288687 
L 670.945939 305.181277 
L 675.757771 305.032518 
L 680.569602 303.693615 
" clip-path="url(#pddb3e75141)" style="fill: none; stroke: #ff7f0e; stroke-width: 1.5; stroke-linecap: square"/>
   </g>
   <g id="line2d_33">
    <path d="M 107.961648 505.815187 
L 112.773479 505.56725 
L 117.585311 505.170535 
L 122.397142 504.426723 
L 127.208974 508.145839 
L 132.020805 503.732491 
L 136.832637 509.782241 
L 141.644469 507.848303 
L 146.4563 505.269714 
L 151.268132 505.914366 
L 156.079963 504.972197 
L 160.891795 503.484535 
L 165.703626 501.996893 
L 170.515458 502.542366 
L 175.327289 502.393607 
L 180.139121 502.691125 
L 184.950953 504.724241 
L 189.762784 503.137419 
L 194.574616 505.61683 
L 199.386447 506.955714 
L 204.198279 507.054893 
L 209.01011 504.327545 
L 213.821942 504.873018 
L 218.633773 504.079607 
L 223.445605 504.129187 
L 228.257436 507.402009 
L 233.069268 507.154071 
L 237.8811 507.25325 
L 242.692931 508.393777 
L 247.504763 509.038429 
L 252.316594 507.30283 
L 257.128426 507.451607 
L 261.940257 504.674661 
L 266.752089 505.716009 
L 271.56392 506.707777 
L 276.375752 508.096241 
L 281.187584 507.104491 
L 285.999415 504.575482 
L 290.811247 507.054893 
L 295.623078 506.459839 
L 300.43491 509.484724 
L 305.246741 512.955902 
L 310.058573 513.99725 
L 314.870404 511.021946 
L 319.682236 507.550786 
L 324.494068 510.228535 
L 329.305899 511.864956 
L 334.117731 510.823608 
L 338.929562 510.873187 
L 343.741394 513.303018 
L 348.553225 512.906303 
L 353.365057 511.666598 
L 358.176888 511.121125 
L 362.98872 512.608767 
L 367.800551 515.088178 
L 372.612383 513.005482 
L 377.424215 515.336134 
L 382.236046 515.980767 
L 387.047878 515.73283 
L 391.859709 515.385714 
L 396.671541 513.451777 
L 401.483372 515.832009 
L 406.295204 514.542724 
L 411.107035 513.550956 
L 415.918867 513.749313 
L 420.730699 515.68325 
L 425.54253 511.964134 
L 430.354362 513.402178 
L 435.166193 514.294767 
L 439.978025 512.807125 
L 444.789856 514.790661 
L 449.601688 514.04683 
L 454.413519 515.236956 
L 459.225351 516.675018 
L 464.037182 514.592304 
L 468.849014 514.93942 
L 473.660846 515.633651 
L 478.472677 515.137777 
L 483.284509 514.88984 
L 488.09634 515.534473 
L 492.908172 501.153902 
L 497.720003 424.143392 
L 502.531835 400.836947 
L 507.343666 380.555347 
L 512.155498 378.819768 
L 516.96733 359.034081 
L 521.779161 367.265705 
L 526.590993 366.869028 
L 531.402824 358.042294 
L 536.214656 347.876732 
L 541.026487 353.926501 
L 545.838319 349.90983 
L 550.65015 349.314795 
L 555.461982 339.149196 
L 560.273814 341.876563 
L 565.085645 339.099597 
L 569.897477 344.306375 
L 574.709308 336.917742 
L 579.52114 337.314456 
L 584.332971 346.389071 
L 589.144803 334.190375 
L 593.956634 332.504394 
L 598.768466 332.504394 
L 603.580297 335.678036 
L 608.392129 342.570795 
L 613.203961 337.760732 
L 618.015792 330.620017 
L 622.827624 327.892688 
L 627.639455 326.9505 
L 632.451287 330.768776 
L 637.263118 330.520857 
L 642.07495 329.727428 
L 646.886781 337.562375 
L 651.698613 327.595133 
L 656.510445 322.735509 
L 661.322276 331.760563 
L 666.134108 319.661026 
L 670.945939 319.908983 
L 675.757771 334.884607 
L 680.569602 318.57008 
" clip-path="url(#pddb3e75141)" style="fill: none; stroke: #2ca02c; stroke-width: 1.5; stroke-linecap: square"/>
   </g>
   <g id="line2d_34">
    <path d="M 107.961648 478.640848 
L 112.773479 482.855839 
L 117.585311 487.566723 
L 122.397142 486.773312 
L 127.208974 488.508911 
L 132.020805 488.310554 
L 136.832637 488.161795 
L 141.644469 490.145312 
L 146.4563 491.335438 
L 151.268132 489.550259 
L 156.079963 493.71567 
L 160.891795 493.517312 
L 165.703626 494.707438 
L 170.515458 493.318955 
L 175.327289 493.864428 
L 180.139121 494.261143 
L 184.950953 492.773482 
L 189.762784 492.971839 
L 194.574616 494.757018 
L 199.386447 491.484196 
L 204.198279 491.533776 
L 209.01011 490.145312 
L 213.821942 492.87266 
L 218.633773 493.120617 
L 223.445605 493.566892 
L 228.257436 493.368554 
L 233.069268 489.50066 
L 237.8811 491.980071 
L 242.692931 492.82308 
L 247.504763 493.219776 
L 252.316594 493.269375 
L 257.128426 496.641375 
L 261.940257 494.360322 
L 266.752089 497.533965 
L 271.56392 498.476134 
L 276.375752 497.434786 
L 281.187584 499.071187 
L 285.999415 498.724071 
L 290.811247 500.45967 
L 295.623078 497.881081 
L 300.43491 498.228197 
L 305.246741 501.104303 
L 310.058573 501.104303 
L 314.870404 500.757187 
L 319.682236 501.451419 
L 324.494068 499.765419 
L 329.305899 498.624892 
L 334.117731 498.277776 
L 338.929562 502.14567 
L 343.741394 501.203482 
L 348.553225 501.104303 
L 353.365057 498.77367 
L 358.176888 499.914197 
L 362.98872 496.641375 
L 367.800551 496.889313 
L 372.612383 497.633143 
L 377.424215 497.385187 
L 382.236046 496.641375 
L 387.047878 497.13725 
L 391.859709 497.732303 
L 396.671541 496.690955 
L 401.483372 497.781902 
L 406.295204 497.13725 
L 411.107035 496.591776 
L 415.918867 492.723902 
L 420.730699 495.252892 
L 425.54253 494.261143 
L 430.354362 493.219776 
L 435.166193 494.757018 
L 439.978025 494.806598 
L 444.789856 494.062786 
L 449.601688 496.343839 
L 454.413519 495.252892 
L 459.225351 496.343839 
L 464.037182 495.550428 
L 468.849014 496.443018 
L 473.660846 494.806598 
L 478.472677 492.723902 
L 483.284509 492.178428 
L 488.09634 496.343839 
L 492.908172 492.128849 
L 497.720003 486.327018 
L 502.531835 487.517143 
L 507.343666 486.327018 
L 512.155498 485.23609 
L 516.96733 487.566723 
L 521.779161 486.12866 
L 526.590993 485.682384 
L 531.402824 488.211375 
L 536.214656 487.467544 
L 541.026487 485.583206 
L 545.838319 485.484027 
L 550.65015 485.831143 
L 555.461982 485.037732 
L 560.273814 486.773312 
L 565.085645 485.930322 
L 569.897477 486.674134 
L 574.709308 485.434428 
L 579.52114 486.475795 
L 584.332971 486.0295 
L 589.144803 485.23609 
L 593.956634 485.682384 
L 598.768466 486.822911 
L 603.580297 487.467544 
L 608.392129 488.459312 
L 613.203961 488.062616 
L 618.015792 487.913839 
L 622.827624 487.417964 
L 627.639455 484.740196 
L 632.451287 488.211375 
L 637.263118 489.599839 
L 642.07495 491.632955 
L 646.886781 492.426366 
L 651.698613 489.550259 
L 656.510445 489.004786 
L 661.322276 491.880911 
L 666.134108 489.798196 
L 670.945939 489.649438 
L 675.757771 489.748616 
L 680.569602 489.351902 
" clip-path="url(#pddb3e75141)" style="fill: none; stroke: #d62728; stroke-width: 1.5; stroke-linecap: square"/>
   </g>
   <g id="line2d_35">
    <path d="M 107.961648 502.24483 
L 112.773479 506.013545 
L 117.585311 507.848303 
L 122.397142 515.137777 
L 127.208974 518.113062 
L 132.020805 522.179294 
L 136.832637 524.014072 
L 141.644469 529.815884 
L 146.4563 533.981295 
L 151.268132 528.576178 
L 156.079963 525.402536 
L 160.891795 527.485232 
L 165.703626 527.088536 
L 170.515458 531.700241 
L 175.327289 530.410937 
L 180.139121 533.287063 
L 184.950953 531.948179 
L 189.762784 532.444053 
L 194.574616 529.220831 
L 199.386447 529.915062 
L 204.198279 531.253947 
L 209.01011 529.220831 
L 213.821942 531.154768 
L 218.633773 527.634009 
L 223.445605 528.477 
L 228.257436 526.642241 
L 233.069268 525.105 
L 237.8811 529.815884 
L 242.692931 532.989526 
L 247.504763 528.576178 
L 252.316594 529.567947 
L 257.128426 531.849 
L 261.940257 532.543232 
L 266.752089 531.006009 
L 271.56392 530.857232 
L 276.375752 529.964642 
L 281.187584 527.683589 
L 285.999415 529.716705 
L 290.811247 528.377821 
L 295.623078 527.683589 
L 300.43491 529.567947 
L 305.246741 532.493652 
L 310.058573 536.411125 
L 314.870404 534.873884 
L 319.682236 532.642411 
L 324.494068 533.782937 
L 329.305899 533.981295 
L 334.117731 535.865652 
L 338.929562 533.237464 
L 343.741394 538.493821 
L 348.553225 539.783125 
L 353.365057 538.54342 
L 358.176888 539.931884 
L 362.98872 537.650831 
L 367.800551 538.097125 
L 372.612383 540.279 
L 377.424215 533.039125 
L 382.236046 538.741759 
L 387.047878 540.576536 
L 391.859709 541.667464 
L 396.671541 539.435991 
L 401.483372 539.039295 
L 406.295204 541.816241 
L 411.107035 539.535169 
L 415.918867 540.973232 
L 420.730699 540.32858 
L 425.54253 537.105357 
L 430.354362 537.006179 
L 435.166193 533.435821 
L 439.978025 542.708831 
L 444.789856 537.105357 
L 449.601688 543.254285 
L 454.413519 540.725295 
L 459.225351 540.923652 
L 464.037182 540.675696 
L 468.849014 538.493821 
L 473.660846 536.163169 
L 478.472677 538.345063 
L 483.284509 538.493821 
L 488.09634 536.460705 
L 492.908172 538.791357 
L 497.720003 531.79942 
L 502.531835 536.064009 
L 507.343666 539.039295 
L 512.155498 537.452473 
L 516.96733 538.146705 
L 521.779161 540.626116 
L 526.590993 542.460875 
L 531.402824 538.345063 
L 536.214656 546.22959 
L 541.026487 543.254285 
L 545.838319 548.510643 
L 550.65015 549.700768 
L 555.461982 545.584937 
L 560.273814 546.576706 
L 565.085645 542.212937 
L 569.897477 543.750179 
L 574.709308 542.907169 
L 579.52114 542.212937 
L 584.332971 542.262536 
L 589.144803 540.725295 
L 593.956634 540.923652 
L 598.768466 539.733527 
L 603.580297 539.386411 
L 608.392129 545.634517 
L 613.203961 543.898937 
L 618.015792 537.551652 
L 622.827624 542.411295 
L 627.639455 545.733696 
L 632.451287 545.981652 
L 637.263118 547.122179 
L 642.07495 546.031232 
L 646.886781 539.783125 
L 651.698613 537.402875 
L 656.510445 543.204705 
L 661.322276 540.031063 
L 666.134108 541.320348 
L 670.945939 540.279 
L 675.757771 538.791357 
L 680.569602 535.865652 
" clip-path="url(#pddb3e75141)" style="fill: none; stroke: #9467bd; stroke-width: 1.5; stroke-linecap: square"/>
   </g>
   <g id="patch_3">
    <path d="M 79.33125 590.660625 
L 79.33125 243.543125 
" style="fill: none; stroke: #000000; stroke-width: 0.8; stroke-linejoin: miter; stroke-linecap: square"/>
   </g>
   <g id="patch_4">
    <path d="M 709.2 590.660625 
L 709.2 243.543125 
" style="fill: none; stroke: #000000; stroke-width: 0.8; stroke-linejoin: miter; stroke-linecap: square"/>
   </g>
   <g id="patch_5">
    <path d="M 79.33125 590.660625 
L 709.2 590.660625 
" style="fill: none; stroke: #000000; stroke-width: 0.8; stroke-linejoin: miter; stroke-linecap: square"/>
   </g>
   <g id="patch_6">
    <path d="M 79.33125 243.543125 
L 709.2 243.543125 
" style="fill: none; stroke: #000000; stroke-width: 0.8; stroke-linejoin: miter; stroke-linecap: square"/>
   </g>
   <g id="text_18">
    <!-- Train -->
    <g transform="translate(370.278125 237.543125)scale(0.2 -0.2)">
     <defs>
      <path id="DejaVuSans-54" d="M -19 4666 
L 3928 4666 
L 3928 4134 
L 2272 4134 
L 2272 0 
L 1638 0 
L 1638 4134 
L -19 4134 
L -19 4666 
z
" transform="scale(0.015625)"/>
      <path id="DejaVuSans-69" d="M 603 3500 
L 1178 3500 
L 1178 0 
L 603 0 
L 603 3500 
z
M 603 4863 
L 1178 4863 
L 1178 4134 
L 603 4134 
L 603 4863 
z
" transform="scale(0.015625)"/>
      <path id="DejaVuSans-6e" d="M 3513 2113 
L 3513 0 
L 2938 0 
L 2938 2094 
Q 2938 2591 2744 2837 
Q 2550 3084 2163 3084 
Q 1697 3084 1428 2787 
Q 1159 2491 1159 1978 
L 1159 0 
L 581 0 
L 581 3500 
L 1159 3500 
L 1159 2956 
Q 1366 3272 1645 3428 
Q 1925 3584 2291 3584 
Q 2894 3584 3203 3211 
Q 3513 2838 3513 2113 
z
" transform="scale(0.015625)"/>
     </defs>
     <use xlink:href="#DejaVuSans-54"/>
     <use xlink:href="#DejaVuSans-72" x="46.333984"/>
     <use xlink:href="#DejaVuSans-61" x="87.447266"/>
     <use xlink:href="#DejaVuSans-69" x="148.726562"/>
     <use xlink:href="#DejaVuSans-6e" x="176.509766"/>
    </g>
   </g>
   <g id="legend_1">
    <g id="patch_7">
     <path d="M 86.33125 324.93375 
L 148.920313 324.93375 
Q 150.920313 324.93375 150.920313 322.93375 
L 150.920313 250.543125 
Q 150.920313 248.543125 148.920313 248.543125 
L 86.33125 248.543125 
Q 84.33125 248.543125 84.33125 250.543125 
L 84.33125 322.93375 
Q 84.33125 324.93375 86.33125 324.93375 
z
" style="fill: #ffffff; opacity: 0.8; stroke: #cccccc; stroke-linejoin: miter"/>
    </g>
    <g id="line2d_36">
     <path d="M 88.33125 256.641562 
L 98.33125 256.641562 
L 108.33125 256.641562 
" style="fill: none; stroke: #1f77b4; stroke-width: 1.5; stroke-linecap: square"/>
    </g>
    <g id="text_19">
     <!-- task 0 -->
     <g transform="translate(116.33125 260.141562)scale(0.1 -0.1)">
      <defs>
       <path id="DejaVuSans-6b" d="M 581 4863 
L 1159 4863 
L 1159 1991 
L 2875 3500 
L 3609 3500 
L 1753 1863 
L 3688 0 
L 2938 0 
L 1159 1709 
L 1159 0 
L 581 0 
L 581 4863 
z
" transform="scale(0.015625)"/>
      </defs>
      <use xlink:href="#DejaVuSans-74"/>
      <use xlink:href="#DejaVuSans-61" x="39.208984"/>
      <use xlink:href="#DejaVuSans-73" x="100.488281"/>
      <use xlink:href="#DejaVuSans-6b" x="152.587891"/>
      <use xlink:href="#DejaVuSans-20" x="210.498047"/>
      <use xlink:href="#DejaVuSans-30" x="242.285156"/>
     </g>
    </g>
    <g id="line2d_37">
     <path d="M 88.33125 271.319687 
L 98.33125 271.319687 
L 108.33125 271.319687 
" style="fill: none; stroke: #ff7f0e; stroke-width: 1.5; stroke-linecap: square"/>
    </g>
    <g id="text_20">
     <!-- task 1 -->
     <g transform="translate(116.33125 274.819687)scale(0.1 -0.1)">
      <use xlink:href="#DejaVuSans-74"/>
      <use xlink:href="#DejaVuSans-61" x="39.208984"/>
      <use xlink:href="#DejaVuSans-73" x="100.488281"/>
      <use xlink:href="#DejaVuSans-6b" x="152.587891"/>
      <use xlink:href="#DejaVuSans-20" x="210.498047"/>
      <use xlink:href="#DejaVuSans-31" x="242.285156"/>
     </g>
    </g>
    <g id="line2d_38">
     <path d="M 88.33125 285.997813 
L 98.33125 285.997813 
L 108.33125 285.997813 
" style="fill: none; stroke: #2ca02c; stroke-width: 1.5; stroke-linecap: square"/>
    </g>
    <g id="text_21">
     <!-- task 2 -->
     <g transform="translate(116.33125 289.497813)scale(0.1 -0.1)">
      <use xlink:href="#DejaVuSans-74"/>
      <use xlink:href="#DejaVuSans-61" x="39.208984"/>
      <use xlink:href="#DejaVuSans-73" x="100.488281"/>
      <use xlink:href="#DejaVuSans-6b" x="152.587891"/>
      <use xlink:href="#DejaVuSans-20" x="210.498047"/>
      <use xlink:href="#DejaVuSans-32" x="242.285156"/>
     </g>
    </g>
    <g id="line2d_39">
     <path d="M 88.33125 300.675937 
L 98.33125 300.675937 
L 108.33125 300.675937 
" style="fill: none; stroke: #d62728; stroke-width: 1.5; stroke-linecap: square"/>
    </g>
    <g id="text_22">
     <!-- task 3 -->
     <g transform="translate(116.33125 304.175937)scale(0.1 -0.1)">
      <use xlink:href="#DejaVuSans-74"/>
      <use xlink:href="#DejaVuSans-61" x="39.208984"/>
      <use xlink:href="#DejaVuSans-73" x="100.488281"/>
      <use xlink:href="#DejaVuSans-6b" x="152.587891"/>
      <use xlink:href="#DejaVuSans-20" x="210.498047"/>
      <use xlink:href="#DejaVuSans-33" x="242.285156"/>
     </g>
    </g>
    <g id="line2d_40">
     <path d="M 88.33125 315.354062 
L 98.33125 315.354062 
L 108.33125 315.354062 
" style="fill: none; stroke: #9467bd; stroke-width: 1.5; stroke-linecap: square"/>
    </g>
    <g id="text_23">
     <!-- task 4 -->
     <g transform="translate(116.33125 318.854062)scale(0.1 -0.1)">
      <use xlink:href="#DejaVuSans-74"/>
      <use xlink:href="#DejaVuSans-61" x="39.208984"/>
      <use xlink:href="#DejaVuSans-73" x="100.488281"/>
      <use xlink:href="#DejaVuSans-6b" x="152.587891"/>
      <use xlink:href="#DejaVuSans-20" x="210.498047"/>
      <use xlink:href="#DejaVuSans-34" x="242.285156"/>
     </g>
    </g>
   </g>
  </g>
  <g id="axes_2">
   <g id="patch_8">
    <path d="M 79.33125 1019.4875 
L 709.2 1019.4875 
L 709.2 672.37 
L 79.33125 672.37 
z
" style="fill: #ffffff"/>
   </g>
   <g id="matplotlib.axis_3">
    <g id="xtick_8">
     <g id="line2d_41">
      <path d="M 107.961648 1019.4875 
L 107.961648 672.37 
" clip-path="url(#p07b3e01322)" style="fill: none; stroke: #b0b0b0; stroke-width: 0.8; stroke-linecap: square"/>
     </g>
     <g id="line2d_42">
      <g>
       <use xlink:href="#m445b5637c9" x="107.961648" y="1019.4875" style="stroke: #000000; stroke-width: 0.8"/>
      </g>
     </g>
     <g id="text_24">
      <!-- 0 -->
      <g transform="translate(101.599148 1041.684375)scale(0.2 -0.2)">
       <use xlink:href="#DejaVuSans-30"/>
      </g>
     </g>
    </g>
    <g id="xtick_9">
     <g id="line2d_43">
      <path d="M 204.198279 1019.4875 
L 204.198279 672.37 
" clip-path="url(#p07b3e01322)" style="fill: none; stroke: #b0b0b0; stroke-width: 0.8; stroke-linecap: square"/>
     </g>
     <g id="line2d_44">
      <g>
       <use xlink:href="#m445b5637c9" x="204.198279" y="1019.4875" style="stroke: #000000; stroke-width: 0.8"/>
      </g>
     </g>
     <g id="text_25">
      <!-- 20 -->
      <g transform="translate(191.473279 1041.684375)scale(0.2 -0.2)">
       <use xlink:href="#DejaVuSans-32"/>
       <use xlink:href="#DejaVuSans-30" x="63.623047"/>
      </g>
     </g>
    </g>
    <g id="xtick_10">
     <g id="line2d_45">
      <path d="M 300.43491 1019.4875 
L 300.43491 672.37 
" clip-path="url(#p07b3e01322)" style="fill: none; stroke: #b0b0b0; stroke-width: 0.8; stroke-linecap: square"/>
     </g>
     <g id="line2d_46">
      <g>
       <use xlink:href="#m445b5637c9" x="300.43491" y="1019.4875" style="stroke: #000000; stroke-width: 0.8"/>
      </g>
     </g>
     <g id="text_26">
      <!-- 40 -->
      <g transform="translate(287.70991 1041.684375)scale(0.2 -0.2)">
       <use xlink:href="#DejaVuSans-34"/>
       <use xlink:href="#DejaVuSans-30" x="63.623047"/>
      </g>
     </g>
    </g>
    <g id="xtick_11">
     <g id="line2d_47">
      <path d="M 396.671541 1019.4875 
L 396.671541 672.37 
" clip-path="url(#p07b3e01322)" style="fill: none; stroke: #b0b0b0; stroke-width: 0.8; stroke-linecap: square"/>
     </g>
     <g id="line2d_48">
      <g>
       <use xlink:href="#m445b5637c9" x="396.671541" y="1019.4875" style="stroke: #000000; stroke-width: 0.8"/>
      </g>
     </g>
     <g id="text_27">
      <!-- 60 -->
      <g transform="translate(383.946541 1041.684375)scale(0.2 -0.2)">
       <use xlink:href="#DejaVuSans-36"/>
       <use xlink:href="#DejaVuSans-30" x="63.623047"/>
      </g>
     </g>
    </g>
    <g id="xtick_12">
     <g id="line2d_49">
      <path d="M 492.908172 1019.4875 
L 492.908172 672.37 
" clip-path="url(#p07b3e01322)" style="fill: none; stroke: #b0b0b0; stroke-width: 0.8; stroke-linecap: square"/>
     </g>
     <g id="line2d_50">
      <g>
       <use xlink:href="#m445b5637c9" x="492.908172" y="1019.4875" style="stroke: #000000; stroke-width: 0.8"/>
      </g>
     </g>
     <g id="text_28">
      <!-- 80 -->
      <g transform="translate(480.183172 1041.684375)scale(0.2 -0.2)">
       <use xlink:href="#DejaVuSans-38"/>
       <use xlink:href="#DejaVuSans-30" x="63.623047"/>
      </g>
     </g>
    </g>
    <g id="xtick_13">
     <g id="line2d_51">
      <path d="M 589.144803 1019.4875 
L 589.144803 672.37 
" clip-path="url(#p07b3e01322)" style="fill: none; stroke: #b0b0b0; stroke-width: 0.8; stroke-linecap: square"/>
     </g>
     <g id="line2d_52">
      <g>
       <use xlink:href="#m445b5637c9" x="589.144803" y="1019.4875" style="stroke: #000000; stroke-width: 0.8"/>
      </g>
     </g>
     <g id="text_29">
      <!-- 100 -->
      <g transform="translate(570.057303 1041.684375)scale(0.2 -0.2)">
       <use xlink:href="#DejaVuSans-31"/>
       <use xlink:href="#DejaVuSans-30" x="63.623047"/>
       <use xlink:href="#DejaVuSans-30" x="127.246094"/>
      </g>
     </g>
    </g>
    <g id="xtick_14">
     <g id="line2d_53">
      <path d="M 685.381434 1019.4875 
L 685.381434 672.37 
" clip-path="url(#p07b3e01322)" style="fill: none; stroke: #b0b0b0; stroke-width: 0.8; stroke-linecap: square"/>
     </g>
     <g id="line2d_54">
      <g>
       <use xlink:href="#m445b5637c9" x="685.381434" y="1019.4875" style="stroke: #000000; stroke-width: 0.8"/>
      </g>
     </g>
     <g id="text_30">
      <!-- 120 -->
      <g transform="translate(666.293934 1041.684375)scale(0.2 -0.2)">
       <use xlink:href="#DejaVuSans-31"/>
       <use xlink:href="#DejaVuSans-32" x="63.623047"/>
       <use xlink:href="#DejaVuSans-30" x="127.246094"/>
      </g>
     </g>
    </g>
    <g id="text_31">
     <!-- step -->
     <g transform="translate(372.634375 1065.040625)scale(0.2 -0.2)">
      <use xlink:href="#DejaVuSans-73"/>
      <use xlink:href="#DejaVuSans-74" x="52.099609"/>
      <use xlink:href="#DejaVuSans-65" x="91.308594"/>
      <use xlink:href="#DejaVuSans-70" x="152.832031"/>
     </g>
    </g>
   </g>
   <g id="matplotlib.axis_4">
    <g id="ytick_9">
     <g id="line2d_55">
      <path d="M 79.33125 1019.4875 
L 709.2 1019.4875 
" clip-path="url(#p07b3e01322)" style="fill: none; stroke: #b0b0b0; stroke-width: 0.8; stroke-linecap: square"/>
     </g>
     <g id="line2d_56">
      <g>
       <use xlink:href="#ma825e37577" x="79.33125" y="1019.4875" style="stroke: #000000; stroke-width: 0.8"/>
      </g>
     </g>
     <g id="text_32">
      <!-- 30 -->
      <g transform="translate(46.88125 1027.085938)scale(0.2 -0.2)">
       <use xlink:href="#DejaVuSans-33"/>
       <use xlink:href="#DejaVuSans-30" x="63.623047"/>
      </g>
     </g>
    </g>
    <g id="ytick_10">
     <g id="line2d_57">
      <path d="M 79.33125 969.899286 
L 709.2 969.899286 
" clip-path="url(#p07b3e01322)" style="fill: none; stroke: #b0b0b0; stroke-width: 0.8; stroke-linecap: square"/>
     </g>
     <g id="line2d_58">
      <g>
       <use xlink:href="#ma825e37577" x="79.33125" y="969.899286" style="stroke: #000000; stroke-width: 0.8"/>
      </g>
     </g>
     <g id="text_33">
      <!-- 40 -->
      <g transform="translate(46.88125 977.497723)scale(0.2 -0.2)">
       <use xlink:href="#DejaVuSans-34"/>
       <use xlink:href="#DejaVuSans-30" x="63.623047"/>
      </g>
     </g>
    </g>
    <g id="ytick_11">
     <g id="line2d_59">
      <path d="M 79.33125 920.311071 
L 709.2 920.311071 
" clip-path="url(#p07b3e01322)" style="fill: none; stroke: #b0b0b0; stroke-width: 0.8; stroke-linecap: square"/>
     </g>
     <g id="line2d_60">
      <g>
       <use xlink:href="#ma825e37577" x="79.33125" y="920.311071" style="stroke: #000000; stroke-width: 0.8"/>
      </g>
     </g>
     <g id="text_34">
      <!-- 50 -->
      <g transform="translate(46.88125 927.909509)scale(0.2 -0.2)">
       <use xlink:href="#DejaVuSans-35"/>
       <use xlink:href="#DejaVuSans-30" x="63.623047"/>
      </g>
     </g>
    </g>
    <g id="ytick_12">
     <g id="line2d_61">
      <path d="M 79.33125 870.722857 
L 709.2 870.722857 
" clip-path="url(#p07b3e01322)" style="fill: none; stroke: #b0b0b0; stroke-width: 0.8; stroke-linecap: square"/>
     </g>
     <g id="line2d_62">
      <g>
       <use xlink:href="#ma825e37577" x="79.33125" y="870.722857" style="stroke: #000000; stroke-width: 0.8"/>
      </g>
     </g>
     <g id="text_35">
      <!-- 60 -->
      <g transform="translate(46.88125 878.321295)scale(0.2 -0.2)">
       <use xlink:href="#DejaVuSans-36"/>
       <use xlink:href="#DejaVuSans-30" x="63.623047"/>
      </g>
     </g>
    </g>
    <g id="ytick_13">
     <g id="line2d_63">
      <path d="M 79.33125 821.134643 
L 709.2 821.134643 
" clip-path="url(#p07b3e01322)" style="fill: none; stroke: #b0b0b0; stroke-width: 0.8; stroke-linecap: square"/>
     </g>
     <g id="line2d_64">
      <g>
       <use xlink:href="#ma825e37577" x="79.33125" y="821.134643" style="stroke: #000000; stroke-width: 0.8"/>
      </g>
     </g>
     <g id="text_36">
      <!-- 70 -->
      <g transform="translate(46.88125 828.73308)scale(0.2 -0.2)">
       <use xlink:href="#DejaVuSans-37"/>
       <use xlink:href="#DejaVuSans-30" x="63.623047"/>
      </g>
     </g>
    </g>
    <g id="ytick_14">
     <g id="line2d_65">
      <path d="M 79.33125 771.546429 
L 709.2 771.546429 
" clip-path="url(#p07b3e01322)" style="fill: none; stroke: #b0b0b0; stroke-width: 0.8; stroke-linecap: square"/>
     </g>
     <g id="line2d_66">
      <g>
       <use xlink:href="#ma825e37577" x="79.33125" y="771.546429" style="stroke: #000000; stroke-width: 0.8"/>
      </g>
     </g>
     <g id="text_37">
      <!-- 80 -->
      <g transform="translate(46.88125 779.144866)scale(0.2 -0.2)">
       <use xlink:href="#DejaVuSans-38"/>
       <use xlink:href="#DejaVuSans-30" x="63.623047"/>
      </g>
     </g>
    </g>
    <g id="ytick_15">
     <g id="line2d_67">
      <path d="M 79.33125 721.958214 
L 709.2 721.958214 
" clip-path="url(#p07b3e01322)" style="fill: none; stroke: #b0b0b0; stroke-width: 0.8; stroke-linecap: square"/>
     </g>
     <g id="line2d_68">
      <g>
       <use xlink:href="#ma825e37577" x="79.33125" y="721.958214" style="stroke: #000000; stroke-width: 0.8"/>
      </g>
     </g>
     <g id="text_38">
      <!-- 90 -->
      <g transform="translate(46.88125 729.556652)scale(0.2 -0.2)">
       <use xlink:href="#DejaVuSans-39"/>
       <use xlink:href="#DejaVuSans-30" x="63.623047"/>
      </g>
     </g>
    </g>
    <g id="ytick_16">
     <g id="line2d_69">
      <path d="M 79.33125 672.37 
L 709.2 672.37 
" clip-path="url(#p07b3e01322)" style="fill: none; stroke: #b0b0b0; stroke-width: 0.8; stroke-linecap: square"/>
     </g>
     <g id="line2d_70">
      <g>
       <use xlink:href="#ma825e37577" x="79.33125" y="672.37" style="stroke: #000000; stroke-width: 0.8"/>
      </g>
     </g>
     <g id="text_39">
      <!-- 100 -->
      <g transform="translate(34.15625 679.968437)scale(0.2 -0.2)">
       <use xlink:href="#DejaVuSans-31"/>
       <use xlink:href="#DejaVuSans-30" x="63.623047"/>
       <use xlink:href="#DejaVuSans-30" x="127.246094"/>
      </g>
     </g>
    </g>
    <g id="text_40">
     <!-- accuracy [%] -->
     <g transform="translate(25.996875 911.530312)rotate(-90)scale(0.2 -0.2)">
      <use xlink:href="#DejaVuSans-61"/>
      <use xlink:href="#DejaVuSans-63" x="61.279297"/>
      <use xlink:href="#DejaVuSans-63" x="116.259766"/>
      <use xlink:href="#DejaVuSans-75" x="171.240234"/>
      <use xlink:href="#DejaVuSans-72" x="234.619141"/>
      <use xlink:href="#DejaVuSans-61" x="275.732422"/>
      <use xlink:href="#DejaVuSans-63" x="337.011719"/>
      <use xlink:href="#DejaVuSans-79" x="391.992188"/>
      <use xlink:href="#DejaVuSans-20" x="451.171875"/>
      <use xlink:href="#DejaVuSans-5b" x="482.958984"/>
      <use xlink:href="#DejaVuSans-25" x="521.972656"/>
      <use xlink:href="#DejaVuSans-5d" x="616.992188"/>
     </g>
    </g>
   </g>
   <g id="line2d_71">
    <path d="M 107.961648 944.857241 
L 112.773479 885.103447 
L 117.585311 850.391697 
L 122.397142 843.449339 
L 127.208974 826.34142 
L 132.020805 812.456705 
L 136.832637 810.969044 
L 141.644469 801.547313 
L 146.4563 805.514348 
L 151.268132 800.059652 
L 156.079963 794.852874 
L 160.891795 787.166724 
L 165.703626 791.877589 
L 170.515458 784.687313 
L 175.327289 782.951733 
L 180.139121 799.315821 
L 184.950953 783.447608 
L 189.762784 780.224366 
L 194.574616 779.480535 
L 199.386447 789.398178 
L 204.198279 793.36525 
L 209.01011 779.97641 
L 213.821942 788.406429 
L 218.633773 786.422893 
L 223.445605 779.480535 
L 228.257436 782.703777 
L 233.069268 777.249081 
L 237.8811 781.959946 
L 242.692931 779.97641 
L 247.504763 780.472322 
L 252.316594 782.207902 
L 257.128426 779.232617 
L 261.940257 780.224366 
L 266.752089 776.50525 
L 271.56392 773.529965 
L 276.375752 767.579356 
L 281.187584 776.753206 
L 285.999415 772.538178 
L 290.811247 770.058767 
L 295.623078 766.587607 
L 300.43491 765.099946 
L 305.246741 760.38908 
L 310.058573 761.876742 
L 314.870404 761.876742 
L 319.682236 762.620535 
L 324.494068 759.397331 
L 329.305899 760.637037 
L 334.117731 762.372616 
L 338.929562 766.339651 
L 343.741394 764.108196 
L 348.553225 763.86024 
L 353.365057 763.116447 
L 358.176888 761.628786 
L 362.98872 763.364366 
L 367.800551 763.86024 
L 372.612383 761.132911 
L 377.424215 764.852027 
L 382.236046 765.347902 
L 387.047878 760.637037 
L 391.859709 761.628786 
L 396.671541 763.116447 
L 401.483372 761.38083 
L 406.295204 758.901419 
L 411.107035 761.628786 
L 415.918867 763.364366 
L 420.730699 760.141124 
L 425.54253 763.364366 
L 430.354362 762.372616 
L 435.166193 761.38083 
L 439.978025 763.116447 
L 444.789856 760.38908 
L 449.601688 762.868491 
L 454.413519 764.108196 
L 459.225351 762.372616 
L 464.037182 760.38908 
L 468.849014 762.12466 
L 473.660846 762.868491 
L 478.472677 762.620535 
L 483.284509 764.356153 
L 488.09634 760.38908 
L 492.908172 768.819062 
L 497.720003 766.587607 
L 502.531835 771.050554 
L 507.343666 773.282009 
L 512.155498 772.538178 
L 516.96733 771.546429 
L 521.779161 773.282009 
L 526.590993 769.314974 
L 531.402824 763.86024 
L 536.214656 768.323187 
L 541.026487 766.835563 
L 545.838319 767.083482 
L 550.65015 769.810849 
L 555.461982 767.083482 
L 560.273814 772.042303 
L 565.085645 767.579356 
L 569.897477 771.794385 
L 574.709308 773.03409 
L 579.52114 770.802598 
L 584.332971 776.753206 
L 589.144803 772.290259 
L 593.956634 770.058767 
L 598.768466 770.554679 
L 603.580297 771.794385 
L 608.392129 775.761419 
L 613.203961 776.009375 
L 618.015792 774.273795 
L 622.827624 767.579356 
L 627.639455 775.761419 
L 632.451287 772.538178 
L 637.263118 771.298472 
L 642.07495 771.546429 
L 646.886781 768.323187 
L 651.698613 766.339651 
L 656.510445 769.562892 
L 661.322276 771.794385 
L 666.134108 766.587607 
L 670.945939 766.587607 
L 675.757771 772.538178 
L 680.569602 766.835563 
" clip-path="url(#p07b3e01322)" style="fill: none; stroke: #1f77b4; stroke-width: 1.5; stroke-linecap: square"/>
   </g>
   <g id="line2d_72">
    <path d="M 107.961648 923.78225 
L 112.773479 934.939598 
L 117.585311 933.204 
L 122.397142 933.699893 
L 127.208974 937.666946 
L 132.020805 933.204 
L 136.832637 930.724589 
L 141.644469 925.51783 
L 146.4563 924.774018 
L 151.268132 925.765767 
L 156.079963 921.550777 
L 160.891795 919.319303 
L 165.703626 916.344018 
L 170.515458 916.096081 
L 175.327289 919.319303 
L 180.139121 917.335786 
L 184.950953 912.872839 
L 189.762784 920.559009 
L 194.574616 916.591955 
L 199.386447 918.327535 
L 204.198279 917.831661 
L 209.01011 919.071366 
L 213.821942 915.848125 
L 218.633773 915.848125 
L 223.445605 913.864607 
L 228.257436 919.071366 
L 233.069268 919.071366 
L 237.8811 918.575491 
L 242.692931 916.344018 
L 247.504763 922.294608 
L 252.316594 923.286357 
L 257.128426 920.559009 
L 261.940257 919.567241 
L 266.752089 917.831661 
L 271.56392 921.550777 
L 276.375752 916.839893 
L 281.187584 913.61667 
L 285.999415 916.096081 
L 290.811247 919.319303 
L 295.623078 914.112545 
L 300.43491 908.409892 
L 305.246741 859.813446 
L 310.058573 829.81258 
L 314.870404 812.95258 
L 319.682236 810.969044 
L 324.494068 796.588492 
L 329.305899 785.679062 
L 334.117731 785.679062 
L 338.929562 778.488786 
L 343.741394 782.951733 
L 348.553225 778.984661 
L 353.365057 766.587607 
L 358.176888 760.884955 
L 362.98872 763.364366 
L 367.800551 764.852027 
L 372.612383 760.637037 
L 377.424215 754.934384 
L 382.236046 755.182303 
L 387.047878 751.215268 
L 391.859709 750.719394 
L 396.671541 748.983776 
L 401.483372 746.504365 
L 406.295204 745.26466 
L 411.107035 742.041456 
L 415.918867 740.553795 
L 420.730699 746.256447 
L 425.54253 741.545544 
L 430.354362 741.7935 
L 435.166193 741.7935 
L 439.978025 738.818215 
L 444.789856 739.066133 
L 449.601688 738.818215 
L 454.413519 744.768785 
L 459.225351 737.578509 
L 464.037182 736.090848 
L 468.849014 735.594973 
L 473.660846 736.338804 
L 478.472677 730.388196 
L 483.284509 730.388196 
L 488.09634 732.867606 
L 492.908172 734.603224 
L 497.720003 737.578509 
L 502.531835 733.859393 
L 507.343666 739.066133 
L 512.155498 739.809964 
L 516.96733 740.05792 
L 521.779161 738.570259 
L 526.590993 738.570259 
L 531.402824 740.553795 
L 536.214656 738.32234 
L 541.026487 739.562045 
L 545.838319 738.570259 
L 550.65015 740.05792 
L 555.461982 738.074384 
L 560.273814 736.586722 
L 565.085645 735.347017 
L 569.897477 737.330553 
L 574.709308 740.05792 
L 579.52114 736.834679 
L 584.332971 738.818215 
L 589.144803 739.809964 
L 593.956634 738.818215 
L 598.768466 743.033205 
L 603.580297 740.801751 
L 608.392129 738.32234 
L 613.203961 738.32234 
L 618.015792 739.562045 
L 622.827624 736.586722 
L 627.639455 740.05792 
L 632.451287 740.305838 
L 637.263118 741.545544 
L 642.07495 742.041456 
L 646.886781 740.801751 
L 651.698613 739.809964 
L 656.510445 741.7935 
L 661.322276 738.818215 
L 666.134108 738.570259 
L 670.945939 739.562045 
L 675.757771 741.297625 
L 680.569602 740.801751 
" clip-path="url(#p07b3e01322)" style="fill: none; stroke: #ff7f0e; stroke-width: 1.5; stroke-linecap: square"/>
   </g>
   <g id="line2d_73">
    <path d="M 107.961648 935.68341 
L 112.773479 930.228714 
L 117.585311 933.94783 
L 122.397142 932.21225 
L 127.208974 929.236946 
L 132.020805 927.997241 
L 136.832637 931.46842 
L 141.644469 932.21225 
L 146.4563 933.451956 
L 151.268132 934.443705 
L 156.079963 935.435473 
L 160.891795 927.997241 
L 165.703626 931.220482 
L 170.515458 930.476652 
L 175.327289 930.724589 
L 180.139121 928.493134 
L 184.950953 929.484884 
L 189.762784 930.972545 
L 194.574616 931.716357 
L 199.386447 932.460188 
L 204.198279 933.451956 
L 209.01011 937.666946 
L 213.821942 938.162821 
L 218.633773 934.195768 
L 223.445605 932.708125 
L 228.257436 937.171072 
L 233.069268 935.187536 
L 237.8811 937.666946 
L 242.692931 940.394294 
L 247.504763 937.171072 
L 252.316594 933.94783 
L 257.128426 935.187536 
L 261.940257 936.427241 
L 266.752089 933.699893 
L 271.56392 932.708125 
L 276.375752 937.666946 
L 281.187584 935.931366 
L 285.999415 934.195768 
L 290.811247 939.650483 
L 295.623078 936.923116 
L 300.43491 941.881937 
L 305.246741 942.129893 
L 310.058573 940.890188 
L 314.870404 933.204 
L 319.682236 934.443705 
L 324.494068 937.171072 
L 329.305899 939.650483 
L 334.117731 936.923116 
L 338.929562 931.716357 
L 343.741394 930.228714 
L 348.553225 934.443705 
L 353.365057 937.914884 
L 358.176888 936.675178 
L 362.98872 937.666946 
L 367.800551 938.658714 
L 372.612383 935.435473 
L 377.424215 937.914884 
L 382.236046 937.914884 
L 387.047878 935.931366 
L 391.859709 939.650483 
L 396.671541 940.890188 
L 401.483372 945.353116 
L 406.295204 937.914884 
L 411.107035 936.923116 
L 415.918867 932.956062 
L 420.730699 939.402526 
L 425.54253 938.410777 
L 430.354362 933.94783 
L 435.166193 936.179304 
L 439.978025 936.923116 
L 444.789856 936.675178 
L 449.601688 936.923116 
L 454.413519 937.914884 
L 459.225351 938.162821 
L 464.037182 939.154589 
L 468.849014 944.609304 
L 473.660846 940.394294 
L 478.472677 938.906652 
L 483.284509 939.402526 
L 488.09634 937.171072 
L 492.908172 921.054902 
L 497.720003 852.623151 
L 502.531835 828.324919 
L 507.343666 813.448455 
L 512.155498 809.233464 
L 516.96733 792.62142 
L 521.779161 797.580241 
L 526.590993 798.324072 
L 531.402824 791.381714 
L 536.214656 782.207902 
L 541.026487 788.406429 
L 545.838319 782.703777 
L 550.65015 779.480535 
L 555.461982 773.282009 
L 560.273814 774.273795 
L 565.085645 771.050554 
L 569.897477 773.529965 
L 574.709308 766.091733 
L 579.52114 769.067018 
L 584.332971 777.249081 
L 589.144803 763.364366 
L 593.956634 764.356153 
L 598.768466 768.819062 
L 603.580297 767.331438 
L 608.392129 776.009375 
L 613.203961 769.314974 
L 618.015792 764.108196 
L 622.827624 761.38083 
L 627.639455 758.6535 
L 632.451287 761.876742 
L 637.263118 759.64525 
L 642.07495 758.901419 
L 646.886781 767.331438 
L 651.698613 759.149375 
L 656.510445 754.190554 
L 661.322276 761.38083 
L 666.134108 751.711143 
L 670.945939 753.694679 
L 675.757771 765.595858 
L 680.569602 752.207017 
" clip-path="url(#p07b3e01322)" style="fill: none; stroke: #2ca02c; stroke-width: 1.5; stroke-linecap: square"/>
   </g>
   <g id="line2d_74">
    <path d="M 107.961648 903.203134 
L 112.773479 906.674313 
L 117.585311 910.145491 
L 122.397142 914.112545 
L 127.208974 909.649598 
L 132.020805 910.145491 
L 136.832637 911.881071 
L 141.644469 914.360482 
L 146.4563 910.393429 
L 151.268132 912.129009 
L 156.079963 913.368714 
L 160.891795 914.608419 
L 165.703626 917.583723 
L 170.515458 920.559009 
L 175.327289 921.302839 
L 180.139121 919.567241 
L 184.950953 921.798714 
L 189.762784 921.054902 
L 194.574616 920.063134 
L 199.386447 917.335786 
L 204.198279 915.104313 
L 209.01011 918.823429 
L 213.821942 918.079598 
L 218.633773 913.368714 
L 223.445605 915.600187 
L 228.257436 916.096081 
L 233.069268 915.35225 
L 237.8811 911.633134 
L 242.692931 914.360482 
L 247.504763 916.839893 
L 252.316594 917.335786 
L 257.128426 918.823429 
L 261.940257 917.08783 
L 266.752089 920.311071 
L 271.56392 920.806946 
L 276.375752 922.294608 
L 281.187584 919.071366 
L 285.999415 919.319303 
L 290.811247 915.848125 
L 295.623078 917.831661 
L 300.43491 927.501366 
L 305.246741 925.269893 
L 310.058573 924.526062 
L 314.870404 927.501366 
L 319.682236 926.509598 
L 324.494068 924.030188 
L 329.305899 923.038419 
L 334.117731 919.567241 
L 338.929562 925.269893 
L 343.741394 924.774018 
L 348.553225 922.790482 
L 353.365057 922.542545 
L 358.176888 916.344018 
L 362.98872 920.311071 
L 367.800551 915.848125 
L 372.612383 922.294608 
L 377.424215 918.079598 
L 382.236046 915.104313 
L 387.047878 920.063134 
L 391.859709 918.079598 
L 396.671541 919.567241 
L 401.483372 916.591955 
L 406.295204 918.327535 
L 411.107035 919.815197 
L 415.918867 919.319303 
L 420.730699 920.559009 
L 425.54253 917.335786 
L 430.354362 920.063134 
L 435.166193 920.063134 
L 439.978025 923.286357 
L 444.789856 919.815197 
L 449.601688 917.583723 
L 454.413519 918.823429 
L 459.225351 919.815197 
L 464.037182 918.327535 
L 468.849014 916.591955 
L 473.660846 913.368714 
L 478.472677 914.112545 
L 483.284509 915.35225 
L 488.09634 910.889303 
L 492.908172 918.823429 
L 497.720003 912.624902 
L 502.531835 920.063134 
L 507.343666 912.872839 
L 512.155498 915.600187 
L 516.96733 914.360482 
L 521.779161 908.657849 
L 526.590993 912.872839 
L 531.402824 910.145491 
L 536.214656 915.104313 
L 541.026487 917.831661 
L 545.838319 923.286357 
L 550.65015 926.013724 
L 555.461982 916.839893 
L 560.273814 916.839893 
L 565.085645 918.327535 
L 569.897477 915.600187 
L 574.709308 915.848125 
L 579.52114 911.385197 
L 584.332971 913.61667 
L 589.144803 915.848125 
L 593.956634 917.335786 
L 598.768466 921.550777 
L 603.580297 921.550777 
L 608.392129 917.335786 
L 613.203961 919.071366 
L 618.015792 919.815197 
L 622.827624 916.591955 
L 627.639455 914.856375 
L 632.451287 916.096081 
L 637.263118 920.806946 
L 642.07495 921.302839 
L 646.886781 914.608419 
L 651.698613 916.344018 
L 656.510445 915.600187 
L 661.322276 917.583723 
L 666.134108 916.591955 
L 670.945939 913.864607 
L 675.757771 913.61667 
L 680.569602 914.608419 
" clip-path="url(#p07b3e01322)" style="fill: none; stroke: #d62728; stroke-width: 1.5; stroke-linecap: square"/>
   </g>
   <g id="line2d_75">
    <path d="M 107.961648 924.030188 
L 112.773479 928.741072 
L 117.585311 935.187536 
L 122.397142 943.617536 
L 127.208974 943.121642 
L 132.020805 944.609304 
L 136.832637 948.080464 
L 141.644469 954.526947 
L 146.4563 958.246063 
L 151.268132 947.584589 
L 156.079963 949.320169 
L 160.891795 955.518696 
L 165.703626 952.047536 
L 170.515458 957.254295 
L 175.327289 952.791348 
L 180.139121 958.494 
L 184.950953 959.981643 
L 189.762784 955.766652 
L 194.574616 953.783116 
L 199.386447 954.774884 
L 204.198279 949.568125 
L 209.01011 951.551643 
L 213.821942 953.039285 
L 218.633773 960.22958 
L 223.445605 957.998107 
L 228.257436 951.055768 
L 233.069268 955.022821 
L 237.8811 953.535179 
L 242.692931 956.758401 
L 247.504763 949.072232 
L 252.316594 952.047536 
L 257.128426 956.262527 
L 261.940257 947.832527 
L 266.752089 952.295473 
L 271.56392 961.965179 
L 276.375752 954.031053 
L 281.187584 951.551643 
L 285.999415 957.998107 
L 290.811247 953.535179 
L 295.623078 954.774884 
L 300.43491 957.998107 
L 305.246741 957.254295 
L 310.058573 961.965179 
L 314.870404 960.477517 
L 319.682236 955.270759 
L 324.494068 967.667812 
L 329.305899 972.378696 
L 334.117731 967.91575 
L 338.929562 960.477517 
L 343.741394 962.213116 
L 348.553225 969.651348 
L 353.365057 972.874571 
L 358.176888 975.849875 
L 362.98872 969.651348 
L 367.800551 971.138991 
L 372.612383 970.891054 
L 377.424215 957.254295 
L 382.236046 967.171938 
L 387.047878 965.188402 
L 391.859709 969.899286 
L 396.671541 970.147223 
L 401.483372 967.667812 
L 406.295204 973.618402 
L 411.107035 970.891054 
L 415.918867 967.91575 
L 420.730699 971.138991 
L 425.54253 971.634866 
L 430.354362 968.163706 
L 435.166193 960.22958 
L 439.978025 966.428107 
L 444.789856 964.196634 
L 449.601688 969.651348 
L 454.413519 966.924 
L 459.225351 964.940464 
L 464.037182 964.196634 
L 468.849014 961.965179 
L 473.660846 960.725474 
L 478.472677 963.700759 
L 483.284509 963.948696 
L 488.09634 957.502232 
L 492.908172 955.518696 
L 497.720003 958.246063 
L 502.531835 954.031053 
L 507.343666 959.485768 
L 512.155498 958.741937 
L 516.96733 960.477517 
L 521.779161 955.518696 
L 526.590993 957.750169 
L 531.402824 954.526947 
L 536.214656 961.469286 
L 541.026487 965.684295 
L 545.838319 963.452822 
L 550.65015 967.419875 
L 555.461982 966.428107 
L 560.273814 963.204884 
L 565.085645 962.956928 
L 569.897477 965.188402 
L 574.709308 959.485768 
L 579.52114 958.989875 
L 584.332971 963.452822 
L 589.144803 959.485768 
L 593.956634 958.741937 
L 598.768466 964.692527 
L 603.580297 958.494 
L 608.392129 965.684295 
L 613.203961 962.461054 
L 618.015792 958.989875 
L 622.827624 961.717223 
L 627.639455 957.998107 
L 632.451287 957.254295 
L 637.263118 958.246063 
L 642.07495 951.79958 
L 646.886781 954.774884 
L 651.698613 952.047536 
L 656.510445 952.295473 
L 661.322276 951.303705 
L 666.134108 957.998107 
L 670.945939 954.278991 
L 675.757771 952.791348 
L 680.569602 952.543411 
" clip-path="url(#p07b3e01322)" style="fill: none; stroke: #9467bd; stroke-width: 1.5; stroke-linecap: square"/>
   </g>
   <g id="patch_9">
    <path d="M 79.33125 1019.4875 
L 79.33125 672.37 
" style="fill: none; stroke: #000000; stroke-width: 0.8; stroke-linejoin: miter; stroke-linecap: square"/>
   </g>
   <g id="patch_10">
    <path d="M 709.2 1019.4875 
L 709.2 672.37 
" style="fill: none; stroke: #000000; stroke-width: 0.8; stroke-linejoin: miter; stroke-linecap: square"/>
   </g>
   <g id="patch_11">
    <path d="M 79.33125 1019.4875 
L 709.2 1019.4875 
" style="fill: none; stroke: #000000; stroke-width: 0.8; stroke-linejoin: miter; stroke-linecap: square"/>
   </g>
   <g id="patch_12">
    <path d="M 79.33125 672.37 
L 709.2 672.37 
" style="fill: none; stroke: #000000; stroke-width: 0.8; stroke-linejoin: miter; stroke-linecap: square"/>
   </g>
   <g id="text_41">
    <!-- Test -->
    <g transform="translate(374.575 666.37)scale(0.2 -0.2)">
     <use xlink:href="#DejaVuSans-54"/>
     <use xlink:href="#DejaVuSans-65" x="44.083984"/>
     <use xlink:href="#DejaVuSans-73" x="105.607422"/>
     <use xlink:href="#DejaVuSans-74" x="157.707031"/>
    </g>
   </g>
   <g id="legend_2">
    <g id="patch_13">
     <path d="M 86.33125 753.760625 
L 148.920313 753.760625 
Q 150.920313 753.760625 150.920313 751.760625 
L 150.920313 679.37 
Q 150.920313 677.37 148.920313 677.37 
L 86.33125 677.37 
Q 84.33125 677.37 84.33125 679.37 
L 84.33125 751.760625 
Q 84.33125 753.760625 86.33125 753.760625 
z
" style="fill: #ffffff; opacity: 0.8; stroke: #cccccc; stroke-linejoin: miter"/>
    </g>
    <g id="line2d_76">
     <path d="M 88.33125 685.468437 
L 98.33125 685.468437 
L 108.33125 685.468437 
" style="fill: none; stroke: #1f77b4; stroke-width: 1.5; stroke-linecap: square"/>
    </g>
    <g id="text_42">
     <!-- task 0 -->
     <g transform="translate(116.33125 688.968437)scale(0.1 -0.1)">
      <use xlink:href="#DejaVuSans-74"/>
      <use xlink:href="#DejaVuSans-61" x="39.208984"/>
      <use xlink:href="#DejaVuSans-73" x="100.488281"/>
      <use xlink:href="#DejaVuSans-6b" x="152.587891"/>
      <use xlink:href="#DejaVuSans-20" x="210.498047"/>
      <use xlink:href="#DejaVuSans-30" x="242.285156"/>
     </g>
    </g>
    <g id="line2d_77">
     <path d="M 88.33125 700.146562 
L 98.33125 700.146562 
L 108.33125 700.146562 
" style="fill: none; stroke: #ff7f0e; stroke-width: 1.5; stroke-linecap: square"/>
    </g>
    <g id="text_43">
     <!-- task 1 -->
     <g transform="translate(116.33125 703.646562)scale(0.1 -0.1)">
      <use xlink:href="#DejaVuSans-74"/>
      <use xlink:href="#DejaVuSans-61" x="39.208984"/>
      <use xlink:href="#DejaVuSans-73" x="100.488281"/>
      <use xlink:href="#DejaVuSans-6b" x="152.587891"/>
      <use xlink:href="#DejaVuSans-20" x="210.498047"/>
      <use xlink:href="#DejaVuSans-31" x="242.285156"/>
     </g>
    </g>
    <g id="line2d_78">
     <path d="M 88.33125 714.824687 
L 98.33125 714.824687 
L 108.33125 714.824687 
" style="fill: none; stroke: #2ca02c; stroke-width: 1.5; stroke-linecap: square"/>
    </g>
    <g id="text_44">
     <!-- task 2 -->
     <g transform="translate(116.33125 718.324687)scale(0.1 -0.1)">
      <use xlink:href="#DejaVuSans-74"/>
      <use xlink:href="#DejaVuSans-61" x="39.208984"/>
      <use xlink:href="#DejaVuSans-73" x="100.488281"/>
      <use xlink:href="#DejaVuSans-6b" x="152.587891"/>
      <use xlink:href="#DejaVuSans-20" x="210.498047"/>
      <use xlink:href="#DejaVuSans-32" x="242.285156"/>
     </g>
    </g>
    <g id="line2d_79">
     <path d="M 88.33125 729.502812 
L 98.33125 729.502812 
L 108.33125 729.502812 
" style="fill: none; stroke: #d62728; stroke-width: 1.5; stroke-linecap: square"/>
    </g>
    <g id="text_45">
     <!-- task 3 -->
     <g transform="translate(116.33125 733.002812)scale(0.1 -0.1)">
      <use xlink:href="#DejaVuSans-74"/>
      <use xlink:href="#DejaVuSans-61" x="39.208984"/>
      <use xlink:href="#DejaVuSans-73" x="100.488281"/>
      <use xlink:href="#DejaVuSans-6b" x="152.587891"/>
      <use xlink:href="#DejaVuSans-20" x="210.498047"/>
      <use xlink:href="#DejaVuSans-33" x="242.285156"/>
     </g>
    </g>
    <g id="line2d_80">
     <path d="M 88.33125 744.180937 
L 98.33125 744.180937 
L 108.33125 744.180937 
" style="fill: none; stroke: #9467bd; stroke-width: 1.5; stroke-linecap: square"/>
    </g>
    <g id="text_46">
     <!-- task 4 -->
     <g transform="translate(116.33125 747.680937)scale(0.1 -0.1)">
      <use xlink:href="#DejaVuSans-74"/>
      <use xlink:href="#DejaVuSans-61" x="39.208984"/>
      <use xlink:href="#DejaVuSans-73" x="100.488281"/>
      <use xlink:href="#DejaVuSans-6b" x="152.587891"/>
      <use xlink:href="#DejaVuSans-20" x="210.498047"/>
      <use xlink:href="#DejaVuSans-34" x="242.285156"/>
     </g>
    </g>
   </g>
  </g>
  <g id="text_47">
   <!-- architecture: ResNet18 -->
   <g transform="translate(244.815625 15.196875)scale(0.2 -0.2)">
    <defs>
     <path id="DejaVuSans-68" d="M 3513 2113 
L 3513 0 
L 2938 0 
L 2938 2094 
Q 2938 2591 2744 2837 
Q 2550 3084 2163 3084 
Q 1697 3084 1428 2787 
Q 1159 2491 1159 1978 
L 1159 0 
L 581 0 
L 581 4863 
L 1159 4863 
L 1159 2956 
Q 1366 3272 1645 3428 
Q 1925 3584 2291 3584 
Q 2894 3584 3203 3211 
Q 3513 2838 3513 2113 
z
" transform="scale(0.015625)"/>
     <path id="DejaVuSans-3a" d="M 750 794 
L 1409 794 
L 1409 0 
L 750 0 
L 750 794 
z
M 750 3309 
L 1409 3309 
L 1409 2516 
L 750 2516 
L 750 3309 
z
" transform="scale(0.015625)"/>
     <path id="DejaVuSans-52" d="M 2841 2188 
Q 3044 2119 3236 1894 
Q 3428 1669 3622 1275 
L 4263 0 
L 3584 0 
L 2988 1197 
Q 2756 1666 2539 1819 
Q 2322 1972 1947 1972 
L 1259 1972 
L 1259 0 
L 628 0 
L 628 4666 
L 2053 4666 
Q 2853 4666 3247 4331 
Q 3641 3997 3641 3322 
Q 3641 2881 3436 2590 
Q 3231 2300 2841 2188 
z
M 1259 4147 
L 1259 2491 
L 2053 2491 
Q 2509 2491 2742 2702 
Q 2975 2913 2975 3322 
Q 2975 3731 2742 3939 
Q 2509 4147 2053 4147 
L 1259 4147 
z
" transform="scale(0.015625)"/>
     <path id="DejaVuSans-4e" d="M 628 4666 
L 1478 4666 
L 3547 763 
L 3547 4666 
L 4159 4666 
L 4159 0 
L 3309 0 
L 1241 3903 
L 1241 0 
L 628 0 
L 628 4666 
z
" transform="scale(0.015625)"/>
    </defs>
    <use xlink:href="#DejaVuSans-61"/>
    <use xlink:href="#DejaVuSans-72" x="61.279297"/>
    <use xlink:href="#DejaVuSans-63" x="100.142578"/>
    <use xlink:href="#DejaVuSans-68" x="155.123047"/>
    <use xlink:href="#DejaVuSans-69" x="218.501953"/>
    <use xlink:href="#DejaVuSans-74" x="246.285156"/>
    <use xlink:href="#DejaVuSans-65" x="285.494141"/>
    <use xlink:href="#DejaVuSans-63" x="347.017578"/>
    <use xlink:href="#DejaVuSans-74" x="401.998047"/>
    <use xlink:href="#DejaVuSans-75" x="441.207031"/>
    <use xlink:href="#DejaVuSans-72" x="504.585938"/>
    <use xlink:href="#DejaVuSans-65" x="543.449219"/>
    <use xlink:href="#DejaVuSans-3a" x="604.972656"/>
    <use xlink:href="#DejaVuSans-20" x="638.664062"/>
    <use xlink:href="#DejaVuSans-52" x="670.451172"/>
    <use xlink:href="#DejaVuSans-65" x="735.433594"/>
    <use xlink:href="#DejaVuSans-73" x="796.957031"/>
    <use xlink:href="#DejaVuSans-4e" x="849.056641"/>
    <use xlink:href="#DejaVuSans-65" x="923.861328"/>
    <use xlink:href="#DejaVuSans-74" x="985.384766"/>
    <use xlink:href="#DejaVuSans-31" x="1024.59375"/>
    <use xlink:href="#DejaVuSans-38" x="1088.216797"/>
   </g>
   <!-- dataset: CIFAR10 -->
   <g transform="translate(274.359375 37.5925)scale(0.2 -0.2)">
    <defs>
     <path id="DejaVuSans-64" d="M 2906 2969 
L 2906 4863 
L 3481 4863 
L 3481 0 
L 2906 0 
L 2906 525 
Q 2725 213 2448 61 
Q 2172 -91 1784 -91 
Q 1150 -91 751 415 
Q 353 922 353 1747 
Q 353 2572 751 3078 
Q 1150 3584 1784 3584 
Q 2172 3584 2448 3432 
Q 2725 3281 2906 2969 
z
M 947 1747 
Q 947 1113 1208 752 
Q 1469 391 1925 391 
Q 2381 391 2643 752 
Q 2906 1113 2906 1747 
Q 2906 2381 2643 2742 
Q 2381 3103 1925 3103 
Q 1469 3103 1208 2742 
Q 947 2381 947 1747 
z
" transform="scale(0.015625)"/>
     <path id="DejaVuSans-43" d="M 4122 4306 
L 4122 3641 
Q 3803 3938 3442 4084 
Q 3081 4231 2675 4231 
Q 1875 4231 1450 3742 
Q 1025 3253 1025 2328 
Q 1025 1406 1450 917 
Q 1875 428 2675 428 
Q 3081 428 3442 575 
Q 3803 722 4122 1019 
L 4122 359 
Q 3791 134 3420 21 
Q 3050 -91 2638 -91 
Q 1578 -91 968 557 
Q 359 1206 359 2328 
Q 359 3453 968 4101 
Q 1578 4750 2638 4750 
Q 3056 4750 3426 4639 
Q 3797 4528 4122 4306 
z
" transform="scale(0.015625)"/>
     <path id="DejaVuSans-49" d="M 628 4666 
L 1259 4666 
L 1259 0 
L 628 0 
L 628 4666 
z
" transform="scale(0.015625)"/>
     <path id="DejaVuSans-46" d="M 628 4666 
L 3309 4666 
L 3309 4134 
L 1259 4134 
L 1259 2759 
L 3109 2759 
L 3109 2228 
L 1259 2228 
L 1259 0 
L 628 0 
L 628 4666 
z
" transform="scale(0.015625)"/>
     <path id="DejaVuSans-41" d="M 2188 4044 
L 1331 1722 
L 3047 1722 
L 2188 4044 
z
M 1831 4666 
L 2547 4666 
L 4325 0 
L 3669 0 
L 3244 1197 
L 1141 1197 
L 716 0 
L 50 0 
L 1831 4666 
z
" transform="scale(0.015625)"/>
    </defs>
    <use xlink:href="#DejaVuSans-64"/>
    <use xlink:href="#DejaVuSans-61" x="63.476562"/>
    <use xlink:href="#DejaVuSans-74" x="124.755859"/>
    <use xlink:href="#DejaVuSans-61" x="163.964844"/>
    <use xlink:href="#DejaVuSans-73" x="225.244141"/>
    <use xlink:href="#DejaVuSans-65" x="277.34375"/>
    <use xlink:href="#DejaVuSans-74" x="338.867188"/>
    <use xlink:href="#DejaVuSans-3a" x="378.076172"/>
    <use xlink:href="#DejaVuSans-20" x="411.767578"/>
    <use xlink:href="#DejaVuSans-43" x="443.554688"/>
    <use xlink:href="#DejaVuSans-49" x="513.378906"/>
    <use xlink:href="#DejaVuSans-46" x="542.871094"/>
    <use xlink:href="#DejaVuSans-41" x="591.265625"/>
    <use xlink:href="#DejaVuSans-52" x="659.673828"/>
    <use xlink:href="#DejaVuSans-31" x="729.15625"/>
    <use xlink:href="#DejaVuSans-30" x="792.779297"/>
   </g>
   <!-- rehearsal_dataset: stat-wmm -->
   <g transform="translate(213.315625 59.988125)scale(0.2 -0.2)">
    <defs>
     <path id="DejaVuSans-6c" d="M 603 4863 
L 1178 4863 
L 1178 0 
L 603 0 
L 603 4863 
z
" transform="scale(0.015625)"/>
     <path id="DejaVuSans-5f" d="M 3263 -1063 
L 3263 -1509 
L -63 -1509 
L -63 -1063 
L 3263 -1063 
z
" transform="scale(0.015625)"/>
     <path id="DejaVuSans-2d" d="M 313 2009 
L 1997 2009 
L 1997 1497 
L 313 1497 
L 313 2009 
z
" transform="scale(0.015625)"/>
     <path id="DejaVuSans-77" d="M 269 3500 
L 844 3500 
L 1563 769 
L 2278 3500 
L 2956 3500 
L 3675 769 
L 4391 3500 
L 4966 3500 
L 4050 0 
L 3372 0 
L 2619 2869 
L 1863 0 
L 1184 0 
L 269 3500 
z
" transform="scale(0.015625)"/>
     <path id="DejaVuSans-6d" d="M 3328 2828 
Q 3544 3216 3844 3400 
Q 4144 3584 4550 3584 
Q 5097 3584 5394 3201 
Q 5691 2819 5691 2113 
L 5691 0 
L 5113 0 
L 5113 2094 
Q 5113 2597 4934 2840 
Q 4756 3084 4391 3084 
Q 3944 3084 3684 2787 
Q 3425 2491 3425 1978 
L 3425 0 
L 2847 0 
L 2847 2094 
Q 2847 2600 2669 2842 
Q 2491 3084 2119 3084 
Q 1678 3084 1418 2786 
Q 1159 2488 1159 1978 
L 1159 0 
L 581 0 
L 581 3500 
L 1159 3500 
L 1159 2956 
Q 1356 3278 1631 3431 
Q 1906 3584 2284 3584 
Q 2666 3584 2933 3390 
Q 3200 3197 3328 2828 
z
" transform="scale(0.015625)"/>
    </defs>
    <use xlink:href="#DejaVuSans-72"/>
    <use xlink:href="#DejaVuSans-65" x="38.863281"/>
    <use xlink:href="#DejaVuSans-68" x="100.386719"/>
    <use xlink:href="#DejaVuSans-65" x="163.765625"/>
    <use xlink:href="#DejaVuSans-61" x="225.289062"/>
    <use xlink:href="#DejaVuSans-72" x="286.568359"/>
    <use xlink:href="#DejaVuSans-73" x="327.681641"/>
    <use xlink:href="#DejaVuSans-61" x="379.78125"/>
    <use xlink:href="#DejaVuSans-6c" x="441.060547"/>
    <use xlink:href="#DejaVuSans-5f" x="468.84375"/>
    <use xlink:href="#DejaVuSans-64" x="518.84375"/>
    <use xlink:href="#DejaVuSans-61" x="582.320312"/>
    <use xlink:href="#DejaVuSans-74" x="643.599609"/>
    <use xlink:href="#DejaVuSans-61" x="682.808594"/>
    <use xlink:href="#DejaVuSans-73" x="744.087891"/>
    <use xlink:href="#DejaVuSans-65" x="796.1875"/>
    <use xlink:href="#DejaVuSans-74" x="857.710938"/>
    <use xlink:href="#DejaVuSans-3a" x="896.919922"/>
    <use xlink:href="#DejaVuSans-20" x="930.611328"/>
    <use xlink:href="#DejaVuSans-73" x="962.398438"/>
    <use xlink:href="#DejaVuSans-74" x="1014.498047"/>
    <use xlink:href="#DejaVuSans-61" x="1053.707031"/>
    <use xlink:href="#DejaVuSans-74" x="1114.986328"/>
    <use xlink:href="#DejaVuSans-2d" x="1154.195312"/>
    <use xlink:href="#DejaVuSans-77" x="1190.279297"/>
    <use xlink:href="#DejaVuSans-6d" x="1272.066406"/>
    <use xlink:href="#DejaVuSans-6d" x="1369.478516"/>
   </g>
   <!-- batch_size_rehearsal: 128 -->
   <g transform="translate(229.859375 82.94)scale(0.2 -0.2)">
    <defs>
     <path id="DejaVuSans-62" d="M 3116 1747 
Q 3116 2381 2855 2742 
Q 2594 3103 2138 3103 
Q 1681 3103 1420 2742 
Q 1159 2381 1159 1747 
Q 1159 1113 1420 752 
Q 1681 391 2138 391 
Q 2594 391 2855 752 
Q 3116 1113 3116 1747 
z
M 1159 2969 
Q 1341 3281 1617 3432 
Q 1894 3584 2278 3584 
Q 2916 3584 3314 3078 
Q 3713 2572 3713 1747 
Q 3713 922 3314 415 
Q 2916 -91 2278 -91 
Q 1894 -91 1617 61 
Q 1341 213 1159 525 
L 1159 0 
L 581 0 
L 581 4863 
L 1159 4863 
L 1159 2969 
z
" transform="scale(0.015625)"/>
     <path id="DejaVuSans-7a" d="M 353 3500 
L 3084 3500 
L 3084 2975 
L 922 459 
L 3084 459 
L 3084 0 
L 275 0 
L 275 525 
L 2438 3041 
L 353 3041 
L 353 3500 
z
" transform="scale(0.015625)"/>
    </defs>
    <use xlink:href="#DejaVuSans-62"/>
    <use xlink:href="#DejaVuSans-61" x="63.476562"/>
    <use xlink:href="#DejaVuSans-74" x="124.755859"/>
    <use xlink:href="#DejaVuSans-63" x="163.964844"/>
    <use xlink:href="#DejaVuSans-68" x="218.945312"/>
    <use xlink:href="#DejaVuSans-5f" x="282.324219"/>
    <use xlink:href="#DejaVuSans-73" x="332.324219"/>
    <use xlink:href="#DejaVuSans-69" x="384.423828"/>
    <use xlink:href="#DejaVuSans-7a" x="412.207031"/>
    <use xlink:href="#DejaVuSans-65" x="464.697266"/>
    <use xlink:href="#DejaVuSans-5f" x="526.220703"/>
    <use xlink:href="#DejaVuSans-72" x="576.220703"/>
    <use xlink:href="#DejaVuSans-65" x="615.083984"/>
    <use xlink:href="#DejaVuSans-68" x="676.607422"/>
    <use xlink:href="#DejaVuSans-65" x="739.986328"/>
    <use xlink:href="#DejaVuSans-61" x="801.509766"/>
    <use xlink:href="#DejaVuSans-72" x="862.789062"/>
    <use xlink:href="#DejaVuSans-73" x="903.902344"/>
    <use xlink:href="#DejaVuSans-61" x="956.001953"/>
    <use xlink:href="#DejaVuSans-6c" x="1017.28125"/>
    <use xlink:href="#DejaVuSans-3a" x="1045.064453"/>
    <use xlink:href="#DejaVuSans-20" x="1078.755859"/>
    <use xlink:href="#DejaVuSans-31" x="1110.542969"/>
    <use xlink:href="#DejaVuSans-32" x="1174.166016"/>
    <use xlink:href="#DejaVuSans-38" x="1237.789062"/>
   </g>
   <!-- pretraining: True -->
   <g transform="translate(277.092188 105.891875)scale(0.2 -0.2)">
    <defs>
     <path id="DejaVuSans-67" d="M 2906 1791 
Q 2906 2416 2648 2759 
Q 2391 3103 1925 3103 
Q 1463 3103 1205 2759 
Q 947 2416 947 1791 
Q 947 1169 1205 825 
Q 1463 481 1925 481 
Q 2391 481 2648 825 
Q 2906 1169 2906 1791 
z
M 3481 434 
Q 3481 -459 3084 -895 
Q 2688 -1331 1869 -1331 
Q 1566 -1331 1297 -1286 
Q 1028 -1241 775 -1147 
L 775 -588 
Q 1028 -725 1275 -790 
Q 1522 -856 1778 -856 
Q 2344 -856 2625 -561 
Q 2906 -266 2906 331 
L 2906 616 
Q 2728 306 2450 153 
Q 2172 0 1784 0 
Q 1141 0 747 490 
Q 353 981 353 1791 
Q 353 2603 747 3093 
Q 1141 3584 1784 3584 
Q 2172 3584 2450 3431 
Q 2728 3278 2906 2969 
L 2906 3500 
L 3481 3500 
L 3481 434 
z
" transform="scale(0.015625)"/>
    </defs>
    <use xlink:href="#DejaVuSans-70"/>
    <use xlink:href="#DejaVuSans-72" x="63.476562"/>
    <use xlink:href="#DejaVuSans-65" x="102.339844"/>
    <use xlink:href="#DejaVuSans-74" x="163.863281"/>
    <use xlink:href="#DejaVuSans-72" x="203.072266"/>
    <use xlink:href="#DejaVuSans-61" x="244.185547"/>
    <use xlink:href="#DejaVuSans-69" x="305.464844"/>
    <use xlink:href="#DejaVuSans-6e" x="333.248047"/>
    <use xlink:href="#DejaVuSans-69" x="396.626953"/>
    <use xlink:href="#DejaVuSans-6e" x="424.410156"/>
    <use xlink:href="#DejaVuSans-67" x="487.789062"/>
    <use xlink:href="#DejaVuSans-3a" x="551.265625"/>
    <use xlink:href="#DejaVuSans-20" x="584.957031"/>
    <use xlink:href="#DejaVuSans-54" x="616.744141"/>
    <use xlink:href="#DejaVuSans-72" x="663.078125"/>
    <use xlink:href="#DejaVuSans-75" x="704.191406"/>
    <use xlink:href="#DejaVuSans-65" x="767.570312"/>
   </g>
   <!-- learning_rate: 0.001 -->
   <g transform="translate(258.715625 128.2875)scale(0.2 -0.2)">
    <defs>
     <path id="DejaVuSans-2e" d="M 684 794 
L 1344 794 
L 1344 0 
L 684 0 
L 684 794 
z
" transform="scale(0.015625)"/>
    </defs>
    <use xlink:href="#DejaVuSans-6c"/>
    <use xlink:href="#DejaVuSans-65" x="27.783203"/>
    <use xlink:href="#DejaVuSans-61" x="89.306641"/>
    <use xlink:href="#DejaVuSans-72" x="150.585938"/>
    <use xlink:href="#DejaVuSans-6e" x="189.949219"/>
    <use xlink:href="#DejaVuSans-69" x="253.328125"/>
    <use xlink:href="#DejaVuSans-6e" x="281.111328"/>
    <use xlink:href="#DejaVuSans-67" x="344.490234"/>
    <use xlink:href="#DejaVuSans-5f" x="407.966797"/>
    <use xlink:href="#DejaVuSans-72" x="457.966797"/>
    <use xlink:href="#DejaVuSans-61" x="499.080078"/>
    <use xlink:href="#DejaVuSans-74" x="560.359375"/>
    <use xlink:href="#DejaVuSans-65" x="599.568359"/>
    <use xlink:href="#DejaVuSans-3a" x="661.091797"/>
    <use xlink:href="#DejaVuSans-20" x="694.783203"/>
    <use xlink:href="#DejaVuSans-30" x="726.570312"/>
    <use xlink:href="#DejaVuSans-2e" x="790.193359"/>
    <use xlink:href="#DejaVuSans-30" x="821.980469"/>
    <use xlink:href="#DejaVuSans-30" x="885.603516"/>
    <use xlink:href="#DejaVuSans-31" x="949.226562"/>
   </g>
   <!-- epochs: 5 -->
   <g transform="translate(311.425 151.239375)scale(0.2 -0.2)">
    <defs>
     <path id="DejaVuSans-6f" d="M 1959 3097 
Q 1497 3097 1228 2736 
Q 959 2375 959 1747 
Q 959 1119 1226 758 
Q 1494 397 1959 397 
Q 2419 397 2687 759 
Q 2956 1122 2956 1747 
Q 2956 2369 2687 2733 
Q 2419 3097 1959 3097 
z
M 1959 3584 
Q 2709 3584 3137 3096 
Q 3566 2609 3566 1747 
Q 3566 888 3137 398 
Q 2709 -91 1959 -91 
Q 1206 -91 779 398 
Q 353 888 353 1747 
Q 353 2609 779 3096 
Q 1206 3584 1959 3584 
z
" transform="scale(0.015625)"/>
    </defs>
    <use xlink:href="#DejaVuSans-65"/>
    <use xlink:href="#DejaVuSans-70" x="61.523438"/>
    <use xlink:href="#DejaVuSans-6f" x="125"/>
    <use xlink:href="#DejaVuSans-63" x="186.181641"/>
    <use xlink:href="#DejaVuSans-68" x="241.162109"/>
    <use xlink:href="#DejaVuSans-73" x="304.541016"/>
    <use xlink:href="#DejaVuSans-3a" x="356.640625"/>
    <use xlink:href="#DejaVuSans-20" x="390.332031"/>
    <use xlink:href="#DejaVuSans-35" x="422.119141"/>
   </g>
   <!-- separate_noise_output: None -->
   <g transform="translate(213.63125 173.635)scale(0.2 -0.2)">
    <use xlink:href="#DejaVuSans-73"/>
    <use xlink:href="#DejaVuSans-65" x="52.099609"/>
    <use xlink:href="#DejaVuSans-70" x="113.623047"/>
    <use xlink:href="#DejaVuSans-61" x="177.099609"/>
    <use xlink:href="#DejaVuSans-72" x="238.378906"/>
    <use xlink:href="#DejaVuSans-61" x="279.492188"/>
    <use xlink:href="#DejaVuSans-74" x="340.771484"/>
    <use xlink:href="#DejaVuSans-65" x="379.980469"/>
    <use xlink:href="#DejaVuSans-5f" x="441.503906"/>
    <use xlink:href="#DejaVuSans-6e" x="491.503906"/>
    <use xlink:href="#DejaVuSans-6f" x="554.882812"/>
    <use xlink:href="#DejaVuSans-69" x="616.064453"/>
    <use xlink:href="#DejaVuSans-73" x="643.847656"/>
    <use xlink:href="#DejaVuSans-65" x="695.947266"/>
    <use xlink:href="#DejaVuSans-5f" x="757.470703"/>
    <use xlink:href="#DejaVuSans-6f" x="807.470703"/>
    <use xlink:href="#DejaVuSans-75" x="868.652344"/>
    <use xlink:href="#DejaVuSans-74" x="932.03125"/>
    <use xlink:href="#DejaVuSans-70" x="971.240234"/>
    <use xlink:href="#DejaVuSans-75" x="1034.716797"/>
    <use xlink:href="#DejaVuSans-74" x="1098.095703"/>
    <use xlink:href="#DejaVuSans-3a" x="1137.304688"/>
    <use xlink:href="#DejaVuSans-20" x="1170.996094"/>
    <use xlink:href="#DejaVuSans-4e" x="1202.783203"/>
    <use xlink:href="#DejaVuSans-6f" x="1277.587891"/>
    <use xlink:href="#DejaVuSans-6e" x="1338.769531"/>
    <use xlink:href="#DejaVuSans-65" x="1402.148438"/>
   </g>
   <!-- runs: 1 -->
   <g transform="translate(325.095312 196.586875)scale(0.2 -0.2)">
    <use xlink:href="#DejaVuSans-72"/>
    <use xlink:href="#DejaVuSans-75" x="41.113281"/>
    <use xlink:href="#DejaVuSans-6e" x="104.492188"/>
    <use xlink:href="#DejaVuSans-73" x="167.871094"/>
    <use xlink:href="#DejaVuSans-3a" x="219.970703"/>
    <use xlink:href="#DejaVuSans-20" x="253.662109"/>
    <use xlink:href="#DejaVuSans-31" x="285.449219"/>
   </g>
  </g>
 </g>
 <defs>
  <clipPath id="pddb3e75141">
   <rect x="79.33125" y="243.543125" width="629.86875" height="347.1175"/>
  </clipPath>
  <clipPath id="p07b3e01322">
   <rect x="79.33125" y="672.37" width="629.86875" height="347.1175"/>
  </clipPath>
 </defs>
</svg>
