<?xml version="1.0" encoding="utf-8" standalone="no"?>
<!DOCTYPE svg PUBLIC "-//W3C//DTD SVG 1.1//EN"
  "http://www.w3.org/Graphics/SVG/1.1/DTD/svg11.dtd">
<svg xmlns:xlink="http://www.w3.org/1999/xlink" width="720pt" height="1080pt" viewBox="0 0 720 1080" xmlns="http://www.w3.org/2000/svg" version="1.1">
 <metadata>
  <rdf:RDF xmlns:dc="http://purl.org/dc/elements/1.1/" xmlns:cc="http://creativecommons.org/ns#" xmlns:rdf="http://www.w3.org/1999/02/22-rdf-syntax-ns#">
   <cc:Work>
    <dc:type rdf:resource="http://purl.org/dc/dcmitype/StillImage"/>
    <dc:date>2024-01-26T18:19:40.064695</dc:date>
    <dc:format>image/svg+xml</dc:format>
    <dc:creator>
     <cc:Agent>
      <dc:title>Matplotlib v3.5.1, https://matplotlib.org/</dc:title>
     </cc:Agent>
    </dc:creator>
   </cc:Work>
  </rdf:RDF>
 </metadata>
 <defs>
  <style type="text/css">*{stroke-linejoin: round; stroke-linecap: butt}</style>
 </defs>
 <g id="figure_1">
  <g id="patch_1">
   <path d="M 0 1080 
L 720 1080 
L 720 0 
L 0 0 
L 0 1080 
z
" style="fill: none"/>
  </g>
  <g id="axes_1">
   <g id="patch_2">
    <path d="M 79.33125 590.660625 
L 709.2 590.660625 
L 709.2 243.543125 
L 79.33125 243.543125 
z
" style="fill: #ffffff"/>
   </g>
   <g id="matplotlib.axis_1">
    <g id="xtick_1">
     <g id="line2d_1">
      <path d="M 107.961648 590.660625 
L 107.961648 243.543125 
" clip-path="url(#p6ad9253df6)" style="fill: none; stroke: #b0b0b0; stroke-width: 0.8; stroke-linecap: square"/>
     </g>
     <g id="line2d_2">
      <defs>
       <path id="m4acf488d7a" d="M 0 0 
L 0 3.5 
" style="stroke: #000000; stroke-width: 0.8"/>
      </defs>
      <g>
       <use xlink:href="#m4acf488d7a" x="107.961648" y="590.660625" style="stroke: #000000; stroke-width: 0.8"/>
      </g>
     </g>
     <g id="text_1">
      <!-- 0 -->
      <g transform="translate(101.599148 612.8575)scale(0.2 -0.2)">
       <defs>
        <path id="DejaVuSans-30" d="M 2034 4250 
Q 1547 4250 1301 3770 
Q 1056 3291 1056 2328 
Q 1056 1369 1301 889 
Q 1547 409 2034 409 
Q 2525 409 2770 889 
Q 3016 1369 3016 2328 
Q 3016 3291 2770 3770 
Q 2525 4250 2034 4250 
z
M 2034 4750 
Q 2819 4750 3233 4129 
Q 3647 3509 3647 2328 
Q 3647 1150 3233 529 
Q 2819 -91 2034 -91 
Q 1250 -91 836 529 
Q 422 1150 422 2328 
Q 422 3509 836 4129 
Q 1250 4750 2034 4750 
z
" transform="scale(0.015625)"/>
       </defs>
       <use xlink:href="#DejaVuSans-30"/>
      </g>
     </g>
    </g>
    <g id="xtick_2">
     <g id="line2d_3">
      <path d="M 204.198279 590.660625 
L 204.198279 243.543125 
" clip-path="url(#p6ad9253df6)" style="fill: none; stroke: #b0b0b0; stroke-width: 0.8; stroke-linecap: square"/>
     </g>
     <g id="line2d_4">
      <g>
       <use xlink:href="#m4acf488d7a" x="204.198279" y="590.660625" style="stroke: #000000; stroke-width: 0.8"/>
      </g>
     </g>
     <g id="text_2">
      <!-- 20 -->
      <g transform="translate(191.473279 612.8575)scale(0.2 -0.2)">
       <defs>
        <path id="DejaVuSans-32" d="M 1228 531 
L 3431 531 
L 3431 0 
L 469 0 
L 469 531 
Q 828 903 1448 1529 
Q 2069 2156 2228 2338 
Q 2531 2678 2651 2914 
Q 2772 3150 2772 3378 
Q 2772 3750 2511 3984 
Q 2250 4219 1831 4219 
Q 1534 4219 1204 4116 
Q 875 4013 500 3803 
L 500 4441 
Q 881 4594 1212 4672 
Q 1544 4750 1819 4750 
Q 2544 4750 2975 4387 
Q 3406 4025 3406 3419 
Q 3406 3131 3298 2873 
Q 3191 2616 2906 2266 
Q 2828 2175 2409 1742 
Q 1991 1309 1228 531 
z
" transform="scale(0.015625)"/>
       </defs>
       <use xlink:href="#DejaVuSans-32"/>
       <use xlink:href="#DejaVuSans-30" x="63.623047"/>
      </g>
     </g>
    </g>
    <g id="xtick_3">
     <g id="line2d_5">
      <path d="M 300.43491 590.660625 
L 300.43491 243.543125 
" clip-path="url(#p6ad9253df6)" style="fill: none; stroke: #b0b0b0; stroke-width: 0.8; stroke-linecap: square"/>
     </g>
     <g id="line2d_6">
      <g>
       <use xlink:href="#m4acf488d7a" x="300.43491" y="590.660625" style="stroke: #000000; stroke-width: 0.8"/>
      </g>
     </g>
     <g id="text_3">
      <!-- 40 -->
      <g transform="translate(287.70991 612.8575)scale(0.2 -0.2)">
       <defs>
        <path id="DejaVuSans-34" d="M 2419 4116 
L 825 1625 
L 2419 1625 
L 2419 4116 
z
M 2253 4666 
L 3047 4666 
L 3047 1625 
L 3713 1625 
L 3713 1100 
L 3047 1100 
L 3047 0 
L 2419 0 
L 2419 1100 
L 313 1100 
L 313 1709 
L 2253 4666 
z
" transform="scale(0.015625)"/>
       </defs>
       <use xlink:href="#DejaVuSans-34"/>
       <use xlink:href="#DejaVuSans-30" x="63.623047"/>
      </g>
     </g>
    </g>
    <g id="xtick_4">
     <g id="line2d_7">
      <path d="M 396.671541 590.660625 
L 396.671541 243.543125 
" clip-path="url(#p6ad9253df6)" style="fill: none; stroke: #b0b0b0; stroke-width: 0.8; stroke-linecap: square"/>
     </g>
     <g id="line2d_8">
      <g>
       <use xlink:href="#m4acf488d7a" x="396.671541" y="590.660625" style="stroke: #000000; stroke-width: 0.8"/>
      </g>
     </g>
     <g id="text_4">
      <!-- 60 -->
      <g transform="translate(383.946541 612.8575)scale(0.2 -0.2)">
       <defs>
        <path id="DejaVuSans-36" d="M 2113 2584 
Q 1688 2584 1439 2293 
Q 1191 2003 1191 1497 
Q 1191 994 1439 701 
Q 1688 409 2113 409 
Q 2538 409 2786 701 
Q 3034 994 3034 1497 
Q 3034 2003 2786 2293 
Q 2538 2584 2113 2584 
z
M 3366 4563 
L 3366 3988 
Q 3128 4100 2886 4159 
Q 2644 4219 2406 4219 
Q 1781 4219 1451 3797 
Q 1122 3375 1075 2522 
Q 1259 2794 1537 2939 
Q 1816 3084 2150 3084 
Q 2853 3084 3261 2657 
Q 3669 2231 3669 1497 
Q 3669 778 3244 343 
Q 2819 -91 2113 -91 
Q 1303 -91 875 529 
Q 447 1150 447 2328 
Q 447 3434 972 4092 
Q 1497 4750 2381 4750 
Q 2619 4750 2861 4703 
Q 3103 4656 3366 4563 
z
" transform="scale(0.015625)"/>
       </defs>
       <use xlink:href="#DejaVuSans-36"/>
       <use xlink:href="#DejaVuSans-30" x="63.623047"/>
      </g>
     </g>
    </g>
    <g id="xtick_5">
     <g id="line2d_9">
      <path d="M 492.908172 590.660625 
L 492.908172 243.543125 
" clip-path="url(#p6ad9253df6)" style="fill: none; stroke: #b0b0b0; stroke-width: 0.8; stroke-linecap: square"/>
     </g>
     <g id="line2d_10">
      <g>
       <use xlink:href="#m4acf488d7a" x="492.908172" y="590.660625" style="stroke: #000000; stroke-width: 0.8"/>
      </g>
     </g>
     <g id="text_5">
      <!-- 80 -->
      <g transform="translate(480.183172 612.8575)scale(0.2 -0.2)">
       <defs>
        <path id="DejaVuSans-38" d="M 2034 2216 
Q 1584 2216 1326 1975 
Q 1069 1734 1069 1313 
Q 1069 891 1326 650 
Q 1584 409 2034 409 
Q 2484 409 2743 651 
Q 3003 894 3003 1313 
Q 3003 1734 2745 1975 
Q 2488 2216 2034 2216 
z
M 1403 2484 
Q 997 2584 770 2862 
Q 544 3141 544 3541 
Q 544 4100 942 4425 
Q 1341 4750 2034 4750 
Q 2731 4750 3128 4425 
Q 3525 4100 3525 3541 
Q 3525 3141 3298 2862 
Q 3072 2584 2669 2484 
Q 3125 2378 3379 2068 
Q 3634 1759 3634 1313 
Q 3634 634 3220 271 
Q 2806 -91 2034 -91 
Q 1263 -91 848 271 
Q 434 634 434 1313 
Q 434 1759 690 2068 
Q 947 2378 1403 2484 
z
M 1172 3481 
Q 1172 3119 1398 2916 
Q 1625 2713 2034 2713 
Q 2441 2713 2670 2916 
Q 2900 3119 2900 3481 
Q 2900 3844 2670 4047 
Q 2441 4250 2034 4250 
Q 1625 4250 1398 4047 
Q 1172 3844 1172 3481 
z
" transform="scale(0.015625)"/>
       </defs>
       <use xlink:href="#DejaVuSans-38"/>
       <use xlink:href="#DejaVuSans-30" x="63.623047"/>
      </g>
     </g>
    </g>
    <g id="xtick_6">
     <g id="line2d_11">
      <path d="M 589.144803 590.660625 
L 589.144803 243.543125 
" clip-path="url(#p6ad9253df6)" style="fill: none; stroke: #b0b0b0; stroke-width: 0.8; stroke-linecap: square"/>
     </g>
     <g id="line2d_12">
      <g>
       <use xlink:href="#m4acf488d7a" x="589.144803" y="590.660625" style="stroke: #000000; stroke-width: 0.8"/>
      </g>
     </g>
     <g id="text_6">
      <!-- 100 -->
      <g transform="translate(570.057303 612.8575)scale(0.2 -0.2)">
       <defs>
        <path id="DejaVuSans-31" d="M 794 531 
L 1825 531 
L 1825 4091 
L 703 3866 
L 703 4441 
L 1819 4666 
L 2450 4666 
L 2450 531 
L 3481 531 
L 3481 0 
L 794 0 
L 794 531 
z
" transform="scale(0.015625)"/>
       </defs>
       <use xlink:href="#DejaVuSans-31"/>
       <use xlink:href="#DejaVuSans-30" x="63.623047"/>
       <use xlink:href="#DejaVuSans-30" x="127.246094"/>
      </g>
     </g>
    </g>
    <g id="xtick_7">
     <g id="line2d_13">
      <path d="M 685.381434 590.660625 
L 685.381434 243.543125 
" clip-path="url(#p6ad9253df6)" style="fill: none; stroke: #b0b0b0; stroke-width: 0.8; stroke-linecap: square"/>
     </g>
     <g id="line2d_14">
      <g>
       <use xlink:href="#m4acf488d7a" x="685.381434" y="590.660625" style="stroke: #000000; stroke-width: 0.8"/>
      </g>
     </g>
     <g id="text_7">
      <!-- 120 -->
      <g transform="translate(666.293934 612.8575)scale(0.2 -0.2)">
       <use xlink:href="#DejaVuSans-31"/>
       <use xlink:href="#DejaVuSans-32" x="63.623047"/>
       <use xlink:href="#DejaVuSans-30" x="127.246094"/>
      </g>
     </g>
    </g>
    <g id="text_8">
     <!-- step -->
     <g transform="translate(372.634375 636.21375)scale(0.2 -0.2)">
      <defs>
       <path id="DejaVuSans-73" d="M 2834 3397 
L 2834 2853 
Q 2591 2978 2328 3040 
Q 2066 3103 1784 3103 
Q 1356 3103 1142 2972 
Q 928 2841 928 2578 
Q 928 2378 1081 2264 
Q 1234 2150 1697 2047 
L 1894 2003 
Q 2506 1872 2764 1633 
Q 3022 1394 3022 966 
Q 3022 478 2636 193 
Q 2250 -91 1575 -91 
Q 1294 -91 989 -36 
Q 684 19 347 128 
L 347 722 
Q 666 556 975 473 
Q 1284 391 1588 391 
Q 1994 391 2212 530 
Q 2431 669 2431 922 
Q 2431 1156 2273 1281 
Q 2116 1406 1581 1522 
L 1381 1569 
Q 847 1681 609 1914 
Q 372 2147 372 2553 
Q 372 3047 722 3315 
Q 1072 3584 1716 3584 
Q 2034 3584 2315 3537 
Q 2597 3491 2834 3397 
z
" transform="scale(0.015625)"/>
       <path id="DejaVuSans-74" d="M 1172 4494 
L 1172 3500 
L 2356 3500 
L 2356 3053 
L 1172 3053 
L 1172 1153 
Q 1172 725 1289 603 
Q 1406 481 1766 481 
L 2356 481 
L 2356 0 
L 1766 0 
Q 1100 0 847 248 
Q 594 497 594 1153 
L 594 3053 
L 172 3053 
L 172 3500 
L 594 3500 
L 594 4494 
L 1172 4494 
z
" transform="scale(0.015625)"/>
       <path id="DejaVuSans-65" d="M 3597 1894 
L 3597 1613 
L 953 1613 
Q 991 1019 1311 708 
Q 1631 397 2203 397 
Q 2534 397 2845 478 
Q 3156 559 3463 722 
L 3463 178 
Q 3153 47 2828 -22 
Q 2503 -91 2169 -91 
Q 1331 -91 842 396 
Q 353 884 353 1716 
Q 353 2575 817 3079 
Q 1281 3584 2069 3584 
Q 2775 3584 3186 3129 
Q 3597 2675 3597 1894 
z
M 3022 2063 
Q 3016 2534 2758 2815 
Q 2500 3097 2075 3097 
Q 1594 3097 1305 2825 
Q 1016 2553 972 2059 
L 3022 2063 
z
" transform="scale(0.015625)"/>
       <path id="DejaVuSans-70" d="M 1159 525 
L 1159 -1331 
L 581 -1331 
L 581 3500 
L 1159 3500 
L 1159 2969 
Q 1341 3281 1617 3432 
Q 1894 3584 2278 3584 
Q 2916 3584 3314 3078 
Q 3713 2572 3713 1747 
Q 3713 922 3314 415 
Q 2916 -91 2278 -91 
Q 1894 -91 1617 61 
Q 1341 213 1159 525 
z
M 3116 1747 
Q 3116 2381 2855 2742 
Q 2594 3103 2138 3103 
Q 1681 3103 1420 2742 
Q 1159 2381 1159 1747 
Q 1159 1113 1420 752 
Q 1681 391 2138 391 
Q 2594 391 2855 752 
Q 3116 1113 3116 1747 
z
" transform="scale(0.015625)"/>
      </defs>
      <use xlink:href="#DejaVuSans-73"/>
      <use xlink:href="#DejaVuSans-74" x="52.099609"/>
      <use xlink:href="#DejaVuSans-65" x="91.308594"/>
      <use xlink:href="#DejaVuSans-70" x="152.832031"/>
     </g>
    </g>
   </g>
   <g id="matplotlib.axis_2">
    <g id="ytick_1">
     <g id="line2d_15">
      <path d="M 79.33125 590.660625 
L 709.2 590.660625 
" clip-path="url(#p6ad9253df6)" style="fill: none; stroke: #b0b0b0; stroke-width: 0.8; stroke-linecap: square"/>
     </g>
     <g id="line2d_16">
      <defs>
       <path id="m930f0908d0" d="M 0 0 
L -3.5 0 
" style="stroke: #000000; stroke-width: 0.8"/>
      </defs>
      <g>
       <use xlink:href="#m930f0908d0" x="79.33125" y="590.660625" style="stroke: #000000; stroke-width: 0.8"/>
      </g>
     </g>
     <g id="text_9">
      <!-- 30 -->
      <g transform="translate(46.88125 598.259063)scale(0.2 -0.2)">
       <defs>
        <path id="DejaVuSans-33" d="M 2597 2516 
Q 3050 2419 3304 2112 
Q 3559 1806 3559 1356 
Q 3559 666 3084 287 
Q 2609 -91 1734 -91 
Q 1441 -91 1130 -33 
Q 819 25 488 141 
L 488 750 
Q 750 597 1062 519 
Q 1375 441 1716 441 
Q 2309 441 2620 675 
Q 2931 909 2931 1356 
Q 2931 1769 2642 2001 
Q 2353 2234 1838 2234 
L 1294 2234 
L 1294 2753 
L 1863 2753 
Q 2328 2753 2575 2939 
Q 2822 3125 2822 3475 
Q 2822 3834 2567 4026 
Q 2313 4219 1838 4219 
Q 1578 4219 1281 4162 
Q 984 4106 628 3988 
L 628 4550 
Q 988 4650 1302 4700 
Q 1616 4750 1894 4750 
Q 2613 4750 3031 4423 
Q 3450 4097 3450 3541 
Q 3450 3153 3228 2886 
Q 3006 2619 2597 2516 
z
" transform="scale(0.015625)"/>
       </defs>
       <use xlink:href="#DejaVuSans-33"/>
       <use xlink:href="#DejaVuSans-30" x="63.623047"/>
      </g>
     </g>
    </g>
    <g id="ytick_2">
     <g id="line2d_17">
      <path d="M 79.33125 541.072411 
L 709.2 541.072411 
" clip-path="url(#p6ad9253df6)" style="fill: none; stroke: #b0b0b0; stroke-width: 0.8; stroke-linecap: square"/>
     </g>
     <g id="line2d_18">
      <g>
       <use xlink:href="#m930f0908d0" x="79.33125" y="541.072411" style="stroke: #000000; stroke-width: 0.8"/>
      </g>
     </g>
     <g id="text_10">
      <!-- 40 -->
      <g transform="translate(46.88125 548.670848)scale(0.2 -0.2)">
       <use xlink:href="#DejaVuSans-34"/>
       <use xlink:href="#DejaVuSans-30" x="63.623047"/>
      </g>
     </g>
    </g>
    <g id="ytick_3">
     <g id="line2d_19">
      <path d="M 79.33125 491.484196 
L 709.2 491.484196 
" clip-path="url(#p6ad9253df6)" style="fill: none; stroke: #b0b0b0; stroke-width: 0.8; stroke-linecap: square"/>
     </g>
     <g id="line2d_20">
      <g>
       <use xlink:href="#m930f0908d0" x="79.33125" y="491.484196" style="stroke: #000000; stroke-width: 0.8"/>
      </g>
     </g>
     <g id="text_11">
      <!-- 50 -->
      <g transform="translate(46.88125 499.082634)scale(0.2 -0.2)">
       <defs>
        <path id="DejaVuSans-35" d="M 691 4666 
L 3169 4666 
L 3169 4134 
L 1269 4134 
L 1269 2991 
Q 1406 3038 1543 3061 
Q 1681 3084 1819 3084 
Q 2600 3084 3056 2656 
Q 3513 2228 3513 1497 
Q 3513 744 3044 326 
Q 2575 -91 1722 -91 
Q 1428 -91 1123 -41 
Q 819 9 494 109 
L 494 744 
Q 775 591 1075 516 
Q 1375 441 1709 441 
Q 2250 441 2565 725 
Q 2881 1009 2881 1497 
Q 2881 1984 2565 2268 
Q 2250 2553 1709 2553 
Q 1456 2553 1204 2497 
Q 953 2441 691 2322 
L 691 4666 
z
" transform="scale(0.015625)"/>
       </defs>
       <use xlink:href="#DejaVuSans-35"/>
       <use xlink:href="#DejaVuSans-30" x="63.623047"/>
      </g>
     </g>
    </g>
    <g id="ytick_4">
     <g id="line2d_21">
      <path d="M 79.33125 441.895982 
L 709.2 441.895982 
" clip-path="url(#p6ad9253df6)" style="fill: none; stroke: #b0b0b0; stroke-width: 0.8; stroke-linecap: square"/>
     </g>
     <g id="line2d_22">
      <g>
       <use xlink:href="#m930f0908d0" x="79.33125" y="441.895982" style="stroke: #000000; stroke-width: 0.8"/>
      </g>
     </g>
     <g id="text_12">
      <!-- 60 -->
      <g transform="translate(46.88125 449.49442)scale(0.2 -0.2)">
       <use xlink:href="#DejaVuSans-36"/>
       <use xlink:href="#DejaVuSans-30" x="63.623047"/>
      </g>
     </g>
    </g>
    <g id="ytick_5">
     <g id="line2d_23">
      <path d="M 79.33125 392.307768 
L 709.2 392.307768 
" clip-path="url(#p6ad9253df6)" style="fill: none; stroke: #b0b0b0; stroke-width: 0.8; stroke-linecap: square"/>
     </g>
     <g id="line2d_24">
      <g>
       <use xlink:href="#m930f0908d0" x="79.33125" y="392.307768" style="stroke: #000000; stroke-width: 0.8"/>
      </g>
     </g>
     <g id="text_13">
      <!-- 70 -->
      <g transform="translate(46.88125 399.906205)scale(0.2 -0.2)">
       <defs>
        <path id="DejaVuSans-37" d="M 525 4666 
L 3525 4666 
L 3525 4397 
L 1831 0 
L 1172 0 
L 2766 4134 
L 525 4134 
L 525 4666 
z
" transform="scale(0.015625)"/>
       </defs>
       <use xlink:href="#DejaVuSans-37"/>
       <use xlink:href="#DejaVuSans-30" x="63.623047"/>
      </g>
     </g>
    </g>
    <g id="ytick_6">
     <g id="line2d_25">
      <path d="M 79.33125 342.719554 
L 709.2 342.719554 
" clip-path="url(#p6ad9253df6)" style="fill: none; stroke: #b0b0b0; stroke-width: 0.8; stroke-linecap: square"/>
     </g>
     <g id="line2d_26">
      <g>
       <use xlink:href="#m930f0908d0" x="79.33125" y="342.719554" style="stroke: #000000; stroke-width: 0.8"/>
      </g>
     </g>
     <g id="text_14">
      <!-- 80 -->
      <g transform="translate(46.88125 350.317991)scale(0.2 -0.2)">
       <use xlink:href="#DejaVuSans-38"/>
       <use xlink:href="#DejaVuSans-30" x="63.623047"/>
      </g>
     </g>
    </g>
    <g id="ytick_7">
     <g id="line2d_27">
      <path d="M 79.33125 293.131339 
L 709.2 293.131339 
" clip-path="url(#p6ad9253df6)" style="fill: none; stroke: #b0b0b0; stroke-width: 0.8; stroke-linecap: square"/>
     </g>
     <g id="line2d_28">
      <g>
       <use xlink:href="#m930f0908d0" x="79.33125" y="293.131339" style="stroke: #000000; stroke-width: 0.8"/>
      </g>
     </g>
     <g id="text_15">
      <!-- 90 -->
      <g transform="translate(46.88125 300.729777)scale(0.2 -0.2)">
       <defs>
        <path id="DejaVuSans-39" d="M 703 97 
L 703 672 
Q 941 559 1184 500 
Q 1428 441 1663 441 
Q 2288 441 2617 861 
Q 2947 1281 2994 2138 
Q 2813 1869 2534 1725 
Q 2256 1581 1919 1581 
Q 1219 1581 811 2004 
Q 403 2428 403 3163 
Q 403 3881 828 4315 
Q 1253 4750 1959 4750 
Q 2769 4750 3195 4129 
Q 3622 3509 3622 2328 
Q 3622 1225 3098 567 
Q 2575 -91 1691 -91 
Q 1453 -91 1209 -44 
Q 966 3 703 97 
z
M 1959 2075 
Q 2384 2075 2632 2365 
Q 2881 2656 2881 3163 
Q 2881 3666 2632 3958 
Q 2384 4250 1959 4250 
Q 1534 4250 1286 3958 
Q 1038 3666 1038 3163 
Q 1038 2656 1286 2365 
Q 1534 2075 1959 2075 
z
" transform="scale(0.015625)"/>
       </defs>
       <use xlink:href="#DejaVuSans-39"/>
       <use xlink:href="#DejaVuSans-30" x="63.623047"/>
      </g>
     </g>
    </g>
    <g id="ytick_8">
     <g id="line2d_29">
      <path d="M 79.33125 243.543125 
L 709.2 243.543125 
" clip-path="url(#p6ad9253df6)" style="fill: none; stroke: #b0b0b0; stroke-width: 0.8; stroke-linecap: square"/>
     </g>
     <g id="line2d_30">
      <g>
       <use xlink:href="#m930f0908d0" x="79.33125" y="243.543125" style="stroke: #000000; stroke-width: 0.8"/>
      </g>
     </g>
     <g id="text_16">
      <!-- 100 -->
      <g transform="translate(34.15625 251.141562)scale(0.2 -0.2)">
       <use xlink:href="#DejaVuSans-31"/>
       <use xlink:href="#DejaVuSans-30" x="63.623047"/>
       <use xlink:href="#DejaVuSans-30" x="127.246094"/>
      </g>
     </g>
    </g>
    <g id="text_17">
     <!-- accuracy [%] -->
     <g transform="translate(25.996875 482.703437)rotate(-90)scale(0.2 -0.2)">
      <defs>
       <path id="DejaVuSans-61" d="M 2194 1759 
Q 1497 1759 1228 1600 
Q 959 1441 959 1056 
Q 959 750 1161 570 
Q 1363 391 1709 391 
Q 2188 391 2477 730 
Q 2766 1069 2766 1631 
L 2766 1759 
L 2194 1759 
z
M 3341 1997 
L 3341 0 
L 2766 0 
L 2766 531 
Q 2569 213 2275 61 
Q 1981 -91 1556 -91 
Q 1019 -91 701 211 
Q 384 513 384 1019 
Q 384 1609 779 1909 
Q 1175 2209 1959 2209 
L 2766 2209 
L 2766 2266 
Q 2766 2663 2505 2880 
Q 2244 3097 1772 3097 
Q 1472 3097 1187 3025 
Q 903 2953 641 2809 
L 641 3341 
Q 956 3463 1253 3523 
Q 1550 3584 1831 3584 
Q 2591 3584 2966 3190 
Q 3341 2797 3341 1997 
z
" transform="scale(0.015625)"/>
       <path id="DejaVuSans-63" d="M 3122 3366 
L 3122 2828 
Q 2878 2963 2633 3030 
Q 2388 3097 2138 3097 
Q 1578 3097 1268 2742 
Q 959 2388 959 1747 
Q 959 1106 1268 751 
Q 1578 397 2138 397 
Q 2388 397 2633 464 
Q 2878 531 3122 666 
L 3122 134 
Q 2881 22 2623 -34 
Q 2366 -91 2075 -91 
Q 1284 -91 818 406 
Q 353 903 353 1747 
Q 353 2603 823 3093 
Q 1294 3584 2113 3584 
Q 2378 3584 2631 3529 
Q 2884 3475 3122 3366 
z
" transform="scale(0.015625)"/>
       <path id="DejaVuSans-75" d="M 544 1381 
L 544 3500 
L 1119 3500 
L 1119 1403 
Q 1119 906 1312 657 
Q 1506 409 1894 409 
Q 2359 409 2629 706 
Q 2900 1003 2900 1516 
L 2900 3500 
L 3475 3500 
L 3475 0 
L 2900 0 
L 2900 538 
Q 2691 219 2414 64 
Q 2138 -91 1772 -91 
Q 1169 -91 856 284 
Q 544 659 544 1381 
z
M 1991 3584 
L 1991 3584 
z
" transform="scale(0.015625)"/>
       <path id="DejaVuSans-72" d="M 2631 2963 
Q 2534 3019 2420 3045 
Q 2306 3072 2169 3072 
Q 1681 3072 1420 2755 
Q 1159 2438 1159 1844 
L 1159 0 
L 581 0 
L 581 3500 
L 1159 3500 
L 1159 2956 
Q 1341 3275 1631 3429 
Q 1922 3584 2338 3584 
Q 2397 3584 2469 3576 
Q 2541 3569 2628 3553 
L 2631 2963 
z
" transform="scale(0.015625)"/>
       <path id="DejaVuSans-79" d="M 2059 -325 
Q 1816 -950 1584 -1140 
Q 1353 -1331 966 -1331 
L 506 -1331 
L 506 -850 
L 844 -850 
Q 1081 -850 1212 -737 
Q 1344 -625 1503 -206 
L 1606 56 
L 191 3500 
L 800 3500 
L 1894 763 
L 2988 3500 
L 3597 3500 
L 2059 -325 
z
" transform="scale(0.015625)"/>
       <path id="DejaVuSans-20" transform="scale(0.015625)"/>
       <path id="DejaVuSans-5b" d="M 550 4863 
L 1875 4863 
L 1875 4416 
L 1125 4416 
L 1125 -397 
L 1875 -397 
L 1875 -844 
L 550 -844 
L 550 4863 
z
" transform="scale(0.015625)"/>
       <path id="DejaVuSans-25" d="M 4653 2053 
Q 4381 2053 4226 1822 
Q 4072 1591 4072 1178 
Q 4072 772 4226 539 
Q 4381 306 4653 306 
Q 4919 306 5073 539 
Q 5228 772 5228 1178 
Q 5228 1588 5073 1820 
Q 4919 2053 4653 2053 
z
M 4653 2450 
Q 5147 2450 5437 2106 
Q 5728 1763 5728 1178 
Q 5728 594 5436 251 
Q 5144 -91 4653 -91 
Q 4153 -91 3862 251 
Q 3572 594 3572 1178 
Q 3572 1766 3864 2108 
Q 4156 2450 4653 2450 
z
M 1428 4353 
Q 1159 4353 1004 4120 
Q 850 3888 850 3481 
Q 850 3069 1003 2837 
Q 1156 2606 1428 2606 
Q 1700 2606 1854 2837 
Q 2009 3069 2009 3481 
Q 2009 3884 1853 4118 
Q 1697 4353 1428 4353 
z
M 4250 4750 
L 4750 4750 
L 1831 -91 
L 1331 -91 
L 4250 4750 
z
M 1428 4750 
Q 1922 4750 2215 4408 
Q 2509 4066 2509 3481 
Q 2509 2891 2217 2550 
Q 1925 2209 1428 2209 
Q 931 2209 642 2551 
Q 353 2894 353 3481 
Q 353 4063 643 4406 
Q 934 4750 1428 4750 
z
" transform="scale(0.015625)"/>
       <path id="DejaVuSans-5d" d="M 1947 4863 
L 1947 -844 
L 622 -844 
L 622 -397 
L 1369 -397 
L 1369 4416 
L 622 4416 
L 622 4863 
L 1947 4863 
z
" transform="scale(0.015625)"/>
      </defs>
      <use xlink:href="#DejaVuSans-61"/>
      <use xlink:href="#DejaVuSans-63" x="61.279297"/>
      <use xlink:href="#DejaVuSans-63" x="116.259766"/>
      <use xlink:href="#DejaVuSans-75" x="171.240234"/>
      <use xlink:href="#DejaVuSans-72" x="234.619141"/>
      <use xlink:href="#DejaVuSans-61" x="275.732422"/>
      <use xlink:href="#DejaVuSans-63" x="337.011719"/>
      <use xlink:href="#DejaVuSans-79" x="391.992188"/>
      <use xlink:href="#DejaVuSans-20" x="451.171875"/>
      <use xlink:href="#DejaVuSans-5b" x="482.958984"/>
      <use xlink:href="#DejaVuSans-25" x="521.972656"/>
      <use xlink:href="#DejaVuSans-5d" x="616.992188"/>
     </g>
    </g>
   </g>
   <g id="line2d_31">
    <path d="M 107.961648 494.757018 
L 112.773479 434.011455 
L 117.585311 399.746 
L 122.397142 364.042501 
L 127.208974 362.058965 
L 132.020805 360.620902 
L 136.832637 340.339303 
L 141.644469 341.678206 
L 146.4563 346.190713 
L 151.268132 330.272901 
L 156.079963 332.405196 
L 160.891795 328.438161 
L 165.703626 331.611804 
L 170.515458 324.024813 
L 175.327289 321.148688 
L 180.139121 324.520688 
L 184.950953 316.090669 
L 189.762784 320.603215 
L 194.574616 319.31391 
L 199.386447 311.429402 
L 204.198279 311.181446 
L 209.01011 314.107171 
L 213.821942 311.082286 
L 218.633773 310.040939 
L 223.445605 317.231214 
L 228.257436 326.652983 
L 233.069268 309.247509 
L 237.8811 307.065615 
L 242.692931 301.363001 
L 247.504763 303.148142 
L 252.316594 302.949822 
L 257.128426 305.82591 
L 261.940257 305.429233 
L 266.752089 299.825741 
L 271.56392 302.255553 
L 276.375752 297.197571 
L 281.187584 300.519973 
L 285.999415 308.007804 
L 290.811247 300.569571 
L 295.623078 298.18932 
L 300.43491 296.751296 
L 305.246741 302.850625 
L 310.058573 304.139929 
L 314.870404 307.115214 
L 319.682236 306.569741 
L 324.494068 309.148349 
L 329.305899 306.024267 
L 334.117731 310.93349 
L 338.929562 314.20633 
L 343.741394 313.36334 
L 348.553225 311.925277 
L 353.365057 310.883929 
L 358.176888 309.594625 
L 362.98872 311.578161 
L 367.800551 310.338456 
L 372.612383 310.090499 
L 377.424215 309.297108 
L 382.236046 309.247509 
L 387.047878 310.487214 
L 391.859709 310.586374 
L 396.671541 310.040939 
L 401.483372 309.892142 
L 406.295204 311.379804 
L 411.107035 314.99976 
L 415.918867 314.057572 
L 420.730699 311.330205 
L 425.54253 316.636142 
L 430.354362 308.007804 
L 435.166193 308.900393 
L 439.978025 310.635973 
L 444.789856 306.470581 
L 449.601688 309.049152 
L 454.413519 314.255929 
L 459.225351 308.850794 
L 464.037182 308.35492 
L 468.849014 306.073866 
L 473.660846 310.685572 
L 478.472677 312.56991 
L 483.284509 309.445866 
L 488.09634 311.875678 
L 492.908172 318.718876 
L 497.720003 314.20633 
L 502.531835 318.57008 
L 507.343666 325.958751 
L 512.155498 316.140268 
L 516.96733 312.321992 
L 521.779161 314.454287 
L 526.590993 320.999929 
L 531.402824 318.222964 
L 536.214656 323.776857 
L 541.026487 319.958581 
L 545.838319 326.305867 
L 550.65015 315.545195 
L 555.461982 312.669108 
L 560.273814 311.677321 
L 565.085645 314.801403 
L 569.897477 307.263973 
L 574.709308 311.478963 
L 579.52114 318.222964 
L 584.332971 312.669108 
L 589.144803 318.718876 
L 593.956634 315.991509 
L 598.768466 319.016393 
L 603.580297 317.479171 
L 608.392129 316.189866 
L 613.203961 315.495635 
L 618.015792 314.355089 
L 622.827624 313.214581 
L 627.639455 313.016224 
L 632.451287 314.900562 
L 637.263118 313.611258 
L 642.07495 314.255929 
L 646.886781 319.710625 
L 651.698613 313.313741 
L 656.510445 311.528562 
L 661.322276 315.19808 
L 666.134108 312.222794 
L 670.945939 315.247678 
L 675.757771 309.792982 
L 680.569602 311.826079 
" clip-path="url(#p6ad9253df6)" style="fill: none; stroke: #1f77b4; stroke-width: 1.5; stroke-linecap: square"/>
   </g>
   <g id="line2d_32">
    <path d="M 107.961648 496.294259 
L 112.773479 493.021438 
L 117.585311 499.071187 
L 122.397142 491.434617 
L 127.208974 488.905607 
L 132.020805 489.897375 
L 136.832637 490.938723 
L 141.644469 499.120786 
L 146.4563 490.591607 
L 151.268132 498.029839 
L 156.079963 500.658009 
L 160.891795 495.054554 
L 165.703626 494.261143 
L 170.515458 502.542366 
L 175.327289 496.443018 
L 180.139121 494.310723 
L 184.950953 495.004955 
L 189.762784 496.889313 
L 194.574616 498.922429 
L 199.386447 496.740554 
L 204.198279 490.740366 
L 209.01011 496.24466 
L 213.821942 494.509081 
L 218.633773 504.129187 
L 223.445605 498.922429 
L 228.257436 499.666259 
L 233.069268 495.054554 
L 237.8811 497.533965 
L 242.692931 502.294429 
L 247.504763 503.583714 
L 252.316594 498.376955 
L 257.128426 501.104303 
L 261.940257 500.261313 
L 266.752089 499.666259 
L 271.56392 502.492786 
L 276.375752 494.062786 
L 281.187584 492.773482 
L 285.999415 495.45125 
L 290.811247 493.616491 
L 295.623078 491.980071 
L 300.43491 454.73933 
L 305.246741 358.786124 
L 310.058573 339.397152 
L 314.870404 334.140776 
L 319.682236 321.347045 
L 324.494068 317.231214 
L 329.305899 320.999929 
L 334.117731 318.768437 
L 338.929562 319.165152 
L 343.741394 316.140268 
L 348.553225 308.999553 
L 353.365057 307.660688 
L 358.176888 308.25576 
L 362.98872 304.784562 
L 367.800551 301.51176 
L 372.612383 296.900054 
L 377.424215 301.809277 
L 382.236046 295.065277 
L 387.047878 296.453741 
L 391.859709 301.065446 
L 396.671541 294.023929 
L 401.483372 293.379295 
L 406.295204 295.759509 
L 411.107035 293.577615 
L 415.918867 292.932982 
L 420.730699 298.288518 
L 425.54253 297.842205 
L 430.354362 290.354411 
L 435.166193 290.701527 
L 439.978025 287.279928 
L 444.789856 286.982411 
L 449.601688 285.197233 
L 454.413519 288.122919 
L 459.225351 282.767421 
L 464.037182 290.899885 
L 468.849014 283.75917 
L 473.660846 293.230499 
L 478.472677 286.089822 
L 483.284509 284.056687 
L 488.09634 284.60216 
L 492.908172 286.288179 
L 497.720003 281.676474 
L 502.531835 281.924392 
L 507.343666 284.503001 
L 512.155498 282.618624 
L 516.96733 282.321107 
L 521.779161 282.221947 
L 526.590993 284.800518 
L 531.402824 284.354242 
L 536.214656 283.312856 
L 541.026487 284.106286 
L 545.838319 283.957527 
L 550.65015 283.511214 
L 555.461982 282.618624 
L 560.273814 288.271678 
L 565.085645 283.312856 
L 569.897477 286.734455 
L 574.709308 286.635295 
L 579.52114 282.816982 
L 584.332971 286.982411 
L 589.144803 287.775803 
L 593.956634 284.007126 
L 598.768466 283.560812 
L 603.580297 285.147634 
L 608.392129 290.751088 
L 613.203961 282.668223 
L 618.015792 284.403803 
L 622.827624 285.445151 
L 627.639455 284.750919 
L 632.451287 284.106286 
L 637.263118 284.800518 
L 642.07495 282.469866 
L 646.886781 283.064938 
L 651.698613 281.428518 
L 656.510445 285.048474 
L 661.322276 282.420267 
L 666.134108 285.147634 
L 670.945939 281.378919 
L 675.757771 284.552562 
L 680.569602 285.098035 
" clip-path="url(#p6ad9253df6)" style="fill: none; stroke: #ff7f0e; stroke-width: 1.5; stroke-linecap: square"/>
   </g>
   <g id="line2d_33">
    <path d="M 107.961648 510.575651 
L 112.773479 482.359964 
L 117.585311 484.492259 
L 122.397142 490.988322 
L 127.208974 476.062259 
L 132.020805 486.376616 
L 136.832637 472.491901 
L 141.644469 477.698679 
L 146.4563 479.186322 
L 151.268132 477.698679 
L 156.079963 479.583017 
L 160.891795 485.087312 
L 165.703626 483.996384 
L 170.515458 488.062616 
L 175.327289 480.574786 
L 180.139121 478.392911 
L 184.950953 476.855669 
L 189.762784 475.814321 
L 194.574616 478.938384 
L 199.386447 476.111858 
L 204.198279 477.252384 
L 209.01011 478.839206 
L 213.821942 472.243964 
L 218.633773 470.657143 
L 223.445605 472.442321 
L 228.257436 471.252196 
L 233.069268 467.037205 
L 237.8811 466.640509 
L 242.692931 466.987625 
L 247.504763 470.508384 
L 252.316594 467.582679 
L 257.128426 474.425858 
L 261.940257 471.549732 
L 266.752089 466.045437 
L 271.56392 473.037375 
L 276.375752 469.714973 
L 281.187584 476.657312 
L 285.999415 475.814321 
L 290.811247 469.566215 
L 295.623078 470.210848 
L 300.43491 465.499964 
L 305.246741 466.789268 
L 310.058573 478.938384 
L 314.870404 484.194723 
L 319.682236 480.128491 
L 324.494068 485.731964 
L 329.305899 483.252554 
L 334.117731 481.169839 
L 338.929562 481.665732 
L 343.741394 486.0295 
L 348.553225 487.616322 
L 353.365057 485.186491 
L 358.176888 489.401501 
L 362.98872 481.467375 
L 367.800551 483.401312 
L 372.612383 483.252554 
L 377.424215 479.136723 
L 382.236046 478.839206 
L 387.047878 486.178259 
L 391.859709 487.318786 
L 396.671541 484.095544 
L 401.483372 487.318786 
L 406.295204 487.219607 
L 411.107035 477.500322 
L 415.918867 477.549901 
L 420.730699 476.161437 
L 425.54253 472.144785 
L 430.354362 476.954848 
L 435.166193 481.169839 
L 439.978025 477.252384 
L 444.789856 478.194553 
L 449.601688 473.334911 
L 454.413519 475.96308 
L 459.225351 482.012848 
L 464.037182 479.037563 
L 468.849014 473.632447 
L 473.660846 472.5415 
L 478.472677 470.90508 
L 483.284509 475.368027 
L 488.09634 475.814321 
L 492.908172 428.358402 
L 497.720003 339.198795 
L 502.531835 341.33109 
L 507.343666 312.718669 
L 512.155498 316.239465 
L 516.96733 305.577992 
L 521.779161 306.321822 
L 526.590993 313.412901 
L 531.402824 305.478794 
L 536.214656 320.305697 
L 541.026487 314.20633 
L 545.838319 308.057402 
L 550.65015 300.668731 
L 555.461982 302.404349 
L 560.273814 301.759678 
L 565.085645 305.131678 
L 569.897477 292.040393 
L 574.709308 300.867089 
L 579.52114 297.991001 
L 584.332971 305.131678 
L 589.144803 308.652437 
L 593.956634 299.429026 
L 598.768466 300.073697 
L 603.580297 302.503509 
L 608.392129 304.784562 
L 613.203961 295.065277 
L 618.015792 303.445697 
L 622.827624 292.784223 
L 627.639455 295.164474 
L 632.451287 287.676643 
L 637.263118 294.222286 
L 642.07495 288.965947 
L 646.886781 299.676982 
L 651.698613 286.288179 
L 656.510445 295.362794 
L 661.322276 287.23033 
L 666.134108 291.594117 
L 670.945939 287.031972 
L 675.757771 284.750919 
L 680.569602 282.420267 
" clip-path="url(#p6ad9253df6)" style="fill: none; stroke: #2ca02c; stroke-width: 1.5; stroke-linecap: square"/>
   </g>
   <g id="line2d_34">
    <path d="M 107.961648 511.716197 
L 112.773479 498.228197 
L 117.585311 503.385375 
L 122.397142 503.88125 
L 127.208974 507.699545 
L 132.020805 504.724241 
L 136.832637 505.368893 
L 141.644469 506.856535 
L 146.4563 511.021946 
L 151.268132 514.04683 
L 156.079963 510.079777 
L 160.891795 509.038429 
L 165.703626 512.608767 
L 170.515458 516.079946 
L 175.327289 512.162473 
L 180.139121 509.187187 
L 184.950953 506.955714 
L 189.762784 508.542535 
L 194.574616 506.459839 
L 199.386447 512.31125 
L 204.198279 511.964134 
L 209.01011 508.096241 
L 213.821942 507.550786 
L 218.633773 505.963946 
L 223.445605 503.038259 
L 228.257436 508.245018 
L 233.069268 506.410241 
L 237.8811 508.542535 
L 242.692931 509.038429 
L 247.504763 512.112893 
L 252.316594 509.782241 
L 257.128426 508.294598 
L 261.940257 507.352429 
L 266.752089 507.501187 
L 271.56392 505.319313 
L 276.375752 507.550786 
L 281.187584 506.806955 
L 285.999415 510.972366 
L 290.811247 511.765777 
L 295.623078 509.831839 
L 300.43491 508.195419 
L 305.246741 514.641883 
L 310.058573 508.93925 
L 314.870404 509.286366 
L 319.682236 510.228535 
L 324.494068 504.426723 
L 329.305899 504.873018 
L 334.117731 503.137419 
L 338.929562 506.509419 
L 343.741394 504.030009 
L 348.553225 498.624892 
L 353.365057 502.24483 
L 358.176888 503.236598 
L 362.98872 503.187018 
L 367.800551 502.691125 
L 372.612383 508.245018 
L 377.424215 507.997081 
L 382.236046 503.038259 
L 387.047878 508.145839 
L 391.859709 509.534303 
L 396.671541 509.335946 
L 401.483372 506.955714 
L 406.295204 503.187018 
L 411.107035 508.98883 
L 415.918867 506.707777 
L 420.730699 503.980429 
L 425.54253 502.641545 
L 430.354362 502.641545 
L 435.166193 504.178786 
L 439.978025 502.344009 
L 444.789856 504.972197 
L 449.601688 507.154071 
L 454.413519 505.963946 
L 459.225351 502.641545 
L 464.037182 502.046491 
L 468.849014 507.402009 
L 473.660846 506.559018 
L 478.472677 503.83167 
L 483.284509 502.046491 
L 488.09634 501.501018 
L 492.908172 501.352259 
L 497.720003 506.261482 
L 502.531835 507.550786 
L 507.343666 502.443187 
L 512.155498 499.418303 
L 516.96733 506.757376 
L 521.779161 508.393777 
L 526.590993 503.782071 
L 531.402824 507.649946 
L 536.214656 507.005313 
L 541.026487 506.608598 
L 545.838319 504.575482 
L 550.65015 507.104491 
L 555.461982 507.203651 
L 560.273814 504.079607 
L 565.085645 503.484535 
L 569.897477 504.823419 
L 574.709308 504.873018 
L 579.52114 505.220134 
L 584.332971 504.674661 
L 589.144803 503.88125 
L 593.956634 502.591965 
L 598.768466 502.542366 
L 603.580297 503.484535 
L 608.392129 500.50925 
L 613.203961 502.839902 
L 618.015792 504.575482 
L 622.827624 503.087839 
L 627.639455 502.889482 
L 632.451287 506.757376 
L 637.263118 503.980429 
L 642.07495 504.575482 
L 646.886781 497.831482 
L 651.698613 504.030009 
L 656.510445 502.988661 
L 661.322276 502.790303 
L 666.134108 499.567081 
L 670.945939 499.963777 
L 675.757771 499.467902 
L 680.569602 499.418303 
" clip-path="url(#p6ad9253df6)" style="fill: none; stroke: #d62728; stroke-width: 1.5; stroke-linecap: square"/>
   </g>
   <g id="line2d_35">
    <path d="M 107.961648 482.409544 
L 112.773479 488.161795 
L 117.585311 491.285839 
L 122.397142 494.955375 
L 127.208974 492.426366 
L 132.020805 494.856197 
L 136.832637 488.955206 
L 141.644469 489.847776 
L 146.4563 485.434428 
L 151.268132 479.880554 
L 156.079963 480.921901 
L 160.891795 481.467375 
L 165.703626 483.946786 
L 170.515458 480.9715 
L 175.327289 497.186849 
L 180.139121 498.327375 
L 184.950953 497.038071 
L 189.762784 512.261651 
L 194.574616 501.996893 
L 199.386447 513.699714 
L 204.198279 511.964134 
L 209.01011 503.187018 
L 213.821942 492.723902 
L 218.633773 500.50925 
L 223.445605 515.782429 
L 228.257436 507.352429 
L 233.069268 505.815187 
L 237.8811 499.666259 
L 242.692931 498.624892 
L 247.504763 494.757018 
L 252.316594 501.104303 
L 257.128426 498.724071 
L 261.940257 500.658009 
L 266.752089 500.707607 
L 271.56392 494.657839 
L 276.375752 495.40167 
L 281.187584 496.542197 
L 285.999415 501.352259 
L 290.811247 505.269714 
L 295.623078 504.327545 
L 300.43491 516.823777 
L 305.246741 514.443545 
L 310.058573 513.947651 
L 314.870404 524.708304 
L 319.682236 526.642241 
L 324.494068 528.030705 
L 329.305899 529.964642 
L 334.117731 519.600705 
L 338.929562 523.567777 
L 343.741394 529.915062 
L 348.553225 523.567777 
L 353.365057 534.427589 
L 358.176888 532.692009 
L 362.98872 540.526937 
L 367.800551 534.477169 
L 372.612383 532.741589 
L 377.424215 532.989526 
L 382.236046 534.030893 
L 387.047878 531.006009 
L 391.859709 538.097125 
L 396.671541 530.410937 
L 401.483372 529.27041 
L 406.295204 537.353295 
L 411.107035 537.700411 
L 415.918867 537.650831 
L 420.730699 541.667464 
L 425.54253 536.262348 
L 430.354362 529.766304 
L 435.166193 530.857232 
L 439.978025 522.278473 
L 444.789856 522.47683 
L 449.601688 525.948009 
L 454.413519 530.163 
L 459.225351 521.385884 
L 464.037182 525.600893 
L 468.849014 523.766116 
L 473.660846 525.352956 
L 478.472677 527.832367 
L 483.284509 529.667125 
L 488.09634 527.485232 
L 492.908172 526.543062 
L 497.720003 524.956241 
L 502.531835 527.931526 
L 507.343666 531.849 
L 512.155498 526.74142 
L 516.96733 520.890009 
L 521.779161 531.105188 
L 526.590993 534.080473 
L 531.402824 526.493483 
L 536.214656 529.567947 
L 541.026487 526.047188 
L 545.838319 523.666956 
L 550.65015 517.716366 
L 555.461982 518.31142 
L 560.273814 515.73283 
L 565.085645 523.121482 
L 569.897477 523.617357 
L 574.709308 524.063652 
L 579.52114 521.980956 
L 584.332971 524.262009 
L 589.144803 527.485232 
L 593.956634 522.030536 
L 598.768466 525.799232 
L 603.580297 516.476661 
L 608.392129 520.989188 
L 613.203961 522.278473 
L 618.015792 521.038768 
L 622.827624 514.542724 
L 627.639455 516.030366 
L 632.451287 510.922767 
L 637.263118 513.402178 
L 642.07495 512.658366 
L 646.886781 529.915062 
L 651.698613 520.542893 
L 656.510445 516.377482 
L 661.322276 515.68325 
L 666.134108 509.831839 
L 670.945939 517.319652 
L 675.757771 512.460009 
L 680.569602 514.04683 
" clip-path="url(#p6ad9253df6)" style="fill: none; stroke: #9467bd; stroke-width: 1.5; stroke-linecap: square"/>
   </g>
   <g id="patch_3">
    <path d="M 79.33125 590.660625 
L 79.33125 243.543125 
" style="fill: none; stroke: #000000; stroke-width: 0.8; stroke-linejoin: miter; stroke-linecap: square"/>
   </g>
   <g id="patch_4">
    <path d="M 709.2 590.660625 
L 709.2 243.543125 
" style="fill: none; stroke: #000000; stroke-width: 0.8; stroke-linejoin: miter; stroke-linecap: square"/>
   </g>
   <g id="patch_5">
    <path d="M 79.33125 590.660625 
L 709.2 590.660625 
" style="fill: none; stroke: #000000; stroke-width: 0.8; stroke-linejoin: miter; stroke-linecap: square"/>
   </g>
   <g id="patch_6">
    <path d="M 79.33125 243.543125 
L 709.2 243.543125 
" style="fill: none; stroke: #000000; stroke-width: 0.8; stroke-linejoin: miter; stroke-linecap: square"/>
   </g>
   <g id="text_18">
    <!-- Train -->
    <g transform="translate(370.278125 237.543125)scale(0.2 -0.2)">
     <defs>
      <path id="DejaVuSans-54" d="M -19 4666 
L 3928 4666 
L 3928 4134 
L 2272 4134 
L 2272 0 
L 1638 0 
L 1638 4134 
L -19 4134 
L -19 4666 
z
" transform="scale(0.015625)"/>
      <path id="DejaVuSans-69" d="M 603 3500 
L 1178 3500 
L 1178 0 
L 603 0 
L 603 3500 
z
M 603 4863 
L 1178 4863 
L 1178 4134 
L 603 4134 
L 603 4863 
z
" transform="scale(0.015625)"/>
      <path id="DejaVuSans-6e" d="M 3513 2113 
L 3513 0 
L 2938 0 
L 2938 2094 
Q 2938 2591 2744 2837 
Q 2550 3084 2163 3084 
Q 1697 3084 1428 2787 
Q 1159 2491 1159 1978 
L 1159 0 
L 581 0 
L 581 3500 
L 1159 3500 
L 1159 2956 
Q 1366 3272 1645 3428 
Q 1925 3584 2291 3584 
Q 2894 3584 3203 3211 
Q 3513 2838 3513 2113 
z
" transform="scale(0.015625)"/>
     </defs>
     <use xlink:href="#DejaVuSans-54"/>
     <use xlink:href="#DejaVuSans-72" x="46.333984"/>
     <use xlink:href="#DejaVuSans-61" x="87.447266"/>
     <use xlink:href="#DejaVuSans-69" x="148.726562"/>
     <use xlink:href="#DejaVuSans-6e" x="176.509766"/>
    </g>
   </g>
   <g id="legend_1">
    <g id="patch_7">
     <path d="M 86.33125 324.93375 
L 148.920313 324.93375 
Q 150.920313 324.93375 150.920313 322.93375 
L 150.920313 250.543125 
Q 150.920313 248.543125 148.920313 248.543125 
L 86.33125 248.543125 
Q 84.33125 248.543125 84.33125 250.543125 
L 84.33125 322.93375 
Q 84.33125 324.93375 86.33125 324.93375 
z
" style="fill: #ffffff; opacity: 0.8; stroke: #cccccc; stroke-linejoin: miter"/>
    </g>
    <g id="line2d_36">
     <path d="M 88.33125 256.641562 
L 98.33125 256.641562 
L 108.33125 256.641562 
" style="fill: none; stroke: #1f77b4; stroke-width: 1.5; stroke-linecap: square"/>
    </g>
    <g id="text_19">
     <!-- task 0 -->
     <g transform="translate(116.33125 260.141562)scale(0.1 -0.1)">
      <defs>
       <path id="DejaVuSans-6b" d="M 581 4863 
L 1159 4863 
L 1159 1991 
L 2875 3500 
L 3609 3500 
L 1753 1863 
L 3688 0 
L 2938 0 
L 1159 1709 
L 1159 0 
L 581 0 
L 581 4863 
z
" transform="scale(0.015625)"/>
      </defs>
      <use xlink:href="#DejaVuSans-74"/>
      <use xlink:href="#DejaVuSans-61" x="39.208984"/>
      <use xlink:href="#DejaVuSans-73" x="100.488281"/>
      <use xlink:href="#DejaVuSans-6b" x="152.587891"/>
      <use xlink:href="#DejaVuSans-20" x="210.498047"/>
      <use xlink:href="#DejaVuSans-30" x="242.285156"/>
     </g>
    </g>
    <g id="line2d_37">
     <path d="M 88.33125 271.319687 
L 98.33125 271.319687 
L 108.33125 271.319687 
" style="fill: none; stroke: #ff7f0e; stroke-width: 1.5; stroke-linecap: square"/>
    </g>
    <g id="text_20">
     <!-- task 1 -->
     <g transform="translate(116.33125 274.819687)scale(0.1 -0.1)">
      <use xlink:href="#DejaVuSans-74"/>
      <use xlink:href="#DejaVuSans-61" x="39.208984"/>
      <use xlink:href="#DejaVuSans-73" x="100.488281"/>
      <use xlink:href="#DejaVuSans-6b" x="152.587891"/>
      <use xlink:href="#DejaVuSans-20" x="210.498047"/>
      <use xlink:href="#DejaVuSans-31" x="242.285156"/>
     </g>
    </g>
    <g id="line2d_38">
     <path d="M 88.33125 285.997813 
L 98.33125 285.997813 
L 108.33125 285.997813 
" style="fill: none; stroke: #2ca02c; stroke-width: 1.5; stroke-linecap: square"/>
    </g>
    <g id="text_21">
     <!-- task 2 -->
     <g transform="translate(116.33125 289.497813)scale(0.1 -0.1)">
      <use xlink:href="#DejaVuSans-74"/>
      <use xlink:href="#DejaVuSans-61" x="39.208984"/>
      <use xlink:href="#DejaVuSans-73" x="100.488281"/>
      <use xlink:href="#DejaVuSans-6b" x="152.587891"/>
      <use xlink:href="#DejaVuSans-20" x="210.498047"/>
      <use xlink:href="#DejaVuSans-32" x="242.285156"/>
     </g>
    </g>
    <g id="line2d_39">
     <path d="M 88.33125 300.675937 
L 98.33125 300.675937 
L 108.33125 300.675937 
" style="fill: none; stroke: #d62728; stroke-width: 1.5; stroke-linecap: square"/>
    </g>
    <g id="text_22">
     <!-- task 3 -->
     <g transform="translate(116.33125 304.175937)scale(0.1 -0.1)">
      <use xlink:href="#DejaVuSans-74"/>
      <use xlink:href="#DejaVuSans-61" x="39.208984"/>
      <use xlink:href="#DejaVuSans-73" x="100.488281"/>
      <use xlink:href="#DejaVuSans-6b" x="152.587891"/>
      <use xlink:href="#DejaVuSans-20" x="210.498047"/>
      <use xlink:href="#DejaVuSans-33" x="242.285156"/>
     </g>
    </g>
    <g id="line2d_40">
     <path d="M 88.33125 315.354062 
L 98.33125 315.354062 
L 108.33125 315.354062 
" style="fill: none; stroke: #9467bd; stroke-width: 1.5; stroke-linecap: square"/>
    </g>
    <g id="text_23">
     <!-- task 4 -->
     <g transform="translate(116.33125 318.854062)scale(0.1 -0.1)">
      <use xlink:href="#DejaVuSans-74"/>
      <use xlink:href="#DejaVuSans-61" x="39.208984"/>
      <use xlink:href="#DejaVuSans-73" x="100.488281"/>
      <use xlink:href="#DejaVuSans-6b" x="152.587891"/>
      <use xlink:href="#DejaVuSans-20" x="210.498047"/>
      <use xlink:href="#DejaVuSans-34" x="242.285156"/>
     </g>
    </g>
   </g>
  </g>
  <g id="axes_2">
   <g id="patch_8">
    <path d="M 79.33125 1019.4875 
L 709.2 1019.4875 
L 709.2 672.37 
L 79.33125 672.37 
z
" style="fill: #ffffff"/>
   </g>
   <g id="matplotlib.axis_3">
    <g id="xtick_8">
     <g id="line2d_41">
      <path d="M 107.961648 1019.4875 
L 107.961648 672.37 
" clip-path="url(#p2ace10f5b1)" style="fill: none; stroke: #b0b0b0; stroke-width: 0.8; stroke-linecap: square"/>
     </g>
     <g id="line2d_42">
      <g>
       <use xlink:href="#m4acf488d7a" x="107.961648" y="1019.4875" style="stroke: #000000; stroke-width: 0.8"/>
      </g>
     </g>
     <g id="text_24">
      <!-- 0 -->
      <g transform="translate(101.599148 1041.684375)scale(0.2 -0.2)">
       <use xlink:href="#DejaVuSans-30"/>
      </g>
     </g>
    </g>
    <g id="xtick_9">
     <g id="line2d_43">
      <path d="M 204.198279 1019.4875 
L 204.198279 672.37 
" clip-path="url(#p2ace10f5b1)" style="fill: none; stroke: #b0b0b0; stroke-width: 0.8; stroke-linecap: square"/>
     </g>
     <g id="line2d_44">
      <g>
       <use xlink:href="#m4acf488d7a" x="204.198279" y="1019.4875" style="stroke: #000000; stroke-width: 0.8"/>
      </g>
     </g>
     <g id="text_25">
      <!-- 20 -->
      <g transform="translate(191.473279 1041.684375)scale(0.2 -0.2)">
       <use xlink:href="#DejaVuSans-32"/>
       <use xlink:href="#DejaVuSans-30" x="63.623047"/>
      </g>
     </g>
    </g>
    <g id="xtick_10">
     <g id="line2d_45">
      <path d="M 300.43491 1019.4875 
L 300.43491 672.37 
" clip-path="url(#p2ace10f5b1)" style="fill: none; stroke: #b0b0b0; stroke-width: 0.8; stroke-linecap: square"/>
     </g>
     <g id="line2d_46">
      <g>
       <use xlink:href="#m4acf488d7a" x="300.43491" y="1019.4875" style="stroke: #000000; stroke-width: 0.8"/>
      </g>
     </g>
     <g id="text_26">
      <!-- 40 -->
      <g transform="translate(287.70991 1041.684375)scale(0.2 -0.2)">
       <use xlink:href="#DejaVuSans-34"/>
       <use xlink:href="#DejaVuSans-30" x="63.623047"/>
      </g>
     </g>
    </g>
    <g id="xtick_11">
     <g id="line2d_47">
      <path d="M 396.671541 1019.4875 
L 396.671541 672.37 
" clip-path="url(#p2ace10f5b1)" style="fill: none; stroke: #b0b0b0; stroke-width: 0.8; stroke-linecap: square"/>
     </g>
     <g id="line2d_48">
      <g>
       <use xlink:href="#m4acf488d7a" x="396.671541" y="1019.4875" style="stroke: #000000; stroke-width: 0.8"/>
      </g>
     </g>
     <g id="text_27">
      <!-- 60 -->
      <g transform="translate(383.946541 1041.684375)scale(0.2 -0.2)">
       <use xlink:href="#DejaVuSans-36"/>
       <use xlink:href="#DejaVuSans-30" x="63.623047"/>
      </g>
     </g>
    </g>
    <g id="xtick_12">
     <g id="line2d_49">
      <path d="M 492.908172 1019.4875 
L 492.908172 672.37 
" clip-path="url(#p2ace10f5b1)" style="fill: none; stroke: #b0b0b0; stroke-width: 0.8; stroke-linecap: square"/>
     </g>
     <g id="line2d_50">
      <g>
       <use xlink:href="#m4acf488d7a" x="492.908172" y="1019.4875" style="stroke: #000000; stroke-width: 0.8"/>
      </g>
     </g>
     <g id="text_28">
      <!-- 80 -->
      <g transform="translate(480.183172 1041.684375)scale(0.2 -0.2)">
       <use xlink:href="#DejaVuSans-38"/>
       <use xlink:href="#DejaVuSans-30" x="63.623047"/>
      </g>
     </g>
    </g>
    <g id="xtick_13">
     <g id="line2d_51">
      <path d="M 589.144803 1019.4875 
L 589.144803 672.37 
" clip-path="url(#p2ace10f5b1)" style="fill: none; stroke: #b0b0b0; stroke-width: 0.8; stroke-linecap: square"/>
     </g>
     <g id="line2d_52">
      <g>
       <use xlink:href="#m4acf488d7a" x="589.144803" y="1019.4875" style="stroke: #000000; stroke-width: 0.8"/>
      </g>
     </g>
     <g id="text_29">
      <!-- 100 -->
      <g transform="translate(570.057303 1041.684375)scale(0.2 -0.2)">
       <use xlink:href="#DejaVuSans-31"/>
       <use xlink:href="#DejaVuSans-30" x="63.623047"/>
       <use xlink:href="#DejaVuSans-30" x="127.246094"/>
      </g>
     </g>
    </g>
    <g id="xtick_14">
     <g id="line2d_53">
      <path d="M 685.381434 1019.4875 
L 685.381434 672.37 
" clip-path="url(#p2ace10f5b1)" style="fill: none; stroke: #b0b0b0; stroke-width: 0.8; stroke-linecap: square"/>
     </g>
     <g id="line2d_54">
      <g>
       <use xlink:href="#m4acf488d7a" x="685.381434" y="1019.4875" style="stroke: #000000; stroke-width: 0.8"/>
      </g>
     </g>
     <g id="text_30">
      <!-- 120 -->
      <g transform="translate(666.293934 1041.684375)scale(0.2 -0.2)">
       <use xlink:href="#DejaVuSans-31"/>
       <use xlink:href="#DejaVuSans-32" x="63.623047"/>
       <use xlink:href="#DejaVuSans-30" x="127.246094"/>
      </g>
     </g>
    </g>
    <g id="text_31">
     <!-- step -->
     <g transform="translate(372.634375 1065.040625)scale(0.2 -0.2)">
      <use xlink:href="#DejaVuSans-73"/>
      <use xlink:href="#DejaVuSans-74" x="52.099609"/>
      <use xlink:href="#DejaVuSans-65" x="91.308594"/>
      <use xlink:href="#DejaVuSans-70" x="152.832031"/>
     </g>
    </g>
   </g>
   <g id="matplotlib.axis_4">
    <g id="ytick_9">
     <g id="line2d_55">
      <path d="M 79.33125 1019.4875 
L 709.2 1019.4875 
" clip-path="url(#p2ace10f5b1)" style="fill: none; stroke: #b0b0b0; stroke-width: 0.8; stroke-linecap: square"/>
     </g>
     <g id="line2d_56">
      <g>
       <use xlink:href="#m930f0908d0" x="79.33125" y="1019.4875" style="stroke: #000000; stroke-width: 0.8"/>
      </g>
     </g>
     <g id="text_32">
      <!-- 30 -->
      <g transform="translate(46.88125 1027.085938)scale(0.2 -0.2)">
       <use xlink:href="#DejaVuSans-33"/>
       <use xlink:href="#DejaVuSans-30" x="63.623047"/>
      </g>
     </g>
    </g>
    <g id="ytick_10">
     <g id="line2d_57">
      <path d="M 79.33125 969.899286 
L 709.2 969.899286 
" clip-path="url(#p2ace10f5b1)" style="fill: none; stroke: #b0b0b0; stroke-width: 0.8; stroke-linecap: square"/>
     </g>
     <g id="line2d_58">
      <g>
       <use xlink:href="#m930f0908d0" x="79.33125" y="969.899286" style="stroke: #000000; stroke-width: 0.8"/>
      </g>
     </g>
     <g id="text_33">
      <!-- 40 -->
      <g transform="translate(46.88125 977.497723)scale(0.2 -0.2)">
       <use xlink:href="#DejaVuSans-34"/>
       <use xlink:href="#DejaVuSans-30" x="63.623047"/>
      </g>
     </g>
    </g>
    <g id="ytick_11">
     <g id="line2d_59">
      <path d="M 79.33125 920.311071 
L 709.2 920.311071 
" clip-path="url(#p2ace10f5b1)" style="fill: none; stroke: #b0b0b0; stroke-width: 0.8; stroke-linecap: square"/>
     </g>
     <g id="line2d_60">
      <g>
       <use xlink:href="#m930f0908d0" x="79.33125" y="920.311071" style="stroke: #000000; stroke-width: 0.8"/>
      </g>
     </g>
     <g id="text_34">
      <!-- 50 -->
      <g transform="translate(46.88125 927.909509)scale(0.2 -0.2)">
       <use xlink:href="#DejaVuSans-35"/>
       <use xlink:href="#DejaVuSans-30" x="63.623047"/>
      </g>
     </g>
    </g>
    <g id="ytick_12">
     <g id="line2d_61">
      <path d="M 79.33125 870.722857 
L 709.2 870.722857 
" clip-path="url(#p2ace10f5b1)" style="fill: none; stroke: #b0b0b0; stroke-width: 0.8; stroke-linecap: square"/>
     </g>
     <g id="line2d_62">
      <g>
       <use xlink:href="#m930f0908d0" x="79.33125" y="870.722857" style="stroke: #000000; stroke-width: 0.8"/>
      </g>
     </g>
     <g id="text_35">
      <!-- 60 -->
      <g transform="translate(46.88125 878.321295)scale(0.2 -0.2)">
       <use xlink:href="#DejaVuSans-36"/>
       <use xlink:href="#DejaVuSans-30" x="63.623047"/>
      </g>
     </g>
    </g>
    <g id="ytick_13">
     <g id="line2d_63">
      <path d="M 79.33125 821.134643 
L 709.2 821.134643 
" clip-path="url(#p2ace10f5b1)" style="fill: none; stroke: #b0b0b0; stroke-width: 0.8; stroke-linecap: square"/>
     </g>
     <g id="line2d_64">
      <g>
       <use xlink:href="#m930f0908d0" x="79.33125" y="821.134643" style="stroke: #000000; stroke-width: 0.8"/>
      </g>
     </g>
     <g id="text_36">
      <!-- 70 -->
      <g transform="translate(46.88125 828.73308)scale(0.2 -0.2)">
       <use xlink:href="#DejaVuSans-37"/>
       <use xlink:href="#DejaVuSans-30" x="63.623047"/>
      </g>
     </g>
    </g>
    <g id="ytick_14">
     <g id="line2d_65">
      <path d="M 79.33125 771.546429 
L 709.2 771.546429 
" clip-path="url(#p2ace10f5b1)" style="fill: none; stroke: #b0b0b0; stroke-width: 0.8; stroke-linecap: square"/>
     </g>
     <g id="line2d_66">
      <g>
       <use xlink:href="#m930f0908d0" x="79.33125" y="771.546429" style="stroke: #000000; stroke-width: 0.8"/>
      </g>
     </g>
     <g id="text_37">
      <!-- 80 -->
      <g transform="translate(46.88125 779.144866)scale(0.2 -0.2)">
       <use xlink:href="#DejaVuSans-38"/>
       <use xlink:href="#DejaVuSans-30" x="63.623047"/>
      </g>
     </g>
    </g>
    <g id="ytick_15">
     <g id="line2d_67">
      <path d="M 79.33125 721.958214 
L 709.2 721.958214 
" clip-path="url(#p2ace10f5b1)" style="fill: none; stroke: #b0b0b0; stroke-width: 0.8; stroke-linecap: square"/>
     </g>
     <g id="line2d_68">
      <g>
       <use xlink:href="#m930f0908d0" x="79.33125" y="721.958214" style="stroke: #000000; stroke-width: 0.8"/>
      </g>
     </g>
     <g id="text_38">
      <!-- 90 -->
      <g transform="translate(46.88125 729.556652)scale(0.2 -0.2)">
       <use xlink:href="#DejaVuSans-39"/>
       <use xlink:href="#DejaVuSans-30" x="63.623047"/>
      </g>
     </g>
    </g>
    <g id="ytick_16">
     <g id="line2d_69">
      <path d="M 79.33125 672.37 
L 709.2 672.37 
" clip-path="url(#p2ace10f5b1)" style="fill: none; stroke: #b0b0b0; stroke-width: 0.8; stroke-linecap: square"/>
     </g>
     <g id="line2d_70">
      <g>
       <use xlink:href="#m930f0908d0" x="79.33125" y="672.37" style="stroke: #000000; stroke-width: 0.8"/>
      </g>
     </g>
     <g id="text_39">
      <!-- 100 -->
      <g transform="translate(34.15625 679.968437)scale(0.2 -0.2)">
       <use xlink:href="#DejaVuSans-31"/>
       <use xlink:href="#DejaVuSans-30" x="63.623047"/>
       <use xlink:href="#DejaVuSans-30" x="127.246094"/>
      </g>
     </g>
    </g>
    <g id="text_40">
     <!-- accuracy [%] -->
     <g transform="translate(25.996875 911.530312)rotate(-90)scale(0.2 -0.2)">
      <use xlink:href="#DejaVuSans-61"/>
      <use xlink:href="#DejaVuSans-63" x="61.279297"/>
      <use xlink:href="#DejaVuSans-63" x="116.259766"/>
      <use xlink:href="#DejaVuSans-75" x="171.240234"/>
      <use xlink:href="#DejaVuSans-72" x="234.619141"/>
      <use xlink:href="#DejaVuSans-61" x="275.732422"/>
      <use xlink:href="#DejaVuSans-63" x="337.011719"/>
      <use xlink:href="#DejaVuSans-79" x="391.992188"/>
      <use xlink:href="#DejaVuSans-20" x="451.171875"/>
      <use xlink:href="#DejaVuSans-5b" x="482.958984"/>
      <use xlink:href="#DejaVuSans-25" x="521.972656"/>
      <use xlink:href="#DejaVuSans-5d" x="616.992188"/>
     </g>
    </g>
   </g>
   <g id="line2d_71">
    <path d="M 107.961648 924.526062 
L 112.773479 853.119045 
L 117.585311 822.870223 
L 122.397142 787.662598 
L 127.208974 785.183188 
L 132.020805 786.918767 
L 136.832637 766.835563 
L 141.644469 764.356153 
L 146.4563 773.282009 
L 151.268132 761.876742 
L 156.079963 764.852027 
L 160.891795 756.422008 
L 165.703626 765.843776 
L 170.515458 757.90967 
L 175.327289 757.413795 
L 180.139121 759.893206 
L 184.950953 753.694679 
L 189.762784 755.182303 
L 194.574616 753.942597 
L 199.386447 746.752321 
L 204.198279 747.496152 
L 209.01011 747.000278 
L 213.821942 748.239983 
L 218.633773 749.727607 
L 223.445605 751.215268 
L 228.257436 758.901419 
L 233.069268 747.992027 
L 237.8811 745.26466 
L 242.692931 739.562045 
L 247.504763 738.818215 
L 252.316594 745.512616 
L 257.128426 745.016741 
L 261.940257 746.752321 
L 266.752089 738.818215 
L 271.56392 742.537331 
L 276.375752 738.570259 
L 281.187584 742.289375 
L 285.999415 747.992027 
L 290.811247 741.7935 
L 295.623078 736.586722 
L 300.43491 733.859393 
L 305.246741 746.008491 
L 310.058573 744.520867 
L 314.870404 746.008491 
L 319.682236 743.52908 
L 324.494068 749.479688 
L 329.305899 746.752321 
L 334.117731 747.496152 
L 338.929562 751.959099 
L 343.741394 750.719394 
L 348.553225 747.496152 
L 353.365057 748.487901 
L 358.176888 749.727607 
L 362.98872 752.207017 
L 367.800551 747.992027 
L 372.612383 745.512616 
L 377.424215 748.239983 
L 382.236046 745.26466 
L 387.047878 749.479688 
L 391.859709 747.000278 
L 396.671541 747.496152 
L 401.483372 745.016741 
L 406.295204 748.487901 
L 411.107035 754.43851 
L 415.918867 749.727607 
L 420.730699 748.239983 
L 425.54253 754.43851 
L 430.354362 748.239983 
L 435.166193 748.239983 
L 439.978025 749.479688 
L 444.789856 747.000278 
L 449.601688 747.000278 
L 454.413519 751.711143 
L 459.225351 748.487901 
L 464.037182 745.760572 
L 468.849014 743.281162 
L 473.660846 746.752321 
L 478.472677 751.463187 
L 483.284509 749.727607 
L 488.09634 750.719394 
L 492.908172 753.942597 
L 497.720003 749.231732 
L 502.531835 753.198804 
L 507.343666 755.182303 
L 512.155498 750.719394 
L 516.96733 748.735858 
L 521.779161 749.231732 
L 526.590993 754.190554 
L 531.402824 752.702892 
L 536.214656 756.91792 
L 541.026487 753.198804 
L 545.838319 759.397331 
L 550.65015 749.479688 
L 555.461982 747.992027 
L 560.273814 746.256447 
L 565.085645 751.215268 
L 569.897477 742.289375 
L 574.709308 744.520867 
L 579.52114 754.43851 
L 584.332971 742.537331 
L 589.144803 752.454974 
L 593.956634 750.471437 
L 598.768466 753.942597 
L 603.580297 749.727607 
L 608.392129 749.479688 
L 613.203961 750.967312 
L 618.015792 748.487901 
L 622.827624 747.248196 
L 627.639455 748.735858 
L 632.451287 749.231732 
L 637.263118 747.000278 
L 642.07495 747.496152 
L 646.886781 757.90967 
L 651.698613 749.479688 
L 656.510445 746.752321 
L 661.322276 748.239983 
L 666.134108 746.256447 
L 670.945939 748.983776 
L 675.757771 746.256447 
L 680.569602 746.008491 
" clip-path="url(#p2ace10f5b1)" style="fill: none; stroke: #1f77b4; stroke-width: 1.5; stroke-linecap: square"/>
   </g>
   <g id="line2d_72">
    <path d="M 107.961648 921.054902 
L 112.773479 923.286357 
L 117.585311 930.476652 
L 122.397142 922.294608 
L 127.208974 924.526062 
L 132.020805 920.311071 
L 136.832637 929.73284 
L 141.644469 934.443705 
L 146.4563 924.774018 
L 151.268132 926.013724 
L 156.079963 928.245178 
L 160.891795 925.51783 
L 165.703626 918.575491 
L 170.515458 933.451956 
L 175.327289 924.030188 
L 180.139121 917.583723 
L 184.950953 924.030188 
L 189.762784 921.798714 
L 194.574616 936.179304 
L 199.386447 927.997241 
L 204.198279 923.534313 
L 209.01011 930.972545 
L 213.821942 921.798714 
L 218.633773 935.931366 
L 223.445605 931.46842 
L 228.257436 937.171072 
L 233.069268 929.73284 
L 237.8811 933.94783 
L 242.692931 937.666946 
L 247.504763 934.939598 
L 252.316594 931.964294 
L 257.128426 936.179304 
L 261.940257 932.21225 
L 266.752089 933.94783 
L 271.56392 933.699893 
L 276.375752 933.699893 
L 281.187584 931.46842 
L 285.999415 934.195768 
L 290.811247 927.997241 
L 295.623078 938.906652 
L 300.43491 896.012839 
L 305.246741 788.902304 
L 310.058573 774.025839 
L 314.870404 767.331438 
L 319.682236 750.471437 
L 324.494068 745.760572 
L 329.305899 750.719394 
L 334.117731 750.471437 
L 338.929562 748.487901 
L 343.741394 746.008491 
L 348.553225 738.570259 
L 353.365057 737.330553 
L 358.176888 737.578509 
L 362.98872 737.082635 
L 367.800551 734.851142 
L 372.612383 729.14849 
L 377.424215 736.090848 
L 382.236046 726.917036 
L 387.047878 728.156741 
L 391.859709 734.603224 
L 396.671541 726.66908 
L 401.483372 728.156741 
L 406.295204 729.14849 
L 411.107035 725.925287 
L 415.918867 724.9335 
L 420.730699 729.892321 
L 425.54253 730.388196 
L 430.354362 724.9335 
L 435.166193 721.958214 
L 439.978025 721.214384 
L 444.789856 720.470553 
L 449.601688 718.239098 
L 454.413519 719.230847 
L 459.225351 716.751437 
L 464.037182 724.437625 
L 468.849014 718.487054 
L 473.660846 723.94175 
L 478.472677 718.239098 
L 483.284509 716.999393 
L 488.09634 716.751437 
L 492.908172 716.007644 
L 497.720003 712.784402 
L 502.531835 710.800866 
L 507.343666 712.288528 
L 512.155498 713.032321 
L 516.96733 713.280277 
L 521.779161 713.032321 
L 526.590993 713.528233 
L 531.402824 710.800866 
L 536.214656 711.296741 
L 541.026487 713.280277 
L 545.838319 710.304991 
L 550.65015 713.280277 
L 555.461982 712.040571 
L 560.273814 717.495267 
L 565.085645 710.55291 
L 569.897477 717.991142 
L 574.709308 716.751437 
L 579.52114 708.073499 
L 584.332971 715.015857 
L 589.144803 716.503518 
L 593.956634 712.040571 
L 598.768466 712.288528 
L 603.580297 716.007644 
L 608.392129 720.222634 
L 613.203961 709.561161 
L 618.015792 711.792615 
L 622.827624 715.015857 
L 627.639455 710.55291 
L 632.451287 712.288528 
L 637.263118 713.776151 
L 642.07495 709.561161 
L 646.886781 709.809117 
L 651.698613 711.296741 
L 656.510445 715.759687 
L 661.322276 710.057035 
L 666.134108 715.511731 
L 670.945939 710.304991 
L 675.757771 712.288528 
L 680.569602 712.784402 
" clip-path="url(#p2ace10f5b1)" style="fill: none; stroke: #ff7f0e; stroke-width: 1.5; stroke-linecap: square"/>
   </g>
   <g id="line2d_73">
    <path d="M 107.961648 935.68341 
L 112.773479 911.385197 
L 117.585311 906.426375 
L 122.397142 912.129009 
L 127.208974 901.467554 
L 132.020805 906.674313 
L 136.832637 899.484018 
L 141.644469 906.426375 
L 146.4563 909.897554 
L 151.268132 905.682544 
L 156.079963 903.203134 
L 160.891795 912.376965 
L 165.703626 915.104313 
L 170.515458 920.806946 
L 175.327289 909.649598 
L 180.139121 913.864607 
L 184.950953 905.434607 
L 189.762784 897.004607 
L 194.574616 904.938733 
L 199.386447 892.541679 
L 204.198279 897.996375 
L 209.01011 904.194902 
L 213.821942 903.946964 
L 218.633773 899.979911 
L 223.445605 900.475786 
L 228.257436 898.49225 
L 233.069268 899.731955 
L 237.8811 902.955196 
L 242.692931 898.740206 
L 247.504763 902.211366 
L 252.316594 899.23608 
L 257.128426 906.674313 
L 261.940257 904.938733 
L 266.752089 893.533428 
L 271.56392 905.434607 
L 276.375752 903.451071 
L 281.187584 907.666081 
L 285.999415 906.426375 
L 290.811247 898.988143 
L 295.623078 903.451071 
L 300.43491 892.293723 
L 305.246741 901.715491 
L 310.058573 904.194902 
L 314.870404 915.600187 
L 319.682236 903.699027 
L 324.494068 908.409892 
L 329.305899 903.203134 
L 334.117731 907.914018 
L 338.929562 908.161955 
L 343.741394 908.905786 
L 348.553225 919.071366 
L 353.365057 907.170187 
L 358.176888 906.92225 
L 362.98872 906.178438 
L 367.800551 904.194902 
L 372.612383 909.649598 
L 377.424215 902.707259 
L 382.236046 908.409892 
L 387.047878 915.104313 
L 391.859709 924.774018 
L 396.671541 921.798714 
L 401.483372 919.319303 
L 406.295204 917.335786 
L 411.107035 906.92225 
L 415.918867 908.657849 
L 420.730699 906.92225 
L 425.54253 906.178438 
L 430.354362 904.690776 
L 435.166193 912.129009 
L 439.978025 912.376965 
L 444.789856 908.161955 
L 449.601688 902.211366 
L 454.413519 906.92225 
L 459.225351 912.872839 
L 464.037182 910.145491 
L 468.849014 905.434607 
L 473.660846 899.484018 
L 478.472677 898.244312 
L 483.284509 905.18667 
L 488.09634 906.674313 
L 492.908172 850.639615 
L 497.720003 757.661713 
L 502.531835 759.64525 
L 507.343666 737.578509 
L 512.155498 743.281162 
L 516.96733 733.859393 
L 521.779161 733.115562 
L 526.590993 743.033205 
L 531.402824 731.627901 
L 536.214656 746.504365 
L 541.026487 739.809964 
L 545.838319 735.594973 
L 550.65015 730.884108 
L 555.461982 728.652616 
L 560.273814 726.173205 
L 565.085645 732.371732 
L 569.897477 719.974678 
L 574.709308 729.14849 
L 579.52114 725.181456 
L 584.332971 730.636152 
L 589.144803 735.842929 
L 593.956634 728.156741 
L 598.768466 728.156741 
L 603.580297 732.619688 
L 608.392129 733.859393 
L 613.203961 723.94175 
L 618.015792 732.867606 
L 622.827624 721.958214 
L 627.639455 726.917036 
L 632.451287 717.743224 
L 637.263118 725.429374 
L 642.07495 718.487054 
L 646.886781 729.892321 
L 651.698613 717.247349 
L 656.510445 724.685581 
L 661.322276 718.487054 
L 666.134108 721.958214 
L 670.945939 717.743224 
L 675.757771 716.999393 
L 680.569602 715.015857 
" clip-path="url(#p2ace10f5b1)" style="fill: none; stroke: #2ca02c; stroke-width: 1.5; stroke-linecap: square"/>
   </g>
   <g id="line2d_74">
    <path d="M 107.961648 946.592821 
L 112.773479 941.634 
L 117.585311 945.601053 
L 122.397142 944.609304 
L 127.208974 947.336652 
L 132.020805 938.658714 
L 136.832637 943.865473 
L 141.644469 945.353116 
L 146.4563 948.080464 
L 151.268132 947.832527 
L 156.079963 940.642232 
L 160.891795 940.146357 
L 165.703626 943.865473 
L 170.515458 950.559875 
L 175.327289 950.807831 
L 180.139121 941.386062 
L 184.950953 938.410777 
L 189.762784 936.923116 
L 194.574616 933.204 
L 199.386447 935.435473 
L 204.198279 937.666946 
L 209.01011 940.642232 
L 213.821942 938.906652 
L 218.633773 935.68341 
L 223.445605 934.443705 
L 228.257436 933.204 
L 233.069268 937.419009 
L 237.8811 940.890188 
L 242.692931 940.642232 
L 247.504763 940.146357 
L 252.316594 940.146357 
L 257.128426 934.691661 
L 261.940257 935.435473 
L 266.752089 935.187536 
L 271.56392 931.964294 
L 276.375752 932.956062 
L 281.187584 937.666946 
L 285.999415 940.642232 
L 290.811247 937.171072 
L 295.623078 941.634 
L 300.43491 951.055768 
L 305.246741 943.369599 
L 310.058573 941.634 
L 314.870404 943.369599 
L 319.682236 949.320169 
L 324.494068 934.691661 
L 329.305899 936.923116 
L 334.117731 935.187536 
L 338.929562 931.46842 
L 343.741394 933.451956 
L 348.553225 929.484884 
L 353.365057 935.435473 
L 358.176888 930.972545 
L 362.98872 930.724589 
L 367.800551 932.708125 
L 372.612383 938.658714 
L 377.424215 936.675178 
L 382.236046 925.765767 
L 387.047878 934.195768 
L 391.859709 941.138125 
L 396.671541 943.369599 
L 401.483372 935.68341 
L 406.295204 943.369599 
L 411.107035 947.832527 
L 415.918867 946.344884 
L 420.730699 944.361348 
L 425.54253 937.171072 
L 430.354362 939.89842 
L 435.166193 935.187536 
L 439.978025 934.691661 
L 444.789856 934.939598 
L 449.601688 943.121642 
L 454.413519 935.435473 
L 459.225351 938.410777 
L 464.037182 935.435473 
L 468.849014 943.121642 
L 473.660846 939.89842 
L 478.472677 938.410777 
L 483.284509 932.460188 
L 488.09634 934.195768 
L 492.908172 933.204 
L 497.720003 940.146357 
L 502.531835 941.386062 
L 507.343666 939.650483 
L 512.155498 933.204 
L 516.96733 946.096947 
L 521.779161 948.080464 
L 526.590993 943.865473 
L 531.402824 939.154589 
L 536.214656 942.377831 
L 541.026487 940.642232 
L 545.838319 940.394294 
L 550.65015 940.146357 
L 555.461982 939.154589 
L 560.273814 939.154589 
L 565.085645 939.650483 
L 569.897477 934.195768 
L 574.709308 936.179304 
L 579.52114 941.634 
L 584.332971 942.129893 
L 589.144803 940.146357 
L 593.956634 937.171072 
L 598.768466 938.162821 
L 603.580297 930.724589 
L 608.392129 930.476652 
L 613.203961 931.46842 
L 618.015792 938.906652 
L 622.827624 936.427241 
L 627.639455 932.708125 
L 632.451287 935.435473 
L 637.263118 939.89842 
L 642.07495 935.187536 
L 646.886781 933.699893 
L 651.698613 929.236946 
L 656.510445 930.724589 
L 661.322276 933.699893 
L 666.134108 928.741072 
L 670.945939 927.253429 
L 675.757771 927.501366 
L 680.569602 928.493134 
" clip-path="url(#p2ace10f5b1)" style="fill: none; stroke: #d62728; stroke-width: 1.5; stroke-linecap: square"/>
   </g>
   <g id="line2d_75">
    <path d="M 107.961648 903.946964 
L 112.773479 924.030188 
L 117.585311 926.509598 
L 122.397142 927.005473 
L 127.208974 927.005473 
L 132.020805 929.73284 
L 136.832637 918.575491 
L 141.644469 919.071366 
L 146.4563 924.278125 
L 151.268132 909.649598 
L 156.079963 910.145491 
L 160.891795 919.567241 
L 165.703626 914.856375 
L 170.515458 910.889303 
L 175.327289 930.476652 
L 180.139121 922.294608 
L 184.950953 931.46842 
L 189.762784 941.634 
L 194.574616 935.931366 
L 199.386447 957.750169 
L 204.198279 949.568125 
L 209.01011 938.658714 
L 213.821942 924.030188 
L 218.633773 929.236946 
L 223.445605 945.601053 
L 228.257436 943.617536 
L 233.069268 932.460188 
L 237.8811 931.220482 
L 242.692931 924.774018 
L 247.504763 930.228714 
L 252.316594 935.187536 
L 257.128426 933.451956 
L 261.940257 932.956062 
L 266.752089 928.741072 
L 271.56392 931.220482 
L 276.375752 929.236946 
L 281.187584 930.476652 
L 285.999415 931.964294 
L 290.811247 934.195768 
L 295.623078 934.443705 
L 300.43491 943.121642 
L 305.246741 946.344884 
L 310.058573 936.923116 
L 314.870404 948.080464 
L 319.682236 943.617536 
L 324.494068 950.311937 
L 329.305899 947.584589 
L 334.117731 944.361348 
L 338.929562 954.031053 
L 343.741394 959.733706 
L 348.553225 957.254295 
L 353.365057 962.956928 
L 358.176888 963.204884 
L 362.98872 970.147223 
L 367.800551 968.163706 
L 372.612383 967.91575 
L 377.424215 963.204884 
L 382.236046 969.403411 
L 387.047878 967.667812 
L 391.859709 971.882822 
L 396.671541 963.948696 
L 401.483372 960.477517 
L 406.295204 965.684295 
L 411.107035 966.924 
L 415.918867 966.428107 
L 420.730699 965.684295 
L 425.54253 960.477517 
L 430.354362 962.213116 
L 435.166193 956.510464 
L 439.978025 956.758401 
L 444.789856 955.270759 
L 449.601688 958.741937 
L 454.413519 964.196634 
L 459.225351 949.816063 
L 464.037182 956.014589 
L 468.849014 952.791348 
L 473.660846 951.303705 
L 478.472677 954.526947 
L 483.284509 957.006358 
L 488.09634 959.237812 
L 492.908172 958.494 
L 497.720003 955.022821 
L 502.531835 964.44459 
L 507.343666 955.766652 
L 512.155498 951.303705 
L 516.96733 944.113411 
L 521.779161 958.494 
L 526.590993 960.973411 
L 531.402824 957.006358 
L 536.214656 961.221348 
L 541.026487 952.295473 
L 545.838319 953.039285 
L 550.65015 948.080464 
L 555.461982 947.584589 
L 560.273814 941.138125 
L 565.085645 953.287241 
L 569.897477 950.311937 
L 574.709308 944.361348 
L 579.52114 948.824295 
L 584.332971 941.881937 
L 589.144803 947.336652 
L 593.956634 950.807831 
L 598.768466 941.386062 
L 603.580297 943.865473 
L 608.392129 945.849009 
L 613.203961 943.617536 
L 618.015792 942.873705 
L 622.827624 939.402526 
L 627.639455 935.68341 
L 632.451287 931.46842 
L 637.263118 936.923116 
L 642.07495 936.179304 
L 646.886781 957.998107 
L 651.698613 943.369599 
L 656.510445 940.394294 
L 661.322276 936.675178 
L 666.134108 933.451956 
L 670.945939 941.386062 
L 675.757771 934.939598 
L 680.569602 936.427241 
" clip-path="url(#p2ace10f5b1)" style="fill: none; stroke: #9467bd; stroke-width: 1.5; stroke-linecap: square"/>
   </g>
   <g id="patch_9">
    <path d="M 79.33125 1019.4875 
L 79.33125 672.37 
" style="fill: none; stroke: #000000; stroke-width: 0.8; stroke-linejoin: miter; stroke-linecap: square"/>
   </g>
   <g id="patch_10">
    <path d="M 709.2 1019.4875 
L 709.2 672.37 
" style="fill: none; stroke: #000000; stroke-width: 0.8; stroke-linejoin: miter; stroke-linecap: square"/>
   </g>
   <g id="patch_11">
    <path d="M 79.33125 1019.4875 
L 709.2 1019.4875 
" style="fill: none; stroke: #000000; stroke-width: 0.8; stroke-linejoin: miter; stroke-linecap: square"/>
   </g>
   <g id="patch_12">
    <path d="M 79.33125 672.37 
L 709.2 672.37 
" style="fill: none; stroke: #000000; stroke-width: 0.8; stroke-linejoin: miter; stroke-linecap: square"/>
   </g>
   <g id="text_41">
    <!-- Test -->
    <g transform="translate(374.575 666.37)scale(0.2 -0.2)">
     <use xlink:href="#DejaVuSans-54"/>
     <use xlink:href="#DejaVuSans-65" x="44.083984"/>
     <use xlink:href="#DejaVuSans-73" x="105.607422"/>
     <use xlink:href="#DejaVuSans-74" x="157.707031"/>
    </g>
   </g>
   <g id="legend_2">
    <g id="patch_13">
     <path d="M 86.33125 753.760625 
L 148.920313 753.760625 
Q 150.920313 753.760625 150.920313 751.760625 
L 150.920313 679.37 
Q 150.920313 677.37 148.920313 677.37 
L 86.33125 677.37 
Q 84.33125 677.37 84.33125 679.37 
L 84.33125 751.760625 
Q 84.33125 753.760625 86.33125 753.760625 
z
" style="fill: #ffffff; opacity: 0.8; stroke: #cccccc; stroke-linejoin: miter"/>
    </g>
    <g id="line2d_76">
     <path d="M 88.33125 685.468437 
L 98.33125 685.468437 
L 108.33125 685.468437 
" style="fill: none; stroke: #1f77b4; stroke-width: 1.5; stroke-linecap: square"/>
    </g>
    <g id="text_42">
     <!-- task 0 -->
     <g transform="translate(116.33125 688.968437)scale(0.1 -0.1)">
      <use xlink:href="#DejaVuSans-74"/>
      <use xlink:href="#DejaVuSans-61" x="39.208984"/>
      <use xlink:href="#DejaVuSans-73" x="100.488281"/>
      <use xlink:href="#DejaVuSans-6b" x="152.587891"/>
      <use xlink:href="#DejaVuSans-20" x="210.498047"/>
      <use xlink:href="#DejaVuSans-30" x="242.285156"/>
     </g>
    </g>
    <g id="line2d_77">
     <path d="M 88.33125 700.146562 
L 98.33125 700.146562 
L 108.33125 700.146562 
" style="fill: none; stroke: #ff7f0e; stroke-width: 1.5; stroke-linecap: square"/>
    </g>
    <g id="text_43">
     <!-- task 1 -->
     <g transform="translate(116.33125 703.646562)scale(0.1 -0.1)">
      <use xlink:href="#DejaVuSans-74"/>
      <use xlink:href="#DejaVuSans-61" x="39.208984"/>
      <use xlink:href="#DejaVuSans-73" x="100.488281"/>
      <use xlink:href="#DejaVuSans-6b" x="152.587891"/>
      <use xlink:href="#DejaVuSans-20" x="210.498047"/>
      <use xlink:href="#DejaVuSans-31" x="242.285156"/>
     </g>
    </g>
    <g id="line2d_78">
     <path d="M 88.33125 714.824687 
L 98.33125 714.824687 
L 108.33125 714.824687 
" style="fill: none; stroke: #2ca02c; stroke-width: 1.5; stroke-linecap: square"/>
    </g>
    <g id="text_44">
     <!-- task 2 -->
     <g transform="translate(116.33125 718.324687)scale(0.1 -0.1)">
      <use xlink:href="#DejaVuSans-74"/>
      <use xlink:href="#DejaVuSans-61" x="39.208984"/>
      <use xlink:href="#DejaVuSans-73" x="100.488281"/>
      <use xlink:href="#DejaVuSans-6b" x="152.587891"/>
      <use xlink:href="#DejaVuSans-20" x="210.498047"/>
      <use xlink:href="#DejaVuSans-32" x="242.285156"/>
     </g>
    </g>
    <g id="line2d_79">
     <path d="M 88.33125 729.502812 
L 98.33125 729.502812 
L 108.33125 729.502812 
" style="fill: none; stroke: #d62728; stroke-width: 1.5; stroke-linecap: square"/>
    </g>
    <g id="text_45">
     <!-- task 3 -->
     <g transform="translate(116.33125 733.002812)scale(0.1 -0.1)">
      <use xlink:href="#DejaVuSans-74"/>
      <use xlink:href="#DejaVuSans-61" x="39.208984"/>
      <use xlink:href="#DejaVuSans-73" x="100.488281"/>
      <use xlink:href="#DejaVuSans-6b" x="152.587891"/>
      <use xlink:href="#DejaVuSans-20" x="210.498047"/>
      <use xlink:href="#DejaVuSans-33" x="242.285156"/>
     </g>
    </g>
    <g id="line2d_80">
     <path d="M 88.33125 744.180937 
L 98.33125 744.180937 
L 108.33125 744.180937 
" style="fill: none; stroke: #9467bd; stroke-width: 1.5; stroke-linecap: square"/>
    </g>
    <g id="text_46">
     <!-- task 4 -->
     <g transform="translate(116.33125 747.680937)scale(0.1 -0.1)">
      <use xlink:href="#DejaVuSans-74"/>
      <use xlink:href="#DejaVuSans-61" x="39.208984"/>
      <use xlink:href="#DejaVuSans-73" x="100.488281"/>
      <use xlink:href="#DejaVuSans-6b" x="152.587891"/>
      <use xlink:href="#DejaVuSans-20" x="210.498047"/>
      <use xlink:href="#DejaVuSans-34" x="242.285156"/>
     </g>
    </g>
   </g>
  </g>
  <g id="text_47">
   <!-- architecture: ResNet18 -->
   <g transform="translate(244.815625 15.196875)scale(0.2 -0.2)">
    <defs>
     <path id="DejaVuSans-68" d="M 3513 2113 
L 3513 0 
L 2938 0 
L 2938 2094 
Q 2938 2591 2744 2837 
Q 2550 3084 2163 3084 
Q 1697 3084 1428 2787 
Q 1159 2491 1159 1978 
L 1159 0 
L 581 0 
L 581 4863 
L 1159 4863 
L 1159 2956 
Q 1366 3272 1645 3428 
Q 1925 3584 2291 3584 
Q 2894 3584 3203 3211 
Q 3513 2838 3513 2113 
z
" transform="scale(0.015625)"/>
     <path id="DejaVuSans-3a" d="M 750 794 
L 1409 794 
L 1409 0 
L 750 0 
L 750 794 
z
M 750 3309 
L 1409 3309 
L 1409 2516 
L 750 2516 
L 750 3309 
z
" transform="scale(0.015625)"/>
     <path id="DejaVuSans-52" d="M 2841 2188 
Q 3044 2119 3236 1894 
Q 3428 1669 3622 1275 
L 4263 0 
L 3584 0 
L 2988 1197 
Q 2756 1666 2539 1819 
Q 2322 1972 1947 1972 
L 1259 1972 
L 1259 0 
L 628 0 
L 628 4666 
L 2053 4666 
Q 2853 4666 3247 4331 
Q 3641 3997 3641 3322 
Q 3641 2881 3436 2590 
Q 3231 2300 2841 2188 
z
M 1259 4147 
L 1259 2491 
L 2053 2491 
Q 2509 2491 2742 2702 
Q 2975 2913 2975 3322 
Q 2975 3731 2742 3939 
Q 2509 4147 2053 4147 
L 1259 4147 
z
" transform="scale(0.015625)"/>
     <path id="DejaVuSans-4e" d="M 628 4666 
L 1478 4666 
L 3547 763 
L 3547 4666 
L 4159 4666 
L 4159 0 
L 3309 0 
L 1241 3903 
L 1241 0 
L 628 0 
L 628 4666 
z
" transform="scale(0.015625)"/>
    </defs>
    <use xlink:href="#DejaVuSans-61"/>
    <use xlink:href="#DejaVuSans-72" x="61.279297"/>
    <use xlink:href="#DejaVuSans-63" x="100.142578"/>
    <use xlink:href="#DejaVuSans-68" x="155.123047"/>
    <use xlink:href="#DejaVuSans-69" x="218.501953"/>
    <use xlink:href="#DejaVuSans-74" x="246.285156"/>
    <use xlink:href="#DejaVuSans-65" x="285.494141"/>
    <use xlink:href="#DejaVuSans-63" x="347.017578"/>
    <use xlink:href="#DejaVuSans-74" x="401.998047"/>
    <use xlink:href="#DejaVuSans-75" x="441.207031"/>
    <use xlink:href="#DejaVuSans-72" x="504.585938"/>
    <use xlink:href="#DejaVuSans-65" x="543.449219"/>
    <use xlink:href="#DejaVuSans-3a" x="604.972656"/>
    <use xlink:href="#DejaVuSans-20" x="638.664062"/>
    <use xlink:href="#DejaVuSans-52" x="670.451172"/>
    <use xlink:href="#DejaVuSans-65" x="735.433594"/>
    <use xlink:href="#DejaVuSans-73" x="796.957031"/>
    <use xlink:href="#DejaVuSans-4e" x="849.056641"/>
    <use xlink:href="#DejaVuSans-65" x="923.861328"/>
    <use xlink:href="#DejaVuSans-74" x="985.384766"/>
    <use xlink:href="#DejaVuSans-31" x="1024.59375"/>
    <use xlink:href="#DejaVuSans-38" x="1088.216797"/>
   </g>
   <!-- dataset: CIFAR10 -->
   <g transform="translate(274.359375 37.5925)scale(0.2 -0.2)">
    <defs>
     <path id="DejaVuSans-64" d="M 2906 2969 
L 2906 4863 
L 3481 4863 
L 3481 0 
L 2906 0 
L 2906 525 
Q 2725 213 2448 61 
Q 2172 -91 1784 -91 
Q 1150 -91 751 415 
Q 353 922 353 1747 
Q 353 2572 751 3078 
Q 1150 3584 1784 3584 
Q 2172 3584 2448 3432 
Q 2725 3281 2906 2969 
z
M 947 1747 
Q 947 1113 1208 752 
Q 1469 391 1925 391 
Q 2381 391 2643 752 
Q 2906 1113 2906 1747 
Q 2906 2381 2643 2742 
Q 2381 3103 1925 3103 
Q 1469 3103 1208 2742 
Q 947 2381 947 1747 
z
" transform="scale(0.015625)"/>
     <path id="DejaVuSans-43" d="M 4122 4306 
L 4122 3641 
Q 3803 3938 3442 4084 
Q 3081 4231 2675 4231 
Q 1875 4231 1450 3742 
Q 1025 3253 1025 2328 
Q 1025 1406 1450 917 
Q 1875 428 2675 428 
Q 3081 428 3442 575 
Q 3803 722 4122 1019 
L 4122 359 
Q 3791 134 3420 21 
Q 3050 -91 2638 -91 
Q 1578 -91 968 557 
Q 359 1206 359 2328 
Q 359 3453 968 4101 
Q 1578 4750 2638 4750 
Q 3056 4750 3426 4639 
Q 3797 4528 4122 4306 
z
" transform="scale(0.015625)"/>
     <path id="DejaVuSans-49" d="M 628 4666 
L 1259 4666 
L 1259 0 
L 628 0 
L 628 4666 
z
" transform="scale(0.015625)"/>
     <path id="DejaVuSans-46" d="M 628 4666 
L 3309 4666 
L 3309 4134 
L 1259 4134 
L 1259 2759 
L 3109 2759 
L 3109 2228 
L 1259 2228 
L 1259 0 
L 628 0 
L 628 4666 
z
" transform="scale(0.015625)"/>
     <path id="DejaVuSans-41" d="M 2188 4044 
L 1331 1722 
L 3047 1722 
L 2188 4044 
z
M 1831 4666 
L 2547 4666 
L 4325 0 
L 3669 0 
L 3244 1197 
L 1141 1197 
L 716 0 
L 50 0 
L 1831 4666 
z
" transform="scale(0.015625)"/>
    </defs>
    <use xlink:href="#DejaVuSans-64"/>
    <use xlink:href="#DejaVuSans-61" x="63.476562"/>
    <use xlink:href="#DejaVuSans-74" x="124.755859"/>
    <use xlink:href="#DejaVuSans-61" x="163.964844"/>
    <use xlink:href="#DejaVuSans-73" x="225.244141"/>
    <use xlink:href="#DejaVuSans-65" x="277.34375"/>
    <use xlink:href="#DejaVuSans-74" x="338.867188"/>
    <use xlink:href="#DejaVuSans-3a" x="378.076172"/>
    <use xlink:href="#DejaVuSans-20" x="411.767578"/>
    <use xlink:href="#DejaVuSans-43" x="443.554688"/>
    <use xlink:href="#DejaVuSans-49" x="513.378906"/>
    <use xlink:href="#DejaVuSans-46" x="542.871094"/>
    <use xlink:href="#DejaVuSans-41" x="591.265625"/>
    <use xlink:href="#DejaVuSans-52" x="659.673828"/>
    <use xlink:href="#DejaVuSans-31" x="729.15625"/>
    <use xlink:href="#DejaVuSans-30" x="792.779297"/>
   </g>
   <!-- rehearsal_dataset: stat-wmm -->
   <g transform="translate(213.315625 59.988125)scale(0.2 -0.2)">
    <defs>
     <path id="DejaVuSans-6c" d="M 603 4863 
L 1178 4863 
L 1178 0 
L 603 0 
L 603 4863 
z
" transform="scale(0.015625)"/>
     <path id="DejaVuSans-5f" d="M 3263 -1063 
L 3263 -1509 
L -63 -1509 
L -63 -1063 
L 3263 -1063 
z
" transform="scale(0.015625)"/>
     <path id="DejaVuSans-2d" d="M 313 2009 
L 1997 2009 
L 1997 1497 
L 313 1497 
L 313 2009 
z
" transform="scale(0.015625)"/>
     <path id="DejaVuSans-77" d="M 269 3500 
L 844 3500 
L 1563 769 
L 2278 3500 
L 2956 3500 
L 3675 769 
L 4391 3500 
L 4966 3500 
L 4050 0 
L 3372 0 
L 2619 2869 
L 1863 0 
L 1184 0 
L 269 3500 
z
" transform="scale(0.015625)"/>
     <path id="DejaVuSans-6d" d="M 3328 2828 
Q 3544 3216 3844 3400 
Q 4144 3584 4550 3584 
Q 5097 3584 5394 3201 
Q 5691 2819 5691 2113 
L 5691 0 
L 5113 0 
L 5113 2094 
Q 5113 2597 4934 2840 
Q 4756 3084 4391 3084 
Q 3944 3084 3684 2787 
Q 3425 2491 3425 1978 
L 3425 0 
L 2847 0 
L 2847 2094 
Q 2847 2600 2669 2842 
Q 2491 3084 2119 3084 
Q 1678 3084 1418 2786 
Q 1159 2488 1159 1978 
L 1159 0 
L 581 0 
L 581 3500 
L 1159 3500 
L 1159 2956 
Q 1356 3278 1631 3431 
Q 1906 3584 2284 3584 
Q 2666 3584 2933 3390 
Q 3200 3197 3328 2828 
z
" transform="scale(0.015625)"/>
    </defs>
    <use xlink:href="#DejaVuSans-72"/>
    <use xlink:href="#DejaVuSans-65" x="38.863281"/>
    <use xlink:href="#DejaVuSans-68" x="100.386719"/>
    <use xlink:href="#DejaVuSans-65" x="163.765625"/>
    <use xlink:href="#DejaVuSans-61" x="225.289062"/>
    <use xlink:href="#DejaVuSans-72" x="286.568359"/>
    <use xlink:href="#DejaVuSans-73" x="327.681641"/>
    <use xlink:href="#DejaVuSans-61" x="379.78125"/>
    <use xlink:href="#DejaVuSans-6c" x="441.060547"/>
    <use xlink:href="#DejaVuSans-5f" x="468.84375"/>
    <use xlink:href="#DejaVuSans-64" x="518.84375"/>
    <use xlink:href="#DejaVuSans-61" x="582.320312"/>
    <use xlink:href="#DejaVuSans-74" x="643.599609"/>
    <use xlink:href="#DejaVuSans-61" x="682.808594"/>
    <use xlink:href="#DejaVuSans-73" x="744.087891"/>
    <use xlink:href="#DejaVuSans-65" x="796.1875"/>
    <use xlink:href="#DejaVuSans-74" x="857.710938"/>
    <use xlink:href="#DejaVuSans-3a" x="896.919922"/>
    <use xlink:href="#DejaVuSans-20" x="930.611328"/>
    <use xlink:href="#DejaVuSans-73" x="962.398438"/>
    <use xlink:href="#DejaVuSans-74" x="1014.498047"/>
    <use xlink:href="#DejaVuSans-61" x="1053.707031"/>
    <use xlink:href="#DejaVuSans-74" x="1114.986328"/>
    <use xlink:href="#DejaVuSans-2d" x="1154.195312"/>
    <use xlink:href="#DejaVuSans-77" x="1190.279297"/>
    <use xlink:href="#DejaVuSans-6d" x="1272.066406"/>
    <use xlink:href="#DejaVuSans-6d" x="1369.478516"/>
   </g>
   <!-- batch_size_rehearsal: 128 -->
   <g transform="translate(229.859375 82.94)scale(0.2 -0.2)">
    <defs>
     <path id="DejaVuSans-62" d="M 3116 1747 
Q 3116 2381 2855 2742 
Q 2594 3103 2138 3103 
Q 1681 3103 1420 2742 
Q 1159 2381 1159 1747 
Q 1159 1113 1420 752 
Q 1681 391 2138 391 
Q 2594 391 2855 752 
Q 3116 1113 3116 1747 
z
M 1159 2969 
Q 1341 3281 1617 3432 
Q 1894 3584 2278 3584 
Q 2916 3584 3314 3078 
Q 3713 2572 3713 1747 
Q 3713 922 3314 415 
Q 2916 -91 2278 -91 
Q 1894 -91 1617 61 
Q 1341 213 1159 525 
L 1159 0 
L 581 0 
L 581 4863 
L 1159 4863 
L 1159 2969 
z
" transform="scale(0.015625)"/>
     <path id="DejaVuSans-7a" d="M 353 3500 
L 3084 3500 
L 3084 2975 
L 922 459 
L 3084 459 
L 3084 0 
L 275 0 
L 275 525 
L 2438 3041 
L 353 3041 
L 353 3500 
z
" transform="scale(0.015625)"/>
    </defs>
    <use xlink:href="#DejaVuSans-62"/>
    <use xlink:href="#DejaVuSans-61" x="63.476562"/>
    <use xlink:href="#DejaVuSans-74" x="124.755859"/>
    <use xlink:href="#DejaVuSans-63" x="163.964844"/>
    <use xlink:href="#DejaVuSans-68" x="218.945312"/>
    <use xlink:href="#DejaVuSans-5f" x="282.324219"/>
    <use xlink:href="#DejaVuSans-73" x="332.324219"/>
    <use xlink:href="#DejaVuSans-69" x="384.423828"/>
    <use xlink:href="#DejaVuSans-7a" x="412.207031"/>
    <use xlink:href="#DejaVuSans-65" x="464.697266"/>
    <use xlink:href="#DejaVuSans-5f" x="526.220703"/>
    <use xlink:href="#DejaVuSans-72" x="576.220703"/>
    <use xlink:href="#DejaVuSans-65" x="615.083984"/>
    <use xlink:href="#DejaVuSans-68" x="676.607422"/>
    <use xlink:href="#DejaVuSans-65" x="739.986328"/>
    <use xlink:href="#DejaVuSans-61" x="801.509766"/>
    <use xlink:href="#DejaVuSans-72" x="862.789062"/>
    <use xlink:href="#DejaVuSans-73" x="903.902344"/>
    <use xlink:href="#DejaVuSans-61" x="956.001953"/>
    <use xlink:href="#DejaVuSans-6c" x="1017.28125"/>
    <use xlink:href="#DejaVuSans-3a" x="1045.064453"/>
    <use xlink:href="#DejaVuSans-20" x="1078.755859"/>
    <use xlink:href="#DejaVuSans-31" x="1110.542969"/>
    <use xlink:href="#DejaVuSans-32" x="1174.166016"/>
    <use xlink:href="#DejaVuSans-38" x="1237.789062"/>
   </g>
   <!-- pretraining: True -->
   <g transform="translate(277.092188 105.891875)scale(0.2 -0.2)">
    <defs>
     <path id="DejaVuSans-67" d="M 2906 1791 
Q 2906 2416 2648 2759 
Q 2391 3103 1925 3103 
Q 1463 3103 1205 2759 
Q 947 2416 947 1791 
Q 947 1169 1205 825 
Q 1463 481 1925 481 
Q 2391 481 2648 825 
Q 2906 1169 2906 1791 
z
M 3481 434 
Q 3481 -459 3084 -895 
Q 2688 -1331 1869 -1331 
Q 1566 -1331 1297 -1286 
Q 1028 -1241 775 -1147 
L 775 -588 
Q 1028 -725 1275 -790 
Q 1522 -856 1778 -856 
Q 2344 -856 2625 -561 
Q 2906 -266 2906 331 
L 2906 616 
Q 2728 306 2450 153 
Q 2172 0 1784 0 
Q 1141 0 747 490 
Q 353 981 353 1791 
Q 353 2603 747 3093 
Q 1141 3584 1784 3584 
Q 2172 3584 2450 3431 
Q 2728 3278 2906 2969 
L 2906 3500 
L 3481 3500 
L 3481 434 
z
" transform="scale(0.015625)"/>
    </defs>
    <use xlink:href="#DejaVuSans-70"/>
    <use xlink:href="#DejaVuSans-72" x="63.476562"/>
    <use xlink:href="#DejaVuSans-65" x="102.339844"/>
    <use xlink:href="#DejaVuSans-74" x="163.863281"/>
    <use xlink:href="#DejaVuSans-72" x="203.072266"/>
    <use xlink:href="#DejaVuSans-61" x="244.185547"/>
    <use xlink:href="#DejaVuSans-69" x="305.464844"/>
    <use xlink:href="#DejaVuSans-6e" x="333.248047"/>
    <use xlink:href="#DejaVuSans-69" x="396.626953"/>
    <use xlink:href="#DejaVuSans-6e" x="424.410156"/>
    <use xlink:href="#DejaVuSans-67" x="487.789062"/>
    <use xlink:href="#DejaVuSans-3a" x="551.265625"/>
    <use xlink:href="#DejaVuSans-20" x="584.957031"/>
    <use xlink:href="#DejaVuSans-54" x="616.744141"/>
    <use xlink:href="#DejaVuSans-72" x="663.078125"/>
    <use xlink:href="#DejaVuSans-75" x="704.191406"/>
    <use xlink:href="#DejaVuSans-65" x="767.570312"/>
   </g>
   <!-- learning_rate: 0.003 -->
   <g transform="translate(258.715625 128.2875)scale(0.2 -0.2)">
    <defs>
     <path id="DejaVuSans-2e" d="M 684 794 
L 1344 794 
L 1344 0 
L 684 0 
L 684 794 
z
" transform="scale(0.015625)"/>
    </defs>
    <use xlink:href="#DejaVuSans-6c"/>
    <use xlink:href="#DejaVuSans-65" x="27.783203"/>
    <use xlink:href="#DejaVuSans-61" x="89.306641"/>
    <use xlink:href="#DejaVuSans-72" x="150.585938"/>
    <use xlink:href="#DejaVuSans-6e" x="189.949219"/>
    <use xlink:href="#DejaVuSans-69" x="253.328125"/>
    <use xlink:href="#DejaVuSans-6e" x="281.111328"/>
    <use xlink:href="#DejaVuSans-67" x="344.490234"/>
    <use xlink:href="#DejaVuSans-5f" x="407.966797"/>
    <use xlink:href="#DejaVuSans-72" x="457.966797"/>
    <use xlink:href="#DejaVuSans-61" x="499.080078"/>
    <use xlink:href="#DejaVuSans-74" x="560.359375"/>
    <use xlink:href="#DejaVuSans-65" x="599.568359"/>
    <use xlink:href="#DejaVuSans-3a" x="661.091797"/>
    <use xlink:href="#DejaVuSans-20" x="694.783203"/>
    <use xlink:href="#DejaVuSans-30" x="726.570312"/>
    <use xlink:href="#DejaVuSans-2e" x="790.193359"/>
    <use xlink:href="#DejaVuSans-30" x="821.980469"/>
    <use xlink:href="#DejaVuSans-30" x="885.603516"/>
    <use xlink:href="#DejaVuSans-33" x="949.226562"/>
   </g>
   <!-- epochs: 5 -->
   <g transform="translate(311.425 151.239375)scale(0.2 -0.2)">
    <defs>
     <path id="DejaVuSans-6f" d="M 1959 3097 
Q 1497 3097 1228 2736 
Q 959 2375 959 1747 
Q 959 1119 1226 758 
Q 1494 397 1959 397 
Q 2419 397 2687 759 
Q 2956 1122 2956 1747 
Q 2956 2369 2687 2733 
Q 2419 3097 1959 3097 
z
M 1959 3584 
Q 2709 3584 3137 3096 
Q 3566 2609 3566 1747 
Q 3566 888 3137 398 
Q 2709 -91 1959 -91 
Q 1206 -91 779 398 
Q 353 888 353 1747 
Q 353 2609 779 3096 
Q 1206 3584 1959 3584 
z
" transform="scale(0.015625)"/>
    </defs>
    <use xlink:href="#DejaVuSans-65"/>
    <use xlink:href="#DejaVuSans-70" x="61.523438"/>
    <use xlink:href="#DejaVuSans-6f" x="125"/>
    <use xlink:href="#DejaVuSans-63" x="186.181641"/>
    <use xlink:href="#DejaVuSans-68" x="241.162109"/>
    <use xlink:href="#DejaVuSans-73" x="304.541016"/>
    <use xlink:href="#DejaVuSans-3a" x="356.640625"/>
    <use xlink:href="#DejaVuSans-20" x="390.332031"/>
    <use xlink:href="#DejaVuSans-35" x="422.119141"/>
   </g>
   <!-- separate_noise_output: None -->
   <g transform="translate(213.63125 173.635)scale(0.2 -0.2)">
    <use xlink:href="#DejaVuSans-73"/>
    <use xlink:href="#DejaVuSans-65" x="52.099609"/>
    <use xlink:href="#DejaVuSans-70" x="113.623047"/>
    <use xlink:href="#DejaVuSans-61" x="177.099609"/>
    <use xlink:href="#DejaVuSans-72" x="238.378906"/>
    <use xlink:href="#DejaVuSans-61" x="279.492188"/>
    <use xlink:href="#DejaVuSans-74" x="340.771484"/>
    <use xlink:href="#DejaVuSans-65" x="379.980469"/>
    <use xlink:href="#DejaVuSans-5f" x="441.503906"/>
    <use xlink:href="#DejaVuSans-6e" x="491.503906"/>
    <use xlink:href="#DejaVuSans-6f" x="554.882812"/>
    <use xlink:href="#DejaVuSans-69" x="616.064453"/>
    <use xlink:href="#DejaVuSans-73" x="643.847656"/>
    <use xlink:href="#DejaVuSans-65" x="695.947266"/>
    <use xlink:href="#DejaVuSans-5f" x="757.470703"/>
    <use xlink:href="#DejaVuSans-6f" x="807.470703"/>
    <use xlink:href="#DejaVuSans-75" x="868.652344"/>
    <use xlink:href="#DejaVuSans-74" x="932.03125"/>
    <use xlink:href="#DejaVuSans-70" x="971.240234"/>
    <use xlink:href="#DejaVuSans-75" x="1034.716797"/>
    <use xlink:href="#DejaVuSans-74" x="1098.095703"/>
    <use xlink:href="#DejaVuSans-3a" x="1137.304688"/>
    <use xlink:href="#DejaVuSans-20" x="1170.996094"/>
    <use xlink:href="#DejaVuSans-4e" x="1202.783203"/>
    <use xlink:href="#DejaVuSans-6f" x="1277.587891"/>
    <use xlink:href="#DejaVuSans-6e" x="1338.769531"/>
    <use xlink:href="#DejaVuSans-65" x="1402.148438"/>
   </g>
   <!-- runs: 1 -->
   <g transform="translate(325.095312 196.586875)scale(0.2 -0.2)">
    <use xlink:href="#DejaVuSans-72"/>
    <use xlink:href="#DejaVuSans-75" x="41.113281"/>
    <use xlink:href="#DejaVuSans-6e" x="104.492188"/>
    <use xlink:href="#DejaVuSans-73" x="167.871094"/>
    <use xlink:href="#DejaVuSans-3a" x="219.970703"/>
    <use xlink:href="#DejaVuSans-20" x="253.662109"/>
    <use xlink:href="#DejaVuSans-31" x="285.449219"/>
   </g>
  </g>
 </g>
 <defs>
  <clipPath id="p6ad9253df6">
   <rect x="79.33125" y="243.543125" width="629.86875" height="347.1175"/>
  </clipPath>
  <clipPath id="p2ace10f5b1">
   <rect x="79.33125" y="672.37" width="629.86875" height="347.1175"/>
  </clipPath>
 </defs>
</svg>
