<?xml version="1.0" encoding="utf-8" standalone="no"?>
<!DOCTYPE svg PUBLIC "-//W3C//DTD SVG 1.1//EN"
  "http://www.w3.org/Graphics/SVG/1.1/DTD/svg11.dtd">
<svg xmlns:xlink="http://www.w3.org/1999/xlink" width="720pt" height="1080pt" viewBox="0 0 720 1080" xmlns="http://www.w3.org/2000/svg" version="1.1">
 <metadata>
  <rdf:RDF xmlns:dc="http://purl.org/dc/elements/1.1/" xmlns:cc="http://creativecommons.org/ns#" xmlns:rdf="http://www.w3.org/1999/02/22-rdf-syntax-ns#">
   <cc:Work>
    <dc:type rdf:resource="http://purl.org/dc/dcmitype/StillImage"/>
    <dc:date>2024-01-26T18:26:28.839684</dc:date>
    <dc:format>image/svg+xml</dc:format>
    <dc:creator>
     <cc:Agent>
      <dc:title>Matplotlib v3.5.1, https://matplotlib.org/</dc:title>
     </cc:Agent>
    </dc:creator>
   </cc:Work>
  </rdf:RDF>
 </metadata>
 <defs>
  <style type="text/css">*{stroke-linejoin: round; stroke-linecap: butt}</style>
 </defs>
 <g id="figure_1">
  <g id="patch_1">
   <path d="M 0 1080 
L 720 1080 
L 720 0 
L 0 0 
L 0 1080 
z
" style="fill: none"/>
  </g>
  <g id="axes_1">
   <g id="patch_2">
    <path d="M 79.33125 590.660625 
L 709.2 590.660625 
L 709.2 243.543125 
L 79.33125 243.543125 
z
" style="fill: #ffffff"/>
   </g>
   <g id="matplotlib.axis_1">
    <g id="xtick_1">
     <g id="line2d_1">
      <path d="M 107.961648 590.660625 
L 107.961648 243.543125 
" clip-path="url(#pfa13ecc5fb)" style="fill: none; stroke: #b0b0b0; stroke-width: 0.8; stroke-linecap: square"/>
     </g>
     <g id="line2d_2">
      <defs>
       <path id="m75fb44bb90" d="M 0 0 
L 0 3.5 
" style="stroke: #000000; stroke-width: 0.8"/>
      </defs>
      <g>
       <use xlink:href="#m75fb44bb90" x="107.961648" y="590.660625" style="stroke: #000000; stroke-width: 0.8"/>
      </g>
     </g>
     <g id="text_1">
      <!-- 0 -->
      <g transform="translate(101.599148 612.8575)scale(0.2 -0.2)">
       <defs>
        <path id="DejaVuSans-30" d="M 2034 4250 
Q 1547 4250 1301 3770 
Q 1056 3291 1056 2328 
Q 1056 1369 1301 889 
Q 1547 409 2034 409 
Q 2525 409 2770 889 
Q 3016 1369 3016 2328 
Q 3016 3291 2770 3770 
Q 2525 4250 2034 4250 
z
M 2034 4750 
Q 2819 4750 3233 4129 
Q 3647 3509 3647 2328 
Q 3647 1150 3233 529 
Q 2819 -91 2034 -91 
Q 1250 -91 836 529 
Q 422 1150 422 2328 
Q 422 3509 836 4129 
Q 1250 4750 2034 4750 
z
" transform="scale(0.015625)"/>
       </defs>
       <use xlink:href="#DejaVuSans-30"/>
      </g>
     </g>
    </g>
    <g id="xtick_2">
     <g id="line2d_3">
      <path d="M 204.198279 590.660625 
L 204.198279 243.543125 
" clip-path="url(#pfa13ecc5fb)" style="fill: none; stroke: #b0b0b0; stroke-width: 0.8; stroke-linecap: square"/>
     </g>
     <g id="line2d_4">
      <g>
       <use xlink:href="#m75fb44bb90" x="204.198279" y="590.660625" style="stroke: #000000; stroke-width: 0.8"/>
      </g>
     </g>
     <g id="text_2">
      <!-- 20 -->
      <g transform="translate(191.473279 612.8575)scale(0.2 -0.2)">
       <defs>
        <path id="DejaVuSans-32" d="M 1228 531 
L 3431 531 
L 3431 0 
L 469 0 
L 469 531 
Q 828 903 1448 1529 
Q 2069 2156 2228 2338 
Q 2531 2678 2651 2914 
Q 2772 3150 2772 3378 
Q 2772 3750 2511 3984 
Q 2250 4219 1831 4219 
Q 1534 4219 1204 4116 
Q 875 4013 500 3803 
L 500 4441 
Q 881 4594 1212 4672 
Q 1544 4750 1819 4750 
Q 2544 4750 2975 4387 
Q 3406 4025 3406 3419 
Q 3406 3131 3298 2873 
Q 3191 2616 2906 2266 
Q 2828 2175 2409 1742 
Q 1991 1309 1228 531 
z
" transform="scale(0.015625)"/>
       </defs>
       <use xlink:href="#DejaVuSans-32"/>
       <use xlink:href="#DejaVuSans-30" x="63.623047"/>
      </g>
     </g>
    </g>
    <g id="xtick_3">
     <g id="line2d_5">
      <path d="M 300.43491 590.660625 
L 300.43491 243.543125 
" clip-path="url(#pfa13ecc5fb)" style="fill: none; stroke: #b0b0b0; stroke-width: 0.8; stroke-linecap: square"/>
     </g>
     <g id="line2d_6">
      <g>
       <use xlink:href="#m75fb44bb90" x="300.43491" y="590.660625" style="stroke: #000000; stroke-width: 0.8"/>
      </g>
     </g>
     <g id="text_3">
      <!-- 40 -->
      <g transform="translate(287.70991 612.8575)scale(0.2 -0.2)">
       <defs>
        <path id="DejaVuSans-34" d="M 2419 4116 
L 825 1625 
L 2419 1625 
L 2419 4116 
z
M 2253 4666 
L 3047 4666 
L 3047 1625 
L 3713 1625 
L 3713 1100 
L 3047 1100 
L 3047 0 
L 2419 0 
L 2419 1100 
L 313 1100 
L 313 1709 
L 2253 4666 
z
" transform="scale(0.015625)"/>
       </defs>
       <use xlink:href="#DejaVuSans-34"/>
       <use xlink:href="#DejaVuSans-30" x="63.623047"/>
      </g>
     </g>
    </g>
    <g id="xtick_4">
     <g id="line2d_7">
      <path d="M 396.671541 590.660625 
L 396.671541 243.543125 
" clip-path="url(#pfa13ecc5fb)" style="fill: none; stroke: #b0b0b0; stroke-width: 0.8; stroke-linecap: square"/>
     </g>
     <g id="line2d_8">
      <g>
       <use xlink:href="#m75fb44bb90" x="396.671541" y="590.660625" style="stroke: #000000; stroke-width: 0.8"/>
      </g>
     </g>
     <g id="text_4">
      <!-- 60 -->
      <g transform="translate(383.946541 612.8575)scale(0.2 -0.2)">
       <defs>
        <path id="DejaVuSans-36" d="M 2113 2584 
Q 1688 2584 1439 2293 
Q 1191 2003 1191 1497 
Q 1191 994 1439 701 
Q 1688 409 2113 409 
Q 2538 409 2786 701 
Q 3034 994 3034 1497 
Q 3034 2003 2786 2293 
Q 2538 2584 2113 2584 
z
M 3366 4563 
L 3366 3988 
Q 3128 4100 2886 4159 
Q 2644 4219 2406 4219 
Q 1781 4219 1451 3797 
Q 1122 3375 1075 2522 
Q 1259 2794 1537 2939 
Q 1816 3084 2150 3084 
Q 2853 3084 3261 2657 
Q 3669 2231 3669 1497 
Q 3669 778 3244 343 
Q 2819 -91 2113 -91 
Q 1303 -91 875 529 
Q 447 1150 447 2328 
Q 447 3434 972 4092 
Q 1497 4750 2381 4750 
Q 2619 4750 2861 4703 
Q 3103 4656 3366 4563 
z
" transform="scale(0.015625)"/>
       </defs>
       <use xlink:href="#DejaVuSans-36"/>
       <use xlink:href="#DejaVuSans-30" x="63.623047"/>
      </g>
     </g>
    </g>
    <g id="xtick_5">
     <g id="line2d_9">
      <path d="M 492.908172 590.660625 
L 492.908172 243.543125 
" clip-path="url(#pfa13ecc5fb)" style="fill: none; stroke: #b0b0b0; stroke-width: 0.8; stroke-linecap: square"/>
     </g>
     <g id="line2d_10">
      <g>
       <use xlink:href="#m75fb44bb90" x="492.908172" y="590.660625" style="stroke: #000000; stroke-width: 0.8"/>
      </g>
     </g>
     <g id="text_5">
      <!-- 80 -->
      <g transform="translate(480.183172 612.8575)scale(0.2 -0.2)">
       <defs>
        <path id="DejaVuSans-38" d="M 2034 2216 
Q 1584 2216 1326 1975 
Q 1069 1734 1069 1313 
Q 1069 891 1326 650 
Q 1584 409 2034 409 
Q 2484 409 2743 651 
Q 3003 894 3003 1313 
Q 3003 1734 2745 1975 
Q 2488 2216 2034 2216 
z
M 1403 2484 
Q 997 2584 770 2862 
Q 544 3141 544 3541 
Q 544 4100 942 4425 
Q 1341 4750 2034 4750 
Q 2731 4750 3128 4425 
Q 3525 4100 3525 3541 
Q 3525 3141 3298 2862 
Q 3072 2584 2669 2484 
Q 3125 2378 3379 2068 
Q 3634 1759 3634 1313 
Q 3634 634 3220 271 
Q 2806 -91 2034 -91 
Q 1263 -91 848 271 
Q 434 634 434 1313 
Q 434 1759 690 2068 
Q 947 2378 1403 2484 
z
M 1172 3481 
Q 1172 3119 1398 2916 
Q 1625 2713 2034 2713 
Q 2441 2713 2670 2916 
Q 2900 3119 2900 3481 
Q 2900 3844 2670 4047 
Q 2441 4250 2034 4250 
Q 1625 4250 1398 4047 
Q 1172 3844 1172 3481 
z
" transform="scale(0.015625)"/>
       </defs>
       <use xlink:href="#DejaVuSans-38"/>
       <use xlink:href="#DejaVuSans-30" x="63.623047"/>
      </g>
     </g>
    </g>
    <g id="xtick_6">
     <g id="line2d_11">
      <path d="M 589.144803 590.660625 
L 589.144803 243.543125 
" clip-path="url(#pfa13ecc5fb)" style="fill: none; stroke: #b0b0b0; stroke-width: 0.8; stroke-linecap: square"/>
     </g>
     <g id="line2d_12">
      <g>
       <use xlink:href="#m75fb44bb90" x="589.144803" y="590.660625" style="stroke: #000000; stroke-width: 0.8"/>
      </g>
     </g>
     <g id="text_6">
      <!-- 100 -->
      <g transform="translate(570.057303 612.8575)scale(0.2 -0.2)">
       <defs>
        <path id="DejaVuSans-31" d="M 794 531 
L 1825 531 
L 1825 4091 
L 703 3866 
L 703 4441 
L 1819 4666 
L 2450 4666 
L 2450 531 
L 3481 531 
L 3481 0 
L 794 0 
L 794 531 
z
" transform="scale(0.015625)"/>
       </defs>
       <use xlink:href="#DejaVuSans-31"/>
       <use xlink:href="#DejaVuSans-30" x="63.623047"/>
       <use xlink:href="#DejaVuSans-30" x="127.246094"/>
      </g>
     </g>
    </g>
    <g id="xtick_7">
     <g id="line2d_13">
      <path d="M 685.381434 590.660625 
L 685.381434 243.543125 
" clip-path="url(#pfa13ecc5fb)" style="fill: none; stroke: #b0b0b0; stroke-width: 0.8; stroke-linecap: square"/>
     </g>
     <g id="line2d_14">
      <g>
       <use xlink:href="#m75fb44bb90" x="685.381434" y="590.660625" style="stroke: #000000; stroke-width: 0.8"/>
      </g>
     </g>
     <g id="text_7">
      <!-- 120 -->
      <g transform="translate(666.293934 612.8575)scale(0.2 -0.2)">
       <use xlink:href="#DejaVuSans-31"/>
       <use xlink:href="#DejaVuSans-32" x="63.623047"/>
       <use xlink:href="#DejaVuSans-30" x="127.246094"/>
      </g>
     </g>
    </g>
    <g id="text_8">
     <!-- step -->
     <g transform="translate(372.634375 636.21375)scale(0.2 -0.2)">
      <defs>
       <path id="DejaVuSans-73" d="M 2834 3397 
L 2834 2853 
Q 2591 2978 2328 3040 
Q 2066 3103 1784 3103 
Q 1356 3103 1142 2972 
Q 928 2841 928 2578 
Q 928 2378 1081 2264 
Q 1234 2150 1697 2047 
L 1894 2003 
Q 2506 1872 2764 1633 
Q 3022 1394 3022 966 
Q 3022 478 2636 193 
Q 2250 -91 1575 -91 
Q 1294 -91 989 -36 
Q 684 19 347 128 
L 347 722 
Q 666 556 975 473 
Q 1284 391 1588 391 
Q 1994 391 2212 530 
Q 2431 669 2431 922 
Q 2431 1156 2273 1281 
Q 2116 1406 1581 1522 
L 1381 1569 
Q 847 1681 609 1914 
Q 372 2147 372 2553 
Q 372 3047 722 3315 
Q 1072 3584 1716 3584 
Q 2034 3584 2315 3537 
Q 2597 3491 2834 3397 
z
" transform="scale(0.015625)"/>
       <path id="DejaVuSans-74" d="M 1172 4494 
L 1172 3500 
L 2356 3500 
L 2356 3053 
L 1172 3053 
L 1172 1153 
Q 1172 725 1289 603 
Q 1406 481 1766 481 
L 2356 481 
L 2356 0 
L 1766 0 
Q 1100 0 847 248 
Q 594 497 594 1153 
L 594 3053 
L 172 3053 
L 172 3500 
L 594 3500 
L 594 4494 
L 1172 4494 
z
" transform="scale(0.015625)"/>
       <path id="DejaVuSans-65" d="M 3597 1894 
L 3597 1613 
L 953 1613 
Q 991 1019 1311 708 
Q 1631 397 2203 397 
Q 2534 397 2845 478 
Q 3156 559 3463 722 
L 3463 178 
Q 3153 47 2828 -22 
Q 2503 -91 2169 -91 
Q 1331 -91 842 396 
Q 353 884 353 1716 
Q 353 2575 817 3079 
Q 1281 3584 2069 3584 
Q 2775 3584 3186 3129 
Q 3597 2675 3597 1894 
z
M 3022 2063 
Q 3016 2534 2758 2815 
Q 2500 3097 2075 3097 
Q 1594 3097 1305 2825 
Q 1016 2553 972 2059 
L 3022 2063 
z
" transform="scale(0.015625)"/>
       <path id="DejaVuSans-70" d="M 1159 525 
L 1159 -1331 
L 581 -1331 
L 581 3500 
L 1159 3500 
L 1159 2969 
Q 1341 3281 1617 3432 
Q 1894 3584 2278 3584 
Q 2916 3584 3314 3078 
Q 3713 2572 3713 1747 
Q 3713 922 3314 415 
Q 2916 -91 2278 -91 
Q 1894 -91 1617 61 
Q 1341 213 1159 525 
z
M 3116 1747 
Q 3116 2381 2855 2742 
Q 2594 3103 2138 3103 
Q 1681 3103 1420 2742 
Q 1159 2381 1159 1747 
Q 1159 1113 1420 752 
Q 1681 391 2138 391 
Q 2594 391 2855 752 
Q 3116 1113 3116 1747 
z
" transform="scale(0.015625)"/>
      </defs>
      <use xlink:href="#DejaVuSans-73"/>
      <use xlink:href="#DejaVuSans-74" x="52.099609"/>
      <use xlink:href="#DejaVuSans-65" x="91.308594"/>
      <use xlink:href="#DejaVuSans-70" x="152.832031"/>
     </g>
    </g>
   </g>
   <g id="matplotlib.axis_2">
    <g id="ytick_1">
     <g id="line2d_15">
      <path d="M 79.33125 590.660625 
L 709.2 590.660625 
" clip-path="url(#pfa13ecc5fb)" style="fill: none; stroke: #b0b0b0; stroke-width: 0.8; stroke-linecap: square"/>
     </g>
     <g id="line2d_16">
      <defs>
       <path id="m422fadff25" d="M 0 0 
L -3.5 0 
" style="stroke: #000000; stroke-width: 0.8"/>
      </defs>
      <g>
       <use xlink:href="#m422fadff25" x="79.33125" y="590.660625" style="stroke: #000000; stroke-width: 0.8"/>
      </g>
     </g>
     <g id="text_9">
      <!-- 30 -->
      <g transform="translate(46.88125 598.259063)scale(0.2 -0.2)">
       <defs>
        <path id="DejaVuSans-33" d="M 2597 2516 
Q 3050 2419 3304 2112 
Q 3559 1806 3559 1356 
Q 3559 666 3084 287 
Q 2609 -91 1734 -91 
Q 1441 -91 1130 -33 
Q 819 25 488 141 
L 488 750 
Q 750 597 1062 519 
Q 1375 441 1716 441 
Q 2309 441 2620 675 
Q 2931 909 2931 1356 
Q 2931 1769 2642 2001 
Q 2353 2234 1838 2234 
L 1294 2234 
L 1294 2753 
L 1863 2753 
Q 2328 2753 2575 2939 
Q 2822 3125 2822 3475 
Q 2822 3834 2567 4026 
Q 2313 4219 1838 4219 
Q 1578 4219 1281 4162 
Q 984 4106 628 3988 
L 628 4550 
Q 988 4650 1302 4700 
Q 1616 4750 1894 4750 
Q 2613 4750 3031 4423 
Q 3450 4097 3450 3541 
Q 3450 3153 3228 2886 
Q 3006 2619 2597 2516 
z
" transform="scale(0.015625)"/>
       </defs>
       <use xlink:href="#DejaVuSans-33"/>
       <use xlink:href="#DejaVuSans-30" x="63.623047"/>
      </g>
     </g>
    </g>
    <g id="ytick_2">
     <g id="line2d_17">
      <path d="M 79.33125 541.072411 
L 709.2 541.072411 
" clip-path="url(#pfa13ecc5fb)" style="fill: none; stroke: #b0b0b0; stroke-width: 0.8; stroke-linecap: square"/>
     </g>
     <g id="line2d_18">
      <g>
       <use xlink:href="#m422fadff25" x="79.33125" y="541.072411" style="stroke: #000000; stroke-width: 0.8"/>
      </g>
     </g>
     <g id="text_10">
      <!-- 40 -->
      <g transform="translate(46.88125 548.670848)scale(0.2 -0.2)">
       <use xlink:href="#DejaVuSans-34"/>
       <use xlink:href="#DejaVuSans-30" x="63.623047"/>
      </g>
     </g>
    </g>
    <g id="ytick_3">
     <g id="line2d_19">
      <path d="M 79.33125 491.484196 
L 709.2 491.484196 
" clip-path="url(#pfa13ecc5fb)" style="fill: none; stroke: #b0b0b0; stroke-width: 0.8; stroke-linecap: square"/>
     </g>
     <g id="line2d_20">
      <g>
       <use xlink:href="#m422fadff25" x="79.33125" y="491.484196" style="stroke: #000000; stroke-width: 0.8"/>
      </g>
     </g>
     <g id="text_11">
      <!-- 50 -->
      <g transform="translate(46.88125 499.082634)scale(0.2 -0.2)">
       <defs>
        <path id="DejaVuSans-35" d="M 691 4666 
L 3169 4666 
L 3169 4134 
L 1269 4134 
L 1269 2991 
Q 1406 3038 1543 3061 
Q 1681 3084 1819 3084 
Q 2600 3084 3056 2656 
Q 3513 2228 3513 1497 
Q 3513 744 3044 326 
Q 2575 -91 1722 -91 
Q 1428 -91 1123 -41 
Q 819 9 494 109 
L 494 744 
Q 775 591 1075 516 
Q 1375 441 1709 441 
Q 2250 441 2565 725 
Q 2881 1009 2881 1497 
Q 2881 1984 2565 2268 
Q 2250 2553 1709 2553 
Q 1456 2553 1204 2497 
Q 953 2441 691 2322 
L 691 4666 
z
" transform="scale(0.015625)"/>
       </defs>
       <use xlink:href="#DejaVuSans-35"/>
       <use xlink:href="#DejaVuSans-30" x="63.623047"/>
      </g>
     </g>
    </g>
    <g id="ytick_4">
     <g id="line2d_21">
      <path d="M 79.33125 441.895982 
L 709.2 441.895982 
" clip-path="url(#pfa13ecc5fb)" style="fill: none; stroke: #b0b0b0; stroke-width: 0.8; stroke-linecap: square"/>
     </g>
     <g id="line2d_22">
      <g>
       <use xlink:href="#m422fadff25" x="79.33125" y="441.895982" style="stroke: #000000; stroke-width: 0.8"/>
      </g>
     </g>
     <g id="text_12">
      <!-- 60 -->
      <g transform="translate(46.88125 449.49442)scale(0.2 -0.2)">
       <use xlink:href="#DejaVuSans-36"/>
       <use xlink:href="#DejaVuSans-30" x="63.623047"/>
      </g>
     </g>
    </g>
    <g id="ytick_5">
     <g id="line2d_23">
      <path d="M 79.33125 392.307768 
L 709.2 392.307768 
" clip-path="url(#pfa13ecc5fb)" style="fill: none; stroke: #b0b0b0; stroke-width: 0.8; stroke-linecap: square"/>
     </g>
     <g id="line2d_24">
      <g>
       <use xlink:href="#m422fadff25" x="79.33125" y="392.307768" style="stroke: #000000; stroke-width: 0.8"/>
      </g>
     </g>
     <g id="text_13">
      <!-- 70 -->
      <g transform="translate(46.88125 399.906205)scale(0.2 -0.2)">
       <defs>
        <path id="DejaVuSans-37" d="M 525 4666 
L 3525 4666 
L 3525 4397 
L 1831 0 
L 1172 0 
L 2766 4134 
L 525 4134 
L 525 4666 
z
" transform="scale(0.015625)"/>
       </defs>
       <use xlink:href="#DejaVuSans-37"/>
       <use xlink:href="#DejaVuSans-30" x="63.623047"/>
      </g>
     </g>
    </g>
    <g id="ytick_6">
     <g id="line2d_25">
      <path d="M 79.33125 342.719554 
L 709.2 342.719554 
" clip-path="url(#pfa13ecc5fb)" style="fill: none; stroke: #b0b0b0; stroke-width: 0.8; stroke-linecap: square"/>
     </g>
     <g id="line2d_26">
      <g>
       <use xlink:href="#m422fadff25" x="79.33125" y="342.719554" style="stroke: #000000; stroke-width: 0.8"/>
      </g>
     </g>
     <g id="text_14">
      <!-- 80 -->
      <g transform="translate(46.88125 350.317991)scale(0.2 -0.2)">
       <use xlink:href="#DejaVuSans-38"/>
       <use xlink:href="#DejaVuSans-30" x="63.623047"/>
      </g>
     </g>
    </g>
    <g id="ytick_7">
     <g id="line2d_27">
      <path d="M 79.33125 293.131339 
L 709.2 293.131339 
" clip-path="url(#pfa13ecc5fb)" style="fill: none; stroke: #b0b0b0; stroke-width: 0.8; stroke-linecap: square"/>
     </g>
     <g id="line2d_28">
      <g>
       <use xlink:href="#m422fadff25" x="79.33125" y="293.131339" style="stroke: #000000; stroke-width: 0.8"/>
      </g>
     </g>
     <g id="text_15">
      <!-- 90 -->
      <g transform="translate(46.88125 300.729777)scale(0.2 -0.2)">
       <defs>
        <path id="DejaVuSans-39" d="M 703 97 
L 703 672 
Q 941 559 1184 500 
Q 1428 441 1663 441 
Q 2288 441 2617 861 
Q 2947 1281 2994 2138 
Q 2813 1869 2534 1725 
Q 2256 1581 1919 1581 
Q 1219 1581 811 2004 
Q 403 2428 403 3163 
Q 403 3881 828 4315 
Q 1253 4750 1959 4750 
Q 2769 4750 3195 4129 
Q 3622 3509 3622 2328 
Q 3622 1225 3098 567 
Q 2575 -91 1691 -91 
Q 1453 -91 1209 -44 
Q 966 3 703 97 
z
M 1959 2075 
Q 2384 2075 2632 2365 
Q 2881 2656 2881 3163 
Q 2881 3666 2632 3958 
Q 2384 4250 1959 4250 
Q 1534 4250 1286 3958 
Q 1038 3666 1038 3163 
Q 1038 2656 1286 2365 
Q 1534 2075 1959 2075 
z
" transform="scale(0.015625)"/>
       </defs>
       <use xlink:href="#DejaVuSans-39"/>
       <use xlink:href="#DejaVuSans-30" x="63.623047"/>
      </g>
     </g>
    </g>
    <g id="ytick_8">
     <g id="line2d_29">
      <path d="M 79.33125 243.543125 
L 709.2 243.543125 
" clip-path="url(#pfa13ecc5fb)" style="fill: none; stroke: #b0b0b0; stroke-width: 0.8; stroke-linecap: square"/>
     </g>
     <g id="line2d_30">
      <g>
       <use xlink:href="#m422fadff25" x="79.33125" y="243.543125" style="stroke: #000000; stroke-width: 0.8"/>
      </g>
     </g>
     <g id="text_16">
      <!-- 100 -->
      <g transform="translate(34.15625 251.141562)scale(0.2 -0.2)">
       <use xlink:href="#DejaVuSans-31"/>
       <use xlink:href="#DejaVuSans-30" x="63.623047"/>
       <use xlink:href="#DejaVuSans-30" x="127.246094"/>
      </g>
     </g>
    </g>
    <g id="text_17">
     <!-- accuracy [%] -->
     <g transform="translate(25.996875 482.703437)rotate(-90)scale(0.2 -0.2)">
      <defs>
       <path id="DejaVuSans-61" d="M 2194 1759 
Q 1497 1759 1228 1600 
Q 959 1441 959 1056 
Q 959 750 1161 570 
Q 1363 391 1709 391 
Q 2188 391 2477 730 
Q 2766 1069 2766 1631 
L 2766 1759 
L 2194 1759 
z
M 3341 1997 
L 3341 0 
L 2766 0 
L 2766 531 
Q 2569 213 2275 61 
Q 1981 -91 1556 -91 
Q 1019 -91 701 211 
Q 384 513 384 1019 
Q 384 1609 779 1909 
Q 1175 2209 1959 2209 
L 2766 2209 
L 2766 2266 
Q 2766 2663 2505 2880 
Q 2244 3097 1772 3097 
Q 1472 3097 1187 3025 
Q 903 2953 641 2809 
L 641 3341 
Q 956 3463 1253 3523 
Q 1550 3584 1831 3584 
Q 2591 3584 2966 3190 
Q 3341 2797 3341 1997 
z
" transform="scale(0.015625)"/>
       <path id="DejaVuSans-63" d="M 3122 3366 
L 3122 2828 
Q 2878 2963 2633 3030 
Q 2388 3097 2138 3097 
Q 1578 3097 1268 2742 
Q 959 2388 959 1747 
Q 959 1106 1268 751 
Q 1578 397 2138 397 
Q 2388 397 2633 464 
Q 2878 531 3122 666 
L 3122 134 
Q 2881 22 2623 -34 
Q 2366 -91 2075 -91 
Q 1284 -91 818 406 
Q 353 903 353 1747 
Q 353 2603 823 3093 
Q 1294 3584 2113 3584 
Q 2378 3584 2631 3529 
Q 2884 3475 3122 3366 
z
" transform="scale(0.015625)"/>
       <path id="DejaVuSans-75" d="M 544 1381 
L 544 3500 
L 1119 3500 
L 1119 1403 
Q 1119 906 1312 657 
Q 1506 409 1894 409 
Q 2359 409 2629 706 
Q 2900 1003 2900 1516 
L 2900 3500 
L 3475 3500 
L 3475 0 
L 2900 0 
L 2900 538 
Q 2691 219 2414 64 
Q 2138 -91 1772 -91 
Q 1169 -91 856 284 
Q 544 659 544 1381 
z
M 1991 3584 
L 1991 3584 
z
" transform="scale(0.015625)"/>
       <path id="DejaVuSans-72" d="M 2631 2963 
Q 2534 3019 2420 3045 
Q 2306 3072 2169 3072 
Q 1681 3072 1420 2755 
Q 1159 2438 1159 1844 
L 1159 0 
L 581 0 
L 581 3500 
L 1159 3500 
L 1159 2956 
Q 1341 3275 1631 3429 
Q 1922 3584 2338 3584 
Q 2397 3584 2469 3576 
Q 2541 3569 2628 3553 
L 2631 2963 
z
" transform="scale(0.015625)"/>
       <path id="DejaVuSans-79" d="M 2059 -325 
Q 1816 -950 1584 -1140 
Q 1353 -1331 966 -1331 
L 506 -1331 
L 506 -850 
L 844 -850 
Q 1081 -850 1212 -737 
Q 1344 -625 1503 -206 
L 1606 56 
L 191 3500 
L 800 3500 
L 1894 763 
L 2988 3500 
L 3597 3500 
L 2059 -325 
z
" transform="scale(0.015625)"/>
       <path id="DejaVuSans-20" transform="scale(0.015625)"/>
       <path id="DejaVuSans-5b" d="M 550 4863 
L 1875 4863 
L 1875 4416 
L 1125 4416 
L 1125 -397 
L 1875 -397 
L 1875 -844 
L 550 -844 
L 550 4863 
z
" transform="scale(0.015625)"/>
       <path id="DejaVuSans-25" d="M 4653 2053 
Q 4381 2053 4226 1822 
Q 4072 1591 4072 1178 
Q 4072 772 4226 539 
Q 4381 306 4653 306 
Q 4919 306 5073 539 
Q 5228 772 5228 1178 
Q 5228 1588 5073 1820 
Q 4919 2053 4653 2053 
z
M 4653 2450 
Q 5147 2450 5437 2106 
Q 5728 1763 5728 1178 
Q 5728 594 5436 251 
Q 5144 -91 4653 -91 
Q 4153 -91 3862 251 
Q 3572 594 3572 1178 
Q 3572 1766 3864 2108 
Q 4156 2450 4653 2450 
z
M 1428 4353 
Q 1159 4353 1004 4120 
Q 850 3888 850 3481 
Q 850 3069 1003 2837 
Q 1156 2606 1428 2606 
Q 1700 2606 1854 2837 
Q 2009 3069 2009 3481 
Q 2009 3884 1853 4118 
Q 1697 4353 1428 4353 
z
M 4250 4750 
L 4750 4750 
L 1831 -91 
L 1331 -91 
L 4250 4750 
z
M 1428 4750 
Q 1922 4750 2215 4408 
Q 2509 4066 2509 3481 
Q 2509 2891 2217 2550 
Q 1925 2209 1428 2209 
Q 931 2209 642 2551 
Q 353 2894 353 3481 
Q 353 4063 643 4406 
Q 934 4750 1428 4750 
z
" transform="scale(0.015625)"/>
       <path id="DejaVuSans-5d" d="M 1947 4863 
L 1947 -844 
L 622 -844 
L 622 -397 
L 1369 -397 
L 1369 4416 
L 622 4416 
L 622 4863 
L 1947 4863 
z
" transform="scale(0.015625)"/>
      </defs>
      <use xlink:href="#DejaVuSans-61"/>
      <use xlink:href="#DejaVuSans-63" x="61.279297"/>
      <use xlink:href="#DejaVuSans-63" x="116.259766"/>
      <use xlink:href="#DejaVuSans-75" x="171.240234"/>
      <use xlink:href="#DejaVuSans-72" x="234.619141"/>
      <use xlink:href="#DejaVuSans-61" x="275.732422"/>
      <use xlink:href="#DejaVuSans-63" x="337.011719"/>
      <use xlink:href="#DejaVuSans-79" x="391.992188"/>
      <use xlink:href="#DejaVuSans-20" x="451.171875"/>
      <use xlink:href="#DejaVuSans-5b" x="482.958984"/>
      <use xlink:href="#DejaVuSans-25" x="521.972656"/>
      <use xlink:href="#DejaVuSans-5d" x="616.992188"/>
     </g>
    </g>
   </g>
   <g id="line2d_31">
    <path d="M 107.961648 491.18666 
L 112.773479 494.608259 
L 117.585311 490.145312 
L 122.397142 487.665902 
L 127.208974 483.450911 
L 132.020805 479.830974 
L 136.832637 477.64908 
L 141.644469 474.723375 
L 146.4563 471.896848 
L 151.268132 470.607563 
L 156.079963 468.078553 
L 160.891795 466.938027 
L 165.703626 464.607393 
L 170.515458 463.863563 
L 175.327289 458.408867 
L 180.139121 458.508026 
L 184.950953 456.871625 
L 189.762784 454.73933 
L 194.574616 456.226973 
L 199.386447 455.036866 
L 204.198279 453.450045 
L 209.01011 453.697982 
L 213.821942 452.061562 
L 218.633773 452.805393 
L 223.445605 451.664866 
L 228.257436 449.532572 
L 233.069268 449.036678 
L 237.8811 450.177205 
L 242.692931 448.937499 
L 247.504763 448.639982 
L 252.316594 448.441625 
L 257.128426 444.821688 
L 261.940257 444.821688 
L 266.752089 443.334045 
L 271.56392 443.929098 
L 276.375752 443.086108 
L 281.187584 442.738973 
L 285.999415 443.78034 
L 290.811247 441.995161 
L 295.623078 442.788572 
L 300.43491 440.309161 
L 305.246741 439.56533 
L 310.058573 439.614929 
L 314.870404 437.284277 
L 319.682236 439.962045 
L 324.494068 437.730571 
L 329.305899 438.176866 
L 334.117731 440.061224 
L 338.929562 438.325625 
L 343.741394 438.970277 
L 348.553225 439.56533 
L 353.365057 438.226446 
L 358.176888 437.928929 
L 362.98872 438.920697 
L 367.800551 438.821518 
L 372.612383 439.317393 
L 377.424215 438.623161 
L 382.236046 437.87933 
L 387.047878 439.069455 
L 391.859709 438.127286 
L 396.671541 438.077687 
L 401.483372 436.639625 
L 406.295204 436.689223 
L 411.107035 436.09417 
L 415.918867 437.532214 
L 420.730699 437.135518 
L 425.54253 438.127286 
L 430.354362 436.788402 
L 435.166193 436.441286 
L 439.978025 437.185098 
L 444.789856 435.151982 
L 449.601688 436.242929 
L 454.413519 436.590045 
L 459.225351 436.540446 
L 464.037182 437.036339 
L 468.849014 436.837982 
L 473.660846 435.499098 
L 478.472677 434.358571 
L 483.284509 436.490866 
L 488.09634 434.755286 
L 492.908172 435.796634 
L 497.720003 438.226446 
L 502.531835 437.433035 
L 507.343666 439.168634 
L 512.155498 438.424803 
L 516.96733 437.82975 
L 521.779161 439.069455 
L 526.590993 438.672741 
L 531.402824 439.912446 
L 536.214656 440.011625 
L 541.026487 440.160402 
L 545.838319 440.507518 
L 550.65015 441.548866 
L 555.461982 440.160402 
L 560.273814 440.408339 
L 565.085645 438.474402 
L 569.897477 439.51575 
L 574.709308 438.474402 
L 579.52114 439.317393 
L 584.332971 438.672741 
L 589.144803 439.51575 
L 593.956634 440.507518 
L 598.768466 440.457919 
L 603.580297 439.862866 
L 608.392129 441.449687 
L 613.203961 440.259562 
L 618.015792 439.416571 
L 622.827624 442.540634 
L 627.639455 441.350509 
L 632.451287 441.152151 
L 637.263118 440.557098 
L 642.07495 441.548866 
L 646.886781 442.342277 
L 651.698613 441.697625 
L 656.510445 442.193518 
L 661.322276 442.441456 
L 666.134108 442.639813 
L 670.945939 443.185267 
L 675.757771 444.276214 
L 680.569602 443.929098 
" clip-path="url(#pfa13ecc5fb)" style="fill: none; stroke: #1f77b4; stroke-width: 1.5; stroke-linecap: square"/>
   </g>
   <g id="line2d_32">
    <path d="M 107.961648 474.525036 
L 112.773479 477.847438 
L 117.585311 478.392911 
L 122.397142 479.533438 
L 127.208974 478.343312 
L 132.020805 479.483858 
L 136.832637 478.690428 
L 141.644469 478.392911 
L 146.4563 479.136723 
L 151.268132 479.533438 
L 156.079963 479.979732 
L 160.891795 479.384679 
L 165.703626 481.368196 
L 170.515458 480.078911 
L 175.327289 480.128491 
L 180.139121 480.128491 
L 184.950953 478.640848 
L 189.762784 478.640848 
L 194.574616 478.343312 
L 199.386447 478.144974 
L 204.198279 479.235901 
L 209.01011 479.186322 
L 213.821942 477.054027 
L 218.633773 477.946616 
L 223.445605 478.839206 
L 228.257436 478.888785 
L 233.069268 477.897017 
L 237.8811 478.591268 
L 242.692931 478.839206 
L 247.504763 478.789607 
L 252.316594 479.632616 
L 257.128426 478.789607 
L 261.940257 480.029312 
L 266.752089 478.987964 
L 271.56392 477.450723 
L 276.375752 478.740027 
L 281.187584 478.144974 
L 285.999415 478.392911 
L 290.811247 478.740027 
L 295.623078 478.839206 
L 300.43491 477.64908 
L 305.246741 481.070679 
L 310.058573 478.591268 
L 314.870404 474.673795 
L 319.682236 475.020911 
L 324.494068 474.475437 
L 329.305899 474.2275 
L 334.117731 472.194384 
L 338.929562 470.706741 
L 343.741394 470.657143 
L 348.553225 468.971143 
L 353.365057 470.458785 
L 358.176888 468.921563 
L 362.98872 465.847099 
L 367.800551 464.954509 
L 372.612383 464.954509 
L 377.424215 462.772616 
L 382.236046 462.871795 
L 387.047878 461.731268 
L 391.859709 458.755983 
L 396.671541 459.351036 
L 401.483372 457.665036 
L 406.295204 458.309688 
L 411.107035 458.557625 
L 415.918867 458.607205 
L 420.730699 458.359268 
L 425.54253 456.326152 
L 430.354362 456.127794 
L 435.166193 454.689751 
L 439.978025 453.846741 
L 444.789856 451.119393 
L 449.601688 450.52434 
L 454.413519 454.78891 
L 459.225351 452.25992 
L 464.037182 449.433393 
L 468.849014 449.383794 
L 473.660846 450.325982 
L 478.472677 448.243268 
L 483.284509 447.499456 
L 488.09634 447.648214 
L 492.908172 448.292866 
L 497.720003 450.821857 
L 502.531835 447.846572 
L 507.343666 448.292866 
L 512.155498 448.044929 
L 516.96733 447.20192 
L 521.779161 447.598634 
L 526.590993 448.094509 
L 531.402824 448.88792 
L 536.214656 448.441625 
L 541.026487 448.342446 
L 545.838319 448.590384 
L 550.65015 447.20192 
L 555.461982 448.739161 
L 560.273814 448.739161 
L 565.085645 447.251518 
L 569.897477 448.88792 
L 574.709308 447.747393 
L 579.52114 449.978866 
L 584.332971 449.334214 
L 589.144803 449.185456 
L 593.956634 449.582152 
L 598.768466 449.68133 
L 603.580297 448.88792 
L 608.392129 448.491224 
L 613.203961 448.243268 
L 618.015792 449.482973 
L 622.827624 450.078045 
L 627.639455 448.739161 
L 632.451287 448.88792 
L 637.263118 448.491224 
L 642.07495 448.491224 
L 646.886781 449.433393 
L 651.698613 449.185456 
L 656.510445 449.780509 
L 661.322276 448.788741 
L 666.134108 450.127625 
L 670.945939 448.342446 
L 675.757771 450.474741 
L 680.569602 450.52434 
" clip-path="url(#pfa13ecc5fb)" style="fill: none; stroke: #ff7f0e; stroke-width: 1.5; stroke-linecap: square"/>
   </g>
   <g id="line2d_33">
    <path d="M 107.961648 501.451419 
L 112.773479 489.897375 
L 117.585311 488.112196 
L 122.397142 489.004786 
L 127.208974 486.872491 
L 132.020805 490.740366 
L 136.832637 492.426366 
L 141.644469 489.302322 
L 146.4563 485.979902 
L 151.268132 488.062616 
L 156.079963 490.690786 
L 160.891795 487.02125 
L 165.703626 487.616322 
L 170.515458 486.475795 
L 175.327289 488.70725 
L 180.139121 489.401501 
L 184.950953 489.302322 
L 189.762784 490.938723 
L 194.574616 487.467544 
L 199.386447 488.756848 
L 204.198279 487.616322 
L 209.01011 487.665902 
L 213.821942 485.880723 
L 218.633773 488.409732 
L 223.445605 486.178259 
L 228.257436 486.624554 
L 233.069268 489.054366 
L 237.8811 488.409732 
L 242.692931 488.65767 
L 247.504763 487.616322 
L 252.316594 486.475795 
L 257.128426 487.170027 
L 261.940257 486.178259 
L 266.752089 486.376616 
L 271.56392 486.872491 
L 276.375752 484.541839 
L 281.187584 486.07908 
L 285.999415 489.103964 
L 290.811247 485.831143 
L 295.623078 484.988134 
L 300.43491 484.145143 
L 305.246741 485.037732 
L 310.058573 483.59967 
L 314.870404 484.3435 
L 319.682236 479.880554 
L 324.494068 483.153375 
L 329.305899 480.574786 
L 334.117731 480.773143 
L 338.929562 481.467375 
L 343.741394 481.616133 
L 348.553225 483.748428 
L 353.365057 485.831143 
L 358.176888 482.211206 
L 362.98872 481.417795 
L 367.800551 483.054196 
L 372.612383 483.153375 
L 377.424215 481.566554 
L 382.236046 485.136911 
L 387.047878 482.756679 
L 391.859709 485.28567 
L 396.671541 482.6575 
L 401.483372 483.500491 
L 406.295204 484.789795 
L 411.107035 484.938554 
L 415.918867 483.897206 
L 420.730699 484.938554 
L 425.54253 483.748428 
L 430.354362 484.194723 
L 435.166193 482.558322 
L 439.978025 484.045964 
L 444.789856 483.748428 
L 449.601688 482.905438 
L 454.413519 480.9715 
L 459.225351 480.9715 
L 464.037182 481.02108 
L 468.849014 483.500491 
L 473.660846 481.368196 
L 478.472677 482.955018 
L 483.284509 481.764911 
L 488.09634 482.310384 
L 492.908172 478.095375 
L 497.720003 467.235563 
L 502.531835 458.012152 
L 507.343666 449.879688 
L 512.155498 440.358741 
L 516.96733 434.308991 
L 521.779161 426.82116 
L 526.590993 420.275518 
L 531.402824 413.481919 
L 536.214656 407.531348 
L 541.026487 404.357705 
L 545.838319 400.638589 
L 550.65015 395.778928 
L 555.461982 393.002 
L 560.273814 389.828357 
L 565.085645 386.902671 
L 569.897477 385.266251 
L 574.709308 381.15042 
L 579.52114 379.910714 
L 584.332971 376.836231 
L 589.144803 374.555178 
L 593.956634 370.786501 
L 598.768466 369.943473 
L 603.580297 371.232777 
L 608.392129 365.282206 
L 613.203961 365.480526 
L 618.015792 365.13341 
L 622.827624 364.786294 
L 627.639455 361.76141 
L 632.451287 361.215974 
L 637.263118 360.571303 
L 642.07495 360.670501 
L 646.886781 355.76124 
L 651.698613 356.901786 
L 656.510445 353.430626 
L 661.322276 353.579385 
L 666.134108 353.083472 
L 670.945939 353.18267 
L 675.757771 351.54625 
L 680.569602 350.207385 
" clip-path="url(#pfa13ecc5fb)" style="fill: none; stroke: #2ca02c; stroke-width: 1.5; stroke-linecap: square"/>
   </g>
   <g id="line2d_34">
    <path d="M 107.961648 491.385018 
L 112.773479 493.517312 
L 117.585311 493.368554 
L 122.397142 493.170196 
L 127.208974 494.707438 
L 132.020805 494.905776 
L 136.832637 494.856197 
L 141.644469 493.318955 
L 146.4563 495.054554 
L 151.268132 493.71567 
L 156.079963 494.310723 
L 160.891795 494.55866 
L 165.703626 492.82308 
L 170.515458 493.566892 
L 175.327289 493.071018 
L 180.139121 492.624723 
L 184.950953 490.34367 
L 189.762784 492.475964 
L 194.574616 492.07925 
L 199.386447 493.170196 
L 204.198279 492.723902 
L 209.01011 492.475964 
L 213.821942 492.971839 
L 218.633773 492.87266 
L 223.445605 493.864428 
L 228.257436 492.525544 
L 233.069268 491.831312 
L 237.8811 493.566892 
L 242.692931 493.021438 
L 247.504763 492.07925 
L 252.316594 493.71567 
L 257.128426 493.071018 
L 261.940257 492.128849 
L 266.752089 494.856197 
L 271.56392 493.76525 
L 276.375752 494.360322 
L 281.187584 494.211544 
L 285.999415 494.261143 
L 290.811247 494.856197 
L 295.623078 495.004955 
L 300.43491 493.616491 
L 305.246741 495.649607 
L 310.058573 495.550428 
L 314.870404 495.004955 
L 319.682236 496.393438 
L 324.494068 496.492598 
L 329.305899 497.08767 
L 334.117731 496.641375 
L 338.929562 496.343839 
L 343.741394 495.500849 
L 348.553225 496.24466 
L 353.365057 494.211544 
L 358.176888 493.914027 
L 362.98872 495.897544 
L 367.800551 495.054554 
L 372.612383 495.302491 
L 377.424215 493.170196 
L 382.236046 495.203313 
L 387.047878 493.566892 
L 391.859709 493.666071 
L 396.671541 493.814849 
L 401.483372 494.509081 
L 406.295204 495.104134 
L 411.107035 494.608259 
L 415.918867 495.649607 
L 420.730699 495.153733 
L 425.54253 494.905776 
L 430.354362 496.046303 
L 435.166193 495.748786 
L 439.978025 496.046303 
L 444.789856 493.864428 
L 449.601688 495.649607 
L 454.413519 495.104134 
L 459.225351 494.062786 
L 464.037182 495.550428 
L 468.849014 494.806598 
L 473.660846 494.360322 
L 478.472677 493.963607 
L 483.284509 496.492598 
L 488.09634 495.054554 
L 492.908172 492.624723 
L 497.720003 490.641206 
L 502.531835 491.880911 
L 507.343666 493.467733 
L 512.155498 491.18666 
L 516.96733 491.781733 
L 521.779161 492.971839 
L 526.590993 491.583375 
L 531.402824 491.682554 
L 536.214656 492.228027 
L 541.026487 493.864428 
L 545.838319 492.07925 
L 550.65015 492.723902 
L 555.461982 492.327187 
L 560.273814 491.831312 
L 565.085645 492.07925 
L 569.897477 494.013187 
L 574.709308 493.517312 
L 579.52114 492.426366 
L 584.332971 492.723902 
L 589.144803 491.18666 
L 593.956634 491.880911 
L 598.768466 493.269375 
L 603.580297 493.021438 
L 608.392129 493.418134 
L 613.203961 492.327187 
L 618.015792 492.674322 
L 622.827624 491.732134 
L 627.639455 493.566892 
L 632.451287 492.02967 
L 637.263118 492.624723 
L 642.07495 492.624723 
L 646.886781 492.82308 
L 651.698613 492.475964 
L 656.510445 490.740366 
L 661.322276 494.013187 
L 666.134108 491.682554 
L 670.945939 492.376786 
L 675.757771 490.938723 
L 680.569602 493.814849 
" clip-path="url(#pfa13ecc5fb)" style="fill: none; stroke: #d62728; stroke-width: 1.5; stroke-linecap: square"/>
   </g>
   <g id="line2d_35">
    <path d="M 107.961648 488.905607 
L 112.773479 473.781205 
L 117.585311 473.929964 
L 122.397142 473.483669 
L 127.208974 472.243964 
L 132.020805 473.682027 
L 136.832637 472.987795 
L 141.644469 473.979563 
L 146.4563 472.739857 
L 151.268132 473.533268 
L 156.079963 474.27708 
L 160.891795 473.384491 
L 165.703626 473.929964 
L 170.515458 473.781205 
L 175.327289 473.929964 
L 180.139121 473.632447 
L 184.950953 472.59108 
L 189.762784 472.392741 
L 194.574616 475.169669 
L 199.386447 474.326679 
L 204.198279 475.219268 
L 209.01011 472.690259 
L 213.821942 474.029143 
L 218.633773 474.772974 
L 223.445605 474.624196 
L 228.257436 474.128321 
L 233.069268 472.243964 
L 237.8811 473.979563 
L 242.692931 472.144785 
L 247.504763 471.549732 
L 252.316594 472.739857 
L 257.128426 472.5415 
L 261.940257 472.392741 
L 266.752089 473.830785 
L 271.56392 473.334911 
L 276.375752 472.690259 
L 281.187584 474.2275 
L 285.999415 473.830785 
L 290.811247 473.136553 
L 295.623078 472.987795 
L 300.43491 473.880384 
L 305.246741 471.301795 
L 310.058573 471.400973 
L 314.870404 472.293563 
L 319.682236 471.252196 
L 324.494068 470.260447 
L 329.305899 471.748089 
L 334.117731 471.351375 
L 338.929562 472.095205 
L 343.741394 470.260447 
L 348.553225 472.095205 
L 353.365057 471.797669 
L 358.176888 470.756321 
L 362.98872 471.847268 
L 367.800551 471.351375 
L 372.612383 471.500152 
L 377.424215 471.004259 
L 382.236046 471.004259 
L 387.047878 471.996027 
L 391.859709 469.863732 
L 396.671541 471.301795 
L 401.483372 470.954679 
L 406.295204 471.301795 
L 411.107035 472.442321 
L 415.918867 471.896848 
L 420.730699 470.756321 
L 425.54253 471.103437 
L 430.354362 470.210848 
L 435.166193 470.161268 
L 439.978025 471.847268 
L 444.789856 472.888616 
L 449.601688 472.491901 
L 454.413519 472.59108 
L 459.225351 470.954679 
L 464.037182 472.144785 
L 468.849014 471.252196 
L 473.660846 470.80592 
L 478.472677 471.103437 
L 483.284509 470.954679 
L 488.09634 472.293563 
L 492.908172 470.458785 
L 497.720003 470.260447 
L 502.531835 470.954679 
L 507.343666 471.549732 
L 512.155498 472.5415 
L 516.96733 472.59108 
L 521.779161 471.946447 
L 526.590993 472.5415 
L 531.402824 472.144785 
L 536.214656 472.59108 
L 541.026487 470.954679 
L 545.838319 472.343143 
L 550.65015 472.343143 
L 555.461982 471.698491 
L 560.273814 472.243964 
L 565.085645 471.549732 
L 569.897477 471.549732 
L 574.709308 470.012491 
L 579.52114 472.5415 
L 584.332971 472.690259 
L 589.144803 470.756321 
L 593.956634 471.450553 
L 598.768466 472.59108 
L 603.580297 473.285331 
L 608.392129 470.8555 
L 613.203961 472.442321 
L 618.015792 472.243964 
L 622.827624 471.748089 
L 627.639455 471.450553 
L 632.451287 471.797669 
L 637.263118 471.351375 
L 642.07495 471.996027 
L 646.886781 472.442321 
L 651.698613 472.690259 
L 656.510445 470.607563 
L 661.322276 473.037375 
L 666.134108 471.847268 
L 670.945939 471.549732 
L 675.757771 471.648911 
L 680.569602 470.756321 
" clip-path="url(#pfa13ecc5fb)" style="fill: none; stroke: #9467bd; stroke-width: 1.5; stroke-linecap: square"/>
   </g>
   <g id="patch_3">
    <path d="M 79.33125 590.660625 
L 79.33125 243.543125 
" style="fill: none; stroke: #000000; stroke-width: 0.8; stroke-linejoin: miter; stroke-linecap: square"/>
   </g>
   <g id="patch_4">
    <path d="M 709.2 590.660625 
L 709.2 243.543125 
" style="fill: none; stroke: #000000; stroke-width: 0.8; stroke-linejoin: miter; stroke-linecap: square"/>
   </g>
   <g id="patch_5">
    <path d="M 79.33125 590.660625 
L 709.2 590.660625 
" style="fill: none; stroke: #000000; stroke-width: 0.8; stroke-linejoin: miter; stroke-linecap: square"/>
   </g>
   <g id="patch_6">
    <path d="M 79.33125 243.543125 
L 709.2 243.543125 
" style="fill: none; stroke: #000000; stroke-width: 0.8; stroke-linejoin: miter; stroke-linecap: square"/>
   </g>
   <g id="text_18">
    <!-- Train -->
    <g transform="translate(370.278125 237.543125)scale(0.2 -0.2)">
     <defs>
      <path id="DejaVuSans-54" d="M -19 4666 
L 3928 4666 
L 3928 4134 
L 2272 4134 
L 2272 0 
L 1638 0 
L 1638 4134 
L -19 4134 
L -19 4666 
z
" transform="scale(0.015625)"/>
      <path id="DejaVuSans-69" d="M 603 3500 
L 1178 3500 
L 1178 0 
L 603 0 
L 603 3500 
z
M 603 4863 
L 1178 4863 
L 1178 4134 
L 603 4134 
L 603 4863 
z
" transform="scale(0.015625)"/>
      <path id="DejaVuSans-6e" d="M 3513 2113 
L 3513 0 
L 2938 0 
L 2938 2094 
Q 2938 2591 2744 2837 
Q 2550 3084 2163 3084 
Q 1697 3084 1428 2787 
Q 1159 2491 1159 1978 
L 1159 0 
L 581 0 
L 581 3500 
L 1159 3500 
L 1159 2956 
Q 1366 3272 1645 3428 
Q 1925 3584 2291 3584 
Q 2894 3584 3203 3211 
Q 3513 2838 3513 2113 
z
" transform="scale(0.015625)"/>
     </defs>
     <use xlink:href="#DejaVuSans-54"/>
     <use xlink:href="#DejaVuSans-72" x="46.333984"/>
     <use xlink:href="#DejaVuSans-61" x="87.447266"/>
     <use xlink:href="#DejaVuSans-69" x="148.726562"/>
     <use xlink:href="#DejaVuSans-6e" x="176.509766"/>
    </g>
   </g>
   <g id="legend_1">
    <g id="patch_7">
     <path d="M 639.610937 324.93375 
L 702.2 324.93375 
Q 704.2 324.93375 704.2 322.93375 
L 704.2 250.543125 
Q 704.2 248.543125 702.2 248.543125 
L 639.610937 248.543125 
Q 637.610937 248.543125 637.610937 250.543125 
L 637.610937 322.93375 
Q 637.610937 324.93375 639.610937 324.93375 
z
" style="fill: #ffffff; opacity: 0.8; stroke: #cccccc; stroke-linejoin: miter"/>
    </g>
    <g id="line2d_36">
     <path d="M 641.610937 256.641562 
L 651.610937 256.641562 
L 661.610937 256.641562 
" style="fill: none; stroke: #1f77b4; stroke-width: 1.5; stroke-linecap: square"/>
    </g>
    <g id="text_19">
     <!-- task 0 -->
     <g transform="translate(669.610937 260.141562)scale(0.1 -0.1)">
      <defs>
       <path id="DejaVuSans-6b" d="M 581 4863 
L 1159 4863 
L 1159 1991 
L 2875 3500 
L 3609 3500 
L 1753 1863 
L 3688 0 
L 2938 0 
L 1159 1709 
L 1159 0 
L 581 0 
L 581 4863 
z
" transform="scale(0.015625)"/>
      </defs>
      <use xlink:href="#DejaVuSans-74"/>
      <use xlink:href="#DejaVuSans-61" x="39.208984"/>
      <use xlink:href="#DejaVuSans-73" x="100.488281"/>
      <use xlink:href="#DejaVuSans-6b" x="152.587891"/>
      <use xlink:href="#DejaVuSans-20" x="210.498047"/>
      <use xlink:href="#DejaVuSans-30" x="242.285156"/>
     </g>
    </g>
    <g id="line2d_37">
     <path d="M 641.610937 271.319687 
L 651.610937 271.319687 
L 661.610937 271.319687 
" style="fill: none; stroke: #ff7f0e; stroke-width: 1.5; stroke-linecap: square"/>
    </g>
    <g id="text_20">
     <!-- task 1 -->
     <g transform="translate(669.610937 274.819687)scale(0.1 -0.1)">
      <use xlink:href="#DejaVuSans-74"/>
      <use xlink:href="#DejaVuSans-61" x="39.208984"/>
      <use xlink:href="#DejaVuSans-73" x="100.488281"/>
      <use xlink:href="#DejaVuSans-6b" x="152.587891"/>
      <use xlink:href="#DejaVuSans-20" x="210.498047"/>
      <use xlink:href="#DejaVuSans-31" x="242.285156"/>
     </g>
    </g>
    <g id="line2d_38">
     <path d="M 641.610937 285.997813 
L 651.610937 285.997813 
L 661.610937 285.997813 
" style="fill: none; stroke: #2ca02c; stroke-width: 1.5; stroke-linecap: square"/>
    </g>
    <g id="text_21">
     <!-- task 2 -->
     <g transform="translate(669.610937 289.497813)scale(0.1 -0.1)">
      <use xlink:href="#DejaVuSans-74"/>
      <use xlink:href="#DejaVuSans-61" x="39.208984"/>
      <use xlink:href="#DejaVuSans-73" x="100.488281"/>
      <use xlink:href="#DejaVuSans-6b" x="152.587891"/>
      <use xlink:href="#DejaVuSans-20" x="210.498047"/>
      <use xlink:href="#DejaVuSans-32" x="242.285156"/>
     </g>
    </g>
    <g id="line2d_39">
     <path d="M 641.610937 300.675937 
L 651.610937 300.675937 
L 661.610937 300.675937 
" style="fill: none; stroke: #d62728; stroke-width: 1.5; stroke-linecap: square"/>
    </g>
    <g id="text_22">
     <!-- task 3 -->
     <g transform="translate(669.610937 304.175937)scale(0.1 -0.1)">
      <use xlink:href="#DejaVuSans-74"/>
      <use xlink:href="#DejaVuSans-61" x="39.208984"/>
      <use xlink:href="#DejaVuSans-73" x="100.488281"/>
      <use xlink:href="#DejaVuSans-6b" x="152.587891"/>
      <use xlink:href="#DejaVuSans-20" x="210.498047"/>
      <use xlink:href="#DejaVuSans-33" x="242.285156"/>
     </g>
    </g>
    <g id="line2d_40">
     <path d="M 641.610937 315.354062 
L 651.610937 315.354062 
L 661.610937 315.354062 
" style="fill: none; stroke: #9467bd; stroke-width: 1.5; stroke-linecap: square"/>
    </g>
    <g id="text_23">
     <!-- task 4 -->
     <g transform="translate(669.610937 318.854062)scale(0.1 -0.1)">
      <use xlink:href="#DejaVuSans-74"/>
      <use xlink:href="#DejaVuSans-61" x="39.208984"/>
      <use xlink:href="#DejaVuSans-73" x="100.488281"/>
      <use xlink:href="#DejaVuSans-6b" x="152.587891"/>
      <use xlink:href="#DejaVuSans-20" x="210.498047"/>
      <use xlink:href="#DejaVuSans-34" x="242.285156"/>
     </g>
    </g>
   </g>
  </g>
  <g id="axes_2">
   <g id="patch_8">
    <path d="M 79.33125 1019.4875 
L 709.2 1019.4875 
L 709.2 672.37 
L 79.33125 672.37 
z
" style="fill: #ffffff"/>
   </g>
   <g id="matplotlib.axis_3">
    <g id="xtick_8">
     <g id="line2d_41">
      <path d="M 107.961648 1019.4875 
L 107.961648 672.37 
" clip-path="url(#p8c5a733b2f)" style="fill: none; stroke: #b0b0b0; stroke-width: 0.8; stroke-linecap: square"/>
     </g>
     <g id="line2d_42">
      <g>
       <use xlink:href="#m75fb44bb90" x="107.961648" y="1019.4875" style="stroke: #000000; stroke-width: 0.8"/>
      </g>
     </g>
     <g id="text_24">
      <!-- 0 -->
      <g transform="translate(101.599148 1041.684375)scale(0.2 -0.2)">
       <use xlink:href="#DejaVuSans-30"/>
      </g>
     </g>
    </g>
    <g id="xtick_9">
     <g id="line2d_43">
      <path d="M 204.198279 1019.4875 
L 204.198279 672.37 
" clip-path="url(#p8c5a733b2f)" style="fill: none; stroke: #b0b0b0; stroke-width: 0.8; stroke-linecap: square"/>
     </g>
     <g id="line2d_44">
      <g>
       <use xlink:href="#m75fb44bb90" x="204.198279" y="1019.4875" style="stroke: #000000; stroke-width: 0.8"/>
      </g>
     </g>
     <g id="text_25">
      <!-- 20 -->
      <g transform="translate(191.473279 1041.684375)scale(0.2 -0.2)">
       <use xlink:href="#DejaVuSans-32"/>
       <use xlink:href="#DejaVuSans-30" x="63.623047"/>
      </g>
     </g>
    </g>
    <g id="xtick_10">
     <g id="line2d_45">
      <path d="M 300.43491 1019.4875 
L 300.43491 672.37 
" clip-path="url(#p8c5a733b2f)" style="fill: none; stroke: #b0b0b0; stroke-width: 0.8; stroke-linecap: square"/>
     </g>
     <g id="line2d_46">
      <g>
       <use xlink:href="#m75fb44bb90" x="300.43491" y="1019.4875" style="stroke: #000000; stroke-width: 0.8"/>
      </g>
     </g>
     <g id="text_26">
      <!-- 40 -->
      <g transform="translate(287.70991 1041.684375)scale(0.2 -0.2)">
       <use xlink:href="#DejaVuSans-34"/>
       <use xlink:href="#DejaVuSans-30" x="63.623047"/>
      </g>
     </g>
    </g>
    <g id="xtick_11">
     <g id="line2d_47">
      <path d="M 396.671541 1019.4875 
L 396.671541 672.37 
" clip-path="url(#p8c5a733b2f)" style="fill: none; stroke: #b0b0b0; stroke-width: 0.8; stroke-linecap: square"/>
     </g>
     <g id="line2d_48">
      <g>
       <use xlink:href="#m75fb44bb90" x="396.671541" y="1019.4875" style="stroke: #000000; stroke-width: 0.8"/>
      </g>
     </g>
     <g id="text_27">
      <!-- 60 -->
      <g transform="translate(383.946541 1041.684375)scale(0.2 -0.2)">
       <use xlink:href="#DejaVuSans-36"/>
       <use xlink:href="#DejaVuSans-30" x="63.623047"/>
      </g>
     </g>
    </g>
    <g id="xtick_12">
     <g id="line2d_49">
      <path d="M 492.908172 1019.4875 
L 492.908172 672.37 
" clip-path="url(#p8c5a733b2f)" style="fill: none; stroke: #b0b0b0; stroke-width: 0.8; stroke-linecap: square"/>
     </g>
     <g id="line2d_50">
      <g>
       <use xlink:href="#m75fb44bb90" x="492.908172" y="1019.4875" style="stroke: #000000; stroke-width: 0.8"/>
      </g>
     </g>
     <g id="text_28">
      <!-- 80 -->
      <g transform="translate(480.183172 1041.684375)scale(0.2 -0.2)">
       <use xlink:href="#DejaVuSans-38"/>
       <use xlink:href="#DejaVuSans-30" x="63.623047"/>
      </g>
     </g>
    </g>
    <g id="xtick_13">
     <g id="line2d_51">
      <path d="M 589.144803 1019.4875 
L 589.144803 672.37 
" clip-path="url(#p8c5a733b2f)" style="fill: none; stroke: #b0b0b0; stroke-width: 0.8; stroke-linecap: square"/>
     </g>
     <g id="line2d_52">
      <g>
       <use xlink:href="#m75fb44bb90" x="589.144803" y="1019.4875" style="stroke: #000000; stroke-width: 0.8"/>
      </g>
     </g>
     <g id="text_29">
      <!-- 100 -->
      <g transform="translate(570.057303 1041.684375)scale(0.2 -0.2)">
       <use xlink:href="#DejaVuSans-31"/>
       <use xlink:href="#DejaVuSans-30" x="63.623047"/>
       <use xlink:href="#DejaVuSans-30" x="127.246094"/>
      </g>
     </g>
    </g>
    <g id="xtick_14">
     <g id="line2d_53">
      <path d="M 685.381434 1019.4875 
L 685.381434 672.37 
" clip-path="url(#p8c5a733b2f)" style="fill: none; stroke: #b0b0b0; stroke-width: 0.8; stroke-linecap: square"/>
     </g>
     <g id="line2d_54">
      <g>
       <use xlink:href="#m75fb44bb90" x="685.381434" y="1019.4875" style="stroke: #000000; stroke-width: 0.8"/>
      </g>
     </g>
     <g id="text_30">
      <!-- 120 -->
      <g transform="translate(666.293934 1041.684375)scale(0.2 -0.2)">
       <use xlink:href="#DejaVuSans-31"/>
       <use xlink:href="#DejaVuSans-32" x="63.623047"/>
       <use xlink:href="#DejaVuSans-30" x="127.246094"/>
      </g>
     </g>
    </g>
    <g id="text_31">
     <!-- step -->
     <g transform="translate(372.634375 1065.040625)scale(0.2 -0.2)">
      <use xlink:href="#DejaVuSans-73"/>
      <use xlink:href="#DejaVuSans-74" x="52.099609"/>
      <use xlink:href="#DejaVuSans-65" x="91.308594"/>
      <use xlink:href="#DejaVuSans-70" x="152.832031"/>
     </g>
    </g>
   </g>
   <g id="matplotlib.axis_4">
    <g id="ytick_9">
     <g id="line2d_55">
      <path d="M 79.33125 1019.4875 
L 709.2 1019.4875 
" clip-path="url(#p8c5a733b2f)" style="fill: none; stroke: #b0b0b0; stroke-width: 0.8; stroke-linecap: square"/>
     </g>
     <g id="line2d_56">
      <g>
       <use xlink:href="#m422fadff25" x="79.33125" y="1019.4875" style="stroke: #000000; stroke-width: 0.8"/>
      </g>
     </g>
     <g id="text_32">
      <!-- 30 -->
      <g transform="translate(46.88125 1027.085938)scale(0.2 -0.2)">
       <use xlink:href="#DejaVuSans-33"/>
       <use xlink:href="#DejaVuSans-30" x="63.623047"/>
      </g>
     </g>
    </g>
    <g id="ytick_10">
     <g id="line2d_57">
      <path d="M 79.33125 969.899286 
L 709.2 969.899286 
" clip-path="url(#p8c5a733b2f)" style="fill: none; stroke: #b0b0b0; stroke-width: 0.8; stroke-linecap: square"/>
     </g>
     <g id="line2d_58">
      <g>
       <use xlink:href="#m422fadff25" x="79.33125" y="969.899286" style="stroke: #000000; stroke-width: 0.8"/>
      </g>
     </g>
     <g id="text_33">
      <!-- 40 -->
      <g transform="translate(46.88125 977.497723)scale(0.2 -0.2)">
       <use xlink:href="#DejaVuSans-34"/>
       <use xlink:href="#DejaVuSans-30" x="63.623047"/>
      </g>
     </g>
    </g>
    <g id="ytick_11">
     <g id="line2d_59">
      <path d="M 79.33125 920.311071 
L 709.2 920.311071 
" clip-path="url(#p8c5a733b2f)" style="fill: none; stroke: #b0b0b0; stroke-width: 0.8; stroke-linecap: square"/>
     </g>
     <g id="line2d_60">
      <g>
       <use xlink:href="#m422fadff25" x="79.33125" y="920.311071" style="stroke: #000000; stroke-width: 0.8"/>
      </g>
     </g>
     <g id="text_34">
      <!-- 50 -->
      <g transform="translate(46.88125 927.909509)scale(0.2 -0.2)">
       <use xlink:href="#DejaVuSans-35"/>
       <use xlink:href="#DejaVuSans-30" x="63.623047"/>
      </g>
     </g>
    </g>
    <g id="ytick_12">
     <g id="line2d_61">
      <path d="M 79.33125 870.722857 
L 709.2 870.722857 
" clip-path="url(#p8c5a733b2f)" style="fill: none; stroke: #b0b0b0; stroke-width: 0.8; stroke-linecap: square"/>
     </g>
     <g id="line2d_62">
      <g>
       <use xlink:href="#m422fadff25" x="79.33125" y="870.722857" style="stroke: #000000; stroke-width: 0.8"/>
      </g>
     </g>
     <g id="text_35">
      <!-- 60 -->
      <g transform="translate(46.88125 878.321295)scale(0.2 -0.2)">
       <use xlink:href="#DejaVuSans-36"/>
       <use xlink:href="#DejaVuSans-30" x="63.623047"/>
      </g>
     </g>
    </g>
    <g id="ytick_13">
     <g id="line2d_63">
      <path d="M 79.33125 821.134643 
L 709.2 821.134643 
" clip-path="url(#p8c5a733b2f)" style="fill: none; stroke: #b0b0b0; stroke-width: 0.8; stroke-linecap: square"/>
     </g>
     <g id="line2d_64">
      <g>
       <use xlink:href="#m422fadff25" x="79.33125" y="821.134643" style="stroke: #000000; stroke-width: 0.8"/>
      </g>
     </g>
     <g id="text_36">
      <!-- 70 -->
      <g transform="translate(46.88125 828.73308)scale(0.2 -0.2)">
       <use xlink:href="#DejaVuSans-37"/>
       <use xlink:href="#DejaVuSans-30" x="63.623047"/>
      </g>
     </g>
    </g>
    <g id="ytick_14">
     <g id="line2d_65">
      <path d="M 79.33125 771.546429 
L 709.2 771.546429 
" clip-path="url(#p8c5a733b2f)" style="fill: none; stroke: #b0b0b0; stroke-width: 0.8; stroke-linecap: square"/>
     </g>
     <g id="line2d_66">
      <g>
       <use xlink:href="#m422fadff25" x="79.33125" y="771.546429" style="stroke: #000000; stroke-width: 0.8"/>
      </g>
     </g>
     <g id="text_37">
      <!-- 80 -->
      <g transform="translate(46.88125 779.144866)scale(0.2 -0.2)">
       <use xlink:href="#DejaVuSans-38"/>
       <use xlink:href="#DejaVuSans-30" x="63.623047"/>
      </g>
     </g>
    </g>
    <g id="ytick_15">
     <g id="line2d_67">
      <path d="M 79.33125 721.958214 
L 709.2 721.958214 
" clip-path="url(#p8c5a733b2f)" style="fill: none; stroke: #b0b0b0; stroke-width: 0.8; stroke-linecap: square"/>
     </g>
     <g id="line2d_68">
      <g>
       <use xlink:href="#m422fadff25" x="79.33125" y="721.958214" style="stroke: #000000; stroke-width: 0.8"/>
      </g>
     </g>
     <g id="text_38">
      <!-- 90 -->
      <g transform="translate(46.88125 729.556652)scale(0.2 -0.2)">
       <use xlink:href="#DejaVuSans-39"/>
       <use xlink:href="#DejaVuSans-30" x="63.623047"/>
      </g>
     </g>
    </g>
    <g id="ytick_16">
     <g id="line2d_69">
      <path d="M 79.33125 672.37 
L 709.2 672.37 
" clip-path="url(#p8c5a733b2f)" style="fill: none; stroke: #b0b0b0; stroke-width: 0.8; stroke-linecap: square"/>
     </g>
     <g id="line2d_70">
      <g>
       <use xlink:href="#m422fadff25" x="79.33125" y="672.37" style="stroke: #000000; stroke-width: 0.8"/>
      </g>
     </g>
     <g id="text_39">
      <!-- 100 -->
      <g transform="translate(34.15625 679.968437)scale(0.2 -0.2)">
       <use xlink:href="#DejaVuSans-31"/>
       <use xlink:href="#DejaVuSans-30" x="63.623047"/>
       <use xlink:href="#DejaVuSans-30" x="127.246094"/>
      </g>
     </g>
    </g>
    <g id="text_40">
     <!-- accuracy [%] -->
     <g transform="translate(25.996875 911.530312)rotate(-90)scale(0.2 -0.2)">
      <use xlink:href="#DejaVuSans-61"/>
      <use xlink:href="#DejaVuSans-63" x="61.279297"/>
      <use xlink:href="#DejaVuSans-63" x="116.259766"/>
      <use xlink:href="#DejaVuSans-75" x="171.240234"/>
      <use xlink:href="#DejaVuSans-72" x="234.619141"/>
      <use xlink:href="#DejaVuSans-61" x="275.732422"/>
      <use xlink:href="#DejaVuSans-63" x="337.011719"/>
      <use xlink:href="#DejaVuSans-79" x="391.992188"/>
      <use xlink:href="#DejaVuSans-20" x="451.171875"/>
      <use xlink:href="#DejaVuSans-5b" x="482.958984"/>
      <use xlink:href="#DejaVuSans-25" x="521.972656"/>
      <use xlink:href="#DejaVuSans-5d" x="616.992188"/>
     </g>
    </g>
   </g>
   <g id="line2d_71">
    <path d="M 107.961648 920.311071 
L 112.773479 916.591955 
L 117.585311 913.61667 
L 122.397142 905.434607 
L 127.208974 902.211366 
L 132.020805 894.773134 
L 136.832637 898.244312 
L 141.644469 892.789616 
L 146.4563 891.054017 
L 151.268132 893.781384 
L 156.079963 890.80608 
L 160.891795 888.078732 
L 165.703626 887.582858 
L 170.515458 885.103447 
L 175.327289 879.152857 
L 180.139121 880.6405 
L 184.950953 878.409027 
L 189.762784 880.392563 
L 194.574616 879.648732 
L 199.386447 878.90492 
L 204.198279 881.880205 
L 209.01011 876.921384 
L 213.821942 879.152857 
L 218.633773 874.441973 
L 223.445605 879.896669 
L 228.257436 879.648732 
L 233.069268 875.681679 
L 237.8811 873.946099 
L 242.692931 873.946099 
L 247.504763 875.185804 
L 252.316594 874.937848 
L 257.128426 872.2105 
L 261.940257 871.962562 
L 266.752089 871.962562 
L 271.56392 869.979026 
L 276.375752 871.714625 
L 281.187584 868.987277 
L 285.999415 872.2105 
L 290.811247 869.979026 
L 295.623078 869.235214 
L 300.43491 866.25991 
L 305.246741 864.276393 
L 310.058573 867.251678 
L 314.870404 863.7805 
L 319.682236 867.251678 
L 324.494068 866.507866 
L 329.305899 864.772268 
L 334.117731 865.516098 
L 338.929562 864.772268 
L 343.741394 867.003741 
L 348.553225 863.036688 
L 353.365057 866.25991 
L 358.176888 859.317572 
L 362.98872 863.532562 
L 367.800551 864.772268 
L 372.612383 862.292857 
L 377.424215 864.028456 
L 382.236046 863.284625 
L 387.047878 865.764036 
L 391.859709 864.772268 
L 396.671541 864.52433 
L 401.483372 863.7805 
L 406.295204 860.061384 
L 411.107035 865.516098 
L 415.918867 866.755804 
L 420.730699 865.020205 
L 425.54253 865.268161 
L 430.354362 864.028456 
L 435.166193 863.532562 
L 439.978025 862.78875 
L 444.789856 865.268161 
L 449.601688 867.995509 
L 454.413519 866.25991 
L 459.225351 864.772268 
L 464.037182 867.251678 
L 468.849014 867.003741 
L 473.660846 868.243446 
L 478.472677 871.218732 
L 483.284509 868.491384 
L 488.09634 867.747572 
L 492.908172 866.755804 
L 497.720003 872.954331 
L 502.531835 868.987277 
L 507.343666 872.706393 
L 512.155498 873.946099 
L 516.96733 875.681679 
L 521.779161 872.458437 
L 526.590993 872.706393 
L 531.402824 873.946099 
L 536.214656 876.425509 
L 541.026487 879.152857 
L 545.838319 873.946099 
L 550.65015 874.937848 
L 555.461982 875.929616 
L 560.273814 877.417259 
L 565.085645 875.433741 
L 569.897477 872.706393 
L 574.709308 877.417259 
L 579.52114 870.47492 
L 584.332971 873.946099 
L 589.144803 873.202268 
L 593.956634 874.194036 
L 598.768466 872.954331 
L 603.580297 871.218732 
L 608.392129 874.689911 
L 613.203961 873.450205 
L 618.015792 873.202268 
L 622.827624 873.698142 
L 627.639455 873.202268 
L 632.451287 873.450205 
L 637.263118 874.441973 
L 642.07495 874.194036 
L 646.886781 878.409027 
L 651.698613 872.706393 
L 656.510445 875.929616 
L 661.322276 874.441973 
L 666.134108 873.202268 
L 670.945939 871.714625 
L 675.757771 871.714625 
L 680.569602 873.202268 
" clip-path="url(#p8c5a733b2f)" style="fill: none; stroke: #1f77b4; stroke-width: 1.5; stroke-linecap: square"/>
   </g>
   <g id="line2d_72">
    <path d="M 107.961648 889.814312 
L 112.773479 904.442839 
L 117.585311 906.92225 
L 122.397142 905.930482 
L 127.208974 907.666081 
L 132.020805 905.682544 
L 136.832637 905.18667 
L 141.644469 905.434607 
L 146.4563 905.682544 
L 151.268132 906.92225 
L 156.079963 908.161955 
L 160.891795 908.161955 
L 165.703626 907.914018 
L 170.515458 908.905786 
L 175.327289 905.682544 
L 180.139121 908.409892 
L 184.950953 910.641366 
L 189.762784 907.666081 
L 194.574616 907.170187 
L 199.386447 909.153723 
L 204.198279 908.161955 
L 209.01011 909.153723 
L 213.821942 907.666081 
L 218.633773 909.401661 
L 223.445605 911.881071 
L 228.257436 904.442839 
L 233.069268 905.434607 
L 237.8811 909.153723 
L 242.692931 911.881071 
L 247.504763 909.649598 
L 252.316594 909.649598 
L 257.128426 910.641366 
L 261.940257 906.426375 
L 266.752089 909.897554 
L 271.56392 906.426375 
L 276.375752 910.889303 
L 281.187584 909.649598 
L 285.999415 908.161955 
L 290.811247 902.955196 
L 295.623078 909.401661 
L 300.43491 902.955196 
L 305.246741 910.393429 
L 310.058573 906.426375 
L 314.870404 902.955196 
L 319.682236 898.49225 
L 324.494068 898.244312 
L 329.305899 897.748438 
L 334.117731 894.525196 
L 338.929562 894.277259 
L 343.741394 891.549911 
L 348.553225 889.318437 
L 353.365057 888.078732 
L 358.176888 888.078732 
L 362.98872 889.566375 
L 367.800551 888.822563 
L 372.612383 889.318437 
L 377.424215 886.343152 
L 382.236046 888.078732 
L 387.047878 886.591089 
L 391.859709 883.863741 
L 396.671541 884.855491 
L 401.483372 883.863741 
L 406.295204 885.351384 
L 411.107035 885.351384 
L 415.918867 886.095196 
L 420.730699 880.144625 
L 425.54253 880.888437 
L 430.354362 880.6405 
L 435.166193 874.937848 
L 439.978025 879.152857 
L 444.789856 881.136375 
L 449.601688 877.913152 
L 454.413519 879.152857 
L 459.225351 879.896669 
L 464.037182 881.880205 
L 468.849014 875.929616 
L 473.660846 876.425509 
L 478.472677 874.937848 
L 483.284509 874.937848 
L 488.09634 876.921384 
L 492.908172 873.698142 
L 497.720003 880.392563 
L 502.531835 876.921384 
L 507.343666 878.90492 
L 512.155498 875.929616 
L 516.96733 880.392563 
L 521.779161 879.152857 
L 526.590993 878.90492 
L 531.402824 880.888437 
L 536.214656 878.656964 
L 541.026487 877.665215 
L 545.838319 876.673447 
L 550.65015 877.913152 
L 555.461982 880.888437 
L 560.273814 883.119911 
L 565.085645 876.673447 
L 569.897477 878.161089 
L 574.709308 880.392563 
L 579.52114 880.144625 
L 584.332971 878.409027 
L 589.144803 880.144625 
L 593.956634 878.161089 
L 598.768466 878.90492 
L 603.580297 876.177553 
L 608.392129 877.417259 
L 613.203961 877.169321 
L 618.015792 880.144625 
L 622.827624 879.648732 
L 627.639455 876.177553 
L 632.451287 876.921384 
L 637.263118 877.417259 
L 642.07495 876.177553 
L 646.886781 877.913152 
L 651.698613 878.409027 
L 656.510445 878.409027 
L 661.322276 875.433741 
L 666.134108 880.144625 
L 670.945939 876.921384 
L 675.757771 876.673447 
L 680.569602 878.409027 
" clip-path="url(#p8c5a733b2f)" style="fill: none; stroke: #ff7f0e; stroke-width: 1.5; stroke-linecap: square"/>
   </g>
   <g id="line2d_73">
    <path d="M 107.961648 929.980777 
L 112.773479 912.376965 
L 117.585311 911.385197 
L 122.397142 912.872839 
L 127.208974 911.137259 
L 132.020805 916.344018 
L 136.832637 921.550777 
L 141.644469 916.344018 
L 146.4563 911.137259 
L 151.268132 916.096081 
L 156.079963 919.319303 
L 160.891795 914.608419 
L 165.703626 916.344018 
L 170.515458 914.112545 
L 175.327289 916.344018 
L 180.139121 916.591955 
L 184.950953 915.848125 
L 189.762784 920.806946 
L 194.574616 919.319303 
L 199.386447 914.112545 
L 204.198279 913.368714 
L 209.01011 912.376965 
L 213.821942 908.657849 
L 218.633773 914.608419 
L 223.445605 912.624902 
L 228.257436 912.129009 
L 233.069268 913.120777 
L 237.8811 911.137259 
L 242.692931 910.393429 
L 247.504763 913.864607 
L 252.316594 908.905786 
L 257.128426 915.600187 
L 261.940257 911.881071 
L 266.752089 912.376965 
L 271.56392 912.624902 
L 276.375752 907.418143 
L 281.187584 911.633134 
L 285.999415 914.360482 
L 290.811247 911.385197 
L 295.623078 911.137259 
L 300.43491 911.137259 
L 305.246741 912.376965 
L 310.058573 911.633134 
L 314.870404 910.393429 
L 319.682236 906.92225 
L 324.494068 907.418143 
L 329.305899 906.178438 
L 334.117731 905.930482 
L 338.929562 906.426375 
L 343.741394 904.442839 
L 348.553225 905.682544 
L 353.365057 908.905786 
L 358.176888 902.459322 
L 362.98872 904.938733 
L 367.800551 904.194902 
L 372.612383 905.18667 
L 377.424215 905.18667 
L 382.236046 905.434607 
L 387.047878 905.682544 
L 391.859709 906.674313 
L 396.671541 902.955196 
L 401.483372 902.211366 
L 406.295204 903.946964 
L 411.107035 908.657849 
L 415.918867 911.137259 
L 420.730699 905.434607 
L 425.54253 906.674313 
L 430.354362 906.426375 
L 435.166193 905.434607 
L 439.978025 906.92225 
L 444.789856 906.92225 
L 449.601688 904.690776 
L 454.413519 903.203134 
L 459.225351 902.707259 
L 464.037182 904.194902 
L 468.849014 904.442839 
L 473.660846 902.459322 
L 478.472677 905.18667 
L 483.284509 907.170187 
L 488.09634 905.682544 
L 492.908172 904.442839 
L 497.720003 887.830795 
L 502.531835 874.441973 
L 507.343666 869.979026 
L 512.155498 859.565509 
L 516.96733 855.598456 
L 521.779161 852.623151 
L 526.590993 844.19317 
L 531.402824 841.217885 
L 536.214656 833.779653 
L 541.026487 829.06875 
L 545.838319 824.357884 
L 550.65015 824.853759 
L 555.461982 823.86201 
L 560.273814 823.118179 
L 565.085645 817.167571 
L 569.897477 816.423778 
L 574.709308 815.184072 
L 579.52114 812.456705 
L 584.332971 809.977295 
L 589.144803 807.497884 
L 593.956634 805.018473 
L 598.768466 801.299357 
L 603.580297 801.299357 
L 608.392129 794.109081 
L 613.203961 797.332285 
L 618.015792 796.09258 
L 622.827624 796.09258 
L 627.639455 789.646134 
L 632.451287 790.142009 
L 637.263118 789.894053 
L 642.07495 791.877589 
L 646.886781 784.687313 
L 651.698613 789.894053 
L 656.510445 786.918767 
L 661.322276 783.447608 
L 666.134108 783.695526 
L 670.945939 781.959946 
L 675.757771 781.959946 
L 680.569602 779.97641 
" clip-path="url(#p8c5a733b2f)" style="fill: none; stroke: #2ca02c; stroke-width: 1.5; stroke-linecap: square"/>
   </g>
   <g id="line2d_74">
    <path d="M 107.961648 914.360482 
L 112.773479 926.261661 
L 117.585311 927.253429 
L 122.397142 923.534313 
L 127.208974 926.013724 
L 132.020805 927.253429 
L 136.832637 926.261661 
L 141.644469 928.245178 
L 146.4563 927.501366 
L 151.268132 924.526062 
L 156.079963 924.030188 
L 160.891795 925.269893 
L 165.703626 926.509598 
L 170.515458 925.51783 
L 175.327289 923.534313 
L 180.139121 923.78225 
L 184.950953 922.294608 
L 189.762784 926.261661 
L 194.574616 926.757536 
L 199.386447 926.013724 
L 204.198279 923.78225 
L 209.01011 925.765767 
L 213.821942 924.278125 
L 218.633773 924.774018 
L 223.445605 926.261661 
L 228.257436 925.269893 
L 233.069268 925.269893 
L 237.8811 926.261661 
L 242.692931 925.765767 
L 247.504763 923.038419 
L 252.316594 924.030188 
L 257.128426 927.253429 
L 261.940257 925.021956 
L 266.752089 923.78225 
L 271.56392 922.542545 
L 276.375752 926.261661 
L 281.187584 925.269893 
L 285.999415 925.021956 
L 290.811247 924.774018 
L 295.623078 924.774018 
L 300.43491 926.757536 
L 305.246741 926.013724 
L 310.058573 926.013724 
L 314.870404 927.749304 
L 319.682236 928.493134 
L 324.494068 928.741072 
L 329.305899 927.997241 
L 334.117731 925.021956 
L 338.929562 926.509598 
L 343.741394 927.501366 
L 348.553225 929.236946 
L 353.365057 925.51783 
L 358.176888 925.51783 
L 362.98872 928.245178 
L 367.800551 926.261661 
L 372.612383 924.526062 
L 377.424215 923.534313 
L 382.236046 924.774018 
L 387.047878 923.286357 
L 391.859709 922.294608 
L 396.671541 923.78225 
L 401.483372 922.790482 
L 406.295204 925.765767 
L 411.107035 926.013724 
L 415.918867 922.790482 
L 420.730699 926.013724 
L 425.54253 924.526062 
L 430.354362 921.054902 
L 435.166193 921.054902 
L 439.978025 922.790482 
L 444.789856 922.790482 
L 449.601688 921.798714 
L 454.413519 921.798714 
L 459.225351 922.294608 
L 464.037182 922.790482 
L 468.849014 922.294608 
L 473.660846 922.046651 
L 478.472677 922.046651 
L 483.284509 923.286357 
L 488.09634 923.038419 
L 492.908172 920.806946 
L 497.720003 921.054902 
L 502.531835 923.038419 
L 507.343666 926.013724 
L 512.155498 924.526062 
L 516.96733 922.294608 
L 521.779161 921.550777 
L 526.590993 921.798714 
L 531.402824 921.798714 
L 536.214656 923.78225 
L 541.026487 923.534313 
L 545.838319 923.038419 
L 550.65015 922.542545 
L 555.461982 923.038419 
L 560.273814 923.038419 
L 565.085645 924.030188 
L 569.897477 924.278125 
L 574.709308 924.526062 
L 579.52114 923.038419 
L 584.332971 926.013724 
L 589.144803 923.78225 
L 593.956634 923.78225 
L 598.768466 922.790482 
L 603.580297 924.030188 
L 608.392129 922.542545 
L 613.203961 924.526062 
L 618.015792 925.269893 
L 622.827624 924.030188 
L 627.639455 921.302839 
L 632.451287 922.790482 
L 637.263118 923.534313 
L 642.07495 923.286357 
L 646.886781 924.030188 
L 651.698613 925.269893 
L 656.510445 922.790482 
L 661.322276 926.509598 
L 666.134108 923.534313 
L 670.945939 924.526062 
L 675.757771 922.790482 
L 680.569602 923.78225 
" clip-path="url(#p8c5a733b2f)" style="fill: none; stroke: #d62728; stroke-width: 1.5; stroke-linecap: square"/>
   </g>
   <g id="line2d_75">
    <path d="M 107.961648 918.327535 
L 112.773479 904.194902 
L 117.585311 904.194902 
L 122.397142 903.946964 
L 127.208974 904.194902 
L 132.020805 903.699027 
L 136.832637 902.459322 
L 141.644469 903.699027 
L 146.4563 904.690776 
L 151.268132 903.699027 
L 156.079963 902.955196 
L 160.891795 904.194902 
L 165.703626 902.211366 
L 170.515458 902.955196 
L 175.327289 902.459322 
L 180.139121 902.707259 
L 184.950953 901.219616 
L 189.762784 903.203134 
L 194.574616 903.451071 
L 199.386447 903.451071 
L 204.198279 903.946964 
L 209.01011 901.963428 
L 213.821942 905.18667 
L 218.633773 901.219616 
L 223.445605 903.451071 
L 228.257436 903.203134 
L 233.069268 899.979911 
L 237.8811 902.707259 
L 242.692931 900.227848 
L 247.504763 901.963428 
L 252.316594 900.97166 
L 257.128426 901.715491 
L 261.940257 899.731955 
L 266.752089 901.219616 
L 271.56392 899.979911 
L 276.375752 900.723723 
L 281.187584 902.707259 
L 285.999415 903.203134 
L 290.811247 902.459322 
L 295.623078 899.731955 
L 300.43491 901.219616 
L 305.246741 898.49225 
L 310.058573 897.004607 
L 314.870404 900.227848 
L 319.682236 897.996375 
L 324.494068 898.49225 
L 329.305899 897.252544 
L 334.117731 899.484018 
L 338.929562 897.5005 
L 343.741394 895.269027 
L 348.553225 898.244312 
L 353.365057 898.988143 
L 358.176888 898.244312 
L 362.98872 899.979911 
L 367.800551 896.75667 
L 372.612383 898.49225 
L 377.424215 897.996375 
L 382.236046 896.75667 
L 387.047878 900.475786 
L 391.859709 895.764902 
L 396.671541 897.5005 
L 401.483372 898.740206 
L 406.295204 898.244312 
L 411.107035 898.988143 
L 415.918867 899.23608 
L 420.730699 899.731955 
L 425.54253 899.731955 
L 430.354362 895.02109 
L 435.166193 899.484018 
L 439.978025 900.723723 
L 444.789856 898.988143 
L 449.601688 898.988143 
L 454.413519 900.475786 
L 459.225351 897.252544 
L 464.037182 899.731955 
L 468.849014 897.5005 
L 473.660846 898.740206 
L 478.472677 898.740206 
L 483.284509 900.227848 
L 488.09634 899.23608 
L 492.908172 896.508732 
L 497.720003 896.260795 
L 502.531835 898.49225 
L 507.343666 897.5005 
L 512.155498 897.004607 
L 516.96733 898.740206 
L 521.779161 897.996375 
L 526.590993 898.988143 
L 531.402824 899.731955 
L 536.214656 899.731955 
L 541.026487 898.49225 
L 545.838319 897.748438 
L 550.65015 898.244312 
L 555.461982 898.244312 
L 560.273814 897.5005 
L 565.085645 896.75667 
L 569.897477 898.740206 
L 574.709308 898.988143 
L 579.52114 899.731955 
L 584.332971 899.484018 
L 589.144803 901.219616 
L 593.956634 900.475786 
L 598.768466 900.475786 
L 603.580297 902.707259 
L 608.392129 902.459322 
L 613.203961 901.467554 
L 618.015792 899.731955 
L 622.827624 900.227848 
L 627.639455 901.715491 
L 632.451287 901.467554 
L 637.263118 901.963428 
L 642.07495 901.963428 
L 646.886781 899.979911 
L 651.698613 902.955196 
L 656.510445 899.731955 
L 661.322276 901.715491 
L 666.134108 903.203134 
L 670.945939 903.203134 
L 675.757771 902.955196 
L 680.569602 901.467554 
" clip-path="url(#p8c5a733b2f)" style="fill: none; stroke: #9467bd; stroke-width: 1.5; stroke-linecap: square"/>
   </g>
   <g id="patch_9">
    <path d="M 79.33125 1019.4875 
L 79.33125 672.37 
" style="fill: none; stroke: #000000; stroke-width: 0.8; stroke-linejoin: miter; stroke-linecap: square"/>
   </g>
   <g id="patch_10">
    <path d="M 709.2 1019.4875 
L 709.2 672.37 
" style="fill: none; stroke: #000000; stroke-width: 0.8; stroke-linejoin: miter; stroke-linecap: square"/>
   </g>
   <g id="patch_11">
    <path d="M 79.33125 1019.4875 
L 709.2 1019.4875 
" style="fill: none; stroke: #000000; stroke-width: 0.8; stroke-linejoin: miter; stroke-linecap: square"/>
   </g>
   <g id="patch_12">
    <path d="M 79.33125 672.37 
L 709.2 672.37 
" style="fill: none; stroke: #000000; stroke-width: 0.8; stroke-linejoin: miter; stroke-linecap: square"/>
   </g>
   <g id="text_41">
    <!-- Test -->
    <g transform="translate(374.575 666.37)scale(0.2 -0.2)">
     <use xlink:href="#DejaVuSans-54"/>
     <use xlink:href="#DejaVuSans-65" x="44.083984"/>
     <use xlink:href="#DejaVuSans-73" x="105.607422"/>
     <use xlink:href="#DejaVuSans-74" x="157.707031"/>
    </g>
   </g>
   <g id="legend_2">
    <g id="patch_13">
     <path d="M 639.610937 753.760625 
L 702.2 753.760625 
Q 704.2 753.760625 704.2 751.760625 
L 704.2 679.37 
Q 704.2 677.37 702.2 677.37 
L 639.610937 677.37 
Q 637.610937 677.37 637.610937 679.37 
L 637.610937 751.760625 
Q 637.610937 753.760625 639.610937 753.760625 
z
" style="fill: #ffffff; opacity: 0.8; stroke: #cccccc; stroke-linejoin: miter"/>
    </g>
    <g id="line2d_76">
     <path d="M 641.610937 685.468437 
L 651.610937 685.468437 
L 661.610937 685.468437 
" style="fill: none; stroke: #1f77b4; stroke-width: 1.5; stroke-linecap: square"/>
    </g>
    <g id="text_42">
     <!-- task 0 -->
     <g transform="translate(669.610937 688.968437)scale(0.1 -0.1)">
      <use xlink:href="#DejaVuSans-74"/>
      <use xlink:href="#DejaVuSans-61" x="39.208984"/>
      <use xlink:href="#DejaVuSans-73" x="100.488281"/>
      <use xlink:href="#DejaVuSans-6b" x="152.587891"/>
      <use xlink:href="#DejaVuSans-20" x="210.498047"/>
      <use xlink:href="#DejaVuSans-30" x="242.285156"/>
     </g>
    </g>
    <g id="line2d_77">
     <path d="M 641.610937 700.146562 
L 651.610937 700.146562 
L 661.610937 700.146562 
" style="fill: none; stroke: #ff7f0e; stroke-width: 1.5; stroke-linecap: square"/>
    </g>
    <g id="text_43">
     <!-- task 1 -->
     <g transform="translate(669.610937 703.646562)scale(0.1 -0.1)">
      <use xlink:href="#DejaVuSans-74"/>
      <use xlink:href="#DejaVuSans-61" x="39.208984"/>
      <use xlink:href="#DejaVuSans-73" x="100.488281"/>
      <use xlink:href="#DejaVuSans-6b" x="152.587891"/>
      <use xlink:href="#DejaVuSans-20" x="210.498047"/>
      <use xlink:href="#DejaVuSans-31" x="242.285156"/>
     </g>
    </g>
    <g id="line2d_78">
     <path d="M 641.610937 714.824687 
L 651.610937 714.824687 
L 661.610937 714.824687 
" style="fill: none; stroke: #2ca02c; stroke-width: 1.5; stroke-linecap: square"/>
    </g>
    <g id="text_44">
     <!-- task 2 -->
     <g transform="translate(669.610937 718.324687)scale(0.1 -0.1)">
      <use xlink:href="#DejaVuSans-74"/>
      <use xlink:href="#DejaVuSans-61" x="39.208984"/>
      <use xlink:href="#DejaVuSans-73" x="100.488281"/>
      <use xlink:href="#DejaVuSans-6b" x="152.587891"/>
      <use xlink:href="#DejaVuSans-20" x="210.498047"/>
      <use xlink:href="#DejaVuSans-32" x="242.285156"/>
     </g>
    </g>
    <g id="line2d_79">
     <path d="M 641.610937 729.502812 
L 651.610937 729.502812 
L 661.610937 729.502812 
" style="fill: none; stroke: #d62728; stroke-width: 1.5; stroke-linecap: square"/>
    </g>
    <g id="text_45">
     <!-- task 3 -->
     <g transform="translate(669.610937 733.002812)scale(0.1 -0.1)">
      <use xlink:href="#DejaVuSans-74"/>
      <use xlink:href="#DejaVuSans-61" x="39.208984"/>
      <use xlink:href="#DejaVuSans-73" x="100.488281"/>
      <use xlink:href="#DejaVuSans-6b" x="152.587891"/>
      <use xlink:href="#DejaVuSans-20" x="210.498047"/>
      <use xlink:href="#DejaVuSans-33" x="242.285156"/>
     </g>
    </g>
    <g id="line2d_80">
     <path d="M 641.610937 744.180937 
L 651.610937 744.180937 
L 661.610937 744.180937 
" style="fill: none; stroke: #9467bd; stroke-width: 1.5; stroke-linecap: square"/>
    </g>
    <g id="text_46">
     <!-- task 4 -->
     <g transform="translate(669.610937 747.680937)scale(0.1 -0.1)">
      <use xlink:href="#DejaVuSans-74"/>
      <use xlink:href="#DejaVuSans-61" x="39.208984"/>
      <use xlink:href="#DejaVuSans-73" x="100.488281"/>
      <use xlink:href="#DejaVuSans-6b" x="152.587891"/>
      <use xlink:href="#DejaVuSans-20" x="210.498047"/>
      <use xlink:href="#DejaVuSans-34" x="242.285156"/>
     </g>
    </g>
   </g>
  </g>
  <g id="text_47">
   <!-- architecture: ResNet18 -->
   <g transform="translate(244.815625 15.196875)scale(0.2 -0.2)">
    <defs>
     <path id="DejaVuSans-68" d="M 3513 2113 
L 3513 0 
L 2938 0 
L 2938 2094 
Q 2938 2591 2744 2837 
Q 2550 3084 2163 3084 
Q 1697 3084 1428 2787 
Q 1159 2491 1159 1978 
L 1159 0 
L 581 0 
L 581 4863 
L 1159 4863 
L 1159 2956 
Q 1366 3272 1645 3428 
Q 1925 3584 2291 3584 
Q 2894 3584 3203 3211 
Q 3513 2838 3513 2113 
z
" transform="scale(0.015625)"/>
     <path id="DejaVuSans-3a" d="M 750 794 
L 1409 794 
L 1409 0 
L 750 0 
L 750 794 
z
M 750 3309 
L 1409 3309 
L 1409 2516 
L 750 2516 
L 750 3309 
z
" transform="scale(0.015625)"/>
     <path id="DejaVuSans-52" d="M 2841 2188 
Q 3044 2119 3236 1894 
Q 3428 1669 3622 1275 
L 4263 0 
L 3584 0 
L 2988 1197 
Q 2756 1666 2539 1819 
Q 2322 1972 1947 1972 
L 1259 1972 
L 1259 0 
L 628 0 
L 628 4666 
L 2053 4666 
Q 2853 4666 3247 4331 
Q 3641 3997 3641 3322 
Q 3641 2881 3436 2590 
Q 3231 2300 2841 2188 
z
M 1259 4147 
L 1259 2491 
L 2053 2491 
Q 2509 2491 2742 2702 
Q 2975 2913 2975 3322 
Q 2975 3731 2742 3939 
Q 2509 4147 2053 4147 
L 1259 4147 
z
" transform="scale(0.015625)"/>
     <path id="DejaVuSans-4e" d="M 628 4666 
L 1478 4666 
L 3547 763 
L 3547 4666 
L 4159 4666 
L 4159 0 
L 3309 0 
L 1241 3903 
L 1241 0 
L 628 0 
L 628 4666 
z
" transform="scale(0.015625)"/>
    </defs>
    <use xlink:href="#DejaVuSans-61"/>
    <use xlink:href="#DejaVuSans-72" x="61.279297"/>
    <use xlink:href="#DejaVuSans-63" x="100.142578"/>
    <use xlink:href="#DejaVuSans-68" x="155.123047"/>
    <use xlink:href="#DejaVuSans-69" x="218.501953"/>
    <use xlink:href="#DejaVuSans-74" x="246.285156"/>
    <use xlink:href="#DejaVuSans-65" x="285.494141"/>
    <use xlink:href="#DejaVuSans-63" x="347.017578"/>
    <use xlink:href="#DejaVuSans-74" x="401.998047"/>
    <use xlink:href="#DejaVuSans-75" x="441.207031"/>
    <use xlink:href="#DejaVuSans-72" x="504.585938"/>
    <use xlink:href="#DejaVuSans-65" x="543.449219"/>
    <use xlink:href="#DejaVuSans-3a" x="604.972656"/>
    <use xlink:href="#DejaVuSans-20" x="638.664062"/>
    <use xlink:href="#DejaVuSans-52" x="670.451172"/>
    <use xlink:href="#DejaVuSans-65" x="735.433594"/>
    <use xlink:href="#DejaVuSans-73" x="796.957031"/>
    <use xlink:href="#DejaVuSans-4e" x="849.056641"/>
    <use xlink:href="#DejaVuSans-65" x="923.861328"/>
    <use xlink:href="#DejaVuSans-74" x="985.384766"/>
    <use xlink:href="#DejaVuSans-31" x="1024.59375"/>
    <use xlink:href="#DejaVuSans-38" x="1088.216797"/>
   </g>
   <!-- dataset: CIFAR10 -->
   <g transform="translate(274.359375 37.5925)scale(0.2 -0.2)">
    <defs>
     <path id="DejaVuSans-64" d="M 2906 2969 
L 2906 4863 
L 3481 4863 
L 3481 0 
L 2906 0 
L 2906 525 
Q 2725 213 2448 61 
Q 2172 -91 1784 -91 
Q 1150 -91 751 415 
Q 353 922 353 1747 
Q 353 2572 751 3078 
Q 1150 3584 1784 3584 
Q 2172 3584 2448 3432 
Q 2725 3281 2906 2969 
z
M 947 1747 
Q 947 1113 1208 752 
Q 1469 391 1925 391 
Q 2381 391 2643 752 
Q 2906 1113 2906 1747 
Q 2906 2381 2643 2742 
Q 2381 3103 1925 3103 
Q 1469 3103 1208 2742 
Q 947 2381 947 1747 
z
" transform="scale(0.015625)"/>
     <path id="DejaVuSans-43" d="M 4122 4306 
L 4122 3641 
Q 3803 3938 3442 4084 
Q 3081 4231 2675 4231 
Q 1875 4231 1450 3742 
Q 1025 3253 1025 2328 
Q 1025 1406 1450 917 
Q 1875 428 2675 428 
Q 3081 428 3442 575 
Q 3803 722 4122 1019 
L 4122 359 
Q 3791 134 3420 21 
Q 3050 -91 2638 -91 
Q 1578 -91 968 557 
Q 359 1206 359 2328 
Q 359 3453 968 4101 
Q 1578 4750 2638 4750 
Q 3056 4750 3426 4639 
Q 3797 4528 4122 4306 
z
" transform="scale(0.015625)"/>
     <path id="DejaVuSans-49" d="M 628 4666 
L 1259 4666 
L 1259 0 
L 628 0 
L 628 4666 
z
" transform="scale(0.015625)"/>
     <path id="DejaVuSans-46" d="M 628 4666 
L 3309 4666 
L 3309 4134 
L 1259 4134 
L 1259 2759 
L 3109 2759 
L 3109 2228 
L 1259 2228 
L 1259 0 
L 628 0 
L 628 4666 
z
" transform="scale(0.015625)"/>
     <path id="DejaVuSans-41" d="M 2188 4044 
L 1331 1722 
L 3047 1722 
L 2188 4044 
z
M 1831 4666 
L 2547 4666 
L 4325 0 
L 3669 0 
L 3244 1197 
L 1141 1197 
L 716 0 
L 50 0 
L 1831 4666 
z
" transform="scale(0.015625)"/>
    </defs>
    <use xlink:href="#DejaVuSans-64"/>
    <use xlink:href="#DejaVuSans-61" x="63.476562"/>
    <use xlink:href="#DejaVuSans-74" x="124.755859"/>
    <use xlink:href="#DejaVuSans-61" x="163.964844"/>
    <use xlink:href="#DejaVuSans-73" x="225.244141"/>
    <use xlink:href="#DejaVuSans-65" x="277.34375"/>
    <use xlink:href="#DejaVuSans-74" x="338.867188"/>
    <use xlink:href="#DejaVuSans-3a" x="378.076172"/>
    <use xlink:href="#DejaVuSans-20" x="411.767578"/>
    <use xlink:href="#DejaVuSans-43" x="443.554688"/>
    <use xlink:href="#DejaVuSans-49" x="513.378906"/>
    <use xlink:href="#DejaVuSans-46" x="542.871094"/>
    <use xlink:href="#DejaVuSans-41" x="591.265625"/>
    <use xlink:href="#DejaVuSans-52" x="659.673828"/>
    <use xlink:href="#DejaVuSans-31" x="729.15625"/>
    <use xlink:href="#DejaVuSans-30" x="792.779297"/>
   </g>
   <!-- rehearsal_dataset: stat-wmm -->
   <g transform="translate(213.315625 59.988125)scale(0.2 -0.2)">
    <defs>
     <path id="DejaVuSans-6c" d="M 603 4863 
L 1178 4863 
L 1178 0 
L 603 0 
L 603 4863 
z
" transform="scale(0.015625)"/>
     <path id="DejaVuSans-5f" d="M 3263 -1063 
L 3263 -1509 
L -63 -1509 
L -63 -1063 
L 3263 -1063 
z
" transform="scale(0.015625)"/>
     <path id="DejaVuSans-2d" d="M 313 2009 
L 1997 2009 
L 1997 1497 
L 313 1497 
L 313 2009 
z
" transform="scale(0.015625)"/>
     <path id="DejaVuSans-77" d="M 269 3500 
L 844 3500 
L 1563 769 
L 2278 3500 
L 2956 3500 
L 3675 769 
L 4391 3500 
L 4966 3500 
L 4050 0 
L 3372 0 
L 2619 2869 
L 1863 0 
L 1184 0 
L 269 3500 
z
" transform="scale(0.015625)"/>
     <path id="DejaVuSans-6d" d="M 3328 2828 
Q 3544 3216 3844 3400 
Q 4144 3584 4550 3584 
Q 5097 3584 5394 3201 
Q 5691 2819 5691 2113 
L 5691 0 
L 5113 0 
L 5113 2094 
Q 5113 2597 4934 2840 
Q 4756 3084 4391 3084 
Q 3944 3084 3684 2787 
Q 3425 2491 3425 1978 
L 3425 0 
L 2847 0 
L 2847 2094 
Q 2847 2600 2669 2842 
Q 2491 3084 2119 3084 
Q 1678 3084 1418 2786 
Q 1159 2488 1159 1978 
L 1159 0 
L 581 0 
L 581 3500 
L 1159 3500 
L 1159 2956 
Q 1356 3278 1631 3431 
Q 1906 3584 2284 3584 
Q 2666 3584 2933 3390 
Q 3200 3197 3328 2828 
z
" transform="scale(0.015625)"/>
    </defs>
    <use xlink:href="#DejaVuSans-72"/>
    <use xlink:href="#DejaVuSans-65" x="38.863281"/>
    <use xlink:href="#DejaVuSans-68" x="100.386719"/>
    <use xlink:href="#DejaVuSans-65" x="163.765625"/>
    <use xlink:href="#DejaVuSans-61" x="225.289062"/>
    <use xlink:href="#DejaVuSans-72" x="286.568359"/>
    <use xlink:href="#DejaVuSans-73" x="327.681641"/>
    <use xlink:href="#DejaVuSans-61" x="379.78125"/>
    <use xlink:href="#DejaVuSans-6c" x="441.060547"/>
    <use xlink:href="#DejaVuSans-5f" x="468.84375"/>
    <use xlink:href="#DejaVuSans-64" x="518.84375"/>
    <use xlink:href="#DejaVuSans-61" x="582.320312"/>
    <use xlink:href="#DejaVuSans-74" x="643.599609"/>
    <use xlink:href="#DejaVuSans-61" x="682.808594"/>
    <use xlink:href="#DejaVuSans-73" x="744.087891"/>
    <use xlink:href="#DejaVuSans-65" x="796.1875"/>
    <use xlink:href="#DejaVuSans-74" x="857.710938"/>
    <use xlink:href="#DejaVuSans-3a" x="896.919922"/>
    <use xlink:href="#DejaVuSans-20" x="930.611328"/>
    <use xlink:href="#DejaVuSans-73" x="962.398438"/>
    <use xlink:href="#DejaVuSans-74" x="1014.498047"/>
    <use xlink:href="#DejaVuSans-61" x="1053.707031"/>
    <use xlink:href="#DejaVuSans-74" x="1114.986328"/>
    <use xlink:href="#DejaVuSans-2d" x="1154.195312"/>
    <use xlink:href="#DejaVuSans-77" x="1190.279297"/>
    <use xlink:href="#DejaVuSans-6d" x="1272.066406"/>
    <use xlink:href="#DejaVuSans-6d" x="1369.478516"/>
   </g>
   <!-- batch_size_rehearsal: 128 -->
   <g transform="translate(229.859375 82.94)scale(0.2 -0.2)">
    <defs>
     <path id="DejaVuSans-62" d="M 3116 1747 
Q 3116 2381 2855 2742 
Q 2594 3103 2138 3103 
Q 1681 3103 1420 2742 
Q 1159 2381 1159 1747 
Q 1159 1113 1420 752 
Q 1681 391 2138 391 
Q 2594 391 2855 752 
Q 3116 1113 3116 1747 
z
M 1159 2969 
Q 1341 3281 1617 3432 
Q 1894 3584 2278 3584 
Q 2916 3584 3314 3078 
Q 3713 2572 3713 1747 
Q 3713 922 3314 415 
Q 2916 -91 2278 -91 
Q 1894 -91 1617 61 
Q 1341 213 1159 525 
L 1159 0 
L 581 0 
L 581 4863 
L 1159 4863 
L 1159 2969 
z
" transform="scale(0.015625)"/>
     <path id="DejaVuSans-7a" d="M 353 3500 
L 3084 3500 
L 3084 2975 
L 922 459 
L 3084 459 
L 3084 0 
L 275 0 
L 275 525 
L 2438 3041 
L 353 3041 
L 353 3500 
z
" transform="scale(0.015625)"/>
    </defs>
    <use xlink:href="#DejaVuSans-62"/>
    <use xlink:href="#DejaVuSans-61" x="63.476562"/>
    <use xlink:href="#DejaVuSans-74" x="124.755859"/>
    <use xlink:href="#DejaVuSans-63" x="163.964844"/>
    <use xlink:href="#DejaVuSans-68" x="218.945312"/>
    <use xlink:href="#DejaVuSans-5f" x="282.324219"/>
    <use xlink:href="#DejaVuSans-73" x="332.324219"/>
    <use xlink:href="#DejaVuSans-69" x="384.423828"/>
    <use xlink:href="#DejaVuSans-7a" x="412.207031"/>
    <use xlink:href="#DejaVuSans-65" x="464.697266"/>
    <use xlink:href="#DejaVuSans-5f" x="526.220703"/>
    <use xlink:href="#DejaVuSans-72" x="576.220703"/>
    <use xlink:href="#DejaVuSans-65" x="615.083984"/>
    <use xlink:href="#DejaVuSans-68" x="676.607422"/>
    <use xlink:href="#DejaVuSans-65" x="739.986328"/>
    <use xlink:href="#DejaVuSans-61" x="801.509766"/>
    <use xlink:href="#DejaVuSans-72" x="862.789062"/>
    <use xlink:href="#DejaVuSans-73" x="903.902344"/>
    <use xlink:href="#DejaVuSans-61" x="956.001953"/>
    <use xlink:href="#DejaVuSans-6c" x="1017.28125"/>
    <use xlink:href="#DejaVuSans-3a" x="1045.064453"/>
    <use xlink:href="#DejaVuSans-20" x="1078.755859"/>
    <use xlink:href="#DejaVuSans-31" x="1110.542969"/>
    <use xlink:href="#DejaVuSans-32" x="1174.166016"/>
    <use xlink:href="#DejaVuSans-38" x="1237.789062"/>
   </g>
   <!-- pretraining: True -->
   <g transform="translate(277.092188 105.891875)scale(0.2 -0.2)">
    <defs>
     <path id="DejaVuSans-67" d="M 2906 1791 
Q 2906 2416 2648 2759 
Q 2391 3103 1925 3103 
Q 1463 3103 1205 2759 
Q 947 2416 947 1791 
Q 947 1169 1205 825 
Q 1463 481 1925 481 
Q 2391 481 2648 825 
Q 2906 1169 2906 1791 
z
M 3481 434 
Q 3481 -459 3084 -895 
Q 2688 -1331 1869 -1331 
Q 1566 -1331 1297 -1286 
Q 1028 -1241 775 -1147 
L 775 -588 
Q 1028 -725 1275 -790 
Q 1522 -856 1778 -856 
Q 2344 -856 2625 -561 
Q 2906 -266 2906 331 
L 2906 616 
Q 2728 306 2450 153 
Q 2172 0 1784 0 
Q 1141 0 747 490 
Q 353 981 353 1791 
Q 353 2603 747 3093 
Q 1141 3584 1784 3584 
Q 2172 3584 2450 3431 
Q 2728 3278 2906 2969 
L 2906 3500 
L 3481 3500 
L 3481 434 
z
" transform="scale(0.015625)"/>
    </defs>
    <use xlink:href="#DejaVuSans-70"/>
    <use xlink:href="#DejaVuSans-72" x="63.476562"/>
    <use xlink:href="#DejaVuSans-65" x="102.339844"/>
    <use xlink:href="#DejaVuSans-74" x="163.863281"/>
    <use xlink:href="#DejaVuSans-72" x="203.072266"/>
    <use xlink:href="#DejaVuSans-61" x="244.185547"/>
    <use xlink:href="#DejaVuSans-69" x="305.464844"/>
    <use xlink:href="#DejaVuSans-6e" x="333.248047"/>
    <use xlink:href="#DejaVuSans-69" x="396.626953"/>
    <use xlink:href="#DejaVuSans-6e" x="424.410156"/>
    <use xlink:href="#DejaVuSans-67" x="487.789062"/>
    <use xlink:href="#DejaVuSans-3a" x="551.265625"/>
    <use xlink:href="#DejaVuSans-20" x="584.957031"/>
    <use xlink:href="#DejaVuSans-54" x="616.744141"/>
    <use xlink:href="#DejaVuSans-72" x="663.078125"/>
    <use xlink:href="#DejaVuSans-75" x="704.191406"/>
    <use xlink:href="#DejaVuSans-65" x="767.570312"/>
   </g>
   <!-- learning_rate: 0.0001 -->
   <g transform="translate(252.353125 128.2875)scale(0.2 -0.2)">
    <defs>
     <path id="DejaVuSans-2e" d="M 684 794 
L 1344 794 
L 1344 0 
L 684 0 
L 684 794 
z
" transform="scale(0.015625)"/>
    </defs>
    <use xlink:href="#DejaVuSans-6c"/>
    <use xlink:href="#DejaVuSans-65" x="27.783203"/>
    <use xlink:href="#DejaVuSans-61" x="89.306641"/>
    <use xlink:href="#DejaVuSans-72" x="150.585938"/>
    <use xlink:href="#DejaVuSans-6e" x="189.949219"/>
    <use xlink:href="#DejaVuSans-69" x="253.328125"/>
    <use xlink:href="#DejaVuSans-6e" x="281.111328"/>
    <use xlink:href="#DejaVuSans-67" x="344.490234"/>
    <use xlink:href="#DejaVuSans-5f" x="407.966797"/>
    <use xlink:href="#DejaVuSans-72" x="457.966797"/>
    <use xlink:href="#DejaVuSans-61" x="499.080078"/>
    <use xlink:href="#DejaVuSans-74" x="560.359375"/>
    <use xlink:href="#DejaVuSans-65" x="599.568359"/>
    <use xlink:href="#DejaVuSans-3a" x="661.091797"/>
    <use xlink:href="#DejaVuSans-20" x="694.783203"/>
    <use xlink:href="#DejaVuSans-30" x="726.570312"/>
    <use xlink:href="#DejaVuSans-2e" x="790.193359"/>
    <use xlink:href="#DejaVuSans-30" x="821.980469"/>
    <use xlink:href="#DejaVuSans-30" x="885.603516"/>
    <use xlink:href="#DejaVuSans-30" x="949.226562"/>
    <use xlink:href="#DejaVuSans-31" x="1012.849609"/>
   </g>
   <!-- epochs: 5 -->
   <g transform="translate(311.425 151.239375)scale(0.2 -0.2)">
    <defs>
     <path id="DejaVuSans-6f" d="M 1959 3097 
Q 1497 3097 1228 2736 
Q 959 2375 959 1747 
Q 959 1119 1226 758 
Q 1494 397 1959 397 
Q 2419 397 2687 759 
Q 2956 1122 2956 1747 
Q 2956 2369 2687 2733 
Q 2419 3097 1959 3097 
z
M 1959 3584 
Q 2709 3584 3137 3096 
Q 3566 2609 3566 1747 
Q 3566 888 3137 398 
Q 2709 -91 1959 -91 
Q 1206 -91 779 398 
Q 353 888 353 1747 
Q 353 2609 779 3096 
Q 1206 3584 1959 3584 
z
" transform="scale(0.015625)"/>
    </defs>
    <use xlink:href="#DejaVuSans-65"/>
    <use xlink:href="#DejaVuSans-70" x="61.523438"/>
    <use xlink:href="#DejaVuSans-6f" x="125"/>
    <use xlink:href="#DejaVuSans-63" x="186.181641"/>
    <use xlink:href="#DejaVuSans-68" x="241.162109"/>
    <use xlink:href="#DejaVuSans-73" x="304.541016"/>
    <use xlink:href="#DejaVuSans-3a" x="356.640625"/>
    <use xlink:href="#DejaVuSans-20" x="390.332031"/>
    <use xlink:href="#DejaVuSans-35" x="422.119141"/>
   </g>
   <!-- separate_noise_output: None -->
   <g transform="translate(213.63125 173.635)scale(0.2 -0.2)">
    <use xlink:href="#DejaVuSans-73"/>
    <use xlink:href="#DejaVuSans-65" x="52.099609"/>
    <use xlink:href="#DejaVuSans-70" x="113.623047"/>
    <use xlink:href="#DejaVuSans-61" x="177.099609"/>
    <use xlink:href="#DejaVuSans-72" x="238.378906"/>
    <use xlink:href="#DejaVuSans-61" x="279.492188"/>
    <use xlink:href="#DejaVuSans-74" x="340.771484"/>
    <use xlink:href="#DejaVuSans-65" x="379.980469"/>
    <use xlink:href="#DejaVuSans-5f" x="441.503906"/>
    <use xlink:href="#DejaVuSans-6e" x="491.503906"/>
    <use xlink:href="#DejaVuSans-6f" x="554.882812"/>
    <use xlink:href="#DejaVuSans-69" x="616.064453"/>
    <use xlink:href="#DejaVuSans-73" x="643.847656"/>
    <use xlink:href="#DejaVuSans-65" x="695.947266"/>
    <use xlink:href="#DejaVuSans-5f" x="757.470703"/>
    <use xlink:href="#DejaVuSans-6f" x="807.470703"/>
    <use xlink:href="#DejaVuSans-75" x="868.652344"/>
    <use xlink:href="#DejaVuSans-74" x="932.03125"/>
    <use xlink:href="#DejaVuSans-70" x="971.240234"/>
    <use xlink:href="#DejaVuSans-75" x="1034.716797"/>
    <use xlink:href="#DejaVuSans-74" x="1098.095703"/>
    <use xlink:href="#DejaVuSans-3a" x="1137.304688"/>
    <use xlink:href="#DejaVuSans-20" x="1170.996094"/>
    <use xlink:href="#DejaVuSans-4e" x="1202.783203"/>
    <use xlink:href="#DejaVuSans-6f" x="1277.587891"/>
    <use xlink:href="#DejaVuSans-6e" x="1338.769531"/>
    <use xlink:href="#DejaVuSans-65" x="1402.148438"/>
   </g>
   <!-- runs: 1 -->
   <g transform="translate(325.095312 196.586875)scale(0.2 -0.2)">
    <use xlink:href="#DejaVuSans-72"/>
    <use xlink:href="#DejaVuSans-75" x="41.113281"/>
    <use xlink:href="#DejaVuSans-6e" x="104.492188"/>
    <use xlink:href="#DejaVuSans-73" x="167.871094"/>
    <use xlink:href="#DejaVuSans-3a" x="219.970703"/>
    <use xlink:href="#DejaVuSans-20" x="253.662109"/>
    <use xlink:href="#DejaVuSans-31" x="285.449219"/>
   </g>
  </g>
 </g>
 <defs>
  <clipPath id="pfa13ecc5fb">
   <rect x="79.33125" y="243.543125" width="629.86875" height="347.1175"/>
  </clipPath>
  <clipPath id="p8c5a733b2f">
   <rect x="79.33125" y="672.37" width="629.86875" height="347.1175"/>
  </clipPath>
 </defs>
</svg>
