<?xml version="1.0" encoding="utf-8" standalone="no"?>
<!DOCTYPE svg PUBLIC "-//W3C//DTD SVG 1.1//EN"
  "http://www.w3.org/Graphics/SVG/1.1/DTD/svg11.dtd">
<svg xmlns:xlink="http://www.w3.org/1999/xlink" width="720pt" height="1080pt" viewBox="0 0 720 1080" xmlns="http://www.w3.org/2000/svg" version="1.1">
 <metadata>
  <rdf:RDF xmlns:dc="http://purl.org/dc/elements/1.1/" xmlns:cc="http://creativecommons.org/ns#" xmlns:rdf="http://www.w3.org/1999/02/22-rdf-syntax-ns#">
   <cc:Work>
    <dc:type rdf:resource="http://purl.org/dc/dcmitype/StillImage"/>
    <dc:date>2024-01-26T18:23:51.795988</dc:date>
    <dc:format>image/svg+xml</dc:format>
    <dc:creator>
     <cc:Agent>
      <dc:title>Matplotlib v3.5.1, https://matplotlib.org/</dc:title>
     </cc:Agent>
    </dc:creator>
   </cc:Work>
  </rdf:RDF>
 </metadata>
 <defs>
  <style type="text/css">*{stroke-linejoin: round; stroke-linecap: butt}</style>
 </defs>
 <g id="figure_1">
  <g id="patch_1">
   <path d="M 0 1080 
L 720 1080 
L 720 0 
L 0 0 
L 0 1080 
z
" style="fill: none"/>
  </g>
  <g id="axes_1">
   <g id="patch_2">
    <path d="M 79.33125 590.660625 
L 709.2 590.660625 
L 709.2 243.543125 
L 79.33125 243.543125 
z
" style="fill: #ffffff"/>
   </g>
   <g id="matplotlib.axis_1">
    <g id="xtick_1">
     <g id="line2d_1">
      <path d="M 107.961648 590.660625 
L 107.961648 243.543125 
" clip-path="url(#pcc6b718e26)" style="fill: none; stroke: #b0b0b0; stroke-width: 0.8; stroke-linecap: square"/>
     </g>
     <g id="line2d_2">
      <defs>
       <path id="m8c790541ba" d="M 0 0 
L 0 3.5 
" style="stroke: #000000; stroke-width: 0.8"/>
      </defs>
      <g>
       <use xlink:href="#m8c790541ba" x="107.961648" y="590.660625" style="stroke: #000000; stroke-width: 0.8"/>
      </g>
     </g>
     <g id="text_1">
      <!-- 0 -->
      <g transform="translate(101.599148 612.8575)scale(0.2 -0.2)">
       <defs>
        <path id="DejaVuSans-30" d="M 2034 4250 
Q 1547 4250 1301 3770 
Q 1056 3291 1056 2328 
Q 1056 1369 1301 889 
Q 1547 409 2034 409 
Q 2525 409 2770 889 
Q 3016 1369 3016 2328 
Q 3016 3291 2770 3770 
Q 2525 4250 2034 4250 
z
M 2034 4750 
Q 2819 4750 3233 4129 
Q 3647 3509 3647 2328 
Q 3647 1150 3233 529 
Q 2819 -91 2034 -91 
Q 1250 -91 836 529 
Q 422 1150 422 2328 
Q 422 3509 836 4129 
Q 1250 4750 2034 4750 
z
" transform="scale(0.015625)"/>
       </defs>
       <use xlink:href="#DejaVuSans-30"/>
      </g>
     </g>
    </g>
    <g id="xtick_2">
     <g id="line2d_3">
      <path d="M 204.198279 590.660625 
L 204.198279 243.543125 
" clip-path="url(#pcc6b718e26)" style="fill: none; stroke: #b0b0b0; stroke-width: 0.8; stroke-linecap: square"/>
     </g>
     <g id="line2d_4">
      <g>
       <use xlink:href="#m8c790541ba" x="204.198279" y="590.660625" style="stroke: #000000; stroke-width: 0.8"/>
      </g>
     </g>
     <g id="text_2">
      <!-- 20 -->
      <g transform="translate(191.473279 612.8575)scale(0.2 -0.2)">
       <defs>
        <path id="DejaVuSans-32" d="M 1228 531 
L 3431 531 
L 3431 0 
L 469 0 
L 469 531 
Q 828 903 1448 1529 
Q 2069 2156 2228 2338 
Q 2531 2678 2651 2914 
Q 2772 3150 2772 3378 
Q 2772 3750 2511 3984 
Q 2250 4219 1831 4219 
Q 1534 4219 1204 4116 
Q 875 4013 500 3803 
L 500 4441 
Q 881 4594 1212 4672 
Q 1544 4750 1819 4750 
Q 2544 4750 2975 4387 
Q 3406 4025 3406 3419 
Q 3406 3131 3298 2873 
Q 3191 2616 2906 2266 
Q 2828 2175 2409 1742 
Q 1991 1309 1228 531 
z
" transform="scale(0.015625)"/>
       </defs>
       <use xlink:href="#DejaVuSans-32"/>
       <use xlink:href="#DejaVuSans-30" x="63.623047"/>
      </g>
     </g>
    </g>
    <g id="xtick_3">
     <g id="line2d_5">
      <path d="M 300.43491 590.660625 
L 300.43491 243.543125 
" clip-path="url(#pcc6b718e26)" style="fill: none; stroke: #b0b0b0; stroke-width: 0.8; stroke-linecap: square"/>
     </g>
     <g id="line2d_6">
      <g>
       <use xlink:href="#m8c790541ba" x="300.43491" y="590.660625" style="stroke: #000000; stroke-width: 0.8"/>
      </g>
     </g>
     <g id="text_3">
      <!-- 40 -->
      <g transform="translate(287.70991 612.8575)scale(0.2 -0.2)">
       <defs>
        <path id="DejaVuSans-34" d="M 2419 4116 
L 825 1625 
L 2419 1625 
L 2419 4116 
z
M 2253 4666 
L 3047 4666 
L 3047 1625 
L 3713 1625 
L 3713 1100 
L 3047 1100 
L 3047 0 
L 2419 0 
L 2419 1100 
L 313 1100 
L 313 1709 
L 2253 4666 
z
" transform="scale(0.015625)"/>
       </defs>
       <use xlink:href="#DejaVuSans-34"/>
       <use xlink:href="#DejaVuSans-30" x="63.623047"/>
      </g>
     </g>
    </g>
    <g id="xtick_4">
     <g id="line2d_7">
      <path d="M 396.671541 590.660625 
L 396.671541 243.543125 
" clip-path="url(#pcc6b718e26)" style="fill: none; stroke: #b0b0b0; stroke-width: 0.8; stroke-linecap: square"/>
     </g>
     <g id="line2d_8">
      <g>
       <use xlink:href="#m8c790541ba" x="396.671541" y="590.660625" style="stroke: #000000; stroke-width: 0.8"/>
      </g>
     </g>
     <g id="text_4">
      <!-- 60 -->
      <g transform="translate(383.946541 612.8575)scale(0.2 -0.2)">
       <defs>
        <path id="DejaVuSans-36" d="M 2113 2584 
Q 1688 2584 1439 2293 
Q 1191 2003 1191 1497 
Q 1191 994 1439 701 
Q 1688 409 2113 409 
Q 2538 409 2786 701 
Q 3034 994 3034 1497 
Q 3034 2003 2786 2293 
Q 2538 2584 2113 2584 
z
M 3366 4563 
L 3366 3988 
Q 3128 4100 2886 4159 
Q 2644 4219 2406 4219 
Q 1781 4219 1451 3797 
Q 1122 3375 1075 2522 
Q 1259 2794 1537 2939 
Q 1816 3084 2150 3084 
Q 2853 3084 3261 2657 
Q 3669 2231 3669 1497 
Q 3669 778 3244 343 
Q 2819 -91 2113 -91 
Q 1303 -91 875 529 
Q 447 1150 447 2328 
Q 447 3434 972 4092 
Q 1497 4750 2381 4750 
Q 2619 4750 2861 4703 
Q 3103 4656 3366 4563 
z
" transform="scale(0.015625)"/>
       </defs>
       <use xlink:href="#DejaVuSans-36"/>
       <use xlink:href="#DejaVuSans-30" x="63.623047"/>
      </g>
     </g>
    </g>
    <g id="xtick_5">
     <g id="line2d_9">
      <path d="M 492.908172 590.660625 
L 492.908172 243.543125 
" clip-path="url(#pcc6b718e26)" style="fill: none; stroke: #b0b0b0; stroke-width: 0.8; stroke-linecap: square"/>
     </g>
     <g id="line2d_10">
      <g>
       <use xlink:href="#m8c790541ba" x="492.908172" y="590.660625" style="stroke: #000000; stroke-width: 0.8"/>
      </g>
     </g>
     <g id="text_5">
      <!-- 80 -->
      <g transform="translate(480.183172 612.8575)scale(0.2 -0.2)">
       <defs>
        <path id="DejaVuSans-38" d="M 2034 2216 
Q 1584 2216 1326 1975 
Q 1069 1734 1069 1313 
Q 1069 891 1326 650 
Q 1584 409 2034 409 
Q 2484 409 2743 651 
Q 3003 894 3003 1313 
Q 3003 1734 2745 1975 
Q 2488 2216 2034 2216 
z
M 1403 2484 
Q 997 2584 770 2862 
Q 544 3141 544 3541 
Q 544 4100 942 4425 
Q 1341 4750 2034 4750 
Q 2731 4750 3128 4425 
Q 3525 4100 3525 3541 
Q 3525 3141 3298 2862 
Q 3072 2584 2669 2484 
Q 3125 2378 3379 2068 
Q 3634 1759 3634 1313 
Q 3634 634 3220 271 
Q 2806 -91 2034 -91 
Q 1263 -91 848 271 
Q 434 634 434 1313 
Q 434 1759 690 2068 
Q 947 2378 1403 2484 
z
M 1172 3481 
Q 1172 3119 1398 2916 
Q 1625 2713 2034 2713 
Q 2441 2713 2670 2916 
Q 2900 3119 2900 3481 
Q 2900 3844 2670 4047 
Q 2441 4250 2034 4250 
Q 1625 4250 1398 4047 
Q 1172 3844 1172 3481 
z
" transform="scale(0.015625)"/>
       </defs>
       <use xlink:href="#DejaVuSans-38"/>
       <use xlink:href="#DejaVuSans-30" x="63.623047"/>
      </g>
     </g>
    </g>
    <g id="xtick_6">
     <g id="line2d_11">
      <path d="M 589.144803 590.660625 
L 589.144803 243.543125 
" clip-path="url(#pcc6b718e26)" style="fill: none; stroke: #b0b0b0; stroke-width: 0.8; stroke-linecap: square"/>
     </g>
     <g id="line2d_12">
      <g>
       <use xlink:href="#m8c790541ba" x="589.144803" y="590.660625" style="stroke: #000000; stroke-width: 0.8"/>
      </g>
     </g>
     <g id="text_6">
      <!-- 100 -->
      <g transform="translate(570.057303 612.8575)scale(0.2 -0.2)">
       <defs>
        <path id="DejaVuSans-31" d="M 794 531 
L 1825 531 
L 1825 4091 
L 703 3866 
L 703 4441 
L 1819 4666 
L 2450 4666 
L 2450 531 
L 3481 531 
L 3481 0 
L 794 0 
L 794 531 
z
" transform="scale(0.015625)"/>
       </defs>
       <use xlink:href="#DejaVuSans-31"/>
       <use xlink:href="#DejaVuSans-30" x="63.623047"/>
       <use xlink:href="#DejaVuSans-30" x="127.246094"/>
      </g>
     </g>
    </g>
    <g id="xtick_7">
     <g id="line2d_13">
      <path d="M 685.381434 590.660625 
L 685.381434 243.543125 
" clip-path="url(#pcc6b718e26)" style="fill: none; stroke: #b0b0b0; stroke-width: 0.8; stroke-linecap: square"/>
     </g>
     <g id="line2d_14">
      <g>
       <use xlink:href="#m8c790541ba" x="685.381434" y="590.660625" style="stroke: #000000; stroke-width: 0.8"/>
      </g>
     </g>
     <g id="text_7">
      <!-- 120 -->
      <g transform="translate(666.293934 612.8575)scale(0.2 -0.2)">
       <use xlink:href="#DejaVuSans-31"/>
       <use xlink:href="#DejaVuSans-32" x="63.623047"/>
       <use xlink:href="#DejaVuSans-30" x="127.246094"/>
      </g>
     </g>
    </g>
    <g id="text_8">
     <!-- step -->
     <g transform="translate(372.634375 636.21375)scale(0.2 -0.2)">
      <defs>
       <path id="DejaVuSans-73" d="M 2834 3397 
L 2834 2853 
Q 2591 2978 2328 3040 
Q 2066 3103 1784 3103 
Q 1356 3103 1142 2972 
Q 928 2841 928 2578 
Q 928 2378 1081 2264 
Q 1234 2150 1697 2047 
L 1894 2003 
Q 2506 1872 2764 1633 
Q 3022 1394 3022 966 
Q 3022 478 2636 193 
Q 2250 -91 1575 -91 
Q 1294 -91 989 -36 
Q 684 19 347 128 
L 347 722 
Q 666 556 975 473 
Q 1284 391 1588 391 
Q 1994 391 2212 530 
Q 2431 669 2431 922 
Q 2431 1156 2273 1281 
Q 2116 1406 1581 1522 
L 1381 1569 
Q 847 1681 609 1914 
Q 372 2147 372 2553 
Q 372 3047 722 3315 
Q 1072 3584 1716 3584 
Q 2034 3584 2315 3537 
Q 2597 3491 2834 3397 
z
" transform="scale(0.015625)"/>
       <path id="DejaVuSans-74" d="M 1172 4494 
L 1172 3500 
L 2356 3500 
L 2356 3053 
L 1172 3053 
L 1172 1153 
Q 1172 725 1289 603 
Q 1406 481 1766 481 
L 2356 481 
L 2356 0 
L 1766 0 
Q 1100 0 847 248 
Q 594 497 594 1153 
L 594 3053 
L 172 3053 
L 172 3500 
L 594 3500 
L 594 4494 
L 1172 4494 
z
" transform="scale(0.015625)"/>
       <path id="DejaVuSans-65" d="M 3597 1894 
L 3597 1613 
L 953 1613 
Q 991 1019 1311 708 
Q 1631 397 2203 397 
Q 2534 397 2845 478 
Q 3156 559 3463 722 
L 3463 178 
Q 3153 47 2828 -22 
Q 2503 -91 2169 -91 
Q 1331 -91 842 396 
Q 353 884 353 1716 
Q 353 2575 817 3079 
Q 1281 3584 2069 3584 
Q 2775 3584 3186 3129 
Q 3597 2675 3597 1894 
z
M 3022 2063 
Q 3016 2534 2758 2815 
Q 2500 3097 2075 3097 
Q 1594 3097 1305 2825 
Q 1016 2553 972 2059 
L 3022 2063 
z
" transform="scale(0.015625)"/>
       <path id="DejaVuSans-70" d="M 1159 525 
L 1159 -1331 
L 581 -1331 
L 581 3500 
L 1159 3500 
L 1159 2969 
Q 1341 3281 1617 3432 
Q 1894 3584 2278 3584 
Q 2916 3584 3314 3078 
Q 3713 2572 3713 1747 
Q 3713 922 3314 415 
Q 2916 -91 2278 -91 
Q 1894 -91 1617 61 
Q 1341 213 1159 525 
z
M 3116 1747 
Q 3116 2381 2855 2742 
Q 2594 3103 2138 3103 
Q 1681 3103 1420 2742 
Q 1159 2381 1159 1747 
Q 1159 1113 1420 752 
Q 1681 391 2138 391 
Q 2594 391 2855 752 
Q 3116 1113 3116 1747 
z
" transform="scale(0.015625)"/>
      </defs>
      <use xlink:href="#DejaVuSans-73"/>
      <use xlink:href="#DejaVuSans-74" x="52.099609"/>
      <use xlink:href="#DejaVuSans-65" x="91.308594"/>
      <use xlink:href="#DejaVuSans-70" x="152.832031"/>
     </g>
    </g>
   </g>
   <g id="matplotlib.axis_2">
    <g id="ytick_1">
     <g id="line2d_15">
      <path d="M 79.33125 590.660625 
L 709.2 590.660625 
" clip-path="url(#pcc6b718e26)" style="fill: none; stroke: #b0b0b0; stroke-width: 0.8; stroke-linecap: square"/>
     </g>
     <g id="line2d_16">
      <defs>
       <path id="m0630a20d88" d="M 0 0 
L -3.5 0 
" style="stroke: #000000; stroke-width: 0.8"/>
      </defs>
      <g>
       <use xlink:href="#m0630a20d88" x="79.33125" y="590.660625" style="stroke: #000000; stroke-width: 0.8"/>
      </g>
     </g>
     <g id="text_9">
      <!-- 30 -->
      <g transform="translate(46.88125 598.259063)scale(0.2 -0.2)">
       <defs>
        <path id="DejaVuSans-33" d="M 2597 2516 
Q 3050 2419 3304 2112 
Q 3559 1806 3559 1356 
Q 3559 666 3084 287 
Q 2609 -91 1734 -91 
Q 1441 -91 1130 -33 
Q 819 25 488 141 
L 488 750 
Q 750 597 1062 519 
Q 1375 441 1716 441 
Q 2309 441 2620 675 
Q 2931 909 2931 1356 
Q 2931 1769 2642 2001 
Q 2353 2234 1838 2234 
L 1294 2234 
L 1294 2753 
L 1863 2753 
Q 2328 2753 2575 2939 
Q 2822 3125 2822 3475 
Q 2822 3834 2567 4026 
Q 2313 4219 1838 4219 
Q 1578 4219 1281 4162 
Q 984 4106 628 3988 
L 628 4550 
Q 988 4650 1302 4700 
Q 1616 4750 1894 4750 
Q 2613 4750 3031 4423 
Q 3450 4097 3450 3541 
Q 3450 3153 3228 2886 
Q 3006 2619 2597 2516 
z
" transform="scale(0.015625)"/>
       </defs>
       <use xlink:href="#DejaVuSans-33"/>
       <use xlink:href="#DejaVuSans-30" x="63.623047"/>
      </g>
     </g>
    </g>
    <g id="ytick_2">
     <g id="line2d_17">
      <path d="M 79.33125 541.072411 
L 709.2 541.072411 
" clip-path="url(#pcc6b718e26)" style="fill: none; stroke: #b0b0b0; stroke-width: 0.8; stroke-linecap: square"/>
     </g>
     <g id="line2d_18">
      <g>
       <use xlink:href="#m0630a20d88" x="79.33125" y="541.072411" style="stroke: #000000; stroke-width: 0.8"/>
      </g>
     </g>
     <g id="text_10">
      <!-- 40 -->
      <g transform="translate(46.88125 548.670848)scale(0.2 -0.2)">
       <use xlink:href="#DejaVuSans-34"/>
       <use xlink:href="#DejaVuSans-30" x="63.623047"/>
      </g>
     </g>
    </g>
    <g id="ytick_3">
     <g id="line2d_19">
      <path d="M 79.33125 491.484196 
L 709.2 491.484196 
" clip-path="url(#pcc6b718e26)" style="fill: none; stroke: #b0b0b0; stroke-width: 0.8; stroke-linecap: square"/>
     </g>
     <g id="line2d_20">
      <g>
       <use xlink:href="#m0630a20d88" x="79.33125" y="491.484196" style="stroke: #000000; stroke-width: 0.8"/>
      </g>
     </g>
     <g id="text_11">
      <!-- 50 -->
      <g transform="translate(46.88125 499.082634)scale(0.2 -0.2)">
       <defs>
        <path id="DejaVuSans-35" d="M 691 4666 
L 3169 4666 
L 3169 4134 
L 1269 4134 
L 1269 2991 
Q 1406 3038 1543 3061 
Q 1681 3084 1819 3084 
Q 2600 3084 3056 2656 
Q 3513 2228 3513 1497 
Q 3513 744 3044 326 
Q 2575 -91 1722 -91 
Q 1428 -91 1123 -41 
Q 819 9 494 109 
L 494 744 
Q 775 591 1075 516 
Q 1375 441 1709 441 
Q 2250 441 2565 725 
Q 2881 1009 2881 1497 
Q 2881 1984 2565 2268 
Q 2250 2553 1709 2553 
Q 1456 2553 1204 2497 
Q 953 2441 691 2322 
L 691 4666 
z
" transform="scale(0.015625)"/>
       </defs>
       <use xlink:href="#DejaVuSans-35"/>
       <use xlink:href="#DejaVuSans-30" x="63.623047"/>
      </g>
     </g>
    </g>
    <g id="ytick_4">
     <g id="line2d_21">
      <path d="M 79.33125 441.895982 
L 709.2 441.895982 
" clip-path="url(#pcc6b718e26)" style="fill: none; stroke: #b0b0b0; stroke-width: 0.8; stroke-linecap: square"/>
     </g>
     <g id="line2d_22">
      <g>
       <use xlink:href="#m0630a20d88" x="79.33125" y="441.895982" style="stroke: #000000; stroke-width: 0.8"/>
      </g>
     </g>
     <g id="text_12">
      <!-- 60 -->
      <g transform="translate(46.88125 449.49442)scale(0.2 -0.2)">
       <use xlink:href="#DejaVuSans-36"/>
       <use xlink:href="#DejaVuSans-30" x="63.623047"/>
      </g>
     </g>
    </g>
    <g id="ytick_5">
     <g id="line2d_23">
      <path d="M 79.33125 392.307768 
L 709.2 392.307768 
" clip-path="url(#pcc6b718e26)" style="fill: none; stroke: #b0b0b0; stroke-width: 0.8; stroke-linecap: square"/>
     </g>
     <g id="line2d_24">
      <g>
       <use xlink:href="#m0630a20d88" x="79.33125" y="392.307768" style="stroke: #000000; stroke-width: 0.8"/>
      </g>
     </g>
     <g id="text_13">
      <!-- 70 -->
      <g transform="translate(46.88125 399.906205)scale(0.2 -0.2)">
       <defs>
        <path id="DejaVuSans-37" d="M 525 4666 
L 3525 4666 
L 3525 4397 
L 1831 0 
L 1172 0 
L 2766 4134 
L 525 4134 
L 525 4666 
z
" transform="scale(0.015625)"/>
       </defs>
       <use xlink:href="#DejaVuSans-37"/>
       <use xlink:href="#DejaVuSans-30" x="63.623047"/>
      </g>
     </g>
    </g>
    <g id="ytick_6">
     <g id="line2d_25">
      <path d="M 79.33125 342.719554 
L 709.2 342.719554 
" clip-path="url(#pcc6b718e26)" style="fill: none; stroke: #b0b0b0; stroke-width: 0.8; stroke-linecap: square"/>
     </g>
     <g id="line2d_26">
      <g>
       <use xlink:href="#m0630a20d88" x="79.33125" y="342.719554" style="stroke: #000000; stroke-width: 0.8"/>
      </g>
     </g>
     <g id="text_14">
      <!-- 80 -->
      <g transform="translate(46.88125 350.317991)scale(0.2 -0.2)">
       <use xlink:href="#DejaVuSans-38"/>
       <use xlink:href="#DejaVuSans-30" x="63.623047"/>
      </g>
     </g>
    </g>
    <g id="ytick_7">
     <g id="line2d_27">
      <path d="M 79.33125 293.131339 
L 709.2 293.131339 
" clip-path="url(#pcc6b718e26)" style="fill: none; stroke: #b0b0b0; stroke-width: 0.8; stroke-linecap: square"/>
     </g>
     <g id="line2d_28">
      <g>
       <use xlink:href="#m0630a20d88" x="79.33125" y="293.131339" style="stroke: #000000; stroke-width: 0.8"/>
      </g>
     </g>
     <g id="text_15">
      <!-- 90 -->
      <g transform="translate(46.88125 300.729777)scale(0.2 -0.2)">
       <defs>
        <path id="DejaVuSans-39" d="M 703 97 
L 703 672 
Q 941 559 1184 500 
Q 1428 441 1663 441 
Q 2288 441 2617 861 
Q 2947 1281 2994 2138 
Q 2813 1869 2534 1725 
Q 2256 1581 1919 1581 
Q 1219 1581 811 2004 
Q 403 2428 403 3163 
Q 403 3881 828 4315 
Q 1253 4750 1959 4750 
Q 2769 4750 3195 4129 
Q 3622 3509 3622 2328 
Q 3622 1225 3098 567 
Q 2575 -91 1691 -91 
Q 1453 -91 1209 -44 
Q 966 3 703 97 
z
M 1959 2075 
Q 2384 2075 2632 2365 
Q 2881 2656 2881 3163 
Q 2881 3666 2632 3958 
Q 2384 4250 1959 4250 
Q 1534 4250 1286 3958 
Q 1038 3666 1038 3163 
Q 1038 2656 1286 2365 
Q 1534 2075 1959 2075 
z
" transform="scale(0.015625)"/>
       </defs>
       <use xlink:href="#DejaVuSans-39"/>
       <use xlink:href="#DejaVuSans-30" x="63.623047"/>
      </g>
     </g>
    </g>
    <g id="ytick_8">
     <g id="line2d_29">
      <path d="M 79.33125 243.543125 
L 709.2 243.543125 
" clip-path="url(#pcc6b718e26)" style="fill: none; stroke: #b0b0b0; stroke-width: 0.8; stroke-linecap: square"/>
     </g>
     <g id="line2d_30">
      <g>
       <use xlink:href="#m0630a20d88" x="79.33125" y="243.543125" style="stroke: #000000; stroke-width: 0.8"/>
      </g>
     </g>
     <g id="text_16">
      <!-- 100 -->
      <g transform="translate(34.15625 251.141562)scale(0.2 -0.2)">
       <use xlink:href="#DejaVuSans-31"/>
       <use xlink:href="#DejaVuSans-30" x="63.623047"/>
       <use xlink:href="#DejaVuSans-30" x="127.246094"/>
      </g>
     </g>
    </g>
    <g id="text_17">
     <!-- accuracy [%] -->
     <g transform="translate(25.996875 482.703437)rotate(-90)scale(0.2 -0.2)">
      <defs>
       <path id="DejaVuSans-61" d="M 2194 1759 
Q 1497 1759 1228 1600 
Q 959 1441 959 1056 
Q 959 750 1161 570 
Q 1363 391 1709 391 
Q 2188 391 2477 730 
Q 2766 1069 2766 1631 
L 2766 1759 
L 2194 1759 
z
M 3341 1997 
L 3341 0 
L 2766 0 
L 2766 531 
Q 2569 213 2275 61 
Q 1981 -91 1556 -91 
Q 1019 -91 701 211 
Q 384 513 384 1019 
Q 384 1609 779 1909 
Q 1175 2209 1959 2209 
L 2766 2209 
L 2766 2266 
Q 2766 2663 2505 2880 
Q 2244 3097 1772 3097 
Q 1472 3097 1187 3025 
Q 903 2953 641 2809 
L 641 3341 
Q 956 3463 1253 3523 
Q 1550 3584 1831 3584 
Q 2591 3584 2966 3190 
Q 3341 2797 3341 1997 
z
" transform="scale(0.015625)"/>
       <path id="DejaVuSans-63" d="M 3122 3366 
L 3122 2828 
Q 2878 2963 2633 3030 
Q 2388 3097 2138 3097 
Q 1578 3097 1268 2742 
Q 959 2388 959 1747 
Q 959 1106 1268 751 
Q 1578 397 2138 397 
Q 2388 397 2633 464 
Q 2878 531 3122 666 
L 3122 134 
Q 2881 22 2623 -34 
Q 2366 -91 2075 -91 
Q 1284 -91 818 406 
Q 353 903 353 1747 
Q 353 2603 823 3093 
Q 1294 3584 2113 3584 
Q 2378 3584 2631 3529 
Q 2884 3475 3122 3366 
z
" transform="scale(0.015625)"/>
       <path id="DejaVuSans-75" d="M 544 1381 
L 544 3500 
L 1119 3500 
L 1119 1403 
Q 1119 906 1312 657 
Q 1506 409 1894 409 
Q 2359 409 2629 706 
Q 2900 1003 2900 1516 
L 2900 3500 
L 3475 3500 
L 3475 0 
L 2900 0 
L 2900 538 
Q 2691 219 2414 64 
Q 2138 -91 1772 -91 
Q 1169 -91 856 284 
Q 544 659 544 1381 
z
M 1991 3584 
L 1991 3584 
z
" transform="scale(0.015625)"/>
       <path id="DejaVuSans-72" d="M 2631 2963 
Q 2534 3019 2420 3045 
Q 2306 3072 2169 3072 
Q 1681 3072 1420 2755 
Q 1159 2438 1159 1844 
L 1159 0 
L 581 0 
L 581 3500 
L 1159 3500 
L 1159 2956 
Q 1341 3275 1631 3429 
Q 1922 3584 2338 3584 
Q 2397 3584 2469 3576 
Q 2541 3569 2628 3553 
L 2631 2963 
z
" transform="scale(0.015625)"/>
       <path id="DejaVuSans-79" d="M 2059 -325 
Q 1816 -950 1584 -1140 
Q 1353 -1331 966 -1331 
L 506 -1331 
L 506 -850 
L 844 -850 
Q 1081 -850 1212 -737 
Q 1344 -625 1503 -206 
L 1606 56 
L 191 3500 
L 800 3500 
L 1894 763 
L 2988 3500 
L 3597 3500 
L 2059 -325 
z
" transform="scale(0.015625)"/>
       <path id="DejaVuSans-20" transform="scale(0.015625)"/>
       <path id="DejaVuSans-5b" d="M 550 4863 
L 1875 4863 
L 1875 4416 
L 1125 4416 
L 1125 -397 
L 1875 -397 
L 1875 -844 
L 550 -844 
L 550 4863 
z
" transform="scale(0.015625)"/>
       <path id="DejaVuSans-25" d="M 4653 2053 
Q 4381 2053 4226 1822 
Q 4072 1591 4072 1178 
Q 4072 772 4226 539 
Q 4381 306 4653 306 
Q 4919 306 5073 539 
Q 5228 772 5228 1178 
Q 5228 1588 5073 1820 
Q 4919 2053 4653 2053 
z
M 4653 2450 
Q 5147 2450 5437 2106 
Q 5728 1763 5728 1178 
Q 5728 594 5436 251 
Q 5144 -91 4653 -91 
Q 4153 -91 3862 251 
Q 3572 594 3572 1178 
Q 3572 1766 3864 2108 
Q 4156 2450 4653 2450 
z
M 1428 4353 
Q 1159 4353 1004 4120 
Q 850 3888 850 3481 
Q 850 3069 1003 2837 
Q 1156 2606 1428 2606 
Q 1700 2606 1854 2837 
Q 2009 3069 2009 3481 
Q 2009 3884 1853 4118 
Q 1697 4353 1428 4353 
z
M 4250 4750 
L 4750 4750 
L 1831 -91 
L 1331 -91 
L 4250 4750 
z
M 1428 4750 
Q 1922 4750 2215 4408 
Q 2509 4066 2509 3481 
Q 2509 2891 2217 2550 
Q 1925 2209 1428 2209 
Q 931 2209 642 2551 
Q 353 2894 353 3481 
Q 353 4063 643 4406 
Q 934 4750 1428 4750 
z
" transform="scale(0.015625)"/>
       <path id="DejaVuSans-5d" d="M 1947 4863 
L 1947 -844 
L 622 -844 
L 622 -397 
L 1369 -397 
L 1369 4416 
L 622 4416 
L 622 4863 
L 1947 4863 
z
" transform="scale(0.015625)"/>
      </defs>
      <use xlink:href="#DejaVuSans-61"/>
      <use xlink:href="#DejaVuSans-63" x="61.279297"/>
      <use xlink:href="#DejaVuSans-63" x="116.259766"/>
      <use xlink:href="#DejaVuSans-75" x="171.240234"/>
      <use xlink:href="#DejaVuSans-72" x="234.619141"/>
      <use xlink:href="#DejaVuSans-61" x="275.732422"/>
      <use xlink:href="#DejaVuSans-63" x="337.011719"/>
      <use xlink:href="#DejaVuSans-79" x="391.992188"/>
      <use xlink:href="#DejaVuSans-20" x="451.171875"/>
      <use xlink:href="#DejaVuSans-5b" x="482.958984"/>
      <use xlink:href="#DejaVuSans-25" x="521.972656"/>
      <use xlink:href="#DejaVuSans-5d" x="616.992188"/>
     </g>
    </g>
   </g>
   <g id="line2d_31">
    <path d="M 107.961648 481.516974 
L 112.773479 491.484196 
L 117.585311 488.062616 
L 122.397142 394.340903 
L 127.208974 387.299348 
L 132.020805 396.522759 
L 136.832637 412.49017 
L 141.644469 390.621787 
L 146.4563 458.656804 
L 151.268132 413.382759 
L 156.079963 431.978339 
L 160.891795 434.953625 
L 165.703626 357.000946 
L 170.515458 438.375223 
L 175.327289 451.020214 
L 180.139121 350.703259 
L 184.950953 413.184402 
L 189.762784 411.845536 
L 194.574616 383.927348 
L 199.386447 379.613197 
L 204.198279 358.637366 
L 209.01011 398.754251 
L 213.821942 376.538714 
L 218.633773 403.365956 
L 223.445605 373.41467 
L 228.257436 355.910037 
L 233.069268 394.935937 
L 237.8811 367.116946 
L 242.692931 368.158294 
L 247.504763 337.264858 
L 252.316594 351.54625 
L 257.128426 358.786124 
L 261.940257 467.285143 
L 266.752089 393.398715 
L 271.56392 354.91825 
L 276.375752 341.529447 
L 281.187584 372.571642 
L 285.999415 343.116268 
L 290.811247 332.107679 
L 295.623078 371.976608 
L 300.43491 345.694839 
L 305.246741 359.480356 
L 310.058573 359.976269 
L 314.870404 362.45568 
L 319.682236 359.034081 
L 324.494068 375.646125 
L 329.305899 377.67926 
L 334.117731 378.373492 
L 338.929562 424.540107 
L 343.741394 378.52225 
L 348.553225 398.903009 
L 353.365057 367.216144 
L 358.176888 397.762464 
L 362.98872 394.63842 
L 367.800551 377.133786 
L 372.612383 381.943849 
L 377.424215 376.191598 
L 382.236046 371.331937 
L 387.047878 369.199642 
L 391.859709 384.919135 
L 396.671541 389.977116 
L 401.483372 371.331937 
L 406.295204 392.059812 
L 411.107035 371.679053 
L 415.918867 390.671348 
L 420.730699 357.794375 
L 425.54253 363.447429 
L 430.354362 357.843974 
L 435.166193 373.067554 
L 439.978025 372.274125 
L 444.789856 387.249787 
L 449.601688 375.745322 
L 454.413519 385.563768 
L 459.225351 373.166714 
L 464.037182 370.885661 
L 468.849014 365.232607 
L 473.660846 384.472821 
L 478.472677 379.861115 
L 483.284509 370.488946 
L 488.09634 379.315642 
L 492.908172 421.416063 
L 497.720003 450.127625 
L 502.531835 450.425161 
L 507.343666 462.772616 
L 512.155498 478.442491 
L 516.96733 468.425669 
L 521.779161 490.690786 
L 526.590993 473.731607 
L 531.402824 488.70725 
L 536.214656 473.781205 
L 541.026487 486.723732 
L 545.838319 489.153544 
L 550.65015 472.739857 
L 555.461982 474.772974 
L 560.273814 489.50066 
L 565.085645 465.7975 
L 569.897477 483.103795 
L 574.709308 484.988134 
L 579.52114 459.896509 
L 584.332971 470.161268 
L 589.144803 458.012152 
L 593.956634 467.185964 
L 598.768466 476.310196 
L 603.580297 485.434428 
L 608.392129 471.698491 
L 613.203961 456.574089 
L 618.015792 479.186322 
L 622.827624 476.855669 
L 627.639455 477.004447 
L 632.451287 457.565857 
L 637.263118 444.524151 
L 642.07495 454.540973 
L 646.886781 450.6235 
L 651.698613 466.293374 
L 656.510445 474.078742 
L 661.322276 476.111858 
L 666.134108 466.293374 
L 670.945939 451.863205 
L 675.757771 435.647875 
L 680.569602 462.078384 
" clip-path="url(#pcc6b718e26)" style="fill: none; stroke: #1f77b4; stroke-width: 1.5; stroke-linecap: square"/>
   </g>
   <g id="line2d_32">
    <path d="M 107.961648 490.591607 
L 112.773479 489.054366 
L 117.585311 489.45108 
L 122.397142 487.517143 
L 127.208974 486.227839 
L 132.020805 487.070848 
L 136.832637 482.6575 
L 141.644469 484.244322 
L 146.4563 483.59967 
L 151.268132 486.97167 
L 156.079963 483.500491 
L 160.891795 483.698848 
L 165.703626 484.690616 
L 170.515458 483.847607 
L 175.327289 480.872322 
L 180.139121 482.6575 
L 184.950953 476.905268 
L 189.762784 487.070848 
L 194.574616 484.740196 
L 199.386447 489.798196 
L 204.198279 482.459143 
L 209.01011 483.59967 
L 213.821942 483.996384 
L 218.633773 486.07908 
L 223.445605 489.550259 
L 228.257436 483.351732 
L 233.069268 481.467375 
L 237.8811 478.938384 
L 242.692931 485.880723 
L 247.504763 481.566554 
L 252.316594 485.930322 
L 257.128426 486.97167 
L 261.940257 488.806428 
L 266.752089 488.260955 
L 271.56392 487.120428 
L 276.375752 487.665902 
L 281.187584 485.037732 
L 285.999415 488.856027 
L 290.811247 479.483858 
L 295.623078 482.409544 
L 300.43491 370.14183 
L 305.246741 415.316696 
L 310.058573 403.465116 
L 314.870404 354.81909 
L 319.682236 372.125366 
L 324.494068 336.868143 
L 329.305899 341.678206 
L 334.117731 360.620902 
L 338.929562 422.65575 
L 343.741394 325.909152 
L 348.553225 325.809954 
L 353.365057 305.379634 
L 358.176888 332.206839 
L 362.98872 401.927894 
L 367.800551 295.70991 
L 372.612383 328.190205 
L 377.424215 316.784901 
L 382.236046 327.148857 
L 387.047878 326.9505 
L 391.859709 340.388901 
L 396.671541 308.454079 
L 401.483372 331.611804 
L 406.295204 397.663304 
L 411.107035 357.596018 
L 415.918867 337.562375 
L 420.730699 284.850117 
L 425.54253 366.67067 
L 430.354362 281.676474 
L 435.166193 294.371045 
L 439.978025 316.586581 
L 444.789856 297.048813 
L 449.601688 337.413616 
L 454.413519 315.09892 
L 459.225351 385.563768 
L 464.037182 319.115553 
L 468.849014 341.231892 
L 473.660846 339.397152 
L 478.472677 304.387847 
L 483.284509 309.941741 
L 488.09634 289.957697 
L 492.908172 425.779812 
L 497.720003 459.747732 
L 502.531835 450.474741 
L 507.343666 450.474741 
L 512.155498 469.863732 
L 516.96733 452.854973 
L 521.779161 484.095544 
L 526.590993 479.830974 
L 531.402824 476.409375 
L 536.214656 470.458785 
L 541.026487 478.839206 
L 545.838319 478.640848 
L 550.65015 464.855331 
L 555.461982 481.91367 
L 560.273814 482.6575 
L 565.085645 477.153206 
L 569.897477 478.987964 
L 574.709308 482.855839 
L 579.52114 477.054027 
L 584.332971 472.839036 
L 589.144803 437.532214 
L 593.956634 458.408867 
L 598.768466 482.211206 
L 603.580297 485.632786 
L 608.392129 454.73933 
L 613.203961 471.450553 
L 618.015792 479.880554 
L 622.827624 473.037375 
L 627.639455 477.301964 
L 632.451287 469.268679 
L 637.263118 461.731268 
L 642.07495 458.904741 
L 646.886781 386.010081 
L 651.698613 485.28567 
L 656.510445 484.145143 
L 661.322276 467.880215 
L 666.134108 477.64908 
L 670.945939 465.301625 
L 675.757771 455.433562 
L 680.569602 484.988134 
" clip-path="url(#pcc6b718e26)" style="fill: none; stroke: #ff7f0e; stroke-width: 1.5; stroke-linecap: square"/>
   </g>
   <g id="line2d_33">
    <path d="M 107.961648 485.930322 
L 112.773479 500.50925 
L 117.585311 503.187018 
L 122.397142 506.410241 
L 127.208974 488.70725 
L 132.020805 496.988491 
L 136.832637 483.897206 
L 141.644469 496.839733 
L 146.4563 498.872849 
L 151.268132 485.731964 
L 156.079963 486.376616 
L 160.891795 473.880384 
L 165.703626 474.624196 
L 170.515458 473.781205 
L 175.327289 490.641206 
L 180.139121 469.467036 
L 184.950953 473.136553 
L 189.762784 456.673268 
L 194.574616 465.499964 
L 199.386447 468.376089 
L 204.198279 469.913331 
L 209.01011 491.632955 
L 213.821942 494.707438 
L 218.633773 493.616491 
L 223.445605 482.359964 
L 228.257436 474.723375 
L 233.069268 458.508026 
L 237.8811 484.641018 
L 242.692931 477.64908 
L 247.504763 462.871795 
L 252.316594 487.269206 
L 257.128426 477.351563 
L 261.940257 477.5995 
L 266.752089 487.864259 
L 271.56392 481.368196 
L 276.375752 488.360134 
L 281.187584 478.640848 
L 285.999415 480.326848 
L 290.811247 483.153375 
L 295.623078 476.161437 
L 300.43491 480.921901 
L 305.246741 466.838848 
L 310.058573 459.251857 
L 314.870404 460.987437 
L 319.682236 469.318259 
L 324.494068 473.533268 
L 329.305899 462.227142 
L 334.117731 470.111669 
L 338.929562 467.632259 
L 343.741394 462.970973 
L 348.553225 467.880215 
L 353.365057 458.408867 
L 358.176888 457.863393 
L 362.98872 464.260258 
L 367.800551 466.194215 
L 372.612383 468.425669 
L 377.424215 476.161437 
L 382.236046 468.425669 
L 387.047878 471.202616 
L 391.859709 464.656973 
L 396.671541 474.27708 
L 401.483372 472.293563 
L 406.295204 454.937688 
L 411.107035 470.310027 
L 415.918867 480.921901 
L 420.730699 477.004447 
L 425.54253 476.954848 
L 430.354362 468.971143 
L 435.166193 468.524848 
L 439.978025 474.475437 
L 444.789856 461.780848 
L 449.601688 471.847268 
L 454.413519 453.9955 
L 459.225351 477.996196 
L 464.037182 469.665375 
L 468.849014 464.161099 
L 473.660846 470.756321 
L 478.472677 461.185794 
L 483.284509 465.351205 
L 488.09634 463.268509 
L 492.908172 437.978509 
L 497.720003 366.67067 
L 502.531835 354.81909 
L 507.343666 380.604946 
L 512.155498 341.876563 
L 516.96733 324.669447 
L 521.779161 390.076313 
L 526.590993 398.407135 
L 531.402824 383.72899 
L 536.214656 332.85151 
L 541.026487 320.355258 
L 545.838319 322.636312 
L 550.65015 313.611258 
L 555.461982 317.032857 
L 560.273814 351.843767 
L 565.085645 319.462669 
L 569.897477 366.174796 
L 574.709308 325.661196 
L 579.52114 303.396098 
L 584.332971 301.015847 
L 589.144803 306.817697 
L 593.956634 317.528732 
L 598.768466 317.379973 
L 603.580297 359.381197 
L 608.392129 316.090669 
L 613.203961 301.51176 
L 618.015792 294.916518 
L 622.827624 298.238919 
L 627.639455 315.842751 
L 632.451287 292.33791 
L 637.263118 286.734455 
L 642.07495 292.585866 
L 646.886781 361.166375 
L 651.698613 305.230876 
L 656.510445 316.586581 
L 661.322276 302.751465 
L 666.134108 303.99117 
L 670.945939 284.106286 
L 675.757771 284.701358 
L 680.569602 332.355635 
" clip-path="url(#pcc6b718e26)" style="fill: none; stroke: #2ca02c; stroke-width: 1.5; stroke-linecap: square"/>
   </g>
   <g id="line2d_34">
    <path d="M 107.961648 478.045795 
L 112.773479 488.608071 
L 117.585311 470.954679 
L 122.397142 467.185964 
L 127.208974 458.359268 
L 132.020805 474.673795 
L 136.832637 462.524679 
L 141.644469 446.507688 
L 146.4563 443.036509 
L 151.268132 454.640152 
L 156.079963 457.764214 
L 160.891795 447.896152 
L 165.703626 467.781036 
L 170.515458 455.929456 
L 175.327289 444.226634 
L 180.139121 447.053161 
L 184.950953 451.218572 
L 189.762784 452.21034 
L 194.574616 469.1695 
L 199.386447 474.177901 
L 204.198279 465.252027 
L 209.01011 468.971143 
L 213.821942 455.582321 
L 218.633773 444.276214 
L 223.445605 457.714616 
L 228.257436 467.929795 
L 233.069268 452.904572 
L 237.8811 454.987268 
L 242.692931 459.103099 
L 247.504763 470.012491 
L 252.316594 462.127983 
L 257.128426 464.012321 
L 261.940257 466.342973 
L 266.752089 465.896679 
L 271.56392 468.078553 
L 276.375752 460.194026 
L 281.187584 459.202277 
L 285.999415 460.838678 
L 290.811247 474.376259 
L 295.623078 464.06192 
L 300.43491 452.061562 
L 305.246741 462.871795 
L 310.058573 470.111669 
L 314.870404 469.467036 
L 319.682236 465.252027 
L 324.494068 481.219438 
L 329.305899 480.128491 
L 334.117731 471.797669 
L 338.929562 492.178428 
L 343.741394 492.128849 
L 348.553225 498.079438 
L 353.365057 493.467733 
L 358.176888 487.170027 
L 362.98872 484.740196 
L 367.800551 488.062616 
L 372.612383 481.764911 
L 377.424215 478.442491 
L 382.236046 483.054196 
L 387.047878 481.070679 
L 391.859709 480.029312 
L 396.671541 498.972008 
L 401.483372 490.294071 
L 406.295204 490.789964 
L 411.107035 475.070491 
L 415.918867 490.244491 
L 420.730699 484.442679 
L 425.54253 479.830974 
L 430.354362 481.269017 
L 435.166193 484.938554 
L 439.978025 480.773143 
L 444.789856 485.23609 
L 449.601688 485.136911 
L 454.413519 489.748616 
L 459.225351 480.029312 
L 464.037182 488.459312 
L 468.849014 492.277607 
L 473.660846 494.55866 
L 478.472677 496.988491 
L 483.284509 497.980259 
L 488.09634 494.905776 
L 492.908172 479.830974 
L 497.720003 497.533965 
L 502.531835 491.880911 
L 507.343666 492.475964 
L 512.155498 489.50066 
L 516.96733 495.550428 
L 521.779161 490.641206 
L 526.590993 502.591965 
L 531.402824 494.161965 
L 536.214656 495.153733 
L 541.026487 491.484196 
L 545.838319 490.34367 
L 550.65015 496.641375 
L 555.461982 493.864428 
L 560.273814 500.45967 
L 565.085645 494.608259 
L 569.897477 484.789795 
L 574.709308 489.401501 
L 579.52114 483.748428 
L 584.332971 487.913839 
L 589.144803 498.724071 
L 593.956634 507.649946 
L 598.768466 497.930661 
L 603.580297 495.104134 
L 608.392129 494.55866 
L 613.203961 488.062616 
L 618.015792 497.186849 
L 622.827624 503.286197 
L 627.639455 505.716009 
L 632.451287 503.236598 
L 637.263118 505.716009 
L 642.07495 509.583902 
L 646.886781 503.286197 
L 651.698613 498.426554 
L 656.510445 497.732303 
L 661.322276 505.071375 
L 666.134108 501.897714 
L 670.945939 500.757187 
L 675.757771 500.757187 
L 680.569602 505.56725 
" clip-path="url(#pcc6b718e26)" style="fill: none; stroke: #d62728; stroke-width: 1.5; stroke-linecap: square"/>
   </g>
   <g id="line2d_35">
    <path d="M 107.961648 503.434955 
L 112.773479 486.92209 
L 117.585311 499.120786 
L 122.397142 499.765419 
L 127.208974 504.823419 
L 132.020805 502.14567 
L 136.832637 506.509419 
L 141.644469 517.270072 
L 146.4563 527.782768 
L 151.268132 520.939589 
L 156.079963 517.41883 
L 160.891795 520.989188 
L 165.703626 522.228893 
L 170.515458 524.460366 
L 175.327289 511.864956 
L 180.139121 507.402009 
L 184.950953 510.774009 
L 189.762784 513.451777 
L 194.574616 510.129357 
L 199.386447 524.956241 
L 204.198279 514.294767 
L 209.01011 513.650134 
L 213.821942 501.947313 
L 218.633773 514.146009 
L 223.445605 508.98883 
L 228.257436 509.534303 
L 233.069268 514.493125 
L 237.8811 524.361188 
L 242.692931 506.806955 
L 247.504763 506.311081 
L 252.316594 507.649946 
L 257.128426 502.691125 
L 261.940257 522.972705 
L 266.752089 502.294429 
L 271.56392 498.129018 
L 276.375752 497.633143 
L 281.187584 497.236429 
L 285.999415 504.228366 
L 290.811247 501.104303 
L 295.623078 507.798723 
L 300.43491 511.815357 
L 305.246741 499.616661 
L 310.058573 492.773482 
L 314.870404 498.029839 
L 319.682236 492.475964 
L 324.494068 492.07925 
L 329.305899 489.599839 
L 334.117731 494.856197 
L 338.929562 484.740196 
L 343.741394 499.567081 
L 348.553225 499.219965 
L 353.365057 489.946955 
L 358.176888 476.954848 
L 362.98872 490.194911 
L 367.800551 481.764911 
L 372.612383 486.92209 
L 377.424215 494.905776 
L 382.236046 484.442679 
L 387.047878 495.45125 
L 391.859709 495.947143 
L 396.671541 499.567081 
L 401.483372 487.070848 
L 406.295204 483.698848 
L 411.107035 490.690786 
L 415.918867 498.575313 
L 420.730699 492.971839 
L 425.54253 496.492598 
L 430.354362 487.7155 
L 435.166193 485.632786 
L 439.978025 499.616661 
L 444.789856 494.757018 
L 449.601688 503.087839 
L 454.413519 485.979902 
L 459.225351 495.847965 
L 464.037182 492.426366 
L 468.849014 493.864428 
L 473.660846 490.294071 
L 478.472677 489.649438 
L 483.284509 498.327375 
L 488.09634 496.393438 
L 492.908172 500.558849 
L 497.720003 478.987964 
L 502.531835 491.434617 
L 507.343666 492.426366 
L 512.155498 495.004955 
L 516.96733 495.996723 
L 521.779161 486.674134 
L 526.590993 472.194384 
L 531.402824 472.789437 
L 536.214656 475.219268 
L 541.026487 488.955206 
L 545.838319 478.888785 
L 550.65015 486.426196 
L 555.461982 482.211206 
L 560.273814 494.707438 
L 565.085645 495.897544 
L 569.897477 506.112723 
L 574.709308 503.484535 
L 579.52114 485.930322 
L 584.332971 500.162134 
L 589.144803 497.335607 
L 593.956634 493.368554 
L 598.768466 483.004616 
L 603.580297 480.872322 
L 608.392129 491.632955 
L 613.203961 493.71567 
L 618.015792 497.385187 
L 622.827624 484.244322 
L 627.639455 483.401312 
L 632.451287 495.649607 
L 637.263118 488.905607 
L 642.07495 491.087482 
L 646.886781 486.773312 
L 651.698613 476.855669 
L 656.510445 483.302134 
L 661.322276 491.583375 
L 666.134108 476.012679 
L 670.945939 490.988322 
L 675.757771 490.194911 
L 680.569602 470.359625 
" clip-path="url(#pcc6b718e26)" style="fill: none; stroke: #9467bd; stroke-width: 1.5; stroke-linecap: square"/>
   </g>
   <g id="patch_3">
    <path d="M 79.33125 590.660625 
L 79.33125 243.543125 
" style="fill: none; stroke: #000000; stroke-width: 0.8; stroke-linejoin: miter; stroke-linecap: square"/>
   </g>
   <g id="patch_4">
    <path d="M 709.2 590.660625 
L 709.2 243.543125 
" style="fill: none; stroke: #000000; stroke-width: 0.8; stroke-linejoin: miter; stroke-linecap: square"/>
   </g>
   <g id="patch_5">
    <path d="M 79.33125 590.660625 
L 709.2 590.660625 
" style="fill: none; stroke: #000000; stroke-width: 0.8; stroke-linejoin: miter; stroke-linecap: square"/>
   </g>
   <g id="patch_6">
    <path d="M 79.33125 243.543125 
L 709.2 243.543125 
" style="fill: none; stroke: #000000; stroke-width: 0.8; stroke-linejoin: miter; stroke-linecap: square"/>
   </g>
   <g id="text_18">
    <!-- Train -->
    <g transform="translate(370.278125 237.543125)scale(0.2 -0.2)">
     <defs>
      <path id="DejaVuSans-54" d="M -19 4666 
L 3928 4666 
L 3928 4134 
L 2272 4134 
L 2272 0 
L 1638 0 
L 1638 4134 
L -19 4134 
L -19 4666 
z
" transform="scale(0.015625)"/>
      <path id="DejaVuSans-69" d="M 603 3500 
L 1178 3500 
L 1178 0 
L 603 0 
L 603 3500 
z
M 603 4863 
L 1178 4863 
L 1178 4134 
L 603 4134 
L 603 4863 
z
" transform="scale(0.015625)"/>
      <path id="DejaVuSans-6e" d="M 3513 2113 
L 3513 0 
L 2938 0 
L 2938 2094 
Q 2938 2591 2744 2837 
Q 2550 3084 2163 3084 
Q 1697 3084 1428 2787 
Q 1159 2491 1159 1978 
L 1159 0 
L 581 0 
L 581 3500 
L 1159 3500 
L 1159 2956 
Q 1366 3272 1645 3428 
Q 1925 3584 2291 3584 
Q 2894 3584 3203 3211 
Q 3513 2838 3513 2113 
z
" transform="scale(0.015625)"/>
     </defs>
     <use xlink:href="#DejaVuSans-54"/>
     <use xlink:href="#DejaVuSans-72" x="46.333984"/>
     <use xlink:href="#DejaVuSans-61" x="87.447266"/>
     <use xlink:href="#DejaVuSans-69" x="148.726562"/>
     <use xlink:href="#DejaVuSans-6e" x="176.509766"/>
    </g>
   </g>
   <g id="legend_1">
    <g id="patch_7">
     <path d="M 86.33125 324.93375 
L 148.920313 324.93375 
Q 150.920313 324.93375 150.920313 322.93375 
L 150.920313 250.543125 
Q 150.920313 248.543125 148.920313 248.543125 
L 86.33125 248.543125 
Q 84.33125 248.543125 84.33125 250.543125 
L 84.33125 322.93375 
Q 84.33125 324.93375 86.33125 324.93375 
z
" style="fill: #ffffff; opacity: 0.8; stroke: #cccccc; stroke-linejoin: miter"/>
    </g>
    <g id="line2d_36">
     <path d="M 88.33125 256.641562 
L 98.33125 256.641562 
L 108.33125 256.641562 
" style="fill: none; stroke: #1f77b4; stroke-width: 1.5; stroke-linecap: square"/>
    </g>
    <g id="text_19">
     <!-- task 0 -->
     <g transform="translate(116.33125 260.141562)scale(0.1 -0.1)">
      <defs>
       <path id="DejaVuSans-6b" d="M 581 4863 
L 1159 4863 
L 1159 1991 
L 2875 3500 
L 3609 3500 
L 1753 1863 
L 3688 0 
L 2938 0 
L 1159 1709 
L 1159 0 
L 581 0 
L 581 4863 
z
" transform="scale(0.015625)"/>
      </defs>
      <use xlink:href="#DejaVuSans-74"/>
      <use xlink:href="#DejaVuSans-61" x="39.208984"/>
      <use xlink:href="#DejaVuSans-73" x="100.488281"/>
      <use xlink:href="#DejaVuSans-6b" x="152.587891"/>
      <use xlink:href="#DejaVuSans-20" x="210.498047"/>
      <use xlink:href="#DejaVuSans-30" x="242.285156"/>
     </g>
    </g>
    <g id="line2d_37">
     <path d="M 88.33125 271.319687 
L 98.33125 271.319687 
L 108.33125 271.319687 
" style="fill: none; stroke: #ff7f0e; stroke-width: 1.5; stroke-linecap: square"/>
    </g>
    <g id="text_20">
     <!-- task 1 -->
     <g transform="translate(116.33125 274.819687)scale(0.1 -0.1)">
      <use xlink:href="#DejaVuSans-74"/>
      <use xlink:href="#DejaVuSans-61" x="39.208984"/>
      <use xlink:href="#DejaVuSans-73" x="100.488281"/>
      <use xlink:href="#DejaVuSans-6b" x="152.587891"/>
      <use xlink:href="#DejaVuSans-20" x="210.498047"/>
      <use xlink:href="#DejaVuSans-31" x="242.285156"/>
     </g>
    </g>
    <g id="line2d_38">
     <path d="M 88.33125 285.997813 
L 98.33125 285.997813 
L 108.33125 285.997813 
" style="fill: none; stroke: #2ca02c; stroke-width: 1.5; stroke-linecap: square"/>
    </g>
    <g id="text_21">
     <!-- task 2 -->
     <g transform="translate(116.33125 289.497813)scale(0.1 -0.1)">
      <use xlink:href="#DejaVuSans-74"/>
      <use xlink:href="#DejaVuSans-61" x="39.208984"/>
      <use xlink:href="#DejaVuSans-73" x="100.488281"/>
      <use xlink:href="#DejaVuSans-6b" x="152.587891"/>
      <use xlink:href="#DejaVuSans-20" x="210.498047"/>
      <use xlink:href="#DejaVuSans-32" x="242.285156"/>
     </g>
    </g>
    <g id="line2d_39">
     <path d="M 88.33125 300.675937 
L 98.33125 300.675937 
L 108.33125 300.675937 
" style="fill: none; stroke: #d62728; stroke-width: 1.5; stroke-linecap: square"/>
    </g>
    <g id="text_22">
     <!-- task 3 -->
     <g transform="translate(116.33125 304.175937)scale(0.1 -0.1)">
      <use xlink:href="#DejaVuSans-74"/>
      <use xlink:href="#DejaVuSans-61" x="39.208984"/>
      <use xlink:href="#DejaVuSans-73" x="100.488281"/>
      <use xlink:href="#DejaVuSans-6b" x="152.587891"/>
      <use xlink:href="#DejaVuSans-20" x="210.498047"/>
      <use xlink:href="#DejaVuSans-33" x="242.285156"/>
     </g>
    </g>
    <g id="line2d_40">
     <path d="M 88.33125 315.354062 
L 98.33125 315.354062 
L 108.33125 315.354062 
" style="fill: none; stroke: #9467bd; stroke-width: 1.5; stroke-linecap: square"/>
    </g>
    <g id="text_23">
     <!-- task 4 -->
     <g transform="translate(116.33125 318.854062)scale(0.1 -0.1)">
      <use xlink:href="#DejaVuSans-74"/>
      <use xlink:href="#DejaVuSans-61" x="39.208984"/>
      <use xlink:href="#DejaVuSans-73" x="100.488281"/>
      <use xlink:href="#DejaVuSans-6b" x="152.587891"/>
      <use xlink:href="#DejaVuSans-20" x="210.498047"/>
      <use xlink:href="#DejaVuSans-34" x="242.285156"/>
     </g>
    </g>
   </g>
  </g>
  <g id="axes_2">
   <g id="patch_8">
    <path d="M 79.33125 1019.4875 
L 709.2 1019.4875 
L 709.2 672.37 
L 79.33125 672.37 
z
" style="fill: #ffffff"/>
   </g>
   <g id="matplotlib.axis_3">
    <g id="xtick_8">
     <g id="line2d_41">
      <path d="M 107.961648 1019.4875 
L 107.961648 672.37 
" clip-path="url(#p75c979c387)" style="fill: none; stroke: #b0b0b0; stroke-width: 0.8; stroke-linecap: square"/>
     </g>
     <g id="line2d_42">
      <g>
       <use xlink:href="#m8c790541ba" x="107.961648" y="1019.4875" style="stroke: #000000; stroke-width: 0.8"/>
      </g>
     </g>
     <g id="text_24">
      <!-- 0 -->
      <g transform="translate(101.599148 1041.684375)scale(0.2 -0.2)">
       <use xlink:href="#DejaVuSans-30"/>
      </g>
     </g>
    </g>
    <g id="xtick_9">
     <g id="line2d_43">
      <path d="M 204.198279 1019.4875 
L 204.198279 672.37 
" clip-path="url(#p75c979c387)" style="fill: none; stroke: #b0b0b0; stroke-width: 0.8; stroke-linecap: square"/>
     </g>
     <g id="line2d_44">
      <g>
       <use xlink:href="#m8c790541ba" x="204.198279" y="1019.4875" style="stroke: #000000; stroke-width: 0.8"/>
      </g>
     </g>
     <g id="text_25">
      <!-- 20 -->
      <g transform="translate(191.473279 1041.684375)scale(0.2 -0.2)">
       <use xlink:href="#DejaVuSans-32"/>
       <use xlink:href="#DejaVuSans-30" x="63.623047"/>
      </g>
     </g>
    </g>
    <g id="xtick_10">
     <g id="line2d_45">
      <path d="M 300.43491 1019.4875 
L 300.43491 672.37 
" clip-path="url(#p75c979c387)" style="fill: none; stroke: #b0b0b0; stroke-width: 0.8; stroke-linecap: square"/>
     </g>
     <g id="line2d_46">
      <g>
       <use xlink:href="#m8c790541ba" x="300.43491" y="1019.4875" style="stroke: #000000; stroke-width: 0.8"/>
      </g>
     </g>
     <g id="text_26">
      <!-- 40 -->
      <g transform="translate(287.70991 1041.684375)scale(0.2 -0.2)">
       <use xlink:href="#DejaVuSans-34"/>
       <use xlink:href="#DejaVuSans-30" x="63.623047"/>
      </g>
     </g>
    </g>
    <g id="xtick_11">
     <g id="line2d_47">
      <path d="M 396.671541 1019.4875 
L 396.671541 672.37 
" clip-path="url(#p75c979c387)" style="fill: none; stroke: #b0b0b0; stroke-width: 0.8; stroke-linecap: square"/>
     </g>
     <g id="line2d_48">
      <g>
       <use xlink:href="#m8c790541ba" x="396.671541" y="1019.4875" style="stroke: #000000; stroke-width: 0.8"/>
      </g>
     </g>
     <g id="text_27">
      <!-- 60 -->
      <g transform="translate(383.946541 1041.684375)scale(0.2 -0.2)">
       <use xlink:href="#DejaVuSans-36"/>
       <use xlink:href="#DejaVuSans-30" x="63.623047"/>
      </g>
     </g>
    </g>
    <g id="xtick_12">
     <g id="line2d_49">
      <path d="M 492.908172 1019.4875 
L 492.908172 672.37 
" clip-path="url(#p75c979c387)" style="fill: none; stroke: #b0b0b0; stroke-width: 0.8; stroke-linecap: square"/>
     </g>
     <g id="line2d_50">
      <g>
       <use xlink:href="#m8c790541ba" x="492.908172" y="1019.4875" style="stroke: #000000; stroke-width: 0.8"/>
      </g>
     </g>
     <g id="text_28">
      <!-- 80 -->
      <g transform="translate(480.183172 1041.684375)scale(0.2 -0.2)">
       <use xlink:href="#DejaVuSans-38"/>
       <use xlink:href="#DejaVuSans-30" x="63.623047"/>
      </g>
     </g>
    </g>
    <g id="xtick_13">
     <g id="line2d_51">
      <path d="M 589.144803 1019.4875 
L 589.144803 672.37 
" clip-path="url(#p75c979c387)" style="fill: none; stroke: #b0b0b0; stroke-width: 0.8; stroke-linecap: square"/>
     </g>
     <g id="line2d_52">
      <g>
       <use xlink:href="#m8c790541ba" x="589.144803" y="1019.4875" style="stroke: #000000; stroke-width: 0.8"/>
      </g>
     </g>
     <g id="text_29">
      <!-- 100 -->
      <g transform="translate(570.057303 1041.684375)scale(0.2 -0.2)">
       <use xlink:href="#DejaVuSans-31"/>
       <use xlink:href="#DejaVuSans-30" x="63.623047"/>
       <use xlink:href="#DejaVuSans-30" x="127.246094"/>
      </g>
     </g>
    </g>
    <g id="xtick_14">
     <g id="line2d_53">
      <path d="M 685.381434 1019.4875 
L 685.381434 672.37 
" clip-path="url(#p75c979c387)" style="fill: none; stroke: #b0b0b0; stroke-width: 0.8; stroke-linecap: square"/>
     </g>
     <g id="line2d_54">
      <g>
       <use xlink:href="#m8c790541ba" x="685.381434" y="1019.4875" style="stroke: #000000; stroke-width: 0.8"/>
      </g>
     </g>
     <g id="text_30">
      <!-- 120 -->
      <g transform="translate(666.293934 1041.684375)scale(0.2 -0.2)">
       <use xlink:href="#DejaVuSans-31"/>
       <use xlink:href="#DejaVuSans-32" x="63.623047"/>
       <use xlink:href="#DejaVuSans-30" x="127.246094"/>
      </g>
     </g>
    </g>
    <g id="text_31">
     <!-- step -->
     <g transform="translate(372.634375 1065.040625)scale(0.2 -0.2)">
      <use xlink:href="#DejaVuSans-73"/>
      <use xlink:href="#DejaVuSans-74" x="52.099609"/>
      <use xlink:href="#DejaVuSans-65" x="91.308594"/>
      <use xlink:href="#DejaVuSans-70" x="152.832031"/>
     </g>
    </g>
   </g>
   <g id="matplotlib.axis_4">
    <g id="ytick_9">
     <g id="line2d_55">
      <path d="M 79.33125 1019.4875 
L 709.2 1019.4875 
" clip-path="url(#p75c979c387)" style="fill: none; stroke: #b0b0b0; stroke-width: 0.8; stroke-linecap: square"/>
     </g>
     <g id="line2d_56">
      <g>
       <use xlink:href="#m0630a20d88" x="79.33125" y="1019.4875" style="stroke: #000000; stroke-width: 0.8"/>
      </g>
     </g>
     <g id="text_32">
      <!-- 30 -->
      <g transform="translate(46.88125 1027.085938)scale(0.2 -0.2)">
       <use xlink:href="#DejaVuSans-33"/>
       <use xlink:href="#DejaVuSans-30" x="63.623047"/>
      </g>
     </g>
    </g>
    <g id="ytick_10">
     <g id="line2d_57">
      <path d="M 79.33125 969.899286 
L 709.2 969.899286 
" clip-path="url(#p75c979c387)" style="fill: none; stroke: #b0b0b0; stroke-width: 0.8; stroke-linecap: square"/>
     </g>
     <g id="line2d_58">
      <g>
       <use xlink:href="#m0630a20d88" x="79.33125" y="969.899286" style="stroke: #000000; stroke-width: 0.8"/>
      </g>
     </g>
     <g id="text_33">
      <!-- 40 -->
      <g transform="translate(46.88125 977.497723)scale(0.2 -0.2)">
       <use xlink:href="#DejaVuSans-34"/>
       <use xlink:href="#DejaVuSans-30" x="63.623047"/>
      </g>
     </g>
    </g>
    <g id="ytick_11">
     <g id="line2d_59">
      <path d="M 79.33125 920.311071 
L 709.2 920.311071 
" clip-path="url(#p75c979c387)" style="fill: none; stroke: #b0b0b0; stroke-width: 0.8; stroke-linecap: square"/>
     </g>
     <g id="line2d_60">
      <g>
       <use xlink:href="#m0630a20d88" x="79.33125" y="920.311071" style="stroke: #000000; stroke-width: 0.8"/>
      </g>
     </g>
     <g id="text_34">
      <!-- 50 -->
      <g transform="translate(46.88125 927.909509)scale(0.2 -0.2)">
       <use xlink:href="#DejaVuSans-35"/>
       <use xlink:href="#DejaVuSans-30" x="63.623047"/>
      </g>
     </g>
    </g>
    <g id="ytick_12">
     <g id="line2d_61">
      <path d="M 79.33125 870.722857 
L 709.2 870.722857 
" clip-path="url(#p75c979c387)" style="fill: none; stroke: #b0b0b0; stroke-width: 0.8; stroke-linecap: square"/>
     </g>
     <g id="line2d_62">
      <g>
       <use xlink:href="#m0630a20d88" x="79.33125" y="870.722857" style="stroke: #000000; stroke-width: 0.8"/>
      </g>
     </g>
     <g id="text_35">
      <!-- 60 -->
      <g transform="translate(46.88125 878.321295)scale(0.2 -0.2)">
       <use xlink:href="#DejaVuSans-36"/>
       <use xlink:href="#DejaVuSans-30" x="63.623047"/>
      </g>
     </g>
    </g>
    <g id="ytick_13">
     <g id="line2d_63">
      <path d="M 79.33125 821.134643 
L 709.2 821.134643 
" clip-path="url(#p75c979c387)" style="fill: none; stroke: #b0b0b0; stroke-width: 0.8; stroke-linecap: square"/>
     </g>
     <g id="line2d_64">
      <g>
       <use xlink:href="#m0630a20d88" x="79.33125" y="821.134643" style="stroke: #000000; stroke-width: 0.8"/>
      </g>
     </g>
     <g id="text_36">
      <!-- 70 -->
      <g transform="translate(46.88125 828.73308)scale(0.2 -0.2)">
       <use xlink:href="#DejaVuSans-37"/>
       <use xlink:href="#DejaVuSans-30" x="63.623047"/>
      </g>
     </g>
    </g>
    <g id="ytick_14">
     <g id="line2d_65">
      <path d="M 79.33125 771.546429 
L 709.2 771.546429 
" clip-path="url(#p75c979c387)" style="fill: none; stroke: #b0b0b0; stroke-width: 0.8; stroke-linecap: square"/>
     </g>
     <g id="line2d_66">
      <g>
       <use xlink:href="#m0630a20d88" x="79.33125" y="771.546429" style="stroke: #000000; stroke-width: 0.8"/>
      </g>
     </g>
     <g id="text_37">
      <!-- 80 -->
      <g transform="translate(46.88125 779.144866)scale(0.2 -0.2)">
       <use xlink:href="#DejaVuSans-38"/>
       <use xlink:href="#DejaVuSans-30" x="63.623047"/>
      </g>
     </g>
    </g>
    <g id="ytick_15">
     <g id="line2d_67">
      <path d="M 79.33125 721.958214 
L 709.2 721.958214 
" clip-path="url(#p75c979c387)" style="fill: none; stroke: #b0b0b0; stroke-width: 0.8; stroke-linecap: square"/>
     </g>
     <g id="line2d_68">
      <g>
       <use xlink:href="#m0630a20d88" x="79.33125" y="721.958214" style="stroke: #000000; stroke-width: 0.8"/>
      </g>
     </g>
     <g id="text_38">
      <!-- 90 -->
      <g transform="translate(46.88125 729.556652)scale(0.2 -0.2)">
       <use xlink:href="#DejaVuSans-39"/>
       <use xlink:href="#DejaVuSans-30" x="63.623047"/>
      </g>
     </g>
    </g>
    <g id="ytick_16">
     <g id="line2d_69">
      <path d="M 79.33125 672.37 
L 709.2 672.37 
" clip-path="url(#p75c979c387)" style="fill: none; stroke: #b0b0b0; stroke-width: 0.8; stroke-linecap: square"/>
     </g>
     <g id="line2d_70">
      <g>
       <use xlink:href="#m0630a20d88" x="79.33125" y="672.37" style="stroke: #000000; stroke-width: 0.8"/>
      </g>
     </g>
     <g id="text_39">
      <!-- 100 -->
      <g transform="translate(34.15625 679.968437)scale(0.2 -0.2)">
       <use xlink:href="#DejaVuSans-31"/>
       <use xlink:href="#DejaVuSans-30" x="63.623047"/>
       <use xlink:href="#DejaVuSans-30" x="127.246094"/>
      </g>
     </g>
    </g>
    <g id="text_40">
     <!-- accuracy [%] -->
     <g transform="translate(25.996875 911.530312)rotate(-90)scale(0.2 -0.2)">
      <use xlink:href="#DejaVuSans-61"/>
      <use xlink:href="#DejaVuSans-63" x="61.279297"/>
      <use xlink:href="#DejaVuSans-63" x="116.259766"/>
      <use xlink:href="#DejaVuSans-75" x="171.240234"/>
      <use xlink:href="#DejaVuSans-72" x="234.619141"/>
      <use xlink:href="#DejaVuSans-61" x="275.732422"/>
      <use xlink:href="#DejaVuSans-63" x="337.011719"/>
      <use xlink:href="#DejaVuSans-79" x="391.992188"/>
      <use xlink:href="#DejaVuSans-20" x="451.171875"/>
      <use xlink:href="#DejaVuSans-5b" x="482.958984"/>
      <use xlink:href="#DejaVuSans-25" x="521.972656"/>
      <use xlink:href="#DejaVuSans-5d" x="616.992188"/>
     </g>
    </g>
   </g>
   <g id="line2d_71">
    <path d="M 107.961648 911.137259 
L 112.773479 920.311071 
L 117.585311 916.839893 
L 122.397142 815.184072 
L 127.208974 817.911401 
L 132.020805 822.126392 
L 136.832637 839.978179 
L 141.644469 820.638768 
L 146.4563 887.830795 
L 151.268132 843.945214 
L 156.079963 865.268161 
L 160.891795 867.747572 
L 165.703626 783.447608 
L 170.515458 866.507866 
L 175.327289 882.624036 
L 180.139121 782.207902 
L 184.950953 846.424625 
L 189.762784 846.176706 
L 194.574616 826.093464 
L 199.386447 823.614054 
L 204.198279 808.737589 
L 209.01011 837.250812 
L 213.821942 819.399063 
L 218.633773 837.498769 
L 223.445605 819.646981 
L 228.257436 800.059652 
L 233.069268 829.316706 
L 237.8811 811.217 
L 242.692931 820.638768 
L 247.504763 782.207902 
L 252.316594 794.604956 
L 257.128426 801.547313 
L 261.940257 892.293723 
L 266.752089 848.160205 
L 271.56392 809.729338 
L 276.375752 794.604956 
L 281.187584 817.415527 
L 285.999415 792.62142 
L 290.811247 777.744955 
L 295.623078 811.464956 
L 300.43491 790.389965 
L 305.246741 800.803483 
L 310.058573 797.332285 
L 314.870404 807.74584 
L 319.682236 797.580241 
L 324.494068 818.407276 
L 329.305899 817.911401 
L 334.117731 819.894937 
L 338.929562 858.077866 
L 343.741394 817.663483 
L 348.553225 845.184919 
L 353.365057 806.754053 
L 358.176888 837.002856 
L 362.98872 828.572875 
L 367.800551 816.671696 
L 372.612383 819.151107 
L 377.424215 821.630517 
L 382.236046 807.497884 
L 387.047878 804.026724 
L 391.859709 820.886687 
L 396.671541 827.829044 
L 401.483372 803.778768 
L 406.295204 826.34142 
L 411.107035 803.282893 
L 415.918867 825.101715 
L 420.730699 791.381714 
L 425.54253 795.844661 
L 430.354362 794.604956 
L 435.166193 808.737589 
L 439.978025 803.034937 
L 444.789856 825.101715 
L 449.601688 814.68816 
L 454.413519 825.59759 
L 459.225351 805.018473 
L 464.037182 798.076116 
L 468.849014 801.051401 
L 473.660846 820.142894 
L 478.472677 813.696411 
L 483.284509 800.803483 
L 488.09634 811.464956 
L 492.908172 850.887571 
L 497.720003 891.301974 
L 502.531835 891.054017 
L 507.343666 903.946964 
L 512.155498 918.079598 
L 516.96733 910.641366 
L 521.779161 928.989009 
L 526.590993 905.434607 
L 531.402824 927.997241 
L 536.214656 909.897554 
L 541.026487 922.790482 
L 545.838319 927.997241 
L 550.65015 913.368714 
L 555.461982 909.153723 
L 560.273814 925.021956 
L 565.085645 902.211366 
L 569.897477 919.567241 
L 574.709308 921.302839 
L 579.52114 895.764902 
L 584.332971 909.897554 
L 589.144803 898.988143 
L 593.956634 901.963428 
L 598.768466 905.434607 
L 603.580297 913.864607 
L 608.392129 911.633134 
L 613.203961 889.318437 
L 618.015792 911.633134 
L 622.827624 919.815197 
L 627.639455 911.881071 
L 632.451287 890.062268 
L 637.263118 884.111679 
L 642.07495 891.054017 
L 646.886781 893.285491 
L 651.698613 899.731955 
L 656.510445 907.914018 
L 661.322276 914.360482 
L 666.134108 897.748438 
L 670.945939 888.326669 
L 675.757771 869.979026 
L 680.569602 886.343152 
" clip-path="url(#p75c979c387)" style="fill: none; stroke: #1f77b4; stroke-width: 1.5; stroke-linecap: square"/>
   </g>
   <g id="line2d_72">
    <path d="M 107.961648 918.823429 
L 112.773479 917.831661 
L 117.585311 919.319303 
L 122.397142 918.575491 
L 127.208974 915.600187 
L 132.020805 915.104313 
L 136.832637 913.61667 
L 141.644469 918.823429 
L 146.4563 915.848125 
L 151.268132 919.567241 
L 156.079963 914.112545 
L 160.891795 915.35225 
L 165.703626 916.096081 
L 170.515458 913.864607 
L 175.327289 907.418143 
L 180.139121 913.120777 
L 184.950953 906.674313 
L 189.762784 915.104313 
L 194.574616 914.856375 
L 199.386447 913.61667 
L 204.198279 915.600187 
L 209.01011 917.583723 
L 213.821942 916.591955 
L 218.633773 916.591955 
L 223.445605 920.063134 
L 228.257436 908.161955 
L 233.069268 912.376965 
L 237.8811 913.368714 
L 242.692931 916.344018 
L 247.504763 909.401661 
L 252.316594 918.327535 
L 257.128426 915.35225 
L 261.940257 918.079598 
L 266.752089 912.624902 
L 271.56392 911.633134 
L 276.375752 918.079598 
L 281.187584 916.839893 
L 285.999415 919.815197 
L 290.811247 907.170187 
L 295.623078 917.08783 
L 300.43491 800.803483 
L 305.246741 848.656117 
L 310.058573 836.506982 
L 314.870404 783.199651 
L 319.682236 802.539062 
L 324.494068 769.562892 
L 329.305899 777.249081 
L 334.117731 795.844661 
L 338.929562 857.334036 
L 343.741394 758.405544 
L 348.553225 763.116447 
L 353.365057 744.024955 
L 358.176888 762.868491 
L 362.98872 830.060537 
L 367.800551 733.859393 
L 372.612383 759.397331 
L 377.424215 753.446723 
L 382.236046 761.132911 
L 387.047878 764.604071 
L 391.859709 773.03409 
L 396.671541 750.471437 
L 401.483372 767.827312 
L 406.295204 827.581126 
L 411.107035 789.398178 
L 415.918867 775.265545 
L 420.730699 735.347017 
L 425.54253 800.803483 
L 430.354362 730.140277 
L 435.166193 738.32234 
L 439.978025 757.90967 
L 444.789856 742.041456 
L 449.601688 773.777883 
L 454.413519 754.686428 
L 459.225351 820.638768 
L 464.037182 762.372616 
L 468.849014 780.968197 
L 473.660846 779.728491 
L 478.472677 750.471437 
L 483.284509 749.479688 
L 488.09634 736.834679 
L 492.908172 864.52433 
L 497.720003 886.839027 
L 502.531835 877.913152 
L 507.343666 882.624036 
L 512.155498 898.244312 
L 516.96733 881.384331 
L 521.779161 913.864607 
L 526.590993 908.409892 
L 531.402824 906.426375 
L 536.214656 900.475786 
L 541.026487 907.418143 
L 545.838319 909.153723 
L 550.65015 897.748438 
L 555.461982 911.633134 
L 560.273814 911.633134 
L 565.085645 909.401661 
L 569.897477 910.889303 
L 574.709308 913.368714 
L 579.52114 911.385197 
L 584.332971 908.657849 
L 589.144803 873.202268 
L 593.956634 891.797848 
L 598.768466 913.864607 
L 603.580297 916.344018 
L 608.392129 889.814312 
L 613.203961 903.451071 
L 618.015792 911.385197 
L 622.827624 905.434607 
L 627.639455 910.393429 
L 632.451287 903.946964 
L 637.263118 898.49225 
L 642.07495 896.012839 
L 646.886781 824.853759 
L 651.698613 916.344018 
L 656.510445 916.096081 
L 661.322276 900.723723 
L 666.134108 910.393429 
L 670.945939 896.75667 
L 675.757771 886.095196 
L 680.569602 916.344018 
" clip-path="url(#p75c979c387)" style="fill: none; stroke: #ff7f0e; stroke-width: 1.5; stroke-linecap: square"/>
   </g>
   <g id="line2d_73">
    <path d="M 107.961648 915.104313 
L 112.773479 922.542545 
L 117.585311 921.798714 
L 122.397142 929.73284 
L 127.208974 911.881071 
L 132.020805 920.806946 
L 136.832637 917.335786 
L 141.644469 923.286357 
L 146.4563 927.501366 
L 151.268132 907.914018 
L 156.079963 908.409892 
L 160.891795 897.996375 
L 165.703626 895.02109 
L 170.515458 895.02109 
L 175.327289 907.418143 
L 180.139121 893.285491 
L 184.950953 896.012839 
L 189.762784 877.913152 
L 194.574616 891.797848 
L 199.386447 899.484018 
L 204.198279 893.285491 
L 209.01011 912.376965 
L 213.821942 916.344018 
L 218.633773 919.567241 
L 223.445605 914.360482 
L 228.257436 899.979911 
L 233.069268 884.359616 
L 237.8811 900.723723 
L 242.692931 906.674313 
L 247.504763 893.037554 
L 252.316594 908.905786 
L 257.128426 905.682544 
L 261.940257 911.385197 
L 266.752089 911.881071 
L 271.56392 902.955196 
L 276.375752 915.35225 
L 281.187584 898.988143 
L 285.999415 906.92225 
L 290.811247 910.889303 
L 295.623078 907.914018 
L 300.43491 902.955196 
L 305.246741 898.49225 
L 310.058573 880.392563 
L 314.870404 893.781384 
L 319.682236 897.996375 
L 324.494068 896.508732 
L 329.305899 891.054017 
L 334.117731 906.92225 
L 338.929562 902.707259 
L 343.741394 887.582858 
L 348.553225 889.814312 
L 353.365057 889.566375 
L 358.176888 891.797848 
L 362.98872 898.988143 
L 367.800551 898.49225 
L 372.612383 902.955196 
L 377.424215 900.227848 
L 382.236046 904.938733 
L 387.047878 901.467554 
L 391.859709 890.558143 
L 396.671541 903.451071 
L 401.483372 905.434607 
L 406.295204 887.334901 
L 411.107035 897.748438 
L 415.918867 913.61667 
L 420.730699 905.930482 
L 425.54253 907.418143 
L 430.354362 904.442839 
L 435.166193 898.988143 
L 439.978025 906.178438 
L 444.789856 897.004607 
L 449.601688 900.475786 
L 454.413519 885.847259 
L 459.225351 910.145491 
L 464.037182 905.682544 
L 468.849014 898.988143 
L 473.660846 899.23608 
L 478.472677 889.566375 
L 483.284509 892.293723 
L 488.09634 891.054017 
L 492.908172 863.284625 
L 497.720003 794.604956 
L 502.531835 782.455821 
L 507.343666 811.960831 
L 512.155498 773.03409 
L 516.96733 763.86024 
L 521.779161 818.903188 
L 526.590993 826.589339 
L 531.402824 810.225251 
L 536.214656 771.298472 
L 541.026487 767.083482 
L 545.838319 766.587607 
L 550.65015 758.6535 
L 555.461982 763.116447 
L 560.273814 788.902304 
L 565.085645 764.604071 
L 569.897477 800.555526 
L 574.709308 769.314974 
L 579.52114 761.628786 
L 584.332971 757.165839 
L 589.144803 759.893206 
L 593.956634 768.075269 
L 598.768466 776.50525 
L 603.580297 798.324072 
L 608.392129 762.868491 
L 613.203961 754.686428 
L 618.015792 750.719394 
L 622.827624 756.669964 
L 627.639455 768.323187 
L 632.451287 751.711143 
L 637.263118 746.752321 
L 642.07495 751.463187 
L 646.886781 804.026724 
L 651.698613 766.339651 
L 656.510445 776.257294 
L 661.322276 756.422008 
L 666.134108 767.083482 
L 670.945939 753.446723 
L 675.757771 751.463187 
L 680.569602 794.852874 
" clip-path="url(#p75c979c387)" style="fill: none; stroke: #2ca02c; stroke-width: 1.5; stroke-linecap: square"/>
   </g>
   <g id="line2d_74">
    <path d="M 107.961648 909.897554 
L 112.773479 907.170187 
L 117.585311 898.244312 
L 122.397142 894.525196 
L 127.208974 890.558143 
L 132.020805 900.227848 
L 136.832637 893.781384 
L 141.644469 875.433741 
L 146.4563 868.243446 
L 151.268132 880.6405 
L 156.079963 892.293723 
L 160.891795 886.095196 
L 165.703626 896.012839 
L 170.515458 882.871973 
L 175.327289 870.722857 
L 180.139121 877.169321 
L 184.950953 877.169321 
L 189.762784 875.433741 
L 194.574616 898.740206 
L 199.386447 901.467554 
L 204.198279 891.549911 
L 209.01011 896.75667 
L 213.821942 879.648732 
L 218.633773 879.400795 
L 223.445605 887.830795 
L 228.257436 894.525196 
L 233.069268 884.359616 
L 237.8811 882.871973 
L 242.692931 887.086964 
L 247.504763 900.97166 
L 252.316594 888.326669 
L 257.128426 895.02109 
L 261.940257 893.533428 
L 266.752089 897.748438 
L 271.56392 893.285491 
L 276.375752 886.343152 
L 281.187584 891.054017 
L 285.999415 891.797848 
L 290.811247 900.227848 
L 295.623078 895.269027 
L 300.43491 884.855491 
L 305.246741 896.012839 
L 310.058573 901.715491 
L 314.870404 903.203134 
L 319.682236 903.946964 
L 324.494068 914.856375 
L 329.305899 916.344018 
L 334.117731 901.715491 
L 338.929562 923.038419 
L 343.741394 928.493134 
L 348.553225 930.476652 
L 353.365057 930.724589 
L 358.176888 923.286357 
L 362.98872 920.559009 
L 367.800551 925.51783 
L 372.612383 926.757536 
L 377.424215 919.071366 
L 382.236046 920.559009 
L 387.047878 915.848125 
L 391.859709 911.137259 
L 396.671541 930.228714 
L 401.483372 927.253429 
L 406.295204 926.261661 
L 411.107035 917.335786 
L 415.918867 922.046651 
L 420.730699 921.302839 
L 425.54253 916.839893 
L 430.354362 910.641366 
L 435.166193 915.600187 
L 439.978025 907.914018 
L 444.789856 916.591955 
L 449.601688 917.583723 
L 454.413519 917.583723 
L 459.225351 906.92225 
L 464.037182 914.360482 
L 468.849014 922.790482 
L 473.660846 922.294608 
L 478.472677 926.261661 
L 483.284509 927.749304 
L 488.09634 927.005473 
L 492.908172 911.137259 
L 497.720003 924.774018 
L 502.531835 919.567241 
L 507.343666 918.823429 
L 512.155498 918.575491 
L 516.96733 926.757536 
L 521.779161 920.559009 
L 526.590993 929.73284 
L 531.402824 924.774018 
L 536.214656 927.501366 
L 541.026487 921.550777 
L 545.838319 919.567241 
L 550.65015 928.245178 
L 555.461982 921.798714 
L 560.273814 926.013724 
L 565.085645 921.798714 
L 569.897477 913.120777 
L 574.709308 918.079598 
L 579.52114 919.815197 
L 584.332971 920.311071 
L 589.144803 926.013724 
L 593.956634 930.972545 
L 598.768466 925.269893 
L 603.580297 927.997241 
L 608.392129 920.311071 
L 613.203961 915.848125 
L 618.015792 925.021956 
L 622.827624 932.21225 
L 627.639455 936.675178 
L 632.451287 929.980777 
L 637.263118 938.410777 
L 642.07495 942.377831 
L 646.886781 930.476652 
L 651.698613 920.806946 
L 656.510445 923.286357 
L 661.322276 932.460188 
L 666.134108 929.73284 
L 670.945939 930.972545 
L 675.757771 927.005473 
L 680.569602 933.451956 
" clip-path="url(#p75c979c387)" style="fill: none; stroke: #d62728; stroke-width: 1.5; stroke-linecap: square"/>
   </g>
   <g id="line2d_75">
    <path d="M 107.961648 932.708125 
L 112.773479 917.08783 
L 117.585311 923.286357 
L 122.397142 923.038419 
L 127.208974 928.741072 
L 132.020805 923.534313 
L 136.832637 926.757536 
L 141.644469 941.634 
L 146.4563 948.576357 
L 151.268132 942.129893 
L 156.079963 940.394294 
L 160.891795 942.129893 
L 165.703626 949.072232 
L 170.515458 941.634 
L 175.327289 931.220482 
L 180.139121 932.708125 
L 184.950953 936.427241 
L 189.762784 939.154589 
L 194.574616 933.451956 
L 199.386447 946.344884 
L 204.198279 935.435473 
L 209.01011 941.386062 
L 213.821942 928.245178 
L 218.633773 941.138125 
L 223.445605 936.179304 
L 228.257436 935.68341 
L 233.069268 940.394294 
L 237.8811 939.154589 
L 242.692931 931.46842 
L 247.504763 928.741072 
L 252.316594 931.220482 
L 257.128426 935.435473 
L 261.940257 947.336652 
L 266.752089 926.509598 
L 271.56392 924.278125 
L 276.375752 927.501366 
L 281.187584 927.253429 
L 285.999415 928.493134 
L 290.811247 928.493134 
L 295.623078 930.724589 
L 300.43491 937.419009 
L 305.246741 927.005473 
L 310.058573 920.806946 
L 314.870404 927.005473 
L 319.682236 918.823429 
L 324.494068 911.633134 
L 329.305899 914.112545 
L 334.117731 924.030188 
L 338.929562 912.129009 
L 343.741394 923.286357 
L 348.553225 926.757536 
L 353.365057 915.35225 
L 358.176888 902.707259 
L 362.98872 916.839893 
L 367.800551 905.18667 
L 372.612383 914.856375 
L 377.424215 919.815197 
L 382.236046 910.889303 
L 387.047878 921.798714 
L 391.859709 923.534313 
L 396.671541 925.51783 
L 401.483372 915.600187 
L 406.295204 914.856375 
L 411.107035 918.575491 
L 415.918867 924.774018 
L 420.730699 922.542545 
L 425.54253 926.757536 
L 430.354362 917.583723 
L 435.166193 912.624902 
L 439.978025 926.509598 
L 444.789856 923.286357 
L 449.601688 931.46842 
L 454.413519 913.120777 
L 459.225351 925.765767 
L 464.037182 923.286357 
L 468.849014 921.054902 
L 473.660846 919.071366 
L 478.472677 921.302839 
L 483.284509 923.038419 
L 488.09634 924.030188 
L 492.908172 923.78225 
L 497.720003 903.699027 
L 502.531835 919.071366 
L 507.343666 919.319303 
L 512.155498 920.806946 
L 516.96733 923.286357 
L 521.779161 911.385197 
L 526.590993 898.244312 
L 531.402824 904.938733 
L 536.214656 899.979911 
L 541.026487 916.591955 
L 545.838319 903.946964 
L 550.65015 917.335786 
L 555.461982 907.914018 
L 560.273814 922.294608 
L 565.085645 929.236946 
L 569.897477 933.94783 
L 574.709308 930.724589 
L 579.52114 909.153723 
L 584.332971 932.21225 
L 589.144803 925.269893 
L 593.956634 919.567241 
L 598.768466 905.434607 
L 603.580297 904.938733 
L 608.392129 922.790482 
L 613.203961 917.583723 
L 618.015792 929.980777 
L 622.827624 908.657849 
L 627.639455 902.707259 
L 632.451287 919.815197 
L 637.263118 914.112545 
L 642.07495 915.600187 
L 646.886781 913.864607 
L 651.698613 898.49225 
L 656.510445 906.426375 
L 661.322276 914.608419 
L 666.134108 895.764902 
L 670.945939 917.831661 
L 675.757771 914.856375 
L 680.569602 886.095196 
" clip-path="url(#p75c979c387)" style="fill: none; stroke: #9467bd; stroke-width: 1.5; stroke-linecap: square"/>
   </g>
   <g id="patch_9">
    <path d="M 79.33125 1019.4875 
L 79.33125 672.37 
" style="fill: none; stroke: #000000; stroke-width: 0.8; stroke-linejoin: miter; stroke-linecap: square"/>
   </g>
   <g id="patch_10">
    <path d="M 709.2 1019.4875 
L 709.2 672.37 
" style="fill: none; stroke: #000000; stroke-width: 0.8; stroke-linejoin: miter; stroke-linecap: square"/>
   </g>
   <g id="patch_11">
    <path d="M 79.33125 1019.4875 
L 709.2 1019.4875 
" style="fill: none; stroke: #000000; stroke-width: 0.8; stroke-linejoin: miter; stroke-linecap: square"/>
   </g>
   <g id="patch_12">
    <path d="M 79.33125 672.37 
L 709.2 672.37 
" style="fill: none; stroke: #000000; stroke-width: 0.8; stroke-linejoin: miter; stroke-linecap: square"/>
   </g>
   <g id="text_41">
    <!-- Test -->
    <g transform="translate(374.575 666.37)scale(0.2 -0.2)">
     <use xlink:href="#DejaVuSans-54"/>
     <use xlink:href="#DejaVuSans-65" x="44.083984"/>
     <use xlink:href="#DejaVuSans-73" x="105.607422"/>
     <use xlink:href="#DejaVuSans-74" x="157.707031"/>
    </g>
   </g>
   <g id="legend_2">
    <g id="patch_13">
     <path d="M 86.33125 753.760625 
L 148.920313 753.760625 
Q 150.920313 753.760625 150.920313 751.760625 
L 150.920313 679.37 
Q 150.920313 677.37 148.920313 677.37 
L 86.33125 677.37 
Q 84.33125 677.37 84.33125 679.37 
L 84.33125 751.760625 
Q 84.33125 753.760625 86.33125 753.760625 
z
" style="fill: #ffffff; opacity: 0.8; stroke: #cccccc; stroke-linejoin: miter"/>
    </g>
    <g id="line2d_76">
     <path d="M 88.33125 685.468437 
L 98.33125 685.468437 
L 108.33125 685.468437 
" style="fill: none; stroke: #1f77b4; stroke-width: 1.5; stroke-linecap: square"/>
    </g>
    <g id="text_42">
     <!-- task 0 -->
     <g transform="translate(116.33125 688.968437)scale(0.1 -0.1)">
      <use xlink:href="#DejaVuSans-74"/>
      <use xlink:href="#DejaVuSans-61" x="39.208984"/>
      <use xlink:href="#DejaVuSans-73" x="100.488281"/>
      <use xlink:href="#DejaVuSans-6b" x="152.587891"/>
      <use xlink:href="#DejaVuSans-20" x="210.498047"/>
      <use xlink:href="#DejaVuSans-30" x="242.285156"/>
     </g>
    </g>
    <g id="line2d_77">
     <path d="M 88.33125 700.146562 
L 98.33125 700.146562 
L 108.33125 700.146562 
" style="fill: none; stroke: #ff7f0e; stroke-width: 1.5; stroke-linecap: square"/>
    </g>
    <g id="text_43">
     <!-- task 1 -->
     <g transform="translate(116.33125 703.646562)scale(0.1 -0.1)">
      <use xlink:href="#DejaVuSans-74"/>
      <use xlink:href="#DejaVuSans-61" x="39.208984"/>
      <use xlink:href="#DejaVuSans-73" x="100.488281"/>
      <use xlink:href="#DejaVuSans-6b" x="152.587891"/>
      <use xlink:href="#DejaVuSans-20" x="210.498047"/>
      <use xlink:href="#DejaVuSans-31" x="242.285156"/>
     </g>
    </g>
    <g id="line2d_78">
     <path d="M 88.33125 714.824687 
L 98.33125 714.824687 
L 108.33125 714.824687 
" style="fill: none; stroke: #2ca02c; stroke-width: 1.5; stroke-linecap: square"/>
    </g>
    <g id="text_44">
     <!-- task 2 -->
     <g transform="translate(116.33125 718.324687)scale(0.1 -0.1)">
      <use xlink:href="#DejaVuSans-74"/>
      <use xlink:href="#DejaVuSans-61" x="39.208984"/>
      <use xlink:href="#DejaVuSans-73" x="100.488281"/>
      <use xlink:href="#DejaVuSans-6b" x="152.587891"/>
      <use xlink:href="#DejaVuSans-20" x="210.498047"/>
      <use xlink:href="#DejaVuSans-32" x="242.285156"/>
     </g>
    </g>
    <g id="line2d_79">
     <path d="M 88.33125 729.502812 
L 98.33125 729.502812 
L 108.33125 729.502812 
" style="fill: none; stroke: #d62728; stroke-width: 1.5; stroke-linecap: square"/>
    </g>
    <g id="text_45">
     <!-- task 3 -->
     <g transform="translate(116.33125 733.002812)scale(0.1 -0.1)">
      <use xlink:href="#DejaVuSans-74"/>
      <use xlink:href="#DejaVuSans-61" x="39.208984"/>
      <use xlink:href="#DejaVuSans-73" x="100.488281"/>
      <use xlink:href="#DejaVuSans-6b" x="152.587891"/>
      <use xlink:href="#DejaVuSans-20" x="210.498047"/>
      <use xlink:href="#DejaVuSans-33" x="242.285156"/>
     </g>
    </g>
    <g id="line2d_80">
     <path d="M 88.33125 744.180937 
L 98.33125 744.180937 
L 108.33125 744.180937 
" style="fill: none; stroke: #9467bd; stroke-width: 1.5; stroke-linecap: square"/>
    </g>
    <g id="text_46">
     <!-- task 4 -->
     <g transform="translate(116.33125 747.680937)scale(0.1 -0.1)">
      <use xlink:href="#DejaVuSans-74"/>
      <use xlink:href="#DejaVuSans-61" x="39.208984"/>
      <use xlink:href="#DejaVuSans-73" x="100.488281"/>
      <use xlink:href="#DejaVuSans-6b" x="152.587891"/>
      <use xlink:href="#DejaVuSans-20" x="210.498047"/>
      <use xlink:href="#DejaVuSans-34" x="242.285156"/>
     </g>
    </g>
   </g>
  </g>
  <g id="text_47">
   <!-- architecture: ResNet18 -->
   <g transform="translate(244.815625 15.196875)scale(0.2 -0.2)">
    <defs>
     <path id="DejaVuSans-68" d="M 3513 2113 
L 3513 0 
L 2938 0 
L 2938 2094 
Q 2938 2591 2744 2837 
Q 2550 3084 2163 3084 
Q 1697 3084 1428 2787 
Q 1159 2491 1159 1978 
L 1159 0 
L 581 0 
L 581 4863 
L 1159 4863 
L 1159 2956 
Q 1366 3272 1645 3428 
Q 1925 3584 2291 3584 
Q 2894 3584 3203 3211 
Q 3513 2838 3513 2113 
z
" transform="scale(0.015625)"/>
     <path id="DejaVuSans-3a" d="M 750 794 
L 1409 794 
L 1409 0 
L 750 0 
L 750 794 
z
M 750 3309 
L 1409 3309 
L 1409 2516 
L 750 2516 
L 750 3309 
z
" transform="scale(0.015625)"/>
     <path id="DejaVuSans-52" d="M 2841 2188 
Q 3044 2119 3236 1894 
Q 3428 1669 3622 1275 
L 4263 0 
L 3584 0 
L 2988 1197 
Q 2756 1666 2539 1819 
Q 2322 1972 1947 1972 
L 1259 1972 
L 1259 0 
L 628 0 
L 628 4666 
L 2053 4666 
Q 2853 4666 3247 4331 
Q 3641 3997 3641 3322 
Q 3641 2881 3436 2590 
Q 3231 2300 2841 2188 
z
M 1259 4147 
L 1259 2491 
L 2053 2491 
Q 2509 2491 2742 2702 
Q 2975 2913 2975 3322 
Q 2975 3731 2742 3939 
Q 2509 4147 2053 4147 
L 1259 4147 
z
" transform="scale(0.015625)"/>
     <path id="DejaVuSans-4e" d="M 628 4666 
L 1478 4666 
L 3547 763 
L 3547 4666 
L 4159 4666 
L 4159 0 
L 3309 0 
L 1241 3903 
L 1241 0 
L 628 0 
L 628 4666 
z
" transform="scale(0.015625)"/>
    </defs>
    <use xlink:href="#DejaVuSans-61"/>
    <use xlink:href="#DejaVuSans-72" x="61.279297"/>
    <use xlink:href="#DejaVuSans-63" x="100.142578"/>
    <use xlink:href="#DejaVuSans-68" x="155.123047"/>
    <use xlink:href="#DejaVuSans-69" x="218.501953"/>
    <use xlink:href="#DejaVuSans-74" x="246.285156"/>
    <use xlink:href="#DejaVuSans-65" x="285.494141"/>
    <use xlink:href="#DejaVuSans-63" x="347.017578"/>
    <use xlink:href="#DejaVuSans-74" x="401.998047"/>
    <use xlink:href="#DejaVuSans-75" x="441.207031"/>
    <use xlink:href="#DejaVuSans-72" x="504.585938"/>
    <use xlink:href="#DejaVuSans-65" x="543.449219"/>
    <use xlink:href="#DejaVuSans-3a" x="604.972656"/>
    <use xlink:href="#DejaVuSans-20" x="638.664062"/>
    <use xlink:href="#DejaVuSans-52" x="670.451172"/>
    <use xlink:href="#DejaVuSans-65" x="735.433594"/>
    <use xlink:href="#DejaVuSans-73" x="796.957031"/>
    <use xlink:href="#DejaVuSans-4e" x="849.056641"/>
    <use xlink:href="#DejaVuSans-65" x="923.861328"/>
    <use xlink:href="#DejaVuSans-74" x="985.384766"/>
    <use xlink:href="#DejaVuSans-31" x="1024.59375"/>
    <use xlink:href="#DejaVuSans-38" x="1088.216797"/>
   </g>
   <!-- dataset: CIFAR10 -->
   <g transform="translate(274.359375 37.5925)scale(0.2 -0.2)">
    <defs>
     <path id="DejaVuSans-64" d="M 2906 2969 
L 2906 4863 
L 3481 4863 
L 3481 0 
L 2906 0 
L 2906 525 
Q 2725 213 2448 61 
Q 2172 -91 1784 -91 
Q 1150 -91 751 415 
Q 353 922 353 1747 
Q 353 2572 751 3078 
Q 1150 3584 1784 3584 
Q 2172 3584 2448 3432 
Q 2725 3281 2906 2969 
z
M 947 1747 
Q 947 1113 1208 752 
Q 1469 391 1925 391 
Q 2381 391 2643 752 
Q 2906 1113 2906 1747 
Q 2906 2381 2643 2742 
Q 2381 3103 1925 3103 
Q 1469 3103 1208 2742 
Q 947 2381 947 1747 
z
" transform="scale(0.015625)"/>
     <path id="DejaVuSans-43" d="M 4122 4306 
L 4122 3641 
Q 3803 3938 3442 4084 
Q 3081 4231 2675 4231 
Q 1875 4231 1450 3742 
Q 1025 3253 1025 2328 
Q 1025 1406 1450 917 
Q 1875 428 2675 428 
Q 3081 428 3442 575 
Q 3803 722 4122 1019 
L 4122 359 
Q 3791 134 3420 21 
Q 3050 -91 2638 -91 
Q 1578 -91 968 557 
Q 359 1206 359 2328 
Q 359 3453 968 4101 
Q 1578 4750 2638 4750 
Q 3056 4750 3426 4639 
Q 3797 4528 4122 4306 
z
" transform="scale(0.015625)"/>
     <path id="DejaVuSans-49" d="M 628 4666 
L 1259 4666 
L 1259 0 
L 628 0 
L 628 4666 
z
" transform="scale(0.015625)"/>
     <path id="DejaVuSans-46" d="M 628 4666 
L 3309 4666 
L 3309 4134 
L 1259 4134 
L 1259 2759 
L 3109 2759 
L 3109 2228 
L 1259 2228 
L 1259 0 
L 628 0 
L 628 4666 
z
" transform="scale(0.015625)"/>
     <path id="DejaVuSans-41" d="M 2188 4044 
L 1331 1722 
L 3047 1722 
L 2188 4044 
z
M 1831 4666 
L 2547 4666 
L 4325 0 
L 3669 0 
L 3244 1197 
L 1141 1197 
L 716 0 
L 50 0 
L 1831 4666 
z
" transform="scale(0.015625)"/>
    </defs>
    <use xlink:href="#DejaVuSans-64"/>
    <use xlink:href="#DejaVuSans-61" x="63.476562"/>
    <use xlink:href="#DejaVuSans-74" x="124.755859"/>
    <use xlink:href="#DejaVuSans-61" x="163.964844"/>
    <use xlink:href="#DejaVuSans-73" x="225.244141"/>
    <use xlink:href="#DejaVuSans-65" x="277.34375"/>
    <use xlink:href="#DejaVuSans-74" x="338.867188"/>
    <use xlink:href="#DejaVuSans-3a" x="378.076172"/>
    <use xlink:href="#DejaVuSans-20" x="411.767578"/>
    <use xlink:href="#DejaVuSans-43" x="443.554688"/>
    <use xlink:href="#DejaVuSans-49" x="513.378906"/>
    <use xlink:href="#DejaVuSans-46" x="542.871094"/>
    <use xlink:href="#DejaVuSans-41" x="591.265625"/>
    <use xlink:href="#DejaVuSans-52" x="659.673828"/>
    <use xlink:href="#DejaVuSans-31" x="729.15625"/>
    <use xlink:href="#DejaVuSans-30" x="792.779297"/>
   </g>
   <!-- rehearsal_dataset: stat-wmm -->
   <g transform="translate(213.315625 59.988125)scale(0.2 -0.2)">
    <defs>
     <path id="DejaVuSans-6c" d="M 603 4863 
L 1178 4863 
L 1178 0 
L 603 0 
L 603 4863 
z
" transform="scale(0.015625)"/>
     <path id="DejaVuSans-5f" d="M 3263 -1063 
L 3263 -1509 
L -63 -1509 
L -63 -1063 
L 3263 -1063 
z
" transform="scale(0.015625)"/>
     <path id="DejaVuSans-2d" d="M 313 2009 
L 1997 2009 
L 1997 1497 
L 313 1497 
L 313 2009 
z
" transform="scale(0.015625)"/>
     <path id="DejaVuSans-77" d="M 269 3500 
L 844 3500 
L 1563 769 
L 2278 3500 
L 2956 3500 
L 3675 769 
L 4391 3500 
L 4966 3500 
L 4050 0 
L 3372 0 
L 2619 2869 
L 1863 0 
L 1184 0 
L 269 3500 
z
" transform="scale(0.015625)"/>
     <path id="DejaVuSans-6d" d="M 3328 2828 
Q 3544 3216 3844 3400 
Q 4144 3584 4550 3584 
Q 5097 3584 5394 3201 
Q 5691 2819 5691 2113 
L 5691 0 
L 5113 0 
L 5113 2094 
Q 5113 2597 4934 2840 
Q 4756 3084 4391 3084 
Q 3944 3084 3684 2787 
Q 3425 2491 3425 1978 
L 3425 0 
L 2847 0 
L 2847 2094 
Q 2847 2600 2669 2842 
Q 2491 3084 2119 3084 
Q 1678 3084 1418 2786 
Q 1159 2488 1159 1978 
L 1159 0 
L 581 0 
L 581 3500 
L 1159 3500 
L 1159 2956 
Q 1356 3278 1631 3431 
Q 1906 3584 2284 3584 
Q 2666 3584 2933 3390 
Q 3200 3197 3328 2828 
z
" transform="scale(0.015625)"/>
    </defs>
    <use xlink:href="#DejaVuSans-72"/>
    <use xlink:href="#DejaVuSans-65" x="38.863281"/>
    <use xlink:href="#DejaVuSans-68" x="100.386719"/>
    <use xlink:href="#DejaVuSans-65" x="163.765625"/>
    <use xlink:href="#DejaVuSans-61" x="225.289062"/>
    <use xlink:href="#DejaVuSans-72" x="286.568359"/>
    <use xlink:href="#DejaVuSans-73" x="327.681641"/>
    <use xlink:href="#DejaVuSans-61" x="379.78125"/>
    <use xlink:href="#DejaVuSans-6c" x="441.060547"/>
    <use xlink:href="#DejaVuSans-5f" x="468.84375"/>
    <use xlink:href="#DejaVuSans-64" x="518.84375"/>
    <use xlink:href="#DejaVuSans-61" x="582.320312"/>
    <use xlink:href="#DejaVuSans-74" x="643.599609"/>
    <use xlink:href="#DejaVuSans-61" x="682.808594"/>
    <use xlink:href="#DejaVuSans-73" x="744.087891"/>
    <use xlink:href="#DejaVuSans-65" x="796.1875"/>
    <use xlink:href="#DejaVuSans-74" x="857.710938"/>
    <use xlink:href="#DejaVuSans-3a" x="896.919922"/>
    <use xlink:href="#DejaVuSans-20" x="930.611328"/>
    <use xlink:href="#DejaVuSans-73" x="962.398438"/>
    <use xlink:href="#DejaVuSans-74" x="1014.498047"/>
    <use xlink:href="#DejaVuSans-61" x="1053.707031"/>
    <use xlink:href="#DejaVuSans-74" x="1114.986328"/>
    <use xlink:href="#DejaVuSans-2d" x="1154.195312"/>
    <use xlink:href="#DejaVuSans-77" x="1190.279297"/>
    <use xlink:href="#DejaVuSans-6d" x="1272.066406"/>
    <use xlink:href="#DejaVuSans-6d" x="1369.478516"/>
   </g>
   <!-- batch_size_rehearsal: 128 -->
   <g transform="translate(229.859375 82.94)scale(0.2 -0.2)">
    <defs>
     <path id="DejaVuSans-62" d="M 3116 1747 
Q 3116 2381 2855 2742 
Q 2594 3103 2138 3103 
Q 1681 3103 1420 2742 
Q 1159 2381 1159 1747 
Q 1159 1113 1420 752 
Q 1681 391 2138 391 
Q 2594 391 2855 752 
Q 3116 1113 3116 1747 
z
M 1159 2969 
Q 1341 3281 1617 3432 
Q 1894 3584 2278 3584 
Q 2916 3584 3314 3078 
Q 3713 2572 3713 1747 
Q 3713 922 3314 415 
Q 2916 -91 2278 -91 
Q 1894 -91 1617 61 
Q 1341 213 1159 525 
L 1159 0 
L 581 0 
L 581 4863 
L 1159 4863 
L 1159 2969 
z
" transform="scale(0.015625)"/>
     <path id="DejaVuSans-7a" d="M 353 3500 
L 3084 3500 
L 3084 2975 
L 922 459 
L 3084 459 
L 3084 0 
L 275 0 
L 275 525 
L 2438 3041 
L 353 3041 
L 353 3500 
z
" transform="scale(0.015625)"/>
    </defs>
    <use xlink:href="#DejaVuSans-62"/>
    <use xlink:href="#DejaVuSans-61" x="63.476562"/>
    <use xlink:href="#DejaVuSans-74" x="124.755859"/>
    <use xlink:href="#DejaVuSans-63" x="163.964844"/>
    <use xlink:href="#DejaVuSans-68" x="218.945312"/>
    <use xlink:href="#DejaVuSans-5f" x="282.324219"/>
    <use xlink:href="#DejaVuSans-73" x="332.324219"/>
    <use xlink:href="#DejaVuSans-69" x="384.423828"/>
    <use xlink:href="#DejaVuSans-7a" x="412.207031"/>
    <use xlink:href="#DejaVuSans-65" x="464.697266"/>
    <use xlink:href="#DejaVuSans-5f" x="526.220703"/>
    <use xlink:href="#DejaVuSans-72" x="576.220703"/>
    <use xlink:href="#DejaVuSans-65" x="615.083984"/>
    <use xlink:href="#DejaVuSans-68" x="676.607422"/>
    <use xlink:href="#DejaVuSans-65" x="739.986328"/>
    <use xlink:href="#DejaVuSans-61" x="801.509766"/>
    <use xlink:href="#DejaVuSans-72" x="862.789062"/>
    <use xlink:href="#DejaVuSans-73" x="903.902344"/>
    <use xlink:href="#DejaVuSans-61" x="956.001953"/>
    <use xlink:href="#DejaVuSans-6c" x="1017.28125"/>
    <use xlink:href="#DejaVuSans-3a" x="1045.064453"/>
    <use xlink:href="#DejaVuSans-20" x="1078.755859"/>
    <use xlink:href="#DejaVuSans-31" x="1110.542969"/>
    <use xlink:href="#DejaVuSans-32" x="1174.166016"/>
    <use xlink:href="#DejaVuSans-38" x="1237.789062"/>
   </g>
   <!-- pretraining: True -->
   <g transform="translate(277.092188 105.891875)scale(0.2 -0.2)">
    <defs>
     <path id="DejaVuSans-67" d="M 2906 1791 
Q 2906 2416 2648 2759 
Q 2391 3103 1925 3103 
Q 1463 3103 1205 2759 
Q 947 2416 947 1791 
Q 947 1169 1205 825 
Q 1463 481 1925 481 
Q 2391 481 2648 825 
Q 2906 1169 2906 1791 
z
M 3481 434 
Q 3481 -459 3084 -895 
Q 2688 -1331 1869 -1331 
Q 1566 -1331 1297 -1286 
Q 1028 -1241 775 -1147 
L 775 -588 
Q 1028 -725 1275 -790 
Q 1522 -856 1778 -856 
Q 2344 -856 2625 -561 
Q 2906 -266 2906 331 
L 2906 616 
Q 2728 306 2450 153 
Q 2172 0 1784 0 
Q 1141 0 747 490 
Q 353 981 353 1791 
Q 353 2603 747 3093 
Q 1141 3584 1784 3584 
Q 2172 3584 2450 3431 
Q 2728 3278 2906 2969 
L 2906 3500 
L 3481 3500 
L 3481 434 
z
" transform="scale(0.015625)"/>
    </defs>
    <use xlink:href="#DejaVuSans-70"/>
    <use xlink:href="#DejaVuSans-72" x="63.476562"/>
    <use xlink:href="#DejaVuSans-65" x="102.339844"/>
    <use xlink:href="#DejaVuSans-74" x="163.863281"/>
    <use xlink:href="#DejaVuSans-72" x="203.072266"/>
    <use xlink:href="#DejaVuSans-61" x="244.185547"/>
    <use xlink:href="#DejaVuSans-69" x="305.464844"/>
    <use xlink:href="#DejaVuSans-6e" x="333.248047"/>
    <use xlink:href="#DejaVuSans-69" x="396.626953"/>
    <use xlink:href="#DejaVuSans-6e" x="424.410156"/>
    <use xlink:href="#DejaVuSans-67" x="487.789062"/>
    <use xlink:href="#DejaVuSans-3a" x="551.265625"/>
    <use xlink:href="#DejaVuSans-20" x="584.957031"/>
    <use xlink:href="#DejaVuSans-54" x="616.744141"/>
    <use xlink:href="#DejaVuSans-72" x="663.078125"/>
    <use xlink:href="#DejaVuSans-75" x="704.191406"/>
    <use xlink:href="#DejaVuSans-65" x="767.570312"/>
   </g>
   <!-- learning_rate: 0.03 -->
   <g transform="translate(265.078125 128.2875)scale(0.2 -0.2)">
    <defs>
     <path id="DejaVuSans-2e" d="M 684 794 
L 1344 794 
L 1344 0 
L 684 0 
L 684 794 
z
" transform="scale(0.015625)"/>
    </defs>
    <use xlink:href="#DejaVuSans-6c"/>
    <use xlink:href="#DejaVuSans-65" x="27.783203"/>
    <use xlink:href="#DejaVuSans-61" x="89.306641"/>
    <use xlink:href="#DejaVuSans-72" x="150.585938"/>
    <use xlink:href="#DejaVuSans-6e" x="189.949219"/>
    <use xlink:href="#DejaVuSans-69" x="253.328125"/>
    <use xlink:href="#DejaVuSans-6e" x="281.111328"/>
    <use xlink:href="#DejaVuSans-67" x="344.490234"/>
    <use xlink:href="#DejaVuSans-5f" x="407.966797"/>
    <use xlink:href="#DejaVuSans-72" x="457.966797"/>
    <use xlink:href="#DejaVuSans-61" x="499.080078"/>
    <use xlink:href="#DejaVuSans-74" x="560.359375"/>
    <use xlink:href="#DejaVuSans-65" x="599.568359"/>
    <use xlink:href="#DejaVuSans-3a" x="661.091797"/>
    <use xlink:href="#DejaVuSans-20" x="694.783203"/>
    <use xlink:href="#DejaVuSans-30" x="726.570312"/>
    <use xlink:href="#DejaVuSans-2e" x="790.193359"/>
    <use xlink:href="#DejaVuSans-30" x="821.980469"/>
    <use xlink:href="#DejaVuSans-33" x="885.603516"/>
   </g>
   <!-- epochs: 5 -->
   <g transform="translate(311.425 151.239375)scale(0.2 -0.2)">
    <defs>
     <path id="DejaVuSans-6f" d="M 1959 3097 
Q 1497 3097 1228 2736 
Q 959 2375 959 1747 
Q 959 1119 1226 758 
Q 1494 397 1959 397 
Q 2419 397 2687 759 
Q 2956 1122 2956 1747 
Q 2956 2369 2687 2733 
Q 2419 3097 1959 3097 
z
M 1959 3584 
Q 2709 3584 3137 3096 
Q 3566 2609 3566 1747 
Q 3566 888 3137 398 
Q 2709 -91 1959 -91 
Q 1206 -91 779 398 
Q 353 888 353 1747 
Q 353 2609 779 3096 
Q 1206 3584 1959 3584 
z
" transform="scale(0.015625)"/>
    </defs>
    <use xlink:href="#DejaVuSans-65"/>
    <use xlink:href="#DejaVuSans-70" x="61.523438"/>
    <use xlink:href="#DejaVuSans-6f" x="125"/>
    <use xlink:href="#DejaVuSans-63" x="186.181641"/>
    <use xlink:href="#DejaVuSans-68" x="241.162109"/>
    <use xlink:href="#DejaVuSans-73" x="304.541016"/>
    <use xlink:href="#DejaVuSans-3a" x="356.640625"/>
    <use xlink:href="#DejaVuSans-20" x="390.332031"/>
    <use xlink:href="#DejaVuSans-35" x="422.119141"/>
   </g>
   <!-- separate_noise_output: None -->
   <g transform="translate(213.63125 173.635)scale(0.2 -0.2)">
    <use xlink:href="#DejaVuSans-73"/>
    <use xlink:href="#DejaVuSans-65" x="52.099609"/>
    <use xlink:href="#DejaVuSans-70" x="113.623047"/>
    <use xlink:href="#DejaVuSans-61" x="177.099609"/>
    <use xlink:href="#DejaVuSans-72" x="238.378906"/>
    <use xlink:href="#DejaVuSans-61" x="279.492188"/>
    <use xlink:href="#DejaVuSans-74" x="340.771484"/>
    <use xlink:href="#DejaVuSans-65" x="379.980469"/>
    <use xlink:href="#DejaVuSans-5f" x="441.503906"/>
    <use xlink:href="#DejaVuSans-6e" x="491.503906"/>
    <use xlink:href="#DejaVuSans-6f" x="554.882812"/>
    <use xlink:href="#DejaVuSans-69" x="616.064453"/>
    <use xlink:href="#DejaVuSans-73" x="643.847656"/>
    <use xlink:href="#DejaVuSans-65" x="695.947266"/>
    <use xlink:href="#DejaVuSans-5f" x="757.470703"/>
    <use xlink:href="#DejaVuSans-6f" x="807.470703"/>
    <use xlink:href="#DejaVuSans-75" x="868.652344"/>
    <use xlink:href="#DejaVuSans-74" x="932.03125"/>
    <use xlink:href="#DejaVuSans-70" x="971.240234"/>
    <use xlink:href="#DejaVuSans-75" x="1034.716797"/>
    <use xlink:href="#DejaVuSans-74" x="1098.095703"/>
    <use xlink:href="#DejaVuSans-3a" x="1137.304688"/>
    <use xlink:href="#DejaVuSans-20" x="1170.996094"/>
    <use xlink:href="#DejaVuSans-4e" x="1202.783203"/>
    <use xlink:href="#DejaVuSans-6f" x="1277.587891"/>
    <use xlink:href="#DejaVuSans-6e" x="1338.769531"/>
    <use xlink:href="#DejaVuSans-65" x="1402.148438"/>
   </g>
   <!-- runs: 1 -->
   <g transform="translate(325.095312 196.586875)scale(0.2 -0.2)">
    <use xlink:href="#DejaVuSans-72"/>
    <use xlink:href="#DejaVuSans-75" x="41.113281"/>
    <use xlink:href="#DejaVuSans-6e" x="104.492188"/>
    <use xlink:href="#DejaVuSans-73" x="167.871094"/>
    <use xlink:href="#DejaVuSans-3a" x="219.970703"/>
    <use xlink:href="#DejaVuSans-20" x="253.662109"/>
    <use xlink:href="#DejaVuSans-31" x="285.449219"/>
   </g>
  </g>
 </g>
 <defs>
  <clipPath id="pcc6b718e26">
   <rect x="79.33125" y="243.543125" width="629.86875" height="347.1175"/>
  </clipPath>
  <clipPath id="p75c979c387">
   <rect x="79.33125" y="672.37" width="629.86875" height="347.1175"/>
  </clipPath>
 </defs>
</svg>
